<?xml version="1.0" encoding="utf-8"?>
<!-- Generator: Adobe Illustrator 25.3.0, SVG Export Plug-In . SVG Version: 6.00 Build 0)  -->
<svg version="1.1" id="Livello_1" xmlns="http://www.w3.org/2000/svg" xmlns:xlink="http://www.w3.org/1999/xlink" x="0px" y="0px"
	 viewBox="0 0 1920 1920" style="enable-background:new 0 0 1920 1920;" xml:space="preserve">
<style type="text/css">
	.st0{opacity:0.5;fill:#FFFFFF;enable-background:new    ;}
	.st1{opacity:0.7;fill:#FFFFFF;enable-background:new    ;}
	.st2{fill:#FFFFFF;}
	.st3{enable-background:new    ;}
	.st4{fill:#03045E;}
</style>
<circle class="st0" cx="960" cy="960" r="701.6"/>
<circle class="st1" cx="960" cy="960" r="581.2"/>
<circle class="st2" cx="960" cy="960" r="456.7"/>
<g class="st3">
	<path class="st4" d="M811.4,968.4h-35.1l-7.7,17h-4.8l27.8-60.5h4.4l27.8,60.5h-4.8L811.4,968.4z M809.8,964.7l-15.9-34.9
		l-15.8,34.9H809.8z"/>
</g>
<g class="st3">
	<path class="st4" d="M855.5,982.6c-1.1,1-2.5,1.8-4.1,2.4c-1.6,0.5-3.4,0.8-5.1,0.8c-3.9,0-6.9-1.1-9.1-3.2c-2.1-2.2-3.2-5.2-3.2-9
		v-29.5h-8.3v-3.7h8.3v-9.8h4.3v9.8h14.3v3.7h-14.3v29c0,2.9,0.7,5.2,2.1,6.7c1.4,1.5,3.5,2.3,6.3,2.3c2.8,0,5.2-0.8,7-2.5
		L855.5,982.6z"/>
	<path class="st4" d="M940.3,925v60.5h-4.4v-28.8h-40.4v28.8h-4.4V925h4.4v27.8h40.4V925H940.3z"/>
	<path class="st4" d="M966.1,982.9c-3.4-2-6.1-4.7-8.1-8.2c-2-3.5-2.9-7.4-2.9-11.8c0-4.4,1-8.3,2.9-11.8c2-3.5,4.7-6.2,8.1-8.2
		c3.4-2,7.3-2.9,11.5-2.9c4.3,0,8.1,1,11.5,2.9c3.4,2,6.1,4.7,8.1,8.2c2,3.5,2.9,7.4,2.9,11.8c0,4.4-1,8.3-2.9,11.8
		c-2,3.5-4.7,6.2-8.1,8.2c-3.4,2-7.3,2.9-11.5,2.9C973.4,985.8,969.6,984.8,966.1,982.9z M987,979.5c2.7-1.6,4.9-3.9,6.5-6.7
		c1.6-2.9,2.4-6.2,2.4-9.8c0-3.7-0.8-7-2.4-9.8c-1.6-2.9-3.7-5.1-6.5-6.7c-2.7-1.6-5.8-2.4-9.3-2.4s-6.6,0.8-9.3,2.4
		c-2.7,1.6-4.9,3.9-6.5,6.7c-1.6,2.9-2.4,6.2-2.4,9.8c0,3.7,0.8,7,2.4,9.8c1.6,2.9,3.7,5.1,6.5,6.7c2.7,1.6,5.8,2.4,9.3,2.4
		S984.2,981.1,987,979.5z"/>
</g>
<g class="st3">
	<path class="st4" d="M1082.9,944.9c3.2,3.3,4.8,8,4.8,14.2v26.4h-4.3v-26c0-5.1-1.2-8.9-3.7-11.6c-2.5-2.6-5.9-4-10.4-4
		c-5.1,0-9.1,1.6-12.1,4.8c-3,3.2-4.4,7.4-4.4,12.8v24h-4.3v-26c0-5.1-1.2-8.9-3.7-11.6c-2.5-2.6-5.9-4-10.4-4
		c-5.1,0-9.1,1.6-12.1,4.8c-3,3.2-4.4,7.4-4.4,12.8v24h-4.3v-45.1h4.1v9.7c1.5-3.2,3.7-5.6,6.7-7.4c3-1.8,6.5-2.6,10.6-2.6
		s7.6,0.9,10.4,2.8c2.9,1.8,4.9,4.6,6.1,8.1c1.5-3.3,3.8-6,7-7.9c3.2-2,6.9-2.9,11.2-2.9C1075.4,940,1079.7,941.6,1082.9,944.9z"/>
</g>
<g class="st3">
	<path class="st4" d="M1143.7,963.9h-38.8c0.1,3.5,1,6.6,2.7,9.4c1.7,2.7,3.9,4.9,6.8,6.4c2.9,1.5,6.1,2.2,9.6,2.2
		c2.9,0,5.7-0.5,8.2-1.6c2.5-1.1,4.6-2.6,6.3-4.7l2.5,2.9c-2,2.4-4.4,4.2-7.4,5.4c-3,1.3-6.2,1.9-9.6,1.9c-4.5,0-8.5-1-12-2.9
		c-3.5-2-6.3-4.7-8.3-8.1c-2-3.5-3-7.4-3-11.8c0-4.4,0.9-8.3,2.8-11.8c1.9-3.5,4.5-6.2,7.7-8.2c3.3-2,7-2.9,11.1-2.9
		c4.1,0,7.8,1,11,2.9c3.3,1.9,5.8,4.6,7.7,8.1c1.9,3.5,2.8,7.4,2.8,11.8L1143.7,963.9z M1113.7,945.9c-2.5,1.4-4.6,3.4-6.1,6
		c-1.5,2.6-2.4,5.5-2.6,8.7h34.6c-0.2-3.2-1-6.1-2.6-8.6c-1.6-2.5-3.6-4.5-6.1-6c-2.5-1.4-5.4-2.2-8.6-2.2
		C1119.1,943.8,1116.3,944.5,1113.7,945.9z"/>
</g>
</svg>
