<svg width="153" height="251" viewBox="0 0 153 251" fill="none" xmlns="http://www.w3.org/2000/svg">
<g filter="url(#filter0_d)">
<path d="M54.1443 165.055L57.5075 142.806H65.7861V160.916L63.4578 170.488L62.4229 195.841L57.5075 205.931L53.1095 208L50.7811 205.931L48.9702 208L45.0896 204.378L54.1443 190.667V165.055Z" fill="#188B64"/>
<path d="M80.791 168.935L83.1194 148.756L91.9154 150.567L89.587 189.891L94.2438 196.358L103.816 201.015H99.1592L100.453 203.861L87.5174 202.05L80.791 196.358L83.1194 179.284L80.791 168.935Z" fill="#188B64"/>
<path d="M51.2985 143.841L63.4577 84.0796L81.3084 86.1492L73.0298 146.169L60.0945 153.93L51.2985 143.841Z" fill="#43585B"/>
<path d="M95.2786 128.836L91.9154 84.8557L79.7562 85.8905L75.8756 104.259V150.826L87 157.552L98.6418 151.861L95.2786 128.836Z" fill="#43585B"/>
<path d="M55.9552 49.1542L63.4577 32.3383L67.8557 28.9751H76.6517L83.8955 29.4925L88.0348 34.4079L91.398 49.1542V86.1492L77.6865 87.9602L63.4577 85.3731V76.3184L55.9552 49.1542Z" fill="#5E8C83"/>
<path d="M91.398 79.6816L93.7264 81.4926V80.7165L96.0547 84.5971L94.5025 86.9254L95.0199 88.9951C94.2438 90.2886 92.5881 92.9274 92.1741 93.1344C91.7602 93.3413 91.4843 90.806 91.398 89.5125L89.0697 86.9254L88.5522 83.5622L91.398 79.6816Z" fill="#188B64"/>
<path d="M64.4925 42.9452L67.597 28.9751C63.9751 30.1824 55.2308 32.804 54.403 33.6318C53.5751 34.4597 40.5191 58.8988 35 69.592C42.2438 76.5771 56.8348 90.7542 57.2488 91.5821C57.6627 92.4099 58.6285 87.4428 59.0597 84.8557L47.4179 68.2985L64.4925 42.9452Z" fill="#5E8C83"/>
<path d="M86.4826 48.1194L83.8955 29.7512L89.8458 32.3383L102.522 52.5174L108.731 65.9701L96.3134 85.3731L93.7264 80.9751L100.453 64.4179L86.4826 48.1194Z" fill="#5E8C83"/>
<path d="M60.8706 30.01C60.6636 30.4239 58.1973 32.597 56.99 33.6318L61.6467 43.7214L80.0149 50.4478L82.0845 48.8955L88.0348 41.9104L87.2586 33.1144L88.0348 31.3035V27.4229C88.0348 27.2159 88.8971 26.4743 89.3283 26.1294V22.7662L91.3979 16.8159L86.2238 4.65672L75.3581 0L69.6666 1.55224L62.4228 8.27861L60.6119 17.3333L62.9402 26.6468L62.1641 28.4577C61.8192 28.8027 61.0776 29.596 60.8706 30.01Z" fill="#43585B"/>
<path d="M66.8209 28.7165L67.8557 12.9354L79.4975 8.53735L83.3781 12.1592L86.2239 15.2637L87.7761 16.816L87.5174 21.214L84.9304 25.3533L83.8955 28.7165L81.0498 30.2687L79.4975 33.3732L76.6518 39.8408L66.8209 28.7165Z" fill="#486163"/>
<path d="M76.6517 40.0993L68.1144 30.0097L68.8905 28.7162L69.4079 24.5769L78.2039 26.9053L77.6865 30.7859L80.791 31.3033L76.6517 40.0993Z" fill="#188B64"/>
<path d="M77.9453 28.199L74.3234 28.9751L73.5472 28.7164L75.8756 32.0796L77.9453 30.786V28.199Z" fill="#304340"/>
<path d="M75.3582 29.7514L67.0796 23.8011L67.8557 12.9354L79.4975 8.79614L87.5174 16.0399L84.6716 25.8708L75.3582 29.7514Z" fill="#188B64"/>
<path d="M59.8358 85.8904L61.388 80.4575L65.2686 82.5272L64.4925 84.8555L65.2686 86.6665L62.9403 93.3928C61.8192 93.3066 57.5074 91.5819 57.5074 91.5819L59.0597 84.8555L59.8358 85.8904Z" fill="#188B64"/>
<path d="M83.3781 18.3682L80.0149 19.6617V21.9901C80.9635 21.7313 82.9641 21.1622 83.3781 20.9552C83.792 20.7483 83.8955 20.3516 83.8955 20.1791L83.3781 18.3682Z" fill="#75E2BE"/>
<path d="M69.1492 14.4875L67.8557 12.6766L80.0149 8.27856L88.2935 15.0049L87 16.0398L81.8259 13.7114L83.8955 16.0398L80.0149 14.4875L80.791 16.5572C79.4975 16.2122 76.807 15.5223 76.393 15.5223C75.9791 15.5223 76.9104 16.7296 77.4279 17.3333L70.7015 13.9701L71.4776 15.5223L69.1492 13.7114V14.4875Z" fill="#B8B8B8"/>
<path d="M71.7364 17.0745L68.8906 17.8506L69.9255 20.4376L73.0299 19.4028L71.7364 17.0745Z" fill="#75E2BE"/>
<path d="M78.204 18.8855L82.3433 9.8308L80.015 8.27856L67.8557 12.6766L66.8209 29.2338L69.9254 32.3383L72.5125 27.6816L77.6866 21.99L78.204 18.8855Z" fill="#244A3B" fill-opacity="0.2"/>
<path d="M78.7215 122.885L77.4279 107.363L76.1344 125.731L78.7215 122.885Z" fill="#2F3738"/>
</g>
<defs>
<filter id="filter0_d" x="31" y="0" width="81.7313" height="216" filterUnits="userSpaceOnUse" color-interpolation-filters="sRGB">
<feFlood flood-opacity="0" result="BackgroundImageFix"/>
<feColorMatrix in="SourceAlpha" type="matrix" values="0 0 0 0 0 0 0 0 0 0 0 0 0 0 0 0 0 0 127 0"/>
<feOffset dy="4"/>
<feGaussianBlur stdDeviation="2"/>
<feColorMatrix type="matrix" values="0 0 0 0 0 0 0 0 0 0 0 0 0 0 0 0 0 0 0.25 0"/>
<feBlend mode="normal" in2="BackgroundImageFix" result="effect1_dropShadow"/>
<feBlend mode="normal" in="SourceGraphic" in2="effect1_dropShadow" result="shape"/>
</filter>
</defs>
</svg>
