<svg width="74" height="208" viewBox="0 0 74 208" fill="none" xmlns="http://www.w3.org/2000/svg">
<path d="M19.1443 165.055L22.5075 142.806H30.7861V160.916L28.4578 170.488L27.4229 195.841L22.5075 205.931L18.1095 208L15.7811 205.931L13.9702 208L10.0896 204.378L19.1443 190.667V165.055Z" fill="#188B64"/>
<path d="M45.791 168.935L48.1194 148.756L56.9154 150.567L54.587 189.891L59.2438 196.358L68.8159 201.015H64.1592L65.4527 203.861L52.5174 202.05L45.791 196.358L48.1194 179.284L45.791 168.935Z" fill="#188B64"/>
<path d="M16.2985 143.841L28.4577 84.0796L46.3084 86.1492L38.0298 146.169L25.0945 153.93L16.2985 143.841Z" fill="#43585B"/>
<path d="M60.2786 128.836L56.9154 84.8557L44.7562 85.8905L40.8756 104.259V150.826L52 157.552L63.6418 151.861L60.2786 128.836Z" fill="#43585B"/>
<path d="M20.9552 49.1542L28.4577 32.3383L32.8557 28.9751H41.6517L48.8955 29.4925L53.0348 34.4079L56.398 49.1542V86.1492L42.6865 87.9602L28.4577 85.3731V76.3184L20.9552 49.1542Z" fill="#5E8C83"/>
<path d="M56.398 79.6816L58.7264 81.4926V80.7165L61.0547 84.5971L59.5025 86.9254L60.0199 88.9951C59.2438 90.2886 57.5881 92.9274 57.1741 93.1344C56.7602 93.3413 56.4843 90.806 56.398 89.5125L54.0697 86.9254L53.5522 83.5622L56.398 79.6816Z" fill="#188B64"/>
<path d="M29.4925 42.9452L32.597 28.9751C28.9751 30.1824 20.2308 32.804 19.403 33.6318C18.5751 34.4597 5.51907 58.8988 0 69.592C7.24378 76.5771 21.8348 90.7542 22.2488 91.5821C22.6627 92.4099 23.6285 87.4428 24.0597 84.8557L12.4179 68.2985L29.4925 42.9452Z" fill="#5E8C83"/>
<path d="M51.4826 48.1194L48.8955 29.7512L54.8458 32.3383L67.5224 52.5174L73.7313 65.9701L61.3134 85.3731L58.7264 80.9751L65.4527 64.4179L51.4826 48.1194Z" fill="#5E8C83"/>
<path d="M25.8706 30.01C25.6636 30.4239 23.1973 32.597 21.99 33.6318L26.6467 43.7214L45.0149 50.4478L47.0845 48.8955L53.0348 41.9104L52.2586 33.1144L53.0348 31.3035V27.4229C53.0348 27.2159 53.8971 26.4743 54.3283 26.1294V22.7662L56.3979 16.8159L51.2238 4.65672L40.3581 0L34.6666 1.55224L27.4228 8.27861L25.6119 17.3333L27.9402 26.6468L27.1641 28.4577C26.8192 28.8027 26.0776 29.596 25.8706 30.01Z" fill="#43585B"/>
<path d="M31.8209 28.7165L32.8557 12.9354L44.4975 8.53735L48.3781 12.1592L51.2239 15.2637L52.7761 16.816L52.5174 21.214L49.9304 25.3533L48.8955 28.7165L46.0498 30.2687L44.4975 33.3732L41.6518 39.8408L31.8209 28.7165Z" fill="#486163"/>
<path d="M41.6517 40.0993L33.1144 30.0097L33.8905 28.7162L34.4079 24.5769L43.2039 26.9053L42.6865 30.7859L45.791 31.3033L41.6517 40.0993Z" fill="#188B64"/>
<path d="M42.9453 28.199L39.3234 28.9751L38.5472 28.7164L40.8756 32.0796L42.9453 30.786V28.199Z" fill="#304340"/>
<path d="M40.3582 29.7514L32.0796 23.8011L32.8557 12.9354L44.4975 8.79614L52.5174 16.0399L49.6716 25.8708L40.3582 29.7514Z" fill="#188B64"/>
<path d="M24.8358 85.8904L26.388 80.4575L30.2686 82.5272L29.4925 84.8555L30.2686 86.6665L27.9403 93.3928C26.8192 93.3066 22.5074 91.5819 22.5074 91.5819L24.0597 84.8555L24.8358 85.8904Z" fill="#188B64"/>
<path d="M48.3781 18.3682L45.0149 19.6617V21.9901C45.9635 21.7313 47.9641 21.1622 48.3781 20.9552C48.792 20.7483 48.8955 20.3516 48.8955 20.1791L48.3781 18.3682Z" fill="#75E2BE"/>
<path d="M34.1492 14.4875L32.8557 12.6766L45.0149 8.27856L53.2935 15.0049L52 16.0398L46.8259 13.7114L48.8955 16.0398L45.0149 14.4875L45.791 16.5572C44.4975 16.2122 41.807 15.5223 41.393 15.5223C40.9791 15.5223 41.9104 16.7296 42.4279 17.3333L35.7015 13.9701L36.4776 15.5223L34.1492 13.7114V14.4875Z" fill="#B8B8B8"/>
<path d="M36.7364 17.0745L33.8906 17.8506L34.9255 20.4376L38.0299 19.4028L36.7364 17.0745Z" fill="#75E2BE"/>
<path d="M43.204 18.8855L47.3433 9.8308L45.015 8.27856L32.8557 12.6766L31.8209 29.2338L34.9254 32.3383L37.5125 27.6816L42.6866 21.99L43.204 18.8855Z" fill="#244A3B" fill-opacity="0.2"/>
<path d="M43.7215 122.885L42.4279 107.363L41.1344 125.731L43.7215 122.885Z" fill="#2F3738"/>
</svg>
