<?xml version="1.0" encoding="utf-8"?>
<!-- Generator: Adobe Illustrator 25.3.0, SVG Export Plug-In . SVG Version: 6.00 Build 0)  -->
<svg version="1.1" id="Livello_1" xmlns="http://www.w3.org/2000/svg" xmlns:xlink="http://www.w3.org/1999/xlink" x="0px" y="0px"
	 viewBox="0 0 1920 1920" style="enable-background:new 0 0 1920 1920;" xml:space="preserve">
<style type="text/css">
	.st0{opacity:0.5;fill:#FFFFFF;enable-background:new    ;}
	.st1{opacity:0.7;fill:#FFFFFF;enable-background:new    ;}
	.st2{fill:#FFFFFF;}
	.st3{enable-background:new    ;}
	.st4{fill:#03045E;}
</style>
<circle class="st0" cx="960" cy="960" r="701.6"/>
<circle class="st1" cx="960" cy="960" r="581.2"/>
<circle class="st2" cx="960" cy="960" r="456.7"/>
<g class="st3">
	<path class="st4" d="M857.9,810.3c2.3,2.6,3.4,6,3.4,10.1c0,5.1-1.9,9.1-5.6,11.8c-3.7,2.8-9.3,4.1-16.7,4.1h-27v-60.5h25.2
		c6.6,0,11.7,1.3,15.3,4c3.7,2.7,5.5,6.5,5.5,11.4c0,3.5-0.9,6.4-2.7,8.7c-1.8,2.4-4.3,4.1-7.4,5.1
		C852.3,806,855.6,807.7,857.9,810.3z M816.5,779.7v24.1h20.6c5.3,0,9.4-1,12.2-3.1c2.9-2,4.3-5.1,4.3-9c0-3.9-1.4-6.9-4.3-8.9
		c-2.9-2-6.9-3.1-12.2-3.1H816.5z M852.4,829.5c3-2,4.5-5.2,4.5-9.5c0-4.3-1.5-7.4-4.5-9.4c-3-2-7.5-3-13.3-3h-22.6v25H839
		C844.9,832.6,849.4,831.5,852.4,829.5z"/>
</g>
<g class="st3">
	<path class="st4" d="M913.8,814.8H875c0.1,3.5,1,6.6,2.7,9.4c1.7,2.7,3.9,4.9,6.8,6.4c2.9,1.5,6.1,2.2,9.6,2.2
		c2.9,0,5.7-0.5,8.2-1.6c2.5-1.1,4.6-2.6,6.3-4.7l2.5,2.9c-2,2.4-4.4,4.2-7.4,5.4c-3,1.3-6.2,1.9-9.6,1.9c-4.5,0-8.5-1-12-2.9
		c-3.5-2-6.3-4.7-8.3-8.1s-3-7.4-3-11.8c0-4.4,0.9-8.3,2.8-11.8c1.9-3.5,4.4-6.2,7.7-8.2c3.3-2,7-2.9,11.1-2.9c4.1,0,7.8,1,11,2.9
		c3.3,1.9,5.8,4.6,7.7,8.1c1.9,3.5,2.8,7.4,2.8,11.8L913.8,814.8z M883.8,796.8c-2.5,1.4-4.6,3.4-6.1,6c-1.5,2.6-2.4,5.5-2.6,8.7
		h34.6c-0.2-3.2-1-6.1-2.6-8.6c-1.6-2.5-3.6-4.5-6.1-6c-2.5-1.4-5.4-2.2-8.6-2.2C889.2,794.7,886.3,795.4,883.8,796.8z"/>
</g>
<g class="st3">
	<path class="st4" d="M954,795.2c3,2.9,4.5,7,4.5,12.6v28.6h-4.1v-8c-1.4,2.7-3.5,4.7-6.3,6.2s-6.1,2.2-9.9,2.2c-5,0-9-1.2-11.9-3.5
		c-2.9-2.4-4.4-5.5-4.4-9.3c0-3.7,1.3-6.8,4-9.1c2.7-2.3,7-3.5,12.8-3.5h15.5v-3.6c0-4.2-1.1-7.4-3.4-9.6c-2.3-2.2-5.6-3.3-10-3.3
		c-3,0-5.9,0.5-8.6,1.6c-2.7,1-5.1,2.4-7,4.1l-2.2-3.1c2.2-2,5-3.6,8.1-4.7c3.2-1.1,6.5-1.7,9.9-1.7
		C946.8,790.9,951,792.3,954,795.2z M948.3,830.6c2.6-1.7,4.6-4.2,5.9-7.5v-8.5h-15.4c-4.4,0-7.6,0.8-9.6,2.4c-2,1.6-3,3.8-3,6.7
		c0,2.9,1.1,5.3,3.3,7c2.2,1.7,5.3,2.5,9.2,2.5C942.5,833.2,945.7,832.3,948.3,830.6z"/>
	<path class="st4" d="M1015.8,791.3v45.1h-4.1v-9.7c-1.5,3.2-3.7,5.6-6.7,7.4c-2.9,1.8-6.4,2.6-10.4,2.6c-5.9,0-10.5-1.6-13.8-4.9
		c-3.3-3.3-5-8-5-14.2v-26.4h4.3v26c0,5.1,1.3,8.9,3.9,11.6c2.6,2.6,6.2,4,11,4c5.1,0,9.1-1.6,12.1-4.8c3-3.2,4.5-7.4,4.5-12.8v-24
		H1015.8z"/>
</g>
<g class="st3">
	<path class="st4" d="M1056.5,833.5c-1.1,1-2.5,1.8-4.1,2.4c-1.6,0.5-3.4,0.8-5.1,0.8c-3.9,0-6.9-1.1-9.1-3.2s-3.2-5.2-3.2-9V795
		h-8.3v-3.7h8.3v-9.8h4.3v9.8h14.3v3.7h-14.3v29c0,2.9,0.7,5.2,2.1,6.7c1.4,1.5,3.5,2.3,6.3,2.3c2.8,0,5.2-0.8,7-2.5L1056.5,833.5z"
		/>
</g>
<g class="st3">
	<path class="st4" d="M1103.9,791.3l-23.2,51.2c-1.7,4-3.7,6.8-6,8.5c-2.3,1.7-5,2.5-8.1,2.5c-2.1,0-4-0.3-5.8-1s-3.4-1.7-4.6-3
		l2.2-3.3c2.3,2.4,5.1,3.5,8.4,3.5c2.2,0,4.1-0.6,5.6-1.8s3-3.3,4.3-6.2l2.4-5.4l-20.3-44.9h4.6l18.1,40.3l18.1-40.3H1103.9z"/>
</g>
<g class="st3">
	<path class="st4" d="M1112.4,830.4c0.7,0.7,1,1.6,1,2.5c0,0.6-0.1,1.2-0.2,1.8c-0.1,0.6-0.3,1.4-0.6,2.2l-3.4,11.8h-3.1l2.9-12.2
		c-0.9-0.2-1.6-0.6-2.1-1.3c-0.5-0.6-0.8-1.4-0.8-2.3c0-1,0.3-1.9,1-2.6c0.7-0.7,1.6-1,2.6-1S1111.7,829.7,1112.4,830.4z"/>
</g>
<g class="st3">
	<path class="st4" d="M646.4,897.5c3.4,2,6.1,4.7,8,8.1c1.9,3.5,2.9,7.4,2.9,11.8c0,4.4-1,8.4-2.9,11.9c-1.9,3.5-4.6,6.2-8,8.1
		c-3.4,1.9-7.2,2.9-11.4,2.9c-4,0-7.6-0.9-10.8-2.8c-3.2-1.9-5.7-4.5-7.5-7.8v27h-4.3v-61.9h4.1v10.6c1.8-3.5,4.3-6.1,7.6-8.1
		c3.3-1.9,6.9-2.9,10.9-2.9C639.2,894.6,643,895.6,646.4,897.5z M644,934.1c2.8-1.6,4.9-3.9,6.5-6.7c1.6-2.9,2.4-6.2,2.4-9.8
		c0-3.7-0.8-7-2.4-9.8c-1.6-2.9-3.8-5.1-6.5-6.7c-2.8-1.6-5.9-2.4-9.3-2.4s-6.6,0.8-9.3,2.4c-2.7,1.6-4.9,3.9-6.5,6.7
		c-1.6,2.9-2.4,6.2-2.4,9.8c0,3.7,0.8,7,2.4,9.8c1.6,2.9,3.7,5.1,6.5,6.7c2.7,1.6,5.8,2.4,9.3,2.4S641.3,935.7,644,934.1z"/>
	<path class="st4" d="M708.8,918.5H670c0.1,3.5,1,6.6,2.7,9.4c1.7,2.7,3.9,4.9,6.8,6.4c2.9,1.5,6.1,2.2,9.6,2.2
		c2.9,0,5.7-0.5,8.2-1.6c2.5-1.1,4.6-2.6,6.3-4.7l2.5,2.9c-2,2.4-4.4,4.2-7.4,5.4c-3,1.3-6.2,1.9-9.6,1.9c-4.5,0-8.5-1-12-2.9
		c-3.5-2-6.3-4.7-8.3-8.1s-3-7.4-3-11.8c0-4.4,0.9-8.3,2.8-11.8c1.9-3.5,4.4-6.2,7.7-8.2c3.3-2,7-2.9,11.1-2.9c4.1,0,7.8,1,11,2.9
		c3.3,1.9,5.8,4.6,7.7,8.1c1.9,3.5,2.8,7.4,2.8,11.8L708.8,918.5z M678.8,900.5c-2.5,1.4-4.6,3.4-6.1,6c-1.5,2.6-2.4,5.5-2.6,8.7
		h34.6c-0.2-3.2-1-6.1-2.6-8.6c-1.6-2.5-3.6-4.5-6.1-6c-2.5-1.4-5.4-2.2-8.6-2.2C684.2,898.4,681.3,899.1,678.8,900.5z"/>
</g>
<g class="st3">
	<path class="st4" d="M732.9,897.2c2.9-1.8,6.5-2.6,10.7-2.6v4.2l-1-0.1c-5,0-8.9,1.6-11.8,4.7c-2.8,3.1-4.2,7.5-4.2,13.1V940h-4.3
		v-45.1h4.1v9.8C727.8,901.5,729.9,899,732.9,897.2z"/>
</g>
<g class="st3">
	<path class="st4" d="M757,938.7c-3.3-1.1-5.8-2.5-7.7-4.1l2-3.5c1.8,1.6,4.2,2.9,7.1,3.9c2.9,1,5.9,1.6,9.1,1.6
		c4.5,0,7.9-0.7,10.1-2.2c2.2-1.5,3.2-3.6,3.2-6.2c0-1.9-0.6-3.4-1.8-4.5c-1.2-1.1-2.6-1.9-4.4-2.4s-4.1-1.1-7.2-1.6
		c-3.6-0.6-6.5-1.3-8.6-2.1c-2.2-0.7-4.1-2-5.6-3.6c-1.6-1.7-2.3-4-2.3-6.9c0-3.6,1.5-6.5,4.4-8.9c3-2.3,7.2-3.5,12.7-3.5
		c2.9,0,5.7,0.4,8.6,1.2c2.8,0.8,5.1,1.9,6.9,3.2l-2,3.5c-1.8-1.3-3.9-2.3-6.3-3c-2.4-0.7-4.8-1-7.3-1c-4.2,0-7.4,0.8-9.5,2.3
		c-2.1,1.6-3.2,3.6-3.2,6.1c0,2,0.6,3.6,1.8,4.7c1.2,1.1,2.7,2,4.4,2.5c1.8,0.5,4.2,1.1,7.4,1.8c3.5,0.6,6.4,1.3,8.5,2
		c2.2,0.7,4,1.9,5.5,3.5c1.5,1.6,2.2,3.8,2.2,6.7c0,3.7-1.6,6.7-4.7,9c-3.1,2.2-7.5,3.4-13.1,3.4C763.7,940.4,760.2,939.8,757,938.7
		z"/>
	<path class="st4" d="M803.3,937.4c-3.4-2-6.1-4.7-8.1-8.2c-2-3.5-2.9-7.4-2.9-11.8c0-4.4,1-8.3,2.9-11.8c2-3.5,4.7-6.2,8.1-8.2
		c3.4-2,7.3-2.9,11.5-2.9c4.3,0,8.1,1,11.5,2.9c3.4,2,6.1,4.7,8.1,8.2c2,3.5,2.9,7.4,2.9,11.8c0,4.4-1,8.3-2.9,11.8
		c-2,3.5-4.7,6.2-8.1,8.2c-3.4,2-7.3,2.9-11.5,2.9C810.6,940.4,806.7,939.4,803.3,937.4z M824.1,934.1c2.7-1.6,4.9-3.9,6.5-6.7
		c1.6-2.9,2.4-6.2,2.4-9.8c0-3.7-0.8-7-2.4-9.8c-1.6-2.9-3.7-5.1-6.5-6.7c-2.7-1.6-5.8-2.4-9.3-2.4s-6.6,0.8-9.3,2.4
		c-2.7,1.6-4.9,3.9-6.5,6.7c-1.6,2.9-2.4,6.2-2.4,9.8c0,3.7,0.8,7,2.4,9.8c1.6,2.9,3.7,5.1,6.5,6.7c2.7,1.6,5.8,2.4,9.3,2.4
		S821.4,935.7,824.1,934.1z"/>
	<path class="st4" d="M886.2,899.5c3.3,3.3,4.9,8,4.9,14.2V940h-4.3v-26c0-5.1-1.3-8.9-3.8-11.6c-2.6-2.6-6.1-4-10.8-4
		c-5.3,0-9.5,1.6-12.5,4.8c-3.1,3.2-4.6,7.4-4.6,12.8v24h-4.3v-45.1h4.1v9.8c1.6-3.2,3.9-5.6,7-7.4c3.1-1.8,6.7-2.7,10.9-2.7
		C878.5,894.6,882.9,896.2,886.2,899.5z"/>
	<path class="st4" d="M937,898.9c3,2.9,4.5,7,4.5,12.6V940h-4.1v-8c-1.4,2.7-3.5,4.7-6.3,6.2s-6.1,2.2-9.9,2.2c-5,0-9-1.2-11.9-3.5
		c-2.9-2.4-4.4-5.5-4.4-9.3c0-3.7,1.3-6.8,4-9.1c2.7-2.3,7-3.5,12.8-3.5h15.5v-3.6c0-4.2-1.1-7.4-3.4-9.6c-2.3-2.2-5.6-3.3-10-3.3
		c-3,0-5.9,0.5-8.6,1.6c-2.7,1-5.1,2.4-7,4.1l-2.2-3.1c2.2-2,5-3.6,8.1-4.7c3.2-1.1,6.5-1.7,9.9-1.7C929.7,894.6,934,896,937,898.9z
		 M931.3,934.3c2.6-1.7,4.6-4.2,5.9-7.5v-8.5h-15.4c-4.4,0-7.6,0.8-9.6,2.4c-2,1.6-3,3.8-3,6.7c0,2.9,1.1,5.3,3.3,7
		c2.2,1.7,5.3,2.5,9.2,2.5C925.5,936.8,928.7,936,931.3,934.3z"/>
	<path class="st4" d="M959.3,875.9h4.3V940h-4.3V875.9z"/>
</g>
<g class="st3">
	<path class="st4" d="M1039.5,899.5c3.3,3.3,4.9,8,4.9,14.2V940h-4.3v-26c0-5.1-1.3-8.9-3.8-11.6c-2.6-2.6-6.1-4-10.8-4
		c-5.3,0-9.5,1.6-12.5,4.8c-3.1,3.2-4.6,7.4-4.6,12.8v24h-4.3v-64.1h4.3v28.4c1.6-3.1,3.9-5.5,6.9-7.2c3.1-1.7,6.7-2.5,10.8-2.5
		C1031.7,894.6,1036.2,896.2,1039.5,899.5z"/>
</g>
<g class="st3">
	<path class="st4" d="M1097.5,894.9l-23.2,51.2c-1.7,4-3.7,6.8-6,8.5c-2.3,1.7-5,2.5-8.1,2.5c-2.1,0-4-0.3-5.8-1s-3.4-1.7-4.6-3
		l2.2-3.3c2.3,2.4,5.1,3.5,8.4,3.5c2.2,0,4.1-0.6,5.6-1.8s3-3.3,4.3-6.2l2.4-5.4l-20.3-44.9h4.6l18.1,40.3l18.1-40.3H1097.5z"/>
</g>
<g class="st3">
	<path class="st4" d="M1146.3,894.9v40.3c0,7.5-1.8,13-5.4,16.6s-9.1,5.4-16.4,5.4c-4.1,0-8.1-0.6-11.8-1.9c-3.7-1.3-6.7-3-8.9-5.3
		l2.3-3.3c2.2,2.1,5,3.7,8.1,4.8c3.2,1.2,6.5,1.7,10.1,1.7c6,0,10.4-1.4,13.3-4.3c2.9-2.9,4.3-7.3,4.3-13.3v-7.6
		c-1.8,3.3-4.4,5.8-7.7,7.6c-3.3,1.8-7,2.7-11.1,2.7c-4.2,0-8-0.9-11.4-2.8c-3.4-1.9-6.1-4.5-8.1-7.8c-2-3.3-2.9-7.1-2.9-11.3
		c0-4.2,1-8,2.9-11.3c2-3.3,4.7-5.9,8.1-7.8c3.4-1.8,7.2-2.8,11.4-2.8c4.1,0,7.9,0.9,11.2,2.8c3.3,1.8,5.9,4.4,7.7,7.8v-10.2H1146.3
		z M1133.1,932.2c2.8-1.5,5-3.7,6.6-6.4c1.6-2.7,2.4-5.9,2.4-9.4c0-3.5-0.8-6.6-2.4-9.3c-1.6-2.7-3.8-4.8-6.6-6.4
		c-2.8-1.5-6-2.3-9.5-2.3c-3.5,0-6.7,0.8-9.5,2.3c-2.8,1.5-5,3.6-6.6,6.4c-1.6,2.7-2.4,5.8-2.4,9.3c0,3.5,0.8,6.6,2.4,9.4
		c1.6,2.7,3.8,4.9,6.6,6.4c2.8,1.5,5.9,2.3,9.5,2.3C1127.1,934.5,1130.2,933.7,1133.1,932.2z"/>
	<path class="st4" d="M1202.7,918.5h-38.8c0.1,3.5,1,6.6,2.7,9.4c1.7,2.7,3.9,4.9,6.8,6.4c2.9,1.5,6.1,2.2,9.6,2.2
		c2.9,0,5.7-0.5,8.2-1.6c2.5-1.1,4.6-2.6,6.3-4.7l2.5,2.9c-2,2.4-4.4,4.2-7.4,5.4c-3,1.3-6.2,1.9-9.6,1.9c-4.5,0-8.5-1-12-2.9
		c-3.5-2-6.3-4.7-8.3-8.1c-2-3.5-3-7.4-3-11.8c0-4.4,0.9-8.3,2.8-11.8c1.9-3.5,4.5-6.2,7.7-8.2c3.3-2,7-2.9,11.1-2.9
		c4.1,0,7.8,1,11,2.9c3.3,1.9,5.8,4.6,7.7,8.1c1.9,3.5,2.8,7.4,2.8,11.8L1202.7,918.5z M1172.7,900.5c-2.5,1.4-4.6,3.4-6.1,6
		c-1.5,2.6-2.4,5.5-2.6,8.7h34.6c-0.2-3.2-1-6.1-2.6-8.6c-1.6-2.5-3.6-4.5-6.1-6c-2.5-1.4-5.4-2.2-8.6-2.2
		C1178.1,898.4,1175.3,899.1,1172.7,900.5z"/>
</g>
<g class="st3">
	<path class="st4" d="M1251.6,899.5c3.3,3.3,4.9,8,4.9,14.2V940h-4.3v-26c0-5.1-1.3-8.9-3.8-11.6c-2.6-2.6-6.1-4-10.8-4
		c-5.3,0-9.5,1.6-12.5,4.8c-3.1,3.2-4.6,7.4-4.6,12.8v24h-4.3v-45.1h4.1v9.8c1.6-3.2,3.9-5.6,7-7.4c3.1-1.8,6.7-2.7,10.9-2.7
		C1243.9,894.6,1248.3,896.2,1251.6,899.5z"/>
</g>
<g class="st3">
	<path class="st4" d="M1312.5,918.5h-38.8c0.1,3.5,1,6.6,2.7,9.4c1.7,2.7,3.9,4.9,6.8,6.4c2.9,1.5,6.1,2.2,9.6,2.2
		c2.9,0,5.7-0.5,8.2-1.6c2.5-1.1,4.6-2.6,6.3-4.7l2.5,2.9c-2,2.4-4.4,4.2-7.4,5.4c-3,1.3-6.2,1.9-9.6,1.9c-4.5,0-8.5-1-12-2.9
		c-3.5-2-6.3-4.7-8.3-8.1c-2-3.5-3-7.4-3-11.8c0-4.4,0.9-8.3,2.8-11.8c1.9-3.5,4.4-6.2,7.7-8.2c3.3-2,7-2.9,11.1-2.9s7.8,1,11,2.9
		c3.3,1.9,5.8,4.6,7.7,8.1c1.9,3.5,2.8,7.4,2.8,11.8L1312.5,918.5z M1282.5,900.5c-2.5,1.4-4.6,3.4-6.1,6c-1.5,2.6-2.4,5.5-2.6,8.7
		h34.6c-0.2-3.2-1-6.1-2.6-8.6c-1.6-2.5-3.6-4.5-6.1-6c-2.5-1.4-5.4-2.2-8.6-2.2S1285.1,899.1,1282.5,900.5z"/>
</g>
<g class="st3">
	<path class="st4" d="M913.8,1002.6c3,2.9,4.5,7,4.5,12.6v28.6h-4.1v-8c-1.4,2.7-3.5,4.7-6.3,6.2s-6.1,2.2-9.9,2.2
		c-5,0-9-1.2-11.9-3.5c-2.9-2.4-4.4-5.5-4.4-9.3c0-3.7,1.3-6.8,4-9.1c2.7-2.3,7-3.5,12.8-3.5h15.5v-3.6c0-4.2-1.1-7.4-3.4-9.6
		c-2.3-2.2-5.6-3.3-10-3.3c-3,0-5.9,0.5-8.6,1.6c-2.7,1-5.1,2.4-7,4.1l-2.2-3.1c2.2-2,5-3.6,8.1-4.7c3.2-1.1,6.5-1.7,9.9-1.7
		C906.5,998.3,910.8,999.7,913.8,1002.6z M908,1037.9c2.6-1.7,4.6-4.2,5.9-7.5v-8.5h-15.4c-4.4,0-7.6,0.8-9.6,2.4
		c-2,1.6-3,3.8-3,6.7c0,2.9,1.1,5.3,3.3,7c2.2,1.7,5.3,2.5,9.2,2.5C902.2,1040.5,905.4,1039.7,908,1037.9z"/>
</g>
<g class="st3">
	<path class="st4" d="M971.5,1003.2c3.3,3.3,4.9,8,4.9,14.2v26.4h-4.3v-26c0-5.1-1.3-8.9-3.8-11.6c-2.6-2.6-6.1-4-10.8-4
		c-5.3,0-9.5,1.6-12.5,4.8c-3.1,3.2-4.6,7.4-4.6,12.8v24h-4.3v-45.1h4.1v9.8c1.6-3.2,3.9-5.6,7-7.4c3.1-1.8,6.7-2.7,10.9-2.7
		C963.7,998.3,968.2,999.9,971.5,1003.2z"/>
</g>
<g class="st3">
	<path class="st4" d="M1034.4,979.6v64.1h-4.2v-10.6c-1.8,3.5-4.3,6.2-7.5,8.1c-3.2,1.9-6.9,2.9-11,2.9c-4.2,0-8-1-11.4-2.9
		c-3.4-2-6.1-4.7-8-8.1c-1.9-3.5-2.9-7.4-2.9-11.8c0-4.4,1-8.4,2.9-11.9c1.9-3.5,4.6-6.2,8-8.1c3.4-1.9,7.2-2.9,11.4-2.9
		c4,0,7.6,1,10.8,2.9c3.2,1.9,5.7,4.6,7.6,7.9v-29.5H1034.4z M1021.2,1037.8c2.7-1.6,4.9-3.9,6.5-6.7c1.6-2.9,2.4-6.2,2.4-9.8
		c0-3.7-0.8-7-2.4-9.8c-1.6-2.9-3.7-5.1-6.5-6.7c-2.7-1.6-5.8-2.4-9.3-2.4s-6.6,0.8-9.3,2.4c-2.7,1.6-4.9,3.9-6.5,6.7
		c-1.6,2.9-2.4,6.2-2.4,9.8c0,3.7,0.8,7,2.4,9.8c1.6,2.9,3.7,5.1,6.5,6.7c2.7,1.6,5.8,2.4,9.3,2.4S1018.5,1039.4,1021.2,1037.8z"/>
</g>
<g class="st3">
	<path class="st4" d="M818.5,1095.7v6.6h14.4v3.7h-14.3v41.4h-4.3V1106H806v-3.7h8.3v-6.9c0-3.8,1.1-6.8,3.3-9.1
		c2.2-2.2,5.3-3.4,9.2-3.4c1.7,0,3.4,0.2,5,0.7c1.6,0.5,2.9,1.2,3.9,2.2l-1.7,3.3c-1.8-1.7-4.2-2.5-7-2.5
		C821.3,1086.7,818.5,1089.7,818.5,1095.7z"/>
</g>
<g class="st3">
	<path class="st4" d="M868.9,1106.2c3,2.9,4.5,7,4.5,12.6v28.6h-4.1v-8c-1.4,2.7-3.5,4.7-6.3,6.2s-6.1,2.2-9.9,2.2
		c-5,0-9-1.2-11.9-3.5c-2.9-2.4-4.4-5.5-4.4-9.3c0-3.7,1.3-6.8,4-9.1c2.7-2.3,7-3.5,12.8-3.5h15.5v-3.6c0-4.2-1.1-7.4-3.4-9.6
		c-2.3-2.2-5.6-3.3-10-3.3c-3,0-5.9,0.5-8.6,1.6c-2.7,1-5.1,2.4-7,4.1l-2.2-3.1c2.2-2,5-3.6,8.1-4.7c3.2-1.1,6.5-1.7,9.9-1.7
		C861.6,1102,865.9,1103.4,868.9,1106.2z M863.2,1141.6c2.6-1.7,4.6-4.2,5.9-7.5v-8.5h-15.4c-4.4,0-7.6,0.8-9.6,2.4
		c-2,1.6-3,3.8-3,6.7c0,2.9,1.1,5.3,3.3,7c2.2,1.7,5.3,2.5,9.2,2.5C857.4,1144.2,860.6,1143.3,863.2,1141.6z"/>
	<path class="st4" d="M892.3,1146.1c-3.3-1.1-5.8-2.5-7.7-4.1l2-3.5c1.8,1.6,4.2,2.9,7.1,3.9c2.9,1,5.9,1.6,9.1,1.6
		c4.5,0,7.9-0.7,10.1-2.2c2.2-1.5,3.2-3.6,3.2-6.2c0-1.9-0.6-3.4-1.8-4.5c-1.2-1.1-2.6-1.9-4.4-2.4s-4.1-1.1-7.2-1.6
		c-3.6-0.6-6.5-1.3-8.6-2.1c-2.2-0.7-4.1-2-5.6-3.6c-1.6-1.7-2.3-4-2.3-6.9c0-3.6,1.5-6.5,4.4-8.9c3-2.3,7.2-3.5,12.7-3.5
		c2.9,0,5.7,0.4,8.6,1.2c2.8,0.8,5.1,1.9,6.9,3.2l-2,3.5c-1.8-1.3-3.9-2.3-6.3-3c-2.4-0.7-4.8-1-7.3-1c-4.2,0-7.4,0.8-9.5,2.3
		c-2.1,1.6-3.2,3.6-3.2,6.1c0,2,0.6,3.6,1.8,4.7c1.2,1.1,2.7,2,4.4,2.5c1.8,0.5,4.2,1.1,7.4,1.8c3.5,0.6,6.4,1.3,8.5,2
		c2.2,0.7,4,1.9,5.5,3.5c1.5,1.6,2.2,3.8,2.2,6.7c0,3.7-1.6,6.7-4.7,9c-3.1,2.2-7.5,3.4-13.1,3.4
		C899,1147.7,895.5,1147.2,892.3,1146.1z"/>
	<path class="st4" d="M967.9,1106.9c3.3,3.3,4.9,8,4.9,14.2v26.4h-4.3v-26c0-5.1-1.3-8.9-3.8-11.6c-2.6-2.6-6.1-4-10.8-4
		c-5.3,0-9.5,1.6-12.5,4.8c-3.1,3.2-4.6,7.4-4.6,12.8v24h-4.3v-64.1h4.3v28.4c1.6-3.1,3.9-5.5,6.9-7.2c3.1-1.7,6.7-2.5,10.8-2.5
		C960.2,1102,964.7,1103.6,967.9,1106.9z"/>
	<path class="st4" d="M990.3,1090.3c-0.7-0.7-1-1.5-1-2.5s0.3-1.8,1-2.5c0.7-0.7,1.5-1,2.5-1s1.8,0.3,2.5,1c0.7,0.7,1,1.5,1,2.5
		c0,1-0.3,1.8-1,2.5c-0.7,0.7-1.5,1-2.5,1S991,1091,990.3,1090.3z M990.7,1102.3h4.3v45.1h-4.3V1102.3z"/>
	<path class="st4" d="M1019.3,1144.8c-3.4-2-6.1-4.7-8.1-8.2c-2-3.5-2.9-7.4-2.9-11.8c0-4.4,1-8.3,2.9-11.8c2-3.5,4.7-6.2,8.1-8.2
		c3.4-2,7.3-2.9,11.5-2.9c4.3,0,8.1,1,11.5,2.9c3.4,2,6.1,4.7,8.1,8.2c2,3.5,2.9,7.4,2.9,11.8c0,4.4-1,8.3-2.9,11.8
		c-2,3.5-4.7,6.2-8.1,8.2c-3.4,2-7.3,2.9-11.5,2.9C1026.6,1147.7,1022.7,1146.8,1019.3,1144.8z M1040.1,1141.4
		c2.7-1.6,4.9-3.9,6.5-6.7c1.6-2.9,2.4-6.2,2.4-9.8c0-3.7-0.8-7-2.4-9.8c-1.6-2.9-3.7-5.1-6.5-6.7c-2.7-1.6-5.8-2.4-9.3-2.4
		s-6.6,0.8-9.3,2.4c-2.7,1.6-4.9,3.9-6.5,6.7c-1.6,2.9-2.4,6.2-2.4,9.8c0,3.7,0.8,7,2.4,9.8c1.6,2.9,3.7,5.1,6.5,6.7
		c2.7,1.6,5.8,2.4,9.3,2.4S1037.4,1143.1,1040.1,1141.4z"/>
	<path class="st4" d="M1102.2,1106.9c3.3,3.3,4.9,8,4.9,14.2v26.4h-4.3v-26c0-5.1-1.3-8.9-3.8-11.6c-2.6-2.6-6.1-4-10.8-4
		c-5.3,0-9.5,1.6-12.5,4.8c-3.1,3.2-4.6,7.4-4.6,12.8v24h-4.3v-45.1h4.1v9.8c1.6-3.2,3.9-5.6,7-7.4c3.1-1.8,6.7-2.7,10.9-2.7
		C1094.5,1102,1098.9,1103.6,1102.2,1106.9z"/>
</g>
</svg>
