<?xml version="1.0" encoding="utf-8"?>
<!-- Generator: Adobe Illustrator 25.3.0, SVG Export Plug-In . SVG Version: 6.00 Build 0)  -->
<svg version="1.1" id="Livello_1" xmlns="http://www.w3.org/2000/svg" xmlns:xlink="http://www.w3.org/1999/xlink" x="0px" y="0px"
	 viewBox="0 0 1920 1920" style="enable-background:new 0 0 1920 1920;" xml:space="preserve">
<style type="text/css">
	.st0{opacity:0.5;fill:#FFFFFF;enable-background:new    ;}
	.st1{opacity:0.7;fill:#FFFFFF;enable-background:new    ;}
	.st2{fill:#FFFFFF;}
	.st3{fill:#03045E;}
	.st4{font-family:'Montserrat-Light';}
	.st5{font-size:86.4px;}
	.st6{letter-spacing:-1;}
	.st7{letter-spacing:-2;}
</style>
<circle class="st0" cx="960" cy="960" r="701.6"/>
<circle class="st1" cx="960" cy="960" r="581.2"/>
<circle class="st2" cx="960" cy="960" r="456.7"/>
<text transform="matrix(1 0 0 1 801.5435 836.3613)" class="st3 st4 st5">B</text>
<text transform="matrix(1 0 0 1 866.5156 836.3613)" class="st3 st4 st5 st6">e</text>
<text transform="matrix(1 0 0 1 916.7998 836.3613)" class="st3 st4 st5">au</text>
<text transform="matrix(1 0 0 1 1024.9707 836.3613)" class="st3 st4 st5">t</text>
<text transform="matrix(1 0 0 1 1058.4912 836.3613)" class="st3 st4 st5 st7">y</text>
<text transform="matrix(1 0 0 1 1101.1748 836.3613)" class="st3 st4 st5">,</text>
<text transform="matrix(1 0 0 1 603.1743 940.041)" class="st3 st4 st5">pe</text>
<text transform="matrix(1 0 0 1 713.0728 940.041)" class="st3 st4 st5">r</text>
<text transform="matrix(1 0 0 1 746.7681 940.041)" class="st3 st4 st5">sonal </text>
<text transform="matrix(1 0 0 1 994.9082 940.041)" class="st3 st4 st5">h</text>
<text transform="matrix(1 0 0 1 1052.1895 940.041)" class="st3 st4 st5 st6">y</text>
<text transform="matrix(1 0 0 1 1096.5137 940.041)" class="st3 st4 st5">ge</text>
<text transform="matrix(1 0 0 1 1207.0156 940.041)" class="st3 st4 st5">n</text>
<text transform="matrix(1 0 0 1 1265.249 940.041)" class="st3 st4 st5">e </text>
<text transform="matrix(1 0 0 1 876.5386 1043.7217)" class="st3 st4 st5">a</text>
<text transform="matrix(1 0 0 1 926.9087 1043.7217)" class="st3 st4 st5">n</text>
<text transform="matrix(1 0 0 1 985.1416 1043.7217)" class="st3 st4 st5">d</text>
<text transform="matrix(1 0 0 1 804.2222 1147.4014)" class="st3 st4 st5">f</text>
<text transform="matrix(1 0 0 1 831.6968 1147.4014)" class="st3 st4 st5">ashion</text>
</svg>
