<svg width="393" height="1600" viewBox="0 0 393 1600" fill="none" xmlns="http://www.w3.org/2000/svg">
<path d="M113.18 235.877L110.871 235.979L109.724 236.099L104.214 236.109L107.175 237.194L112.414 237.9L116.641 237.826L113.18 235.877Z" fill="url(#paint0_linear)"/>
<path d="M95.0486 212.347L94.4796 210.308L94.0986 208.134L93.5508 205.766L94.5431 203.148L94.5101 205.778L95.6976 207.91L95.5683 206.982L96.0856 205.07L96.3301 202.79L97.868 205.996L97.3977 208.329L97.3248 209.794L98.183 213.158L100.132 215.095L102.498 216.845L104.734 218.208L111.483 222.65L115.6 224.773L118.57 226.745L121.144 227.757L122.196 228.618L124.048 230.451L125.861 232.201L126.741 233.879L129.365 236.4L130.068 237.812L128.316 237.166L126.724 237.192L124.451 238.039L126.903 238.909L128.043 239.886L128.467 240.949L124.85 241.043L121.688 241.034L116.642 237.826L113.18 235.877L110.885 235.034L107.803 233.902L105.748 231.696L104.127 229.979L101.353 227.129L100.121 225.118L99.2106 223.699L98.2818 222.342L97.8092 220.678L97.226 218.771L95.0486 212.347Z" fill="url(#paint1_linear)"/>
<path d="M97.2259 218.771L96.0173 218.326L94.1855 215.891L94.423 213.269L95.0485 212.347L97.2259 218.771Z" fill="url(#paint2_linear)"/>
<path d="M98.2813 222.342L95.9487 222.502L98.0321 222.995L99.2101 223.699L98.2813 222.342Z" fill="url(#paint3_linear)"/>
<path d="M104.127 229.979L103.003 230.039L101.277 231.506L103.271 232.238L105.747 231.696L104.127 229.979Z" fill="url(#paint4_linear)"/>
<path d="M104.734 218.209L105.928 218.51L108.466 219.443L110.196 220.688L111.482 222.651L104.734 218.209Z" fill="url(#paint5_linear)"/>
<path d="M103.891 221.81L102.814 221.002L101.549 220.247L99.9599 220.016L98.5914 219.863L97.0889 219.847L98.2951 220.539L99.4355 220.958L101.129 221.578L102.852 222.007L103.891 221.81Z" fill="url(#paint6_linear)"/>
<path d="M110.711 226.833L108.642 226.319L106.507 225.534L105.684 226.266L104.691 226.562L103.189 226.877L103.636 227.247L105.364 227.881L107.548 227.983L109.613 227.585L110.711 226.833Z" fill="url(#paint7_linear)"/>
<path d="M121.01 232.514L119.667 231.629L117.68 230.898L115.776 230.396L114.424 230.754L111.955 230.963L109.688 230.75L106.859 230.248L108.846 230.977L112.159 232.194L114.993 233.234L117.601 233.326L120.124 233.303L121.01 232.514Z" fill="url(#paint8_linear)"/>
<path d="M126.392 234.888L126.778 235.365L127.032 235.995L126.566 235.823L125.986 235.965L125.174 235.312L126.392 234.888Z" fill="url(#paint9_linear)"/>
<path d="M124.45 238.039L126.903 238.909L130.068 237.812L128.316 237.166L126.724 237.192L124.45 238.039Z" fill="url(#paint10_linear)"/>
<path d="M24.127 33.0876L21.8179 33.1894L20.6705 33.3098L15.1611 33.319L18.1215 34.4047L23.3605 35.1107L27.5883 35.0366L24.127 33.0876Z" fill="url(#paint11_linear)"/>
<path d="M5.99491 9.55764L5.42586 7.51834L5.04494 5.34478L4.49707 2.97678L5.48935 0.358785L5.45643 2.98835L6.64388 5.12025L6.51456 4.19203L7.03187 2.28003L7.27641 0L8.81424 3.20594L8.34396 5.53922L8.27106 7.00446L9.12932 10.3678L11.0786 12.3053L13.4441 14.0552L15.6803 15.4186L22.4288 19.8606L26.5461 21.9833L29.516 23.9555L32.0907 24.967L33.1418 25.8281L34.9947 27.6614L36.8076 29.4114L37.6871 31.0896L40.3112 33.6103L41.0143 35.0223L39.2625 34.3765L37.6706 34.402L35.3968 35.2492L37.8493 36.1195L38.9897 37.0964L39.413 38.1588L35.7965 38.2537L32.6339 38.2445L27.5878 35.0362L24.1266 33.0872L21.8316 32.2446L18.7489 31.1127L16.6938 28.9067L15.0737 27.1892L12.299 24.3397L11.0669 22.3282L10.1569 20.9092L9.22809 19.5528L8.75545 17.8885L8.17229 15.9811L5.99491 9.55764Z" fill="url(#paint12_linear)"/>
<path d="M8.17225 15.9813L6.96362 15.5369L5.13184 13.1017L5.36933 10.4791L5.99482 9.55782L8.17225 15.9813Z" fill="url(#paint13_linear)"/>
<path d="M9.22811 19.5529L6.89551 19.7126L8.97886 20.2056L10.1569 20.9093L9.22811 19.5529Z" fill="url(#paint14_linear)"/>
<path d="M15.0735 27.1891L13.9496 27.2493L12.2236 28.7169L14.2176 29.4483L16.6937 28.9067L15.0735 27.1891Z" fill="url(#paint15_linear)"/>
<path d="M15.6802 15.4185L16.8747 15.7195L19.4119 16.6523L21.1425 17.8976L22.4287 19.8606L15.6802 15.4185Z" fill="url(#paint16_linear)"/>
<path d="M14.8383 19.0204L13.7613 18.2125L12.4963 17.4579L10.9067 17.2264L9.53818 17.0737L8.03564 17.0575L9.24192 17.7496L10.3823 18.1685L12.0754 18.7889L13.7989 19.2171L14.8383 19.0204Z" fill="url(#paint17_linear)"/>
<path d="M21.6574 24.0432L19.5882 23.5294L17.4531 22.7447L16.6301 23.4761L15.6378 23.7724L14.1353 24.0872L14.582 24.4576L16.3103 25.0918L18.4947 25.1937L20.5593 24.7955L21.6574 24.0432Z" fill="url(#paint18_linear)"/>
<path d="M31.9569 29.7242L30.6142 28.8399L28.6273 28.1085L26.7227 27.6061L25.3706 27.9649L22.9016 28.1733L20.6349 27.9603L17.8062 27.458L19.7931 28.1872L23.1062 29.4047L25.9397 30.4441L28.5474 30.5367L31.0704 30.5135L31.9569 29.7242Z" fill="url(#paint19_linear)"/>
<path d="M37.3392 32.0988L37.7248 32.5757L37.9787 33.2053L37.5132 33.034L36.9323 33.1752L36.1211 32.5224L37.3392 32.0988Z" fill="url(#paint20_linear)"/>
<path d="M35.397 35.2492L37.8495 36.1196L41.0145 35.0224L39.2627 34.3765L37.6708 34.402L35.397 35.2492Z" fill="url(#paint21_linear)"/>
<path d="M345.156 45.8236L348.012 47.0166L349.397 47.6975L356.321 50.2538H352.08L345.156 48.7203L339.876 46.6762L345.156 45.8236Z" fill="url(#paint22_linear)"/>
<path d="M379.17 24.6096L380.857 22.3094L382.372 19.7532L384.189 17.0267V13.2774L382.978 16.6004L380.467 18.7304L381.073 17.6232L381.333 14.9826L382.112 12L378.651 15.323L378.131 18.4743L377.525 20.3497L374.842 24.1833L371.467 25.7168L367.66 26.824L364.197 27.5063L353.595 29.9768L347.408 30.7435L342.734 31.8507L339.013 31.9365L337.282 32.533L334.08 33.9806L330.964 35.3439L329.059 37.0476L324.559 39.0073L323.001 40.4564H325.512L327.501 41.2231L329.957 43.3368L326.458 43.2998L324.559 43.9999L323.521 45.1412L328.022 46.9307L332.002 48.3798L339.877 46.6761L345.157 45.8235H348.447H352.86L356.495 43.9999L359.351 42.5864L364.197 40.2862L366.708 38.3264L368.524 36.9632L370.342 35.6843L371.727 33.8104L373.372 31.6804L379.17 24.6096Z" fill="url(#paint23_linear)"/>
<path d="M373.371 31.6808H375.102L378.563 29.4664L379.515 26.0576L379.169 24.61L373.371 31.6808Z" fill="url(#paint24_linear)"/>
<path d="M370.341 35.6841L373.196 36.963L370.341 36.6226L368.523 36.963L370.341 35.6841Z" fill="url(#paint25_linear)"/>
<path d="M359.349 42.5863L360.734 43.1828L362.206 45.8235H359.349L356.494 43.9999L359.349 42.5863Z" fill="url(#paint26_linear)"/>
<path d="M364.196 27.5067L362.552 27.3365H358.917L356.147 28.1032L353.594 29.9772L364.196 27.5067Z" fill="url(#paint27_linear)"/>
<path d="M363.539 32.4249L365.278 31.9054L367.228 31.5427L369.338 31.9838L371.13 32.4249L373.028 33.0999L371.183 33.4107H369.548H367.123L364.75 33.1517L363.539 32.4249Z" fill="url(#paint28_linear)"/>
<path d="M352.571 35.5909L355.419 35.9018H358.477L359.162 37.1999L360.27 38.0303L362.009 39.1197L361.271 39.3787H358.793L355.999 38.4965L353.594 37.0445L352.571 35.5909Z" fill="url(#paint29_linear)"/>
<path d="M336.915 37.9789L339.023 37.486H341.87L344.506 37.7317L346.035 38.8092L349.04 40.2095L351.993 40.988L355.788 41.663H352.941H348.196H344.136L340.815 40.5736L337.651 39.3791L336.915 37.9789Z" fill="url(#paint30_linear)"/>
<path d="M329.015 38.479L328.302 38.8994L327.686 39.5743H328.35L329.015 40.0213L330.344 39.5743L329.015 38.479Z" fill="url(#paint31_linear)"/>
<path d="M329.956 43.3369L326.457 43.2999L323 40.4565H325.511L327.5 41.2232L329.956 43.3369Z" fill="url(#paint32_linear)"/>
<path d="M306.292 299.872L304.149 300.767L303.111 301.278L297.918 303.195H301.099L306.292 302.045L310.251 300.512L306.292 299.872Z" fill="url(#paint33_linear)"/>
<path d="M280.782 283.961L279.516 282.236L278.38 280.319L277.017 278.274V275.462L277.925 277.954L279.808 279.552L279.354 278.721L279.159 276.741L278.575 274.504L281.171 276.996L281.561 279.36L282.015 280.766L284.027 283.642L286.559 284.792L289.414 285.622L292.011 286.134L299.963 287.987L304.603 288.562L308.108 289.392L310.899 289.456L312.197 289.904L314.599 290.99L316.936 292.012L318.365 293.29L321.74 294.76L322.908 295.846H321.025L319.533 296.421L317.691 298.007L320.316 297.979L321.74 298.504L322.518 299.36L319.143 300.702L316.158 301.789L310.251 300.511L306.291 299.872H303.824H300.514L297.787 298.504L295.646 297.444L292.011 295.719L290.128 294.249L288.766 293.226L287.402 292.267L286.364 290.862L285.13 289.264L280.782 283.961Z" fill="url(#paint34_linear)"/>
<path d="M285.131 289.265H283.833L281.237 287.604L280.524 285.047L280.783 283.962L285.131 289.265Z" fill="url(#paint35_linear)"/>
<path d="M287.403 292.268L285.262 293.227L287.403 292.972L288.767 293.227L287.403 292.268Z" fill="url(#paint36_linear)"/>
<path d="M295.647 297.444L294.608 297.891L293.504 299.871H295.647L297.788 298.504L295.647 297.444Z" fill="url(#paint37_linear)"/>
<path d="M292.012 286.134L293.245 286.007H295.972L298.049 286.582L299.964 287.987L292.012 286.134Z" fill="url(#paint38_linear)"/>
<path d="M292.505 289.823L291.201 289.433L289.738 289.161L288.156 289.492L286.812 289.823L285.388 290.329L286.772 290.562H287.998H289.817L291.596 290.368L292.505 289.823Z" fill="url(#paint39_linear)"/>
<path d="M300.73 292.197L298.595 292.431H296.301L295.788 293.404L294.957 294.027L293.652 294.844L294.206 295.038H296.064L298.159 294.377L299.964 293.288L300.73 292.197Z" fill="url(#paint40_linear)"/>
<path d="M312.474 293.988L310.893 293.619H308.757L306.78 293.803L305.633 294.611L303.38 295.661L301.165 296.245L298.319 296.751H300.453H304.012H307.057L309.548 295.934L311.921 295.039L312.474 293.988Z" fill="url(#paint41_linear)"/>
<path d="M318.399 294.363L318.933 294.679L319.396 295.185H318.897L318.399 295.52L317.402 295.185L318.399 294.363Z" fill="url(#paint42_linear)"/>
<path d="M317.692 298.007L320.317 297.979L322.909 295.847H321.026L319.534 296.422L317.692 298.007Z" fill="url(#paint43_linear)"/>
<path d="M115.447 35.1424L117.693 38.1139L118.574 41.7286L118.68 45.092L118.754 48.5497L118.876 51.7857L120.482 55.3983L122.714 58.5015L125.233 60.271L128.852 63.0855L131.791 65.6782L133.088 68.2139L127.227 69.8473L122.616 69.1942L119.389 67.7748L116.573 63.8484L114.143 59.0964L112.904 53.991L113.469 48.9449L114.978 46.688L115.52 44.5925L115.804 42.4663L115.831 40.6254L115.439 38.834L114.532 37.0601L113.202 34.4619L111.946 33.0305L112.26 31.5936L112.719 32.6474L114.01 33.8285L113.879 33.0469L113.226 32.3257L112.818 31.9426L113.887 32.2906L114.415 32.9909L114.91 34.2917L115.447 35.1424Z" fill="url(#paint44_linear)"/>
<path d="M118.701 46.0698L119.168 45.4693L119.497 44.0313L119.914 45.1839L119.792 46.4056L118.73 47.4045L118.701 46.0698Z" fill="url(#paint45_linear)"/>
<path d="M115.181 45.899L114.85 45.2514L114.761 44.1921L114.315 44.8859L114.088 45.944L114.511 47.3853L114.977 46.6883L115.181 45.899Z" fill="url(#paint46_linear)"/>
<path d="M127.759 65.695L124.938 63.3283L123.778 61.0616L122.267 57.8805L121.724 54.8146L122.829 56.9749L125.359 61.0045L126.385 63.6664L127.759 65.695Z" fill="url(#paint47_linear)"/>
<path d="M122.616 69.1941L120.645 69.2194L119.018 68.6299L117.133 67.3456L115.595 64.3379L114.074 60.9812L116.573 63.8484L117.724 65.4543L119.389 67.7748L122.616 69.1941Z" fill="url(#paint48_linear)"/>
<path d="M130.907 65.9925L130.536 65.268L129.666 65.1561L129.887 65.5896L130.907 65.9925Z" fill="url(#paint49_linear)"/>
<path d="M133.087 68.2137L130.629 67.5683L128.499 67.4267L127.115 68.273L128.423 68.3586L129.434 68.655L129.76 69.1413L131.46 68.6671L133.087 68.2137Z" fill="url(#paint50_linear)"/>
<path d="M116.36 39.1743L116.559 40.2808L116.662 41.9175L116.462 43.463L115.577 41.7319L115.565 40.6002L115.759 39.6529L116.36 39.1743Z" fill="url(#paint51_linear)"/>
<path d="M38.6294 754.087L36.3204 754.189L35.1729 754.31L29.6636 754.319L32.624 755.404L37.8629 756.111L42.0907 756.036L38.6294 754.087Z" fill="url(#paint52_linear)"/>
<path d="M20.4978 730.558L19.9288 728.518L19.5479 726.345L19 723.977L19.9923 721.359L19.9594 723.988L21.1468 726.12L21.0175 725.192L21.5348 723.28L21.7793 721L23.3172 724.206L22.8469 726.539L22.774 728.004L23.6323 731.368L25.5816 733.305L27.9471 735.055L30.1833 736.419L36.9318 740.861L41.0491 742.983L44.0189 744.955L46.5937 745.967L47.6448 746.828L49.4977 748.661L51.3106 750.411L52.19 752.09L54.8142 754.61L55.5173 756.022L53.7655 755.377L52.1736 755.402L49.8998 756.249L52.3523 757.12L53.4927 758.096L53.916 759.159L50.2995 759.254L47.1369 759.244L42.0908 756.036L38.6295 754.087L36.3345 753.245L33.2518 752.113L31.1967 749.907L29.5766 748.189L26.802 745.34L25.5698 743.328L24.6598 741.909L23.731 740.553L23.2584 738.888L22.6752 736.981L20.4978 730.558Z" fill="url(#paint53_linear)"/>
<path d="M22.6751 736.981L21.4665 736.537L19.6348 734.102L19.8723 731.479L20.4977 730.558L22.6751 736.981Z" fill="url(#paint54_linear)"/>
<path d="M23.7311 740.553L21.3984 740.712L23.4818 741.205L24.6599 741.909L23.7311 740.553Z" fill="url(#paint55_linear)"/>
<path d="M29.577 748.189L28.453 748.249L26.7271 749.717L28.721 750.448L31.1971 749.907L29.577 748.189Z" fill="url(#paint56_linear)"/>
<path d="M30.1836 736.419L31.3781 736.72L33.9152 737.653L35.6459 738.898L36.9321 740.861L30.1836 736.419Z" fill="url(#paint57_linear)"/>
<path d="M29.3416 740.02L28.2646 739.212L26.9996 738.458L25.4101 738.226L24.0416 738.074L22.5391 738.057L23.7453 738.749L24.8857 739.168L26.5787 739.789L28.3023 740.217L29.3416 740.02Z" fill="url(#paint58_linear)"/>
<path d="M36.1608 745.043L34.0915 744.529L31.9565 743.745L31.1335 744.476L30.1412 744.772L28.6387 745.087L29.0854 745.457L30.8137 746.092L32.9981 746.194L35.0627 745.795L36.1608 745.043Z" fill="url(#paint59_linear)"/>
<path d="M46.4597 750.724L45.1171 749.84L43.1302 749.108L41.2255 748.606L39.8735 748.965L37.4045 749.173L35.1378 748.96L32.3091 748.458L34.296 749.187L37.6091 750.405L40.4425 751.444L43.0502 751.536L45.5732 751.513L46.4597 750.724Z" fill="url(#paint60_linear)"/>
<path d="M51.8421 753.099L52.2277 753.575L52.4816 754.205L52.0161 754.034L51.4353 754.175L50.624 753.522L51.8421 753.099Z" fill="url(#paint61_linear)"/>
<path d="M49.8999 756.249L52.3524 757.119L55.5175 756.022L53.7656 755.376L52.1737 755.402L49.8999 756.249Z" fill="url(#paint62_linear)"/>
<path d="M55.3282 362.258L53.0191 362.359L51.8716 362.48L46.3623 362.489L49.3227 363.575L54.5616 364.281L58.7895 364.207L55.3282 362.258Z" fill="url(#paint63_linear)"/>
<path d="M37.1961 338.728L36.627 336.688L36.2461 334.515L35.6982 332.147L36.6905 329.529L36.6576 332.158L37.8451 334.29L37.7157 333.362L38.233 331.45L38.4776 329.17L40.0154 332.376L39.5451 334.709L39.4722 336.174L40.3305 339.538L42.2798 341.475L44.6453 343.225L46.8815 344.589L53.63 349.031L57.7473 351.153L60.7171 353.125L63.2919 354.137L64.343 354.998L66.1959 356.831L68.0088 358.581L68.8882 360.259L71.5124 362.78L72.2155 364.192L70.4637 363.546L68.8718 363.572L66.598 364.419L69.0505 365.289L70.1909 366.266L70.6142 367.329L66.9977 367.424L63.8351 367.414L58.789 364.206L55.3277 362.257L53.0328 361.415L49.9501 360.283L47.895 358.077L46.2748 356.359L43.5002 353.51L42.268 351.498L41.358 350.079L40.4293 348.723L39.9566 347.058L39.3735 345.151L37.1961 338.728Z" fill="url(#paint64_linear)"/>
<path d="M39.3734 345.151L38.1648 344.707L36.333 342.272L36.5705 339.649L37.196 338.728L39.3734 345.151Z" fill="url(#paint65_linear)"/>
<path d="M40.4293 348.723L38.0967 348.882L40.18 349.376L41.3581 350.079L40.4293 348.723Z" fill="url(#paint66_linear)"/>
<path d="M46.2747 356.359L45.1507 356.419L43.4248 357.887L45.4188 358.618L47.8948 358.077L46.2747 356.359Z" fill="url(#paint67_linear)"/>
<path d="M46.8813 344.588L48.0759 344.889L50.6131 345.822L52.3437 347.068L53.6299 349.03L46.8813 344.588Z" fill="url(#paint68_linear)"/>
<path d="M46.0399 348.19L44.963 347.382L43.6979 346.628L42.1084 346.396L40.7398 346.244L39.2373 346.227L40.4436 346.92L41.584 347.338L43.277 347.959L45.0006 348.387L46.0399 348.19Z" fill="url(#paint69_linear)"/>
<path d="M52.8586 353.213L50.7893 352.699L48.6542 351.915L47.8313 352.646L46.839 352.942L45.3364 353.257L45.7832 353.628L47.5115 354.262L49.6959 354.364L51.7605 353.965L52.8586 353.213Z" fill="url(#paint70_linear)"/>
<path d="M63.1581 358.894L61.8154 358.01L59.8285 357.278L57.9238 356.776L56.5718 357.135L54.1028 357.343L51.8361 357.13L49.0073 356.628L50.9943 357.357L54.3074 358.575L57.1408 359.614L59.7485 359.707L62.2716 359.683L63.1581 358.894Z" fill="url(#paint71_linear)"/>
<path d="M68.5403 361.269L68.926 361.746L69.1799 362.375L68.7143 362.204L68.1335 362.345L67.3223 361.692L68.5403 361.269Z" fill="url(#paint72_linear)"/>
<path d="M66.5981 364.419L69.0506 365.289L72.2156 364.192L70.4638 363.546L68.8719 363.572L66.5981 364.419Z" fill="url(#paint73_linear)"/>
<path d="M345.156 533.824L348.012 535.017L349.397 535.698L356.321 538.254H352.08L345.156 536.72L339.876 534.676L345.156 533.824Z" fill="url(#paint74_linear)"/>
<path d="M379.17 512.61L380.857 510.309L382.372 507.753L384.189 505.027V501.277L382.978 504.6L380.467 506.73L381.073 505.623L381.333 502.983L382.112 500L378.651 503.323L378.131 506.474L377.525 508.35L374.842 512.183L371.467 513.717L367.66 514.824L364.197 515.506L353.595 517.977L347.408 518.743L342.734 519.851L339.013 519.937L337.282 520.533L334.08 521.981L330.964 523.344L329.059 525.048L324.559 527.007L323.001 528.456H325.512L327.501 529.223L329.957 531.337L326.458 531.3L324.559 532L323.521 533.141L328.022 534.931L332.002 536.38L339.877 534.676L345.157 533.824H348.447H352.86L356.495 532L359.351 530.586L364.197 528.286L366.708 526.326L368.524 524.963L370.342 523.684L371.727 521.81L373.372 519.68L379.17 512.61Z" fill="url(#paint75_linear)"/>
<path d="M373.371 519.681H375.102L378.563 517.466L379.515 514.058L379.169 512.61L373.371 519.681Z" fill="url(#paint76_linear)"/>
<path d="M370.341 523.684L373.196 524.963L370.341 524.623L368.523 524.963L370.341 523.684Z" fill="url(#paint77_linear)"/>
<path d="M359.349 530.586L360.734 531.183L362.206 533.823H359.349L356.494 532L359.349 530.586Z" fill="url(#paint78_linear)"/>
<path d="M364.196 515.507L362.552 515.337H358.917L356.147 516.103L353.594 517.977L364.196 515.507Z" fill="url(#paint79_linear)"/>
<path d="M363.539 520.425L365.278 519.905L367.228 519.543L369.338 519.984L371.13 520.425L373.028 521.1L371.183 521.411H369.548H367.123L364.75 521.152L363.539 520.425Z" fill="url(#paint80_linear)"/>
<path d="M352.571 523.591L355.419 523.902H358.477L359.162 525.2L360.27 526.03L362.009 527.12L361.271 527.379H358.793L355.999 526.497L353.594 525.044L352.571 523.591Z" fill="url(#paint81_linear)"/>
<path d="M336.915 525.979L339.023 525.486H341.87L344.506 525.732L346.035 526.809L349.04 528.209L351.993 528.988L355.788 529.663H352.941H348.196H344.136L340.815 528.574L337.651 527.379L336.915 525.979Z" fill="url(#paint82_linear)"/>
<path d="M329.015 526.479L328.302 526.899L327.686 527.574H328.35L329.015 528.021L330.344 527.574L329.015 526.479Z" fill="url(#paint83_linear)"/>
<path d="M329.956 531.337L326.457 531.3L323 528.457H325.511L327.5 529.223L329.956 531.337Z" fill="url(#paint84_linear)"/>
<path d="M348.275 722.368L346.132 723.263L345.093 723.773L339.9 725.691H343.081L348.275 724.54L352.234 723.007L348.275 722.368Z" fill="url(#paint85_linear)"/>
<path d="M322.764 706.457L321.499 704.732L320.362 702.815L319 700.77V697.958L319.908 700.45L321.791 702.048L321.337 701.217L321.142 699.237L320.558 697L323.154 699.492L323.544 701.856L323.998 703.262L326.01 706.138L328.542 707.288L331.397 708.118L333.994 708.63L341.946 710.483L346.586 711.058L350.091 711.888L352.882 711.952L354.18 712.4L356.582 713.485L358.919 714.508L360.348 715.786L363.723 717.255L364.891 718.342H363.008L361.516 718.917L359.674 720.503L362.299 720.475L363.723 721L364.501 721.856L361.126 723.198L358.141 724.285L352.234 723.007L348.274 722.368H345.807H342.497L339.77 721L337.629 719.94L333.994 718.215L332.111 716.745L330.749 715.722L329.385 714.763L328.347 713.358L327.113 711.76L322.764 706.457Z" fill="url(#paint86_linear)"/>
<path d="M327.114 711.76H325.816L323.22 710.1L322.506 707.543L322.765 706.457L327.114 711.76Z" fill="url(#paint87_linear)"/>
<path d="M329.386 714.764L327.245 715.723L329.386 715.467L330.75 715.723L329.386 714.764Z" fill="url(#paint88_linear)"/>
<path d="M337.629 719.94L336.59 720.387L335.486 722.367H337.629L339.771 721L337.629 719.94Z" fill="url(#paint89_linear)"/>
<path d="M333.995 708.63L335.227 708.503H337.954L340.031 709.078L341.946 710.483L333.995 708.63Z" fill="url(#paint90_linear)"/>
<path d="M334.488 712.319L333.183 711.929L331.72 711.657L330.138 711.988L328.794 712.319L327.371 712.825L328.754 713.058H329.98H331.799L333.579 712.864L334.488 712.319Z" fill="url(#paint91_linear)"/>
<path d="M342.713 714.693L340.577 714.926H338.283L337.77 715.9L336.939 716.523L335.634 717.34L336.188 717.534H338.046L340.142 716.873L341.946 715.784L342.713 714.693Z" fill="url(#paint92_linear)"/>
<path d="M354.456 716.484L352.875 716.115H350.739L348.762 716.299L347.615 717.107L345.362 718.157L343.147 718.741L340.301 719.247H342.436H345.995H349.04L351.531 718.43L353.903 717.534L354.456 716.484Z" fill="url(#paint93_linear)"/>
<path d="M360.381 716.859L360.916 717.175L361.378 717.681H360.879L360.381 718.016L359.384 717.681L360.381 716.859Z" fill="url(#paint94_linear)"/>
<path d="M359.675 720.503L362.299 720.475L364.892 718.342H363.008L361.516 718.918L359.675 720.503Z" fill="url(#paint95_linear)"/>
<path d="M112.501 514.549L114.747 517.52L115.628 521.135L115.734 524.498L115.809 527.956L115.93 531.192L117.536 534.805L119.768 537.908L122.287 539.677L125.906 542.492L128.845 545.085L130.142 547.62L124.281 549.254L119.67 548.601L116.443 547.181L113.628 543.255L111.197 538.503L109.958 533.397L110.523 528.351L112.032 526.094L112.574 523.999L112.858 521.873L112.885 520.032L112.494 518.24L111.586 516.467L110.257 513.868L109 512.437L109.314 511L109.773 512.054L111.064 513.235L110.934 512.453L110.28 511.732L109.872 511.349L110.941 511.697L111.469 512.397L111.964 513.698L112.501 514.549Z" fill="url(#paint96_linear)"/>
<path d="M115.754 525.476L116.222 524.876L116.551 523.438L116.968 524.59L116.846 525.812L115.783 526.811L115.754 525.476Z" fill="url(#paint97_linear)"/>
<path d="M112.235 525.305L111.904 524.658L111.815 523.599L111.369 524.292L111.143 525.35L111.565 526.792L112.031 526.095L112.235 525.305Z" fill="url(#paint98_linear)"/>
<path d="M124.813 545.101L121.991 542.735L120.832 540.468L119.321 537.287L118.778 534.221L119.883 536.381L122.413 540.411L123.439 543.073L124.813 545.101Z" fill="url(#paint99_linear)"/>
<path d="M119.67 548.601L117.7 548.626L116.073 548.036L114.187 546.752L112.649 543.744L111.128 540.388L113.627 543.255L114.778 544.861L116.443 547.181L119.67 548.601Z" fill="url(#paint100_linear)"/>
<path d="M127.961 545.399L127.591 544.674L126.72 544.562L126.942 544.996L127.961 545.399Z" fill="url(#paint101_linear)"/>
<path d="M130.141 547.62L127.684 546.975L125.553 546.833L124.169 547.679L125.477 547.765L126.488 548.061L126.814 548.548L128.514 548.074L130.141 547.62Z" fill="url(#paint102_linear)"/>
<path d="M113.415 518.581L113.613 519.687L113.716 521.324L113.516 522.869L112.631 521.138L112.62 520.007L112.814 519.059L113.415 518.581Z" fill="url(#paint103_linear)"/>
<path d="M112.038 1194.1L109.678 1194.2L108.505 1194.33L102.874 1194.34L105.899 1195.45L111.254 1196.17L115.576 1196.09L112.038 1194.1Z" fill="url(#paint104_linear)"/>
<path d="M93.5046 1170.05L92.923 1167.96L92.5336 1165.74L91.9736 1163.32L92.9879 1160.65L92.9542 1163.33L94.168 1165.51L94.0358 1164.56L94.5646 1162.61L94.8145 1160.28L96.3864 1163.56L95.9057 1165.94L95.8312 1167.44L96.7084 1170.88L98.7009 1172.86L101.119 1174.65L103.404 1176.04L110.302 1180.58L114.511 1182.75L117.546 1184.77L120.178 1185.8L121.253 1186.68L123.147 1188.55L125 1190.34L125.898 1192.06L128.581 1194.63L129.299 1196.08L127.509 1195.42L125.882 1195.44L123.558 1196.31L126.064 1197.2L127.23 1198.2L127.663 1199.28L123.966 1199.38L120.733 1199.37L115.576 1196.09L112.038 1194.1L109.692 1193.24L106.541 1192.08L104.44 1189.83L102.784 1188.07L99.9483 1185.16L98.6889 1183.1L97.7587 1181.65L96.8094 1180.26L96.3263 1178.56L95.7302 1176.61L93.5046 1170.05Z" fill="url(#paint105_linear)"/>
<path d="M95.7302 1176.61L94.4949 1176.16L92.6226 1173.67L92.8653 1170.99L93.5046 1170.05L95.7302 1176.61Z" fill="url(#paint106_linear)"/>
<path d="M96.8096 1180.26L94.4253 1180.43L96.5548 1180.93L97.7589 1181.65L96.8096 1180.26Z" fill="url(#paint107_linear)"/>
<path d="M102.784 1188.07L101.635 1188.13L99.8711 1189.63L101.909 1190.38L104.44 1189.83L102.784 1188.07Z" fill="url(#paint108_linear)"/>
<path d="M103.405 1176.04L104.626 1176.35L107.219 1177.3L108.988 1178.57L110.303 1180.58L103.405 1176.04Z" fill="url(#paint109_linear)"/>
<path d="M102.544 1179.72L101.443 1178.89L100.15 1178.12L98.5254 1177.89L97.1266 1177.73L95.5908 1177.71L96.8238 1178.42L97.9894 1178.85L99.7199 1179.48L101.482 1179.92L102.544 1179.72Z" fill="url(#paint110_linear)"/>
<path d="M109.514 1184.85L107.399 1184.33L105.217 1183.53L104.376 1184.28L103.361 1184.58L101.826 1184.9L102.282 1185.28L104.049 1185.93L106.282 1186.03L108.392 1185.62L109.514 1184.85Z" fill="url(#paint111_linear)"/>
<path d="M120.041 1190.66L118.669 1189.76L116.638 1189.01L114.691 1188.5L113.309 1188.86L110.785 1189.08L108.468 1188.86L105.577 1188.34L107.608 1189.09L110.995 1190.33L113.891 1191.4L116.556 1191.49L119.135 1191.47L120.041 1190.66Z" fill="url(#paint112_linear)"/>
<path d="M125.542 1193.09L125.937 1193.58L126.196 1194.22L125.72 1194.04L125.127 1194.19L124.297 1193.52L125.542 1193.09Z" fill="url(#paint113_linear)"/>
<path d="M123.558 1196.31L126.064 1197.2L129.3 1196.08L127.509 1195.42L125.882 1195.44L123.558 1196.31Z" fill="url(#paint114_linear)"/>
<path d="M21.013 986.82L18.6528 986.924L17.4799 987.047L11.8486 987.057L14.8746 988.166L20.2295 988.888L24.5509 988.812L21.013 986.82Z" fill="url(#paint115_linear)"/>
<path d="M2.47973 962.769L1.89808 960.685L1.50873 958.463L0.94873 956.043L1.96298 953.367L1.92933 956.055L3.14307 958.234L3.01089 957.285L3.53965 955.331L3.7896 953L5.36148 956.277L4.88078 958.662L4.80628 960.16L5.68353 963.597L7.67601 965.578L10.0939 967.366L12.3796 968.76L19.2775 973.3L23.4859 975.47L26.5215 977.486L29.1533 978.52L30.2276 979.4L32.1216 981.274L33.9746 983.062L34.8735 984.778L37.5558 987.354L38.2744 988.798L36.4838 988.138L34.8567 988.164L32.5326 989.03L35.0394 989.919L36.205 990.918L36.6377 992.004L32.9412 992.101L29.7085 992.091L24.5507 988.812L21.0128 986.82L18.667 985.958L15.5161 984.802L13.4155 982.547L11.7595 980.791L8.9234 977.879L7.66398 975.823L6.73384 974.372L5.78449 972.986L5.30139 971.285L4.70532 969.335L2.47973 962.769Z" fill="url(#paint116_linear)"/>
<path d="M4.70538 969.335L3.46999 968.881L1.59766 966.392L1.84041 963.711L2.47975 962.769L4.70538 969.335Z" fill="url(#paint117_linear)"/>
<path d="M5.78463 972.986L3.40039 973.149L5.52987 973.653L6.73399 974.372L5.78463 972.986Z" fill="url(#paint118_linear)"/>
<path d="M11.7592 980.791L10.6103 980.853L8.84619 982.353L10.8843 983.1L13.4152 982.547L11.7592 980.791Z" fill="url(#paint119_linear)"/>
<path d="M12.3799 968.76L13.6008 969.067L16.1942 970.021L17.9632 971.294L19.2779 973.3L12.3799 968.76Z" fill="url(#paint120_linear)"/>
<path d="M11.5186 972.442L10.4179 971.616L9.12479 970.844L7.50005 970.608L6.10123 970.452L4.56543 970.435L5.79841 971.143L6.96408 971.571L8.69458 972.205L10.4563 972.643L11.5186 972.442Z" fill="url(#paint121_linear)"/>
<path d="M18.489 977.576L16.3739 977.05L14.1916 976.248L13.3504 976.996L12.3361 977.299L10.8003 977.62L11.2569 977.999L13.0235 978.647L15.2563 978.751L17.3665 978.344L18.489 977.576Z" fill="url(#paint122_linear)"/>
<path d="M29.0168 983.382L27.6444 982.478L25.6135 981.731L23.6667 981.217L22.2847 981.584L19.761 981.797L17.4441 981.579L14.5527 981.066L16.5837 981.811L19.9701 983.056L22.8663 984.118L25.5317 984.213L28.1107 984.189L29.0168 983.382Z" fill="url(#paint123_linear)"/>
<path d="M34.518 985.809L34.9122 986.297L35.1717 986.94L34.6958 986.765L34.1022 986.91L33.2729 986.242L34.518 985.809Z" fill="url(#paint124_linear)"/>
<path d="M32.5327 989.03L35.0395 989.919L38.2746 988.798L36.484 988.138L34.8569 988.164L32.5327 989.03Z" fill="url(#paint125_linear)"/>
<path d="M309.647 910.572L312.567 911.792L313.982 912.488L321.06 915.101H316.724L309.647 913.533L304.25 911.444L309.647 910.572Z" fill="url(#paint126_linear)"/>
<path d="M344.413 888.889L346.138 886.538L347.687 883.925L349.543 881.138V877.306L348.306 880.702L345.74 882.879L346.359 881.748L346.625 879.049L347.421 876L343.883 879.397L343.351 882.618L342.732 884.535L339.99 888.453L336.54 890.02L332.648 891.152L329.109 891.85L318.272 894.375L311.948 895.158L307.171 896.29L303.367 896.378L301.598 896.988L298.325 898.467L295.14 899.861L293.193 901.602L288.593 903.605L287.001 905.086H289.568L291.601 905.87L294.111 908.031L290.534 907.993L288.593 908.708L287.533 909.875L292.133 911.704L296.201 913.185L304.251 911.444L309.647 910.572H313.01H317.521L321.237 908.708L324.155 907.264L329.109 904.912L331.675 902.909L333.532 901.516L335.39 900.209L336.806 898.293L338.487 896.116L344.413 888.889Z" fill="url(#paint127_linear)"/>
<path d="M338.486 896.116H340.255L343.793 893.853L344.766 890.369L344.413 888.889L338.486 896.116Z" fill="url(#paint128_linear)"/>
<path d="M335.389 900.208L338.307 901.516L335.389 901.168L333.531 901.516L335.389 900.208Z" fill="url(#paint129_linear)"/>
<path d="M324.154 907.263L325.569 907.873L327.074 910.572H324.154L321.235 908.708L324.154 907.263Z" fill="url(#paint130_linear)"/>
<path d="M329.108 891.85L327.428 891.676H323.712L320.881 892.46L318.271 894.375L329.108 891.85Z" fill="url(#paint131_linear)"/>
<path d="M328.436 896.877L330.214 896.346L332.208 895.975L334.364 896.426L336.196 896.877L338.135 897.567L336.25 897.885H334.579H332.1L329.675 897.62L328.436 896.877Z" fill="url(#paint132_linear)"/>
<path d="M317.226 900.113L320.137 900.431H323.263L323.962 901.758L325.095 902.606L326.873 903.72L326.119 903.985H323.586L320.73 903.083L318.271 901.599L317.226 900.113Z" fill="url(#paint133_linear)"/>
<path d="M301.223 902.554L303.377 902.05H306.288L308.982 902.301L310.545 903.403L313.616 904.834L316.635 905.63L320.514 906.32H317.604H312.754H308.604L305.209 905.206L301.976 903.985L301.223 902.554Z" fill="url(#paint134_linear)"/>
<path d="M293.148 903.065L292.419 903.495L291.789 904.185H292.468L293.148 904.642L294.506 904.185L293.148 903.065Z" fill="url(#paint135_linear)"/>
<path d="M294.11 908.031L290.533 907.993L287 905.086H289.567L291.6 905.87L294.11 908.031Z" fill="url(#paint136_linear)"/>
<path d="M375.923 1292.93L373.733 1293.84L372.671 1294.37L367.363 1296.33H370.615L375.923 1295.15L379.97 1293.58L375.923 1292.93Z" fill="url(#paint137_linear)"/>
<path d="M349.847 1276.67L348.554 1274.9L347.392 1272.94L346 1270.85V1267.98L346.928 1270.53L348.853 1272.16L348.388 1271.31L348.189 1269.29L347.592 1267L350.245 1269.55L350.644 1271.96L351.108 1273.4L353.165 1276.34L355.753 1277.52L358.671 1278.36L361.326 1278.89L369.453 1280.78L374.197 1281.37L377.779 1282.22L380.632 1282.28L381.959 1282.74L384.414 1283.85L386.802 1284.9L388.263 1286.2L391.713 1287.7L392.907 1288.81H390.982L389.457 1289.4L387.574 1291.02L390.257 1290.99L391.713 1291.53L392.508 1292.41L389.058 1293.78L386.007 1294.89L379.969 1293.58L375.922 1292.93H373.4H370.017L367.23 1291.53L365.041 1290.45L361.326 1288.68L359.401 1287.18L358.008 1286.14L356.615 1285.16L355.553 1283.72L354.292 1282.09L349.847 1276.67Z" fill="url(#paint138_linear)"/>
<path d="M354.293 1282.09H352.967L350.313 1280.39L349.584 1277.78L349.849 1276.67L354.293 1282.09Z" fill="url(#paint139_linear)"/>
<path d="M356.616 1285.16L354.427 1286.14L356.616 1285.88L358.009 1286.14L356.616 1285.16Z" fill="url(#paint140_linear)"/>
<path d="M365.042 1290.45L363.98 1290.9L362.851 1292.93H365.042L367.23 1291.53L365.042 1290.45Z" fill="url(#paint141_linear)"/>
<path d="M361.327 1278.89L362.587 1278.76H365.374L367.497 1279.35L369.455 1280.78L361.327 1278.89Z" fill="url(#paint142_linear)"/>
<path d="M361.831 1282.66L360.497 1282.26L359.002 1281.98L357.385 1282.32L356.011 1282.66L354.556 1283.18L355.971 1283.41H357.224H359.083L360.902 1283.22L361.831 1282.66Z" fill="url(#paint143_linear)"/>
<path d="M370.238 1285.09L368.055 1285.32H365.711L365.186 1286.32L364.337 1286.96L363.003 1287.79L363.569 1287.99H365.469L367.61 1287.31L369.454 1286.2L370.238 1285.09Z" fill="url(#paint144_linear)"/>
<path d="M382.241 1286.92L380.625 1286.54H378.442L376.421 1286.73L375.249 1287.55L372.946 1288.63L370.682 1289.22L367.773 1289.74H369.955H373.593H376.705L379.251 1288.9L381.676 1287.99L382.241 1286.92Z" fill="url(#paint145_linear)"/>
<path d="M388.297 1287.3L388.843 1287.62L389.316 1288.14H388.806L388.297 1288.48L387.278 1288.14L388.297 1287.3Z" fill="url(#paint146_linear)"/>
<path d="M387.575 1291.02L390.258 1290.99L392.908 1288.82H390.983L389.458 1289.4L387.575 1291.02Z" fill="url(#paint147_linear)"/>
<path d="M114.355 988.92L116.651 991.958L117.551 995.652L117.659 999.09L117.736 1002.62L117.86 1005.93L119.501 1009.62L121.783 1012.8L124.358 1014.61L128.056 1017.48L131.061 1020.13L132.386 1022.72L126.396 1024.39L121.683 1023.73L118.384 1022.28L115.506 1018.26L113.022 1013.4L111.755 1008.19L112.333 1003.03L113.875 1000.72L114.429 998.58L114.72 996.406L114.747 994.525L114.347 992.694L113.419 990.881L112.061 988.225L110.776 986.762L111.098 985.293L111.566 986.37L112.886 987.577L112.753 986.778L112.085 986.041L111.668 985.65L112.761 986.005L113.3 986.721L113.806 988.051L114.355 988.92Z" fill="url(#paint148_linear)"/>
<path d="M117.681 1000.09L118.159 999.476L118.495 998.006L118.921 999.184L118.797 1000.43L117.711 1001.45L117.681 1000.09Z" fill="url(#paint149_linear)"/>
<path d="M114.083 999.915L113.745 999.253L113.654 998.17L113.198 998.879L112.966 999.961L113.398 1001.43L113.875 1000.72L114.083 999.915Z" fill="url(#paint150_linear)"/>
<path d="M126.939 1020.15L124.056 1017.73L122.87 1015.41L121.326 1012.16L120.771 1009.03L121.901 1011.24L124.487 1015.35L125.535 1018.08L126.939 1020.15Z" fill="url(#paint151_linear)"/>
<path d="M121.682 1023.73L119.668 1023.75L118.005 1023.15L116.078 1021.84L114.506 1018.76L112.952 1015.33L115.506 1018.26L116.682 1019.9L118.384 1022.28L121.682 1023.73Z" fill="url(#paint152_linear)"/>
<path d="M130.157 1020.45L129.778 1019.71L128.888 1019.6L129.115 1020.04L130.157 1020.45Z" fill="url(#paint153_linear)"/>
<path d="M132.386 1022.72L129.874 1022.06L127.696 1021.92L126.281 1022.78L127.618 1022.87L128.652 1023.17L128.985 1023.67L130.723 1023.19L132.386 1022.72Z" fill="url(#paint154_linear)"/>
<path d="M115.289 993.042L115.492 994.172L115.596 995.845L115.392 997.425L114.487 995.656L114.476 994.499L114.674 993.531L115.289 993.042Z" fill="url(#paint155_linear)"/>
<path d="M88.1185 1552.88L85.7583 1552.99L84.5854 1553.11L78.9541 1553.12L81.98 1554.23L87.3349 1554.95L91.6563 1554.88L88.1185 1552.88Z" fill="url(#paint156_linear)"/>
<path d="M69.5857 1528.83L69.004 1526.75L68.6147 1524.53L68.0547 1522.11L69.0689 1519.43L69.0353 1522.12L70.249 1524.3L70.1168 1523.35L70.6456 1521.39L70.8956 1519.06L72.4674 1522.34L71.9867 1524.73L71.9122 1526.22L72.7895 1529.66L74.782 1531.64L77.1999 1533.43L79.4855 1534.82L86.3835 1539.36L90.5919 1541.53L93.6275 1543.55L96.2593 1544.58L97.3336 1545.46L99.2276 1547.34L101.081 1549.13L101.98 1550.84L104.662 1553.42L105.38 1554.86L103.59 1554.2L101.963 1554.23L99.6386 1555.09L102.145 1555.98L103.311 1556.98L103.744 1558.07L100.047 1558.16L96.8145 1558.16L91.6567 1554.88L88.1188 1552.88L85.773 1552.02L82.6221 1550.87L80.5214 1548.61L78.8654 1546.85L76.0294 1543.94L74.7699 1541.89L73.8398 1540.44L72.8904 1539.05L72.4074 1537.35L71.8113 1535.4L69.5857 1528.83Z" fill="url(#paint157_linear)"/>
<path d="M71.8113 1535.4L70.5759 1534.94L68.7036 1532.46L68.9464 1529.77L69.5857 1528.83L71.8113 1535.4Z" fill="url(#paint158_linear)"/>
<path d="M72.8906 1539.05L70.5063 1539.21L72.6358 1539.72L73.84 1540.44L72.8906 1539.05Z" fill="url(#paint159_linear)"/>
<path d="M78.8656 1546.85L77.7168 1546.92L75.9526 1548.42L77.9908 1549.16L80.5216 1548.61L78.8656 1546.85Z" fill="url(#paint160_linear)"/>
<path d="M79.4854 1534.82L80.7063 1535.13L83.2996 1536.09L85.0685 1537.36L86.3832 1539.36L79.4854 1534.82Z" fill="url(#paint161_linear)"/>
<path d="M78.625 1538.51L77.5242 1537.68L76.2312 1536.91L74.6065 1536.67L73.2077 1536.52L71.6719 1536.5L72.9048 1537.21L74.0705 1537.63L75.801 1538.27L77.5627 1538.71L78.625 1538.51Z" fill="url(#paint162_linear)"/>
<path d="M85.5954 1543.64L83.4803 1543.11L81.298 1542.31L80.4568 1543.06L79.4425 1543.36L77.9067 1543.68L78.3634 1544.06L80.1299 1544.71L82.3627 1544.82L84.473 1544.41L85.5954 1543.64Z" fill="url(#paint163_linear)"/>
<path d="M96.1221 1549.45L94.7498 1548.54L92.7189 1547.79L90.7721 1547.28L89.3901 1547.65L86.8665 1547.86L84.5495 1547.64L81.6582 1547.13L83.6891 1547.87L87.0756 1549.12L89.9717 1550.18L92.6371 1550.28L95.216 1550.25L96.1221 1549.45Z" fill="url(#paint164_linear)"/>
<path d="M101.623 1551.87L102.018 1552.36L102.277 1553L101.801 1552.83L101.208 1552.97L100.378 1552.31L101.623 1551.87Z" fill="url(#paint165_linear)"/>
<path d="M99.6382 1555.09L102.145 1555.98L105.38 1554.86L103.59 1554.2L101.962 1554.23L99.6382 1555.09Z" fill="url(#paint166_linear)"/>
<path d="M52.9051 1323.28L50.5449 1323.38L49.372 1323.5L43.7407 1323.51L46.7667 1324.62L52.1216 1325.35L56.443 1325.27L52.9051 1323.28Z" fill="url(#paint167_linear)"/>
<path d="M34.3718 1299.23L33.7902 1297.14L33.4008 1294.92L32.8408 1292.5L33.8551 1289.82L33.8214 1292.51L35.0352 1294.69L34.903 1293.74L35.4317 1291.79L35.6817 1289.46L37.2536 1292.73L36.7729 1295.12L36.6984 1296.62L37.5756 1300.05L39.5681 1302.04L41.986 1303.82L44.2717 1305.22L51.1696 1309.76L55.378 1311.93L58.4136 1313.94L61.0454 1314.98L62.1197 1315.86L64.0137 1317.73L65.8667 1319.52L66.7656 1321.24L69.4479 1323.81L70.1665 1325.26L68.3759 1324.6L66.7488 1324.62L64.4247 1325.49L66.9315 1326.38L68.0971 1327.38L68.5298 1328.46L64.8332 1328.56L61.6006 1328.55L56.4428 1325.27L52.9049 1323.28L50.5591 1322.42L47.4082 1321.26L45.3076 1319L43.6516 1317.25L40.8155 1314.34L39.5561 1312.28L38.6259 1310.83L37.6766 1309.44L37.1935 1307.74L36.5974 1305.79L34.3718 1299.23Z" fill="url(#paint168_linear)"/>
<path d="M36.597 1305.79L35.3616 1305.34L33.4893 1302.85L33.732 1300.17L34.3714 1299.23L36.597 1305.79Z" fill="url(#paint169_linear)"/>
<path d="M37.6767 1309.44L35.2925 1309.61L37.422 1310.11L38.6261 1310.83L37.6767 1309.44Z" fill="url(#paint170_linear)"/>
<path d="M43.6513 1317.25L42.5024 1317.31L40.7383 1318.81L42.7764 1319.56L45.3073 1319L43.6513 1317.25Z" fill="url(#paint171_linear)"/>
<path d="M44.2715 1305.22L45.4924 1305.52L48.0858 1306.48L49.8548 1307.75L51.1695 1309.76L44.2715 1305.22Z" fill="url(#paint172_linear)"/>
<path d="M43.4112 1308.9L42.3104 1308.07L41.0174 1307.3L39.3926 1307.07L37.9938 1306.91L36.458 1306.89L37.691 1307.6L38.8567 1308.03L40.5872 1308.66L42.3489 1309.1L43.4112 1308.9Z" fill="url(#paint173_linear)"/>
<path d="M50.381 1314.03L48.266 1313.51L46.0837 1312.71L45.2424 1313.45L44.2282 1313.76L42.6924 1314.08L43.149 1314.46L44.9156 1315.1L47.1484 1315.21L49.2586 1314.8L50.381 1314.03Z" fill="url(#paint174_linear)"/>
<path d="M60.9084 1319.84L59.536 1318.94L57.5051 1318.19L55.5583 1317.67L54.1763 1318.04L51.6526 1318.25L49.3357 1318.04L46.4443 1317.52L48.4753 1318.27L51.8617 1319.51L54.7579 1320.58L57.4234 1320.67L60.0023 1320.65L60.9084 1319.84Z" fill="url(#paint175_linear)"/>
<path d="M66.4096 1322.27L66.8038 1322.75L67.0633 1323.4L66.5874 1323.22L65.9938 1323.37L65.1646 1322.7L66.4096 1322.27Z" fill="url(#paint176_linear)"/>
<path d="M64.4248 1325.49L66.9316 1326.38L70.1667 1325.26L68.3761 1324.6L66.7489 1324.62L64.4248 1325.49Z" fill="url(#paint177_linear)"/>
<path d="M288.697 1408.79L291.617 1410.01L293.033 1410.71L300.11 1413.32H295.775L288.697 1411.75L283.301 1409.67L288.697 1408.79Z" fill="url(#paint178_linear)"/>
<path d="M323.464 1387.11L325.188 1384.76L326.737 1382.15L328.594 1379.36V1375.53L327.357 1378.92L324.79 1381.1L325.409 1379.97L325.675 1377.27L326.471 1374.22L322.933 1377.62L322.402 1380.84L321.782 1382.76L319.04 1386.67L315.59 1388.24L311.699 1389.37L308.159 1390.07L297.322 1392.6L290.998 1393.38L286.221 1394.51L282.418 1394.6L280.649 1395.21L277.375 1396.69L274.191 1398.08L272.243 1399.82L267.643 1401.83L266.051 1403.31H268.618L270.651 1404.09L273.161 1406.25L269.585 1406.21L267.643 1406.93L266.583 1408.1L271.183 1409.93L275.251 1411.41L283.301 1409.66L288.697 1408.79H292.06H296.571L300.287 1406.93L303.206 1405.48L308.159 1403.13L310.726 1401.13L312.582 1399.74L314.44 1398.43L315.856 1396.51L317.537 1394.34L323.464 1387.11Z" fill="url(#paint179_linear)"/>
<path d="M317.537 1394.34H319.306L322.844 1392.07L323.817 1388.59L323.463 1387.11L317.537 1394.34Z" fill="url(#paint180_linear)"/>
<path d="M314.44 1398.43L317.358 1399.74L314.44 1399.39L312.582 1399.74L314.44 1398.43Z" fill="url(#paint181_linear)"/>
<path d="M303.205 1405.48L304.62 1406.09L306.125 1408.79H303.205L300.286 1406.93L303.205 1405.48Z" fill="url(#paint182_linear)"/>
<path d="M308.158 1390.07L306.479 1389.9H302.762L299.931 1390.68L297.322 1392.6L308.158 1390.07Z" fill="url(#paint183_linear)"/>
<path d="M307.487 1395.1L309.265 1394.57L311.258 1394.2L313.415 1394.65L315.247 1395.1L317.186 1395.79L315.3 1396.11H313.63H311.151L308.726 1395.84L307.487 1395.1Z" fill="url(#paint184_linear)"/>
<path d="M296.277 1398.33L299.188 1398.65H302.314L303.013 1399.98L304.146 1400.83L305.924 1401.94L305.169 1402.21H302.636L299.781 1401.3L297.322 1399.82L296.277 1398.33Z" fill="url(#paint185_linear)"/>
<path d="M280.273 1400.78L282.428 1400.27H285.339L288.033 1400.52L289.596 1401.62L292.667 1403.06L295.685 1403.85L299.565 1404.54H296.655H291.805H287.655L284.26 1403.43L281.027 1402.21L280.273 1400.78Z" fill="url(#paint186_linear)"/>
<path d="M272.198 1401.29L271.47 1401.72L270.84 1402.41H271.519L272.198 1402.86L273.557 1402.41L272.198 1401.29Z" fill="url(#paint187_linear)"/>
<path d="M273.16 1406.25L269.584 1406.21L266.051 1403.31H268.617L270.651 1404.09L273.16 1406.25Z" fill="url(#paint188_linear)"/>
<path d="M274.047 1595.97L271.857 1596.88L270.795 1597.41L265.487 1599.36H268.739L274.047 1598.19L278.094 1596.62L274.047 1595.97Z" fill="url(#paint189_linear)"/>
<path d="M247.972 1579.71L246.679 1577.94L245.517 1575.98L244.124 1573.89V1571.02L245.052 1573.57L246.977 1575.2L246.513 1574.35L246.313 1572.33L245.716 1570.04L248.37 1572.59L248.768 1575L249.233 1576.44L251.289 1579.38L253.877 1580.55L256.796 1581.4L259.45 1581.93L267.578 1583.82L272.321 1584.41L275.904 1585.26L278.756 1585.32L280.083 1585.78L282.538 1586.89L284.927 1587.93L286.387 1589.24L289.837 1590.74L291.031 1591.85H289.106L287.581 1592.44L285.699 1594.06L288.381 1594.03L289.837 1594.57L290.632 1595.44L287.182 1596.82L284.131 1597.93L278.094 1596.62L274.047 1595.97H271.525H268.141L265.354 1594.57L263.165 1593.49L259.45 1591.72L257.525 1590.22L256.133 1589.18L254.739 1588.2L253.678 1586.76L252.417 1585.13L247.972 1579.71Z" fill="url(#paint190_linear)"/>
<path d="M252.417 1585.13H251.091L248.437 1583.43L247.708 1580.82L247.973 1579.71L252.417 1585.13Z" fill="url(#paint191_linear)"/>
<path d="M254.74 1588.2L252.551 1589.18L254.74 1588.92L256.134 1589.18L254.74 1588.2Z" fill="url(#paint192_linear)"/>
<path d="M263.166 1593.49L262.104 1593.94L260.975 1595.97H263.166L265.354 1594.57L263.166 1593.49Z" fill="url(#paint193_linear)"/>
<path d="M259.451 1581.93L260.711 1581.8H263.498L265.621 1582.38L267.579 1583.82L259.451 1581.93Z" fill="url(#paint194_linear)"/>
<path d="M259.955 1585.7L258.621 1585.3L257.126 1585.02L255.509 1585.36L254.135 1585.7L252.68 1586.21L254.095 1586.45H255.348H257.207L259.026 1586.25L259.955 1585.7Z" fill="url(#paint195_linear)"/>
<path d="M268.362 1588.12L266.179 1588.36H263.835L263.31 1589.36L262.461 1589.99L261.127 1590.83L261.693 1591.03H263.593L265.734 1590.35L267.578 1589.24L268.362 1588.12Z" fill="url(#paint196_linear)"/>
<path d="M280.365 1589.95L278.749 1589.58H276.566L274.545 1589.76L273.373 1590.59L271.07 1591.66L268.806 1592.26L265.897 1592.78H268.079H271.717H274.829L277.375 1591.94L279.8 1591.03L280.365 1589.95Z" fill="url(#paint197_linear)"/>
<path d="M286.421 1590.34L286.967 1590.66L287.44 1591.18H286.93L286.421 1591.52L285.402 1591.18L286.421 1590.34Z" fill="url(#paint198_linear)"/>
<path d="M285.699 1594.06L288.382 1594.03L291.032 1591.85H289.107L287.582 1592.44L285.699 1594.06Z" fill="url(#paint199_linear)"/>
<defs>
<linearGradient id="paint0_linear" x1="104.069" y1="236.877" x2="116.322" y2="236.871" gradientUnits="userSpaceOnUse">
<stop stop-color="#AEDFE6"/>
<stop offset="1" stop-color="#3E6972"/>
</linearGradient>
<linearGradient id="paint1_linear" x1="93.4049" y1="209.574" x2="126.645" y2="243.932" gradientUnits="userSpaceOnUse">
<stop stop-color="#AEDFE6"/>
<stop offset="1" stop-color="#4A737D"/>
</linearGradient>
<linearGradient id="paint2_linear" x1="93.46" y1="215.987" x2="97.9705" y2="215.212" gradientUnits="userSpaceOnUse">
<stop stop-color="#AEDFE6"/>
<stop offset="1" stop-color="#3E6972"/>
</linearGradient>
<linearGradient id="paint3_linear" x1="96.348" y1="222.478" x2="99.7414" y2="223.248" gradientUnits="userSpaceOnUse">
<stop stop-color="#AEDFE6"/>
<stop offset="1" stop-color="#3E6972"/>
</linearGradient>
<linearGradient id="paint4_linear" x1="101.426" y1="231.602" x2="105.538" y2="230.522" gradientUnits="userSpaceOnUse">
<stop stop-color="#AEDFE6"/>
<stop offset="1" stop-color="#3E6972"/>
</linearGradient>
<linearGradient id="paint5_linear" x1="108.787" y1="219.371" x2="107.728" y2="221.041" gradientUnits="userSpaceOnUse">
<stop stop-color="#AEDFE6"/>
<stop offset="1" stop-color="#3E6972"/>
</linearGradient>
<linearGradient id="paint6_linear" x1="97.6297" y1="219.859" x2="104.414" y2="221.822" gradientUnits="userSpaceOnUse">
<stop stop-color="#AEDFE6"/>
<stop offset="1" stop-color="#3E6972"/>
</linearGradient>
<linearGradient id="paint7_linear" x1="103.424" y1="226.903" x2="110.449" y2="226.581" gradientUnits="userSpaceOnUse">
<stop stop-color="#AEDFE6"/>
<stop offset="1" stop-color="#3E6972"/>
</linearGradient>
<linearGradient id="paint8_linear" x1="107.69" y1="230.681" x2="122.983" y2="232.976" gradientUnits="userSpaceOnUse">
<stop stop-color="#AEDFE6"/>
<stop offset="1" stop-color="#3E6972"/>
</linearGradient>
<linearGradient id="paint9_linear" x1="126.649" y1="236.796" x2="125.858" y2="235.02" gradientUnits="userSpaceOnUse">
<stop stop-color="#AEDFE6"/>
<stop offset="1" stop-color="#3E6972"/>
</linearGradient>
<linearGradient id="paint10_linear" x1="127.648" y1="239.122" x2="127.228" y2="237.787" gradientUnits="userSpaceOnUse">
<stop stop-color="#AEDFE6"/>
<stop offset="1" stop-color="#3E6972"/>
</linearGradient>
<linearGradient id="paint11_linear" x1="15.016" y1="34.0875" x2="27.2687" y2="34.0817" gradientUnits="userSpaceOnUse">
<stop stop-color="#AEDFE6"/>
<stop offset="1" stop-color="#3E6972"/>
</linearGradient>
<linearGradient id="paint12_linear" x1="4.35124" y1="6.78429" x2="37.5909" y2="41.1418" gradientUnits="userSpaceOnUse">
<stop stop-color="#AEDFE6"/>
<stop offset="1" stop-color="#4A737D"/>
</linearGradient>
<linearGradient id="paint13_linear" x1="4.40624" y1="13.1973" x2="8.91681" y2="12.4224" gradientUnits="userSpaceOnUse">
<stop stop-color="#AEDFE6"/>
<stop offset="1" stop-color="#3E6972"/>
</linearGradient>
<linearGradient id="paint14_linear" x1="7.29481" y1="19.6887" x2="10.6882" y2="20.4589" gradientUnits="userSpaceOnUse">
<stop stop-color="#AEDFE6"/>
<stop offset="1" stop-color="#3E6972"/>
</linearGradient>
<linearGradient id="paint15_linear" x1="12.3726" y1="28.8123" x2="16.4851" y2="27.732" gradientUnits="userSpaceOnUse">
<stop stop-color="#AEDFE6"/>
<stop offset="1" stop-color="#3E6972"/>
</linearGradient>
<linearGradient id="paint16_linear" x1="19.733" y1="16.581" x2="18.6746" y2="18.2506" gradientUnits="userSpaceOnUse">
<stop stop-color="#AEDFE6"/>
<stop offset="1" stop-color="#3E6972"/>
</linearGradient>
<linearGradient id="paint17_linear" x1="8.5765" y1="17.069" x2="15.3608" y2="19.0324" gradientUnits="userSpaceOnUse">
<stop stop-color="#AEDFE6"/>
<stop offset="1" stop-color="#3E6972"/>
</linearGradient>
<linearGradient id="paint18_linear" x1="14.3708" y1="24.1133" x2="21.3951" y2="23.7914" gradientUnits="userSpaceOnUse">
<stop stop-color="#AEDFE6"/>
<stop offset="1" stop-color="#3E6972"/>
</linearGradient>
<linearGradient id="paint19_linear" x1="18.6369" y1="27.8915" x2="33.9298" y2="30.1868" gradientUnits="userSpaceOnUse">
<stop stop-color="#AEDFE6"/>
<stop offset="1" stop-color="#3E6972"/>
</linearGradient>
<linearGradient id="paint20_linear" x1="37.5954" y1="34.0063" x2="36.8046" y2="32.2308" gradientUnits="userSpaceOnUse">
<stop stop-color="#AEDFE6"/>
<stop offset="1" stop-color="#3E6972"/>
</linearGradient>
<linearGradient id="paint21_linear" x1="38.5946" y1="36.3328" x2="38.1746" y2="34.9979" gradientUnits="userSpaceOnUse">
<stop stop-color="#AEDFE6"/>
<stop offset="1" stop-color="#3E6972"/>
</linearGradient>
<linearGradient id="paint22_linear" x1="356.123" y1="51.3061" x2="340.78" y2="45.4818" gradientUnits="userSpaceOnUse">
<stop stop-color="#AEDFE6"/>
<stop offset="1" stop-color="#3E6972"/>
</linearGradient>
<linearGradient id="paint23_linear" x1="382.546" y1="21.9016" x2="324.279" y2="49.5454" gradientUnits="userSpaceOnUse">
<stop stop-color="#AEDFE6"/>
<stop offset="1" stop-color="#4A737D"/>
</linearGradient>
<linearGradient id="paint24_linear" x1="379.419" y1="29.9397" x2="374.143" y2="26.8376" gradientUnits="userSpaceOnUse">
<stop stop-color="#AEDFE6"/>
<stop offset="1" stop-color="#3E6972"/>
</linearGradient>
<linearGradient id="paint25_linear" x1="372.693" y1="36.7673" x2="368.066" y2="36.1178" gradientUnits="userSpaceOnUse">
<stop stop-color="#AEDFE6"/>
<stop offset="1" stop-color="#3E6972"/>
</linearGradient>
<linearGradient id="paint26_linear" x1="361.96" y1="45.8939" x2="357.327" y2="42.6034" gradientUnits="userSpaceOnUse">
<stop stop-color="#AEDFE6"/>
<stop offset="1" stop-color="#3E6972"/>
</linearGradient>
<linearGradient id="paint27_linear" x1="358.535" y1="27.1157" x2="359.09" y2="29.6995" gradientUnits="userSpaceOnUse">
<stop stop-color="#AEDFE6"/>
<stop offset="1" stop-color="#3E6972"/>
</linearGradient>
<linearGradient id="paint28_linear" x1="372.33" y1="32.8815" x2="362.872" y2="32.115" gradientUnits="userSpaceOnUse">
<stop stop-color="#AEDFE6"/>
<stop offset="1" stop-color="#3E6972"/>
</linearGradient>
<linearGradient id="paint29_linear" x1="361.687" y1="39.0628" x2="353.045" y2="35.3282" gradientUnits="userSpaceOnUse">
<stop stop-color="#AEDFE6"/>
<stop offset="1" stop-color="#3E6972"/>
</linearGradient>
<linearGradient id="paint30_linear" x1="354.523" y1="41.843" x2="334.249" y2="37.4434" gradientUnits="userSpaceOnUse">
<stop stop-color="#AEDFE6"/>
<stop offset="1" stop-color="#3E6972"/>
</linearGradient>
<linearGradient id="paint31_linear" x1="327.771" y1="40.7752" x2="329.604" y2="38.9006" gradientUnits="userSpaceOnUse">
<stop stop-color="#AEDFE6"/>
<stop offset="1" stop-color="#3E6972"/>
</linearGradient>
<linearGradient id="paint32_linear" x1="325.405" y1="43.239" x2="326.56" y2="41.7474" gradientUnits="userSpaceOnUse">
<stop stop-color="#AEDFE6"/>
<stop offset="1" stop-color="#3E6972"/>
</linearGradient>
<linearGradient id="paint33_linear" x1="298.066" y1="303.984" x2="309.574" y2="299.616" gradientUnits="userSpaceOnUse">
<stop stop-color="#AEDFE6"/>
<stop offset="1" stop-color="#3E6972"/>
</linearGradient>
<linearGradient id="paint34_linear" x1="278.25" y1="281.93" x2="321.949" y2="302.663" gradientUnits="userSpaceOnUse">
<stop stop-color="#AEDFE6"/>
<stop offset="1" stop-color="#4A737D"/>
</linearGradient>
<linearGradient id="paint35_linear" x1="280.595" y1="287.959" x2="284.552" y2="285.632" gradientUnits="userSpaceOnUse">
<stop stop-color="#AEDFE6"/>
<stop offset="1" stop-color="#3E6972"/>
</linearGradient>
<linearGradient id="paint36_linear" x1="285.639" y1="293.08" x2="289.109" y2="292.593" gradientUnits="userSpaceOnUse">
<stop stop-color="#AEDFE6"/>
<stop offset="1" stop-color="#3E6972"/>
</linearGradient>
<linearGradient id="paint37_linear" x1="293.689" y1="299.924" x2="297.163" y2="297.456" gradientUnits="userSpaceOnUse">
<stop stop-color="#AEDFE6"/>
<stop offset="1" stop-color="#3E6972"/>
</linearGradient>
<linearGradient id="paint38_linear" x1="296.258" y1="285.841" x2="295.842" y2="287.779" gradientUnits="userSpaceOnUse">
<stop stop-color="#AEDFE6"/>
<stop offset="1" stop-color="#3E6972"/>
</linearGradient>
<linearGradient id="paint39_linear" x1="285.912" y1="290.166" x2="293.006" y2="289.591" gradientUnits="userSpaceOnUse">
<stop stop-color="#AEDFE6"/>
<stop offset="1" stop-color="#3E6972"/>
</linearGradient>
<linearGradient id="paint40_linear" x1="293.894" y1="294.801" x2="300.375" y2="292" gradientUnits="userSpaceOnUse">
<stop stop-color="#AEDFE6"/>
<stop offset="1" stop-color="#3E6972"/>
</linearGradient>
<linearGradient id="paint41_linear" x1="299.267" y1="296.886" x2="314.473" y2="293.587" gradientUnits="userSpaceOnUse">
<stop stop-color="#AEDFE6"/>
<stop offset="1" stop-color="#3E6972"/>
</linearGradient>
<linearGradient id="paint42_linear" x1="319.332" y1="296.086" x2="317.957" y2="294.68" gradientUnits="userSpaceOnUse">
<stop stop-color="#AEDFE6"/>
<stop offset="1" stop-color="#3E6972"/>
</linearGradient>
<linearGradient id="paint43_linear" x1="321.105" y1="297.934" x2="320.239" y2="296.815" gradientUnits="userSpaceOnUse">
<stop stop-color="#AEDFE6"/>
<stop offset="1" stop-color="#3E6972"/>
</linearGradient>
<linearGradient id="paint44_linear" x1="108.236" y1="33.5875" x2="126.914" y2="71.2739" gradientUnits="userSpaceOnUse">
<stop stop-color="#AEDFE6"/>
<stop offset="1" stop-color="#4A737D"/>
</linearGradient>
<linearGradient id="paint45_linear" x1="119.729" y1="44.9821" x2="118.793" y2="47.492" gradientUnits="userSpaceOnUse">
<stop stop-color="#AEDFE6"/>
<stop offset="1" stop-color="#4A737D"/>
</linearGradient>
<linearGradient id="paint46_linear" x1="114.239" y1="44.4962" x2="115.021" y2="47.1283" gradientUnits="userSpaceOnUse">
<stop stop-color="#AEDFE6"/>
<stop offset="1" stop-color="#4A737D"/>
</linearGradient>
<linearGradient id="paint47_linear" x1="121.057" y1="55.1731" x2="127.192" y2="65.9977" gradientUnits="userSpaceOnUse">
<stop stop-color="#AEDFE6"/>
<stop offset="1" stop-color="#4A737D"/>
</linearGradient>
<linearGradient id="paint48_linear" x1="113.609" y1="62.1752" x2="121.667" y2="70.2664" gradientUnits="userSpaceOnUse">
<stop stop-color="#AEDFE6"/>
<stop offset="1" stop-color="#4A737D"/>
</linearGradient>
<linearGradient id="paint49_linear" x1="130.881" y1="66.0811" x2="129.958" y2="65.1554" gradientUnits="userSpaceOnUse">
<stop stop-color="#AEDFE6"/>
<stop offset="1" stop-color="#3E6972"/>
</linearGradient>
<linearGradient id="paint50_linear" x1="130.074" y1="70.5383" x2="130.111" y2="67.1422" gradientUnits="userSpaceOnUse">
<stop offset="0.5826" stop-color="#AEDFE6"/>
<stop offset="1" stop-color="#4A737D"/>
</linearGradient>
<linearGradient id="paint51_linear" x1="116.165" y1="39.5505" x2="116.051" y2="43.425" gradientUnits="userSpaceOnUse">
<stop stop-color="#AEDFE6"/>
<stop offset="1" stop-color="#4A737D"/>
</linearGradient>
<linearGradient id="paint52_linear" x1="29.5185" y1="755.087" x2="41.7711" y2="755.082" gradientUnits="userSpaceOnUse">
<stop stop-color="#AEDFE6"/>
<stop offset="1" stop-color="#3E6972"/>
</linearGradient>
<linearGradient id="paint53_linear" x1="18.8542" y1="727.784" x2="52.0939" y2="762.142" gradientUnits="userSpaceOnUse">
<stop stop-color="#AEDFE6"/>
<stop offset="1" stop-color="#4A737D"/>
</linearGradient>
<linearGradient id="paint54_linear" x1="18.9092" y1="734.197" x2="23.4197" y2="733.422" gradientUnits="userSpaceOnUse">
<stop stop-color="#AEDFE6"/>
<stop offset="1" stop-color="#3E6972"/>
</linearGradient>
<linearGradient id="paint55_linear" x1="21.7977" y1="740.689" x2="25.1912" y2="741.459" gradientUnits="userSpaceOnUse">
<stop stop-color="#AEDFE6"/>
<stop offset="1" stop-color="#3E6972"/>
</linearGradient>
<linearGradient id="paint56_linear" x1="26.8761" y1="749.812" x2="30.9885" y2="748.732" gradientUnits="userSpaceOnUse">
<stop stop-color="#AEDFE6"/>
<stop offset="1" stop-color="#3E6972"/>
</linearGradient>
<linearGradient id="paint57_linear" x1="34.2363" y1="737.582" x2="33.1779" y2="739.251" gradientUnits="userSpaceOnUse">
<stop stop-color="#AEDFE6"/>
<stop offset="1" stop-color="#3E6972"/>
</linearGradient>
<linearGradient id="paint58_linear" x1="23.0799" y1="738.069" x2="29.8642" y2="740.032" gradientUnits="userSpaceOnUse">
<stop stop-color="#AEDFE6"/>
<stop offset="1" stop-color="#3E6972"/>
</linearGradient>
<linearGradient id="paint59_linear" x1="28.8742" y1="745.113" x2="35.8984" y2="744.791" gradientUnits="userSpaceOnUse">
<stop stop-color="#AEDFE6"/>
<stop offset="1" stop-color="#3E6972"/>
</linearGradient>
<linearGradient id="paint60_linear" x1="33.1398" y1="748.891" x2="48.4326" y2="751.187" gradientUnits="userSpaceOnUse">
<stop stop-color="#AEDFE6"/>
<stop offset="1" stop-color="#3E6972"/>
</linearGradient>
<linearGradient id="paint61_linear" x1="52.0983" y1="755.006" x2="51.3075" y2="753.231" gradientUnits="userSpaceOnUse">
<stop stop-color="#AEDFE6"/>
<stop offset="1" stop-color="#3E6972"/>
</linearGradient>
<linearGradient id="paint62_linear" x1="53.0976" y1="757.333" x2="52.6775" y2="755.998" gradientUnits="userSpaceOnUse">
<stop stop-color="#AEDFE6"/>
<stop offset="1" stop-color="#3E6972"/>
</linearGradient>
<linearGradient id="paint63_linear" x1="46.2172" y1="363.257" x2="58.4699" y2="363.252" gradientUnits="userSpaceOnUse">
<stop stop-color="#AEDFE6"/>
<stop offset="1" stop-color="#3E6972"/>
</linearGradient>
<linearGradient id="paint64_linear" x1="35.5524" y1="335.954" x2="68.7921" y2="370.312" gradientUnits="userSpaceOnUse">
<stop stop-color="#AEDFE6"/>
<stop offset="1" stop-color="#4A737D"/>
</linearGradient>
<linearGradient id="paint65_linear" x1="35.6074" y1="342.367" x2="40.118" y2="341.592" gradientUnits="userSpaceOnUse">
<stop stop-color="#AEDFE6"/>
<stop offset="1" stop-color="#3E6972"/>
</linearGradient>
<linearGradient id="paint66_linear" x1="38.496" y1="348.859" x2="41.8894" y2="349.629" gradientUnits="userSpaceOnUse">
<stop stop-color="#AEDFE6"/>
<stop offset="1" stop-color="#3E6972"/>
</linearGradient>
<linearGradient id="paint67_linear" x1="43.5738" y1="357.982" x2="47.6863" y2="356.902" gradientUnits="userSpaceOnUse">
<stop stop-color="#AEDFE6"/>
<stop offset="1" stop-color="#3E6972"/>
</linearGradient>
<linearGradient id="paint68_linear" x1="50.9341" y1="345.751" x2="49.8757" y2="347.421" gradientUnits="userSpaceOnUse">
<stop stop-color="#AEDFE6"/>
<stop offset="1" stop-color="#3E6972"/>
</linearGradient>
<linearGradient id="paint69_linear" x1="39.7782" y1="346.239" x2="46.5625" y2="348.202" gradientUnits="userSpaceOnUse">
<stop stop-color="#AEDFE6"/>
<stop offset="1" stop-color="#3E6972"/>
</linearGradient>
<linearGradient id="paint70_linear" x1="45.5719" y1="353.283" x2="52.5962" y2="352.961" gradientUnits="userSpaceOnUse">
<stop stop-color="#AEDFE6"/>
<stop offset="1" stop-color="#3E6972"/>
</linearGradient>
<linearGradient id="paint71_linear" x1="49.838" y1="357.061" x2="65.1309" y2="359.357" gradientUnits="userSpaceOnUse">
<stop stop-color="#AEDFE6"/>
<stop offset="1" stop-color="#3E6972"/>
</linearGradient>
<linearGradient id="paint72_linear" x1="68.7966" y1="363.176" x2="68.0058" y2="361.401" gradientUnits="userSpaceOnUse">
<stop stop-color="#AEDFE6"/>
<stop offset="1" stop-color="#3E6972"/>
</linearGradient>
<linearGradient id="paint73_linear" x1="69.7958" y1="365.503" x2="69.3757" y2="364.168" gradientUnits="userSpaceOnUse">
<stop stop-color="#AEDFE6"/>
<stop offset="1" stop-color="#3E6972"/>
</linearGradient>
<linearGradient id="paint74_linear" x1="356.123" y1="539.306" x2="340.78" y2="533.482" gradientUnits="userSpaceOnUse">
<stop stop-color="#AEDFE6"/>
<stop offset="1" stop-color="#3E6972"/>
</linearGradient>
<linearGradient id="paint75_linear" x1="382.546" y1="509.902" x2="324.279" y2="537.545" gradientUnits="userSpaceOnUse">
<stop stop-color="#AEDFE6"/>
<stop offset="1" stop-color="#4A737D"/>
</linearGradient>
<linearGradient id="paint76_linear" x1="379.419" y1="517.94" x2="374.143" y2="514.838" gradientUnits="userSpaceOnUse">
<stop stop-color="#AEDFE6"/>
<stop offset="1" stop-color="#3E6972"/>
</linearGradient>
<linearGradient id="paint77_linear" x1="372.693" y1="524.767" x2="368.066" y2="524.118" gradientUnits="userSpaceOnUse">
<stop stop-color="#AEDFE6"/>
<stop offset="1" stop-color="#3E6972"/>
</linearGradient>
<linearGradient id="paint78_linear" x1="361.96" y1="533.894" x2="357.327" y2="530.603" gradientUnits="userSpaceOnUse">
<stop stop-color="#AEDFE6"/>
<stop offset="1" stop-color="#3E6972"/>
</linearGradient>
<linearGradient id="paint79_linear" x1="358.535" y1="515.116" x2="359.09" y2="517.7" gradientUnits="userSpaceOnUse">
<stop stop-color="#AEDFE6"/>
<stop offset="1" stop-color="#3E6972"/>
</linearGradient>
<linearGradient id="paint80_linear" x1="372.33" y1="520.881" x2="362.872" y2="520.115" gradientUnits="userSpaceOnUse">
<stop stop-color="#AEDFE6"/>
<stop offset="1" stop-color="#3E6972"/>
</linearGradient>
<linearGradient id="paint81_linear" x1="361.687" y1="527.063" x2="353.045" y2="523.328" gradientUnits="userSpaceOnUse">
<stop stop-color="#AEDFE6"/>
<stop offset="1" stop-color="#3E6972"/>
</linearGradient>
<linearGradient id="paint82_linear" x1="354.523" y1="529.843" x2="334.249" y2="525.443" gradientUnits="userSpaceOnUse">
<stop stop-color="#AEDFE6"/>
<stop offset="1" stop-color="#3E6972"/>
</linearGradient>
<linearGradient id="paint83_linear" x1="327.771" y1="528.775" x2="329.604" y2="526.901" gradientUnits="userSpaceOnUse">
<stop stop-color="#AEDFE6"/>
<stop offset="1" stop-color="#3E6972"/>
</linearGradient>
<linearGradient id="paint84_linear" x1="325.405" y1="531.239" x2="326.56" y2="529.747" gradientUnits="userSpaceOnUse">
<stop stop-color="#AEDFE6"/>
<stop offset="1" stop-color="#3E6972"/>
</linearGradient>
<linearGradient id="paint85_linear" x1="340.049" y1="726.48" x2="351.556" y2="722.112" gradientUnits="userSpaceOnUse">
<stop stop-color="#AEDFE6"/>
<stop offset="1" stop-color="#3E6972"/>
</linearGradient>
<linearGradient id="paint86_linear" x1="320.233" y1="704.426" x2="363.932" y2="725.159" gradientUnits="userSpaceOnUse">
<stop stop-color="#AEDFE6"/>
<stop offset="1" stop-color="#4A737D"/>
</linearGradient>
<linearGradient id="paint87_linear" x1="322.578" y1="710.455" x2="326.535" y2="708.128" gradientUnits="userSpaceOnUse">
<stop stop-color="#AEDFE6"/>
<stop offset="1" stop-color="#3E6972"/>
</linearGradient>
<linearGradient id="paint88_linear" x1="327.622" y1="715.576" x2="331.092" y2="715.089" gradientUnits="userSpaceOnUse">
<stop stop-color="#AEDFE6"/>
<stop offset="1" stop-color="#3E6972"/>
</linearGradient>
<linearGradient id="paint89_linear" x1="335.671" y1="722.42" x2="339.146" y2="719.952" gradientUnits="userSpaceOnUse">
<stop stop-color="#AEDFE6"/>
<stop offset="1" stop-color="#3E6972"/>
</linearGradient>
<linearGradient id="paint90_linear" x1="338.241" y1="708.337" x2="337.824" y2="710.275" gradientUnits="userSpaceOnUse">
<stop stop-color="#AEDFE6"/>
<stop offset="1" stop-color="#3E6972"/>
</linearGradient>
<linearGradient id="paint91_linear" x1="327.894" y1="712.661" x2="334.988" y2="712.086" gradientUnits="userSpaceOnUse">
<stop stop-color="#AEDFE6"/>
<stop offset="1" stop-color="#3E6972"/>
</linearGradient>
<linearGradient id="paint92_linear" x1="335.876" y1="717.297" x2="342.358" y2="714.496" gradientUnits="userSpaceOnUse">
<stop stop-color="#AEDFE6"/>
<stop offset="1" stop-color="#3E6972"/>
</linearGradient>
<linearGradient id="paint93_linear" x1="341.25" y1="719.382" x2="356.456" y2="716.083" gradientUnits="userSpaceOnUse">
<stop stop-color="#AEDFE6"/>
<stop offset="1" stop-color="#3E6972"/>
</linearGradient>
<linearGradient id="paint94_linear" x1="361.314" y1="718.582" x2="359.939" y2="717.176" gradientUnits="userSpaceOnUse">
<stop stop-color="#AEDFE6"/>
<stop offset="1" stop-color="#3E6972"/>
</linearGradient>
<linearGradient id="paint95_linear" x1="363.088" y1="720.429" x2="362.221" y2="719.311" gradientUnits="userSpaceOnUse">
<stop stop-color="#AEDFE6"/>
<stop offset="1" stop-color="#3E6972"/>
</linearGradient>
<linearGradient id="paint96_linear" x1="105.29" y1="512.994" x2="123.969" y2="550.68" gradientUnits="userSpaceOnUse">
<stop stop-color="#AEDFE6"/>
<stop offset="1" stop-color="#4A737D"/>
</linearGradient>
<linearGradient id="paint97_linear" x1="116.782" y1="524.389" x2="115.847" y2="526.898" gradientUnits="userSpaceOnUse">
<stop stop-color="#AEDFE6"/>
<stop offset="1" stop-color="#4A737D"/>
</linearGradient>
<linearGradient id="paint98_linear" x1="111.294" y1="523.903" x2="112.075" y2="526.535" gradientUnits="userSpaceOnUse">
<stop stop-color="#AEDFE6"/>
<stop offset="1" stop-color="#4A737D"/>
</linearGradient>
<linearGradient id="paint99_linear" x1="118.111" y1="534.58" x2="124.246" y2="545.404" gradientUnits="userSpaceOnUse">
<stop stop-color="#AEDFE6"/>
<stop offset="1" stop-color="#4A737D"/>
</linearGradient>
<linearGradient id="paint100_linear" x1="110.663" y1="541.582" x2="118.721" y2="549.673" gradientUnits="userSpaceOnUse">
<stop stop-color="#AEDFE6"/>
<stop offset="1" stop-color="#4A737D"/>
</linearGradient>
<linearGradient id="paint101_linear" x1="127.935" y1="545.488" x2="127.012" y2="544.562" gradientUnits="userSpaceOnUse">
<stop stop-color="#AEDFE6"/>
<stop offset="1" stop-color="#3E6972"/>
</linearGradient>
<linearGradient id="paint102_linear" x1="127.128" y1="549.945" x2="127.166" y2="546.549" gradientUnits="userSpaceOnUse">
<stop offset="0.5826" stop-color="#AEDFE6"/>
<stop offset="1" stop-color="#4A737D"/>
</linearGradient>
<linearGradient id="paint103_linear" x1="113.219" y1="518.957" x2="113.105" y2="522.831" gradientUnits="userSpaceOnUse">
<stop stop-color="#AEDFE6"/>
<stop offset="1" stop-color="#4A737D"/>
</linearGradient>
<linearGradient id="paint104_linear" x1="102.725" y1="1195.12" x2="115.249" y2="1195.12" gradientUnits="userSpaceOnUse">
<stop stop-color="#AEDFE6"/>
<stop offset="1" stop-color="#3E6972"/>
</linearGradient>
<linearGradient id="paint105_linear" x1="91.8246" y1="1167.21" x2="125.8" y2="1202.33" gradientUnits="userSpaceOnUse">
<stop stop-color="#AEDFE6"/>
<stop offset="1" stop-color="#4A737D"/>
</linearGradient>
<linearGradient id="paint106_linear" x1="91.8809" y1="1173.77" x2="96.4913" y2="1172.98" gradientUnits="userSpaceOnUse">
<stop stop-color="#AEDFE6"/>
<stop offset="1" stop-color="#3E6972"/>
</linearGradient>
<linearGradient id="paint107_linear" x1="94.8334" y1="1180.4" x2="98.302" y2="1181.19" gradientUnits="userSpaceOnUse">
<stop stop-color="#AEDFE6"/>
<stop offset="1" stop-color="#3E6972"/>
</linearGradient>
<linearGradient id="paint108_linear" x1="100.023" y1="1189.73" x2="104.227" y2="1188.63" gradientUnits="userSpaceOnUse">
<stop stop-color="#AEDFE6"/>
<stop offset="1" stop-color="#3E6972"/>
</linearGradient>
<linearGradient id="paint109_linear" x1="107.547" y1="1177.23" x2="106.465" y2="1178.93" gradientUnits="userSpaceOnUse">
<stop stop-color="#AEDFE6"/>
<stop offset="1" stop-color="#3E6972"/>
</linearGradient>
<linearGradient id="paint110_linear" x1="96.1436" y1="1177.73" x2="103.078" y2="1179.73" gradientUnits="userSpaceOnUse">
<stop stop-color="#AEDFE6"/>
<stop offset="1" stop-color="#3E6972"/>
</linearGradient>
<linearGradient id="paint111_linear" x1="102.066" y1="1184.93" x2="109.246" y2="1184.6" gradientUnits="userSpaceOnUse">
<stop stop-color="#AEDFE6"/>
<stop offset="1" stop-color="#3E6972"/>
</linearGradient>
<linearGradient id="paint112_linear" x1="106.426" y1="1188.79" x2="122.058" y2="1191.13" gradientUnits="userSpaceOnUse">
<stop stop-color="#AEDFE6"/>
<stop offset="1" stop-color="#3E6972"/>
</linearGradient>
<linearGradient id="paint113_linear" x1="125.804" y1="1195.04" x2="124.996" y2="1193.22" gradientUnits="userSpaceOnUse">
<stop stop-color="#AEDFE6"/>
<stop offset="1" stop-color="#3E6972"/>
</linearGradient>
<linearGradient id="paint114_linear" x1="126.826" y1="1197.42" x2="126.397" y2="1196.05" gradientUnits="userSpaceOnUse">
<stop stop-color="#AEDFE6"/>
<stop offset="1" stop-color="#3E6972"/>
</linearGradient>
<linearGradient id="paint115_linear" x1="11.7003" y1="987.842" x2="24.2243" y2="987.836" gradientUnits="userSpaceOnUse">
<stop stop-color="#AEDFE6"/>
<stop offset="1" stop-color="#3E6972"/>
</linearGradient>
<linearGradient id="paint116_linear" x1="0.799669" y1="959.934" x2="34.7752" y2="995.053" gradientUnits="userSpaceOnUse">
<stop stop-color="#AEDFE6"/>
<stop offset="1" stop-color="#4A737D"/>
</linearGradient>
<linearGradient id="paint117_linear" x1="0.855991" y1="966.489" x2="5.46643" y2="965.697" gradientUnits="userSpaceOnUse">
<stop stop-color="#AEDFE6"/>
<stop offset="1" stop-color="#3E6972"/>
</linearGradient>
<linearGradient id="paint118_linear" x1="3.80853" y1="973.125" x2="7.27704" y2="973.912" gradientUnits="userSpaceOnUse">
<stop stop-color="#AEDFE6"/>
<stop offset="1" stop-color="#3E6972"/>
</linearGradient>
<linearGradient id="paint119_linear" x1="8.9985" y1="982.45" x2="13.202" y2="981.346" gradientUnits="userSpaceOnUse">
<stop stop-color="#AEDFE6"/>
<stop offset="1" stop-color="#3E6972"/>
</linearGradient>
<linearGradient id="paint120_linear" x1="16.5224" y1="969.948" x2="15.4406" y2="971.655" gradientUnits="userSpaceOnUse">
<stop stop-color="#AEDFE6"/>
<stop offset="1" stop-color="#3E6972"/>
</linearGradient>
<linearGradient id="paint121_linear" x1="5.11826" y1="970.447" x2="12.0528" y2="972.454" gradientUnits="userSpaceOnUse">
<stop stop-color="#AEDFE6"/>
<stop offset="1" stop-color="#3E6972"/>
</linearGradient>
<linearGradient id="paint122_linear" x1="11.041" y1="977.647" x2="18.2208" y2="977.318" gradientUnits="userSpaceOnUse">
<stop stop-color="#AEDFE6"/>
<stop offset="1" stop-color="#3E6972"/>
</linearGradient>
<linearGradient id="paint123_linear" x1="15.4018" y1="981.509" x2="31.0333" y2="983.855" gradientUnits="userSpaceOnUse">
<stop stop-color="#AEDFE6"/>
<stop offset="1" stop-color="#3E6972"/>
</linearGradient>
<linearGradient id="paint124_linear" x1="34.7799" y1="987.759" x2="33.9716" y2="985.944" gradientUnits="userSpaceOnUse">
<stop stop-color="#AEDFE6"/>
<stop offset="1" stop-color="#3E6972"/>
</linearGradient>
<linearGradient id="paint125_linear" x1="35.8012" y1="990.137" x2="35.3718" y2="988.773" gradientUnits="userSpaceOnUse">
<stop stop-color="#AEDFE6"/>
<stop offset="1" stop-color="#3E6972"/>
</linearGradient>
<linearGradient id="paint126_linear" x1="320.857" y1="916.176" x2="305.174" y2="910.223" gradientUnits="userSpaceOnUse">
<stop stop-color="#AEDFE6"/>
<stop offset="1" stop-color="#3E6972"/>
</linearGradient>
<linearGradient id="paint127_linear" x1="347.864" y1="886.121" x2="288.308" y2="914.377" gradientUnits="userSpaceOnUse">
<stop stop-color="#AEDFE6"/>
<stop offset="1" stop-color="#4A737D"/>
</linearGradient>
<linearGradient id="paint128_linear" x1="344.668" y1="894.337" x2="339.276" y2="891.166" gradientUnits="userSpaceOnUse">
<stop stop-color="#AEDFE6"/>
<stop offset="1" stop-color="#3E6972"/>
</linearGradient>
<linearGradient id="paint129_linear" x1="337.793" y1="901.316" x2="333.064" y2="900.652" gradientUnits="userSpaceOnUse">
<stop stop-color="#AEDFE6"/>
<stop offset="1" stop-color="#3E6972"/>
</linearGradient>
<linearGradient id="paint130_linear" x1="326.822" y1="910.644" x2="322.087" y2="907.281" gradientUnits="userSpaceOnUse">
<stop stop-color="#AEDFE6"/>
<stop offset="1" stop-color="#3E6972"/>
</linearGradient>
<linearGradient id="paint131_linear" x1="323.321" y1="891.45" x2="323.889" y2="894.091" gradientUnits="userSpaceOnUse">
<stop stop-color="#AEDFE6"/>
<stop offset="1" stop-color="#3E6972"/>
</linearGradient>
<linearGradient id="paint132_linear" x1="337.422" y1="897.344" x2="327.754" y2="896.56" gradientUnits="userSpaceOnUse">
<stop stop-color="#AEDFE6"/>
<stop offset="1" stop-color="#3E6972"/>
</linearGradient>
<linearGradient id="paint133_linear" x1="326.543" y1="903.662" x2="317.71" y2="899.845" gradientUnits="userSpaceOnUse">
<stop stop-color="#AEDFE6"/>
<stop offset="1" stop-color="#3E6972"/>
</linearGradient>
<linearGradient id="paint134_linear" x1="319.221" y1="906.504" x2="298.498" y2="902.007" gradientUnits="userSpaceOnUse">
<stop stop-color="#AEDFE6"/>
<stop offset="1" stop-color="#3E6972"/>
</linearGradient>
<linearGradient id="paint135_linear" x1="291.876" y1="905.412" x2="293.75" y2="903.496" gradientUnits="userSpaceOnUse">
<stop stop-color="#AEDFE6"/>
<stop offset="1" stop-color="#3E6972"/>
</linearGradient>
<linearGradient id="paint136_linear" x1="289.459" y1="907.931" x2="290.639" y2="906.406" gradientUnits="userSpaceOnUse">
<stop stop-color="#AEDFE6"/>
<stop offset="1" stop-color="#3E6972"/>
</linearGradient>
<linearGradient id="paint137_linear" x1="367.515" y1="1297.13" x2="379.277" y2="1292.67" gradientUnits="userSpaceOnUse">
<stop stop-color="#AEDFE6"/>
<stop offset="1" stop-color="#3E6972"/>
</linearGradient>
<linearGradient id="paint138_linear" x1="347.26" y1="1274.59" x2="391.927" y2="1295.78" gradientUnits="userSpaceOnUse">
<stop stop-color="#AEDFE6"/>
<stop offset="1" stop-color="#4A737D"/>
</linearGradient>
<linearGradient id="paint139_linear" x1="349.657" y1="1280.75" x2="353.702" y2="1278.37" gradientUnits="userSpaceOnUse">
<stop stop-color="#AEDFE6"/>
<stop offset="1" stop-color="#3E6972"/>
</linearGradient>
<linearGradient id="paint140_linear" x1="354.813" y1="1285.99" x2="358.359" y2="1285.49" gradientUnits="userSpaceOnUse">
<stop stop-color="#AEDFE6"/>
<stop offset="1" stop-color="#3E6972"/>
</linearGradient>
<linearGradient id="paint141_linear" x1="363.041" y1="1292.98" x2="366.592" y2="1290.46" gradientUnits="userSpaceOnUse">
<stop stop-color="#AEDFE6"/>
<stop offset="1" stop-color="#3E6972"/>
</linearGradient>
<linearGradient id="paint142_linear" x1="365.667" y1="1278.59" x2="365.241" y2="1280.57" gradientUnits="userSpaceOnUse">
<stop stop-color="#AEDFE6"/>
<stop offset="1" stop-color="#3E6972"/>
</linearGradient>
<linearGradient id="paint143_linear" x1="355.092" y1="1283.01" x2="362.342" y2="1282.42" gradientUnits="userSpaceOnUse">
<stop stop-color="#AEDFE6"/>
<stop offset="1" stop-color="#3E6972"/>
</linearGradient>
<linearGradient id="paint144_linear" x1="363.25" y1="1287.75" x2="369.875" y2="1284.88" gradientUnits="userSpaceOnUse">
<stop stop-color="#AEDFE6"/>
<stop offset="1" stop-color="#3E6972"/>
</linearGradient>
<linearGradient id="paint145_linear" x1="368.742" y1="1289.88" x2="384.285" y2="1286.51" gradientUnits="userSpaceOnUse">
<stop stop-color="#AEDFE6"/>
<stop offset="1" stop-color="#3E6972"/>
</linearGradient>
<linearGradient id="paint146_linear" x1="389.251" y1="1289.06" x2="387.845" y2="1287.62" gradientUnits="userSpaceOnUse">
<stop stop-color="#AEDFE6"/>
<stop offset="1" stop-color="#3E6972"/>
</linearGradient>
<linearGradient id="paint147_linear" x1="391.064" y1="1290.95" x2="390.178" y2="1289.8" gradientUnits="userSpaceOnUse">
<stop stop-color="#AEDFE6"/>
<stop offset="1" stop-color="#3E6972"/>
</linearGradient>
<linearGradient id="paint148_linear" x1="106.985" y1="987.331" x2="126.076" y2="1025.85" gradientUnits="userSpaceOnUse">
<stop stop-color="#AEDFE6"/>
<stop offset="1" stop-color="#4A737D"/>
</linearGradient>
<linearGradient id="paint149_linear" x1="118.732" y1="998.978" x2="117.776" y2="1001.54" gradientUnits="userSpaceOnUse">
<stop stop-color="#AEDFE6"/>
<stop offset="1" stop-color="#4A737D"/>
</linearGradient>
<linearGradient id="paint150_linear" x1="113.121" y1="998.481" x2="113.919" y2="1001.17" gradientUnits="userSpaceOnUse">
<stop stop-color="#AEDFE6"/>
<stop offset="1" stop-color="#4A737D"/>
</linearGradient>
<linearGradient id="paint151_linear" x1="120.089" y1="1009.39" x2="126.36" y2="1020.46" gradientUnits="userSpaceOnUse">
<stop stop-color="#AEDFE6"/>
<stop offset="1" stop-color="#4A737D"/>
</linearGradient>
<linearGradient id="paint152_linear" x1="112.476" y1="1016.55" x2="120.712" y2="1024.82" gradientUnits="userSpaceOnUse">
<stop stop-color="#AEDFE6"/>
<stop offset="1" stop-color="#4A737D"/>
</linearGradient>
<linearGradient id="paint153_linear" x1="130.13" y1="1020.54" x2="129.187" y2="1019.6" gradientUnits="userSpaceOnUse">
<stop stop-color="#AEDFE6"/>
<stop offset="1" stop-color="#3E6972"/>
</linearGradient>
<linearGradient id="paint154_linear" x1="129.306" y1="1025.1" x2="129.344" y2="1021.63" gradientUnits="userSpaceOnUse">
<stop offset="0.5826" stop-color="#AEDFE6"/>
<stop offset="1" stop-color="#4A737D"/>
</linearGradient>
<linearGradient id="paint155_linear" x1="115.088" y1="993.426" x2="114.972" y2="997.386" gradientUnits="userSpaceOnUse">
<stop stop-color="#AEDFE6"/>
<stop offset="1" stop-color="#4A737D"/>
</linearGradient>
<linearGradient id="paint156_linear" x1="78.8058" y1="1553.91" x2="91.3297" y2="1553.9" gradientUnits="userSpaceOnUse">
<stop stop-color="#AEDFE6"/>
<stop offset="1" stop-color="#3E6972"/>
</linearGradient>
<linearGradient id="paint157_linear" x1="67.9056" y1="1526" x2="101.881" y2="1561.12" gradientUnits="userSpaceOnUse">
<stop stop-color="#AEDFE6"/>
<stop offset="1" stop-color="#4A737D"/>
</linearGradient>
<linearGradient id="paint158_linear" x1="67.962" y1="1532.55" x2="72.5723" y2="1531.76" gradientUnits="userSpaceOnUse">
<stop stop-color="#AEDFE6"/>
<stop offset="1" stop-color="#3E6972"/>
</linearGradient>
<linearGradient id="paint159_linear" x1="70.9145" y1="1539.19" x2="74.383" y2="1539.98" gradientUnits="userSpaceOnUse">
<stop stop-color="#AEDFE6"/>
<stop offset="1" stop-color="#3E6972"/>
</linearGradient>
<linearGradient id="paint160_linear" x1="76.1049" y1="1548.51" x2="80.3085" y2="1547.41" gradientUnits="userSpaceOnUse">
<stop stop-color="#AEDFE6"/>
<stop offset="1" stop-color="#3E6972"/>
</linearGradient>
<linearGradient id="paint161_linear" x1="83.6278" y1="1536.01" x2="82.546" y2="1537.72" gradientUnits="userSpaceOnUse">
<stop stop-color="#AEDFE6"/>
<stop offset="1" stop-color="#3E6972"/>
</linearGradient>
<linearGradient id="paint162_linear" x1="72.2247" y1="1536.51" x2="79.1591" y2="1538.52" gradientUnits="userSpaceOnUse">
<stop stop-color="#AEDFE6"/>
<stop offset="1" stop-color="#3E6972"/>
</linearGradient>
<linearGradient id="paint163_linear" x1="78.1475" y1="1543.71" x2="85.3272" y2="1543.38" gradientUnits="userSpaceOnUse">
<stop stop-color="#AEDFE6"/>
<stop offset="1" stop-color="#3E6972"/>
</linearGradient>
<linearGradient id="paint164_linear" x1="82.5073" y1="1547.57" x2="98.1387" y2="1549.92" gradientUnits="userSpaceOnUse">
<stop stop-color="#AEDFE6"/>
<stop offset="1" stop-color="#3E6972"/>
</linearGradient>
<linearGradient id="paint165_linear" x1="101.885" y1="1553.82" x2="101.077" y2="1552.01" gradientUnits="userSpaceOnUse">
<stop stop-color="#AEDFE6"/>
<stop offset="1" stop-color="#3E6972"/>
</linearGradient>
<linearGradient id="paint166_linear" x1="102.907" y1="1556.2" x2="102.477" y2="1554.84" gradientUnits="userSpaceOnUse">
<stop stop-color="#AEDFE6"/>
<stop offset="1" stop-color="#3E6972"/>
</linearGradient>
<linearGradient id="paint167_linear" x1="43.5924" y1="1324.3" x2="56.1164" y2="1324.29" gradientUnits="userSpaceOnUse">
<stop stop-color="#AEDFE6"/>
<stop offset="1" stop-color="#3E6972"/>
</linearGradient>
<linearGradient id="paint168_linear" x1="32.6918" y1="1296.39" x2="66.6673" y2="1331.51" gradientUnits="userSpaceOnUse">
<stop stop-color="#AEDFE6"/>
<stop offset="1" stop-color="#4A737D"/>
</linearGradient>
<linearGradient id="paint169_linear" x1="32.7476" y1="1302.95" x2="37.358" y2="1302.15" gradientUnits="userSpaceOnUse">
<stop stop-color="#AEDFE6"/>
<stop offset="1" stop-color="#3E6972"/>
</linearGradient>
<linearGradient id="paint170_linear" x1="35.7006" y1="1309.58" x2="39.1691" y2="1310.37" gradientUnits="userSpaceOnUse">
<stop stop-color="#AEDFE6"/>
<stop offset="1" stop-color="#3E6972"/>
</linearGradient>
<linearGradient id="paint171_linear" x1="40.8906" y1="1318.91" x2="45.0941" y2="1317.8" gradientUnits="userSpaceOnUse">
<stop stop-color="#AEDFE6"/>
<stop offset="1" stop-color="#3E6972"/>
</linearGradient>
<linearGradient id="paint172_linear" x1="48.414" y1="1306.41" x2="47.3322" y2="1308.11" gradientUnits="userSpaceOnUse">
<stop stop-color="#AEDFE6"/>
<stop offset="1" stop-color="#3E6972"/>
</linearGradient>
<linearGradient id="paint173_linear" x1="37.0108" y1="1306.9" x2="43.9454" y2="1308.91" gradientUnits="userSpaceOnUse">
<stop stop-color="#AEDFE6"/>
<stop offset="1" stop-color="#3E6972"/>
</linearGradient>
<linearGradient id="paint174_linear" x1="42.9331" y1="1314.1" x2="50.1129" y2="1313.78" gradientUnits="userSpaceOnUse">
<stop stop-color="#AEDFE6"/>
<stop offset="1" stop-color="#3E6972"/>
</linearGradient>
<linearGradient id="paint175_linear" x1="47.2934" y1="1317.97" x2="62.9249" y2="1320.31" gradientUnits="userSpaceOnUse">
<stop stop-color="#AEDFE6"/>
<stop offset="1" stop-color="#3E6972"/>
</linearGradient>
<linearGradient id="paint176_linear" x1="66.6715" y1="1324.22" x2="65.8632" y2="1322.4" gradientUnits="userSpaceOnUse">
<stop stop-color="#AEDFE6"/>
<stop offset="1" stop-color="#3E6972"/>
</linearGradient>
<linearGradient id="paint177_linear" x1="67.6933" y1="1326.59" x2="67.2639" y2="1325.23" gradientUnits="userSpaceOnUse">
<stop stop-color="#AEDFE6"/>
<stop offset="1" stop-color="#3E6972"/>
</linearGradient>
<linearGradient id="paint178_linear" x1="299.908" y1="1414.4" x2="284.225" y2="1408.44" gradientUnits="userSpaceOnUse">
<stop stop-color="#AEDFE6"/>
<stop offset="1" stop-color="#3E6972"/>
</linearGradient>
<linearGradient id="paint179_linear" x1="326.914" y1="1384.34" x2="267.358" y2="1412.6" gradientUnits="userSpaceOnUse">
<stop stop-color="#AEDFE6"/>
<stop offset="1" stop-color="#4A737D"/>
</linearGradient>
<linearGradient id="paint180_linear" x1="323.719" y1="1392.56" x2="318.326" y2="1389.39" gradientUnits="userSpaceOnUse">
<stop stop-color="#AEDFE6"/>
<stop offset="1" stop-color="#3E6972"/>
</linearGradient>
<linearGradient id="paint181_linear" x1="316.844" y1="1399.54" x2="312.115" y2="1398.87" gradientUnits="userSpaceOnUse">
<stop stop-color="#AEDFE6"/>
<stop offset="1" stop-color="#3E6972"/>
</linearGradient>
<linearGradient id="paint182_linear" x1="305.873" y1="1408.87" x2="301.137" y2="1405.5" gradientUnits="userSpaceOnUse">
<stop stop-color="#AEDFE6"/>
<stop offset="1" stop-color="#3E6972"/>
</linearGradient>
<linearGradient id="paint183_linear" x1="302.372" y1="1389.67" x2="302.94" y2="1392.31" gradientUnits="userSpaceOnUse">
<stop stop-color="#AEDFE6"/>
<stop offset="1" stop-color="#3E6972"/>
</linearGradient>
<linearGradient id="paint184_linear" x1="316.472" y1="1395.56" x2="306.805" y2="1394.78" gradientUnits="userSpaceOnUse">
<stop stop-color="#AEDFE6"/>
<stop offset="1" stop-color="#3E6972"/>
</linearGradient>
<linearGradient id="paint185_linear" x1="305.594" y1="1401.88" x2="296.761" y2="1398.07" gradientUnits="userSpaceOnUse">
<stop stop-color="#AEDFE6"/>
<stop offset="1" stop-color="#3E6972"/>
</linearGradient>
<linearGradient id="paint186_linear" x1="298.272" y1="1404.72" x2="277.548" y2="1400.23" gradientUnits="userSpaceOnUse">
<stop stop-color="#AEDFE6"/>
<stop offset="1" stop-color="#3E6972"/>
</linearGradient>
<linearGradient id="paint187_linear" x1="270.927" y1="1403.63" x2="272.8" y2="1401.72" gradientUnits="userSpaceOnUse">
<stop stop-color="#AEDFE6"/>
<stop offset="1" stop-color="#3E6972"/>
</linearGradient>
<linearGradient id="paint188_linear" x1="268.509" y1="1406.15" x2="269.69" y2="1404.63" gradientUnits="userSpaceOnUse">
<stop stop-color="#AEDFE6"/>
<stop offset="1" stop-color="#3E6972"/>
</linearGradient>
<linearGradient id="paint189_linear" x1="265.639" y1="1600.17" x2="277.401" y2="1595.71" gradientUnits="userSpaceOnUse">
<stop stop-color="#AEDFE6"/>
<stop offset="1" stop-color="#3E6972"/>
</linearGradient>
<linearGradient id="paint190_linear" x1="245.384" y1="1577.63" x2="290.051" y2="1598.82" gradientUnits="userSpaceOnUse">
<stop stop-color="#AEDFE6"/>
<stop offset="1" stop-color="#4A737D"/>
</linearGradient>
<linearGradient id="paint191_linear" x1="247.781" y1="1583.79" x2="251.826" y2="1581.41" gradientUnits="userSpaceOnUse">
<stop stop-color="#AEDFE6"/>
<stop offset="1" stop-color="#3E6972"/>
</linearGradient>
<linearGradient id="paint192_linear" x1="252.937" y1="1589.03" x2="256.484" y2="1588.53" gradientUnits="userSpaceOnUse">
<stop stop-color="#AEDFE6"/>
<stop offset="1" stop-color="#3E6972"/>
</linearGradient>
<linearGradient id="paint193_linear" x1="261.165" y1="1596.02" x2="264.716" y2="1593.5" gradientUnits="userSpaceOnUse">
<stop stop-color="#AEDFE6"/>
<stop offset="1" stop-color="#3E6972"/>
</linearGradient>
<linearGradient id="paint194_linear" x1="263.791" y1="1581.63" x2="263.365" y2="1583.61" gradientUnits="userSpaceOnUse">
<stop stop-color="#AEDFE6"/>
<stop offset="1" stop-color="#3E6972"/>
</linearGradient>
<linearGradient id="paint195_linear" x1="253.216" y1="1586.05" x2="260.466" y2="1585.46" gradientUnits="userSpaceOnUse">
<stop stop-color="#AEDFE6"/>
<stop offset="1" stop-color="#3E6972"/>
</linearGradient>
<linearGradient id="paint196_linear" x1="261.374" y1="1590.79" x2="267.999" y2="1587.92" gradientUnits="userSpaceOnUse">
<stop stop-color="#AEDFE6"/>
<stop offset="1" stop-color="#3E6972"/>
</linearGradient>
<linearGradient id="paint197_linear" x1="266.866" y1="1592.92" x2="282.409" y2="1589.54" gradientUnits="userSpaceOnUse">
<stop stop-color="#AEDFE6"/>
<stop offset="1" stop-color="#3E6972"/>
</linearGradient>
<linearGradient id="paint198_linear" x1="287.375" y1="1592.1" x2="285.969" y2="1590.66" gradientUnits="userSpaceOnUse">
<stop stop-color="#AEDFE6"/>
<stop offset="1" stop-color="#3E6972"/>
</linearGradient>
<linearGradient id="paint199_linear" x1="289.188" y1="1593.99" x2="288.302" y2="1592.84" gradientUnits="userSpaceOnUse">
<stop stop-color="#AEDFE6"/>
<stop offset="1" stop-color="#3E6972"/>
</linearGradient>
</defs>
</svg>
