<svg width="1188" height="1110" viewBox="0 0 1188 1110" fill="none" xmlns="http://www.w3.org/2000/svg">
<path d="M142.318 457.351L138.765 457.508L137 457.693L128.524 457.707L133.079 459.377L141.138 460.464L147.642 460.35L142.318 457.351Z" fill="url(#paint0_linear)"/>
<path d="M114.424 421.153L113.548 418.016L112.962 414.672L112.12 411.029L113.646 407.001L113.596 411.047L115.422 414.327L115.223 412.899L116.019 409.957L116.395 406.45L118.761 411.382L118.038 414.971L117.926 417.225L119.246 422.399L122.245 425.38L125.884 428.072L129.324 430.17L139.706 437.003L146.04 440.269L150.609 443.303L154.57 444.859L156.187 446.184L159.037 449.004L161.826 451.696L163.179 454.278L167.216 458.156L168.298 460.328L165.603 459.334L163.154 459.374L159.656 460.677L163.429 462.016L165.183 463.519L165.834 465.153L160.271 465.299L155.405 465.285L147.643 460.349L142.318 457.351L138.787 456.055L134.045 454.313L130.883 450.92L128.391 448.277L124.122 443.894L122.227 440.799L120.827 438.616L119.398 436.53L118.671 433.969L117.774 431.035L114.424 421.153Z" fill="url(#paint1_linear)"/>
<path d="M117.773 431.035L115.914 430.351L113.096 426.605L113.462 422.57L114.424 421.153L117.773 431.035Z" fill="url(#paint2_linear)"/>
<path d="M119.398 436.529L115.81 436.775L119.015 437.534L120.827 438.616L119.398 436.529Z" fill="url(#paint3_linear)"/>
<path d="M128.391 448.277L126.662 448.37L124.006 450.627L127.074 451.753L130.883 450.919L128.391 448.277Z" fill="url(#paint4_linear)"/>
<path d="M129.324 430.17L131.162 430.633L135.065 432.068L137.727 433.984L139.706 437.004L129.324 430.17Z" fill="url(#paint5_linear)"/>
<path d="M128.028 435.71L126.372 434.467L124.426 433.307L121.98 432.95L119.875 432.715L117.563 432.69L119.419 433.755L121.174 434.4L123.778 435.354L126.43 436.013L128.028 435.71Z" fill="url(#paint6_linear)"/>
<path d="M138.519 443.437L135.336 442.647L132.051 441.44L130.785 442.565L129.259 443.021L126.947 443.505L127.635 444.075L130.293 445.051L133.654 445.207L136.83 444.595L138.519 443.437Z" fill="url(#paint7_linear)"/>
<path d="M154.364 452.177L152.298 450.817L149.241 449.691L146.311 448.919L144.231 449.471L140.433 449.791L136.946 449.463L132.594 448.691L135.651 449.812L140.748 451.686L145.107 453.284L149.118 453.427L153 453.391L154.364 452.177Z" fill="url(#paint8_linear)"/>
<path d="M162.643 455.83L163.237 456.564L163.627 457.532L162.911 457.269L162.018 457.486L160.77 456.482L162.643 455.83Z" fill="url(#paint9_linear)"/>
<path d="M159.656 460.677L163.429 462.016L168.298 460.328L165.603 459.334L163.154 459.373L159.656 460.677Z" fill="url(#paint10_linear)"/>
<path d="M30.1984 153.93L26.6461 154.086L24.8808 154.272L16.4053 154.286L20.9596 155.956L29.0192 157.042L35.5232 156.928L30.1984 153.93Z" fill="url(#paint11_linear)"/>
<path d="M2.30428 117.731L1.42886 114.594L0.842838 111.25L0 107.607L1.52653 103.58L1.47588 107.625L3.30267 110.905L3.10371 109.477L3.89955 106.535L4.27575 103.028L6.64154 107.96L5.91806 111.549L5.80592 113.803L7.12626 118.978L10.1251 121.958L13.7642 124.65L17.2044 126.748L27.5863 133.581L33.9204 136.847L38.4891 139.881L42.4502 141.437L44.0672 142.762L46.9177 145.582L49.7067 148.274L51.0596 150.856L55.0966 154.734L56.1782 156.906L53.4833 155.913L51.0343 155.952L47.5363 157.255L51.3092 158.594L53.0636 160.097L53.7148 161.731L48.1512 161.877L43.2858 161.863L35.5229 156.927L30.1981 153.929L26.6675 152.633L21.9251 150.892L18.7635 147.498L16.2711 144.856L12.0025 140.472L10.107 137.377L8.70706 135.194L7.27821 133.108L6.55111 130.547L5.65398 127.613L2.30428 117.731Z" fill="url(#paint12_linear)"/>
<path d="M5.65394 127.613L3.79458 126.93L0.976562 123.183L1.34193 119.149L2.30419 117.731L5.65394 127.613Z" fill="url(#paint13_linear)"/>
<path d="M7.27842 133.108L3.68994 133.354L6.89498 134.112L8.70728 135.195L7.27842 133.108Z" fill="url(#paint14_linear)"/>
<path d="M16.2705 144.855L14.5414 144.948L11.8862 147.206L14.9538 148.331L18.7629 147.498L16.2705 144.855Z" fill="url(#paint15_linear)"/>
<path d="M17.2046 126.748L19.0422 127.211L22.9455 128.646L25.6079 130.561L27.5866 133.581L17.2046 126.748Z" fill="url(#paint16_linear)"/>
<path d="M15.909 132.289L14.2522 131.046L12.3061 129.885L9.86069 129.529L7.75535 129.294L5.44385 129.269L7.29958 130.334L9.05401 130.978L11.6585 131.933L14.3101 132.591L15.909 132.289Z" fill="url(#paint17_linear)"/>
<path d="M26.3997 140.016L23.2164 139.225L19.9318 138.018L18.6657 139.143L17.1391 139.599L14.8276 140.084L15.5149 140.653L18.1737 141.629L21.5343 141.786L24.7104 141.173L26.3997 140.016Z" fill="url(#paint18_linear)"/>
<path d="M42.2442 148.755L40.1786 147.395L37.1219 146.27L34.1918 145.497L32.1118 146.049L28.3135 146.369L24.8263 146.042L20.4746 145.269L23.5313 146.391L28.6282 148.264L32.9872 149.863L36.9989 150.005L40.8804 149.97L42.2442 148.755Z" fill="url(#paint19_linear)"/>
<path d="M50.5243 152.409L51.1175 153.142L51.5082 154.111L50.7919 153.847L49.8984 154.064L48.6504 153.06L50.5243 152.409Z" fill="url(#paint20_linear)"/>
<path d="M47.5366 157.255L51.3096 158.594L56.1786 156.906L53.4836 155.913L51.0346 155.952L47.5366 157.255Z" fill="url(#paint21_linear)"/>
<path d="M924.478 186.643L920.925 186.8L919.16 186.985L910.685 186.999L915.239 188.669L923.298 189.755L929.803 189.641L924.478 186.643Z" fill="url(#paint22_linear)"/>
<path d="M896.584 150.445L895.708 147.308L895.122 143.964L894.28 140.321L895.806 136.294L895.755 140.339L897.582 143.619L897.383 142.191L898.179 139.249L898.555 135.742L900.921 140.674L900.198 144.263L900.085 146.517L901.406 151.691L904.405 154.672L908.044 157.364L911.484 159.462L921.866 166.295L928.2 169.561L932.769 172.595L936.73 174.151L938.347 175.476L941.197 178.296L943.986 180.988L945.339 183.57L949.376 187.448L950.458 189.62L947.763 188.626L945.314 188.666L941.816 189.969L945.589 191.308L947.343 192.811L947.994 194.445L942.431 194.591L937.565 194.577L929.802 189.641L924.477 186.643L920.947 185.347L916.205 183.605L913.043 180.212L910.551 177.569L906.282 173.186L904.387 170.091L902.987 167.908L901.558 165.822L900.831 163.261L899.933 160.327L896.584 150.445Z" fill="url(#paint23_linear)"/>
<path d="M899.933 160.327L898.074 159.643L895.256 155.897L895.621 151.862L896.583 150.445L899.933 160.327Z" fill="url(#paint24_linear)"/>
<path d="M901.558 165.821L897.969 166.067L901.174 166.825L902.987 167.908L901.558 165.821Z" fill="url(#paint25_linear)"/>
<path d="M910.55 177.569L908.821 177.661L906.166 179.919L909.233 181.044L913.043 180.211L910.55 177.569Z" fill="url(#paint26_linear)"/>
<path d="M911.483 159.461L913.321 159.924L917.224 161.359L919.887 163.275L921.865 166.295L911.483 159.461Z" fill="url(#paint27_linear)"/>
<path d="M910.189 165.002L908.532 163.759L906.586 162.598L904.14 162.242L902.035 162.007L899.724 161.982L901.579 163.047L903.334 163.692L905.938 164.646L908.59 165.305L910.189 165.002Z" fill="url(#paint28_linear)"/>
<path d="M920.679 172.729L917.495 171.939L914.211 170.732L912.945 171.857L911.418 172.313L909.107 172.797L909.794 173.367L912.453 174.342L915.813 174.499L918.989 173.887L920.679 172.729Z" fill="url(#paint29_linear)"/>
<path d="M936.523 181.469L934.457 180.108L931.401 178.983L928.47 178.21L926.39 178.762L922.592 179.083L919.105 178.755L914.753 177.983L917.81 179.104L922.907 180.977L927.266 182.576L931.278 182.719L935.159 182.683L936.523 181.469Z" fill="url(#paint30_linear)"/>
<path d="M944.804 185.122L945.397 185.856L945.788 186.824L945.071 186.561L944.178 186.778L942.93 185.774L944.804 185.122Z" fill="url(#paint31_linear)"/>
<path d="M941.816 189.969L945.589 191.307L950.458 189.62L947.763 188.626L945.314 188.665L941.816 189.969Z" fill="url(#paint32_linear)"/>
<path d="M962.684 397.325L966.236 397.481L968.001 397.667L976.477 397.681L971.923 399.351L963.863 400.437L957.359 400.323L962.684 397.325Z" fill="url(#paint33_linear)"/>
<path d="M990.578 361.127L991.453 357.989L992.039 354.646L992.882 351.003L991.356 346.975L991.406 351.021L989.579 354.3L989.778 352.872L988.983 349.931L988.606 346.423L986.241 351.355L986.964 354.945L987.076 357.199L985.756 362.373L982.757 365.354L979.118 368.046L975.678 370.143L965.296 376.977L958.962 380.242L954.393 383.276L950.432 384.833L948.815 386.157L945.964 388.978L943.175 391.67L941.822 394.251L937.785 398.129L936.704 400.302L939.399 399.308L941.848 399.347L945.346 400.651L941.573 401.99L939.818 403.492L939.167 405.127L944.731 405.273L949.596 405.259L957.359 400.323L962.684 397.325L966.215 396.028L970.957 394.287L974.119 390.893L976.611 388.251L980.88 383.868L982.775 380.773L984.175 378.59L985.604 376.503L986.331 373.943L987.228 371.009L990.578 361.127Z" fill="url(#paint34_linear)"/>
<path d="M987.228 371.008L989.087 370.325L991.905 366.579L991.54 362.544L990.577 361.127L987.228 371.008Z" fill="url(#paint35_linear)"/>
<path d="M985.604 376.503L989.192 376.749L985.987 377.507L984.175 378.59L985.604 376.503Z" fill="url(#paint36_linear)"/>
<path d="M976.611 388.251L978.34 388.343L980.996 390.601L977.928 391.726L974.119 390.893L976.611 388.251Z" fill="url(#paint37_linear)"/>
<path d="M975.677 370.143L973.84 370.606L969.937 372.041L967.274 373.957L965.296 376.976L975.677 370.143Z" fill="url(#paint38_linear)"/>
<path d="M976.973 375.684L978.63 374.441L980.576 373.28L983.021 372.924L985.126 372.689L987.438 372.664L985.582 373.729L983.828 374.373L981.223 375.328L978.572 375.987L976.973 375.684Z" fill="url(#paint39_linear)"/>
<path d="M966.483 383.411L969.666 382.62L972.951 381.413L974.217 382.538L975.744 382.994L978.055 383.479L977.368 384.048L974.709 385.024L971.349 385.181L968.172 384.568L966.483 383.411Z" fill="url(#paint40_linear)"/>
<path d="M950.638 392.151L952.703 390.79L955.76 389.665L958.69 388.892L960.77 389.444L964.568 389.765L968.056 389.437L972.407 388.664L969.351 389.786L964.254 391.659L959.895 393.258L955.883 393.4L952.002 393.365L950.638 392.151Z" fill="url(#paint41_linear)"/>
<path d="M942.358 395.804L941.765 396.537L941.374 397.506L942.09 397.242L942.984 397.459L944.231 396.455L942.358 395.804Z" fill="url(#paint42_linear)"/>
<path d="M945.346 400.65L941.573 401.989L936.704 400.301L939.399 399.308L941.848 399.347L945.346 400.65Z" fill="url(#paint43_linear)"/>
<path d="M1090.98 428.325L1088.05 430.299L1086.65 431.372L1079.46 435.777L1084.23 434.837L1091.66 431.584L1097.12 428.116L1090.98 428.325Z" fill="url(#paint44_linear)"/>
<path d="M1048.01 412.088L1045.57 409.882L1043.27 407.35L1040.59 404.698L1039.7 400.487L1041.85 403.945L1045.16 405.777L1044.22 404.669L1043.3 401.76L1041.72 398.588L1046.39 401.541L1047.72 404.963L1048.84 406.933L1052.75 410.636L1056.89 411.604L1061.42 411.994L1065.46 411.983L1077.91 412.377L1085.02 411.851L1090.52 412.047L1094.7 411.306L1096.78 411.589L1100.71 412.498L1104.52 413.33L1107.06 414.816L1112.56 416.005L1114.65 417.285L1111.83 417.845L1109.79 419.153L1107.54 422.079L1111.45 421.251L1113.74 421.613L1115.18 422.661L1110.56 425.68L1106.45 428.2L1097.23 428.052L1091.11 428.28L1087.43 429.018L1082.49 430.008L1077.99 428.775L1074.46 427.83L1068.49 426.333L1065.21 424.694L1062.85 423.571L1060.52 422.544L1058.52 420.75L1056.18 418.728L1048.01 412.088Z" fill="url(#paint45_linear)"/>
<path d="M1056.06 418.663L1054.13 419.05L1049.74 417.335L1047.87 413.718L1047.92 412.013L1056.06 418.663Z" fill="url(#paint46_linear)"/>
<path d="M1060.37 422.504L1057.46 424.575L1060.59 423.555L1062.71 423.532L1060.37 422.504Z" fill="url(#paint47_linear)"/>
<path d="M1074.29 427.832L1072.88 428.809L1071.85 432.103L1075.06 431.464L1077.83 428.779L1074.29 427.832Z" fill="url(#paint48_linear)"/>
<path d="M1065.42 411.964L1067.23 411.402L1071.3 410.59L1074.59 410.831L1077.9 412.363L1065.42 411.964Z" fill="url(#paint49_linear)"/>
<path d="M1067.28 417.328L1065.2 417.132L1062.92 417.157L1060.66 418.123L1058.74 419.016L1056.77 420.194L1058.92 420.135L1060.76 419.772L1063.48 419.231L1066.09 418.414L1067.28 417.328Z" fill="url(#paint50_linear)"/>
<path d="M1080.32 418.462L1077.19 419.442L1073.75 420.122L1073.29 421.734L1072.24 422.913L1070.54 424.523L1071.43 424.65L1074.22 424.099L1077.15 422.488L1079.51 420.32L1080.32 418.462Z" fill="url(#paint51_linear)"/>
<path d="M1098.46 417.681L1095.97 417.596L1092.77 418.224L1089.87 419.087L1088.4 420.634L1085.35 422.876L1082.21 424.405L1078.1 426.005L1081.3 425.373L1086.64 424.323L1091.2 423.422L1094.69 421.463L1097.96 419.42L1098.46 417.681Z" fill="url(#paint52_linear)"/>
<path d="M1107.46 416.497L1108.36 416.811L1109.21 417.43L1108.46 417.578L1107.83 418.227L1106.23 418.024L1107.46 416.497Z" fill="url(#paint53_linear)"/>
<path d="M1107.52 422.169L1111.45 421.348L1114.66 417.389L1111.84 417.944L1109.79 419.247L1107.52 422.169Z" fill="url(#paint54_linear)"/>
<path d="M313.511 143.638L317.906 145.474L320.037 146.521L330.689 150.454H324.163L313.511 148.095L305.39 144.95L313.511 143.638Z" fill="url(#paint55_linear)"/>
<path d="M365.837 111.003L368.432 107.464L370.764 103.531L373.558 99.337V93.5691L371.696 98.6812L367.833 101.958L368.765 100.255L369.166 96.1923L370.364 91.6039L365.039 96.7161L364.239 101.564L363.306 104.449L359.18 110.347L353.987 112.706L348.13 114.409L342.803 115.459L326.492 119.259L316.974 120.439L309.785 122.142L304.06 122.274L301.397 123.192L296.47 125.419L291.677 127.516L288.746 130.137L281.823 133.152L279.427 135.381H283.29L286.35 136.561L290.127 139.813L284.745 139.756L281.823 140.833L280.227 142.588L287.15 145.341L293.273 147.571L305.39 144.95L313.511 143.638H318.572H325.361L330.955 140.833L335.347 138.658L342.803 135.119L346.665 132.105L349.46 130.007L352.256 128.04L354.387 125.157L356.917 121.88L365.837 111.003Z" fill="url(#paint56_linear)"/>
<path d="M356.917 121.881H359.58L364.905 118.474L366.369 113.23L365.837 111.003L356.917 121.881Z" fill="url(#paint57_linear)"/>
<path d="M352.256 128.04L356.649 130.007L352.256 129.483L349.459 130.007L352.256 128.04Z" fill="url(#paint58_linear)"/>
<path d="M335.347 138.658L337.477 139.576L339.742 143.638H335.347L330.954 140.833L335.347 138.658Z" fill="url(#paint59_linear)"/>
<path d="M342.802 115.46L340.274 115.198H334.681L330.42 116.377L326.492 119.26L342.802 115.46Z" fill="url(#paint60_linear)"/>
<path d="M341.792 123.026L344.468 122.226L347.468 121.668L350.713 122.347L353.471 123.026L356.39 124.064L353.552 124.542H351.037H347.306L343.656 124.144L341.792 123.026Z" fill="url(#paint61_linear)"/>
<path d="M324.919 127.896L329.301 128.374H334.005L335.058 130.371L336.763 131.649L339.439 133.325L338.303 133.723H334.491L330.193 132.366L326.492 130.132L324.919 127.896Z" fill="url(#paint62_linear)"/>
<path d="M300.833 131.57L304.076 130.812H308.457L312.512 131.19L314.865 132.847L319.486 135.001L324.029 136.199L329.868 137.238H325.489H318.189H311.943L306.833 135.562L301.966 133.724L300.833 131.57Z" fill="url(#paint63_linear)"/>
<path d="M288.68 132.339L287.583 132.986L286.635 134.024H287.657L288.68 134.712L290.724 134.024L288.68 132.339Z" fill="url(#paint64_linear)"/>
<path d="M290.127 139.813L284.745 139.756L279.427 135.382H283.29L286.35 136.561L290.127 139.813Z" fill="url(#paint65_linear)"/>
<path d="M828.816 62.1265L826.063 65.9523L824.814 67.9411L817.865 76.7745L823.416 73.4144L831.211 65.9207L836.43 59.0613L828.816 62.1265Z" fill="url(#paint66_linear)"/>
<path d="M767.027 61.3029L762.922 59.6337L758.829 57.4936L754.203 55.3695L751.101 50.4657L755.43 53.851L760.469 54.6433L758.762 53.6763L756.238 50.429L752.754 47.1464L760.02 48.7447L763.307 52.4534L765.649 54.4252L772.322 57.3098L777.996 56.6355L783.88 55.0611L788.964 53.2044L804.843 48.0186L813.552 44.1093L820.567 41.8473L825.494 39.0051L828.247 38.4113L833.624 37.762L838.817 37.0717L842.713 37.7875L850.208 36.7779L853.44 37.4365L850.163 39.4301L848.201 42.0122L846.746 46.7261L851.281 43.8999L854.339 43.308L856.637 43.9769L852.245 49.8903L848.25 54.9455L836.562 58.9699L828.967 62.0459L824.674 64.6578L818.915 68.1614L812.661 68.6627L807.765 69.0808L799.538 69.9196L794.64 69.3499L791.141 69.0089L787.711 68.7794L784.353 67.4279L780.444 65.948L767.027 61.3029Z" fill="url(#paint67_linear)"/>
<path d="M780.295 65.8876L778.044 67.2638L771.713 67.1186L767.661 63.4146L766.915 61.2453L780.295 65.8876Z" fill="url(#paint68_linear)"/>
<path d="M787.527 68.763L784.848 72.7001L788.303 69.9922L790.964 68.998L787.527 68.763Z" fill="url(#paint69_linear)"/>
<path d="M807.568 69.12L806.254 70.9994L806.518 75.6218L810.247 73.3541L812.465 68.7023L807.568 69.12Z" fill="url(#paint70_linear)"/>
<path d="M788.925 53.1735L790.936 51.6488L795.695 48.7691L799.955 47.5799L804.846 48.0129L788.925 53.1735Z" fill="url(#paint71_linear)"/>
<path d="M793.789 59.1013L791.081 59.7974L788.228 60.866L785.829 63.1146L783.846 65.1121L781.918 67.4995L784.592 66.4463L786.732 65.1523L789.909 63.232L792.802 61.0138L793.789 59.1013Z" fill="url(#paint72_linear)"/>
<path d="M810.726 54.5729L807.261 57.2378L803.263 59.6629L803.443 61.904L802.681 63.8693L801.309 66.6742L802.488 66.4278L805.727 64.4629L808.649 61.0933L810.592 57.2856L810.726 54.5729Z" fill="url(#paint73_linear)"/>
<path d="M833.217 45.3087L830.049 46.332L826.32 48.5871L823.072 50.9965L821.96 53.6198L819.184 57.8341L815.96 61.193L811.549 65.083L815.276 62.829L821.49 59.0712L826.805 55.8564L830.254 51.7982L833.41 47.7274L833.217 45.3087Z" fill="url(#paint74_linear)"/>
<path d="M844.017 39.7143L845.294 39.6983L846.658 40.0918L845.79 40.6194L845.293 41.7316L843.188 42.2021L844.017 39.7143Z" fill="url(#paint75_linear)"/>
<path d="M846.788 46.8278L851.331 44.0047L853.496 37.5429L850.214 39.5342L848.248 42.115L846.788 46.8278Z" fill="url(#paint76_linear)"/>
<path d="M464.281 564.352L460.985 565.728L459.387 566.514L451.398 569.463H456.292L464.281 567.694L470.373 565.336L464.281 564.352Z" fill="url(#paint77_linear)"/>
<path d="M425.037 539.875L423.091 537.221L421.342 534.271L419.247 531.125V526.799L420.643 530.634L423.54 533.091L422.841 531.814L422.541 528.767L421.642 525.326L425.636 529.16L426.236 532.796L426.935 534.959L430.03 539.383L433.925 541.152L438.318 542.43L442.313 543.217L454.546 546.067L461.685 546.952L467.077 548.229L471.371 548.328L473.367 549.017L477.063 550.687L480.657 552.26L482.855 554.226L488.048 556.487L489.845 558.159H486.948L484.653 559.043L481.82 561.482L485.857 561.439L488.048 562.247L489.245 563.564L484.052 565.629L479.46 567.301L470.373 565.335L464.282 564.351H460.486H455.394L451.199 562.247L447.905 560.616L442.313 557.962L439.416 555.701L437.32 554.128L435.223 552.653L433.625 550.49L431.727 548.033L425.037 539.875Z" fill="url(#paint78_linear)"/>
<path d="M431.728 548.033H429.731L425.737 545.478L424.639 541.545L425.038 539.875L431.728 548.033Z" fill="url(#paint79_linear)"/>
<path d="M435.223 552.653L431.928 554.129L435.223 553.736L437.32 554.129L435.223 552.653Z" fill="url(#paint80_linear)"/>
<path d="M447.904 560.616L446.306 561.304L444.608 564.351H447.904L451.199 562.247L447.904 560.616Z" fill="url(#paint81_linear)"/>
<path d="M442.313 543.218L444.209 543.021H448.404L451.6 543.906L454.546 546.068L442.313 543.218Z" fill="url(#paint82_linear)"/>
<path d="M443.072 548.892L441.065 548.293L438.814 547.875L436.38 548.383L434.312 548.892L432.123 549.671L434.252 550.03H436.137H438.936L441.673 549.731L443.072 548.892Z" fill="url(#paint83_linear)"/>
<path d="M455.726 552.545L452.44 552.904H448.911L448.122 554.402L446.843 555.36L444.836 556.617L445.688 556.916H448.547L451.77 555.898L454.546 554.222L455.726 552.545Z" fill="url(#paint84_linear)"/>
<path d="M473.791 555.3L471.359 554.732H468.073L465.032 555.015L463.267 556.258L459.801 557.874L456.394 558.772L452.015 559.551H455.299H460.774H465.458L469.291 558.294L472.941 556.916L473.791 555.3Z" fill="url(#paint85_linear)"/>
<path d="M482.906 555.877L483.728 556.362L484.439 557.141H483.673L482.906 557.657L481.372 557.141L482.906 555.877Z" fill="url(#paint86_linear)"/>
<path d="M481.82 561.483L485.857 561.44L489.845 558.159H486.948L484.653 559.044L481.82 561.483Z" fill="url(#paint87_linear)"/>
<path d="M1110.71 503.803L1114.34 508.258L1115.93 513.785L1116.33 518.97L1116.68 524.303L1117.09 529.292L1119.79 534.773L1123.41 539.434L1127.37 542.016L1133.08 546.148L1137.74 549.979L1139.9 553.815L1131.07 556.68L1123.99 555.943L1118.98 553.945L1114.41 548.047L1110.38 540.856L1108.13 533.048L1108.65 525.225L1110.79 521.654L1111.47 518.387L1111.76 515.088L1111.67 512.245L1110.95 509.502L1109.44 506.817L1107.24 502.884L1105.22 500.749L1105.6 498.513L1106.37 500.112L1108.42 501.859L1108.17 500.662L1107.12 499.588L1106.48 499.019L1108.13 499.493L1108.98 500.541L1109.83 502.519L1110.71 503.803Z" fill="url(#paint88_linear)"/>
<path d="M1116.55 520.497L1117.22 519.543L1117.62 517.309L1118.35 519.057L1118.25 520.946L1116.69 522.55L1116.55 520.497Z" fill="url(#paint89_linear)"/>
<path d="M1111.1 520.405L1110.55 519.428L1110.34 517.799L1109.7 518.898L1109.43 520.542L1110.18 522.738L1110.85 521.636L1111.1 520.405Z" fill="url(#paint90_linear)"/>
<path d="M1131.55 550.29L1127.09 546.789L1125.18 543.354L1122.67 538.525L1121.64 533.824L1123.47 537.1L1127.59 543.181L1129.32 547.233L1131.55 550.29Z" fill="url(#paint91_linear)"/>
<path d="M1123.8 555.925L1120.8 556.084L1118.27 555.27L1115.31 553.403L1112.75 548.85L1110.19 543.762L1114.21 548.036L1116.07 550.447L1118.78 553.93L1123.8 555.925Z" fill="url(#paint92_linear)"/>
<path d="M1136.42 550.582L1135.8 549.487L1134.46 549.369L1134.83 550.024L1136.42 550.582Z" fill="url(#paint93_linear)"/>
<path d="M1139.9 553.877L1136.06 553.034L1132.77 552.942L1130.69 554.326L1132.72 554.378L1134.3 554.775L1134.83 555.501L1137.42 554.67L1139.9 553.877Z" fill="url(#paint94_linear)"/>
<path d="M1112.53 509.978L1112.91 511.674L1113.19 514.194L1112.99 516.59L1111.51 513.973L1111.42 512.225L1111.64 510.753L1112.53 509.978Z" fill="url(#paint95_linear)"/>
<path d="M910.126 551.177L909.218 556.297L910.429 561.375L912.453 565.657L914.578 570.037L916.499 574.171L916.803 579.697L915.994 584.976L913.971 588.758L911.241 594.535L909.218 599.613V603.596L917.611 602.001L922.974 598.317L926.11 594.535L927.12 587.862V580.395L925.4 573.225L921.456 567.25L918.119 565.359L916.096 563.068L914.376 560.579L913.162 558.289L912.504 555.8V553.012V548.928L913.162 546.353L911.848 544.747L911.947 546.353L911.088 548.635L910.75 547.576L911.108 546.266L911.371 545.532L910.253 546.632L910.041 547.836L910.253 549.775L910.126 551.177Z" fill="url(#paint96_linear)"/>
<path d="M913.053 566.898L912.082 566.434L910.749 564.836L910.964 566.54L911.901 567.995L913.873 568.588L913.053 566.898Z" fill="url(#paint97_linear)"/>
<path d="M917.355 564.495V563.478L916.787 562.093L917.792 562.688L918.754 563.872L919.148 565.942L918.118 565.358L917.355 564.495Z" fill="url(#paint98_linear)"/>
<path d="M914.281 597.127L916.302 592.406V588.844L916.154 583.917L914.872 579.735V583.132L914.281 589.755L914.701 593.73L914.281 597.127Z" fill="url(#paint99_linear)"/>
<path d="M922.973 598.317L925.458 597.127L927.118 595.376L928.659 592.596V587.867L928.412 582.716L927.118 587.862L926.707 590.591L926.108 594.535L922.973 598.317Z" fill="url(#paint100_linear)"/>
<path d="M910.525 599.457V598.317L911.546 597.635V598.317L910.525 599.457Z" fill="url(#paint101_linear)"/>
<path d="M909.217 603.596L911.884 601.261L914.463 599.758L916.742 599.96L915.156 600.879L914.077 601.881L913.981 602.691L911.546 603.152L909.217 603.596Z" fill="url(#paint102_linear)"/>
<path d="M911.566 556.796L912.029 558.307L912.948 560.425L914.191 562.238V559.517L913.476 558.089L912.628 557.022L911.566 556.796Z" fill="url(#paint103_linear)"/>
<path d="M170.686 157.091L174.141 161.662L175.496 167.223L175.659 172.397L175.774 177.717L175.961 182.695L178.431 188.253L181.865 193.027L185.741 195.749L191.307 200.079L195.829 204.067L197.824 207.968L188.808 210.481L181.714 209.476L176.75 207.293L172.418 201.252L168.679 193.942L166.773 186.088L167.643 178.325L169.964 174.853L170.797 171.629L171.235 168.358L171.276 165.526L170.674 162.77L169.277 160.041L167.233 156.044L165.299 153.842L165.783 151.631L166.488 153.252L168.475 155.069L168.274 153.867L167.269 152.758L166.641 152.168L168.286 152.704L169.097 153.781L169.859 155.782L170.686 157.091Z" fill="url(#paint104_linear)"/>
<path d="M175.691 173.901L176.41 172.978L176.916 170.766L177.558 172.539L177.371 174.418L175.736 175.955L175.691 173.901Z" fill="url(#paint105_linear)"/>
<path d="M170.277 173.639L169.768 172.643L169.631 171.013L168.944 172.08L168.596 173.708L169.246 175.925L169.963 174.853L170.277 173.639Z" fill="url(#paint106_linear)"/>
<path d="M189.626 204.093L185.286 200.452L183.502 196.965L181.178 192.071L180.342 187.355L182.042 190.678L185.935 196.877L187.513 200.972L189.626 204.093Z" fill="url(#paint107_linear)"/>
<path d="M181.715 209.476L178.683 209.515L176.181 208.608L173.28 206.632L170.914 202.005L168.574 196.841L172.419 201.252L174.189 203.723L176.75 207.293L181.715 209.476Z" fill="url(#paint108_linear)"/>
<path d="M194.469 204.551L193.899 203.436L192.56 203.264L192.901 203.931L194.469 204.551Z" fill="url(#paint109_linear)"/>
<path d="M197.824 207.968L194.043 206.975L190.765 206.757L188.636 208.059L190.648 208.191L192.204 208.647L192.705 209.395L195.321 208.665L197.824 207.968Z" fill="url(#paint110_linear)"/>
<path d="M172.091 163.294L172.396 164.996L172.554 167.514L172.247 169.891L170.885 167.228L170.868 165.487L171.166 164.03L172.091 163.294Z" fill="url(#paint111_linear)"/>
<path d="M1124.5 183.373L1121.04 187.945L1119.69 193.506L1119.52 198.68L1119.41 203.999L1119.22 208.978L1116.75 214.535L1113.32 219.309L1109.44 222.031L1103.87 226.361L1099.35 230.35L1097.36 234.251L1106.37 236.763L1113.47 235.759L1118.43 233.575L1122.76 227.535L1126.5 220.224L1128.41 212.37L1127.54 204.607L1125.22 201.135L1124.38 197.911L1123.95 194.64L1123.91 191.808L1124.51 189.052L1125.9 186.324L1127.95 182.326L1129.88 180.124L1129.4 177.914L1128.69 179.535L1126.71 181.352L1126.91 180.15L1127.91 179.04L1128.54 178.451L1126.9 178.986L1126.08 180.064L1125.32 182.065L1124.5 183.373Z" fill="url(#paint112_linear)"/>
<path d="M1119.49 200.185L1118.77 199.262L1118.27 197.049L1117.62 198.823L1117.81 200.702L1119.45 202.239L1119.49 200.185Z" fill="url(#paint113_linear)"/>
<path d="M1124.9 199.922L1125.41 198.925L1125.55 197.296L1126.24 198.363L1126.59 199.991L1125.94 202.208L1125.22 201.136L1124.9 199.922Z" fill="url(#paint114_linear)"/>
<path d="M1105.56 230.376L1109.9 226.735L1111.68 223.248L1114 218.354L1114.84 213.637L1113.14 216.961L1109.25 223.16L1107.67 227.255L1105.56 230.376Z" fill="url(#paint115_linear)"/>
<path d="M1113.47 235.759L1116.5 235.798L1119 234.891L1121.9 232.915L1124.27 228.288L1126.61 223.124L1122.76 227.535L1120.99 230.005L1118.43 233.575L1113.47 235.759Z" fill="url(#paint116_linear)"/>
<path d="M1100.71 230.833L1101.28 229.719L1102.62 229.547L1102.28 230.214L1100.71 230.833Z" fill="url(#paint117_linear)"/>
<path d="M1097.36 234.251L1101.14 233.258L1104.42 233.04L1106.55 234.342L1104.53 234.473L1102.98 234.929L1102.48 235.678L1099.86 234.948L1097.36 234.251Z" fill="url(#paint118_linear)"/>
<path d="M1123.09 189.576L1122.79 191.278L1122.63 193.796L1122.94 196.174L1124.3 193.511L1124.31 191.77L1124.02 190.312L1123.09 189.576Z" fill="url(#paint119_linear)"/>
<path d="M190.318 963.747L186.765 963.904L185 964.089L176.524 964.103L181.079 965.773L189.138 966.86L195.642 966.746L190.318 963.747Z" fill="url(#paint120_linear)"/>
<path d="M162.424 927.549L161.548 924.412L160.962 921.068L160.12 917.425L161.646 913.397L161.596 917.443L163.422 920.723L163.223 919.295L164.019 916.353L164.395 912.846L166.761 917.778L166.038 921.367L165.926 923.621L167.246 928.795L170.245 931.776L173.884 934.468L177.324 936.566L187.706 943.399L194.04 946.665L198.609 949.699L202.57 951.255L204.187 952.58L207.037 955.4L209.826 958.092L211.179 960.674L215.216 964.552L216.298 966.724L213.603 965.73L211.154 965.77L207.656 967.073L211.429 968.412L213.183 969.915L213.834 971.549L208.271 971.695L203.405 971.681L195.643 966.745L190.318 963.747L186.787 962.451L182.045 960.709L178.883 957.316L176.391 954.673L172.122 950.29L170.227 947.195L168.827 945.012L167.398 942.926L166.671 940.365L165.774 937.431L162.424 927.549Z" fill="url(#paint121_linear)"/>
<path d="M165.773 937.431L163.914 936.747L161.096 933.001L161.462 928.966L162.424 927.549L165.773 937.431Z" fill="url(#paint122_linear)"/>
<path d="M167.398 942.925L163.81 943.171L167.015 943.93L168.827 945.012L167.398 942.925Z" fill="url(#paint123_linear)"/>
<path d="M176.391 954.673L174.662 954.766L172.006 957.023L175.074 958.149L178.883 957.315L176.391 954.673Z" fill="url(#paint124_linear)"/>
<path d="M177.324 936.566L179.162 937.029L183.065 938.464L185.727 940.38L187.706 943.4L177.324 936.566Z" fill="url(#paint125_linear)"/>
<path d="M176.028 942.106L174.372 940.863L172.426 939.703L169.98 939.346L167.875 939.111L165.563 939.087L167.419 940.151L169.174 940.796L171.778 941.75L174.43 942.409L176.028 942.106Z" fill="url(#paint126_linear)"/>
<path d="M186.519 949.833L183.336 949.043L180.051 947.836L178.785 948.961L177.259 949.417L174.947 949.901L175.635 950.471L178.293 951.447L181.654 951.603L184.83 950.991L186.519 949.833Z" fill="url(#paint127_linear)"/>
<path d="M202.364 958.573L200.298 957.213L197.241 956.087L194.311 955.315L192.231 955.867L188.433 956.187L184.946 955.86L180.594 955.087L183.651 956.209L188.748 958.082L193.107 959.681L197.118 959.823L201 959.787L202.364 958.573Z" fill="url(#paint128_linear)"/>
<path d="M210.643 962.226L211.237 962.96L211.627 963.928L210.911 963.665L210.018 963.882L208.77 962.878L210.643 962.226Z" fill="url(#paint129_linear)"/>
<path d="M207.656 967.073L211.429 968.412L216.298 966.724L213.603 965.73L211.154 965.769L207.656 967.073Z" fill="url(#paint130_linear)"/>
<path d="M78.1984 660.326L74.6461 660.482L72.8808 660.668L64.4053 660.682L68.9596 662.352L77.0192 663.438L83.5232 663.324L78.1984 660.326Z" fill="url(#paint131_linear)"/>
<path d="M50.3043 624.127L49.4289 620.99L48.8428 617.646L48 614.003L49.5265 609.976L49.4759 614.021L51.3027 617.301L51.1037 615.873L51.8995 612.931L52.2757 609.424L54.6415 614.356L53.9181 617.945L53.8059 620.199L55.1263 625.374L58.1251 628.354L61.7642 631.046L65.2044 633.144L75.5863 639.977L81.9204 643.243L86.4891 646.277L90.4502 647.833L92.0672 649.158L94.9177 651.978L97.7067 654.67L99.0596 657.252L103.097 661.13L104.178 663.302L101.483 662.309L99.0343 662.348L95.5363 663.651L99.3092 664.99L101.064 666.493L101.715 668.127L96.1512 668.273L91.2858 668.259L83.5229 663.324L78.1981 660.325L74.6675 659.029L69.9251 657.288L66.7635 653.894L64.2711 651.252L60.0025 646.868L58.107 643.773L56.7071 641.591L55.2782 639.504L54.5511 636.943L53.654 634.009L50.3043 624.127Z" fill="url(#paint132_linear)"/>
<path d="M53.6539 634.009L51.7946 633.326L48.9766 629.579L49.3419 625.545L50.3042 624.127L53.6539 634.009Z" fill="url(#paint133_linear)"/>
<path d="M55.2784 639.504L51.6899 639.75L54.895 640.508L56.7073 641.591L55.2784 639.504Z" fill="url(#paint134_linear)"/>
<path d="M64.2705 651.252L62.5414 651.344L59.8862 653.602L62.9538 654.727L66.7629 653.894L64.2705 651.252Z" fill="url(#paint135_linear)"/>
<path d="M65.2046 633.144L67.0422 633.607L70.9455 635.042L73.6079 636.957L75.5866 639.977L65.2046 633.144Z" fill="url(#paint136_linear)"/>
<path d="M63.909 638.685L62.2522 637.442L60.3061 636.281L57.8607 635.925L55.7554 635.69L53.4438 635.665L55.2996 636.73L57.054 637.374L59.6585 638.329L62.3101 638.987L63.909 638.685Z" fill="url(#paint137_linear)"/>
<path d="M74.3997 646.412L71.2164 645.621L67.9318 644.414L66.6657 645.539L65.1391 645.995L62.8276 646.48L63.5149 647.049L66.1737 648.025L69.5343 648.182L72.7104 647.569L74.3997 646.412Z" fill="url(#paint138_linear)"/>
<path d="M90.2442 655.151L88.1786 653.791L85.1219 652.666L82.1918 651.893L80.1118 652.445L76.3135 652.766L72.8263 652.438L68.4746 651.665L71.5313 652.787L76.6282 654.66L80.9872 656.259L84.9989 656.401L88.8804 656.366L90.2442 655.151Z" fill="url(#paint139_linear)"/>
<path d="M98.5243 658.805L99.1175 659.538L99.5082 660.507L98.7919 660.243L97.8984 660.46L96.6504 659.456L98.5243 658.805Z" fill="url(#paint140_linear)"/>
<path d="M95.5366 663.651L99.3096 664.99L104.179 663.302L101.484 662.309L99.0346 662.348L95.5366 663.651Z" fill="url(#paint141_linear)"/>
<path d="M972.478 693.039L968.925 693.196L967.16 693.381L958.685 693.395L963.239 695.065L971.298 696.151L977.803 696.038L972.478 693.039Z" fill="url(#paint142_linear)"/>
<path d="M944.584 656.841L943.708 653.704L943.122 650.36L942.28 646.717L943.806 642.69L943.755 646.735L945.582 650.015L945.383 648.587L946.179 645.645L946.555 642.138L948.921 647.07L948.198 650.659L948.085 652.913L949.406 658.088L952.405 661.068L956.044 663.76L959.484 665.858L969.866 672.691L976.2 675.957L980.769 678.991L984.73 680.547L986.347 681.872L989.197 684.692L991.986 687.384L993.339 689.966L997.376 693.844L998.458 696.016L995.763 695.023L993.314 695.062L989.816 696.365L993.589 697.704L995.343 699.207L995.994 700.841L990.431 700.987L985.565 700.973L977.802 696.037L972.477 693.039L968.947 691.743L964.205 690.002L961.043 686.608L958.551 683.966L954.282 679.582L952.387 676.487L950.987 674.304L949.558 672.218L948.831 669.657L947.933 666.723L944.584 656.841Z" fill="url(#paint143_linear)"/>
<path d="M947.933 666.723L946.074 666.039L943.256 662.293L943.621 658.258L944.583 656.841L947.933 666.723Z" fill="url(#paint144_linear)"/>
<path d="M949.558 672.217L945.969 672.463L949.174 673.222L950.987 674.304L949.558 672.217Z" fill="url(#paint145_linear)"/>
<path d="M958.55 683.965L956.821 684.058L954.166 686.315L957.233 687.44L961.043 686.607L958.55 683.965Z" fill="url(#paint146_linear)"/>
<path d="M959.483 665.857L961.321 666.32L965.224 667.755L967.887 669.671L969.865 672.691L959.483 665.857Z" fill="url(#paint147_linear)"/>
<path d="M958.189 671.398L956.532 670.155L954.586 668.994L952.14 668.638L950.035 668.403L947.724 668.378L949.579 669.443L951.334 670.088L953.938 671.042L956.59 671.701L958.189 671.398Z" fill="url(#paint148_linear)"/>
<path d="M968.679 679.125L965.495 678.335L962.211 677.128L960.945 678.253L959.418 678.709L957.107 679.193L957.794 679.763L960.453 680.738L963.813 680.895L966.989 680.283L968.679 679.125Z" fill="url(#paint149_linear)"/>
<path d="M984.523 687.865L982.457 686.505L979.401 685.379L976.47 684.606L974.39 685.158L970.592 685.479L967.105 685.151L962.753 684.379L965.81 685.5L970.907 687.373L975.266 688.972L979.278 689.115L983.159 689.079L984.523 687.865Z" fill="url(#paint150_linear)"/>
<path d="M992.804 691.518L993.397 692.252L993.788 693.22L993.071 692.957L992.178 693.174L990.93 692.17L992.804 691.518Z" fill="url(#paint151_linear)"/>
<path d="M989.816 696.365L993.589 697.704L998.458 696.016L995.763 695.022L993.314 695.061L989.816 696.365Z" fill="url(#paint152_linear)"/>
<path d="M1010.68 903.721L1014.24 903.877L1016 904.063L1024.48 904.077L1019.92 905.747L1011.86 906.833L1005.36 906.719L1010.68 903.721Z" fill="url(#paint153_linear)"/>
<path d="M1038.58 867.523L1039.45 864.386L1040.04 861.042L1040.88 857.399L1039.36 853.371L1039.41 857.417L1037.58 860.696L1037.78 859.268L1036.98 856.327L1036.61 852.819L1034.24 857.751L1034.96 861.341L1035.08 863.595L1033.76 868.769L1030.76 871.75L1027.12 874.442L1023.68 876.539L1013.3 883.373L1006.96 886.638L1002.39 889.672L998.432 891.229L996.815 892.553L993.964 895.374L991.175 898.066L989.822 900.648L985.785 904.526L984.704 906.698L987.399 905.704L989.848 905.743L993.346 907.047L989.573 908.386L987.818 909.888L987.167 911.523L992.731 911.669L997.596 911.655L1005.36 906.719L1010.68 903.721L1014.21 902.425L1018.96 900.683L1022.12 897.289L1024.61 894.647L1028.88 890.264L1030.78 887.169L1032.18 884.986L1033.6 882.899L1034.33 880.339L1035.23 877.405L1038.58 867.523Z" fill="url(#paint154_linear)"/>
<path d="M1035.23 877.404L1037.09 876.721L1039.91 872.975L1039.54 868.94L1038.58 867.523L1035.23 877.404Z" fill="url(#paint155_linear)"/>
<path d="M1033.6 882.899L1037.19 883.145L1033.99 883.903L1032.17 884.986L1033.6 882.899Z" fill="url(#paint156_linear)"/>
<path d="M1024.61 894.647L1026.34 894.739L1029 896.997L1025.93 898.122L1022.12 897.289L1024.61 894.647Z" fill="url(#paint157_linear)"/>
<path d="M1023.68 876.539L1021.84 877.002L1017.94 878.437L1015.27 880.353L1013.3 883.372L1023.68 876.539Z" fill="url(#paint158_linear)"/>
<path d="M1024.97 882.08L1026.63 880.837L1028.58 879.676L1031.02 879.32L1033.13 879.085L1035.44 879.06L1033.58 880.125L1031.83 880.769L1029.22 881.724L1026.57 882.382L1024.97 882.08Z" fill="url(#paint159_linear)"/>
<path d="M1014.48 889.807L1017.67 889.016L1020.95 887.809L1022.22 888.934L1023.74 889.39L1026.06 889.875L1025.37 890.444L1022.71 891.42L1019.35 891.577L1016.17 890.964L1014.48 889.807Z" fill="url(#paint160_linear)"/>
<path d="M998.638 898.547L1000.7 897.186L1003.76 896.061L1006.69 895.288L1008.77 895.84L1012.57 896.161L1016.06 895.833L1020.41 895.06L1017.35 896.182L1012.25 898.055L1007.89 899.654L1003.88 899.796L1000 899.761L998.638 898.547Z" fill="url(#paint161_linear)"/>
<path d="M990.358 902.2L989.765 902.933L989.374 903.902L990.09 903.638L990.984 903.855L992.231 902.851L990.358 902.2Z" fill="url(#paint162_linear)"/>
<path d="M993.346 907.046L989.573 908.385L984.704 906.697L987.399 905.704L989.848 905.743L993.346 907.046Z" fill="url(#paint163_linear)"/>
<path d="M1138.98 934.721L1136.05 936.695L1134.65 937.768L1127.46 942.173L1132.23 941.233L1139.66 937.98L1145.12 934.512L1138.98 934.721Z" fill="url(#paint164_linear)"/>
<path d="M1096.01 918.484L1093.57 916.278L1091.27 913.746L1088.59 911.094L1087.7 906.883L1089.85 910.341L1093.16 912.173L1092.22 911.065L1091.3 908.156L1089.72 904.984L1094.39 907.937L1095.72 911.359L1096.84 913.329L1100.75 917.032L1104.89 918L1109.42 918.39L1113.46 918.379L1125.91 918.773L1133.02 918.247L1138.52 918.444L1142.7 917.702L1144.78 917.985L1148.71 918.894L1152.52 919.726L1155.06 921.212L1160.56 922.401L1162.65 923.681L1159.83 924.241L1157.79 925.549L1155.54 928.475L1159.45 927.647L1161.74 928.009L1163.18 929.057L1158.56 932.076L1154.45 934.596L1145.23 934.449L1139.11 934.676L1135.43 935.414L1130.49 936.404L1125.99 935.171L1122.46 934.226L1116.49 932.729L1113.21 931.09L1110.85 929.967L1108.52 928.94L1106.52 927.146L1104.18 925.124L1096.01 918.484Z" fill="url(#paint165_linear)"/>
<path d="M1104.06 925.059L1102.13 925.446L1097.74 923.731L1095.87 920.114L1095.92 918.409L1104.06 925.059Z" fill="url(#paint166_linear)"/>
<path d="M1108.37 928.9L1105.46 930.971L1108.59 929.951L1110.71 929.928L1108.37 928.9Z" fill="url(#paint167_linear)"/>
<path d="M1122.29 934.228L1120.88 935.205L1119.85 938.499L1123.06 937.86L1125.83 935.175L1122.29 934.228Z" fill="url(#paint168_linear)"/>
<path d="M1113.42 918.361L1115.23 917.798L1119.3 916.986L1122.59 917.227L1125.9 918.759L1113.42 918.361Z" fill="url(#paint169_linear)"/>
<path d="M1115.28 923.724L1113.2 923.528L1110.92 923.553L1108.66 924.519L1106.74 925.412L1104.77 926.59L1106.92 926.531L1108.76 926.168L1111.48 925.627L1114.09 924.81L1115.28 923.724Z" fill="url(#paint170_linear)"/>
<path d="M1128.32 924.858L1125.19 925.838L1121.75 926.518L1121.29 928.13L1120.24 929.309L1118.54 930.919L1119.43 931.046L1122.22 930.495L1125.15 928.884L1127.51 926.716L1128.32 924.858Z" fill="url(#paint171_linear)"/>
<path d="M1146.46 924.077L1143.97 923.992L1140.77 924.62L1137.87 925.483L1136.4 927.03L1133.35 929.272L1130.21 930.801L1126.1 932.401L1129.3 931.769L1134.64 930.719L1139.2 929.818L1142.69 927.859L1145.96 925.816L1146.46 924.077Z" fill="url(#paint172_linear)"/>
<path d="M1155.46 922.893L1156.36 923.207L1157.21 923.826L1156.46 923.974L1155.83 924.623L1154.23 924.42L1155.46 922.893Z" fill="url(#paint173_linear)"/>
<path d="M1155.52 928.565L1159.45 927.744L1162.66 923.785L1159.84 924.34L1157.79 925.643L1155.52 928.565Z" fill="url(#paint174_linear)"/>
<path d="M361.511 650.034L365.906 651.87L368.037 652.917L378.689 656.85H372.163L361.511 654.491L353.39 651.346L361.511 650.034Z" fill="url(#paint175_linear)"/>
<path d="M413.837 617.399L416.432 613.86L418.764 609.927L421.558 605.733V599.965L419.696 605.077L415.833 608.354L416.765 606.651L417.166 602.588L418.364 598L413.039 603.112L412.239 607.96L411.306 610.845L407.18 616.743L401.987 619.102L396.13 620.805L390.803 621.855L374.492 625.655L364.974 626.835L357.785 628.538L352.06 628.67L349.397 629.588L344.47 631.815L339.677 633.912L336.746 636.533L329.823 639.548L327.427 641.777H331.29L334.35 642.957L338.127 646.209L332.745 646.152L329.823 647.229L328.227 648.984L335.15 651.737L341.273 653.967L353.39 651.346L361.511 650.034H366.572H373.361L378.955 647.229L383.347 645.054L390.803 641.516L394.665 638.501L397.46 636.403L400.256 634.436L402.387 631.553L404.917 628.276L413.837 617.399Z" fill="url(#paint176_linear)"/>
<path d="M404.917 628.277H407.58L412.905 624.87L414.369 619.626L413.837 617.399L404.917 628.277Z" fill="url(#paint177_linear)"/>
<path d="M400.256 634.436L404.649 636.403L400.256 635.879L397.459 636.403L400.256 634.436Z" fill="url(#paint178_linear)"/>
<path d="M383.347 645.054L385.477 645.972L387.742 650.034H383.347L378.954 647.229L383.347 645.054Z" fill="url(#paint179_linear)"/>
<path d="M390.802 621.856L388.274 621.594H382.681L378.42 622.773L374.492 625.656L390.802 621.856Z" fill="url(#paint180_linear)"/>
<path d="M389.792 629.422L392.468 628.622L395.468 628.065L398.713 628.743L401.471 629.422L404.39 630.46L401.552 630.938H399.037H395.306L391.656 630.54L389.792 629.422Z" fill="url(#paint181_linear)"/>
<path d="M372.919 634.292L377.301 634.771H382.005L383.058 636.768L384.763 638.045L387.439 639.721L386.303 640.119H382.491L378.193 638.762L374.492 636.528L372.919 634.292Z" fill="url(#paint182_linear)"/>
<path d="M348.833 637.966L352.076 637.208H356.457L360.512 637.586L362.865 639.243L367.486 641.398L372.029 642.595L377.868 643.634H373.489H366.189H359.943L354.833 641.958L349.966 640.12L348.833 637.966Z" fill="url(#paint183_linear)"/>
<path d="M336.68 638.735L335.583 639.382L334.635 640.42H335.657L336.68 641.108L338.724 640.42L336.68 638.735Z" fill="url(#paint184_linear)"/>
<path d="M338.127 646.209L332.745 646.152L327.427 641.778H331.29L334.35 642.957L338.127 646.209Z" fill="url(#paint185_linear)"/>
<path d="M512.281 1070.75L508.985 1072.12L507.387 1072.91L499.398 1075.86H504.292L512.281 1074.09L518.373 1071.73L512.281 1070.75Z" fill="url(#paint186_linear)"/>
<path d="M473.037 1046.27L471.091 1043.62L469.342 1040.67L467.247 1037.52V1033.2L468.643 1037.03L471.54 1039.49L470.841 1038.21L470.541 1035.16L469.642 1031.72L473.636 1035.56L474.236 1039.19L474.935 1041.36L478.03 1045.78L481.925 1047.55L486.318 1048.83L490.313 1049.61L502.546 1052.46L509.685 1053.35L515.077 1054.63L519.371 1054.72L521.367 1055.41L525.063 1057.08L528.657 1058.66L530.855 1060.62L536.048 1062.88L537.845 1064.55H534.948L532.653 1065.44L529.82 1067.88L533.857 1067.84L536.048 1068.64L537.245 1069.96L532.052 1072.02L527.46 1073.7L518.373 1071.73L512.282 1070.75H508.486H503.394L499.199 1068.64L495.905 1067.01L490.313 1064.36L487.416 1062.1L485.32 1060.52L483.223 1059.05L481.625 1056.89L479.727 1054.43L473.037 1046.27Z" fill="url(#paint187_linear)"/>
<path d="M479.728 1054.43H477.731L473.737 1051.87L472.639 1047.94L473.038 1046.27L479.728 1054.43Z" fill="url(#paint188_linear)"/>
<path d="M483.223 1059.05L479.928 1060.52L483.223 1060.13L485.32 1060.52L483.223 1059.05Z" fill="url(#paint189_linear)"/>
<path d="M495.904 1067.01L494.306 1067.7L492.608 1070.75H495.904L499.199 1068.64L495.904 1067.01Z" fill="url(#paint190_linear)"/>
<path d="M490.313 1049.61L492.209 1049.42H496.404L499.6 1050.3L502.546 1052.46L490.313 1049.61Z" fill="url(#paint191_linear)"/>
<path d="M491.072 1055.29L489.065 1054.69L486.814 1054.27L484.38 1054.78L482.312 1055.29L480.123 1056.07L482.252 1056.43H484.137H486.936L489.673 1056.13L491.072 1055.29Z" fill="url(#paint192_linear)"/>
<path d="M503.726 1058.94L500.44 1059.3H496.911L496.122 1060.8L494.843 1061.76L492.836 1063.01L493.688 1063.31H496.547L499.77 1062.29L502.546 1060.62L503.726 1058.94Z" fill="url(#paint193_linear)"/>
<path d="M521.791 1061.7L519.359 1061.13H516.073L513.032 1061.41L511.267 1062.65L507.801 1064.27L504.394 1065.17L500.015 1065.95H503.299H508.774H513.458L517.291 1064.69L520.941 1063.31L521.791 1061.7Z" fill="url(#paint194_linear)"/>
<path d="M530.906 1062.27L531.728 1062.76L532.439 1063.54H531.673L530.906 1064.05L529.372 1063.54L530.906 1062.27Z" fill="url(#paint195_linear)"/>
<path d="M529.82 1067.88L533.857 1067.84L537.845 1064.55H534.948L532.653 1065.44L529.82 1067.88Z" fill="url(#paint196_linear)"/>
<path d="M1158.71 1010.2L1162.34 1014.65L1163.93 1020.18L1164.33 1025.37L1164.68 1030.7L1165.09 1035.69L1167.79 1041.17L1171.41 1045.83L1175.37 1048.41L1181.08 1052.54L1185.74 1056.37L1187.9 1060.21L1179.07 1063.08L1171.99 1062.34L1166.98 1060.34L1162.41 1054.44L1158.38 1047.25L1156.13 1039.44L1156.65 1031.62L1158.79 1028.05L1159.47 1024.78L1159.76 1021.48L1159.67 1018.64L1158.95 1015.9L1157.44 1013.21L1155.24 1009.28L1153.22 1007.14L1153.6 1004.91L1154.37 1006.51L1156.42 1008.26L1156.17 1007.06L1155.12 1005.98L1154.48 1005.41L1156.13 1005.89L1156.98 1006.94L1157.83 1008.92L1158.71 1010.2Z" fill="url(#paint197_linear)"/>
<path d="M1164.55 1026.89L1165.22 1025.94L1165.62 1023.7L1166.35 1025.45L1166.25 1027.34L1164.69 1028.95L1164.55 1026.89Z" fill="url(#paint198_linear)"/>
<path d="M1159.1 1026.8L1158.55 1025.82L1158.34 1024.19L1157.7 1025.29L1157.43 1026.94L1158.18 1029.13L1158.85 1028.03L1159.1 1026.8Z" fill="url(#paint199_linear)"/>
<path d="M1179.55 1056.69L1175.09 1053.19L1173.18 1049.75L1170.67 1044.92L1169.64 1040.22L1171.47 1043.5L1175.59 1049.58L1177.32 1053.63L1179.55 1056.69Z" fill="url(#paint200_linear)"/>
<path d="M1171.8 1062.32L1168.8 1062.48L1166.27 1061.67L1163.31 1059.8L1160.75 1055.25L1158.19 1050.16L1162.21 1054.43L1164.07 1056.84L1166.78 1060.33L1171.8 1062.32Z" fill="url(#paint201_linear)"/>
<path d="M1184.42 1056.98L1183.8 1055.88L1182.46 1055.76L1182.83 1056.42L1184.42 1056.98Z" fill="url(#paint202_linear)"/>
<path d="M1187.9 1060.27L1184.06 1059.43L1180.77 1059.34L1178.69 1060.72L1180.72 1060.77L1182.3 1061.17L1182.83 1061.9L1185.42 1061.07L1187.9 1060.27Z" fill="url(#paint203_linear)"/>
<path d="M1160.53 1016.37L1160.91 1018.07L1161.19 1020.59L1160.99 1022.99L1159.51 1020.37L1159.42 1018.62L1159.64 1017.15L1160.53 1016.37Z" fill="url(#paint204_linear)"/>
<path d="M958.126 1057.57L957.218 1062.69L958.429 1067.77L960.453 1072.05L962.578 1076.43L964.499 1080.57L964.803 1086.09L963.994 1091.37L961.971 1095.15L959.241 1100.93L957.218 1106.01V1109.99L965.611 1108.4L970.974 1104.71L974.11 1100.93L975.12 1094.26V1086.79L973.4 1079.62L969.456 1073.65L966.119 1071.75L964.096 1069.46L962.376 1066.98L961.162 1064.68L960.504 1062.2V1059.41V1055.32L961.162 1052.75L959.848 1051.14L959.947 1052.75L959.088 1055.03L958.75 1053.97L959.108 1052.66L959.371 1051.93L958.253 1053.03L958.041 1054.23L958.253 1056.17L958.126 1057.57Z" fill="url(#paint205_linear)"/>
<path d="M961.053 1073.29L960.082 1072.83L958.749 1071.23L958.964 1072.94L959.901 1074.39L961.873 1074.98L961.053 1073.29Z" fill="url(#paint206_linear)"/>
<path d="M965.355 1070.89V1069.87L964.787 1068.49L965.792 1069.08L966.754 1070.27L967.148 1072.34L966.118 1071.75L965.355 1070.89Z" fill="url(#paint207_linear)"/>
<path d="M962.281 1103.52L964.302 1098.8V1095.24L964.154 1090.31L962.872 1086.13V1089.53L962.281 1096.15L962.701 1100.13L962.281 1103.52Z" fill="url(#paint208_linear)"/>
<path d="M970.973 1104.71L973.458 1103.52L975.118 1101.77L976.659 1098.99V1094.26L976.412 1089.11L975.118 1094.26L974.707 1096.99L974.108 1100.93L970.973 1104.71Z" fill="url(#paint209_linear)"/>
<path d="M958.525 1105.85V1104.71L959.546 1104.03V1104.71L958.525 1105.85Z" fill="url(#paint210_linear)"/>
<path d="M957.217 1109.99L959.884 1107.66L962.463 1106.15L964.742 1106.36L963.156 1107.27L962.077 1108.28L961.981 1109.09L959.546 1109.55L957.217 1109.99Z" fill="url(#paint211_linear)"/>
<path d="M959.566 1063.19L960.029 1064.7L960.948 1066.82L962.191 1068.63V1065.91L961.476 1064.49L960.628 1063.42L959.566 1063.19Z" fill="url(#paint212_linear)"/>
<path d="M218.686 663.487L222.141 668.058L223.496 673.619L223.659 678.793L223.774 684.113L223.961 689.091L226.431 694.649L229.865 699.423L233.741 702.145L239.307 706.475L243.829 710.463L245.824 714.364L236.808 716.877L229.714 715.872L224.75 713.689L220.418 707.648L216.679 700.338L214.773 692.484L215.643 684.721L217.964 681.249L218.797 678.025L219.235 674.754L219.276 671.922L218.674 669.166L217.277 666.437L215.233 662.44L213.299 660.238L213.783 658.027L214.488 659.648L216.475 661.466L216.274 660.263L215.269 659.154L214.641 658.564L216.286 659.1L217.097 660.177L217.859 662.178L218.686 663.487Z" fill="url(#paint213_linear)"/>
<path d="M223.691 680.298L224.41 679.374L224.916 677.162L225.558 678.935L225.371 680.814L223.736 682.351L223.691 680.298Z" fill="url(#paint214_linear)"/>
<path d="M218.277 680.035L217.768 679.039L217.631 677.409L216.944 678.476L216.596 680.104L217.246 682.321L217.963 681.249L218.277 680.035Z" fill="url(#paint215_linear)"/>
<path d="M237.626 710.489L233.286 706.848L231.502 703.361L229.178 698.467L228.342 693.751L230.042 697.074L233.935 703.273L235.513 707.368L237.626 710.489Z" fill="url(#paint216_linear)"/>
<path d="M229.715 715.872L226.683 715.911L224.181 715.004L221.28 713.028L218.914 708.401L216.574 703.237L220.419 707.648L222.189 710.119L224.75 713.689L229.715 715.872Z" fill="url(#paint217_linear)"/>
<path d="M242.469 710.947L241.899 709.832L240.56 709.66L240.901 710.327L242.469 710.947Z" fill="url(#paint218_linear)"/>
<path d="M245.824 714.364L242.043 713.371L238.765 713.153L236.636 714.455L238.648 714.587L240.204 715.043L240.705 715.791L243.321 715.061L245.824 714.364Z" fill="url(#paint219_linear)"/>
<path d="M220.091 669.69L220.396 671.392L220.554 673.91L220.247 676.287L218.885 673.624L218.868 671.883L219.166 670.426L220.091 669.69Z" fill="url(#paint220_linear)"/>
<path d="M1172.5 689.769L1169.04 694.341L1167.69 699.902L1167.52 705.076L1167.41 710.395L1167.22 715.374L1164.75 720.931L1161.32 725.705L1157.44 728.427L1151.87 732.757L1147.35 736.746L1145.36 740.647L1154.37 743.16L1161.47 742.155L1166.43 739.971L1170.76 733.931L1174.5 726.62L1176.41 718.766L1175.54 711.003L1173.22 707.531L1172.38 704.308L1171.95 701.036L1171.91 698.205L1172.51 695.449L1173.9 692.72L1175.95 688.722L1177.88 686.52L1177.4 684.31L1176.69 685.931L1174.71 687.748L1174.91 686.546L1175.91 685.436L1176.54 684.847L1174.9 685.382L1174.08 686.46L1173.32 688.461L1172.5 689.769Z" fill="url(#paint221_linear)"/>
<path d="M1167.49 706.581L1166.77 705.658L1166.27 703.445L1165.62 705.219L1165.81 707.098L1167.45 708.635L1167.49 706.581Z" fill="url(#paint222_linear)"/>
<path d="M1172.9 706.318L1173.41 705.321L1173.55 703.692L1174.24 704.759L1174.59 706.387L1173.94 708.604L1173.22 707.532L1172.9 706.318Z" fill="url(#paint223_linear)"/>
<path d="M1153.56 736.772L1157.9 733.131L1159.68 729.644L1162 724.75L1162.84 720.033L1161.14 723.357L1157.25 729.556L1155.67 733.651L1153.56 736.772Z" fill="url(#paint224_linear)"/>
<path d="M1161.47 742.155L1164.5 742.194L1167 741.287L1169.9 739.311L1172.27 734.684L1174.61 729.52L1170.76 733.931L1168.99 736.402L1166.43 739.971L1161.47 742.155Z" fill="url(#paint225_linear)"/>
<path d="M1148.71 737.229L1149.28 736.115L1150.62 735.943L1150.28 736.61L1148.71 737.229Z" fill="url(#paint226_linear)"/>
<path d="M1145.36 740.647L1149.14 739.654L1152.42 739.436L1154.55 740.738L1152.53 740.87L1150.98 741.325L1150.48 742.074L1147.86 741.344L1145.36 740.647Z" fill="url(#paint227_linear)"/>
<path d="M1171.09 695.972L1170.79 697.674L1170.63 700.192L1170.94 702.57L1172.3 699.907L1172.31 698.166L1172.02 696.709L1171.09 695.972Z" fill="url(#paint228_linear)"/>
<defs>
<linearGradient id="paint0_linear" x1="128.301" y1="458.89" x2="147.151" y2="458.881" gradientUnits="userSpaceOnUse">
<stop stop-color="#AEDFE6"/>
<stop offset="1" stop-color="#3E6972"/>
</linearGradient>
<linearGradient id="paint1_linear" x1="111.895" y1="416.886" x2="163.031" y2="469.742" gradientUnits="userSpaceOnUse">
<stop stop-color="#AEDFE6"/>
<stop offset="1" stop-color="#4A737D"/>
</linearGradient>
<linearGradient id="paint2_linear" x1="111.98" y1="426.752" x2="118.919" y2="425.56" gradientUnits="userSpaceOnUse">
<stop stop-color="#AEDFE6"/>
<stop offset="1" stop-color="#3E6972"/>
</linearGradient>
<linearGradient id="paint3_linear" x1="116.424" y1="436.738" x2="121.644" y2="437.923" gradientUnits="userSpaceOnUse">
<stop stop-color="#AEDFE6"/>
<stop offset="1" stop-color="#3E6972"/>
</linearGradient>
<linearGradient id="paint4_linear" x1="124.236" y1="450.774" x2="130.562" y2="449.112" gradientUnits="userSpaceOnUse">
<stop stop-color="#AEDFE6"/>
<stop offset="1" stop-color="#3E6972"/>
</linearGradient>
<linearGradient id="paint5_linear" x1="135.559" y1="431.959" x2="133.931" y2="434.527" gradientUnits="userSpaceOnUse">
<stop stop-color="#AEDFE6"/>
<stop offset="1" stop-color="#3E6972"/>
</linearGradient>
<linearGradient id="paint6_linear" x1="118.396" y1="432.708" x2="128.832" y2="435.729" gradientUnits="userSpaceOnUse">
<stop stop-color="#AEDFE6"/>
<stop offset="1" stop-color="#3E6972"/>
</linearGradient>
<linearGradient id="paint7_linear" x1="127.31" y1="443.545" x2="138.116" y2="443.05" gradientUnits="userSpaceOnUse">
<stop stop-color="#AEDFE6"/>
<stop offset="1" stop-color="#3E6972"/>
</linearGradient>
<linearGradient id="paint8_linear" x1="133.872" y1="449.358" x2="157.399" y2="452.889" gradientUnits="userSpaceOnUse">
<stop stop-color="#AEDFE6"/>
<stop offset="1" stop-color="#3E6972"/>
</linearGradient>
<linearGradient id="paint9_linear" x1="163.038" y1="458.765" x2="161.821" y2="456.033" gradientUnits="userSpaceOnUse">
<stop stop-color="#AEDFE6"/>
<stop offset="1" stop-color="#3E6972"/>
</linearGradient>
<linearGradient id="paint10_linear" x1="164.575" y1="462.344" x2="163.929" y2="460.29" gradientUnits="userSpaceOnUse">
<stop stop-color="#AEDFE6"/>
<stop offset="1" stop-color="#3E6972"/>
</linearGradient>
<linearGradient id="paint11_linear" x1="16.1821" y1="155.468" x2="35.0317" y2="155.459" gradientUnits="userSpaceOnUse">
<stop stop-color="#AEDFE6"/>
<stop offset="1" stop-color="#3E6972"/>
</linearGradient>
<linearGradient id="paint12_linear" x1="-0.22435" y1="113.465" x2="50.9117" y2="166.32" gradientUnits="userSpaceOnUse">
<stop stop-color="#AEDFE6"/>
<stop offset="1" stop-color="#4A737D"/>
</linearGradient>
<linearGradient id="paint13_linear" x1="-0.139704" y1="123.33" x2="6.79938" y2="122.138" gradientUnits="userSpaceOnUse">
<stop stop-color="#AEDFE6"/>
<stop offset="1" stop-color="#3E6972"/>
</linearGradient>
<linearGradient id="paint14_linear" x1="4.30422" y1="133.317" x2="9.52462" y2="134.502" gradientUnits="userSpaceOnUse">
<stop stop-color="#AEDFE6"/>
<stop offset="1" stop-color="#3E6972"/>
</linearGradient>
<linearGradient id="paint15_linear" x1="12.1155" y1="147.353" x2="18.4421" y2="145.691" gradientUnits="userSpaceOnUse">
<stop stop-color="#AEDFE6"/>
<stop offset="1" stop-color="#3E6972"/>
</linearGradient>
<linearGradient id="paint16_linear" x1="23.4394" y1="128.536" x2="21.8112" y2="131.104" gradientUnits="userSpaceOnUse">
<stop stop-color="#AEDFE6"/>
<stop offset="1" stop-color="#3E6972"/>
</linearGradient>
<linearGradient id="paint17_linear" x1="6.27591" y1="129.287" x2="16.7129" y2="132.307" gradientUnits="userSpaceOnUse">
<stop stop-color="#AEDFE6"/>
<stop offset="1" stop-color="#3E6972"/>
</linearGradient>
<linearGradient id="paint18_linear" x1="15.19" y1="140.124" x2="25.9962" y2="139.628" gradientUnits="userSpaceOnUse">
<stop stop-color="#AEDFE6"/>
<stop offset="1" stop-color="#3E6972"/>
</linearGradient>
<linearGradient id="paint19_linear" x1="21.7526" y1="145.936" x2="45.2792" y2="149.467" gradientUnits="userSpaceOnUse">
<stop stop-color="#AEDFE6"/>
<stop offset="1" stop-color="#3E6972"/>
</linearGradient>
<linearGradient id="paint20_linear" x1="50.9185" y1="155.343" x2="49.702" y2="152.612" gradientUnits="userSpaceOnUse">
<stop stop-color="#AEDFE6"/>
<stop offset="1" stop-color="#3E6972"/>
</linearGradient>
<linearGradient id="paint21_linear" x1="52.4559" y1="158.922" x2="51.8097" y2="156.869" gradientUnits="userSpaceOnUse">
<stop stop-color="#AEDFE6"/>
<stop offset="1" stop-color="#3E6972"/>
</linearGradient>
<linearGradient id="paint22_linear" x1="910.461" y1="188.181" x2="929.311" y2="188.172" gradientUnits="userSpaceOnUse">
<stop stop-color="#AEDFE6"/>
<stop offset="1" stop-color="#3E6972"/>
</linearGradient>
<linearGradient id="paint23_linear" x1="894.055" y1="146.179" x2="945.191" y2="199.034" gradientUnits="userSpaceOnUse">
<stop stop-color="#AEDFE6"/>
<stop offset="1" stop-color="#4A737D"/>
</linearGradient>
<linearGradient id="paint24_linear" x1="894.139" y1="156.044" x2="901.078" y2="154.852" gradientUnits="userSpaceOnUse">
<stop stop-color="#AEDFE6"/>
<stop offset="1" stop-color="#3E6972"/>
</linearGradient>
<linearGradient id="paint25_linear" x1="898.584" y1="166.03" x2="903.804" y2="167.215" gradientUnits="userSpaceOnUse">
<stop stop-color="#AEDFE6"/>
<stop offset="1" stop-color="#3E6972"/>
</linearGradient>
<linearGradient id="paint26_linear" x1="906.395" y1="180.066" x2="912.722" y2="178.404" gradientUnits="userSpaceOnUse">
<stop stop-color="#AEDFE6"/>
<stop offset="1" stop-color="#3E6972"/>
</linearGradient>
<linearGradient id="paint27_linear" x1="917.718" y1="161.249" x2="916.09" y2="163.818" gradientUnits="userSpaceOnUse">
<stop stop-color="#AEDFE6"/>
<stop offset="1" stop-color="#3E6972"/>
</linearGradient>
<linearGradient id="paint28_linear" x1="900.556" y1="162" x2="910.993" y2="165.02" gradientUnits="userSpaceOnUse">
<stop stop-color="#AEDFE6"/>
<stop offset="1" stop-color="#3E6972"/>
</linearGradient>
<linearGradient id="paint29_linear" x1="909.469" y1="172.837" x2="920.275" y2="172.342" gradientUnits="userSpaceOnUse">
<stop stop-color="#AEDFE6"/>
<stop offset="1" stop-color="#3E6972"/>
</linearGradient>
<linearGradient id="paint30_linear" x1="916.031" y1="178.649" x2="939.558" y2="182.181" gradientUnits="userSpaceOnUse">
<stop stop-color="#AEDFE6"/>
<stop offset="1" stop-color="#3E6972"/>
</linearGradient>
<linearGradient id="paint31_linear" x1="945.198" y1="188.056" x2="943.981" y2="185.325" gradientUnits="userSpaceOnUse">
<stop stop-color="#AEDFE6"/>
<stop offset="1" stop-color="#3E6972"/>
</linearGradient>
<linearGradient id="paint32_linear" x1="946.735" y1="191.636" x2="946.089" y2="189.582" gradientUnits="userSpaceOnUse">
<stop stop-color="#AEDFE6"/>
<stop offset="1" stop-color="#3E6972"/>
</linearGradient>
<linearGradient id="paint33_linear" x1="976.7" y1="398.863" x2="957.85" y2="398.854" gradientUnits="userSpaceOnUse">
<stop stop-color="#AEDFE6"/>
<stop offset="1" stop-color="#3E6972"/>
</linearGradient>
<linearGradient id="paint34_linear" x1="993.106" y1="356.86" x2="941.97" y2="409.716" gradientUnits="userSpaceOnUse">
<stop stop-color="#AEDFE6"/>
<stop offset="1" stop-color="#4A737D"/>
</linearGradient>
<linearGradient id="paint35_linear" x1="993.021" y1="366.725" x2="986.082" y2="365.533" gradientUnits="userSpaceOnUse">
<stop stop-color="#AEDFE6"/>
<stop offset="1" stop-color="#3E6972"/>
</linearGradient>
<linearGradient id="paint36_linear" x1="988.578" y1="376.712" x2="983.357" y2="377.897" gradientUnits="userSpaceOnUse">
<stop stop-color="#AEDFE6"/>
<stop offset="1" stop-color="#3E6972"/>
</linearGradient>
<linearGradient id="paint37_linear" x1="980.766" y1="390.748" x2="974.44" y2="389.086" gradientUnits="userSpaceOnUse">
<stop stop-color="#AEDFE6"/>
<stop offset="1" stop-color="#3E6972"/>
</linearGradient>
<linearGradient id="paint38_linear" x1="969.443" y1="371.931" x2="971.071" y2="374.5" gradientUnits="userSpaceOnUse">
<stop stop-color="#AEDFE6"/>
<stop offset="1" stop-color="#3E6972"/>
</linearGradient>
<linearGradient id="paint39_linear" x1="986.606" y1="372.682" x2="976.169" y2="375.702" gradientUnits="userSpaceOnUse">
<stop stop-color="#AEDFE6"/>
<stop offset="1" stop-color="#3E6972"/>
</linearGradient>
<linearGradient id="paint40_linear" x1="977.693" y1="383.519" x2="966.887" y2="383.023" gradientUnits="userSpaceOnUse">
<stop stop-color="#AEDFE6"/>
<stop offset="1" stop-color="#3E6972"/>
</linearGradient>
<linearGradient id="paint41_linear" x1="971.129" y1="389.331" x2="947.603" y2="392.862" gradientUnits="userSpaceOnUse">
<stop stop-color="#AEDFE6"/>
<stop offset="1" stop-color="#3E6972"/>
</linearGradient>
<linearGradient id="paint42_linear" x1="941.964" y1="398.738" x2="943.18" y2="396.007" gradientUnits="userSpaceOnUse">
<stop stop-color="#AEDFE6"/>
<stop offset="1" stop-color="#3E6972"/>
</linearGradient>
<linearGradient id="paint43_linear" x1="940.426" y1="402.317" x2="941.073" y2="400.264" gradientUnits="userSpaceOnUse">
<stop stop-color="#AEDFE6"/>
<stop offset="1" stop-color="#3E6972"/>
</linearGradient>
<linearGradient id="paint44_linear" x1="1079.91" y1="436.898" x2="1095.73" y2="426.836" gradientUnits="userSpaceOnUse">
<stop stop-color="#AEDFE6"/>
<stop offset="1" stop-color="#3E6972"/>
</linearGradient>
<linearGradient id="paint45_linear" x1="1043.57" y1="409.784" x2="1115.53" y2="426.999" gradientUnits="userSpaceOnUse">
<stop stop-color="#AEDFE6"/>
<stop offset="1" stop-color="#4A737D"/>
</linearGradient>
<linearGradient id="paint46_linear" x1="1048.88" y1="418.04" x2="1054.05" y2="413.39" gradientUnits="userSpaceOnUse">
<stop stop-color="#AEDFE6"/>
<stop offset="1" stop-color="#3E6972"/>
</linearGradient>
<linearGradient id="paint47_linear" x1="1057.96" y1="424.225" x2="1062.99" y2="422.409" gradientUnits="userSpaceOnUse">
<stop stop-color="#AEDFE6"/>
<stop offset="1" stop-color="#3E6972"/>
</linearGradient>
<linearGradient id="paint48_linear" x1="1072.12" y1="432.108" x2="1076.54" y2="427.372" gradientUnits="userSpaceOnUse">
<stop stop-color="#AEDFE6"/>
<stop offset="1" stop-color="#3E6972"/>
</linearGradient>
<linearGradient id="paint49_linear" x1="1071.66" y1="410.24" x2="1071.62" y2="413.264" gradientUnits="userSpaceOnUse">
<stop stop-color="#AEDFE6"/>
<stop offset="1" stop-color="#3E6972"/>
</linearGradient>
<linearGradient id="paint50_linear" x1="1057.48" y1="419.777" x2="1067.9" y2="416.692" gradientUnits="userSpaceOnUse">
<stop stop-color="#AEDFE6"/>
<stop offset="1" stop-color="#3E6972"/>
</linearGradient>
<linearGradient id="paint51_linear" x1="1070.87" y1="424.369" x2="1079.66" y2="418.189" gradientUnits="userSpaceOnUse">
<stop stop-color="#AEDFE6"/>
<stop offset="1" stop-color="#3E6972"/>
</linearGradient>
<linearGradient id="paint52_linear" x1="1079.54" y1="425.909" x2="1101.22" y2="416.249" gradientUnits="userSpaceOnUse">
<stop stop-color="#AEDFE6"/>
<stop offset="1" stop-color="#3E6972"/>
</linearGradient>
<linearGradient id="paint53_linear" x1="1109.38" y1="418.781" x2="1106.88" y2="417.092" gradientUnits="userSpaceOnUse">
<stop stop-color="#AEDFE6"/>
<stop offset="1" stop-color="#3E6972"/>
</linearGradient>
<linearGradient id="paint54_linear" x1="1112.6" y1="421.032" x2="1110.95" y2="419.61" gradientUnits="userSpaceOnUse">
<stop stop-color="#AEDFE6"/>
<stop offset="1" stop-color="#3E6972"/>
</linearGradient>
<linearGradient id="paint55_linear" x1="330.384" y1="152.073" x2="306.779" y2="143.112" gradientUnits="userSpaceOnUse">
<stop stop-color="#AEDFE6"/>
<stop offset="1" stop-color="#3E6972"/>
</linearGradient>
<linearGradient id="paint56_linear" x1="371.03" y1="106.837" x2="281.393" y2="149.364" gradientUnits="userSpaceOnUse">
<stop stop-color="#AEDFE6"/>
<stop offset="1" stop-color="#4A737D"/>
</linearGradient>
<linearGradient id="paint57_linear" x1="366.222" y1="119.202" x2="358.105" y2="114.43" gradientUnits="userSpaceOnUse">
<stop stop-color="#AEDFE6"/>
<stop offset="1" stop-color="#3E6972"/>
</linearGradient>
<linearGradient id="paint58_linear" x1="355.875" y1="129.706" x2="348.757" y2="128.707" gradientUnits="userSpaceOnUse">
<stop stop-color="#AEDFE6"/>
<stop offset="1" stop-color="#3E6972"/>
</linearGradient>
<linearGradient id="paint59_linear" x1="339.362" y1="143.746" x2="332.235" y2="138.684" gradientUnits="userSpaceOnUse">
<stop stop-color="#AEDFE6"/>
<stop offset="1" stop-color="#3E6972"/>
</linearGradient>
<linearGradient id="paint60_linear" x1="334.093" y1="114.858" x2="334.948" y2="118.833" gradientUnits="userSpaceOnUse">
<stop stop-color="#AEDFE6"/>
<stop offset="1" stop-color="#3E6972"/>
</linearGradient>
<linearGradient id="paint61_linear" x1="355.316" y1="123.728" x2="340.766" y2="122.549" gradientUnits="userSpaceOnUse">
<stop stop-color="#AEDFE6"/>
<stop offset="1" stop-color="#3E6972"/>
</linearGradient>
<linearGradient id="paint62_linear" x1="338.943" y1="133.237" x2="325.648" y2="127.492" gradientUnits="userSpaceOnUse">
<stop stop-color="#AEDFE6"/>
<stop offset="1" stop-color="#3E6972"/>
</linearGradient>
<linearGradient id="paint63_linear" x1="327.922" y1="137.514" x2="296.732" y2="130.746" gradientUnits="userSpaceOnUse">
<stop stop-color="#AEDFE6"/>
<stop offset="1" stop-color="#3E6972"/>
</linearGradient>
<linearGradient id="paint64_linear" x1="286.766" y1="135.872" x2="289.586" y2="132.988" gradientUnits="userSpaceOnUse">
<stop stop-color="#AEDFE6"/>
<stop offset="1" stop-color="#3E6972"/>
</linearGradient>
<linearGradient id="paint65_linear" x1="283.127" y1="139.662" x2="284.904" y2="137.367" gradientUnits="userSpaceOnUse">
<stop stop-color="#AEDFE6"/>
<stop offset="1" stop-color="#3E6972"/>
</linearGradient>
<linearGradient id="paint66_linear" x1="818.994" y1="77.996" x2="834.144" y2="58.1241" gradientUnits="userSpaceOnUse">
<stop stop-color="#AEDFE6"/>
<stop offset="1" stop-color="#3E6972"/>
</linearGradient>
<linearGradient id="paint67_linear" x1="760.381" y1="60.441" x2="859.033" y2="48.2445" gradientUnits="userSpaceOnUse">
<stop stop-color="#AEDFE6"/>
<stop offset="1" stop-color="#4A737D"/>
</linearGradient>
<linearGradient id="paint68_linear" x1="770.99" y1="68.4187" x2="775.342" y2="60.1902" gradientUnits="userSpaceOnUse">
<stop stop-color="#AEDFE6"/>
<stop offset="1" stop-color="#3E6972"/>
</linearGradient>
<linearGradient id="paint69_linear" x1="785.345" y1="72.0451" x2="790.795" y2="67.449" gradientUnits="userSpaceOnUse">
<stop stop-color="#AEDFE6"/>
<stop offset="1" stop-color="#3E6972"/>
</linearGradient>
<linearGradient id="paint70_linear" x1="806.898" y1="75.5181" x2="810.274" y2="67.5587" gradientUnits="userSpaceOnUse">
<stop stop-color="#AEDFE6"/>
<stop offset="1" stop-color="#3E6972"/>
</linearGradient>
<linearGradient id="paint71_linear" x1="796.013" y1="48.1773" x2="797.336" y2="52.0318" gradientUnits="userSpaceOnUse">
<stop stop-color="#AEDFE6"/>
<stop offset="1" stop-color="#3E6972"/>
</linearGradient>
<linearGradient id="paint72_linear" x1="782.652" y1="66.6603" x2="794.265" y2="57.9782" gradientUnits="userSpaceOnUse">
<stop stop-color="#AEDFE6"/>
<stop offset="1" stop-color="#3E6972"/>
</linearGradient>
<linearGradient id="paint73_linear" x1="801.683" y1="66.3439" x2="809.847" y2="54.5752" gradientUnits="userSpaceOnUse">
<stop stop-color="#AEDFE6"/>
<stop offset="1" stop-color="#3E6972"/>
</linearGradient>
<linearGradient id="paint74_linear" x1="813.354" y1="64.3172" x2="836.005" y2="42.2282" gradientUnits="userSpaceOnUse">
<stop stop-color="#AEDFE6"/>
<stop offset="1" stop-color="#3E6972"/>
</linearGradient>
<linearGradient id="paint75_linear" x1="847.54" y1="41.7301" x2="843.585" y2="40.7835" gradientUnits="userSpaceOnUse">
<stop stop-color="#AEDFE6"/>
<stop offset="1" stop-color="#3E6972"/>
</linearGradient>
<linearGradient id="paint76_linear" x1="852.655" y1="43.0911" x2="849.903" y2="42.0762" gradientUnits="userSpaceOnUse">
<stop stop-color="#AEDFE6"/>
<stop offset="1" stop-color="#3E6972"/>
</linearGradient>
<linearGradient id="paint77_linear" x1="451.627" y1="570.678" x2="469.33" y2="563.957" gradientUnits="userSpaceOnUse">
<stop stop-color="#AEDFE6"/>
<stop offset="1" stop-color="#3E6972"/>
</linearGradient>
<linearGradient id="paint78_linear" x1="421.142" y1="536.75" x2="488.37" y2="568.646" gradientUnits="userSpaceOnUse">
<stop stop-color="#AEDFE6"/>
<stop offset="1" stop-color="#4A737D"/>
</linearGradient>
<linearGradient id="paint79_linear" x1="424.749" y1="546.024" x2="430.837" y2="542.445" gradientUnits="userSpaceOnUse">
<stop stop-color="#AEDFE6"/>
<stop offset="1" stop-color="#3E6972"/>
</linearGradient>
<linearGradient id="paint80_linear" x1="432.509" y1="553.903" x2="437.847" y2="553.154" gradientUnits="userSpaceOnUse">
<stop stop-color="#AEDFE6"/>
<stop offset="1" stop-color="#3E6972"/>
</linearGradient>
<linearGradient id="paint81_linear" x1="444.893" y1="564.432" x2="450.238" y2="560.636" gradientUnits="userSpaceOnUse">
<stop stop-color="#AEDFE6"/>
<stop offset="1" stop-color="#3E6972"/>
</linearGradient>
<linearGradient id="paint82_linear" x1="448.845" y1="542.766" x2="448.204" y2="545.748" gradientUnits="userSpaceOnUse">
<stop stop-color="#AEDFE6"/>
<stop offset="1" stop-color="#3E6972"/>
</linearGradient>
<linearGradient id="paint83_linear" x1="432.929" y1="549.419" x2="443.841" y2="548.535" gradientUnits="userSpaceOnUse">
<stop stop-color="#AEDFE6"/>
<stop offset="1" stop-color="#3E6972"/>
</linearGradient>
<linearGradient id="paint84_linear" x1="445.208" y1="556.551" x2="455.179" y2="552.242" gradientUnits="userSpaceOnUse">
<stop stop-color="#AEDFE6"/>
<stop offset="1" stop-color="#3E6972"/>
</linearGradient>
<linearGradient id="paint85_linear" x1="453.474" y1="559.759" x2="476.867" y2="554.682" gradientUnits="userSpaceOnUse">
<stop stop-color="#AEDFE6"/>
<stop offset="1" stop-color="#3E6972"/>
</linearGradient>
<linearGradient id="paint86_linear" x1="484.341" y1="558.527" x2="482.226" y2="556.364" gradientUnits="userSpaceOnUse">
<stop stop-color="#AEDFE6"/>
<stop offset="1" stop-color="#3E6972"/>
</linearGradient>
<linearGradient id="paint87_linear" x1="487.07" y1="561.37" x2="485.737" y2="559.648" gradientUnits="userSpaceOnUse">
<stop stop-color="#AEDFE6"/>
<stop offset="1" stop-color="#3E6972"/>
</linearGradient>
<linearGradient id="paint88_linear" x1="1099.6" y1="501.827" x2="1131.04" y2="558.708" gradientUnits="userSpaceOnUse">
<stop stop-color="#AEDFE6"/>
<stop offset="1" stop-color="#4A737D"/>
</linearGradient>
<linearGradient id="paint89_linear" x1="1118.05" y1="518.757" x2="1116.77" y2="522.67" gradientUnits="userSpaceOnUse">
<stop stop-color="#AEDFE6"/>
<stop offset="1" stop-color="#4A737D"/>
</linearGradient>
<linearGradient id="paint90_linear" x1="1109.56" y1="518.301" x2="1110.94" y2="522.312" gradientUnits="userSpaceOnUse">
<stop stop-color="#AEDFE6"/>
<stop offset="1" stop-color="#4A737D"/>
</linearGradient>
<linearGradient id="paint91_linear" x1="1120.65" y1="534.412" x2="1130.81" y2="550.716" gradientUnits="userSpaceOnUse">
<stop stop-color="#AEDFE6"/>
<stop offset="1" stop-color="#4A737D"/>
</linearGradient>
<linearGradient id="paint92_linear" x1="1109.57" y1="545.631" x2="1122.57" y2="557.485" gradientUnits="userSpaceOnUse">
<stop stop-color="#AEDFE6"/>
<stop offset="1" stop-color="#4A737D"/>
</linearGradient>
<linearGradient id="paint93_linear" x1="1136.38" y1="550.718" x2="1134.89" y2="549.361" gradientUnits="userSpaceOnUse">
<stop stop-color="#AEDFE6"/>
<stop offset="1" stop-color="#3E6972"/>
</linearGradient>
<linearGradient id="paint94_linear" x1="1135.42" y1="557.627" x2="1135.3" y2="553.425" gradientUnits="userSpaceOnUse">
<stop stop-color="#AEDFE6"/>
<stop offset="1" stop-color="#4A737D"/>
</linearGradient>
<linearGradient id="paint95_linear" x1="1112.26" y1="510.57" x2="1112.32" y2="516.554" gradientUnits="userSpaceOnUse">
<stop stop-color="#AEDFE6"/>
<stop offset="1" stop-color="#4A737D"/>
</linearGradient>
<linearGradient id="paint96_linear" x1="918.169" y1="544.746" x2="918.169" y2="603.595" gradientUnits="userSpaceOnUse">
<stop stop-color="#AEDFE6"/>
<stop offset="1" stop-color="#4A737D"/>
</linearGradient>
<linearGradient id="paint97_linear" x1="911.066" y1="566.172" x2="913.834" y2="568.752" gradientUnits="userSpaceOnUse">
<stop stop-color="#AEDFE6"/>
<stop offset="1" stop-color="#4A737D"/>
</linearGradient>
<linearGradient id="paint98_linear" x1="917.635" y1="562.151" x2="918.29" y2="565.946" gradientUnits="userSpaceOnUse">
<stop stop-color="#AEDFE6"/>
<stop offset="1" stop-color="#4A737D"/>
</linearGradient>
<linearGradient id="paint99_linear" x1="915.934" y1="579.772" x2="914.977" y2="597.141" gradientUnits="userSpaceOnUse">
<stop stop-color="#AEDFE6"/>
<stop offset="1" stop-color="#4A737D"/>
</linearGradient>
<linearGradient id="paint100_linear" x1="929.76" y1="583.923" x2="924.75" y2="599.04" gradientUnits="userSpaceOnUse">
<stop stop-color="#AEDFE6"/>
<stop offset="1" stop-color="#4A737D"/>
</linearGradient>
<linearGradient id="paint101_linear" x1="910.613" y1="599.55" x2="911.188" y2="597.819" gradientUnits="userSpaceOnUse">
<stop stop-color="#AEDFE6"/>
<stop offset="1" stop-color="#3E6972"/>
</linearGradient>
<linearGradient id="paint102_linear" x1="914.482" y1="604.637" x2="912.734" y2="601.208" gradientUnits="userSpaceOnUse">
<stop stop-color="#AEDFE6"/>
<stop offset="1" stop-color="#4A737D"/>
</linearGradient>
<linearGradient id="paint103_linear" x1="912.052" y1="557.147" x2="914.62" y2="561.965" gradientUnits="userSpaceOnUse">
<stop stop-color="#AEDFE6"/>
<stop offset="1" stop-color="#4A737D"/>
</linearGradient>
<linearGradient id="paint104_linear" x1="159.592" y1="154.699" x2="188.327" y2="212.676" gradientUnits="userSpaceOnUse">
<stop stop-color="#AEDFE6"/>
<stop offset="1" stop-color="#4A737D"/>
</linearGradient>
<linearGradient id="paint105_linear" x1="177.273" y1="172.228" x2="175.834" y2="176.089" gradientUnits="userSpaceOnUse">
<stop stop-color="#AEDFE6"/>
<stop offset="1" stop-color="#4A737D"/>
</linearGradient>
<linearGradient id="paint106_linear" x1="168.828" y1="171.481" x2="170.031" y2="175.53" gradientUnits="userSpaceOnUse">
<stop stop-color="#AEDFE6"/>
<stop offset="1" stop-color="#4A737D"/>
</linearGradient>
<linearGradient id="paint107_linear" x1="179.317" y1="187.906" x2="188.754" y2="204.559" gradientUnits="userSpaceOnUse">
<stop stop-color="#AEDFE6"/>
<stop offset="1" stop-color="#4A737D"/>
</linearGradient>
<linearGradient id="paint108_linear" x1="167.858" y1="198.678" x2="180.254" y2="211.126" gradientUnits="userSpaceOnUse">
<stop stop-color="#AEDFE6"/>
<stop offset="1" stop-color="#4A737D"/>
</linearGradient>
<linearGradient id="paint109_linear" x1="194.429" y1="204.687" x2="193.009" y2="203.263" gradientUnits="userSpaceOnUse">
<stop stop-color="#AEDFE6"/>
<stop offset="1" stop-color="#3E6972"/>
</linearGradient>
<linearGradient id="paint110_linear" x1="193.188" y1="211.544" x2="193.246" y2="206.32" gradientUnits="userSpaceOnUse">
<stop offset="0.5826" stop-color="#AEDFE6"/>
<stop offset="1" stop-color="#4A737D"/>
</linearGradient>
<linearGradient id="paint111_linear" x1="171.789" y1="163.872" x2="171.614" y2="169.833" gradientUnits="userSpaceOnUse">
<stop stop-color="#AEDFE6"/>
<stop offset="1" stop-color="#4A737D"/>
</linearGradient>
<linearGradient id="paint112_linear" x1="1135.59" y1="180.981" x2="1106.85" y2="238.958" gradientUnits="userSpaceOnUse">
<stop stop-color="#AEDFE6"/>
<stop offset="1" stop-color="#4A737D"/>
</linearGradient>
<linearGradient id="paint113_linear" x1="1117.91" y1="198.512" x2="1119.35" y2="202.373" gradientUnits="userSpaceOnUse">
<stop stop-color="#AEDFE6"/>
<stop offset="1" stop-color="#4A737D"/>
</linearGradient>
<linearGradient id="paint114_linear" x1="1126.35" y1="197.763" x2="1125.15" y2="201.813" gradientUnits="userSpaceOnUse">
<stop stop-color="#AEDFE6"/>
<stop offset="1" stop-color="#4A737D"/>
</linearGradient>
<linearGradient id="paint115_linear" x1="1115.87" y1="214.189" x2="1106.43" y2="230.841" gradientUnits="userSpaceOnUse">
<stop stop-color="#AEDFE6"/>
<stop offset="1" stop-color="#4A737D"/>
</linearGradient>
<linearGradient id="paint116_linear" x1="1127.32" y1="224.961" x2="1114.93" y2="237.408" gradientUnits="userSpaceOnUse">
<stop stop-color="#AEDFE6"/>
<stop offset="1" stop-color="#4A737D"/>
</linearGradient>
<linearGradient id="paint117_linear" x1="1100.75" y1="230.97" x2="1102.17" y2="229.546" gradientUnits="userSpaceOnUse">
<stop stop-color="#AEDFE6"/>
<stop offset="1" stop-color="#3E6972"/>
</linearGradient>
<linearGradient id="paint118_linear" x1="1101.99" y1="237.827" x2="1101.94" y2="232.602" gradientUnits="userSpaceOnUse">
<stop offset="0.5826" stop-color="#AEDFE6"/>
<stop offset="1" stop-color="#4A737D"/>
</linearGradient>
<linearGradient id="paint119_linear" x1="1123.39" y1="190.155" x2="1123.57" y2="196.116" gradientUnits="userSpaceOnUse">
<stop stop-color="#AEDFE6"/>
<stop offset="1" stop-color="#4A737D"/>
</linearGradient>
<linearGradient id="paint120_linear" x1="176.301" y1="965.286" x2="195.151" y2="965.277" gradientUnits="userSpaceOnUse">
<stop stop-color="#AEDFE6"/>
<stop offset="1" stop-color="#3E6972"/>
</linearGradient>
<linearGradient id="paint121_linear" x1="159.895" y1="923.282" x2="211.031" y2="976.138" gradientUnits="userSpaceOnUse">
<stop stop-color="#AEDFE6"/>
<stop offset="1" stop-color="#4A737D"/>
</linearGradient>
<linearGradient id="paint122_linear" x1="159.98" y1="933.148" x2="166.919" y2="931.956" gradientUnits="userSpaceOnUse">
<stop stop-color="#AEDFE6"/>
<stop offset="1" stop-color="#3E6972"/>
</linearGradient>
<linearGradient id="paint123_linear" x1="164.424" y1="943.134" x2="169.644" y2="944.319" gradientUnits="userSpaceOnUse">
<stop stop-color="#AEDFE6"/>
<stop offset="1" stop-color="#3E6972"/>
</linearGradient>
<linearGradient id="paint124_linear" x1="172.236" y1="957.17" x2="178.562" y2="955.508" gradientUnits="userSpaceOnUse">
<stop stop-color="#AEDFE6"/>
<stop offset="1" stop-color="#3E6972"/>
</linearGradient>
<linearGradient id="paint125_linear" x1="183.559" y1="938.355" x2="181.931" y2="940.923" gradientUnits="userSpaceOnUse">
<stop stop-color="#AEDFE6"/>
<stop offset="1" stop-color="#3E6972"/>
</linearGradient>
<linearGradient id="paint126_linear" x1="166.396" y1="939.104" x2="176.832" y2="942.125" gradientUnits="userSpaceOnUse">
<stop stop-color="#AEDFE6"/>
<stop offset="1" stop-color="#3E6972"/>
</linearGradient>
<linearGradient id="paint127_linear" x1="175.31" y1="949.941" x2="186.116" y2="949.446" gradientUnits="userSpaceOnUse">
<stop stop-color="#AEDFE6"/>
<stop offset="1" stop-color="#3E6972"/>
</linearGradient>
<linearGradient id="paint128_linear" x1="181.872" y1="955.754" x2="205.399" y2="959.285" gradientUnits="userSpaceOnUse">
<stop stop-color="#AEDFE6"/>
<stop offset="1" stop-color="#3E6972"/>
</linearGradient>
<linearGradient id="paint129_linear" x1="211.038" y1="965.161" x2="209.821" y2="962.429" gradientUnits="userSpaceOnUse">
<stop stop-color="#AEDFE6"/>
<stop offset="1" stop-color="#3E6972"/>
</linearGradient>
<linearGradient id="paint130_linear" x1="212.575" y1="968.74" x2="211.929" y2="966.686" gradientUnits="userSpaceOnUse">
<stop stop-color="#AEDFE6"/>
<stop offset="1" stop-color="#3E6972"/>
</linearGradient>
<linearGradient id="paint131_linear" x1="64.1821" y1="661.864" x2="83.0317" y2="661.855" gradientUnits="userSpaceOnUse">
<stop stop-color="#AEDFE6"/>
<stop offset="1" stop-color="#3E6972"/>
</linearGradient>
<linearGradient id="paint132_linear" x1="47.7757" y1="619.861" x2="98.9117" y2="672.716" gradientUnits="userSpaceOnUse">
<stop stop-color="#AEDFE6"/>
<stop offset="1" stop-color="#4A737D"/>
</linearGradient>
<linearGradient id="paint133_linear" x1="47.8603" y1="629.726" x2="54.7994" y2="628.534" gradientUnits="userSpaceOnUse">
<stop stop-color="#AEDFE6"/>
<stop offset="1" stop-color="#3E6972"/>
</linearGradient>
<linearGradient id="paint134_linear" x1="52.3042" y1="639.713" x2="57.5246" y2="640.898" gradientUnits="userSpaceOnUse">
<stop stop-color="#AEDFE6"/>
<stop offset="1" stop-color="#3E6972"/>
</linearGradient>
<linearGradient id="paint135_linear" x1="60.1155" y1="653.749" x2="66.4421" y2="652.087" gradientUnits="userSpaceOnUse">
<stop stop-color="#AEDFE6"/>
<stop offset="1" stop-color="#3E6972"/>
</linearGradient>
<linearGradient id="paint136_linear" x1="71.4394" y1="634.932" x2="69.8112" y2="637.501" gradientUnits="userSpaceOnUse">
<stop stop-color="#AEDFE6"/>
<stop offset="1" stop-color="#3E6972"/>
</linearGradient>
<linearGradient id="paint137_linear" x1="54.2759" y1="635.683" x2="64.7129" y2="638.703" gradientUnits="userSpaceOnUse">
<stop stop-color="#AEDFE6"/>
<stop offset="1" stop-color="#3E6972"/>
</linearGradient>
<linearGradient id="paint138_linear" x1="63.19" y1="646.52" x2="73.9962" y2="646.024" gradientUnits="userSpaceOnUse">
<stop stop-color="#AEDFE6"/>
<stop offset="1" stop-color="#3E6972"/>
</linearGradient>
<linearGradient id="paint139_linear" x1="69.7526" y1="652.332" x2="93.2792" y2="655.863" gradientUnits="userSpaceOnUse">
<stop stop-color="#AEDFE6"/>
<stop offset="1" stop-color="#3E6972"/>
</linearGradient>
<linearGradient id="paint140_linear" x1="98.9185" y1="661.739" x2="97.702" y2="659.008" gradientUnits="userSpaceOnUse">
<stop stop-color="#AEDFE6"/>
<stop offset="1" stop-color="#3E6972"/>
</linearGradient>
<linearGradient id="paint141_linear" x1="100.456" y1="665.318" x2="99.8097" y2="663.265" gradientUnits="userSpaceOnUse">
<stop stop-color="#AEDFE6"/>
<stop offset="1" stop-color="#3E6972"/>
</linearGradient>
<linearGradient id="paint142_linear" x1="958.461" y1="694.577" x2="977.311" y2="694.568" gradientUnits="userSpaceOnUse">
<stop stop-color="#AEDFE6"/>
<stop offset="1" stop-color="#3E6972"/>
</linearGradient>
<linearGradient id="paint143_linear" x1="942.055" y1="652.575" x2="993.191" y2="705.43" gradientUnits="userSpaceOnUse">
<stop stop-color="#AEDFE6"/>
<stop offset="1" stop-color="#4A737D"/>
</linearGradient>
<linearGradient id="paint144_linear" x1="942.139" y1="662.44" x2="949.078" y2="661.248" gradientUnits="userSpaceOnUse">
<stop stop-color="#AEDFE6"/>
<stop offset="1" stop-color="#3E6972"/>
</linearGradient>
<linearGradient id="paint145_linear" x1="946.584" y1="672.426" x2="951.804" y2="673.611" gradientUnits="userSpaceOnUse">
<stop stop-color="#AEDFE6"/>
<stop offset="1" stop-color="#3E6972"/>
</linearGradient>
<linearGradient id="paint146_linear" x1="954.395" y1="686.462" x2="960.722" y2="684.8" gradientUnits="userSpaceOnUse">
<stop stop-color="#AEDFE6"/>
<stop offset="1" stop-color="#3E6972"/>
</linearGradient>
<linearGradient id="paint147_linear" x1="965.718" y1="667.645" x2="964.09" y2="670.214" gradientUnits="userSpaceOnUse">
<stop stop-color="#AEDFE6"/>
<stop offset="1" stop-color="#3E6972"/>
</linearGradient>
<linearGradient id="paint148_linear" x1="948.556" y1="668.396" x2="958.993" y2="671.417" gradientUnits="userSpaceOnUse">
<stop stop-color="#AEDFE6"/>
<stop offset="1" stop-color="#3E6972"/>
</linearGradient>
<linearGradient id="paint149_linear" x1="957.469" y1="679.233" x2="968.275" y2="678.738" gradientUnits="userSpaceOnUse">
<stop stop-color="#AEDFE6"/>
<stop offset="1" stop-color="#3E6972"/>
</linearGradient>
<linearGradient id="paint150_linear" x1="964.031" y1="685.046" x2="987.558" y2="688.577" gradientUnits="userSpaceOnUse">
<stop stop-color="#AEDFE6"/>
<stop offset="1" stop-color="#3E6972"/>
</linearGradient>
<linearGradient id="paint151_linear" x1="993.198" y1="694.452" x2="991.981" y2="691.721" gradientUnits="userSpaceOnUse">
<stop stop-color="#AEDFE6"/>
<stop offset="1" stop-color="#3E6972"/>
</linearGradient>
<linearGradient id="paint152_linear" x1="994.735" y1="698.032" x2="994.089" y2="695.978" gradientUnits="userSpaceOnUse">
<stop stop-color="#AEDFE6"/>
<stop offset="1" stop-color="#3E6972"/>
</linearGradient>
<linearGradient id="paint153_linear" x1="1024.7" y1="905.259" x2="1005.85" y2="905.25" gradientUnits="userSpaceOnUse">
<stop stop-color="#AEDFE6"/>
<stop offset="1" stop-color="#3E6972"/>
</linearGradient>
<linearGradient id="paint154_linear" x1="1041.11" y1="863.256" x2="989.97" y2="916.112" gradientUnits="userSpaceOnUse">
<stop stop-color="#AEDFE6"/>
<stop offset="1" stop-color="#4A737D"/>
</linearGradient>
<linearGradient id="paint155_linear" x1="1041.02" y1="873.121" x2="1034.08" y2="871.929" gradientUnits="userSpaceOnUse">
<stop stop-color="#AEDFE6"/>
<stop offset="1" stop-color="#3E6972"/>
</linearGradient>
<linearGradient id="paint156_linear" x1="1036.58" y1="883.108" x2="1031.36" y2="884.293" gradientUnits="userSpaceOnUse">
<stop stop-color="#AEDFE6"/>
<stop offset="1" stop-color="#3E6972"/>
</linearGradient>
<linearGradient id="paint157_linear" x1="1028.77" y1="897.144" x2="1022.44" y2="895.482" gradientUnits="userSpaceOnUse">
<stop stop-color="#AEDFE6"/>
<stop offset="1" stop-color="#3E6972"/>
</linearGradient>
<linearGradient id="paint158_linear" x1="1017.44" y1="878.327" x2="1019.07" y2="880.896" gradientUnits="userSpaceOnUse">
<stop stop-color="#AEDFE6"/>
<stop offset="1" stop-color="#3E6972"/>
</linearGradient>
<linearGradient id="paint159_linear" x1="1034.61" y1="879.078" x2="1024.17" y2="882.098" gradientUnits="userSpaceOnUse">
<stop stop-color="#AEDFE6"/>
<stop offset="1" stop-color="#3E6972"/>
</linearGradient>
<linearGradient id="paint160_linear" x1="1025.69" y1="889.915" x2="1014.89" y2="889.419" gradientUnits="userSpaceOnUse">
<stop stop-color="#AEDFE6"/>
<stop offset="1" stop-color="#3E6972"/>
</linearGradient>
<linearGradient id="paint161_linear" x1="1019.13" y1="895.727" x2="995.603" y2="899.258" gradientUnits="userSpaceOnUse">
<stop stop-color="#AEDFE6"/>
<stop offset="1" stop-color="#3E6972"/>
</linearGradient>
<linearGradient id="paint162_linear" x1="989.964" y1="905.134" x2="991.18" y2="902.403" gradientUnits="userSpaceOnUse">
<stop stop-color="#AEDFE6"/>
<stop offset="1" stop-color="#3E6972"/>
</linearGradient>
<linearGradient id="paint163_linear" x1="988.426" y1="908.713" x2="989.073" y2="906.66" gradientUnits="userSpaceOnUse">
<stop stop-color="#AEDFE6"/>
<stop offset="1" stop-color="#3E6972"/>
</linearGradient>
<linearGradient id="paint164_linear" x1="1127.91" y1="943.294" x2="1143.73" y2="933.232" gradientUnits="userSpaceOnUse">
<stop stop-color="#AEDFE6"/>
<stop offset="1" stop-color="#3E6972"/>
</linearGradient>
<linearGradient id="paint165_linear" x1="1091.57" y1="916.18" x2="1163.53" y2="933.395" gradientUnits="userSpaceOnUse">
<stop stop-color="#AEDFE6"/>
<stop offset="1" stop-color="#4A737D"/>
</linearGradient>
<linearGradient id="paint166_linear" x1="1096.88" y1="924.436" x2="1102.05" y2="919.786" gradientUnits="userSpaceOnUse">
<stop stop-color="#AEDFE6"/>
<stop offset="1" stop-color="#3E6972"/>
</linearGradient>
<linearGradient id="paint167_linear" x1="1105.96" y1="930.621" x2="1110.99" y2="928.805" gradientUnits="userSpaceOnUse">
<stop stop-color="#AEDFE6"/>
<stop offset="1" stop-color="#3E6972"/>
</linearGradient>
<linearGradient id="paint168_linear" x1="1120.12" y1="938.504" x2="1124.54" y2="933.768" gradientUnits="userSpaceOnUse">
<stop stop-color="#AEDFE6"/>
<stop offset="1" stop-color="#3E6972"/>
</linearGradient>
<linearGradient id="paint169_linear" x1="1119.66" y1="916.636" x2="1119.62" y2="919.66" gradientUnits="userSpaceOnUse">
<stop stop-color="#AEDFE6"/>
<stop offset="1" stop-color="#3E6972"/>
</linearGradient>
<linearGradient id="paint170_linear" x1="1105.48" y1="926.173" x2="1115.9" y2="923.088" gradientUnits="userSpaceOnUse">
<stop stop-color="#AEDFE6"/>
<stop offset="1" stop-color="#3E6972"/>
</linearGradient>
<linearGradient id="paint171_linear" x1="1118.87" y1="930.765" x2="1127.66" y2="924.585" gradientUnits="userSpaceOnUse">
<stop stop-color="#AEDFE6"/>
<stop offset="1" stop-color="#3E6972"/>
</linearGradient>
<linearGradient id="paint172_linear" x1="1127.54" y1="932.305" x2="1149.22" y2="922.645" gradientUnits="userSpaceOnUse">
<stop stop-color="#AEDFE6"/>
<stop offset="1" stop-color="#3E6972"/>
</linearGradient>
<linearGradient id="paint173_linear" x1="1157.38" y1="925.177" x2="1154.88" y2="923.488" gradientUnits="userSpaceOnUse">
<stop stop-color="#AEDFE6"/>
<stop offset="1" stop-color="#3E6972"/>
</linearGradient>
<linearGradient id="paint174_linear" x1="1160.6" y1="927.428" x2="1158.95" y2="926.006" gradientUnits="userSpaceOnUse">
<stop stop-color="#AEDFE6"/>
<stop offset="1" stop-color="#3E6972"/>
</linearGradient>
<linearGradient id="paint175_linear" x1="378.384" y1="658.469" x2="354.779" y2="649.509" gradientUnits="userSpaceOnUse">
<stop stop-color="#AEDFE6"/>
<stop offset="1" stop-color="#3E6972"/>
</linearGradient>
<linearGradient id="paint176_linear" x1="419.03" y1="613.233" x2="329.393" y2="655.76" gradientUnits="userSpaceOnUse">
<stop stop-color="#AEDFE6"/>
<stop offset="1" stop-color="#4A737D"/>
</linearGradient>
<linearGradient id="paint177_linear" x1="414.222" y1="625.598" x2="406.105" y2="620.826" gradientUnits="userSpaceOnUse">
<stop stop-color="#AEDFE6"/>
<stop offset="1" stop-color="#3E6972"/>
</linearGradient>
<linearGradient id="paint178_linear" x1="403.875" y1="636.102" x2="396.757" y2="635.103" gradientUnits="userSpaceOnUse">
<stop stop-color="#AEDFE6"/>
<stop offset="1" stop-color="#3E6972"/>
</linearGradient>
<linearGradient id="paint179_linear" x1="387.362" y1="650.142" x2="380.235" y2="645.08" gradientUnits="userSpaceOnUse">
<stop stop-color="#AEDFE6"/>
<stop offset="1" stop-color="#3E6972"/>
</linearGradient>
<linearGradient id="paint180_linear" x1="382.093" y1="621.254" x2="382.948" y2="625.229" gradientUnits="userSpaceOnUse">
<stop stop-color="#AEDFE6"/>
<stop offset="1" stop-color="#3E6972"/>
</linearGradient>
<linearGradient id="paint181_linear" x1="403.316" y1="630.124" x2="388.766" y2="628.945" gradientUnits="userSpaceOnUse">
<stop stop-color="#AEDFE6"/>
<stop offset="1" stop-color="#3E6972"/>
</linearGradient>
<linearGradient id="paint182_linear" x1="386.943" y1="639.633" x2="373.648" y2="633.888" gradientUnits="userSpaceOnUse">
<stop stop-color="#AEDFE6"/>
<stop offset="1" stop-color="#3E6972"/>
</linearGradient>
<linearGradient id="paint183_linear" x1="375.922" y1="643.91" x2="344.732" y2="637.142" gradientUnits="userSpaceOnUse">
<stop stop-color="#AEDFE6"/>
<stop offset="1" stop-color="#3E6972"/>
</linearGradient>
<linearGradient id="paint184_linear" x1="334.766" y1="642.268" x2="337.586" y2="639.384" gradientUnits="userSpaceOnUse">
<stop stop-color="#AEDFE6"/>
<stop offset="1" stop-color="#3E6972"/>
</linearGradient>
<linearGradient id="paint185_linear" x1="331.127" y1="646.058" x2="332.904" y2="643.763" gradientUnits="userSpaceOnUse">
<stop stop-color="#AEDFE6"/>
<stop offset="1" stop-color="#3E6972"/>
</linearGradient>
<linearGradient id="paint186_linear" x1="499.627" y1="1077.07" x2="517.33" y2="1070.35" gradientUnits="userSpaceOnUse">
<stop stop-color="#AEDFE6"/>
<stop offset="1" stop-color="#3E6972"/>
</linearGradient>
<linearGradient id="paint187_linear" x1="469.142" y1="1043.15" x2="536.37" y2="1075.04" gradientUnits="userSpaceOnUse">
<stop stop-color="#AEDFE6"/>
<stop offset="1" stop-color="#4A737D"/>
</linearGradient>
<linearGradient id="paint188_linear" x1="472.749" y1="1052.42" x2="478.837" y2="1048.84" gradientUnits="userSpaceOnUse">
<stop stop-color="#AEDFE6"/>
<stop offset="1" stop-color="#3E6972"/>
</linearGradient>
<linearGradient id="paint189_linear" x1="480.509" y1="1060.3" x2="485.847" y2="1059.55" gradientUnits="userSpaceOnUse">
<stop stop-color="#AEDFE6"/>
<stop offset="1" stop-color="#3E6972"/>
</linearGradient>
<linearGradient id="paint190_linear" x1="492.893" y1="1070.83" x2="498.238" y2="1067.03" gradientUnits="userSpaceOnUse">
<stop stop-color="#AEDFE6"/>
<stop offset="1" stop-color="#3E6972"/>
</linearGradient>
<linearGradient id="paint191_linear" x1="496.845" y1="1049.16" x2="496.204" y2="1052.14" gradientUnits="userSpaceOnUse">
<stop stop-color="#AEDFE6"/>
<stop offset="1" stop-color="#3E6972"/>
</linearGradient>
<linearGradient id="paint192_linear" x1="480.929" y1="1055.82" x2="491.841" y2="1054.93" gradientUnits="userSpaceOnUse">
<stop stop-color="#AEDFE6"/>
<stop offset="1" stop-color="#3E6972"/>
</linearGradient>
<linearGradient id="paint193_linear" x1="493.208" y1="1062.95" x2="503.179" y2="1058.64" gradientUnits="userSpaceOnUse">
<stop stop-color="#AEDFE6"/>
<stop offset="1" stop-color="#3E6972"/>
</linearGradient>
<linearGradient id="paint194_linear" x1="501.474" y1="1066.15" x2="524.867" y2="1061.08" gradientUnits="userSpaceOnUse">
<stop stop-color="#AEDFE6"/>
<stop offset="1" stop-color="#3E6972"/>
</linearGradient>
<linearGradient id="paint195_linear" x1="532.341" y1="1064.92" x2="530.226" y2="1062.76" gradientUnits="userSpaceOnUse">
<stop stop-color="#AEDFE6"/>
<stop offset="1" stop-color="#3E6972"/>
</linearGradient>
<linearGradient id="paint196_linear" x1="535.07" y1="1067.77" x2="533.737" y2="1066.04" gradientUnits="userSpaceOnUse">
<stop stop-color="#AEDFE6"/>
<stop offset="1" stop-color="#3E6972"/>
</linearGradient>
<linearGradient id="paint197_linear" x1="1147.6" y1="1008.22" x2="1179.04" y2="1065.1" gradientUnits="userSpaceOnUse">
<stop stop-color="#AEDFE6"/>
<stop offset="1" stop-color="#4A737D"/>
</linearGradient>
<linearGradient id="paint198_linear" x1="1166.05" y1="1025.15" x2="1164.77" y2="1029.07" gradientUnits="userSpaceOnUse">
<stop stop-color="#AEDFE6"/>
<stop offset="1" stop-color="#4A737D"/>
</linearGradient>
<linearGradient id="paint199_linear" x1="1157.56" y1="1024.7" x2="1158.94" y2="1028.71" gradientUnits="userSpaceOnUse">
<stop stop-color="#AEDFE6"/>
<stop offset="1" stop-color="#4A737D"/>
</linearGradient>
<linearGradient id="paint200_linear" x1="1168.65" y1="1040.81" x2="1178.81" y2="1057.11" gradientUnits="userSpaceOnUse">
<stop stop-color="#AEDFE6"/>
<stop offset="1" stop-color="#4A737D"/>
</linearGradient>
<linearGradient id="paint201_linear" x1="1157.57" y1="1052.03" x2="1170.57" y2="1063.88" gradientUnits="userSpaceOnUse">
<stop stop-color="#AEDFE6"/>
<stop offset="1" stop-color="#4A737D"/>
</linearGradient>
<linearGradient id="paint202_linear" x1="1184.38" y1="1057.11" x2="1182.89" y2="1055.76" gradientUnits="userSpaceOnUse">
<stop stop-color="#AEDFE6"/>
<stop offset="1" stop-color="#3E6972"/>
</linearGradient>
<linearGradient id="paint203_linear" x1="1183.42" y1="1064.02" x2="1183.3" y2="1059.82" gradientUnits="userSpaceOnUse">
<stop stop-color="#AEDFE6"/>
<stop offset="1" stop-color="#4A737D"/>
</linearGradient>
<linearGradient id="paint204_linear" x1="1160.26" y1="1016.97" x2="1160.32" y2="1022.95" gradientUnits="userSpaceOnUse">
<stop stop-color="#AEDFE6"/>
<stop offset="1" stop-color="#4A737D"/>
</linearGradient>
<linearGradient id="paint205_linear" x1="966.169" y1="1051.14" x2="966.169" y2="1109.99" gradientUnits="userSpaceOnUse">
<stop stop-color="#AEDFE6"/>
<stop offset="1" stop-color="#4A737D"/>
</linearGradient>
<linearGradient id="paint206_linear" x1="959.066" y1="1072.57" x2="961.834" y2="1075.15" gradientUnits="userSpaceOnUse">
<stop stop-color="#AEDFE6"/>
<stop offset="1" stop-color="#4A737D"/>
</linearGradient>
<linearGradient id="paint207_linear" x1="965.635" y1="1068.55" x2="966.29" y2="1072.34" gradientUnits="userSpaceOnUse">
<stop stop-color="#AEDFE6"/>
<stop offset="1" stop-color="#4A737D"/>
</linearGradient>
<linearGradient id="paint208_linear" x1="963.934" y1="1086.17" x2="962.977" y2="1103.54" gradientUnits="userSpaceOnUse">
<stop stop-color="#AEDFE6"/>
<stop offset="1" stop-color="#4A737D"/>
</linearGradient>
<linearGradient id="paint209_linear" x1="977.76" y1="1090.32" x2="972.75" y2="1105.44" gradientUnits="userSpaceOnUse">
<stop stop-color="#AEDFE6"/>
<stop offset="1" stop-color="#4A737D"/>
</linearGradient>
<linearGradient id="paint210_linear" x1="958.613" y1="1105.95" x2="959.188" y2="1104.22" gradientUnits="userSpaceOnUse">
<stop stop-color="#AEDFE6"/>
<stop offset="1" stop-color="#3E6972"/>
</linearGradient>
<linearGradient id="paint211_linear" x1="962.482" y1="1111.03" x2="960.734" y2="1107.6" gradientUnits="userSpaceOnUse">
<stop stop-color="#AEDFE6"/>
<stop offset="1" stop-color="#4A737D"/>
</linearGradient>
<linearGradient id="paint212_linear" x1="960.052" y1="1063.54" x2="962.62" y2="1068.36" gradientUnits="userSpaceOnUse">
<stop stop-color="#AEDFE6"/>
<stop offset="1" stop-color="#4A737D"/>
</linearGradient>
<linearGradient id="paint213_linear" x1="207.592" y1="661.095" x2="236.327" y2="719.072" gradientUnits="userSpaceOnUse">
<stop stop-color="#AEDFE6"/>
<stop offset="1" stop-color="#4A737D"/>
</linearGradient>
<linearGradient id="paint214_linear" x1="225.273" y1="678.624" x2="223.834" y2="682.485" gradientUnits="userSpaceOnUse">
<stop stop-color="#AEDFE6"/>
<stop offset="1" stop-color="#4A737D"/>
</linearGradient>
<linearGradient id="paint215_linear" x1="216.828" y1="677.877" x2="218.031" y2="681.926" gradientUnits="userSpaceOnUse">
<stop stop-color="#AEDFE6"/>
<stop offset="1" stop-color="#4A737D"/>
</linearGradient>
<linearGradient id="paint216_linear" x1="227.317" y1="694.302" x2="236.754" y2="710.955" gradientUnits="userSpaceOnUse">
<stop stop-color="#AEDFE6"/>
<stop offset="1" stop-color="#4A737D"/>
</linearGradient>
<linearGradient id="paint217_linear" x1="215.858" y1="705.074" x2="228.254" y2="717.522" gradientUnits="userSpaceOnUse">
<stop stop-color="#AEDFE6"/>
<stop offset="1" stop-color="#4A737D"/>
</linearGradient>
<linearGradient id="paint218_linear" x1="242.429" y1="711.083" x2="241.009" y2="709.659" gradientUnits="userSpaceOnUse">
<stop stop-color="#AEDFE6"/>
<stop offset="1" stop-color="#3E6972"/>
</linearGradient>
<linearGradient id="paint219_linear" x1="241.188" y1="717.94" x2="241.246" y2="712.716" gradientUnits="userSpaceOnUse">
<stop offset="0.5826" stop-color="#AEDFE6"/>
<stop offset="1" stop-color="#4A737D"/>
</linearGradient>
<linearGradient id="paint220_linear" x1="219.789" y1="670.268" x2="219.614" y2="676.229" gradientUnits="userSpaceOnUse">
<stop stop-color="#AEDFE6"/>
<stop offset="1" stop-color="#4A737D"/>
</linearGradient>
<linearGradient id="paint221_linear" x1="1183.59" y1="687.377" x2="1154.85" y2="745.354" gradientUnits="userSpaceOnUse">
<stop stop-color="#AEDFE6"/>
<stop offset="1" stop-color="#4A737D"/>
</linearGradient>
<linearGradient id="paint222_linear" x1="1165.91" y1="704.908" x2="1167.35" y2="708.769" gradientUnits="userSpaceOnUse">
<stop stop-color="#AEDFE6"/>
<stop offset="1" stop-color="#4A737D"/>
</linearGradient>
<linearGradient id="paint223_linear" x1="1174.35" y1="704.159" x2="1173.15" y2="708.209" gradientUnits="userSpaceOnUse">
<stop stop-color="#AEDFE6"/>
<stop offset="1" stop-color="#4A737D"/>
</linearGradient>
<linearGradient id="paint224_linear" x1="1163.87" y1="720.585" x2="1154.43" y2="737.237" gradientUnits="userSpaceOnUse">
<stop stop-color="#AEDFE6"/>
<stop offset="1" stop-color="#4A737D"/>
</linearGradient>
<linearGradient id="paint225_linear" x1="1175.32" y1="731.357" x2="1162.93" y2="743.805" gradientUnits="userSpaceOnUse">
<stop stop-color="#AEDFE6"/>
<stop offset="1" stop-color="#4A737D"/>
</linearGradient>
<linearGradient id="paint226_linear" x1="1148.75" y1="737.366" x2="1150.17" y2="735.942" gradientUnits="userSpaceOnUse">
<stop stop-color="#AEDFE6"/>
<stop offset="1" stop-color="#3E6972"/>
</linearGradient>
<linearGradient id="paint227_linear" x1="1149.99" y1="744.223" x2="1149.94" y2="738.998" gradientUnits="userSpaceOnUse">
<stop offset="0.5826" stop-color="#AEDFE6"/>
<stop offset="1" stop-color="#4A737D"/>
</linearGradient>
<linearGradient id="paint228_linear" x1="1171.39" y1="696.551" x2="1171.57" y2="702.512" gradientUnits="userSpaceOnUse">
<stop stop-color="#AEDFE6"/>
<stop offset="1" stop-color="#4A737D"/>
</linearGradient>
</defs>
</svg>
