<svg width="381" height="760" viewBox="0 0 381 760" fill="none" xmlns="http://www.w3.org/2000/svg">
<path d="M109.18 235.877L106.871 235.979L105.724 236.099L100.214 236.109L103.175 237.194L108.414 237.9L112.641 237.826L109.18 235.877Z" fill="url(#paint0_linear)"/>
<path d="M91.0486 212.347L90.4796 210.308L90.0986 208.134L89.5508 205.766L90.5431 203.148L90.5101 205.778L91.6976 207.91L91.5683 206.982L92.0856 205.07L92.3301 202.79L93.868 205.996L93.3977 208.329L93.3248 209.794L94.183 213.157L96.1324 215.095L98.4979 216.845L100.734 218.208L107.483 222.65L111.6 224.773L114.57 226.745L117.144 227.757L118.196 228.618L120.048 230.451L121.861 232.201L122.741 233.879L125.365 236.4L126.068 237.812L124.316 237.166L122.724 237.192L120.451 238.039L122.903 238.909L124.043 239.886L124.467 240.949L120.85 241.043L117.688 241.034L112.642 237.826L109.18 235.877L106.885 235.034L103.803 233.902L101.748 231.696L100.127 229.979L97.3527 227.129L96.1206 225.118L95.2106 223.699L94.2818 222.342L93.8092 220.678L93.226 218.771L91.0486 212.347Z" fill="url(#paint1_linear)"/>
<path d="M93.2259 218.771L92.0173 218.326L90.1855 215.891L90.423 213.269L91.0485 212.347L93.2259 218.771Z" fill="url(#paint2_linear)"/>
<path d="M94.2813 222.342L91.9487 222.502L94.0321 222.995L95.2101 223.699L94.2813 222.342Z" fill="url(#paint3_linear)"/>
<path d="M100.127 229.979L99.0028 230.039L97.2769 231.506L99.2708 232.238L101.747 231.696L100.127 229.979Z" fill="url(#paint4_linear)"/>
<path d="M100.734 218.209L101.928 218.51L104.466 219.442L106.196 220.688L107.482 222.651L100.734 218.209Z" fill="url(#paint5_linear)"/>
<path d="M99.8914 221.81L98.8145 221.002L97.5494 220.247L95.9599 220.016L94.5914 219.863L93.0889 219.847L94.2951 220.539L95.4355 220.958L97.1285 221.578L98.8521 222.007L99.8914 221.81Z" fill="url(#paint6_linear)"/>
<path d="M106.711 226.833L104.642 226.319L102.507 225.534L101.684 226.266L100.691 226.562L99.189 226.877L99.6357 227.247L101.364 227.881L103.548 227.983L105.613 227.585L106.711 226.833Z" fill="url(#paint7_linear)"/>
<path d="M117.01 232.514L115.667 231.629L113.68 230.898L111.776 230.396L110.424 230.754L107.955 230.963L105.688 230.75L102.859 230.247L104.846 230.977L108.159 232.194L110.993 233.233L113.601 233.326L116.124 233.303L117.01 232.514Z" fill="url(#paint8_linear)"/>
<path d="M122.392 234.888L122.778 235.365L123.032 235.995L122.566 235.823L121.986 235.965L121.174 235.312L122.392 234.888Z" fill="url(#paint9_linear)"/>
<path d="M120.45 238.039L122.903 238.909L126.068 237.812L124.316 237.166L122.724 237.191L120.45 238.039Z" fill="url(#paint10_linear)"/>
<path d="M20.127 33.0875L17.8179 33.1894L16.6705 33.3097L11.1611 33.319L14.1215 34.4046L19.3605 35.1106L23.5883 35.0366L20.127 33.0875Z" fill="url(#paint11_linear)"/>
<path d="M1.99491 9.55764L1.42586 7.51834L1.04494 5.34478L0.49707 2.97678L1.48935 0.358785L1.45643 2.98835L2.64388 5.12025L2.51456 4.19203L3.03187 2.28003L3.27641 0L4.81424 3.20594L4.34396 5.53922L4.27106 7.00446L5.12932 10.3678L7.07864 12.3053L9.44414 14.0552L11.6803 15.4186L18.4288 19.8606L22.5461 21.9833L25.516 23.9555L28.0907 24.967L29.1418 25.8281L30.9947 27.6614L32.8076 29.4114L33.6871 31.0896L36.3112 33.6103L37.0143 35.0223L35.2625 34.3765L33.6706 34.402L31.3968 35.2492L33.8493 36.1195L34.9897 37.0964L35.413 38.1588L31.7965 38.2537L28.6339 38.2445L23.5878 35.0362L20.1266 33.0872L17.8316 32.2446L14.7489 31.1127L12.6938 28.9067L11.0737 27.1892L8.29901 24.3397L7.06687 22.3282L6.15688 20.9092L5.22809 19.5528L4.75545 17.8885L4.17229 15.9811L1.99491 9.55764Z" fill="url(#paint12_linear)"/>
<path d="M4.17225 15.9814L2.96362 15.5369L1.13184 13.1018L1.36933 10.4791L1.99482 9.55786L4.17225 15.9814Z" fill="url(#paint13_linear)"/>
<path d="M5.22811 19.5529L2.89551 19.7126L4.97886 20.2056L6.1569 20.9093L5.22811 19.5529Z" fill="url(#paint14_linear)"/>
<path d="M11.0735 27.1891L9.94956 27.2493L8.22363 28.7168L10.2176 29.4483L12.6937 28.9066L11.0735 27.1891Z" fill="url(#paint15_linear)"/>
<path d="M11.6802 15.4186L12.8747 15.7195L15.4119 16.6523L17.1425 17.8977L18.4287 19.8606L11.6802 15.4186Z" fill="url(#paint16_linear)"/>
<path d="M10.8383 19.0204L9.76131 18.2125L8.49625 17.4579L6.9067 17.2265L5.53818 17.0737L4.03564 17.0575L5.24192 17.7496L6.38234 18.1686L8.07535 18.7889L9.79894 19.2171L10.8383 19.0204Z" fill="url(#paint17_linear)"/>
<path d="M17.6574 24.0432L15.5882 23.5293L13.4531 22.7446L12.6301 23.4761L11.6378 23.7724L10.1353 24.0872L10.582 24.4576L12.3103 25.0918L14.4947 25.1936L16.5593 24.7955L17.6574 24.0432Z" fill="url(#paint18_linear)"/>
<path d="M27.9569 29.7242L26.6142 28.8399L24.6273 28.1085L22.7227 27.6061L21.3706 27.9649L18.9016 28.1733L16.6349 27.9603L13.8062 27.458L15.7931 28.1872L19.1062 29.4047L21.9397 30.4441L24.5474 30.5367L27.0704 30.5135L27.9569 29.7242Z" fill="url(#paint19_linear)"/>
<path d="M33.3392 32.0988L33.7248 32.5756L33.9787 33.2052L33.5132 33.0339L32.9323 33.1751L32.1211 32.5224L33.3392 32.0988Z" fill="url(#paint20_linear)"/>
<path d="M31.397 35.2491L33.8495 36.1195L37.0145 35.0223L35.2627 34.3765L33.6708 34.4019L31.397 35.2491Z" fill="url(#paint21_linear)"/>
<path d="M341.156 45.8236L344.012 47.0166L345.397 47.6975L352.321 50.2538H348.08L341.156 48.7203L335.876 46.6762L341.156 45.8236Z" fill="url(#paint22_linear)"/>
<path d="M375.17 24.6096L376.857 22.3094L378.372 19.7532L380.189 17.0267V13.2774L378.978 16.6004L376.467 18.7304L377.073 17.6232L377.333 14.9826L378.112 12L374.651 15.323L374.131 18.4743L373.525 20.3497L370.842 24.1833L367.467 25.7168L363.66 26.824L360.197 27.5063L349.595 29.9767L343.408 30.7435L338.734 31.8507L335.013 31.9365L333.282 32.533L330.08 33.9806L326.964 35.3439L325.059 37.0476L320.559 39.0073L319.001 40.4564H321.512L323.501 41.2231L325.957 43.3368L322.458 43.2998L320.559 43.9999L319.521 45.1412L324.022 46.9307L328.002 48.3798L335.877 46.6761L341.157 45.8235H344.447H348.86L352.495 43.9999L355.351 42.5864L360.197 40.2862L362.708 38.3264L364.524 36.9632L366.342 35.6843L367.727 33.8104L369.372 31.6804L375.17 24.6096Z" fill="url(#paint23_linear)"/>
<path d="M369.371 31.6808H371.102L374.563 29.4664L375.515 26.0576L375.169 24.61L369.371 31.6808Z" fill="url(#paint24_linear)"/>
<path d="M366.341 35.6841L369.196 36.9629L366.341 36.6225L364.523 36.9629L366.341 35.6841Z" fill="url(#paint25_linear)"/>
<path d="M355.349 42.5863L356.734 43.1828L358.206 45.8235H355.349L352.494 43.9999L355.349 42.5863Z" fill="url(#paint26_linear)"/>
<path d="M360.196 27.5068L358.552 27.3365H354.917L352.147 28.1033L349.594 29.9772L360.196 27.5068Z" fill="url(#paint27_linear)"/>
<path d="M359.539 32.4249L361.278 31.9054L363.228 31.5427L365.338 31.9838L367.13 32.4249L369.028 33.0999L367.183 33.4107H365.548H363.123L360.75 33.1517L359.539 32.4249Z" fill="url(#paint28_linear)"/>
<path d="M348.571 35.5909L351.419 35.9018H354.477L355.162 37.1999L356.27 38.0303L358.009 39.1197L357.271 39.3787H354.793L351.999 38.4965L349.594 37.0445L348.571 35.5909Z" fill="url(#paint29_linear)"/>
<path d="M332.915 37.9789L335.023 37.486H337.87L340.506 37.7317L342.035 38.8092L345.04 40.2095L347.993 40.988L351.788 41.663H348.941H344.196H340.136L336.815 40.5736L333.651 39.3791L332.915 37.9789Z" fill="url(#paint30_linear)"/>
<path d="M325.015 38.479L324.302 38.8994L323.686 39.5743H324.35L325.015 40.0213L326.344 39.5743L325.015 38.479Z" fill="url(#paint31_linear)"/>
<path d="M325.956 43.337L322.457 43.3L319 40.4565H321.511L323.5 41.2233L325.956 43.337Z" fill="url(#paint32_linear)"/>
<path d="M302.292 299.872L300.149 300.767L299.111 301.277L293.918 303.195H297.099L302.292 302.045L306.251 300.512L302.292 299.872Z" fill="url(#paint33_linear)"/>
<path d="M276.782 283.961L275.516 282.236L274.38 280.319L273.017 278.274V275.462L273.925 277.954L275.808 279.552L275.354 278.721L275.159 276.741L274.575 274.504L277.171 276.996L277.561 279.36L278.015 280.766L280.027 283.642L282.559 284.792L285.414 285.622L288.011 286.134L295.963 287.987L300.603 288.562L304.108 289.392L306.899 289.456L308.197 289.904L310.599 290.99L312.936 292.012L314.365 293.29L317.74 294.76L318.908 295.846H317.025L315.533 296.421L313.691 298.007L316.316 297.979L317.74 298.504L318.518 299.36L315.143 300.702L312.158 301.789L306.251 300.511L302.291 299.872H299.824H296.514L293.787 298.504L291.646 297.444L288.011 295.719L286.128 294.249L284.766 293.226L283.402 292.267L282.364 290.862L281.13 289.264L276.782 283.961Z" fill="url(#paint34_linear)"/>
<path d="M281.131 289.265H279.833L277.237 287.604L276.524 285.047L276.783 283.962L281.131 289.265Z" fill="url(#paint35_linear)"/>
<path d="M283.403 292.268L281.262 293.227L283.403 292.972L284.767 293.227L283.403 292.268Z" fill="url(#paint36_linear)"/>
<path d="M291.647 297.444L290.608 297.891L289.504 299.871H291.647L293.788 298.504L291.647 297.444Z" fill="url(#paint37_linear)"/>
<path d="M288.012 286.134L289.245 286.007H291.972L294.049 286.582L295.964 287.987L288.012 286.134Z" fill="url(#paint38_linear)"/>
<path d="M288.505 289.823L287.201 289.433L285.738 289.161L284.156 289.492L282.812 289.823L281.388 290.329L282.772 290.562H283.998H285.817L287.596 290.368L288.505 289.823Z" fill="url(#paint39_linear)"/>
<path d="M296.73 292.197L294.595 292.431H292.301L291.788 293.404L290.957 294.027L289.652 294.844L290.206 295.038H292.064L294.159 294.377L295.964 293.288L296.73 292.197Z" fill="url(#paint40_linear)"/>
<path d="M308.474 293.988L306.893 293.619H304.757L302.78 293.803L301.633 294.611L299.38 295.661L297.165 296.245L294.319 296.751H296.453H300.012H303.057L305.548 295.934L307.921 295.039L308.474 293.988Z" fill="url(#paint41_linear)"/>
<path d="M314.399 294.363L314.933 294.679L315.396 295.185H314.897L314.399 295.52L313.402 295.185L314.399 294.363Z" fill="url(#paint42_linear)"/>
<path d="M313.692 298.007L316.317 297.979L318.909 295.847H317.026L315.534 296.422L313.692 298.007Z" fill="url(#paint43_linear)"/>
<path d="M111.447 35.1424L113.693 38.1138L114.574 41.7286L114.68 45.0919L114.754 48.5497L114.876 51.7857L116.482 55.3982L118.714 58.5014L121.233 60.2709L124.852 63.0854L127.791 65.6782L129.088 68.2139L123.227 69.8472L118.616 69.1941L115.389 67.7748L112.573 63.8483L110.143 59.0964L108.904 53.991L109.469 48.9448L110.978 46.688L111.52 44.5925L111.804 42.4662L111.831 40.6254L111.439 38.8339L110.532 37.06L109.202 34.4618L107.946 33.0304L108.26 31.5935L108.719 32.6473L110.01 33.8284L109.879 33.0469L109.226 32.3257L108.818 31.9426L109.887 32.2905L110.415 32.9909L110.91 34.2917L111.447 35.1424Z" fill="url(#paint44_linear)"/>
<path d="M114.701 46.0697L115.168 45.4692L115.497 44.0312L115.914 45.1838L115.792 46.4056L114.73 47.4045L114.701 46.0697Z" fill="url(#paint45_linear)"/>
<path d="M111.181 45.8989L110.85 45.2513L110.761 44.192L110.315 44.8858L110.088 45.9439L110.511 47.3852L110.977 46.6882L111.181 45.8989Z" fill="url(#paint46_linear)"/>
<path d="M123.759 65.6949L120.938 63.3282L119.778 61.0615L118.267 57.8803L117.724 54.8145L118.829 56.9747L121.359 61.0044L122.385 63.6663L123.759 65.6949Z" fill="url(#paint47_linear)"/>
<path d="M118.616 69.194L116.645 69.2193L115.018 68.6298L113.133 67.3455L111.595 64.3378L110.074 60.9811L112.573 63.8483L113.724 65.4542L115.389 67.7747L118.616 69.194Z" fill="url(#paint48_linear)"/>
<path d="M126.907 65.9924L126.536 65.268L125.666 65.156L125.887 65.5896L126.907 65.9924Z" fill="url(#paint49_linear)"/>
<path d="M129.087 68.2137L126.629 67.5682L124.499 67.4266L123.115 68.273L124.423 68.3586L125.434 68.655L125.76 69.1412L127.46 68.667L129.087 68.2137Z" fill="url(#paint50_linear)"/>
<path d="M112.36 39.1742L112.559 40.2807L112.662 41.9174L112.462 43.4629L111.577 41.7318L111.565 40.6001L111.759 39.6528L112.36 39.1742Z" fill="url(#paint51_linear)"/>
<path d="M34.6294 754.087L32.3204 754.189L31.1729 754.31L25.6636 754.319L28.624 755.404L33.8629 756.111L38.0907 756.036L34.6294 754.087Z" fill="url(#paint52_linear)"/>
<path d="M16.4978 730.558L15.9288 728.518L15.5479 726.345L15 723.977L15.9923 721.359L15.9594 723.988L17.1468 726.12L17.0175 725.192L17.5348 723.28L17.7793 721L19.3172 724.206L18.8469 726.539L18.774 728.004L19.6323 731.368L21.5816 733.305L23.9471 735.055L26.1833 736.419L32.9318 740.861L37.0491 742.983L40.0189 744.955L42.5937 745.967L43.6448 746.828L45.4977 748.661L47.3106 750.411L48.19 752.09L50.8142 754.61L51.5173 756.022L49.7655 755.377L48.1736 755.402L45.8998 756.249L48.3523 757.12L49.4927 758.096L49.916 759.159L46.2995 759.254L43.1369 759.244L38.0908 756.036L34.6295 754.087L32.3345 753.245L29.2518 752.113L27.1967 749.907L25.5766 748.189L22.802 745.34L21.5698 743.328L20.6598 741.909L19.731 740.553L19.2584 738.888L18.6752 736.981L16.4978 730.558Z" fill="url(#paint53_linear)"/>
<path d="M18.6751 736.981L17.4665 736.537L15.6348 734.102L15.8723 731.479L16.4977 730.558L18.6751 736.981Z" fill="url(#paint54_linear)"/>
<path d="M19.7311 740.553L17.3984 740.712L19.4818 741.205L20.6599 741.909L19.7311 740.553Z" fill="url(#paint55_linear)"/>
<path d="M25.577 748.189L24.453 748.249L22.7271 749.717L24.721 750.448L27.1971 749.907L25.577 748.189Z" fill="url(#paint56_linear)"/>
<path d="M26.1836 736.419L27.3781 736.72L29.9152 737.653L31.6459 738.898L32.9321 740.861L26.1836 736.419Z" fill="url(#paint57_linear)"/>
<path d="M25.3416 740.02L24.2646 739.212L22.9996 738.458L21.4101 738.226L20.0416 738.074L18.5391 738.057L19.7453 738.749L20.8857 739.168L22.5787 739.789L24.3023 740.217L25.3416 740.02Z" fill="url(#paint58_linear)"/>
<path d="M32.1608 745.043L30.0915 744.529L27.9565 743.745L27.1335 744.476L26.1412 744.772L24.6387 745.087L25.0854 745.457L26.8137 746.092L28.9981 746.194L31.0627 745.795L32.1608 745.043Z" fill="url(#paint59_linear)"/>
<path d="M42.4597 750.724L41.1171 749.84L39.1302 749.108L37.2255 748.606L35.8735 748.965L33.4045 749.173L31.1378 748.96L28.3091 748.458L30.296 749.187L33.6091 750.405L36.4425 751.444L39.0502 751.536L41.5732 751.513L42.4597 750.724Z" fill="url(#paint60_linear)"/>
<path d="M47.8421 753.099L48.2277 753.575L48.4816 754.205L48.0161 754.034L47.4353 754.175L46.624 753.522L47.8421 753.099Z" fill="url(#paint61_linear)"/>
<path d="M45.8999 756.249L48.3524 757.119L51.5175 756.022L49.7656 755.376L48.1737 755.402L45.8999 756.249Z" fill="url(#paint62_linear)"/>
<path d="M51.3282 362.257L49.0191 362.359L47.8716 362.48L42.3623 362.489L45.3227 363.575L50.5616 364.281L54.7895 364.206L51.3282 362.257Z" fill="url(#paint63_linear)"/>
<path d="M33.1961 338.728L32.627 336.688L32.2461 334.515L31.6982 332.147L32.6905 329.529L32.6576 332.158L33.8451 334.29L33.7157 333.362L34.233 331.45L34.4776 329.17L36.0154 332.376L35.5451 334.709L35.4722 336.174L36.3305 339.538L38.2798 341.475L40.6453 343.225L42.8815 344.589L49.63 349.031L53.7473 351.153L56.7171 353.125L59.2919 354.137L60.343 354.998L62.1959 356.831L64.0088 358.581L64.8882 360.259L67.5124 362.78L68.2155 364.192L66.4637 363.546L64.8718 363.572L62.598 364.419L65.0505 365.289L66.1909 366.266L66.6142 367.329L62.9977 367.424L59.8351 367.414L54.789 364.206L51.3277 362.257L49.0328 361.415L45.9501 360.283L43.895 358.077L42.2748 356.359L39.5002 353.51L38.268 351.498L37.358 350.079L36.4293 348.723L35.9566 347.058L35.3735 345.151L33.1961 338.728Z" fill="url(#paint64_linear)"/>
<path d="M35.3734 345.151L34.1648 344.707L32.333 342.272L32.5705 339.649L33.196 338.728L35.3734 345.151Z" fill="url(#paint65_linear)"/>
<path d="M36.4293 348.723L34.0967 348.882L36.18 349.376L37.3581 350.079L36.4293 348.723Z" fill="url(#paint66_linear)"/>
<path d="M42.2747 356.359L41.1507 356.419L39.4248 357.887L41.4188 358.618L43.8948 358.077L42.2747 356.359Z" fill="url(#paint67_linear)"/>
<path d="M42.8813 344.589L44.0759 344.889L46.6131 345.822L48.3437 347.068L49.6299 349.031L42.8813 344.589Z" fill="url(#paint68_linear)"/>
<path d="M42.0399 348.19L40.963 347.382L39.6979 346.628L38.1084 346.396L36.7398 346.244L35.2373 346.227L36.4436 346.92L37.584 347.338L39.277 347.959L41.0006 348.387L42.0399 348.19Z" fill="url(#paint69_linear)"/>
<path d="M48.8586 353.213L46.7893 352.699L44.6542 351.915L43.8313 352.646L42.839 352.942L41.3364 353.257L41.7832 353.627L43.5115 354.262L45.6959 354.364L47.7605 353.965L48.8586 353.213Z" fill="url(#paint70_linear)"/>
<path d="M59.1581 358.894L57.8154 358.01L55.8285 357.278L53.9238 356.776L52.5718 357.135L50.1028 357.343L47.8361 357.13L45.0073 356.628L46.9943 357.357L50.3074 358.575L53.1408 359.614L55.7485 359.707L58.2716 359.683L59.1581 358.894Z" fill="url(#paint71_linear)"/>
<path d="M64.5403 361.269L64.926 361.746L65.1799 362.375L64.7143 362.204L64.1335 362.345L63.3223 361.692L64.5403 361.269Z" fill="url(#paint72_linear)"/>
<path d="M62.5981 364.419L65.0506 365.29L68.2156 364.192L66.4638 363.547L64.8719 363.572L62.5981 364.419Z" fill="url(#paint73_linear)"/>
<path d="M341.156 533.824L344.012 535.017L345.397 535.698L352.321 538.254H348.08L341.156 536.72L335.876 534.676L341.156 533.824Z" fill="url(#paint74_linear)"/>
<path d="M375.17 512.61L376.857 510.309L378.372 507.753L380.189 505.027V501.277L378.978 504.6L376.467 506.73L377.073 505.623L377.333 502.983L378.112 500L374.651 503.323L374.131 506.474L373.525 508.35L370.842 512.183L367.467 513.717L363.66 514.824L360.197 515.506L349.595 517.977L343.408 518.743L338.734 519.851L335.013 519.937L333.282 520.533L330.08 521.981L326.964 523.344L325.059 525.048L320.559 527.007L319.001 528.456H321.512L323.501 529.223L325.957 531.337L322.458 531.3L320.559 532L319.521 533.141L324.022 534.931L328.002 536.38L335.877 534.676L341.157 533.824H344.447H348.86L352.495 532L355.351 530.586L360.197 528.286L362.708 526.326L364.524 524.963L366.342 523.684L367.727 521.81L369.372 519.68L375.17 512.61Z" fill="url(#paint75_linear)"/>
<path d="M369.371 519.681H371.102L374.563 517.466L375.515 514.058L375.169 512.61L369.371 519.681Z" fill="url(#paint76_linear)"/>
<path d="M366.341 523.684L369.196 524.963L366.341 524.623L364.523 524.963L366.341 523.684Z" fill="url(#paint77_linear)"/>
<path d="M355.349 530.586L356.734 531.183L358.206 533.823H355.349L352.494 532L355.349 530.586Z" fill="url(#paint78_linear)"/>
<path d="M360.196 515.507L358.552 515.337H354.917L352.147 516.103L349.594 517.977L360.196 515.507Z" fill="url(#paint79_linear)"/>
<path d="M359.539 520.425L361.278 519.905L363.228 519.543L365.338 519.984L367.13 520.425L369.028 521.1L367.183 521.411H365.548H363.123L360.75 521.152L359.539 520.425Z" fill="url(#paint80_linear)"/>
<path d="M348.571 523.591L351.419 523.902H354.477L355.162 525.2L356.27 526.03L358.009 527.12L357.271 527.379H354.793L351.999 526.497L349.594 525.044L348.571 523.591Z" fill="url(#paint81_linear)"/>
<path d="M332.915 525.979L335.023 525.486H337.87L340.506 525.732L342.035 526.809L345.04 528.209L347.993 528.988L351.788 529.663H348.941H344.196H340.136L336.815 528.574L333.651 527.379L332.915 525.979Z" fill="url(#paint82_linear)"/>
<path d="M325.015 526.479L324.302 526.899L323.686 527.574H324.35L325.015 528.021L326.344 527.574L325.015 526.479Z" fill="url(#paint83_linear)"/>
<path d="M325.956 531.337L322.457 531.3L319 528.457H321.511L323.5 529.223L325.956 531.337Z" fill="url(#paint84_linear)"/>
<path d="M344.275 722.368L342.132 723.263L341.093 723.773L335.9 725.691H339.081L344.275 724.54L348.234 723.007L344.275 722.368Z" fill="url(#paint85_linear)"/>
<path d="M318.764 706.457L317.499 704.732L316.362 702.815L315 700.77V697.958L315.908 700.45L317.791 702.048L317.337 701.217L317.142 699.237L316.558 697L319.154 699.492L319.544 701.856L319.998 703.262L322.01 706.138L324.542 707.288L327.397 708.118L329.994 708.63L337.946 710.483L342.586 711.058L346.091 711.888L348.882 711.952L350.18 712.4L352.582 713.485L354.919 714.508L356.348 715.786L359.723 717.255L360.891 718.342H359.008L357.516 718.917L355.674 720.503L358.299 720.475L359.723 721L360.501 721.856L357.126 723.198L354.141 724.285L348.234 723.007L344.274 722.368H341.807H338.497L335.77 721L333.629 719.94L329.994 718.215L328.111 716.745L326.749 715.722L325.385 714.763L324.347 713.358L323.113 711.76L318.764 706.457Z" fill="url(#paint86_linear)"/>
<path d="M323.114 711.76H321.816L319.22 710.1L318.506 707.543L318.765 706.457L323.114 711.76Z" fill="url(#paint87_linear)"/>
<path d="M325.386 714.764L323.245 715.723L325.386 715.467L326.75 715.723L325.386 714.764Z" fill="url(#paint88_linear)"/>
<path d="M333.629 719.94L332.59 720.387L331.486 722.367H333.629L335.771 721L333.629 719.94Z" fill="url(#paint89_linear)"/>
<path d="M329.995 708.63L331.227 708.503H333.954L336.031 709.078L337.946 710.483L329.995 708.63Z" fill="url(#paint90_linear)"/>
<path d="M330.488 712.319L329.183 711.929L327.72 711.657L326.138 711.988L324.794 712.319L323.371 712.825L324.754 713.058H325.98H327.799L329.579 712.864L330.488 712.319Z" fill="url(#paint91_linear)"/>
<path d="M338.713 714.693L336.577 714.926H334.283L333.77 715.9L332.939 716.523L331.634 717.34L332.188 717.534H334.046L336.142 716.873L337.946 715.784L338.713 714.693Z" fill="url(#paint92_linear)"/>
<path d="M350.456 716.484L348.875 716.115H346.739L344.762 716.299L343.615 717.107L341.362 718.157L339.147 718.741L336.301 719.247H338.436H341.995H345.04L347.531 718.43L349.903 717.534L350.456 716.484Z" fill="url(#paint93_linear)"/>
<path d="M356.381 716.859L356.916 717.175L357.378 717.681H356.879L356.381 718.016L355.384 717.681L356.381 716.859Z" fill="url(#paint94_linear)"/>
<path d="M355.675 720.503L358.299 720.475L360.892 718.342H359.008L357.516 718.918L355.675 720.503Z" fill="url(#paint95_linear)"/>
<path d="M108.501 514.549L110.747 517.52L111.628 521.135L111.734 524.498L111.809 527.956L111.93 531.192L113.536 534.805L115.768 537.908L118.287 539.677L121.906 542.492L124.845 545.085L126.142 547.62L120.281 549.254L115.67 548.601L112.443 547.181L109.628 543.255L107.197 538.503L105.958 533.397L106.523 528.351L108.032 526.094L108.574 523.999L108.858 521.873L108.885 520.032L108.494 518.24L107.586 516.467L106.257 513.868L105 512.437L105.314 511L105.773 512.054L107.064 513.235L106.934 512.453L106.28 511.732L105.872 511.349L106.941 511.697L107.469 512.397L107.964 513.698L108.501 514.549Z" fill="url(#paint96_linear)"/>
<path d="M111.754 525.476L112.222 524.876L112.551 523.438L112.968 524.59L112.846 525.812L111.783 526.811L111.754 525.476Z" fill="url(#paint97_linear)"/>
<path d="M108.235 525.305L107.904 524.658L107.815 523.599L107.369 524.292L107.143 525.35L107.565 526.792L108.031 526.095L108.235 525.305Z" fill="url(#paint98_linear)"/>
<path d="M120.813 545.101L117.991 542.735L116.832 540.468L115.321 537.287L114.778 534.221L115.883 536.381L118.413 540.411L119.439 543.073L120.813 545.101Z" fill="url(#paint99_linear)"/>
<path d="M115.67 548.601L113.7 548.626L112.073 548.036L110.187 546.752L108.649 543.744L107.128 540.388L109.627 543.255L110.778 544.861L112.443 547.181L115.67 548.601Z" fill="url(#paint100_linear)"/>
<path d="M123.961 545.399L123.591 544.674L122.72 544.562L122.942 544.996L123.961 545.399Z" fill="url(#paint101_linear)"/>
<path d="M126.141 547.62L123.684 546.975L121.553 546.833L120.169 547.679L121.477 547.765L122.488 548.061L122.814 548.548L124.514 548.074L126.141 547.62Z" fill="url(#paint102_linear)"/>
<path d="M109.415 518.581L109.613 519.687L109.716 521.324L109.516 522.869L108.631 521.138L108.62 520.007L108.814 519.059L109.415 518.581Z" fill="url(#paint103_linear)"/>
<defs>
<linearGradient id="paint0_linear" x1="100.069" y1="236.877" x2="112.322" y2="236.871" gradientUnits="userSpaceOnUse">
<stop stop-color="#AEDFE6"/>
<stop offset="1" stop-color="#3E6972"/>
</linearGradient>
<linearGradient id="paint1_linear" x1="89.4049" y1="209.574" x2="122.645" y2="243.931" gradientUnits="userSpaceOnUse">
<stop stop-color="#AEDFE6"/>
<stop offset="1" stop-color="#4A737D"/>
</linearGradient>
<linearGradient id="paint2_linear" x1="89.46" y1="215.987" x2="93.9705" y2="215.212" gradientUnits="userSpaceOnUse">
<stop stop-color="#AEDFE6"/>
<stop offset="1" stop-color="#3E6972"/>
</linearGradient>
<linearGradient id="paint3_linear" x1="92.348" y1="222.478" x2="95.7414" y2="223.248" gradientUnits="userSpaceOnUse">
<stop stop-color="#AEDFE6"/>
<stop offset="1" stop-color="#3E6972"/>
</linearGradient>
<linearGradient id="paint4_linear" x1="97.4259" y1="231.602" x2="101.538" y2="230.522" gradientUnits="userSpaceOnUse">
<stop stop-color="#AEDFE6"/>
<stop offset="1" stop-color="#3E6972"/>
</linearGradient>
<linearGradient id="paint5_linear" x1="104.787" y1="219.371" x2="103.728" y2="221.041" gradientUnits="userSpaceOnUse">
<stop stop-color="#AEDFE6"/>
<stop offset="1" stop-color="#3E6972"/>
</linearGradient>
<linearGradient id="paint6_linear" x1="93.6297" y1="219.858" x2="100.414" y2="221.822" gradientUnits="userSpaceOnUse">
<stop stop-color="#AEDFE6"/>
<stop offset="1" stop-color="#3E6972"/>
</linearGradient>
<linearGradient id="paint7_linear" x1="99.4245" y1="226.903" x2="106.449" y2="226.581" gradientUnits="userSpaceOnUse">
<stop stop-color="#AEDFE6"/>
<stop offset="1" stop-color="#3E6972"/>
</linearGradient>
<linearGradient id="paint8_linear" x1="103.69" y1="230.681" x2="118.983" y2="232.976" gradientUnits="userSpaceOnUse">
<stop stop-color="#AEDFE6"/>
<stop offset="1" stop-color="#3E6972"/>
</linearGradient>
<linearGradient id="paint9_linear" x1="122.649" y1="236.796" x2="121.858" y2="235.02" gradientUnits="userSpaceOnUse">
<stop stop-color="#AEDFE6"/>
<stop offset="1" stop-color="#3E6972"/>
</linearGradient>
<linearGradient id="paint10_linear" x1="123.648" y1="239.122" x2="123.228" y2="237.787" gradientUnits="userSpaceOnUse">
<stop stop-color="#AEDFE6"/>
<stop offset="1" stop-color="#3E6972"/>
</linearGradient>
<linearGradient id="paint11_linear" x1="11.016" y1="34.0875" x2="23.2687" y2="34.0816" gradientUnits="userSpaceOnUse">
<stop stop-color="#AEDFE6"/>
<stop offset="1" stop-color="#3E6972"/>
</linearGradient>
<linearGradient id="paint12_linear" x1="0.351238" y1="6.78429" x2="33.5909" y2="41.1418" gradientUnits="userSpaceOnUse">
<stop stop-color="#AEDFE6"/>
<stop offset="1" stop-color="#4A737D"/>
</linearGradient>
<linearGradient id="paint13_linear" x1="0.406235" y1="13.1973" x2="4.91681" y2="12.4224" gradientUnits="userSpaceOnUse">
<stop stop-color="#AEDFE6"/>
<stop offset="1" stop-color="#3E6972"/>
</linearGradient>
<linearGradient id="paint14_linear" x1="3.29481" y1="19.6887" x2="6.6882" y2="20.4588" gradientUnits="userSpaceOnUse">
<stop stop-color="#AEDFE6"/>
<stop offset="1" stop-color="#3E6972"/>
</linearGradient>
<linearGradient id="paint15_linear" x1="8.37264" y1="28.8122" x2="12.4851" y2="27.732" gradientUnits="userSpaceOnUse">
<stop stop-color="#AEDFE6"/>
<stop offset="1" stop-color="#3E6972"/>
</linearGradient>
<linearGradient id="paint16_linear" x1="15.733" y1="16.581" x2="14.6746" y2="18.2507" gradientUnits="userSpaceOnUse">
<stop stop-color="#AEDFE6"/>
<stop offset="1" stop-color="#3E6972"/>
</linearGradient>
<linearGradient id="paint17_linear" x1="4.5765" y1="17.069" x2="11.3608" y2="19.0324" gradientUnits="userSpaceOnUse">
<stop stop-color="#AEDFE6"/>
<stop offset="1" stop-color="#3E6972"/>
</linearGradient>
<linearGradient id="paint18_linear" x1="10.3708" y1="24.1133" x2="17.3951" y2="23.7913" gradientUnits="userSpaceOnUse">
<stop stop-color="#AEDFE6"/>
<stop offset="1" stop-color="#3E6972"/>
</linearGradient>
<linearGradient id="paint19_linear" x1="14.6369" y1="27.8915" x2="29.9298" y2="30.1868" gradientUnits="userSpaceOnUse">
<stop stop-color="#AEDFE6"/>
<stop offset="1" stop-color="#3E6972"/>
</linearGradient>
<linearGradient id="paint20_linear" x1="33.5954" y1="34.0062" x2="32.8046" y2="32.2307" gradientUnits="userSpaceOnUse">
<stop stop-color="#AEDFE6"/>
<stop offset="1" stop-color="#3E6972"/>
</linearGradient>
<linearGradient id="paint21_linear" x1="34.5946" y1="36.3328" x2="34.1746" y2="34.9978" gradientUnits="userSpaceOnUse">
<stop stop-color="#AEDFE6"/>
<stop offset="1" stop-color="#3E6972"/>
</linearGradient>
<linearGradient id="paint22_linear" x1="352.123" y1="51.3061" x2="336.78" y2="45.4818" gradientUnits="userSpaceOnUse">
<stop stop-color="#AEDFE6"/>
<stop offset="1" stop-color="#3E6972"/>
</linearGradient>
<linearGradient id="paint23_linear" x1="378.546" y1="21.9016" x2="320.279" y2="49.5454" gradientUnits="userSpaceOnUse">
<stop stop-color="#AEDFE6"/>
<stop offset="1" stop-color="#4A737D"/>
</linearGradient>
<linearGradient id="paint24_linear" x1="375.419" y1="29.9397" x2="370.143" y2="26.8377" gradientUnits="userSpaceOnUse">
<stop stop-color="#AEDFE6"/>
<stop offset="1" stop-color="#3E6972"/>
</linearGradient>
<linearGradient id="paint25_linear" x1="368.693" y1="36.7673" x2="364.066" y2="36.1177" gradientUnits="userSpaceOnUse">
<stop stop-color="#AEDFE6"/>
<stop offset="1" stop-color="#3E6972"/>
</linearGradient>
<linearGradient id="paint26_linear" x1="357.96" y1="45.8939" x2="353.327" y2="42.6034" gradientUnits="userSpaceOnUse">
<stop stop-color="#AEDFE6"/>
<stop offset="1" stop-color="#3E6972"/>
</linearGradient>
<linearGradient id="paint27_linear" x1="354.535" y1="27.1157" x2="355.09" y2="29.6995" gradientUnits="userSpaceOnUse">
<stop stop-color="#AEDFE6"/>
<stop offset="1" stop-color="#3E6972"/>
</linearGradient>
<linearGradient id="paint28_linear" x1="368.33" y1="32.8815" x2="358.872" y2="32.115" gradientUnits="userSpaceOnUse">
<stop stop-color="#AEDFE6"/>
<stop offset="1" stop-color="#3E6972"/>
</linearGradient>
<linearGradient id="paint29_linear" x1="357.687" y1="39.0628" x2="349.045" y2="35.3282" gradientUnits="userSpaceOnUse">
<stop stop-color="#AEDFE6"/>
<stop offset="1" stop-color="#3E6972"/>
</linearGradient>
<linearGradient id="paint30_linear" x1="350.523" y1="41.843" x2="330.249" y2="37.4434" gradientUnits="userSpaceOnUse">
<stop stop-color="#AEDFE6"/>
<stop offset="1" stop-color="#3E6972"/>
</linearGradient>
<linearGradient id="paint31_linear" x1="323.771" y1="40.7752" x2="325.604" y2="38.9006" gradientUnits="userSpaceOnUse">
<stop stop-color="#AEDFE6"/>
<stop offset="1" stop-color="#3E6972"/>
</linearGradient>
<linearGradient id="paint32_linear" x1="321.405" y1="43.239" x2="322.56" y2="41.7474" gradientUnits="userSpaceOnUse">
<stop stop-color="#AEDFE6"/>
<stop offset="1" stop-color="#3E6972"/>
</linearGradient>
<linearGradient id="paint33_linear" x1="294.066" y1="303.984" x2="305.574" y2="299.616" gradientUnits="userSpaceOnUse">
<stop stop-color="#AEDFE6"/>
<stop offset="1" stop-color="#3E6972"/>
</linearGradient>
<linearGradient id="paint34_linear" x1="274.25" y1="281.93" x2="317.949" y2="302.663" gradientUnits="userSpaceOnUse">
<stop stop-color="#AEDFE6"/>
<stop offset="1" stop-color="#4A737D"/>
</linearGradient>
<linearGradient id="paint35_linear" x1="276.595" y1="287.959" x2="280.552" y2="285.632" gradientUnits="userSpaceOnUse">
<stop stop-color="#AEDFE6"/>
<stop offset="1" stop-color="#3E6972"/>
</linearGradient>
<linearGradient id="paint36_linear" x1="281.639" y1="293.08" x2="285.109" y2="292.593" gradientUnits="userSpaceOnUse">
<stop stop-color="#AEDFE6"/>
<stop offset="1" stop-color="#3E6972"/>
</linearGradient>
<linearGradient id="paint37_linear" x1="289.689" y1="299.924" x2="293.163" y2="297.456" gradientUnits="userSpaceOnUse">
<stop stop-color="#AEDFE6"/>
<stop offset="1" stop-color="#3E6972"/>
</linearGradient>
<linearGradient id="paint38_linear" x1="292.258" y1="285.841" x2="291.842" y2="287.779" gradientUnits="userSpaceOnUse">
<stop stop-color="#AEDFE6"/>
<stop offset="1" stop-color="#3E6972"/>
</linearGradient>
<linearGradient id="paint39_linear" x1="281.912" y1="290.165" x2="289.006" y2="289.591" gradientUnits="userSpaceOnUse">
<stop stop-color="#AEDFE6"/>
<stop offset="1" stop-color="#3E6972"/>
</linearGradient>
<linearGradient id="paint40_linear" x1="289.894" y1="294.801" x2="296.375" y2="292" gradientUnits="userSpaceOnUse">
<stop stop-color="#AEDFE6"/>
<stop offset="1" stop-color="#3E6972"/>
</linearGradient>
<linearGradient id="paint41_linear" x1="295.267" y1="296.886" x2="310.473" y2="293.587" gradientUnits="userSpaceOnUse">
<stop stop-color="#AEDFE6"/>
<stop offset="1" stop-color="#3E6972"/>
</linearGradient>
<linearGradient id="paint42_linear" x1="315.332" y1="296.086" x2="313.957" y2="294.68" gradientUnits="userSpaceOnUse">
<stop stop-color="#AEDFE6"/>
<stop offset="1" stop-color="#3E6972"/>
</linearGradient>
<linearGradient id="paint43_linear" x1="317.105" y1="297.933" x2="316.239" y2="296.815" gradientUnits="userSpaceOnUse">
<stop stop-color="#AEDFE6"/>
<stop offset="1" stop-color="#3E6972"/>
</linearGradient>
<linearGradient id="paint44_linear" x1="104.236" y1="33.5874" x2="122.914" y2="71.2739" gradientUnits="userSpaceOnUse">
<stop stop-color="#AEDFE6"/>
<stop offset="1" stop-color="#4A737D"/>
</linearGradient>
<linearGradient id="paint45_linear" x1="115.729" y1="44.982" x2="114.793" y2="47.4919" gradientUnits="userSpaceOnUse">
<stop stop-color="#AEDFE6"/>
<stop offset="1" stop-color="#4A737D"/>
</linearGradient>
<linearGradient id="paint46_linear" x1="110.239" y1="44.4961" x2="111.021" y2="47.1282" gradientUnits="userSpaceOnUse">
<stop stop-color="#AEDFE6"/>
<stop offset="1" stop-color="#4A737D"/>
</linearGradient>
<linearGradient id="paint47_linear" x1="117.057" y1="55.173" x2="123.192" y2="65.9976" gradientUnits="userSpaceOnUse">
<stop stop-color="#AEDFE6"/>
<stop offset="1" stop-color="#4A737D"/>
</linearGradient>
<linearGradient id="paint48_linear" x1="109.609" y1="62.1751" x2="117.667" y2="70.2663" gradientUnits="userSpaceOnUse">
<stop stop-color="#AEDFE6"/>
<stop offset="1" stop-color="#4A737D"/>
</linearGradient>
<linearGradient id="paint49_linear" x1="126.881" y1="66.0811" x2="125.958" y2="65.1553" gradientUnits="userSpaceOnUse">
<stop stop-color="#AEDFE6"/>
<stop offset="1" stop-color="#3E6972"/>
</linearGradient>
<linearGradient id="paint50_linear" x1="126.074" y1="70.5383" x2="126.111" y2="67.1422" gradientUnits="userSpaceOnUse">
<stop offset="0.5826" stop-color="#AEDFE6"/>
<stop offset="1" stop-color="#4A737D"/>
</linearGradient>
<linearGradient id="paint51_linear" x1="112.165" y1="39.5504" x2="112.051" y2="43.4249" gradientUnits="userSpaceOnUse">
<stop stop-color="#AEDFE6"/>
<stop offset="1" stop-color="#4A737D"/>
</linearGradient>
<linearGradient id="paint52_linear" x1="25.5185" y1="755.087" x2="37.7711" y2="755.082" gradientUnits="userSpaceOnUse">
<stop stop-color="#AEDFE6"/>
<stop offset="1" stop-color="#3E6972"/>
</linearGradient>
<linearGradient id="paint53_linear" x1="14.8542" y1="727.784" x2="48.0939" y2="762.142" gradientUnits="userSpaceOnUse">
<stop stop-color="#AEDFE6"/>
<stop offset="1" stop-color="#4A737D"/>
</linearGradient>
<linearGradient id="paint54_linear" x1="14.9092" y1="734.197" x2="19.4197" y2="733.422" gradientUnits="userSpaceOnUse">
<stop stop-color="#AEDFE6"/>
<stop offset="1" stop-color="#3E6972"/>
</linearGradient>
<linearGradient id="paint55_linear" x1="17.7977" y1="740.689" x2="21.1912" y2="741.459" gradientUnits="userSpaceOnUse">
<stop stop-color="#AEDFE6"/>
<stop offset="1" stop-color="#3E6972"/>
</linearGradient>
<linearGradient id="paint56_linear" x1="22.8761" y1="749.812" x2="26.9885" y2="748.732" gradientUnits="userSpaceOnUse">
<stop stop-color="#AEDFE6"/>
<stop offset="1" stop-color="#3E6972"/>
</linearGradient>
<linearGradient id="paint57_linear" x1="30.2363" y1="737.582" x2="29.1779" y2="739.251" gradientUnits="userSpaceOnUse">
<stop stop-color="#AEDFE6"/>
<stop offset="1" stop-color="#3E6972"/>
</linearGradient>
<linearGradient id="paint58_linear" x1="19.0799" y1="738.069" x2="25.8642" y2="740.032" gradientUnits="userSpaceOnUse">
<stop stop-color="#AEDFE6"/>
<stop offset="1" stop-color="#3E6972"/>
</linearGradient>
<linearGradient id="paint59_linear" x1="24.8742" y1="745.113" x2="31.8984" y2="744.791" gradientUnits="userSpaceOnUse">
<stop stop-color="#AEDFE6"/>
<stop offset="1" stop-color="#3E6972"/>
</linearGradient>
<linearGradient id="paint60_linear" x1="29.1398" y1="748.891" x2="44.4326" y2="751.187" gradientUnits="userSpaceOnUse">
<stop stop-color="#AEDFE6"/>
<stop offset="1" stop-color="#3E6972"/>
</linearGradient>
<linearGradient id="paint61_linear" x1="48.0983" y1="755.006" x2="47.3075" y2="753.231" gradientUnits="userSpaceOnUse">
<stop stop-color="#AEDFE6"/>
<stop offset="1" stop-color="#3E6972"/>
</linearGradient>
<linearGradient id="paint62_linear" x1="49.0976" y1="757.333" x2="48.6775" y2="755.998" gradientUnits="userSpaceOnUse">
<stop stop-color="#AEDFE6"/>
<stop offset="1" stop-color="#3E6972"/>
</linearGradient>
<linearGradient id="paint63_linear" x1="42.2172" y1="363.257" x2="54.4699" y2="363.252" gradientUnits="userSpaceOnUse">
<stop stop-color="#AEDFE6"/>
<stop offset="1" stop-color="#3E6972"/>
</linearGradient>
<linearGradient id="paint64_linear" x1="31.5524" y1="335.954" x2="64.7921" y2="370.312" gradientUnits="userSpaceOnUse">
<stop stop-color="#AEDFE6"/>
<stop offset="1" stop-color="#4A737D"/>
</linearGradient>
<linearGradient id="paint65_linear" x1="31.6074" y1="342.367" x2="36.118" y2="341.592" gradientUnits="userSpaceOnUse">
<stop stop-color="#AEDFE6"/>
<stop offset="1" stop-color="#3E6972"/>
</linearGradient>
<linearGradient id="paint66_linear" x1="34.496" y1="348.859" x2="37.8894" y2="349.629" gradientUnits="userSpaceOnUse">
<stop stop-color="#AEDFE6"/>
<stop offset="1" stop-color="#3E6972"/>
</linearGradient>
<linearGradient id="paint67_linear" x1="39.5738" y1="357.982" x2="43.6863" y2="356.902" gradientUnits="userSpaceOnUse">
<stop stop-color="#AEDFE6"/>
<stop offset="1" stop-color="#3E6972"/>
</linearGradient>
<linearGradient id="paint68_linear" x1="46.9341" y1="345.751" x2="45.8757" y2="347.421" gradientUnits="userSpaceOnUse">
<stop stop-color="#AEDFE6"/>
<stop offset="1" stop-color="#3E6972"/>
</linearGradient>
<linearGradient id="paint69_linear" x1="35.7782" y1="346.239" x2="42.5625" y2="348.202" gradientUnits="userSpaceOnUse">
<stop stop-color="#AEDFE6"/>
<stop offset="1" stop-color="#3E6972"/>
</linearGradient>
<linearGradient id="paint70_linear" x1="41.5719" y1="353.283" x2="48.5962" y2="352.961" gradientUnits="userSpaceOnUse">
<stop stop-color="#AEDFE6"/>
<stop offset="1" stop-color="#3E6972"/>
</linearGradient>
<linearGradient id="paint71_linear" x1="45.838" y1="357.061" x2="61.1309" y2="359.357" gradientUnits="userSpaceOnUse">
<stop stop-color="#AEDFE6"/>
<stop offset="1" stop-color="#3E6972"/>
</linearGradient>
<linearGradient id="paint72_linear" x1="64.7966" y1="363.176" x2="64.0058" y2="361.401" gradientUnits="userSpaceOnUse">
<stop stop-color="#AEDFE6"/>
<stop offset="1" stop-color="#3E6972"/>
</linearGradient>
<linearGradient id="paint73_linear" x1="65.7958" y1="365.503" x2="65.3757" y2="364.168" gradientUnits="userSpaceOnUse">
<stop stop-color="#AEDFE6"/>
<stop offset="1" stop-color="#3E6972"/>
</linearGradient>
<linearGradient id="paint74_linear" x1="352.123" y1="539.306" x2="336.78" y2="533.482" gradientUnits="userSpaceOnUse">
<stop stop-color="#AEDFE6"/>
<stop offset="1" stop-color="#3E6972"/>
</linearGradient>
<linearGradient id="paint75_linear" x1="378.546" y1="509.902" x2="320.279" y2="537.545" gradientUnits="userSpaceOnUse">
<stop stop-color="#AEDFE6"/>
<stop offset="1" stop-color="#4A737D"/>
</linearGradient>
<linearGradient id="paint76_linear" x1="375.419" y1="517.94" x2="370.143" y2="514.838" gradientUnits="userSpaceOnUse">
<stop stop-color="#AEDFE6"/>
<stop offset="1" stop-color="#3E6972"/>
</linearGradient>
<linearGradient id="paint77_linear" x1="368.693" y1="524.767" x2="364.066" y2="524.118" gradientUnits="userSpaceOnUse">
<stop stop-color="#AEDFE6"/>
<stop offset="1" stop-color="#3E6972"/>
</linearGradient>
<linearGradient id="paint78_linear" x1="357.96" y1="533.894" x2="353.327" y2="530.603" gradientUnits="userSpaceOnUse">
<stop stop-color="#AEDFE6"/>
<stop offset="1" stop-color="#3E6972"/>
</linearGradient>
<linearGradient id="paint79_linear" x1="354.535" y1="515.116" x2="355.09" y2="517.7" gradientUnits="userSpaceOnUse">
<stop stop-color="#AEDFE6"/>
<stop offset="1" stop-color="#3E6972"/>
</linearGradient>
<linearGradient id="paint80_linear" x1="368.33" y1="520.881" x2="358.872" y2="520.115" gradientUnits="userSpaceOnUse">
<stop stop-color="#AEDFE6"/>
<stop offset="1" stop-color="#3E6972"/>
</linearGradient>
<linearGradient id="paint81_linear" x1="357.687" y1="527.063" x2="349.045" y2="523.328" gradientUnits="userSpaceOnUse">
<stop stop-color="#AEDFE6"/>
<stop offset="1" stop-color="#3E6972"/>
</linearGradient>
<linearGradient id="paint82_linear" x1="350.523" y1="529.843" x2="330.249" y2="525.443" gradientUnits="userSpaceOnUse">
<stop stop-color="#AEDFE6"/>
<stop offset="1" stop-color="#3E6972"/>
</linearGradient>
<linearGradient id="paint83_linear" x1="323.771" y1="528.775" x2="325.604" y2="526.901" gradientUnits="userSpaceOnUse">
<stop stop-color="#AEDFE6"/>
<stop offset="1" stop-color="#3E6972"/>
</linearGradient>
<linearGradient id="paint84_linear" x1="321.405" y1="531.239" x2="322.56" y2="529.747" gradientUnits="userSpaceOnUse">
<stop stop-color="#AEDFE6"/>
<stop offset="1" stop-color="#3E6972"/>
</linearGradient>
<linearGradient id="paint85_linear" x1="336.049" y1="726.48" x2="347.556" y2="722.112" gradientUnits="userSpaceOnUse">
<stop stop-color="#AEDFE6"/>
<stop offset="1" stop-color="#3E6972"/>
</linearGradient>
<linearGradient id="paint86_linear" x1="316.233" y1="704.426" x2="359.932" y2="725.159" gradientUnits="userSpaceOnUse">
<stop stop-color="#AEDFE6"/>
<stop offset="1" stop-color="#4A737D"/>
</linearGradient>
<linearGradient id="paint87_linear" x1="318.578" y1="710.455" x2="322.535" y2="708.128" gradientUnits="userSpaceOnUse">
<stop stop-color="#AEDFE6"/>
<stop offset="1" stop-color="#3E6972"/>
</linearGradient>
<linearGradient id="paint88_linear" x1="323.622" y1="715.576" x2="327.092" y2="715.089" gradientUnits="userSpaceOnUse">
<stop stop-color="#AEDFE6"/>
<stop offset="1" stop-color="#3E6972"/>
</linearGradient>
<linearGradient id="paint89_linear" x1="331.671" y1="722.42" x2="335.146" y2="719.952" gradientUnits="userSpaceOnUse">
<stop stop-color="#AEDFE6"/>
<stop offset="1" stop-color="#3E6972"/>
</linearGradient>
<linearGradient id="paint90_linear" x1="334.241" y1="708.337" x2="333.824" y2="710.275" gradientUnits="userSpaceOnUse">
<stop stop-color="#AEDFE6"/>
<stop offset="1" stop-color="#3E6972"/>
</linearGradient>
<linearGradient id="paint91_linear" x1="323.894" y1="712.661" x2="330.988" y2="712.086" gradientUnits="userSpaceOnUse">
<stop stop-color="#AEDFE6"/>
<stop offset="1" stop-color="#3E6972"/>
</linearGradient>
<linearGradient id="paint92_linear" x1="331.876" y1="717.297" x2="338.358" y2="714.496" gradientUnits="userSpaceOnUse">
<stop stop-color="#AEDFE6"/>
<stop offset="1" stop-color="#3E6972"/>
</linearGradient>
<linearGradient id="paint93_linear" x1="337.25" y1="719.382" x2="352.456" y2="716.083" gradientUnits="userSpaceOnUse">
<stop stop-color="#AEDFE6"/>
<stop offset="1" stop-color="#3E6972"/>
</linearGradient>
<linearGradient id="paint94_linear" x1="357.314" y1="718.582" x2="355.939" y2="717.176" gradientUnits="userSpaceOnUse">
<stop stop-color="#AEDFE6"/>
<stop offset="1" stop-color="#3E6972"/>
</linearGradient>
<linearGradient id="paint95_linear" x1="359.088" y1="720.429" x2="358.221" y2="719.311" gradientUnits="userSpaceOnUse">
<stop stop-color="#AEDFE6"/>
<stop offset="1" stop-color="#3E6972"/>
</linearGradient>
<linearGradient id="paint96_linear" x1="101.29" y1="512.994" x2="119.969" y2="550.68" gradientUnits="userSpaceOnUse">
<stop stop-color="#AEDFE6"/>
<stop offset="1" stop-color="#4A737D"/>
</linearGradient>
<linearGradient id="paint97_linear" x1="112.782" y1="524.389" x2="111.847" y2="526.898" gradientUnits="userSpaceOnUse">
<stop stop-color="#AEDFE6"/>
<stop offset="1" stop-color="#4A737D"/>
</linearGradient>
<linearGradient id="paint98_linear" x1="107.294" y1="523.903" x2="108.075" y2="526.535" gradientUnits="userSpaceOnUse">
<stop stop-color="#AEDFE6"/>
<stop offset="1" stop-color="#4A737D"/>
</linearGradient>
<linearGradient id="paint99_linear" x1="114.111" y1="534.58" x2="120.246" y2="545.404" gradientUnits="userSpaceOnUse">
<stop stop-color="#AEDFE6"/>
<stop offset="1" stop-color="#4A737D"/>
</linearGradient>
<linearGradient id="paint100_linear" x1="106.663" y1="541.582" x2="114.721" y2="549.673" gradientUnits="userSpaceOnUse">
<stop stop-color="#AEDFE6"/>
<stop offset="1" stop-color="#4A737D"/>
</linearGradient>
<linearGradient id="paint101_linear" x1="123.935" y1="545.488" x2="123.012" y2="544.562" gradientUnits="userSpaceOnUse">
<stop stop-color="#AEDFE6"/>
<stop offset="1" stop-color="#3E6972"/>
</linearGradient>
<linearGradient id="paint102_linear" x1="123.128" y1="549.945" x2="123.166" y2="546.549" gradientUnits="userSpaceOnUse">
<stop offset="0.5826" stop-color="#AEDFE6"/>
<stop offset="1" stop-color="#4A737D"/>
</linearGradient>
<linearGradient id="paint103_linear" x1="109.219" y1="518.957" x2="109.105" y2="522.831" gradientUnits="userSpaceOnUse">
<stop stop-color="#AEDFE6"/>
<stop offset="1" stop-color="#4A737D"/>
</linearGradient>
</defs>
</svg>
