<svg width="1140" height="604" viewBox="0 0 1140 604" fill="none" xmlns="http://www.w3.org/2000/svg">
<path d="M142.318 457.351L138.765 457.508L137 457.693L128.524 457.707L133.079 459.377L141.138 460.464L147.642 460.35L142.318 457.351Z" fill="url(#paint0_linear)"/>
<path d="M114.424 421.153L113.548 418.016L112.962 414.672L112.12 411.029L113.646 407.001L113.596 411.047L115.422 414.327L115.223 412.899L116.019 409.957L116.395 406.45L118.761 411.382L118.038 414.971L117.926 417.225L119.246 422.399L122.245 425.38L125.884 428.072L129.324 430.17L139.706 437.003L146.04 440.269L150.609 443.303L154.57 444.859L156.187 446.184L159.037 449.004L161.826 451.696L163.179 454.278L167.216 458.156L168.298 460.328L165.603 459.334L163.154 459.374L159.656 460.677L163.429 462.016L165.183 463.519L165.834 465.153L160.271 465.299L155.405 465.285L147.643 460.349L142.318 457.351L138.787 456.055L134.045 454.313L130.883 450.92L128.391 448.277L124.122 443.894L122.227 440.799L120.827 438.616L119.398 436.53L118.671 433.969L117.774 431.035L114.424 421.153Z" fill="url(#paint1_linear)"/>
<path d="M117.773 431.035L115.914 430.351L113.096 426.605L113.462 422.57L114.424 421.153L117.773 431.035Z" fill="url(#paint2_linear)"/>
<path d="M119.398 436.529L115.81 436.775L119.015 437.534L120.827 438.616L119.398 436.529Z" fill="url(#paint3_linear)"/>
<path d="M128.391 448.277L126.662 448.37L124.006 450.627L127.074 451.753L130.883 450.919L128.391 448.277Z" fill="url(#paint4_linear)"/>
<path d="M129.324 430.17L131.162 430.633L135.065 432.068L137.727 433.984L139.706 437.004L129.324 430.17Z" fill="url(#paint5_linear)"/>
<path d="M128.028 435.71L126.372 434.467L124.426 433.307L121.98 432.95L119.875 432.715L117.563 432.69L119.419 433.755L121.174 434.4L123.778 435.354L126.43 436.013L128.028 435.71Z" fill="url(#paint6_linear)"/>
<path d="M138.519 443.437L135.336 442.647L132.051 441.44L130.785 442.565L129.259 443.021L126.947 443.505L127.635 444.075L130.293 445.051L133.654 445.207L136.83 444.595L138.519 443.437Z" fill="url(#paint7_linear)"/>
<path d="M154.364 452.177L152.298 450.817L149.241 449.691L146.311 448.919L144.231 449.471L140.433 449.791L136.946 449.463L132.594 448.691L135.651 449.812L140.748 451.686L145.107 453.284L149.118 453.427L153 453.391L154.364 452.177Z" fill="url(#paint8_linear)"/>
<path d="M162.643 455.83L163.237 456.564L163.627 457.532L162.911 457.269L162.018 457.486L160.77 456.482L162.643 455.83Z" fill="url(#paint9_linear)"/>
<path d="M159.656 460.677L163.429 462.016L168.298 460.328L165.603 459.334L163.154 459.373L159.656 460.677Z" fill="url(#paint10_linear)"/>
<path d="M30.1984 153.93L26.6461 154.086L24.8808 154.272L16.4053 154.286L20.9596 155.956L29.0192 157.042L35.5232 156.928L30.1984 153.93Z" fill="url(#paint11_linear)"/>
<path d="M2.30428 117.731L1.42886 114.594L0.842838 111.25L0 107.607L1.52653 103.58L1.47588 107.625L3.30267 110.905L3.10371 109.477L3.89955 106.535L4.27575 103.028L6.64154 107.96L5.91806 111.549L5.80592 113.803L7.12626 118.978L10.1251 121.958L13.7642 124.65L17.2044 126.748L27.5863 133.581L33.9204 136.847L38.4891 139.881L42.4502 141.437L44.0672 142.762L46.9177 145.582L49.7067 148.274L51.0596 150.856L55.0966 154.734L56.1782 156.906L53.4833 155.913L51.0343 155.952L47.5363 157.255L51.3092 158.594L53.0636 160.097L53.7148 161.731L48.1512 161.877L43.2858 161.863L35.5229 156.927L30.1981 153.929L26.6675 152.633L21.9251 150.892L18.7635 147.498L16.2711 144.856L12.0025 140.472L10.107 137.377L8.70706 135.194L7.27821 133.108L6.55111 130.547L5.65398 127.613L2.30428 117.731Z" fill="url(#paint12_linear)"/>
<path d="M5.65394 127.613L3.79458 126.93L0.976562 123.183L1.34193 119.149L2.30419 117.731L5.65394 127.613Z" fill="url(#paint13_linear)"/>
<path d="M7.27842 133.108L3.68994 133.354L6.89498 134.112L8.70728 135.195L7.27842 133.108Z" fill="url(#paint14_linear)"/>
<path d="M16.2705 144.855L14.5414 144.948L11.8862 147.206L14.9538 148.331L18.7629 147.498L16.2705 144.855Z" fill="url(#paint15_linear)"/>
<path d="M17.2046 126.748L19.0422 127.211L22.9455 128.646L25.6079 130.561L27.5866 133.581L17.2046 126.748Z" fill="url(#paint16_linear)"/>
<path d="M15.909 132.289L14.2522 131.046L12.3061 129.885L9.86069 129.529L7.75535 129.294L5.44385 129.269L7.29958 130.334L9.05401 130.978L11.6585 131.933L14.3101 132.591L15.909 132.289Z" fill="url(#paint17_linear)"/>
<path d="M26.3997 140.016L23.2164 139.225L19.9318 138.018L18.6657 139.143L17.1391 139.599L14.8276 140.084L15.5149 140.653L18.1737 141.629L21.5343 141.786L24.7104 141.173L26.3997 140.016Z" fill="url(#paint18_linear)"/>
<path d="M42.2442 148.755L40.1786 147.395L37.1219 146.27L34.1918 145.497L32.1118 146.049L28.3135 146.369L24.8263 146.042L20.4746 145.269L23.5313 146.391L28.6282 148.264L32.9872 149.863L36.9989 150.005L40.8804 149.97L42.2442 148.755Z" fill="url(#paint19_linear)"/>
<path d="M50.5243 152.409L51.1175 153.142L51.5082 154.111L50.7919 153.847L49.8984 154.064L48.6504 153.06L50.5243 152.409Z" fill="url(#paint20_linear)"/>
<path d="M47.5366 157.255L51.3096 158.594L56.1786 156.906L53.4836 155.913L51.0346 155.952L47.5366 157.255Z" fill="url(#paint21_linear)"/>
<path d="M924.478 186.643L920.925 186.8L919.16 186.985L910.685 186.999L915.239 188.669L923.298 189.755L929.803 189.641L924.478 186.643Z" fill="url(#paint22_linear)"/>
<path d="M896.584 150.445L895.708 147.308L895.122 143.964L894.28 140.321L895.806 136.294L895.755 140.339L897.582 143.619L897.383 142.191L898.179 139.249L898.555 135.742L900.921 140.674L900.198 144.263L900.085 146.517L901.406 151.691L904.405 154.672L908.044 157.364L911.484 159.462L921.866 166.295L928.2 169.561L932.769 172.595L936.73 174.151L938.347 175.476L941.197 178.296L943.986 180.988L945.339 183.57L949.376 187.448L950.458 189.62L947.763 188.626L945.314 188.666L941.816 189.969L945.589 191.308L947.343 192.811L947.994 194.445L942.431 194.591L937.565 194.577L929.802 189.641L924.477 186.643L920.947 185.347L916.205 183.605L913.043 180.212L910.551 177.569L906.282 173.186L904.387 170.091L902.987 167.908L901.558 165.822L900.831 163.261L899.933 160.327L896.584 150.445Z" fill="url(#paint23_linear)"/>
<path d="M899.933 160.327L898.074 159.643L895.256 155.897L895.621 151.862L896.583 150.445L899.933 160.327Z" fill="url(#paint24_linear)"/>
<path d="M901.558 165.821L897.969 166.067L901.174 166.825L902.987 167.908L901.558 165.821Z" fill="url(#paint25_linear)"/>
<path d="M910.55 177.569L908.821 177.661L906.166 179.919L909.233 181.044L913.043 180.211L910.55 177.569Z" fill="url(#paint26_linear)"/>
<path d="M911.483 159.461L913.321 159.924L917.224 161.359L919.887 163.275L921.865 166.295L911.483 159.461Z" fill="url(#paint27_linear)"/>
<path d="M910.189 165.002L908.532 163.759L906.586 162.598L904.14 162.242L902.035 162.007L899.724 161.982L901.579 163.047L903.334 163.692L905.938 164.646L908.59 165.305L910.189 165.002Z" fill="url(#paint28_linear)"/>
<path d="M920.679 172.729L917.495 171.939L914.211 170.732L912.945 171.857L911.418 172.313L909.107 172.797L909.794 173.367L912.453 174.342L915.813 174.499L918.989 173.887L920.679 172.729Z" fill="url(#paint29_linear)"/>
<path d="M936.523 181.469L934.457 180.108L931.401 178.983L928.47 178.21L926.39 178.762L922.592 179.083L919.105 178.755L914.753 177.983L917.81 179.104L922.907 180.977L927.266 182.576L931.278 182.719L935.159 182.683L936.523 181.469Z" fill="url(#paint30_linear)"/>
<path d="M944.804 185.122L945.397 185.856L945.788 186.824L945.071 186.561L944.178 186.778L942.93 185.774L944.804 185.122Z" fill="url(#paint31_linear)"/>
<path d="M941.816 189.969L945.589 191.307L950.458 189.62L947.763 188.626L945.314 188.665L941.816 189.969Z" fill="url(#paint32_linear)"/>
<path d="M962.684 397.325L966.236 397.481L968.001 397.667L976.477 397.681L971.923 399.351L963.863 400.437L957.359 400.323L962.684 397.325Z" fill="url(#paint33_linear)"/>
<path d="M990.578 361.127L991.453 357.989L992.039 354.646L992.882 351.003L991.356 346.975L991.406 351.021L989.579 354.3L989.778 352.872L988.983 349.931L988.606 346.423L986.241 351.355L986.964 354.945L987.076 357.199L985.756 362.373L982.757 365.354L979.118 368.046L975.678 370.143L965.296 376.977L958.962 380.242L954.393 383.276L950.432 384.833L948.815 386.157L945.964 388.978L943.175 391.67L941.822 394.251L937.785 398.129L936.704 400.302L939.399 399.308L941.848 399.347L945.346 400.651L941.573 401.99L939.818 403.492L939.167 405.127L944.731 405.273L949.596 405.259L957.359 400.323L962.684 397.325L966.215 396.028L970.957 394.287L974.119 390.893L976.611 388.251L980.88 383.868L982.775 380.773L984.175 378.59L985.604 376.503L986.331 373.943L987.228 371.009L990.578 361.127Z" fill="url(#paint34_linear)"/>
<path d="M987.228 371.008L989.087 370.325L991.905 366.579L991.54 362.544L990.577 361.127L987.228 371.008Z" fill="url(#paint35_linear)"/>
<path d="M985.604 376.503L989.192 376.749L985.987 377.507L984.175 378.59L985.604 376.503Z" fill="url(#paint36_linear)"/>
<path d="M976.611 388.251L978.34 388.343L980.996 390.601L977.928 391.726L974.119 390.893L976.611 388.251Z" fill="url(#paint37_linear)"/>
<path d="M975.677 370.143L973.84 370.606L969.937 372.041L967.274 373.957L965.296 376.976L975.677 370.143Z" fill="url(#paint38_linear)"/>
<path d="M976.973 375.684L978.63 374.441L980.576 373.28L983.021 372.924L985.126 372.689L987.438 372.664L985.582 373.729L983.828 374.373L981.223 375.328L978.572 375.987L976.973 375.684Z" fill="url(#paint39_linear)"/>
<path d="M966.483 383.411L969.666 382.62L972.951 381.413L974.217 382.538L975.744 382.994L978.055 383.479L977.368 384.048L974.709 385.024L971.349 385.181L968.172 384.568L966.483 383.411Z" fill="url(#paint40_linear)"/>
<path d="M950.638 392.151L952.703 390.79L955.76 389.665L958.69 388.892L960.77 389.444L964.568 389.765L968.056 389.437L972.407 388.664L969.351 389.786L964.254 391.659L959.895 393.258L955.883 393.4L952.002 393.365L950.638 392.151Z" fill="url(#paint41_linear)"/>
<path d="M942.358 395.804L941.765 396.537L941.374 397.506L942.09 397.242L942.984 397.459L944.231 396.455L942.358 395.804Z" fill="url(#paint42_linear)"/>
<path d="M945.346 400.65L941.573 401.989L936.704 400.301L939.399 399.308L941.848 399.347L945.346 400.65Z" fill="url(#paint43_linear)"/>
<path d="M1090.98 428.325L1088.05 430.299L1086.65 431.372L1079.46 435.777L1084.23 434.837L1091.66 431.584L1097.12 428.116L1090.98 428.325Z" fill="url(#paint44_linear)"/>
<path d="M1048.01 412.088L1045.57 409.882L1043.27 407.35L1040.59 404.698L1039.7 400.487L1041.85 403.945L1045.16 405.777L1044.22 404.669L1043.3 401.76L1041.72 398.588L1046.39 401.541L1047.72 404.963L1048.84 406.933L1052.75 410.636L1056.89 411.604L1061.42 411.994L1065.46 411.983L1077.91 412.377L1085.02 411.851L1090.52 412.047L1094.7 411.306L1096.78 411.589L1100.71 412.498L1104.52 413.33L1107.06 414.816L1112.56 416.005L1114.65 417.285L1111.83 417.845L1109.79 419.153L1107.54 422.079L1111.45 421.251L1113.74 421.613L1115.18 422.661L1110.56 425.68L1106.45 428.2L1097.23 428.052L1091.11 428.28L1087.43 429.018L1082.49 430.008L1077.99 428.775L1074.46 427.83L1068.49 426.333L1065.21 424.694L1062.85 423.571L1060.52 422.544L1058.52 420.75L1056.18 418.728L1048.01 412.088Z" fill="url(#paint45_linear)"/>
<path d="M1056.06 418.663L1054.13 419.05L1049.74 417.335L1047.87 413.718L1047.92 412.013L1056.06 418.663Z" fill="url(#paint46_linear)"/>
<path d="M1060.37 422.504L1057.46 424.575L1060.59 423.555L1062.71 423.532L1060.37 422.504Z" fill="url(#paint47_linear)"/>
<path d="M1074.29 427.832L1072.88 428.809L1071.85 432.103L1075.06 431.464L1077.83 428.779L1074.29 427.832Z" fill="url(#paint48_linear)"/>
<path d="M1065.42 411.964L1067.23 411.402L1071.3 410.59L1074.59 410.831L1077.9 412.363L1065.42 411.964Z" fill="url(#paint49_linear)"/>
<path d="M1067.28 417.328L1065.2 417.132L1062.92 417.157L1060.66 418.123L1058.74 419.016L1056.77 420.194L1058.92 420.135L1060.76 419.772L1063.48 419.231L1066.09 418.414L1067.28 417.328Z" fill="url(#paint50_linear)"/>
<path d="M1080.32 418.462L1077.19 419.442L1073.75 420.122L1073.29 421.734L1072.24 422.913L1070.54 424.523L1071.43 424.65L1074.22 424.099L1077.15 422.488L1079.51 420.32L1080.32 418.462Z" fill="url(#paint51_linear)"/>
<path d="M1098.46 417.681L1095.97 417.596L1092.77 418.224L1089.87 419.087L1088.4 420.634L1085.35 422.876L1082.21 424.405L1078.1 426.005L1081.3 425.373L1086.64 424.323L1091.2 423.422L1094.69 421.463L1097.96 419.42L1098.46 417.681Z" fill="url(#paint52_linear)"/>
<path d="M1107.46 416.497L1108.36 416.811L1109.21 417.43L1108.46 417.578L1107.83 418.227L1106.23 418.024L1107.46 416.497Z" fill="url(#paint53_linear)"/>
<path d="M1107.52 422.169L1111.45 421.348L1114.66 417.389L1111.84 417.944L1109.79 419.247L1107.52 422.169Z" fill="url(#paint54_linear)"/>
<path d="M313.511 143.638L317.906 145.474L320.037 146.521L330.689 150.454H324.163L313.511 148.095L305.39 144.95L313.511 143.638Z" fill="url(#paint55_linear)"/>
<path d="M365.837 111.003L368.432 107.464L370.764 103.531L373.558 99.337V93.5691L371.696 98.6812L367.833 101.958L368.765 100.255L369.166 96.1923L370.364 91.6039L365.039 96.7161L364.239 101.564L363.306 104.449L359.18 110.347L353.987 112.706L348.13 114.409L342.803 115.459L326.492 119.259L316.974 120.439L309.785 122.142L304.06 122.274L301.397 123.192L296.47 125.419L291.677 127.516L288.746 130.137L281.823 133.152L279.427 135.381H283.29L286.35 136.561L290.127 139.813L284.745 139.756L281.823 140.833L280.227 142.588L287.15 145.341L293.273 147.571L305.39 144.95L313.511 143.638H318.572H325.361L330.955 140.833L335.347 138.658L342.803 135.119L346.665 132.105L349.46 130.007L352.256 128.04L354.387 125.157L356.917 121.88L365.837 111.003Z" fill="url(#paint56_linear)"/>
<path d="M356.917 121.881H359.58L364.905 118.474L366.369 113.23L365.837 111.003L356.917 121.881Z" fill="url(#paint57_linear)"/>
<path d="M352.256 128.04L356.649 130.007L352.256 129.483L349.459 130.007L352.256 128.04Z" fill="url(#paint58_linear)"/>
<path d="M335.347 138.658L337.477 139.576L339.742 143.638H335.347L330.954 140.833L335.347 138.658Z" fill="url(#paint59_linear)"/>
<path d="M342.802 115.46L340.274 115.198H334.681L330.42 116.377L326.492 119.26L342.802 115.46Z" fill="url(#paint60_linear)"/>
<path d="M341.792 123.026L344.468 122.226L347.468 121.668L350.713 122.347L353.471 123.026L356.39 124.064L353.552 124.542H351.037H347.306L343.656 124.144L341.792 123.026Z" fill="url(#paint61_linear)"/>
<path d="M324.919 127.896L329.301 128.374H334.005L335.058 130.371L336.763 131.649L339.439 133.325L338.303 133.723H334.491L330.193 132.366L326.492 130.132L324.919 127.896Z" fill="url(#paint62_linear)"/>
<path d="M300.833 131.57L304.076 130.812H308.457L312.512 131.19L314.865 132.847L319.486 135.001L324.029 136.199L329.868 137.238H325.489H318.189H311.943L306.833 135.562L301.966 133.724L300.833 131.57Z" fill="url(#paint63_linear)"/>
<path d="M288.68 132.339L287.583 132.986L286.635 134.024H287.657L288.68 134.712L290.724 134.024L288.68 132.339Z" fill="url(#paint64_linear)"/>
<path d="M290.127 139.813L284.745 139.756L279.427 135.382H283.29L286.35 136.561L290.127 139.813Z" fill="url(#paint65_linear)"/>
<path d="M828.816 62.1265L826.063 65.9523L824.814 67.9411L817.865 76.7745L823.416 73.4144L831.211 65.9207L836.43 59.0613L828.816 62.1265Z" fill="url(#paint66_linear)"/>
<path d="M767.027 61.3029L762.922 59.6337L758.829 57.4936L754.203 55.3695L751.101 50.4657L755.43 53.851L760.469 54.6433L758.762 53.6763L756.238 50.429L752.754 47.1464L760.02 48.7447L763.307 52.4534L765.649 54.4252L772.322 57.3098L777.996 56.6355L783.88 55.0611L788.964 53.2044L804.843 48.0186L813.552 44.1093L820.567 41.8473L825.494 39.0051L828.247 38.4113L833.624 37.762L838.817 37.0717L842.713 37.7875L850.208 36.7779L853.44 37.4365L850.163 39.4301L848.201 42.0122L846.746 46.7261L851.281 43.8999L854.339 43.308L856.637 43.9769L852.245 49.8904L848.25 54.9455L836.562 58.9699L828.967 62.0459L824.674 64.6578L818.915 68.1614L812.661 68.6627L807.765 69.0808L799.538 69.9196L794.64 69.3499L791.141 69.0089L787.711 68.7794L784.353 67.4279L780.444 65.948L767.027 61.3029Z" fill="url(#paint67_linear)"/>
<path d="M780.295 65.8876L778.044 67.2638L771.713 67.1186L767.661 63.4146L766.915 61.2453L780.295 65.8876Z" fill="url(#paint68_linear)"/>
<path d="M787.527 68.763L784.848 72.7001L788.303 69.9922L790.964 68.998L787.527 68.763Z" fill="url(#paint69_linear)"/>
<path d="M807.568 69.12L806.254 70.9994L806.518 75.6218L810.247 73.3541L812.465 68.7023L807.568 69.12Z" fill="url(#paint70_linear)"/>
<path d="M788.925 53.1735L790.936 51.6488L795.695 48.7691L799.955 47.5799L804.846 48.0129L788.925 53.1735Z" fill="url(#paint71_linear)"/>
<path d="M793.789 59.1013L791.081 59.7974L788.228 60.866L785.829 63.1146L783.846 65.1121L781.918 67.4995L784.592 66.4463L786.732 65.1523L789.909 63.232L792.802 61.0138L793.789 59.1013Z" fill="url(#paint72_linear)"/>
<path d="M810.726 54.5729L807.261 57.2378L803.263 59.6629L803.443 61.904L802.681 63.8693L801.309 66.6742L802.488 66.4278L805.727 64.4629L808.649 61.0933L810.592 57.2856L810.726 54.5729Z" fill="url(#paint73_linear)"/>
<path d="M833.217 45.3087L830.049 46.332L826.32 48.5871L823.072 50.9965L821.96 53.6198L819.184 57.8341L815.96 61.193L811.549 65.083L815.276 62.829L821.49 59.0712L826.805 55.8564L830.254 51.7982L833.41 47.7274L833.217 45.3087Z" fill="url(#paint74_linear)"/>
<path d="M844.017 39.7143L845.294 39.6983L846.658 40.0918L845.79 40.6194L845.293 41.7316L843.188 42.2021L844.017 39.7143Z" fill="url(#paint75_linear)"/>
<path d="M846.788 46.8278L851.331 44.0047L853.496 37.5429L850.214 39.5342L848.248 42.115L846.788 46.8278Z" fill="url(#paint76_linear)"/>
<path d="M464.281 564.352L460.985 565.728L459.387 566.514L451.398 569.463H456.292L464.281 567.694L470.373 565.336L464.281 564.352Z" fill="url(#paint77_linear)"/>
<path d="M425.037 539.875L423.091 537.221L421.342 534.271L419.247 531.125V526.799L420.643 530.634L423.54 533.091L422.841 531.814L422.541 528.767L421.642 525.326L425.636 529.16L426.236 532.796L426.935 534.959L430.03 539.383L433.925 541.152L438.318 542.43L442.313 543.217L454.546 546.067L461.685 546.952L467.077 548.229L471.371 548.328L473.367 549.017L477.063 550.687L480.657 552.26L482.855 554.226L488.048 556.487L489.845 558.159H486.948L484.653 559.043L481.82 561.482L485.857 561.439L488.048 562.247L489.245 563.564L484.052 565.629L479.46 567.301L470.373 565.335L464.282 564.351H460.486H455.394L451.199 562.247L447.905 560.616L442.313 557.962L439.416 555.701L437.32 554.128L435.223 552.653L433.625 550.49L431.727 548.033L425.037 539.875Z" fill="url(#paint78_linear)"/>
<path d="M431.728 548.033H429.731L425.737 545.478L424.639 541.545L425.038 539.875L431.728 548.033Z" fill="url(#paint79_linear)"/>
<path d="M435.223 552.653L431.928 554.129L435.223 553.736L437.32 554.129L435.223 552.653Z" fill="url(#paint80_linear)"/>
<path d="M447.904 560.616L446.306 561.304L444.608 564.351H447.904L451.199 562.247L447.904 560.616Z" fill="url(#paint81_linear)"/>
<path d="M442.313 543.218L444.209 543.021H448.404L451.6 543.906L454.546 546.068L442.313 543.218Z" fill="url(#paint82_linear)"/>
<path d="M443.072 548.892L441.065 548.293L438.814 547.875L436.38 548.383L434.312 548.892L432.123 549.671L434.252 550.03H436.137H438.936L441.673 549.731L443.072 548.892Z" fill="url(#paint83_linear)"/>
<path d="M455.726 552.545L452.44 552.904H448.911L448.122 554.402L446.843 555.36L444.836 556.617L445.688 556.916H448.547L451.77 555.898L454.546 554.222L455.726 552.545Z" fill="url(#paint84_linear)"/>
<path d="M473.791 555.3L471.359 554.732H468.073L465.032 555.015L463.267 556.258L459.801 557.874L456.394 558.772L452.015 559.551H455.299H460.774H465.458L469.291 558.294L472.941 556.916L473.791 555.3Z" fill="url(#paint85_linear)"/>
<path d="M482.906 555.877L483.728 556.362L484.439 557.141H483.673L482.906 557.657L481.372 557.141L482.906 555.877Z" fill="url(#paint86_linear)"/>
<path d="M481.82 561.483L485.857 561.44L489.845 558.159H486.948L484.653 559.044L481.82 561.483Z" fill="url(#paint87_linear)"/>
<path d="M1110.71 503.803L1114.34 508.258L1115.93 513.785L1116.33 518.97L1116.68 524.303L1117.09 529.292L1119.79 534.773L1123.41 539.434L1127.37 542.016L1133.08 546.148L1137.74 549.979L1139.9 553.815L1131.07 556.68L1123.99 555.943L1118.98 553.945L1114.41 548.047L1110.38 540.856L1108.13 533.048L1108.65 525.225L1110.79 521.654L1111.47 518.387L1111.76 515.088L1111.67 512.245L1110.95 509.502L1109.44 506.817L1107.24 502.884L1105.22 500.749L1105.6 498.513L1106.37 500.112L1108.42 501.859L1108.17 500.662L1107.12 499.588L1106.48 499.019L1108.13 499.493L1108.98 500.541L1109.83 502.519L1110.71 503.803Z" fill="url(#paint88_linear)"/>
<path d="M1116.55 520.497L1117.22 519.543L1117.62 517.309L1118.35 519.057L1118.25 520.946L1116.69 522.55L1116.55 520.497Z" fill="url(#paint89_linear)"/>
<path d="M1111.1 520.405L1110.55 519.428L1110.34 517.799L1109.7 518.898L1109.43 520.542L1110.18 522.738L1110.85 521.636L1111.1 520.405Z" fill="url(#paint90_linear)"/>
<path d="M1131.55 550.29L1127.09 546.789L1125.18 543.354L1122.67 538.525L1121.64 533.824L1123.47 537.1L1127.59 543.181L1129.32 547.233L1131.55 550.29Z" fill="url(#paint91_linear)"/>
<path d="M1123.8 555.925L1120.8 556.084L1118.27 555.27L1115.31 553.403L1112.75 548.85L1110.19 543.762L1114.21 548.036L1116.07 550.447L1118.78 553.93L1123.8 555.925Z" fill="url(#paint92_linear)"/>
<path d="M1136.42 550.582L1135.8 549.487L1134.46 549.369L1134.83 550.024L1136.42 550.582Z" fill="url(#paint93_linear)"/>
<path d="M1139.9 553.877L1136.06 553.034L1132.77 552.942L1130.69 554.326L1132.72 554.378L1134.3 554.775L1134.83 555.501L1137.42 554.67L1139.9 553.877Z" fill="url(#paint94_linear)"/>
<path d="M1112.53 509.978L1112.91 511.674L1113.19 514.194L1112.99 516.59L1111.51 513.973L1111.42 512.225L1111.64 510.753L1112.53 509.978Z" fill="url(#paint95_linear)"/>
<path d="M910.126 551.177L909.218 556.297L910.429 561.375L912.453 565.657L914.578 570.037L916.499 574.171L916.803 579.697L915.994 584.976L913.971 588.758L911.241 594.535L909.218 599.613V603.596L917.611 602.001L922.974 598.317L926.11 594.535L927.12 587.862V580.395L925.4 573.225L921.456 567.25L918.119 565.359L916.096 563.068L914.376 560.579L913.162 558.289L912.504 555.8V553.012V548.928L913.162 546.353L911.848 544.747L911.947 546.353L911.088 548.635L910.75 547.576L911.108 546.266L911.371 545.532L910.253 546.632L910.041 547.836L910.253 549.775L910.126 551.177Z" fill="url(#paint96_linear)"/>
<path d="M913.053 566.898L912.082 566.434L910.749 564.836L910.964 566.54L911.901 567.995L913.873 568.588L913.053 566.898Z" fill="url(#paint97_linear)"/>
<path d="M917.355 564.495V563.478L916.787 562.093L917.792 562.688L918.754 563.872L919.148 565.942L918.118 565.358L917.355 564.495Z" fill="url(#paint98_linear)"/>
<path d="M914.281 597.127L916.302 592.406V588.844L916.154 583.917L914.872 579.735V583.132L914.281 589.755L914.701 593.73L914.281 597.127Z" fill="url(#paint99_linear)"/>
<path d="M922.973 598.317L925.458 597.127L927.118 595.376L928.659 592.596V587.867L928.412 582.716L927.118 587.862L926.707 590.591L926.108 594.535L922.973 598.317Z" fill="url(#paint100_linear)"/>
<path d="M910.525 599.457V598.317L911.546 597.635V598.317L910.525 599.457Z" fill="url(#paint101_linear)"/>
<path d="M909.217 603.596L911.884 601.261L914.463 599.758L916.742 599.96L915.156 600.879L914.077 601.881L913.981 602.691L911.546 603.152L909.217 603.596Z" fill="url(#paint102_linear)"/>
<path d="M911.566 556.796L912.029 558.307L912.948 560.425L914.191 562.238V559.517L913.476 558.089L912.628 557.022L911.566 556.796Z" fill="url(#paint103_linear)"/>
<path d="M170.686 157.091L174.141 161.662L175.496 167.223L175.659 172.397L175.774 177.717L175.961 182.695L178.431 188.253L181.865 193.027L185.741 195.749L191.307 200.079L195.829 204.067L197.824 207.968L188.808 210.481L181.714 209.476L176.75 207.293L172.418 201.252L168.679 193.942L166.773 186.088L167.643 178.325L169.964 174.853L170.797 171.629L171.235 168.358L171.276 165.526L170.674 162.77L169.277 160.041L167.233 156.044L165.299 153.842L165.783 151.631L166.488 153.252L168.475 155.069L168.274 153.867L167.269 152.758L166.641 152.168L168.286 152.704L169.097 153.781L169.859 155.782L170.686 157.091Z" fill="url(#paint104_linear)"/>
<path d="M175.691 173.901L176.41 172.978L176.916 170.766L177.558 172.539L177.371 174.418L175.736 175.955L175.691 173.901Z" fill="url(#paint105_linear)"/>
<path d="M170.277 173.639L169.768 172.643L169.631 171.013L168.944 172.08L168.596 173.708L169.246 175.925L169.963 174.853L170.277 173.639Z" fill="url(#paint106_linear)"/>
<path d="M189.626 204.093L185.286 200.452L183.502 196.965L181.178 192.071L180.342 187.355L182.042 190.678L185.935 196.877L187.513 200.972L189.626 204.093Z" fill="url(#paint107_linear)"/>
<path d="M181.715 209.476L178.683 209.515L176.181 208.608L173.28 206.632L170.914 202.005L168.574 196.841L172.419 201.252L174.189 203.723L176.75 207.293L181.715 209.476Z" fill="url(#paint108_linear)"/>
<path d="M194.469 204.551L193.899 203.436L192.56 203.264L192.901 203.931L194.469 204.551Z" fill="url(#paint109_linear)"/>
<path d="M197.824 207.968L194.043 206.975L190.765 206.757L188.636 208.059L190.648 208.191L192.204 208.647L192.705 209.395L195.321 208.665L197.824 207.968Z" fill="url(#paint110_linear)"/>
<path d="M172.091 163.294L172.396 164.996L172.554 167.514L172.247 169.891L170.885 167.228L170.868 165.487L171.166 164.03L172.091 163.294Z" fill="url(#paint111_linear)"/>
<path d="M1124.5 183.373L1121.04 187.945L1119.69 193.506L1119.52 198.68L1119.41 203.999L1119.22 208.978L1116.75 214.535L1113.32 219.309L1109.44 222.031L1103.87 226.361L1099.35 230.35L1097.36 234.251L1106.37 236.763L1113.47 235.759L1118.43 233.575L1122.76 227.535L1126.5 220.224L1128.41 212.37L1127.54 204.607L1125.22 201.135L1124.38 197.911L1123.95 194.64L1123.91 191.808L1124.51 189.052L1125.9 186.324L1127.95 182.326L1129.88 180.124L1129.4 177.914L1128.69 179.535L1126.71 181.352L1126.91 180.15L1127.91 179.04L1128.54 178.451L1126.9 178.986L1126.08 180.064L1125.32 182.065L1124.5 183.373Z" fill="url(#paint112_linear)"/>
<path d="M1119.49 200.185L1118.77 199.262L1118.27 197.049L1117.62 198.823L1117.81 200.702L1119.45 202.239L1119.49 200.185Z" fill="url(#paint113_linear)"/>
<path d="M1124.9 199.922L1125.41 198.925L1125.55 197.296L1126.24 198.363L1126.59 199.991L1125.94 202.208L1125.22 201.136L1124.9 199.922Z" fill="url(#paint114_linear)"/>
<path d="M1105.56 230.376L1109.9 226.735L1111.68 223.248L1114 218.354L1114.84 213.637L1113.14 216.961L1109.25 223.16L1107.67 227.255L1105.56 230.376Z" fill="url(#paint115_linear)"/>
<path d="M1113.47 235.759L1116.5 235.798L1119 234.891L1121.9 232.915L1124.27 228.288L1126.61 223.124L1122.76 227.535L1120.99 230.005L1118.43 233.575L1113.47 235.759Z" fill="url(#paint116_linear)"/>
<path d="M1100.71 230.833L1101.28 229.719L1102.62 229.547L1102.28 230.214L1100.71 230.833Z" fill="url(#paint117_linear)"/>
<path d="M1097.36 234.251L1101.14 233.258L1104.42 233.04L1106.55 234.342L1104.53 234.473L1102.98 234.929L1102.48 235.678L1099.86 234.948L1097.36 234.251Z" fill="url(#paint118_linear)"/>
<path d="M1123.09 189.576L1122.79 191.278L1122.63 193.796L1122.94 196.174L1124.3 193.511L1124.31 191.77L1124.02 190.312L1123.09 189.576Z" fill="url(#paint119_linear)"/>
<defs>
<linearGradient id="paint0_linear" x1="128.301" y1="458.89" x2="147.151" y2="458.881" gradientUnits="userSpaceOnUse">
<stop stop-color="#AEDFE6"/>
<stop offset="1" stop-color="#3E6972"/>
</linearGradient>
<linearGradient id="paint1_linear" x1="111.895" y1="416.886" x2="163.031" y2="469.742" gradientUnits="userSpaceOnUse">
<stop stop-color="#AEDFE6"/>
<stop offset="1" stop-color="#4A737D"/>
</linearGradient>
<linearGradient id="paint2_linear" x1="111.98" y1="426.752" x2="118.919" y2="425.56" gradientUnits="userSpaceOnUse">
<stop stop-color="#AEDFE6"/>
<stop offset="1" stop-color="#3E6972"/>
</linearGradient>
<linearGradient id="paint3_linear" x1="116.424" y1="436.738" x2="121.644" y2="437.923" gradientUnits="userSpaceOnUse">
<stop stop-color="#AEDFE6"/>
<stop offset="1" stop-color="#3E6972"/>
</linearGradient>
<linearGradient id="paint4_linear" x1="124.236" y1="450.774" x2="130.562" y2="449.112" gradientUnits="userSpaceOnUse">
<stop stop-color="#AEDFE6"/>
<stop offset="1" stop-color="#3E6972"/>
</linearGradient>
<linearGradient id="paint5_linear" x1="135.559" y1="431.959" x2="133.931" y2="434.527" gradientUnits="userSpaceOnUse">
<stop stop-color="#AEDFE6"/>
<stop offset="1" stop-color="#3E6972"/>
</linearGradient>
<linearGradient id="paint6_linear" x1="118.396" y1="432.708" x2="128.832" y2="435.729" gradientUnits="userSpaceOnUse">
<stop stop-color="#AEDFE6"/>
<stop offset="1" stop-color="#3E6972"/>
</linearGradient>
<linearGradient id="paint7_linear" x1="127.31" y1="443.545" x2="138.116" y2="443.05" gradientUnits="userSpaceOnUse">
<stop stop-color="#AEDFE6"/>
<stop offset="1" stop-color="#3E6972"/>
</linearGradient>
<linearGradient id="paint8_linear" x1="133.872" y1="449.358" x2="157.399" y2="452.889" gradientUnits="userSpaceOnUse">
<stop stop-color="#AEDFE6"/>
<stop offset="1" stop-color="#3E6972"/>
</linearGradient>
<linearGradient id="paint9_linear" x1="163.038" y1="458.765" x2="161.821" y2="456.033" gradientUnits="userSpaceOnUse">
<stop stop-color="#AEDFE6"/>
<stop offset="1" stop-color="#3E6972"/>
</linearGradient>
<linearGradient id="paint10_linear" x1="164.575" y1="462.344" x2="163.929" y2="460.29" gradientUnits="userSpaceOnUse">
<stop stop-color="#AEDFE6"/>
<stop offset="1" stop-color="#3E6972"/>
</linearGradient>
<linearGradient id="paint11_linear" x1="16.1821" y1="155.468" x2="35.0317" y2="155.459" gradientUnits="userSpaceOnUse">
<stop stop-color="#AEDFE6"/>
<stop offset="1" stop-color="#3E6972"/>
</linearGradient>
<linearGradient id="paint12_linear" x1="-0.22435" y1="113.465" x2="50.9117" y2="166.32" gradientUnits="userSpaceOnUse">
<stop stop-color="#AEDFE6"/>
<stop offset="1" stop-color="#4A737D"/>
</linearGradient>
<linearGradient id="paint13_linear" x1="-0.139704" y1="123.33" x2="6.79938" y2="122.138" gradientUnits="userSpaceOnUse">
<stop stop-color="#AEDFE6"/>
<stop offset="1" stop-color="#3E6972"/>
</linearGradient>
<linearGradient id="paint14_linear" x1="4.30422" y1="133.317" x2="9.52462" y2="134.502" gradientUnits="userSpaceOnUse">
<stop stop-color="#AEDFE6"/>
<stop offset="1" stop-color="#3E6972"/>
</linearGradient>
<linearGradient id="paint15_linear" x1="12.1155" y1="147.353" x2="18.4421" y2="145.691" gradientUnits="userSpaceOnUse">
<stop stop-color="#AEDFE6"/>
<stop offset="1" stop-color="#3E6972"/>
</linearGradient>
<linearGradient id="paint16_linear" x1="23.4394" y1="128.536" x2="21.8112" y2="131.104" gradientUnits="userSpaceOnUse">
<stop stop-color="#AEDFE6"/>
<stop offset="1" stop-color="#3E6972"/>
</linearGradient>
<linearGradient id="paint17_linear" x1="6.27591" y1="129.287" x2="16.7129" y2="132.307" gradientUnits="userSpaceOnUse">
<stop stop-color="#AEDFE6"/>
<stop offset="1" stop-color="#3E6972"/>
</linearGradient>
<linearGradient id="paint18_linear" x1="15.19" y1="140.124" x2="25.9962" y2="139.628" gradientUnits="userSpaceOnUse">
<stop stop-color="#AEDFE6"/>
<stop offset="1" stop-color="#3E6972"/>
</linearGradient>
<linearGradient id="paint19_linear" x1="21.7526" y1="145.936" x2="45.2792" y2="149.467" gradientUnits="userSpaceOnUse">
<stop stop-color="#AEDFE6"/>
<stop offset="1" stop-color="#3E6972"/>
</linearGradient>
<linearGradient id="paint20_linear" x1="50.9185" y1="155.343" x2="49.702" y2="152.612" gradientUnits="userSpaceOnUse">
<stop stop-color="#AEDFE6"/>
<stop offset="1" stop-color="#3E6972"/>
</linearGradient>
<linearGradient id="paint21_linear" x1="52.4559" y1="158.922" x2="51.8097" y2="156.869" gradientUnits="userSpaceOnUse">
<stop stop-color="#AEDFE6"/>
<stop offset="1" stop-color="#3E6972"/>
</linearGradient>
<linearGradient id="paint22_linear" x1="910.461" y1="188.181" x2="929.311" y2="188.172" gradientUnits="userSpaceOnUse">
<stop stop-color="#AEDFE6"/>
<stop offset="1" stop-color="#3E6972"/>
</linearGradient>
<linearGradient id="paint23_linear" x1="894.055" y1="146.179" x2="945.191" y2="199.034" gradientUnits="userSpaceOnUse">
<stop stop-color="#AEDFE6"/>
<stop offset="1" stop-color="#4A737D"/>
</linearGradient>
<linearGradient id="paint24_linear" x1="894.139" y1="156.044" x2="901.078" y2="154.852" gradientUnits="userSpaceOnUse">
<stop stop-color="#AEDFE6"/>
<stop offset="1" stop-color="#3E6972"/>
</linearGradient>
<linearGradient id="paint25_linear" x1="898.584" y1="166.03" x2="903.804" y2="167.215" gradientUnits="userSpaceOnUse">
<stop stop-color="#AEDFE6"/>
<stop offset="1" stop-color="#3E6972"/>
</linearGradient>
<linearGradient id="paint26_linear" x1="906.395" y1="180.066" x2="912.722" y2="178.404" gradientUnits="userSpaceOnUse">
<stop stop-color="#AEDFE6"/>
<stop offset="1" stop-color="#3E6972"/>
</linearGradient>
<linearGradient id="paint27_linear" x1="917.718" y1="161.249" x2="916.09" y2="163.818" gradientUnits="userSpaceOnUse">
<stop stop-color="#AEDFE6"/>
<stop offset="1" stop-color="#3E6972"/>
</linearGradient>
<linearGradient id="paint28_linear" x1="900.556" y1="162" x2="910.993" y2="165.02" gradientUnits="userSpaceOnUse">
<stop stop-color="#AEDFE6"/>
<stop offset="1" stop-color="#3E6972"/>
</linearGradient>
<linearGradient id="paint29_linear" x1="909.469" y1="172.837" x2="920.275" y2="172.342" gradientUnits="userSpaceOnUse">
<stop stop-color="#AEDFE6"/>
<stop offset="1" stop-color="#3E6972"/>
</linearGradient>
<linearGradient id="paint30_linear" x1="916.031" y1="178.649" x2="939.558" y2="182.181" gradientUnits="userSpaceOnUse">
<stop stop-color="#AEDFE6"/>
<stop offset="1" stop-color="#3E6972"/>
</linearGradient>
<linearGradient id="paint31_linear" x1="945.198" y1="188.056" x2="943.981" y2="185.325" gradientUnits="userSpaceOnUse">
<stop stop-color="#AEDFE6"/>
<stop offset="1" stop-color="#3E6972"/>
</linearGradient>
<linearGradient id="paint32_linear" x1="946.735" y1="191.636" x2="946.089" y2="189.582" gradientUnits="userSpaceOnUse">
<stop stop-color="#AEDFE6"/>
<stop offset="1" stop-color="#3E6972"/>
</linearGradient>
<linearGradient id="paint33_linear" x1="976.7" y1="398.863" x2="957.85" y2="398.854" gradientUnits="userSpaceOnUse">
<stop stop-color="#AEDFE6"/>
<stop offset="1" stop-color="#3E6972"/>
</linearGradient>
<linearGradient id="paint34_linear" x1="993.106" y1="356.86" x2="941.97" y2="409.716" gradientUnits="userSpaceOnUse">
<stop stop-color="#AEDFE6"/>
<stop offset="1" stop-color="#4A737D"/>
</linearGradient>
<linearGradient id="paint35_linear" x1="993.021" y1="366.725" x2="986.082" y2="365.533" gradientUnits="userSpaceOnUse">
<stop stop-color="#AEDFE6"/>
<stop offset="1" stop-color="#3E6972"/>
</linearGradient>
<linearGradient id="paint36_linear" x1="988.578" y1="376.712" x2="983.357" y2="377.897" gradientUnits="userSpaceOnUse">
<stop stop-color="#AEDFE6"/>
<stop offset="1" stop-color="#3E6972"/>
</linearGradient>
<linearGradient id="paint37_linear" x1="980.766" y1="390.748" x2="974.44" y2="389.086" gradientUnits="userSpaceOnUse">
<stop stop-color="#AEDFE6"/>
<stop offset="1" stop-color="#3E6972"/>
</linearGradient>
<linearGradient id="paint38_linear" x1="969.443" y1="371.931" x2="971.071" y2="374.5" gradientUnits="userSpaceOnUse">
<stop stop-color="#AEDFE6"/>
<stop offset="1" stop-color="#3E6972"/>
</linearGradient>
<linearGradient id="paint39_linear" x1="986.606" y1="372.682" x2="976.169" y2="375.702" gradientUnits="userSpaceOnUse">
<stop stop-color="#AEDFE6"/>
<stop offset="1" stop-color="#3E6972"/>
</linearGradient>
<linearGradient id="paint40_linear" x1="977.693" y1="383.519" x2="966.887" y2="383.023" gradientUnits="userSpaceOnUse">
<stop stop-color="#AEDFE6"/>
<stop offset="1" stop-color="#3E6972"/>
</linearGradient>
<linearGradient id="paint41_linear" x1="971.129" y1="389.331" x2="947.603" y2="392.862" gradientUnits="userSpaceOnUse">
<stop stop-color="#AEDFE6"/>
<stop offset="1" stop-color="#3E6972"/>
</linearGradient>
<linearGradient id="paint42_linear" x1="941.964" y1="398.738" x2="943.18" y2="396.007" gradientUnits="userSpaceOnUse">
<stop stop-color="#AEDFE6"/>
<stop offset="1" stop-color="#3E6972"/>
</linearGradient>
<linearGradient id="paint43_linear" x1="940.426" y1="402.317" x2="941.073" y2="400.264" gradientUnits="userSpaceOnUse">
<stop stop-color="#AEDFE6"/>
<stop offset="1" stop-color="#3E6972"/>
</linearGradient>
<linearGradient id="paint44_linear" x1="1079.91" y1="436.898" x2="1095.73" y2="426.836" gradientUnits="userSpaceOnUse">
<stop stop-color="#AEDFE6"/>
<stop offset="1" stop-color="#3E6972"/>
</linearGradient>
<linearGradient id="paint45_linear" x1="1043.57" y1="409.784" x2="1115.53" y2="426.999" gradientUnits="userSpaceOnUse">
<stop stop-color="#AEDFE6"/>
<stop offset="1" stop-color="#4A737D"/>
</linearGradient>
<linearGradient id="paint46_linear" x1="1048.88" y1="418.04" x2="1054.05" y2="413.39" gradientUnits="userSpaceOnUse">
<stop stop-color="#AEDFE6"/>
<stop offset="1" stop-color="#3E6972"/>
</linearGradient>
<linearGradient id="paint47_linear" x1="1057.96" y1="424.225" x2="1062.99" y2="422.409" gradientUnits="userSpaceOnUse">
<stop stop-color="#AEDFE6"/>
<stop offset="1" stop-color="#3E6972"/>
</linearGradient>
<linearGradient id="paint48_linear" x1="1072.12" y1="432.108" x2="1076.54" y2="427.372" gradientUnits="userSpaceOnUse">
<stop stop-color="#AEDFE6"/>
<stop offset="1" stop-color="#3E6972"/>
</linearGradient>
<linearGradient id="paint49_linear" x1="1071.66" y1="410.24" x2="1071.62" y2="413.264" gradientUnits="userSpaceOnUse">
<stop stop-color="#AEDFE6"/>
<stop offset="1" stop-color="#3E6972"/>
</linearGradient>
<linearGradient id="paint50_linear" x1="1057.48" y1="419.777" x2="1067.9" y2="416.692" gradientUnits="userSpaceOnUse">
<stop stop-color="#AEDFE6"/>
<stop offset="1" stop-color="#3E6972"/>
</linearGradient>
<linearGradient id="paint51_linear" x1="1070.87" y1="424.369" x2="1079.66" y2="418.189" gradientUnits="userSpaceOnUse">
<stop stop-color="#AEDFE6"/>
<stop offset="1" stop-color="#3E6972"/>
</linearGradient>
<linearGradient id="paint52_linear" x1="1079.54" y1="425.909" x2="1101.22" y2="416.249" gradientUnits="userSpaceOnUse">
<stop stop-color="#AEDFE6"/>
<stop offset="1" stop-color="#3E6972"/>
</linearGradient>
<linearGradient id="paint53_linear" x1="1109.38" y1="418.781" x2="1106.88" y2="417.092" gradientUnits="userSpaceOnUse">
<stop stop-color="#AEDFE6"/>
<stop offset="1" stop-color="#3E6972"/>
</linearGradient>
<linearGradient id="paint54_linear" x1="1112.6" y1="421.032" x2="1110.95" y2="419.61" gradientUnits="userSpaceOnUse">
<stop stop-color="#AEDFE6"/>
<stop offset="1" stop-color="#3E6972"/>
</linearGradient>
<linearGradient id="paint55_linear" x1="330.384" y1="152.073" x2="306.779" y2="143.112" gradientUnits="userSpaceOnUse">
<stop stop-color="#AEDFE6"/>
<stop offset="1" stop-color="#3E6972"/>
</linearGradient>
<linearGradient id="paint56_linear" x1="371.03" y1="106.837" x2="281.393" y2="149.364" gradientUnits="userSpaceOnUse">
<stop stop-color="#AEDFE6"/>
<stop offset="1" stop-color="#4A737D"/>
</linearGradient>
<linearGradient id="paint57_linear" x1="366.222" y1="119.202" x2="358.105" y2="114.43" gradientUnits="userSpaceOnUse">
<stop stop-color="#AEDFE6"/>
<stop offset="1" stop-color="#3E6972"/>
</linearGradient>
<linearGradient id="paint58_linear" x1="355.875" y1="129.706" x2="348.757" y2="128.707" gradientUnits="userSpaceOnUse">
<stop stop-color="#AEDFE6"/>
<stop offset="1" stop-color="#3E6972"/>
</linearGradient>
<linearGradient id="paint59_linear" x1="339.362" y1="143.746" x2="332.235" y2="138.684" gradientUnits="userSpaceOnUse">
<stop stop-color="#AEDFE6"/>
<stop offset="1" stop-color="#3E6972"/>
</linearGradient>
<linearGradient id="paint60_linear" x1="334.093" y1="114.858" x2="334.948" y2="118.833" gradientUnits="userSpaceOnUse">
<stop stop-color="#AEDFE6"/>
<stop offset="1" stop-color="#3E6972"/>
</linearGradient>
<linearGradient id="paint61_linear" x1="355.316" y1="123.728" x2="340.766" y2="122.549" gradientUnits="userSpaceOnUse">
<stop stop-color="#AEDFE6"/>
<stop offset="1" stop-color="#3E6972"/>
</linearGradient>
<linearGradient id="paint62_linear" x1="338.943" y1="133.237" x2="325.648" y2="127.492" gradientUnits="userSpaceOnUse">
<stop stop-color="#AEDFE6"/>
<stop offset="1" stop-color="#3E6972"/>
</linearGradient>
<linearGradient id="paint63_linear" x1="327.922" y1="137.514" x2="296.732" y2="130.746" gradientUnits="userSpaceOnUse">
<stop stop-color="#AEDFE6"/>
<stop offset="1" stop-color="#3E6972"/>
</linearGradient>
<linearGradient id="paint64_linear" x1="286.766" y1="135.872" x2="289.586" y2="132.988" gradientUnits="userSpaceOnUse">
<stop stop-color="#AEDFE6"/>
<stop offset="1" stop-color="#3E6972"/>
</linearGradient>
<linearGradient id="paint65_linear" x1="283.127" y1="139.662" x2="284.904" y2="137.367" gradientUnits="userSpaceOnUse">
<stop stop-color="#AEDFE6"/>
<stop offset="1" stop-color="#3E6972"/>
</linearGradient>
<linearGradient id="paint66_linear" x1="818.994" y1="77.996" x2="834.144" y2="58.1241" gradientUnits="userSpaceOnUse">
<stop stop-color="#AEDFE6"/>
<stop offset="1" stop-color="#3E6972"/>
</linearGradient>
<linearGradient id="paint67_linear" x1="760.381" y1="60.441" x2="859.033" y2="48.2445" gradientUnits="userSpaceOnUse">
<stop stop-color="#AEDFE6"/>
<stop offset="1" stop-color="#4A737D"/>
</linearGradient>
<linearGradient id="paint68_linear" x1="770.99" y1="68.4187" x2="775.342" y2="60.1902" gradientUnits="userSpaceOnUse">
<stop stop-color="#AEDFE6"/>
<stop offset="1" stop-color="#3E6972"/>
</linearGradient>
<linearGradient id="paint69_linear" x1="785.345" y1="72.0451" x2="790.795" y2="67.449" gradientUnits="userSpaceOnUse">
<stop stop-color="#AEDFE6"/>
<stop offset="1" stop-color="#3E6972"/>
</linearGradient>
<linearGradient id="paint70_linear" x1="806.898" y1="75.5181" x2="810.274" y2="67.5587" gradientUnits="userSpaceOnUse">
<stop stop-color="#AEDFE6"/>
<stop offset="1" stop-color="#3E6972"/>
</linearGradient>
<linearGradient id="paint71_linear" x1="796.013" y1="48.1773" x2="797.336" y2="52.0318" gradientUnits="userSpaceOnUse">
<stop stop-color="#AEDFE6"/>
<stop offset="1" stop-color="#3E6972"/>
</linearGradient>
<linearGradient id="paint72_linear" x1="782.652" y1="66.6603" x2="794.265" y2="57.9782" gradientUnits="userSpaceOnUse">
<stop stop-color="#AEDFE6"/>
<stop offset="1" stop-color="#3E6972"/>
</linearGradient>
<linearGradient id="paint73_linear" x1="801.683" y1="66.3439" x2="809.847" y2="54.5752" gradientUnits="userSpaceOnUse">
<stop stop-color="#AEDFE6"/>
<stop offset="1" stop-color="#3E6972"/>
</linearGradient>
<linearGradient id="paint74_linear" x1="813.354" y1="64.3172" x2="836.005" y2="42.2282" gradientUnits="userSpaceOnUse">
<stop stop-color="#AEDFE6"/>
<stop offset="1" stop-color="#3E6972"/>
</linearGradient>
<linearGradient id="paint75_linear" x1="847.54" y1="41.7301" x2="843.585" y2="40.7835" gradientUnits="userSpaceOnUse">
<stop stop-color="#AEDFE6"/>
<stop offset="1" stop-color="#3E6972"/>
</linearGradient>
<linearGradient id="paint76_linear" x1="852.655" y1="43.0911" x2="849.903" y2="42.0762" gradientUnits="userSpaceOnUse">
<stop stop-color="#AEDFE6"/>
<stop offset="1" stop-color="#3E6972"/>
</linearGradient>
<linearGradient id="paint77_linear" x1="451.627" y1="570.678" x2="469.33" y2="563.957" gradientUnits="userSpaceOnUse">
<stop stop-color="#AEDFE6"/>
<stop offset="1" stop-color="#3E6972"/>
</linearGradient>
<linearGradient id="paint78_linear" x1="421.142" y1="536.75" x2="488.37" y2="568.646" gradientUnits="userSpaceOnUse">
<stop stop-color="#AEDFE6"/>
<stop offset="1" stop-color="#4A737D"/>
</linearGradient>
<linearGradient id="paint79_linear" x1="424.749" y1="546.024" x2="430.837" y2="542.445" gradientUnits="userSpaceOnUse">
<stop stop-color="#AEDFE6"/>
<stop offset="1" stop-color="#3E6972"/>
</linearGradient>
<linearGradient id="paint80_linear" x1="432.509" y1="553.903" x2="437.847" y2="553.154" gradientUnits="userSpaceOnUse">
<stop stop-color="#AEDFE6"/>
<stop offset="1" stop-color="#3E6972"/>
</linearGradient>
<linearGradient id="paint81_linear" x1="444.893" y1="564.432" x2="450.238" y2="560.636" gradientUnits="userSpaceOnUse">
<stop stop-color="#AEDFE6"/>
<stop offset="1" stop-color="#3E6972"/>
</linearGradient>
<linearGradient id="paint82_linear" x1="448.845" y1="542.766" x2="448.204" y2="545.748" gradientUnits="userSpaceOnUse">
<stop stop-color="#AEDFE6"/>
<stop offset="1" stop-color="#3E6972"/>
</linearGradient>
<linearGradient id="paint83_linear" x1="432.929" y1="549.419" x2="443.841" y2="548.535" gradientUnits="userSpaceOnUse">
<stop stop-color="#AEDFE6"/>
<stop offset="1" stop-color="#3E6972"/>
</linearGradient>
<linearGradient id="paint84_linear" x1="445.208" y1="556.551" x2="455.179" y2="552.242" gradientUnits="userSpaceOnUse">
<stop stop-color="#AEDFE6"/>
<stop offset="1" stop-color="#3E6972"/>
</linearGradient>
<linearGradient id="paint85_linear" x1="453.474" y1="559.759" x2="476.867" y2="554.682" gradientUnits="userSpaceOnUse">
<stop stop-color="#AEDFE6"/>
<stop offset="1" stop-color="#3E6972"/>
</linearGradient>
<linearGradient id="paint86_linear" x1="484.341" y1="558.527" x2="482.226" y2="556.364" gradientUnits="userSpaceOnUse">
<stop stop-color="#AEDFE6"/>
<stop offset="1" stop-color="#3E6972"/>
</linearGradient>
<linearGradient id="paint87_linear" x1="487.07" y1="561.37" x2="485.737" y2="559.648" gradientUnits="userSpaceOnUse">
<stop stop-color="#AEDFE6"/>
<stop offset="1" stop-color="#3E6972"/>
</linearGradient>
<linearGradient id="paint88_linear" x1="1099.6" y1="501.827" x2="1131.04" y2="558.708" gradientUnits="userSpaceOnUse">
<stop stop-color="#AEDFE6"/>
<stop offset="1" stop-color="#4A737D"/>
</linearGradient>
<linearGradient id="paint89_linear" x1="1118.05" y1="518.757" x2="1116.77" y2="522.67" gradientUnits="userSpaceOnUse">
<stop stop-color="#AEDFE6"/>
<stop offset="1" stop-color="#4A737D"/>
</linearGradient>
<linearGradient id="paint90_linear" x1="1109.56" y1="518.301" x2="1110.94" y2="522.312" gradientUnits="userSpaceOnUse">
<stop stop-color="#AEDFE6"/>
<stop offset="1" stop-color="#4A737D"/>
</linearGradient>
<linearGradient id="paint91_linear" x1="1120.65" y1="534.412" x2="1130.81" y2="550.716" gradientUnits="userSpaceOnUse">
<stop stop-color="#AEDFE6"/>
<stop offset="1" stop-color="#4A737D"/>
</linearGradient>
<linearGradient id="paint92_linear" x1="1109.57" y1="545.631" x2="1122.57" y2="557.485" gradientUnits="userSpaceOnUse">
<stop stop-color="#AEDFE6"/>
<stop offset="1" stop-color="#4A737D"/>
</linearGradient>
<linearGradient id="paint93_linear" x1="1136.38" y1="550.718" x2="1134.89" y2="549.361" gradientUnits="userSpaceOnUse">
<stop stop-color="#AEDFE6"/>
<stop offset="1" stop-color="#3E6972"/>
</linearGradient>
<linearGradient id="paint94_linear" x1="1135.42" y1="557.627" x2="1135.3" y2="553.425" gradientUnits="userSpaceOnUse">
<stop stop-color="#AEDFE6"/>
<stop offset="1" stop-color="#4A737D"/>
</linearGradient>
<linearGradient id="paint95_linear" x1="1112.26" y1="510.57" x2="1112.32" y2="516.554" gradientUnits="userSpaceOnUse">
<stop stop-color="#AEDFE6"/>
<stop offset="1" stop-color="#4A737D"/>
</linearGradient>
<linearGradient id="paint96_linear" x1="918.169" y1="544.746" x2="918.169" y2="603.595" gradientUnits="userSpaceOnUse">
<stop stop-color="#AEDFE6"/>
<stop offset="1" stop-color="#4A737D"/>
</linearGradient>
<linearGradient id="paint97_linear" x1="911.066" y1="566.172" x2="913.834" y2="568.752" gradientUnits="userSpaceOnUse">
<stop stop-color="#AEDFE6"/>
<stop offset="1" stop-color="#4A737D"/>
</linearGradient>
<linearGradient id="paint98_linear" x1="917.635" y1="562.151" x2="918.29" y2="565.946" gradientUnits="userSpaceOnUse">
<stop stop-color="#AEDFE6"/>
<stop offset="1" stop-color="#4A737D"/>
</linearGradient>
<linearGradient id="paint99_linear" x1="915.934" y1="579.772" x2="914.977" y2="597.141" gradientUnits="userSpaceOnUse">
<stop stop-color="#AEDFE6"/>
<stop offset="1" stop-color="#4A737D"/>
</linearGradient>
<linearGradient id="paint100_linear" x1="929.76" y1="583.923" x2="924.75" y2="599.04" gradientUnits="userSpaceOnUse">
<stop stop-color="#AEDFE6"/>
<stop offset="1" stop-color="#4A737D"/>
</linearGradient>
<linearGradient id="paint101_linear" x1="910.613" y1="599.55" x2="911.188" y2="597.819" gradientUnits="userSpaceOnUse">
<stop stop-color="#AEDFE6"/>
<stop offset="1" stop-color="#3E6972"/>
</linearGradient>
<linearGradient id="paint102_linear" x1="914.482" y1="604.637" x2="912.734" y2="601.208" gradientUnits="userSpaceOnUse">
<stop stop-color="#AEDFE6"/>
<stop offset="1" stop-color="#4A737D"/>
</linearGradient>
<linearGradient id="paint103_linear" x1="912.052" y1="557.147" x2="914.62" y2="561.965" gradientUnits="userSpaceOnUse">
<stop stop-color="#AEDFE6"/>
<stop offset="1" stop-color="#4A737D"/>
</linearGradient>
<linearGradient id="paint104_linear" x1="159.592" y1="154.699" x2="188.327" y2="212.676" gradientUnits="userSpaceOnUse">
<stop stop-color="#AEDFE6"/>
<stop offset="1" stop-color="#4A737D"/>
</linearGradient>
<linearGradient id="paint105_linear" x1="177.273" y1="172.228" x2="175.834" y2="176.089" gradientUnits="userSpaceOnUse">
<stop stop-color="#AEDFE6"/>
<stop offset="1" stop-color="#4A737D"/>
</linearGradient>
<linearGradient id="paint106_linear" x1="168.828" y1="171.481" x2="170.031" y2="175.53" gradientUnits="userSpaceOnUse">
<stop stop-color="#AEDFE6"/>
<stop offset="1" stop-color="#4A737D"/>
</linearGradient>
<linearGradient id="paint107_linear" x1="179.317" y1="187.906" x2="188.754" y2="204.559" gradientUnits="userSpaceOnUse">
<stop stop-color="#AEDFE6"/>
<stop offset="1" stop-color="#4A737D"/>
</linearGradient>
<linearGradient id="paint108_linear" x1="167.858" y1="198.678" x2="180.254" y2="211.126" gradientUnits="userSpaceOnUse">
<stop stop-color="#AEDFE6"/>
<stop offset="1" stop-color="#4A737D"/>
</linearGradient>
<linearGradient id="paint109_linear" x1="194.429" y1="204.687" x2="193.009" y2="203.263" gradientUnits="userSpaceOnUse">
<stop stop-color="#AEDFE6"/>
<stop offset="1" stop-color="#3E6972"/>
</linearGradient>
<linearGradient id="paint110_linear" x1="193.188" y1="211.544" x2="193.246" y2="206.32" gradientUnits="userSpaceOnUse">
<stop offset="0.5826" stop-color="#AEDFE6"/>
<stop offset="1" stop-color="#4A737D"/>
</linearGradient>
<linearGradient id="paint111_linear" x1="171.789" y1="163.872" x2="171.614" y2="169.833" gradientUnits="userSpaceOnUse">
<stop stop-color="#AEDFE6"/>
<stop offset="1" stop-color="#4A737D"/>
</linearGradient>
<linearGradient id="paint112_linear" x1="1135.59" y1="180.981" x2="1106.85" y2="238.958" gradientUnits="userSpaceOnUse">
<stop stop-color="#AEDFE6"/>
<stop offset="1" stop-color="#4A737D"/>
</linearGradient>
<linearGradient id="paint113_linear" x1="1117.91" y1="198.512" x2="1119.35" y2="202.373" gradientUnits="userSpaceOnUse">
<stop stop-color="#AEDFE6"/>
<stop offset="1" stop-color="#4A737D"/>
</linearGradient>
<linearGradient id="paint114_linear" x1="1126.35" y1="197.763" x2="1125.15" y2="201.813" gradientUnits="userSpaceOnUse">
<stop stop-color="#AEDFE6"/>
<stop offset="1" stop-color="#4A737D"/>
</linearGradient>
<linearGradient id="paint115_linear" x1="1115.87" y1="214.189" x2="1106.43" y2="230.841" gradientUnits="userSpaceOnUse">
<stop stop-color="#AEDFE6"/>
<stop offset="1" stop-color="#4A737D"/>
</linearGradient>
<linearGradient id="paint116_linear" x1="1127.32" y1="224.961" x2="1114.93" y2="237.408" gradientUnits="userSpaceOnUse">
<stop stop-color="#AEDFE6"/>
<stop offset="1" stop-color="#4A737D"/>
</linearGradient>
<linearGradient id="paint117_linear" x1="1100.75" y1="230.97" x2="1102.17" y2="229.546" gradientUnits="userSpaceOnUse">
<stop stop-color="#AEDFE6"/>
<stop offset="1" stop-color="#3E6972"/>
</linearGradient>
<linearGradient id="paint118_linear" x1="1101.99" y1="237.827" x2="1101.94" y2="232.602" gradientUnits="userSpaceOnUse">
<stop offset="0.5826" stop-color="#AEDFE6"/>
<stop offset="1" stop-color="#4A737D"/>
</linearGradient>
<linearGradient id="paint119_linear" x1="1123.39" y1="190.155" x2="1123.57" y2="196.116" gradientUnits="userSpaceOnUse">
<stop stop-color="#AEDFE6"/>
<stop offset="1" stop-color="#4A737D"/>
</linearGradient>
</defs>
</svg>
