<?xml version="1.0" encoding="utf-8"?>
<!-- Generator: Adobe Illustrator 25.3.0, SVG Export Plug-In . SVG Version: 6.00 Build 0)  -->
<svg version="1.1" id="Livello_1" xmlns="http://www.w3.org/2000/svg" xmlns:xlink="http://www.w3.org/1999/xlink" x="0px" y="0px"
	 viewBox="0 0 1920 1920" style="enable-background:new 0 0 1920 1920;" xml:space="preserve">
<style type="text/css">
	.st0{opacity:0.5;fill:#FFFFFF;enable-background:new    ;}
	.st1{opacity:0.7;fill:#FFFFFF;enable-background:new    ;}
	.st2{fill:#FFFFFF;}
	.st3{enable-background:new    ;}
	.st4{fill:#03045E;}
</style>
<circle class="st0" cx="960" cy="960" r="701.6"/>
<circle class="st1" cx="960" cy="960" r="581.2"/>
<circle class="st2" cx="960" cy="960" r="456.7"/>
<g class="st3">
	<path class="st4" d="M741.5,988.3c-4.8-2.6-8.5-6.3-11.2-11c-2.7-4.7-4.1-9.9-4.1-15.7c0-5.8,1.4-11.1,4.1-15.7
		c2.7-4.7,6.5-8.3,11.2-11c4.8-2.6,10.1-4,16-4c4.4,0,8.4,0.7,12.1,2.1c3.7,1.4,6.8,3.5,9.4,6.3l-2.8,2.9c-4.8-4.8-11-7.2-18.6-7.2
		c-5.1,0-9.7,1.2-13.8,3.5c-4.1,2.3-7.4,5.5-9.8,9.5c-2.4,4.1-3.5,8.6-3.5,13.6c0,5,1.2,9.5,3.5,13.6c2.4,4.1,5.6,7.2,9.8,9.5
		c4.1,2.3,8.8,3.5,13.8,3.5c7.5,0,13.7-2.4,18.6-7.3l2.8,2.9c-2.6,2.8-5.7,4.9-9.5,6.3c-3.7,1.4-7.7,2.2-12.1,2.2
		C751.6,992.3,746.3,990.9,741.5,988.3z"/>
	<path class="st4" d="M827.9,951.3c3.3,3.3,4.9,8,4.9,14.2v26.4h-4.3v-26c0-5.1-1.3-8.9-3.8-11.6c-2.6-2.6-6.1-4-10.8-4
		c-5.3,0-9.5,1.6-12.5,4.8c-3.1,3.2-4.6,7.4-4.6,12.8v24h-4.3v-64.1h4.3v28.4c1.6-3.1,3.9-5.5,6.9-7.2c3.1-1.7,6.7-2.5,10.8-2.5
		C820.2,946.4,824.6,948,827.9,951.3z"/>
	<path class="st4" d="M878.7,950.7c3,2.9,4.5,7,4.5,12.6v28.6H879v-8c-1.4,2.7-3.5,4.7-6.3,6.2s-6.1,2.2-9.9,2.2
		c-5,0-9-1.2-11.9-3.5c-2.9-2.4-4.4-5.5-4.4-9.3c0-3.7,1.3-6.8,4-9.1c2.7-2.3,7-3.5,12.8-3.5h15.5v-3.6c0-4.2-1.1-7.4-3.4-9.6
		c-2.3-2.2-5.6-3.3-10-3.3c-3,0-5.9,0.5-8.6,1.6c-2.7,1-5.1,2.4-7,4.1l-2.2-3.1c2.2-2,5-3.6,8.1-4.7c3.2-1.1,6.5-1.7,9.9-1.7
		C871.4,946.4,875.7,947.8,878.7,950.7z M873,986c2.6-1.7,4.6-4.2,5.9-7.5v-8.5h-15.4c-4.4,0-7.6,0.8-9.6,2.4c-2,1.6-3,3.8-3,6.7
		c0,2.9,1.1,5.3,3.3,7c2.2,1.7,5.3,2.5,9.2,2.5C867.2,988.6,870.3,987.8,873,986z"/>
	<path class="st4" d="M901,927.7h4.3v64.1H901V927.7z"/>
	<path class="st4" d="M923.5,927.7h4.3v64.1h-4.3V927.7z"/>
	<path class="st4" d="M984.2,970.3h-38.8c0.1,3.5,1,6.6,2.7,9.4c1.7,2.7,3.9,4.9,6.8,6.4c2.9,1.5,6.1,2.2,9.6,2.2
		c2.9,0,5.7-0.5,8.2-1.6c2.5-1.1,4.6-2.6,6.3-4.7l2.5,2.9c-2,2.4-4.4,4.2-7.4,5.4c-3,1.3-6.2,1.9-9.6,1.9c-4.5,0-8.5-1-12-2.9
		c-3.5-2-6.3-4.7-8.3-8.1s-3-7.4-3-11.8c0-4.4,0.9-8.3,2.8-11.8c1.9-3.5,4.4-6.2,7.7-8.2c3.3-2,7-2.9,11.1-2.9s7.8,1,11,2.9
		c3.3,1.9,5.8,4.6,7.7,8.1c1.9,3.5,2.8,7.4,2.8,11.8L984.2,970.3z M954.2,952.3c-2.5,1.4-4.6,3.4-6.1,6c-1.5,2.6-2.4,5.5-2.6,8.7
		H980c-0.2-3.2-1-6.1-2.6-8.6c-1.6-2.5-3.6-4.5-6.1-6c-2.5-1.4-5.4-2.2-8.6-2.2S956.7,950.9,954.2,952.3z"/>
</g>
<g class="st3">
	<path class="st4" d="M1033.1,951.3c3.3,3.3,4.9,8,4.9,14.2v26.4h-4.3v-26c0-5.1-1.3-8.9-3.8-11.6c-2.6-2.6-6.1-4-10.8-4
		c-5.3,0-9.5,1.6-12.5,4.8c-3.1,3.2-4.6,7.4-4.6,12.8v24h-4.3v-45.1h4.1v9.8c1.6-3.2,3.9-5.6,7-7.4c3.1-1.8,6.7-2.7,10.9-2.7
		C1025.3,946.4,1029.8,948,1033.1,951.3z"/>
</g>
<g class="st3">
	<path class="st4" d="M1096.5,946.7V987c0,7.5-1.8,13-5.4,16.6s-9.1,5.4-16.4,5.4c-4.1,0-8.1-0.6-11.8-1.9c-3.7-1.3-6.7-3-8.9-5.3
		l2.3-3.3c2.2,2.1,5,3.7,8.1,4.8c3.2,1.2,6.5,1.7,10.1,1.7c6,0,10.4-1.4,13.3-4.3c2.9-2.9,4.3-7.3,4.3-13.3v-7.6
		c-1.8,3.3-4.4,5.8-7.7,7.6c-3.3,1.8-7,2.7-11.1,2.7c-4.2,0-8-0.9-11.4-2.8c-3.4-1.9-6.1-4.5-8.1-7.8c-2-3.3-2.9-7.1-2.9-11.3
		c0-4.2,1-8,2.9-11.3c2-3.3,4.7-5.9,8.1-7.8c3.4-1.8,7.2-2.8,11.4-2.8c4.1,0,7.9,0.9,11.2,2.8c3.3,1.8,5.9,4.4,7.7,7.8v-10.2H1096.5
		z M1083.3,984c2.8-1.5,5-3.7,6.6-6.4c1.6-2.7,2.4-5.9,2.4-9.4c0-3.5-0.8-6.6-2.4-9.3c-1.6-2.7-3.8-4.8-6.6-6.4
		c-2.8-1.5-6-2.3-9.5-2.3c-3.5,0-6.7,0.8-9.5,2.3c-2.8,1.5-5,3.6-6.6,6.4c-1.6,2.7-2.4,5.8-2.4,9.3c0,3.5,0.8,6.6,2.4,9.4
		c1.6,2.7,3.8,4.9,6.6,6.4c2.8,1.5,5.9,2.3,9.5,2.3C1077.3,986.3,1080.5,985.5,1083.3,984z"/>
	<path class="st4" d="M1152.9,970.3h-38.8c0.1,3.5,1,6.6,2.7,9.4c1.7,2.7,3.9,4.9,6.8,6.4c2.9,1.5,6.1,2.2,9.6,2.2
		c2.9,0,5.7-0.5,8.2-1.6c2.5-1.1,4.6-2.6,6.3-4.7l2.5,2.9c-2,2.4-4.4,4.2-7.4,5.4c-3,1.3-6.2,1.9-9.6,1.9c-4.5,0-8.5-1-12-2.9
		c-3.5-2-6.3-4.7-8.3-8.1c-2-3.5-3-7.4-3-11.8c0-4.4,0.9-8.3,2.8-11.8c1.9-3.5,4.5-6.2,7.7-8.2c3.3-2,7-2.9,11.1-2.9
		c4.1,0,7.8,1,11,2.9c3.3,1.9,5.8,4.6,7.7,8.1c1.9,3.5,2.8,7.4,2.8,11.8L1152.9,970.3z M1122.9,952.3c-2.5,1.4-4.6,3.4-6.1,6
		c-1.5,2.6-2.4,5.5-2.6,8.7h34.6c-0.2-3.2-1-6.1-2.6-8.6c-1.6-2.5-3.6-4.5-6.1-6c-2.5-1.4-5.4-2.2-8.6-2.2
		C1128.3,950.2,1125.5,950.9,1122.9,952.3z"/>
	<path class="st4" d="M1167.4,990.5c-3.3-1.1-5.8-2.5-7.7-4.1l2-3.5c1.8,1.6,4.2,2.9,7.1,3.9c2.9,1,5.9,1.6,9.1,1.6
		c4.5,0,7.9-0.7,10.1-2.2c2.2-1.5,3.2-3.6,3.2-6.2c0-1.9-0.6-3.4-1.8-4.5c-1.2-1.1-2.6-1.9-4.4-2.4c-1.7-0.5-4.1-1.1-7.2-1.6
		c-3.6-0.6-6.5-1.3-8.6-2.1c-2.2-0.7-4.1-2-5.6-3.6c-1.6-1.7-2.3-4-2.3-6.9c0-3.6,1.5-6.5,4.4-8.9s7.2-3.5,12.7-3.5
		c2.9,0,5.7,0.4,8.6,1.2c2.8,0.8,5.1,1.9,6.9,3.2l-2,3.5c-1.8-1.3-3.9-2.3-6.3-3c-2.4-0.7-4.8-1-7.3-1c-4.2,0-7.4,0.8-9.5,2.3
		c-2.1,1.6-3.2,3.6-3.2,6.1c0,2,0.6,3.6,1.8,4.7c1.2,1.1,2.7,2,4.4,2.5c1.8,0.5,4.2,1.1,7.4,1.8c3.5,0.6,6.4,1.3,8.5,2
		c2.2,0.7,4,1.9,5.5,3.5c1.5,1.6,2.2,3.8,2.2,6.7c0,3.7-1.6,6.7-4.7,9c-3.1,2.2-7.5,3.4-13.1,3.4
		C1174.2,992.2,1170.7,991.6,1167.4,990.5z"/>
</g>
</svg>
