<?xml version="1.0" encoding="utf-8"?>
<!-- Generator: Adobe Illustrator 25.3.0, SVG Export Plug-In . SVG Version: 6.00 Build 0)  -->
<svg version="1.1" id="Livello_1" xmlns="http://www.w3.org/2000/svg" xmlns:xlink="http://www.w3.org/1999/xlink" x="0px" y="0px"
	 viewBox="0 0 1920 1920" style="enable-background:new 0 0 1920 1920;" xml:space="preserve">
<style type="text/css">
	.st0{opacity:0.5;fill:#8FD6DA;enable-background:new    ;}
	.st1{opacity:0.7;fill:#8FD6DA;enable-background:new    ;}
	.st2{fill:#8FD6DA;}
	.st3{fill:none;stroke:#FFFFFF;stroke-width:2;stroke-linecap:round;stroke-miterlimit:10;}
	.st4{fill:#FFFFFF;}
	.st5{font-family:'Montserrat-Light';}
	.st6{font-size:48px;}
	.st7{font-family:'Montserrat-Regular';}
</style>
<circle class="st0" cx="1185" cy="960" r="444.8"/>
<circle class="st1" cx="1185" cy="960" r="352.8"/>
<circle class="st2" cx="1185" cy="960" r="248.2"/>
<line class="st3" x1="290.1" y1="960" x2="1177.9" y2="960"/>
<circle class="st4" cx="1177.5" cy="960" r="7.5"/>
<text transform="matrix(1 0 0 1 290.1141 918.2102)" class="st4 st5 st6">C</text>
<text transform="matrix(1 0 0 1 323.5218 918.2102)" class="st4 st5 st6">ommuni</text>
<text transform="matrix(1 0 0 1 533.1849 918.2102)" class="st4 st7 st6">t</text>
<text transform="matrix(1 0 0 1 552.1922 918.2102)" class="st4 st7 st6">y</text>
<text transform="matrix(1 0 0 1 290.1141 1036.4896)" class="st4 st5 st6">doi</text>
<text transform="matrix(1 0 0 1 365.6654 1036.4896)" class="st4 st5 st6">n</text>
<text transform="matrix(1 0 0 1 398.2562 1036.4896)" class="st4 st5 st6">g small </text>
<text transform="matrix(1 0 0 1 290.1141 1094.0892)" class="st4 st5 st6">a</text>
<text transform="matrix(1 0 0 1 318.5296 1094.0892)" class="st4 st5 st6">c</text>
<text transform="matrix(1 0 0 1 345.8412 1094.0892)" class="st4 st5 st6">tions</text>
</svg>
