<?xml version="1.0" encoding="utf-8"?>
<!-- Generator: Adobe Illustrator 25.3.0, SVG Export Plug-In . SVG Version: 6.00 Build 0)  -->
<svg version="1.1" id="Livello_1" xmlns="http://www.w3.org/2000/svg" xmlns:xlink="http://www.w3.org/1999/xlink" x="0px" y="0px"
	 viewBox="0 0 1920 1920" style="enable-background:new 0 0 1920 1920;" xml:space="preserve">
<style type="text/css">
	.st0{opacity:0.5;fill:#8FD6DA;enable-background:new    ;}
	.st1{opacity:0.7;fill:#8FD6DA;enable-background:new    ;}
	.st2{fill:#8FD6DA;}
	.st3{fill:none;stroke:#FFFFFF;stroke-width:2;stroke-linecap:round;stroke-miterlimit:10;}
	.st4{fill:#FFFFFF;}
	.st5{enable-background:new    ;}
</style>
<circle class="st0" cx="1185" cy="960" r="444.8"/>
<circle class="st1" cx="1185" cy="960" r="352.8"/>
<circle class="st2" cx="1185" cy="960" r="248.2"/>
<line class="st3" x1="290.1" y1="960" x2="1177.9" y2="960"/>
<circle class="st4" cx="1177.5" cy="960" r="7.5"/>
<g class="st5">
	<path class="st4" d="M301.3,916.2c-2.6-1.5-4.7-3.5-6.2-6.1c-1.5-2.6-2.3-5.5-2.3-8.7s0.8-6.1,2.3-8.7c1.5-2.6,3.6-4.6,6.2-6.1
		c2.6-1.5,5.6-2.2,8.9-2.2c2.4,0,4.7,0.4,6.7,1.2c2,0.8,3.8,1.9,5.2,3.5l-1.5,1.6c-2.7-2.7-6.1-4-10.3-4c-2.8,0-5.4,0.6-7.7,1.9
		c-2.3,1.3-4.1,3-5.4,5.3c-1.3,2.3-2,4.8-2,7.6s0.7,5.3,2,7.6c1.3,2.3,3.1,4,5.4,5.3s4.9,1.9,7.7,1.9c4.2,0,7.6-1.3,10.3-4l1.5,1.6
		c-1.4,1.5-3.2,2.7-5.3,3.5c-2.1,0.8-4.3,1.2-6.7,1.2C306.9,918.5,303.9,917.7,301.3,916.2z"/>
</g>
<g class="st5">
	<path class="st4" d="M332,916.8c-1.9-1.1-3.4-2.6-4.5-4.5c-1.1-1.9-1.6-4.1-1.6-6.6c0-2.4,0.5-4.6,1.6-6.6c1.1-1.9,2.6-3.4,4.5-4.5
		c1.9-1.1,4-1.6,6.4-1.6c2.4,0,4.5,0.5,6.4,1.6c1.9,1.1,3.4,2.6,4.5,4.5c1.1,1.9,1.6,4.1,1.6,6.6c0,2.4-0.5,4.6-1.6,6.6
		c-1.1,1.9-2.6,3.4-4.5,4.5c-1.9,1.1-4,1.6-6.4,1.6C336,918.4,333.9,917.9,332,916.8z M343.6,914.9c1.5-0.9,2.7-2.1,3.6-3.7
		c0.9-1.6,1.3-3.4,1.3-5.5c0-2-0.4-3.9-1.3-5.5c-0.9-1.6-2.1-2.8-3.6-3.7c-1.5-0.9-3.2-1.3-5.2-1.3s-3.6,0.4-5.2,1.3
		c-1.5,0.9-2.7,2.1-3.6,3.7c-0.9,1.6-1.3,3.4-1.3,5.5c0,2,0.4,3.9,1.3,5.5c0.9,1.6,2.1,2.8,3.6,3.7c1.5,0.9,3.2,1.3,5.2,1.3
		S342,915.8,343.6,914.9z"/>
	<path class="st4" d="M396.9,895.7c1.8,1.8,2.7,4.4,2.7,7.9v14.6h-2.4v-14.4c0-2.8-0.7-5-2.1-6.4c-1.4-1.5-3.3-2.2-5.8-2.2
		c-2.8,0-5,0.9-6.7,2.6c-1.6,1.8-2.5,4.1-2.5,7.1v13.3h-2.4v-14.4c0-2.8-0.7-5-2.1-6.4c-1.4-1.5-3.3-2.2-5.8-2.2
		c-2.8,0-5,0.9-6.7,2.6c-1.6,1.8-2.5,4.1-2.5,7.1v13.3h-2.4v-25.1h2.3v5.4c0.8-1.8,2.1-3.1,3.7-4.1c1.6-1,3.6-1.5,5.9-1.5
		c2.3,0,4.2,0.5,5.8,1.5c1.6,1,2.7,2.5,3.4,4.5c0.8-1.9,2.1-3.3,3.9-4.4c1.8-1.1,3.8-1.6,6.2-1.6C392.7,893,395.1,893.9,396.9,895.7
		z"/>
	<path class="st4" d="M448,895.7c1.8,1.8,2.7,4.4,2.7,7.9v14.6h-2.4v-14.4c0-2.8-0.7-5-2.1-6.4c-1.4-1.5-3.3-2.2-5.8-2.2
		c-2.8,0-5,0.9-6.7,2.6c-1.6,1.8-2.5,4.1-2.5,7.1v13.3h-2.4v-14.4c0-2.8-0.7-5-2.1-6.4c-1.4-1.5-3.3-2.2-5.8-2.2
		c-2.8,0-5,0.9-6.7,2.6c-1.6,1.8-2.5,4.1-2.5,7.1v13.3h-2.4v-25.1h2.3v5.4c0.8-1.8,2.1-3.1,3.7-4.1c1.6-1,3.6-1.5,5.9-1.5
		c2.3,0,4.2,0.5,5.8,1.5c1.6,1,2.7,2.5,3.4,4.5c0.8-1.9,2.1-3.3,3.9-4.4c1.8-1.1,3.8-1.6,6.2-1.6C443.7,893,446.2,893.9,448,895.7z"
		/>
	<path class="st4" d="M482.4,893.2v25.1h-2.3v-5.4c-0.8,1.8-2.1,3.1-3.7,4.1c-1.6,1-3.6,1.5-5.8,1.5c-3.3,0-5.8-0.9-7.7-2.7
		c-1.9-1.8-2.8-4.4-2.8-7.9v-14.6h2.4v14.4c0,2.8,0.7,5,2.2,6.4s3.5,2.2,6.1,2.2c2.8,0,5-0.9,6.7-2.6c1.6-1.8,2.5-4.1,2.5-7.1v-13.3
		H482.4z"/>
	<path class="st4" d="M512.3,895.7c1.8,1.8,2.7,4.4,2.7,7.9v14.6h-2.4v-14.4c0-2.8-0.7-5-2.1-6.4s-3.4-2.2-6-2.2
		c-2.9,0-5.3,0.9-7,2.6c-1.7,1.8-2.5,4.1-2.5,7.1v13.3h-2.4v-25.1h2.3v5.4c0.9-1.8,2.2-3.1,3.9-4.1c1.7-1,3.7-1.5,6.1-1.5
		C508,893,510.5,893.9,512.3,895.7z"/>
	<path class="st4" d="M524.7,886.5c-0.4-0.4-0.6-0.8-0.6-1.4c0-0.5,0.2-1,0.6-1.4s0.8-0.6,1.4-0.6c0.5,0,1,0.2,1.4,0.6
		c0.4,0.4,0.6,0.8,0.6,1.4c0,0.5-0.2,1-0.6,1.4c-0.4,0.4-0.8,0.6-1.4,0.6C525.6,887.1,525.1,886.9,524.7,886.5z M524.9,893.2h2.4
		v25.1h-2.4V893.2z"/>
</g>
<g class="st5">
	<path class="st4" d="M551.2,916.7c-0.6,0.6-1.4,1-2.4,1.3c-0.9,0.3-1.9,0.5-3,0.5c-2.4,0-4.2-0.6-5.5-1.9c-1.3-1.3-1.9-3.1-1.9-5.4
		v-15.3H534V893h4.5v-5.5h3.4v5.5h7.7v2.9h-7.7v15.1c0,1.5,0.4,2.6,1.1,3.4c0.8,0.8,1.8,1.2,3.2,1.2c0.7,0,1.4-0.1,2-0.3
		c0.7-0.2,1.2-0.5,1.7-1L551.2,916.7z"/>
</g>
<g class="st5">
	<path class="st4" d="M578.2,893l-12.6,28.3c-1,2.4-2.2,4-3.6,5c-1.3,1-3,1.5-4.8,1.5c-1.2,0-2.4-0.2-3.4-0.6c-1.1-0.4-2-1-2.7-1.7
		l1.6-2.5c1.3,1.3,2.8,1.9,4.6,1.9c1.2,0,2.1-0.3,3-1c0.8-0.6,1.6-1.7,2.3-3.3l1.1-2.4L552.2,893h3.6l9.5,21.5l9.5-21.5H578.2z"/>
</g>
<g class="st5">
	<path class="st4" d="M317.5,1000.9v35.6h-2.4v-5.9c-1,2-2.4,3.5-4.2,4.5c-1.8,1.1-3.8,1.6-6.1,1.6c-2.3,0-4.4-0.5-6.3-1.6
		c-1.9-1.1-3.4-2.6-4.4-4.5c-1.1-1.9-1.6-4.1-1.6-6.6c0-2.5,0.5-4.7,1.6-6.6c1.1-1.9,2.6-3.4,4.4-4.5c1.9-1.1,4-1.6,6.3-1.6
		c2.2,0,4.2,0.5,6,1.6c1.8,1.1,3.2,2.5,4.2,4.4v-16.4H317.5z M310.2,1033.2c1.5-0.9,2.7-2.1,3.6-3.7c0.9-1.6,1.3-3.4,1.3-5.5
		c0-2-0.4-3.9-1.3-5.5c-0.9-1.6-2.1-2.8-3.6-3.7c-1.5-0.9-3.2-1.3-5.2-1.3s-3.6,0.4-5.2,1.3c-1.5,0.9-2.7,2.1-3.6,3.7
		c-0.9,1.6-1.3,3.4-1.3,5.5c0,2,0.4,3.9,1.3,5.5c0.9,1.6,2.1,2.8,3.6,3.7c1.5,0.9,3.2,1.3,5.2,1.3S308.6,1034.1,310.2,1033.2z"/>
	<path class="st4" d="M331,1035c-1.9-1.1-3.4-2.6-4.5-4.5c-1.1-1.9-1.6-4.1-1.6-6.6c0-2.4,0.5-4.6,1.6-6.6c1.1-1.9,2.6-3.4,4.5-4.5
		c1.9-1.1,4-1.6,6.4-1.6c2.4,0,4.5,0.5,6.4,1.6c1.9,1.1,3.4,2.6,4.5,4.5c1.1,1.9,1.6,4.1,1.6,6.6c0,2.4-0.5,4.6-1.6,6.6
		c-1.1,1.9-2.6,3.4-4.5,4.5c-1.9,1.1-4,1.6-6.4,1.6C335,1036.7,332.9,1036.1,331,1035z M342.6,1033.2c1.5-0.9,2.7-2.1,3.6-3.7
		c0.9-1.6,1.3-3.4,1.3-5.5c0-2-0.4-3.9-1.3-5.5c-0.9-1.6-2.1-2.8-3.6-3.7c-1.5-0.9-3.2-1.3-5.2-1.3s-3.6,0.4-5.2,1.3
		c-1.5,0.9-2.7,2.1-3.6,3.7c-0.9,1.6-1.3,3.4-1.3,5.5c0,2,0.4,3.9,1.3,5.5c0.9,1.6,2.1,2.8,3.6,3.7c1.5,0.9,3.2,1.3,5.2,1.3
		S341,1034.1,342.6,1033.2z"/>
	<path class="st4" d="M357.2,1004.8c-0.4-0.4-0.6-0.8-0.6-1.4c0-0.5,0.2-1,0.6-1.4s0.8-0.6,1.4-0.6c0.5,0,1,0.2,1.4,0.6
		c0.4,0.4,0.6,0.8,0.6,1.4c0,0.5-0.2,1-0.6,1.4c-0.4,0.4-0.8,0.6-1.4,0.6C358,1005.3,357.6,1005.2,357.2,1004.8z M357.4,1011.4h2.4
		v25.1h-2.4V1011.4z"/>
</g>
<g class="st5">
	<path class="st4" d="M390.4,1014c1.8,1.8,2.7,4.4,2.7,7.9v14.6h-2.4V1022c0-2.8-0.7-5-2.1-6.4s-3.4-2.2-6-2.2c-2.9,0-5.3,0.9-7,2.6
		c-1.7,1.8-2.5,4.1-2.5,7.1v13.3h-2.4v-25.1h2.3v5.4c0.9-1.8,2.2-3.1,3.9-4.1c1.7-1,3.7-1.5,6.1-1.5
		C386.1,1011.2,388.6,1012.2,390.4,1014z"/>
</g>
<g class="st5">
	<path class="st4" d="M425.9,1011.4v22.4c0,4.2-1,7.2-3,9.2c-2,2-5.1,3-9.1,3c-2.3,0-4.5-0.4-6.5-1.1c-2-0.7-3.7-1.7-4.9-2.9
		l1.3-1.8c1.2,1.2,2.8,2,4.5,2.7c1.8,0.6,3.6,1,5.6,1c3.3,0,5.8-0.8,7.4-2.4c1.6-1.6,2.4-4,2.4-7.4v-4.2c-1,1.8-2.4,3.2-4.3,4.2
		c-1.8,1-3.9,1.5-6.1,1.5c-2.3,0-4.5-0.5-6.4-1.6c-1.9-1-3.4-2.5-4.5-4.3c-1.1-1.9-1.6-4-1.6-6.3s0.5-4.4,1.6-6.3
		c1.1-1.9,2.6-3.3,4.5-4.3c1.9-1,4-1.5,6.4-1.5c2.3,0,4.4,0.5,6.2,1.5c1.9,1,3.3,2.5,4.3,4.3v-5.7H425.9z M418.6,1032.1
		c1.6-0.8,2.8-2,3.7-3.6c0.9-1.5,1.3-3.3,1.3-5.2s-0.4-3.7-1.3-5.2c-0.9-1.5-2.1-2.7-3.7-3.5c-1.6-0.8-3.3-1.3-5.3-1.3
		c-2,0-3.7,0.4-5.3,1.3c-1.6,0.8-2.8,2-3.6,3.5c-0.9,1.5-1.3,3.2-1.3,5.2s0.4,3.7,1.3,5.2c0.9,1.5,2.1,2.7,3.6,3.6
		c1.6,0.8,3.3,1.3,5.3,1.3C415.2,1033.4,417,1033,418.6,1032.1z"/>
	<path class="st4" d="M449,1035.8c-1.8-0.6-3.2-1.4-4.3-2.3l1.1-1.9c1,0.9,2.3,1.6,4,2.2c1.6,0.6,3.3,0.9,5.1,0.9
		c2.5,0,4.4-0.4,5.6-1.2c1.2-0.8,1.8-2,1.8-3.5c0-1.1-0.3-1.9-1-2.5c-0.7-0.6-1.5-1.1-2.4-1.3s-2.3-0.6-4-0.9
		c-2-0.4-3.6-0.7-4.8-1.2c-1.2-0.4-2.3-1.1-3.1-2c-0.9-0.9-1.3-2.2-1.3-3.8c0-2,0.8-3.6,2.5-4.9c1.6-1.3,4-1.9,7-1.9
		c1.6,0,3.2,0.2,4.8,0.7c1.6,0.4,2.8,1,3.8,1.8l-1.1,1.9c-1-0.7-2.2-1.3-3.5-1.7c-1.3-0.4-2.7-0.6-4-0.6c-2.3,0-4.1,0.4-5.3,1.3
		c-1.2,0.9-1.8,2-1.8,3.4c0,1.1,0.3,2,1,2.6s1.5,1.1,2.5,1.4c1,0.3,2.3,0.6,4.1,1c2,0.4,3.5,0.7,4.7,1.1c1.2,0.4,2.2,1,3,1.9
		c0.8,0.9,1.2,2.1,1.2,3.7c0,2.1-0.9,3.7-2.6,5s-4.2,1.9-7.3,1.9C452.7,1036.7,450.8,1036.4,449,1035.8z"/>
	<path class="st4" d="M509.9,1014c1.8,1.8,2.7,4.4,2.7,7.9v14.6h-2.4V1022c0-2.8-0.7-5-2.1-6.4c-1.4-1.5-3.3-2.2-5.8-2.2
		c-2.8,0-5,0.9-6.7,2.6c-1.6,1.8-2.5,4.1-2.5,7.1v13.3h-2.4V1022c0-2.8-0.7-5-2.1-6.4c-1.4-1.5-3.3-2.2-5.8-2.2
		c-2.8,0-5,0.9-6.7,2.6c-1.6,1.8-2.5,4.1-2.5,7.1v13.3h-2.4v-25.1h2.3v5.4c0.8-1.8,2.1-3.1,3.7-4.1c1.6-1,3.6-1.5,5.9-1.5
		c2.3,0,4.2,0.5,5.8,1.5c1.6,1,2.7,2.5,3.4,4.5c0.8-1.9,2.1-3.3,3.9-4.4c1.8-1.1,3.8-1.6,6.2-1.6
		C505.7,1011.2,508.1,1012.2,509.9,1014z"/>
	<path class="st4" d="M538,1013.6c1.7,1.6,2.5,3.9,2.5,7v15.9h-2.3v-4.5c-0.8,1.5-2,2.6-3.5,3.4c-1.5,0.8-3.4,1.2-5.5,1.2
		c-2.8,0-5-0.7-6.6-2c-1.6-1.3-2.4-3-2.4-5.2c0-2.1,0.7-3.8,2.2-5.1c1.5-1.3,3.9-1.9,7.1-1.9h8.6v-2c0-2.3-0.6-4.1-1.9-5.3
		c-1.3-1.2-3.1-1.8-5.5-1.8c-1.7,0-3.3,0.3-4.8,0.9c-1.5,0.6-2.8,1.3-3.9,2.3l-1.2-1.7c1.2-1.1,2.8-2,4.5-2.6
		c1.8-0.6,3.6-0.9,5.5-0.9C534,1011.2,536.4,1012,538,1013.6z M534.8,1033.3c1.5-1,2.6-2.4,3.3-4.2v-4.7h-8.5
		c-2.5,0-4.2,0.4-5.4,1.3c-1.1,0.9-1.7,2.1-1.7,3.7c0,1.6,0.6,2.9,1.8,3.9c1.2,0.9,2.9,1.4,5.1,1.4
		C531.6,1034.7,533.4,1034.2,534.8,1033.3z"/>
	<path class="st4" d="M550.4,1000.9h2.4v35.6h-2.4V1000.9z"/>
	<path class="st4" d="M562.9,1000.9h2.4v35.6h-2.4V1000.9z"/>
</g>
<g class="st5">
	<path class="st4" d="M310.8,1071.2c1.7,1.6,2.5,3.9,2.5,7v15.9H311v-4.5c-0.8,1.5-2,2.6-3.5,3.4c-1.5,0.8-3.4,1.2-5.5,1.2
		c-2.8,0-5-0.7-6.6-2c-1.6-1.3-2.4-3-2.4-5.2c0-2.1,0.7-3.8,2.2-5.1c1.5-1.3,3.9-1.9,7.1-1.9h8.6v-2c0-2.3-0.6-4.1-1.9-5.3
		c-1.3-1.2-3.1-1.8-5.5-1.8c-1.7,0-3.3,0.3-4.8,0.9c-1.5,0.6-2.8,1.3-3.9,2.3l-1.2-1.7c1.2-1.1,2.8-2,4.5-2.6
		c1.8-0.6,3.6-0.9,5.5-0.9C306.8,1068.8,309.1,1069.6,310.8,1071.2z M307.6,1090.9c1.5-1,2.6-2.4,3.3-4.2v-4.7h-8.5
		c-2.5,0-4.2,0.4-5.4,1.3c-1.1,0.9-1.7,2.1-1.7,3.7c0,1.6,0.6,2.9,1.8,3.9c1.2,0.9,2.9,1.4,5.1,1.4
		C304.4,1092.3,306.2,1091.8,307.6,1090.9z"/>
</g>
<g class="st5">
	<path class="st4" d="M327,1092.6c-1.9-1.1-3.4-2.6-4.5-4.5c-1.1-1.9-1.6-4.1-1.6-6.6c0-2.5,0.5-4.7,1.6-6.6
		c1.1-1.9,2.6-3.4,4.5-4.5s4.1-1.6,6.5-1.6c2,0,3.8,0.4,5.5,1.2c1.6,0.8,3,1.9,4,3.4l-1.8,1.3c-0.9-1.2-2-2.2-3.3-2.8
		c-1.3-0.6-2.8-0.9-4.4-0.9c-2,0-3.7,0.4-5.3,1.3c-1.6,0.9-2.8,2.1-3.6,3.7c-0.9,1.6-1.3,3.4-1.3,5.5c0,2.1,0.4,3.9,1.3,5.5
		c0.9,1.6,2.1,2.8,3.6,3.7c1.6,0.9,3.3,1.3,5.3,1.3c1.6,0,3.1-0.3,4.4-0.9c1.3-0.6,2.4-1.6,3.3-2.8l1.8,1.3c-1,1.5-2.4,2.6-4,3.4
		c-1.6,0.8-3.5,1.2-5.5,1.2C331.1,1094.3,328.9,1093.7,327,1092.6z"/>
</g>
<g class="st5">
	<path class="st4" d="M363.4,1092.5c-0.6,0.6-1.4,1-2.3,1.3c-0.9,0.3-1.9,0.5-2.9,0.5c-2.2,0-3.9-0.6-5-1.8c-1.2-1.2-1.8-2.9-1.8-5
		v-16.4h-4.6v-2.1h4.6v-5.5h2.4v5.5h8v2.1h-8v16.1c0,1.6,0.4,2.9,1.2,3.7c0.8,0.8,1.9,1.3,3.5,1.3c1.6,0,2.9-0.5,3.9-1.4
		L363.4,1092.5z"/>
	<path class="st4" d="M369.8,1062.4c-0.4-0.4-0.6-0.8-0.6-1.4c0-0.5,0.2-1,0.6-1.4s0.8-0.6,1.4-0.6c0.5,0,1,0.2,1.4,0.6
		c0.4,0.4,0.6,0.8,0.6,1.4c0,0.5-0.2,1-0.6,1.4c-0.4,0.4-0.8,0.6-1.4,0.6C370.7,1062.9,370.2,1062.8,369.8,1062.4z M370,1069h2.4
		v25.1H370V1069z"/>
	<path class="st4" d="M385.9,1092.6c-1.9-1.1-3.4-2.6-4.5-4.5c-1.1-1.9-1.6-4.1-1.6-6.6c0-2.4,0.5-4.6,1.6-6.6
		c1.1-1.9,2.6-3.4,4.5-4.5c1.9-1.1,4-1.6,6.4-1.6c2.4,0,4.5,0.5,6.4,1.6c1.9,1.1,3.4,2.6,4.5,4.5c1.1,1.9,1.6,4.1,1.6,6.6
		c0,2.4-0.5,4.6-1.6,6.6c-1.1,1.9-2.6,3.4-4.5,4.5c-1.9,1.1-4,1.6-6.4,1.6C390,1094.3,387.8,1093.7,385.9,1092.6z M397.5,1090.8
		c1.5-0.9,2.7-2.1,3.6-3.7c0.9-1.6,1.3-3.4,1.3-5.5c0-2-0.4-3.9-1.3-5.5c-0.9-1.6-2.1-2.8-3.6-3.7c-1.5-0.9-3.2-1.3-5.2-1.3
		s-3.6,0.4-5.2,1.3c-1.5,0.9-2.7,2.1-3.6,3.7c-0.9,1.6-1.3,3.4-1.3,5.5c0,2,0.4,3.9,1.3,5.5c0.9,1.6,2.1,2.8,3.6,3.7
		c1.5,0.9,3.2,1.3,5.2,1.3S396,1091.7,397.5,1090.8z"/>
	<path class="st4" d="M432,1071.6c1.8,1.8,2.7,4.4,2.7,7.9v14.6h-2.4v-14.4c0-2.8-0.7-5-2.1-6.4s-3.4-2.2-6-2.2
		c-2.9,0-5.3,0.9-7,2.6c-1.7,1.8-2.5,4.1-2.5,7.1v13.3h-2.4V1069h2.3v5.4c0.9-1.8,2.2-3.1,3.9-4.1c1.7-1,3.7-1.5,6.1-1.5
		C427.7,1068.8,430.2,1069.8,432,1071.6z"/>
	<path class="st4" d="M445.2,1093.4c-1.8-0.6-3.2-1.4-4.3-2.3l1.1-1.9c1,0.9,2.3,1.6,4,2.2c1.6,0.6,3.3,0.9,5.1,0.9
		c2.5,0,4.4-0.4,5.6-1.2c1.2-0.8,1.8-2,1.8-3.5c0-1.1-0.3-1.9-1-2.5c-0.7-0.6-1.5-1.1-2.4-1.3s-2.3-0.6-4-0.9
		c-2-0.4-3.6-0.7-4.8-1.2c-1.2-0.4-2.3-1.1-3.1-2c-0.9-0.9-1.3-2.2-1.3-3.8c0-2,0.8-3.6,2.5-4.9c1.6-1.3,4-1.9,7-1.9
		c1.6,0,3.2,0.2,4.8,0.7c1.6,0.4,2.8,1,3.8,1.8l-1.1,1.9c-1-0.7-2.2-1.3-3.5-1.7c-1.3-0.4-2.7-0.6-4-0.6c-2.3,0-4.1,0.4-5.3,1.3
		c-1.2,0.9-1.8,2-1.8,3.4c0,1.1,0.3,2,1,2.6s1.5,1.1,2.5,1.4c1,0.3,2.3,0.6,4.1,1c2,0.4,3.5,0.7,4.7,1.1c1.2,0.4,2.2,1,3,1.9
		c0.8,0.9,1.2,2.1,1.2,3.7c0,2.1-0.9,3.7-2.6,5s-4.2,1.9-7.3,1.9C448.9,1094.3,447,1094,445.2,1093.4z"/>
</g>
</svg>
