<?xml version="1.0" encoding="utf-8"?>
<!-- Generator: Adobe Illustrator 25.3.0, SVG Export Plug-In . SVG Version: 6.00 Build 0)  -->
<svg version="1.1" id="Livello_1" xmlns="http://www.w3.org/2000/svg" xmlns:xlink="http://www.w3.org/1999/xlink" x="0px" y="0px"
	 viewBox="0 0 1920 1307.7" style="enable-background:new 0 0 1920 1307.7;" xml:space="preserve">
<style type="text/css">
	.st0{opacity:0.9;fill:#FFFFFF;enable-background:new    ;}
	.st1{enable-background:new    ;}
	.st2{fill:#03045E;}
</style>
<path class="st0" d="M310.3,261.5h1299.4c49.7,0,90.1,40.3,90.1,90.1v604.5c0,49.7-40.3,90.1-90.1,90.1H310.3
	c-49.7,0-90.1-40.3-90.1-90.1V351.6C220.2,301.8,260.6,261.5,310.3,261.5z"/>
<g class="st1">
	<path class="st2" d="M435,668v20.8h-6.3V668l-24.1-39.4h6.8l20.6,33.8l20.6-33.8h6.4L435,668z"/>
</g>
<g class="st1">
	<path class="st2" d="M469.3,686.3c-3.5-2-6.2-4.7-8.3-8.2c-2-3.5-3-7.5-3-11.9c0-4.4,1-8.4,3-11.9c2-3.5,4.8-6.2,8.3-8.2
		c3.5-1.9,7.4-2.9,11.8-2.9c4.4,0,8.3,1,11.8,2.9c3.5,2,6.2,4.7,8.2,8.2c2,3.5,3,7.5,3,11.9c0,4.4-1,8.4-3,11.9
		c-2,3.5-4.7,6.2-8.2,8.2c-3.5,2-7.4,3-11.8,3C476.7,689.3,472.8,688.3,469.3,686.3z M489.7,681.6c2.6-1.5,4.5-3.5,6-6.2
		c1.4-2.7,2.1-5.8,2.1-9.2c0-3.4-0.7-6.5-2.1-9.2c-1.4-2.7-3.4-4.8-6-6.2c-2.6-1.5-5.4-2.2-8.6-2.2c-3.2,0-6.1,0.7-8.6,2.2
		c-2.6,1.5-4.6,3.5-6,6.2c-1.5,2.7-2.2,5.8-2.2,9.2c0,3.4,0.7,6.5,2.2,9.2c1.5,2.7,3.5,4.8,6,6.2c2.6,1.5,5.4,2.2,8.6,2.2
		C484.3,683.8,487.1,683.1,489.7,681.6z"/>
	<path class="st2" d="M557.2,643.6v45.2h-5.8v-8.3c-1.6,2.8-3.8,4.9-6.6,6.4c-2.8,1.5-6,2.3-9.6,2.3c-5.9,0-10.6-1.6-14-4.9
		c-3.4-3.3-5.1-8.1-5.1-14.5v-26.2h6.1v25.6c0,4.8,1.2,8.4,3.5,10.8c2.4,2.5,5.7,3.7,10.1,3.7c4.8,0,8.5-1.4,11.3-4.3
		c2.8-2.9,4.1-6.9,4.1-12.1v-23.7H557.2z"/>
</g>
<g class="st1">
	<path class="st2" d="M633.5,648.2c3.4,3.3,5,8.1,5,14.4v26.2h-6.1v-25.6c0-4.7-1.2-8.3-3.5-10.8c-2.4-2.5-5.7-3.7-10.1-3.7
		c-4.9,0-8.7,1.4-11.6,4.3c-2.8,2.9-4.3,6.9-4.3,12v23.7h-6.1v-45.2h5.8v8.3c1.7-2.8,4-4.9,6.9-6.4c3-1.5,6.4-2.3,10.3-2.3
		C625.6,643.2,630.1,644.9,633.5,648.2z"/>
</g>
<g class="st1">
	<path class="st2" d="M694.7,668.1h-37.8c0.3,4.7,2.1,8.5,5.4,11.4c3.3,2.9,7.4,4.3,12.4,4.3c2.8,0,5.4-0.5,7.7-1.5
		c2.4-1,4.4-2.5,6.1-4.4l3.4,4c-2,2.4-4.5,4.2-7.5,5.5c-3,1.3-6.3,1.9-9.9,1.9c-4.6,0-8.8-1-12.3-3c-3.6-2-6.4-4.7-8.4-8.2
		c-2-3.5-3-7.5-3-11.9c0-4.4,1-8.4,2.9-11.9c1.9-3.5,4.6-6.2,7.9-8.2c3.4-1.9,7.1-2.9,11.3-2.9c4.2,0,7.9,1,11.3,2.9
		c3.3,2,5.9,4.7,7.8,8.1c1.9,3.5,2.8,7.4,2.8,11.9L694.7,668.1z M661.9,652.7c-3,2.8-4.6,6.4-5,10.9h32.1c-0.4-4.5-2.1-8.1-5-10.9
		c-3-2.8-6.6-4.2-11.1-4.2C668.5,648.5,664.8,649.9,661.9,652.7z"/>
	<path class="st2" d="M746.6,668.1h-37.8c0.3,4.7,2.1,8.5,5.4,11.4c3.3,2.9,7.4,4.3,12.4,4.3c2.8,0,5.4-0.5,7.7-1.5
		c2.4-1,4.4-2.5,6.1-4.4l3.4,4c-2,2.4-4.5,4.2-7.5,5.5c-3,1.3-6.3,1.9-9.9,1.9c-4.6,0-8.8-1-12.3-3c-3.6-2-6.4-4.7-8.4-8.2
		c-2-3.5-3-7.5-3-11.9c0-4.4,1-8.4,2.9-11.9c1.9-3.5,4.6-6.2,7.9-8.2c3.4-1.9,7.1-2.9,11.3-2.9c4.2,0,7.9,1,11.3,2.9
		c3.3,2,5.9,4.7,7.8,8.1c1.9,3.5,2.8,7.4,2.8,11.9L746.6,668.1z M713.8,652.7c-3,2.8-4.6,6.4-5,10.9h32.1c-0.4-4.5-2.1-8.1-5-10.9
		c-3-2.8-6.6-4.2-11.1-4.2C720.4,648.5,716.8,649.9,713.8,652.7z"/>
	<path class="st2" d="M800.5,625v63.8h-5.8v-8.9c-1.8,3-4.3,5.4-7.3,7c-3,1.6-6.4,2.4-10.2,2.4c-4.2,0-8.1-1-11.5-2.9
		c-3.4-1.9-6.1-4.7-8.1-8.2c-1.9-3.5-2.9-7.5-2.9-12s1-8.5,2.9-12c1.9-3.5,4.6-6.2,8.1-8.1c3.4-1.9,7.3-2.9,11.5-2.9
		c3.7,0,7,0.8,9.9,2.3c3,1.5,5.4,3.7,7.3,6.7V625H800.5z M786.2,681.6c2.6-1.5,4.6-3.5,6-6.2c1.5-2.7,2.2-5.8,2.2-9.2
		c0-3.4-0.7-6.5-2.2-9.2c-1.5-2.7-3.5-4.8-6-6.2c-2.6-1.5-5.4-2.2-8.6-2.2c-3.2,0-6.1,0.7-8.6,2.2c-2.6,1.5-4.6,3.5-6,6.2
		c-1.5,2.7-2.2,5.8-2.2,9.2c0,3.4,0.7,6.5,2.2,9.2c1.5,2.7,3.5,4.8,6,6.2c2.6,1.5,5.4,2.2,8.6,2.2
		C780.8,683.8,783.7,683.1,786.2,681.6z"/>
</g>
<g class="st1">
	<path class="st2" d="M863.8,686.1c-1.1,1-2.6,1.8-4.3,2.4c-1.7,0.5-3.5,0.8-5.3,0.8c-4.2,0-7.5-1.1-9.8-3.4
		c-2.3-2.3-3.4-5.5-3.4-9.7v-27.3H833v-5.2h8.1v-9.9h6.1v9.9h13.8v5.2h-13.8v27c0,2.7,0.7,4.7,2,6.1c1.3,1.4,3.3,2.1,5.8,2.1
		c1.3,0,2.5-0.2,3.7-0.6c1.2-0.4,2.2-1,3.1-1.7L863.8,686.1z"/>
</g>
<g class="st1">
	<path class="st2" d="M880,686.3c-3.5-2-6.2-4.7-8.3-8.2c-2-3.5-3-7.5-3-11.9c0-4.4,1-8.4,3-11.9c2-3.5,4.8-6.2,8.3-8.2
		c3.5-1.9,7.4-2.9,11.8-2.9c4.4,0,8.3,1,11.8,2.9c3.5,2,6.2,4.7,8.2,8.2c2,3.5,3,7.5,3,11.9c0,4.4-1,8.4-3,11.9
		c-2,3.5-4.7,6.2-8.2,8.2c-3.5,2-7.4,3-11.8,3C887.4,689.3,883.5,688.3,880,686.3z M900.4,681.6c2.6-1.5,4.5-3.5,6-6.2
		c1.4-2.7,2.1-5.8,2.1-9.2c0-3.4-0.7-6.5-2.1-9.2c-1.4-2.7-3.4-4.8-6-6.2c-2.6-1.5-5.4-2.2-8.6-2.2c-3.2,0-6.1,0.7-8.6,2.2
		c-2.6,1.5-4.6,3.5-6,6.2c-1.5,2.7-2.2,5.8-2.2,9.2c0,3.4,0.7,6.5,2.2,9.2c1.5,2.7,3.5,4.8,6,6.2c2.6,1.5,5.4,2.2,8.6,2.2
		C895,683.8,897.9,683.1,900.4,681.6z"/>
</g>
<g class="st1">
	<path class="st2" d="M956.5,686.3c-3.5-1.9-6.3-4.7-8.3-8.2c-2-3.5-3-7.5-3-11.9c0-4.4,1-8.4,3-11.9c2-3.5,4.8-6.2,8.3-8.2
		c3.5-1.9,7.5-2.9,12-2.9c3.9,0,7.4,0.8,10.4,2.3c3.1,1.5,5.5,3.7,7.3,6.7l-4.6,3.1c-1.5-2.2-3.4-3.9-5.7-5
		c-2.3-1.1-4.8-1.7-7.5-1.7c-3.3,0-6.2,0.7-8.8,2.2c-2.6,1.5-4.6,3.5-6.1,6.2c-1.5,2.7-2.2,5.8-2.2,9.2c0,3.5,0.7,6.6,2.2,9.2
		c1.5,2.7,3.5,4.7,6.1,6.2c2.6,1.5,5.5,2.2,8.8,2.2c2.7,0,5.2-0.5,7.5-1.6c2.3-1.1,4.2-2.8,5.7-5l4.6,3.1c-1.8,2.9-4.2,5.1-7.3,6.7
		c-3.1,1.5-6.6,2.3-10.4,2.3C964,689.3,960,688.3,956.5,686.3z"/>
</g>
<g class="st1">
	<path class="st2" d="M1004.1,686.3c-3.5-2-6.2-4.7-8.3-8.2c-2-3.5-3-7.5-3-11.9c0-4.4,1-8.4,3-11.9c2-3.5,4.8-6.2,8.3-8.2
		c3.5-1.9,7.4-2.9,11.8-2.9c4.4,0,8.3,1,11.8,2.9c3.5,2,6.2,4.7,8.2,8.2c2,3.5,3,7.5,3,11.9c0,4.4-1,8.4-3,11.9
		c-2,3.5-4.7,6.2-8.2,8.2c-3.5,2-7.4,3-11.8,3C1011.5,689.3,1007.6,688.3,1004.1,686.3z M1024.5,681.6c2.6-1.5,4.5-3.5,6-6.2
		c1.4-2.7,2.1-5.8,2.1-9.2c0-3.4-0.7-6.5-2.1-9.2c-1.4-2.7-3.4-4.8-6-6.2s-5.4-2.2-8.6-2.2s-6.1,0.7-8.6,2.2c-2.6,1.5-4.6,3.5-6,6.2
		c-1.5,2.7-2.2,5.8-2.2,9.2c0,3.4,0.7,6.5,2.2,9.2c1.5,2.7,3.5,4.8,6,6.2c2.6,1.5,5.4,2.2,8.6,2.2S1022,683.1,1024.5,681.6z"/>
	<path class="st2" d="M1121.1,648.1c3.2,3.3,4.9,8.1,4.9,14.4v26.2h-6.1v-25.6c0-4.7-1.1-8.3-3.4-10.8c-2.3-2.5-5.5-3.7-9.6-3.7
		c-4.7,0-8.4,1.4-11.1,4.3c-2.7,2.9-4,6.9-4,12v23.7h-6.1v-25.6c0-4.7-1.1-8.3-3.4-10.8c-2.3-2.5-5.5-3.7-9.7-3.7
		c-4.6,0-8.3,1.4-11.1,4.3c-2.7,2.9-4.1,6.9-4.1,12v23.7h-6.1v-45.2h5.8v8.3c1.6-2.8,3.8-4.9,6.7-6.4c2.9-1.5,6.2-2.2,9.9-2.2
		c3.8,0,7.1,0.8,9.8,2.4c2.8,1.6,4.9,4,6.2,7.1c1.7-3,4.1-5.3,7.2-7c3.1-1.7,6.7-2.5,10.7-2.5
		C1113.4,643.2,1117.9,644.9,1121.1,648.1z"/>
	<path class="st2" d="M1177.4,646.1c3.4,1.9,6.1,4.6,8.1,8.1c1.9,3.5,2.9,7.5,2.9,12c0,4.5-1,8.5-2.9,12c-2,3.5-4.6,6.2-8,8.1
		c-3.4,1.9-7.3,2.9-11.6,2.9c-3.7,0-7-0.8-9.9-2.3c-3-1.5-5.4-3.7-7.3-6.7v25.2h-6.1v-61.9h5.8v8.9c1.8-3,4.3-5.3,7.3-6.9
		c3-1.6,6.4-2.4,10.2-2.4C1170.1,643.2,1173.9,644.2,1177.4,646.1z M1174,681.6c2.6-1.5,4.6-3.5,6.1-6.2c1.5-2.7,2.2-5.8,2.2-9.2
		c0-3.4-0.7-6.5-2.2-9.2c-1.5-2.7-3.5-4.7-6.1-6.2c-2.6-1.5-5.4-2.2-8.6-2.2c-3.2,0-6.1,0.7-8.6,2.2c-2.6,1.5-4.6,3.6-6,6.2
		c-1.5,2.7-2.2,5.7-2.2,9.2c0,3.4,0.7,6.5,2.2,9.2c1.5,2.7,3.5,4.8,6,6.2c2.6,1.5,5.4,2.2,8.6,2.2
		C1168.6,683.8,1171.5,683.1,1174,681.6z"/>
	<path class="st2" d="M1200.9,625h6.1v63.8h-6.1V625z"/>
	<path class="st2" d="M1263.4,668.1h-37.8c0.3,4.7,2.2,8.5,5.4,11.4c3.3,2.9,7.4,4.3,12.4,4.3c2.8,0,5.4-0.5,7.7-1.5
		c2.3-1,4.4-2.5,6.1-4.4l3.4,4c-2,2.4-4.5,4.2-7.5,5.5c-3,1.3-6.3,1.9-9.9,1.9c-4.6,0-8.8-1-12.3-3c-3.6-2-6.4-4.7-8.4-8.2
		c-2-3.5-3-7.5-3-11.9c0-4.4,1-8.4,2.9-11.9c1.9-3.5,4.6-6.2,7.9-8.2c3.4-1.9,7.1-2.9,11.3-2.9s7.9,1,11.3,2.9
		c3.3,2,5.9,4.7,7.8,8.1c1.9,3.5,2.8,7.4,2.8,11.9L1263.4,668.1z M1230.6,652.7c-3,2.8-4.6,6.4-5,10.9h32.1c-0.4-4.5-2.1-8.1-5-10.9
		c-3-2.8-6.6-4.2-11.1-4.2C1237.2,648.5,1233.5,649.9,1230.6,652.7z"/>
</g>
<g class="st1">
	<path class="st2" d="M1299.8,686.1c-1.1,1-2.6,1.8-4.3,2.4c-1.7,0.5-3.5,0.8-5.3,0.8c-4.2,0-7.5-1.1-9.8-3.4
		c-2.3-2.3-3.4-5.5-3.4-9.7v-27.3h-8.1v-5.2h8.1v-9.9h6.1v9.9h13.8v5.2h-13.8v27c0,2.7,0.7,4.7,2,6.1c1.3,1.4,3.3,2.1,5.8,2.1
		c1.3,0,2.5-0.2,3.7-0.6c1.2-0.4,2.2-1,3.1-1.7L1299.8,686.1z"/>
</g>
<g class="st1">
	<path class="st2" d="M1348.6,668.1h-37.8c0.3,4.7,2.2,8.5,5.4,11.4c3.3,2.9,7.4,4.3,12.4,4.3c2.8,0,5.4-0.5,7.7-1.5
		c2.3-1,4.4-2.5,6.1-4.4l3.4,4c-2,2.4-4.5,4.2-7.5,5.5c-3,1.3-6.3,1.9-9.9,1.9c-4.6,0-8.8-1-12.3-3c-3.6-2-6.4-4.7-8.4-8.2
		c-2-3.5-3-7.5-3-11.9c0-4.4,1-8.4,2.9-11.9c1.9-3.5,4.6-6.2,7.9-8.2c3.4-1.9,7.1-2.9,11.3-2.9s7.9,1,11.3,2.9
		c3.3,2,5.9,4.7,7.8,8.1c1.9,3.5,2.8,7.4,2.8,11.9L1348.6,668.1z M1315.8,652.7c-3,2.8-4.6,6.4-5,10.9h32.1c-0.4-4.5-2.1-8.1-5-10.9
		c-3-2.8-6.6-4.2-11.1-4.2C1322.4,648.5,1318.8,649.9,1315.8,652.7z"/>
	<path class="st2" d="M1407.5,686.1c-1.1,1-2.6,1.8-4.3,2.4c-1.7,0.5-3.5,0.8-5.3,0.8c-4.2,0-7.5-1.1-9.8-3.4
		c-2.3-2.3-3.4-5.5-3.4-9.7v-27.3h-8.1v-5.2h8.1v-9.9h6.1v9.9h13.8v5.2h-13.8v27c0,2.7,0.7,4.7,2,6.1c1.3,1.4,3.3,2.1,5.8,2.1
		c1.3,0,2.5-0.2,3.7-0.6c1.2-0.4,2.2-1,3.1-1.7L1407.5,686.1z"/>
</g>
<g class="st1">
	<path class="st2" d="M1455.2,648.2c3.4,3.3,5,8.1,5,14.4v26.2h-6.1v-25.6c0-4.7-1.2-8.3-3.5-10.8c-2.4-2.5-5.7-3.7-10.1-3.7
		c-4.9,0-8.7,1.4-11.6,4.3c-2.8,2.9-4.3,6.9-4.3,12v23.7h-6.1V625h6.1v26.5c1.7-2.6,4-4.7,6.9-6.1c2.9-1.4,6.3-2.2,10.1-2.2
		C1447.3,643.2,1451.9,644.9,1455.2,648.2z"/>
</g>
<g class="st1">
	<path class="st2" d="M1516.4,668.1h-37.8c0.3,4.7,2.1,8.5,5.4,11.4c3.3,2.9,7.4,4.3,12.4,4.3c2.8,0,5.4-0.5,7.7-1.5
		c2.4-1,4.4-2.5,6.1-4.4l3.4,4c-2,2.4-4.5,4.2-7.5,5.5c-3,1.3-6.3,1.9-9.9,1.9c-4.6,0-8.8-1-12.3-3c-3.6-2-6.4-4.7-8.4-8.2
		c-2-3.5-3-7.5-3-11.9c0-4.4,1-8.4,2.9-11.9c1.9-3.5,4.6-6.2,7.9-8.2c3.4-1.9,7.1-2.9,11.3-2.9c4.2,0,7.9,1,11.3,2.9
		c3.3,2,5.9,4.7,7.8,8.1c1.9,3.5,2.8,7.4,2.8,11.9L1516.4,668.1z M1483.6,652.7c-3,2.8-4.6,6.4-5,10.9h32.1c-0.4-4.5-2.1-8.1-5-10.9
		c-3-2.8-6.6-4.2-11.1-4.2C1490.2,648.5,1486.5,649.9,1483.6,652.7z"/>
</g>
<g class="st1">
	<path class="st2" d="M475.9,771.3h-37.8c0.3,4.7,2.1,8.5,5.4,11.4c3.3,2.9,7.4,4.3,12.4,4.3c2.8,0,5.4-0.5,7.7-1.5
		c2.4-1,4.4-2.5,6.1-4.4l3.4,4c-2,2.4-4.5,4.2-7.5,5.5c-3,1.3-6.3,1.9-9.9,1.9c-4.6,0-8.8-1-12.3-3c-3.6-2-6.4-4.7-8.4-8.2
		c-2-3.5-3-7.5-3-11.9c0-4.4,1-8.4,2.9-11.9c1.9-3.5,4.6-6.2,7.9-8.2c3.4-1.9,7.1-2.9,11.3-2.9c4.2,0,7.9,1,11.3,2.9
		c3.3,2,5.9,4.7,7.8,8.1c1.9,3.5,2.8,7.4,2.8,11.9L475.9,771.3z M443.1,755.9c-3,2.8-4.6,6.4-5,10.9h32.1c-0.4-4.5-2.1-8.1-5-10.9
		c-3-2.8-6.6-4.2-11.1-4.2C449.7,751.7,446,753.1,443.1,755.9z"/>
</g>
<g class="st1">
	<path class="st2" d="M516,792l-14.4-18.9L487.2,792h-6.9l17.9-23.2l-17-22h6.9l13.6,17.7l13.6-17.7h6.7l-17,22l18.1,23.2H516z"/>
	<path class="st2" d="M567.9,749.3c3.4,1.9,6.1,4.6,8.1,8.1c1.9,3.5,2.9,7.5,2.9,12c0,4.5-1,8.5-2.9,12c-2,3.5-4.6,6.2-8,8.1
		c-3.4,1.9-7.3,2.9-11.6,2.9c-3.7,0-7-0.8-9.9-2.3c-3-1.5-5.4-3.7-7.3-6.7v25.2h-6.1v-61.9h5.8v8.9c1.8-3,4.3-5.3,7.3-6.9
		c3-1.6,6.4-2.4,10.2-2.4C560.6,746.4,564.5,747.4,567.9,749.3z M564.6,784.8c2.6-1.5,4.6-3.5,6.1-6.2c1.5-2.7,2.2-5.8,2.2-9.2
		c0-3.4-0.7-6.5-2.2-9.2c-1.5-2.7-3.5-4.7-6.1-6.2c-2.6-1.5-5.4-2.2-8.6-2.2c-3.2,0-6.1,0.7-8.6,2.2c-2.6,1.5-4.6,3.6-6,6.2
		s-2.2,5.7-2.2,9.2c0,3.4,0.7,6.5,2.2,9.2c1.5,2.7,3.5,4.8,6,6.2c2.6,1.5,5.4,2.2,8.6,2.2C559.1,787,562,786.3,564.6,784.8z"/>
	<path class="st2" d="M630.8,771.3h-37.8c0.3,4.7,2.1,8.5,5.4,11.4c3.3,2.9,7.4,4.3,12.4,4.3c2.8,0,5.4-0.5,7.7-1.5
		c2.4-1,4.4-2.5,6.1-4.4l3.4,4c-2,2.4-4.5,4.2-7.5,5.5c-3,1.3-6.3,1.9-9.9,1.9c-4.6,0-8.8-1-12.3-3c-3.6-2-6.4-4.7-8.4-8.2
		c-2-3.5-3-7.5-3-11.9c0-4.4,1-8.4,2.9-11.9c1.9-3.5,4.6-6.2,7.9-8.2c3.4-1.9,7.1-2.9,11.3-2.9c4.2,0,7.9,1,11.3,2.9
		c3.3,2,5.9,4.7,7.8,8.1c1.9,3.5,2.8,7.4,2.8,11.9L630.8,771.3z M598,755.9c-3,2.8-4.6,6.4-5,10.9H625c-0.4-4.5-2.1-8.1-5-10.9
		c-3-2.8-6.6-4.2-11.1-4.2C604.6,751.7,600.9,753.1,598,755.9z"/>
</g>
<g class="st1">
	<path class="st2" d="M655.6,748.8c2.8-1.5,6.3-2.3,10.5-2.3v5.9l-1.5-0.1c-4.8,0-8.5,1.5-11.2,4.4c-2.7,2.9-4,7-4,12.3v23h-6.1
		v-45.2h5.8v8.9C650.6,752.6,652.7,750.3,655.6,748.8z"/>
</g>
<g class="st1">
	<path class="st2" d="M677,735.6c-0.9-0.9-1.3-1.9-1.3-3.1c0-1.1,0.4-2.2,1.3-3c0.9-0.9,1.9-1.3,3.2-1.3c1.3,0,2.3,0.4,3.2,1.2
		c0.9,0.8,1.3,1.8,1.3,3c0,1.3-0.4,2.3-1.3,3.2s-1.9,1.3-3.2,1.3C679,736.9,677.9,736.5,677,735.6z M677.1,746.8h6.1V792h-6.1V746.8
		z"/>
	<path class="st2" d="M739.7,771.3h-37.8c0.3,4.7,2.1,8.5,5.4,11.4c3.3,2.9,7.4,4.3,12.4,4.3c2.8,0,5.4-0.5,7.7-1.5
		c2.4-1,4.4-2.5,6.1-4.4l3.4,4c-2,2.4-4.5,4.2-7.5,5.5c-3,1.3-6.3,1.9-9.9,1.9c-4.6,0-8.8-1-12.3-3c-3.6-2-6.4-4.7-8.4-8.2
		c-2-3.5-3-7.5-3-11.9c0-4.4,1-8.4,2.9-11.9c1.9-3.5,4.6-6.2,7.9-8.2c3.4-1.9,7.1-2.9,11.3-2.9c4.2,0,7.9,1,11.3,2.9
		c3.3,2,5.9,4.7,7.8,8.1c1.9,3.5,2.8,7.4,2.8,11.9L739.7,771.3z M706.8,755.9c-3,2.8-4.6,6.4-5,10.9h32.1c-0.4-4.5-2.1-8.1-5-10.9
		c-3-2.8-6.6-4.2-11.1-4.2C713.4,751.7,709.8,753.1,706.8,755.9z"/>
</g>
<g class="st1">
	<path class="st2" d="M788.8,751.4c3.4,3.3,5,8.1,5,14.4V792h-6.1v-25.6c0-4.7-1.2-8.3-3.5-10.8c-2.4-2.5-5.7-3.7-10.1-3.7
		c-4.9,0-8.7,1.4-11.6,4.3c-2.8,2.9-4.3,6.9-4.3,12V792h-6.1v-45.2h5.8v8.3c1.7-2.8,4-4.9,6.9-6.4c3-1.5,6.4-2.3,10.3-2.3
		C780.9,746.4,785.4,748.1,788.8,751.4z"/>
</g>
<g class="st1">
	<path class="st2" d="M817.3,789.5c-3.5-1.9-6.3-4.7-8.3-8.2c-2-3.5-3-7.5-3-11.9c0-4.4,1-8.4,3-11.9c2-3.5,4.8-6.2,8.3-8.2
		c3.5-1.9,7.5-2.9,12-2.9c3.9,0,7.4,0.8,10.4,2.3c3.1,1.5,5.5,3.7,7.3,6.7l-4.6,3.1c-1.5-2.2-3.4-3.9-5.7-5
		c-2.3-1.1-4.8-1.7-7.5-1.7c-3.3,0-6.2,0.7-8.8,2.2c-2.6,1.5-4.6,3.5-6.1,6.2c-1.5,2.7-2.2,5.8-2.2,9.2c0,3.5,0.7,6.6,2.2,9.2
		c1.5,2.7,3.5,4.7,6.1,6.2c2.6,1.5,5.5,2.2,8.8,2.2c2.7,0,5.2-0.5,7.5-1.6c2.3-1.1,4.2-2.8,5.7-5l4.6,3.1c-1.8,2.9-4.2,5.1-7.3,6.7
		c-3.1,1.5-6.6,2.3-10.4,2.3C824.9,792.5,820.9,791.5,817.3,789.5z"/>
</g>
<g class="st1">
	<path class="st2" d="M897.6,771.3h-37.8c0.3,4.7,2.1,8.5,5.4,11.4c3.3,2.9,7.4,4.3,12.4,4.3c2.8,0,5.4-0.5,7.7-1.5
		c2.4-1,4.4-2.5,6.1-4.4l3.4,4c-2,2.4-4.5,4.2-7.5,5.5c-3,1.3-6.3,1.9-9.9,1.9c-4.6,0-8.8-1-12.3-3c-3.6-2-6.4-4.7-8.4-8.2
		c-2-3.5-3-7.5-3-11.9c0-4.4,1-8.4,2.9-11.9c1.9-3.5,4.6-6.2,7.9-8.2c3.4-1.9,7.1-2.9,11.3-2.9c4.2,0,7.9,1,11.3,2.9
		c3.3,2,5.9,4.7,7.8,8.1c1.9,3.5,2.8,7.4,2.8,11.9L897.6,771.3z M864.8,755.9c-3,2.8-4.6,6.4-5,10.9h32.1c-0.4-4.5-2.1-8.1-5-10.9
		c-3-2.8-6.6-4.2-11.1-4.2C871.4,751.7,867.8,753.1,864.8,755.9z"/>
</g>
<g class="st1">
	<path class="st2" d="M956.5,789.3c-1.1,1-2.6,1.8-4.3,2.4c-1.7,0.5-3.5,0.8-5.3,0.8c-4.2,0-7.5-1.1-9.8-3.4
		c-2.3-2.3-3.4-5.5-3.4-9.7v-27.3h-8.1v-5.2h8.1v-9.9h6.1v9.9h13.8v5.2h-13.8v27c0,2.7,0.7,4.7,2,6.1c1.3,1.4,3.3,2.1,5.8,2.1
		c1.3,0,2.5-0.2,3.7-0.6c1.2-0.4,2.2-1,3.1-1.7L956.5,789.3z"/>
</g>
<g class="st1">
	<path class="st2" d="M972.7,789.5c-3.5-2-6.2-4.7-8.3-8.2c-2-3.5-3-7.5-3-11.9c0-4.4,1-8.4,3-11.9c2-3.5,4.8-6.2,8.3-8.2
		c3.5-1.9,7.4-2.9,11.8-2.9c4.4,0,8.3,1,11.8,2.9c3.5,2,6.2,4.7,8.2,8.2c2,3.5,3,7.5,3,11.9c0,4.4-1,8.4-3,11.9
		c-2,3.5-4.7,6.2-8.2,8.2c-3.5,2-7.4,3-11.8,3C980.1,792.5,976.2,791.5,972.7,789.5z M993.1,784.8c2.6-1.5,4.5-3.5,6-6.2
		c1.4-2.7,2.2-5.8,2.2-9.2c0-3.4-0.7-6.5-2.2-9.2c-1.4-2.7-3.4-4.8-6-6.2c-2.6-1.5-5.4-2.2-8.6-2.2c-3.2,0-6.1,0.7-8.6,2.2
		c-2.6,1.5-4.6,3.5-6,6.2c-1.5,2.7-2.2,5.8-2.2,9.2c0,3.4,0.7,6.5,2.2,9.2c1.5,2.7,3.5,4.8,6,6.2c2.6,1.5,5.4,2.2,8.6,2.2
		C987.7,787,990.6,786.3,993.1,784.8z"/>
</g>
<g class="st1">
	<path class="st2" d="M1071.9,750.9c3.2,3,4.7,7.3,4.7,13.1v28h-5.8V785c-1.4,2.4-3.4,4.2-6.1,5.5c-2.7,1.3-5.8,2-9.5,2
		c-5,0-9.1-1.2-12-3.6c-3-2.4-4.5-5.6-4.5-9.5c0-3.8,1.4-6.9,4.2-9.3c2.8-2.4,7.2-3.5,13.3-3.5h14.4v-2.8c0-3.9-1.1-6.9-3.3-8.9
		c-2.2-2-5.4-3.1-9.5-3.1c-2.9,0-5.6,0.5-8.3,1.4c-2.6,0.9-4.9,2.3-6.8,3.9l-2.8-4.6c2.3-1.9,5-3.5,8.3-4.5
		c3.2-1.1,6.6-1.6,10.1-1.6C1064.2,746.4,1068.7,747.9,1071.9,750.9z M1065,785.3c2.5-1.6,4.3-3.9,5.5-6.8V771h-14.2
		c-7.7,0-11.6,2.7-11.6,8.1c0,2.6,1,4.7,3,6.2c2,1.5,4.8,2.3,8.4,2.3C1059.6,787.6,1062.5,786.8,1065,785.3z"/>
</g>
<g class="st1">
	<path class="st2" d="M1100.1,789.5c-3.5-1.9-6.3-4.7-8.3-8.2c-2-3.5-3-7.5-3-11.9c0-4.4,1-8.4,3-11.9c2-3.5,4.8-6.2,8.3-8.2
		c3.5-1.9,7.5-2.9,12-2.9c3.9,0,7.4,0.8,10.4,2.3c3.1,1.5,5.5,3.7,7.3,6.7l-4.6,3.1c-1.5-2.2-3.4-3.9-5.7-5
		c-2.3-1.1-4.8-1.7-7.5-1.7c-3.3,0-6.2,0.7-8.8,2.2s-4.6,3.5-6.1,6.2c-1.5,2.7-2.2,5.8-2.2,9.2c0,3.5,0.7,6.6,2.2,9.2
		c1.5,2.7,3.5,4.7,6.1,6.2s5.5,2.2,8.8,2.2c2.7,0,5.2-0.5,7.5-1.6c2.3-1.1,4.2-2.8,5.7-5l4.6,3.1c-1.8,2.9-4.2,5.1-7.3,6.7
		c-3.1,1.5-6.6,2.3-10.4,2.3C1107.6,792.5,1103.6,791.5,1100.1,789.5z"/>
	<path class="st2" d="M1147.8,789.5c-3.5-1.9-6.3-4.7-8.3-8.2c-2-3.5-3-7.5-3-11.9c0-4.4,1-8.4,3-11.9c2-3.5,4.8-6.2,8.3-8.2
		c3.5-1.9,7.5-2.9,12-2.9c3.9,0,7.4,0.8,10.4,2.3c3.1,1.5,5.5,3.7,7.3,6.7l-4.6,3.1c-1.5-2.2-3.4-3.9-5.7-5s-4.8-1.7-7.5-1.7
		c-3.3,0-6.2,0.7-8.8,2.2c-2.6,1.5-4.6,3.5-6.1,6.2c-1.5,2.7-2.2,5.8-2.2,9.2c0,3.5,0.7,6.6,2.2,9.2c1.5,2.7,3.5,4.7,6.1,6.2
		c2.6,1.5,5.5,2.2,8.8,2.2c2.7,0,5.2-0.5,7.5-1.6c2.3-1.1,4.2-2.8,5.7-5l4.6,3.1c-1.8,2.9-4.2,5.1-7.3,6.7
		c-3.1,1.5-6.6,2.3-10.4,2.3C1155.3,792.5,1151.3,791.5,1147.8,789.5z"/>
</g>
<g class="st1">
	<path class="st2" d="M1228,771.3h-37.8c0.3,4.7,2.1,8.5,5.4,11.4c3.3,2.9,7.4,4.3,12.4,4.3c2.8,0,5.4-0.5,7.7-1.5
		c2.4-1,4.4-2.5,6.1-4.4l3.4,4c-2,2.4-4.5,4.2-7.5,5.5c-3,1.3-6.3,1.9-9.9,1.9c-4.6,0-8.8-1-12.3-3c-3.6-2-6.4-4.7-8.4-8.2
		c-2-3.5-3-7.5-3-11.9c0-4.4,1-8.4,2.9-11.9c1.9-3.5,4.6-6.2,7.9-8.2c3.4-1.9,7.1-2.9,11.3-2.9c4.2,0,7.9,1,11.3,2.9
		c3.3,2,5.9,4.7,7.8,8.1c1.9,3.5,2.8,7.4,2.8,11.9L1228,771.3z M1195.2,755.9c-3,2.8-4.6,6.4-5,10.9h32.1c-0.4-4.5-2.1-8.1-5-10.9
		c-3-2.8-6.6-4.2-11.1-4.2C1201.8,751.7,1198.2,753.1,1195.2,755.9z"/>
	<path class="st2" d="M1242.2,790.9c-3.4-1.1-6-2.4-7.9-4l2.8-4.8c1.9,1.5,4.3,2.7,7.1,3.7c2.9,0.9,5.8,1.4,8.9,1.4
		c4.1,0,7.2-0.6,9.2-1.9s3-3.1,3-5.5c0-1.7-0.5-3-1.6-3.9c-1.1-0.9-2.5-1.7-4.1-2.2c-1.7-0.5-3.9-1-6.6-1.4
		c-3.7-0.7-6.6-1.4-8.9-2.1s-4.1-1.9-5.7-3.7c-1.6-1.7-2.4-4.1-2.4-7.1c0-3.8,1.6-6.9,4.7-9.3c3.2-2.4,7.5-3.6,13.2-3.6
		c2.9,0,5.8,0.4,8.8,1.2s5.3,1.8,7.2,3.1l-2.7,4.9c-3.7-2.6-8.2-3.9-13.3-3.9c-3.9,0-6.8,0.7-8.8,2.1c-2,1.4-3,3.2-3,5.4
		c0,1.7,0.6,3.1,1.7,4.1c1.1,1,2.5,1.8,4.2,2.3c1.7,0.5,4,1,6.9,1.5c3.6,0.7,6.5,1.4,8.7,2.1c2.2,0.7,4,1.9,5.6,3.5s2.3,4,2.3,6.9
		c0,4-1.6,7.1-4.9,9.4c-3.3,2.3-7.9,3.5-13.7,3.5C1249,792.5,1245.5,791.9,1242.2,790.9z"/>
	<path class="st2" d="M1284.2,790.9c-3.4-1.1-6-2.4-7.9-4l2.8-4.8c1.9,1.5,4.3,2.7,7.1,3.7c2.9,0.9,5.8,1.4,8.9,1.4
		c4.1,0,7.2-0.6,9.2-1.9c2-1.3,3-3.1,3-5.5c0-1.7-0.5-3-1.6-3.9c-1.1-0.9-2.5-1.7-4.1-2.2c-1.7-0.5-3.9-1-6.6-1.4
		c-3.7-0.7-6.6-1.4-8.9-2.1s-4.1-1.9-5.7-3.7c-1.6-1.7-2.4-4.1-2.4-7.1c0-3.8,1.6-6.9,4.7-9.3c3.2-2.4,7.5-3.6,13.2-3.6
		c2.9,0,5.8,0.4,8.8,1.2s5.3,1.8,7.2,3.1l-2.7,4.9c-3.7-2.6-8.2-3.9-13.3-3.9c-3.9,0-6.8,0.7-8.8,2.1c-2,1.4-3,3.2-3,5.4
		c0,1.7,0.6,3.1,1.7,4.1c1.1,1,2.5,1.8,4.2,2.3c1.7,0.5,4,1,6.9,1.5c3.6,0.7,6.5,1.4,8.7,2.1c2.2,0.7,4,1.9,5.6,3.5
		c1.5,1.7,2.3,4,2.3,6.9c0,4-1.6,7.1-4.9,9.4c-3.3,2.3-7.9,3.5-13.7,3.5C1291.1,792.5,1287.6,791.9,1284.2,790.9z"/>
	<path class="st2" d="M1371.1,789.3c-1.1,1-2.6,1.8-4.3,2.4c-1.7,0.5-3.5,0.8-5.3,0.8c-4.2,0-7.5-1.1-9.8-3.4
		c-2.3-2.3-3.4-5.5-3.4-9.7v-27.3h-8.1v-5.2h8.1v-9.9h6.1v9.9h13.8v5.2h-13.8v27c0,2.7,0.7,4.7,2,6.1c1.3,1.4,3.3,2.1,5.8,2.1
		c1.3,0,2.5-0.2,3.7-0.6c1.2-0.4,2.2-1,3.1-1.7L1371.1,789.3z"/>
	<path class="st2" d="M1418.7,751.4c3.4,3.3,5,8.1,5,14.4V792h-6.1v-25.6c0-4.7-1.2-8.3-3.5-10.8c-2.4-2.5-5.7-3.7-10.1-3.7
		c-4.9,0-8.7,1.4-11.6,4.3c-2.8,2.9-4.3,6.9-4.3,12V792h-6.1v-63.8h6.1v26.5c1.7-2.6,4-4.7,6.9-6.1c2.9-1.4,6.3-2.2,10.1-2.2
		C1410.9,746.4,1415.4,748.1,1418.7,751.4z"/>
	<path class="st2" d="M1440.3,735.6c-0.9-0.9-1.3-1.9-1.3-3.1c0-1.1,0.4-2.2,1.3-3c0.9-0.9,1.9-1.3,3.2-1.3c1.3,0,2.3,0.4,3.2,1.2
		c0.9,0.8,1.3,1.8,1.3,3c0,1.3-0.4,2.3-1.3,3.2c-0.9,0.9-1.9,1.3-3.2,1.3C1442.2,736.9,1441.1,736.5,1440.3,735.6z M1440.4,746.8
		h6.1V792h-6.1V746.8z"/>
	<path class="st2" d="M1465.1,790.9c-3.4-1.1-6-2.4-7.9-4l2.8-4.8c1.9,1.5,4.3,2.7,7.1,3.7c2.9,0.9,5.8,1.4,8.9,1.4
		c4.1,0,7.2-0.6,9.2-1.9s3-3.1,3-5.5c0-1.7-0.5-3-1.6-3.9c-1.1-0.9-2.5-1.7-4.1-2.2c-1.7-0.5-3.9-1-6.6-1.4
		c-3.7-0.7-6.6-1.4-8.9-2.1c-2.2-0.7-4.1-1.9-5.7-3.7c-1.6-1.7-2.4-4.1-2.4-7.1c0-3.8,1.6-6.9,4.7-9.3c3.2-2.4,7.5-3.6,13.2-3.6
		c2.9,0,5.8,0.4,8.8,1.2c2.9,0.8,5.3,1.8,7.2,3.1l-2.7,4.9c-3.7-2.6-8.2-3.9-13.3-3.9c-3.9,0-6.8,0.7-8.8,2.1c-2,1.4-3,3.2-3,5.4
		c0,1.7,0.6,3.1,1.7,4.1c1.1,1,2.5,1.8,4.2,2.3c1.7,0.5,4,1,6.9,1.5c3.6,0.7,6.5,1.4,8.7,2.1c2.2,0.7,4,1.9,5.6,3.5s2.3,4,2.3,6.9
		c0,4-1.6,7.1-4.9,9.4c-3.3,2.3-7.9,3.5-13.7,3.5C1472,792.5,1468.4,791.9,1465.1,790.9z"/>
</g>
<g class="st1">
	<path class="st2" d="M804.9,894.1c-3.4-1.1-6-2.4-7.9-4l2.8-4.8c1.9,1.5,4.3,2.7,7.1,3.7c2.9,0.9,5.8,1.4,8.9,1.4
		c4.1,0,7.2-0.6,9.2-1.9s3-3.1,3-5.5c0-1.7-0.5-3-1.6-3.9c-1.1-0.9-2.5-1.7-4.1-2.2c-1.7-0.5-3.9-1-6.6-1.4
		c-3.7-0.7-6.6-1.4-8.9-2.1c-2.2-0.7-4.1-1.9-5.7-3.7c-1.6-1.7-2.4-4.1-2.4-7.1c0-3.8,1.6-6.9,4.7-9.3c3.2-2.4,7.5-3.6,13.2-3.6
		c2.9,0,5.8,0.4,8.8,1.2c2.9,0.8,5.3,1.8,7.2,3.1l-2.7,4.9c-3.7-2.6-8.2-3.9-13.3-3.9c-3.9,0-6.8,0.7-8.8,2.1c-2,1.4-3,3.2-3,5.4
		c0,1.7,0.6,3.1,1.7,4.1c1.1,1,2.5,1.8,4.2,2.3c1.7,0.5,4,1,6.9,1.5c3.6,0.7,6.5,1.4,8.7,2.1c2.2,0.7,4,1.9,5.6,3.5s2.3,4,2.3,6.9
		c0,4-1.6,7.1-4.9,9.4c-3.3,2.3-7.9,3.5-13.7,3.5C811.7,895.7,808.2,895.1,804.9,894.1z"/>
	<path class="st2" d="M884.7,874.5h-37.8c0.3,4.7,2.1,8.5,5.4,11.4c3.3,2.9,7.4,4.3,12.4,4.3c2.8,0,5.4-0.5,7.7-1.5
		c2.4-1,4.4-2.5,6.1-4.4l3.4,4c-2,2.4-4.5,4.2-7.5,5.5c-3,1.3-6.3,1.9-9.9,1.9c-4.6,0-8.8-1-12.3-3c-3.6-2-6.4-4.7-8.4-8.2
		c-2-3.5-3-7.5-3-11.9c0-4.4,1-8.4,2.9-11.9c1.9-3.5,4.6-6.2,7.9-8.2c3.4-1.9,7.1-2.9,11.3-2.9c4.2,0,7.9,1,11.3,2.9
		c3.3,2,5.9,4.7,7.8,8.1c1.9,3.5,2.8,7.4,2.8,11.9L884.7,874.5z M851.9,859.1c-3,2.8-4.6,6.4-5,10.9H879c-0.4-4.5-2.1-8.1-5-10.9
		c-3-2.8-6.6-4.2-11.1-4.2C858.5,854.9,854.9,856.3,851.9,859.1z"/>
</g>
<g class="st1">
	<path class="st2" d="M904,892.7c-3.5-1.9-6.3-4.7-8.3-8.2c-2-3.5-3-7.5-3-11.9c0-4.4,1-8.4,3-11.9c2-3.5,4.8-6.2,8.3-8.2
		c3.5-1.9,7.5-2.9,12-2.9c3.9,0,7.4,0.8,10.4,2.3c3.1,1.5,5.5,3.7,7.3,6.7l-4.6,3.1c-1.5-2.2-3.4-3.9-5.7-5
		c-2.3-1.1-4.8-1.7-7.5-1.7c-3.3,0-6.2,0.7-8.8,2.2c-2.6,1.5-4.6,3.5-6.1,6.2c-1.5,2.7-2.2,5.8-2.2,9.2c0,3.5,0.7,6.6,2.2,9.2
		c1.5,2.7,3.5,4.7,6.1,6.2c2.6,1.5,5.5,2.2,8.8,2.2c2.7,0,5.2-0.5,7.5-1.6c2.3-1.1,4.2-2.8,5.7-5l4.6,3.1c-1.8,2.9-4.2,5.1-7.3,6.7
		c-3.1,1.5-6.6,2.3-10.4,2.3C911.6,895.7,907.6,894.7,904,892.7z"/>
</g>
<g class="st1">
	<path class="st2" d="M970,892.5c-1.1,1-2.6,1.8-4.3,2.4c-1.7,0.5-3.5,0.8-5.3,0.8c-4.2,0-7.5-1.1-9.8-3.4c-2.3-2.3-3.4-5.5-3.4-9.7
		v-27.3h-8.1V850h8.1v-9.9h6.1v9.9h13.8v5.2h-13.8v27c0,2.7,0.7,4.7,2,6.1c1.3,1.4,3.3,2.1,5.8,2.1c1.3,0,2.5-0.2,3.7-0.6
		c1.2-0.4,2.2-1,3.1-1.7L970,892.5z"/>
	<path class="st2" d="M981,838.8c-0.9-0.9-1.3-1.9-1.3-3.1c0-1.1,0.4-2.2,1.3-3c0.9-0.9,1.9-1.3,3.2-1.3c1.3,0,2.3,0.4,3.2,1.2
		c0.9,0.8,1.3,1.8,1.3,3c0,1.3-0.4,2.3-1.3,3.2c-0.9,0.9-1.9,1.3-3.2,1.3C983,840.1,981.9,839.7,981,838.8z M981.1,850h6.1v45.2
		h-6.1V850z"/>
	<path class="st2" d="M1011,892.7c-3.5-2-6.2-4.7-8.3-8.2c-2-3.5-3-7.5-3-11.9c0-4.4,1-8.4,3-11.9c2-3.5,4.8-6.2,8.3-8.2
		c3.5-1.9,7.4-2.9,11.8-2.9c4.4,0,8.3,1,11.8,2.9c3.5,2,6.2,4.7,8.2,8.2c2,3.5,3,7.5,3,11.9c0,4.4-1,8.4-3,11.9
		c-2,3.5-4.7,6.2-8.2,8.2c-3.5,2-7.4,3-11.8,3C1018.4,895.7,1014.5,894.7,1011,892.7z M1031.4,888c2.6-1.5,4.5-3.5,6-6.2
		c1.4-2.7,2.1-5.8,2.1-9.2c0-3.4-0.7-6.5-2.1-9.2c-1.4-2.7-3.4-4.8-6-6.2c-2.6-1.5-5.4-2.2-8.6-2.2c-3.2,0-6.1,0.7-8.6,2.2
		c-2.6,1.5-4.6,3.5-6,6.2c-1.5,2.7-2.2,5.8-2.2,9.2c0,3.4,0.7,6.5,2.2,9.2c1.5,2.7,3.5,4.8,6,6.2c2.6,1.5,5.4,2.2,8.6,2.2
		C1026,890.2,1028.8,889.5,1031.4,888z"/>
	<path class="st2" d="M1094.8,854.6c3.4,3.3,5,8.1,5,14.4v26.2h-6.1v-25.6c0-4.7-1.2-8.3-3.5-10.8c-2.4-2.5-5.7-3.7-10.1-3.7
		c-4.9,0-8.7,1.4-11.6,4.3c-2.8,2.9-4.3,6.9-4.3,12v23.7h-6.1V850h5.8v8.3c1.7-2.8,4-4.9,6.9-6.4c3-1.5,6.4-2.3,10.3-2.3
		C1086.9,849.6,1091.4,851.3,1094.8,854.6z"/>
	<path class="st2" d="M1115.9,894.3c-0.9-0.9-1.3-1.9-1.3-3.1c0-1.3,0.4-2.3,1.3-3.1s1.9-1.2,3.3-1.2c1.3,0,2.3,0.4,3.2,1.2
		s1.3,1.9,1.3,3.1c0,1.2-0.4,2.3-1.3,3.1c-0.9,0.9-1.9,1.3-3.2,1.3C1117.8,895.7,1116.7,895.2,1115.9,894.3z M1115.5,835h7.2
		l-1.3,42.1h-4.7L1115.5,835z"/>
</g>
<path class="st2" d="M1010.1,486.5l-39.4-68.2c-3.4-5.9-11-7.9-16.9-4.5c-1.9,1.1-3.4,2.6-4.5,4.5l-39.4,68.2
	c-3.4,5.9-1.4,13.5,4.5,16.9c1.9,1.1,4,1.7,6.2,1.7h78.7c6.8,0,12.4-5.5,12.4-12.4C1011.7,490.5,1011.2,488.4,1010.1,486.5z
	 M965,489.5c-2.8,2.9-7.4,2.9-10.3,0.1c-2.9-2.8-2.9-7.4-0.1-10.3c2.8-2.9,7.4-2.9,10.3-0.1c1.4,1.4,2.2,3.2,2.2,5.2
	C967.2,486.3,966.4,488.1,965,489.5z M967.2,444c0,0.1,0,0.1,0,0.2l-2.2,26.9c-0.1,1.3-1.2,2.2-2.4,2.2h-5.1c-1.3,0-2.3-1-2.4-2.3
	l-2.2-26.9c0-0.1,0-0.1,0-0.2v-7.5c0-1.4,1.1-2.5,2.5-2.5h9.5c1.4,0,2.5,1.1,2.5,2.5v7.6H967.2z"/>
</svg>
