<?xml version="1.0" encoding="utf-8"?>
<!-- Generator: Adobe Illustrator 25.3.0, SVG Export Plug-In . SVG Version: 6.00 Build 0)  -->
<svg version="1.1" id="Livello_1" xmlns="http://www.w3.org/2000/svg" xmlns:xlink="http://www.w3.org/1999/xlink" x="0px" y="0px"
	 viewBox="0 0 1920 1307.7" style="enable-background:new 0 0 1920 1307.7;" xml:space="preserve">
<style type="text/css">
	.st0{opacity:0.9;fill:#FFFFFF;enable-background:new    ;}
	.st1{fill:#03045E;}
	.st2{font-family:'Montserrat-Regular';}
	.st3{font-size:86px;}
	.st4{letter-spacing:-5;}
	.st5{letter-spacing:-1;}
</style>
<path class="st0" d="M310.3,261.5h1299.4c49.7,0,90.1,40.3,90.1,90.1v604.5c0,49.7-40.3,90.1-90.1,90.1H310.3
	c-49.7,0-90.1-40.3-90.1-90.1V351.6C220.2,301.8,260.6,261.5,310.3,261.5z"/>
<text transform="matrix(1 0 0 1 404.5996 688.8213)" class="st1 st2 st3 st4">Y</text>
<text transform="matrix(1 0 0 1 454.0493 688.8213)" class="st1 st2 st3">ou </text>
<text transform="matrix(1 0 0 1 588.3794 688.8213)" class="st1 st2 st3">n</text>
<text transform="matrix(1 0 0 1 646.772 688.8213)" class="st1 st2 st3">eed </text>
<text transform="matrix(1 0 0 1 831.4966 688.8213)" class="st1 st2 st3 st5">t</text>
<text transform="matrix(1 0 0 1 864.7778 688.8213)" class="st1 st2 st3">o </text>
<text transform="matrix(1 0 0 1 941.2309 688.8213)" class="st1 st2 st3">c</text>
<text transform="matrix(1 0 0 1 988.875 688.8213)" class="st1 st2 st3">omple</text>
<text transform="matrix(1 0 0 1 1267.4268 688.8213)" class="st1 st2 st3 st5">t</text>
<text transform="matrix(1 0 0 1 1300.708 688.8213)" class="st1 st2 st3">e t</text>
<text transform="matrix(1 0 0 1 1410.0977 688.8213)" class="st1 st2 st3">h</text>
<text transform="matrix(1 0 0 1 1468.4902 688.8213)" class="st1 st2 st3">e </text>
<text transform="matrix(1 0 0 1 427.9907 792.0215)" class="st1 st2 st3 st5">e</text>
<text transform="matrix(1 0 0 1 478.6435 792.0215)" class="st1 st2 st3">xpe</text>
<text transform="matrix(1 0 0 1 634.8179 792.0215)" class="st1 st2 st3">r</text>
<text transform="matrix(1 0 0 1 668.6152 792.0215)" class="st1 st2 st3">ie</text>
<text transform="matrix(1 0 0 1 743.6919 792.0215)" class="st1 st2 st3">n</text>
<text transform="matrix(1 0 0 1 802.0845 792.0215)" class="st1 st2 st3">c</text>
<text transform="matrix(1 0 0 1 849.7285 792.0215)" class="st1 st2 st3">e </text>
<text transform="matrix(1 0 0 1 924.2026 792.0215)" class="st1 st2 st3 st5">t</text>
<text transform="matrix(1 0 0 1 957.4839 792.0215)" class="st1 st2 st3">o </text>
<text transform="matrix(1 0 0 1 1033.9375 792.0215)" class="st1 st2 st3">a</text>
<text transform="matrix(1 0 0 1 1084.8486 792.0215)" class="st1 st2 st3">cc</text>
<text transform="matrix(1 0 0 1 1180.1367 792.0215)" class="st1 st2 st3">ess this </text>
<text transform="matrix(1 0 0 1 794.7764 895.2217)" class="st1 st2 st3">se</text>
<text transform="matrix(1 0 0 1 888.7729 895.2217)" class="st1 st2 st3">c</text>
<text transform="matrix(1 0 0 1 937.7056 895.2217)" class="st1 st2 st3">tion!</text>
<path class="st1" d="M1010.1,486.5l-39.4-68.2c-3.4-5.9-11-7.9-16.9-4.5c-1.9,1.1-3.4,2.6-4.5,4.5l-39.4,68.2
	c-3.4,5.9-1.4,13.5,4.5,16.9c1.9,1.1,4,1.7,6.2,1.7h78.7c6.8,0,12.4-5.5,12.4-12.4C1011.7,490.5,1011.2,488.4,1010.1,486.5z
	 M965,489.5c-2.8,2.9-7.4,2.9-10.3,0.1c-2.9-2.8-2.9-7.4-0.1-10.3c2.8-2.9,7.4-2.9,10.3-0.1c1.4,1.4,2.2,3.2,2.2,5.2
	C967.2,486.3,966.4,488.1,965,489.5z M967.2,444c0,0.1,0,0.1,0,0.2l-2.2,26.9c-0.1,1.3-1.2,2.2-2.4,2.2h-5.1c-1.3,0-2.3-1-2.4-2.3
	l-2.2-26.9c0-0.1,0-0.1,0-0.2v-7.5c0-1.4,1.1-2.5,2.5-2.5h9.5c1.4,0,2.5,1.1,2.5,2.5V444z"/>
</svg>
