<svg width="153" height="251" viewBox="0 0 153 251" fill="none" xmlns="http://www.w3.org/2000/svg">
<g filter="url(#filter0_d)">
<path d="M70.4312 12.7862C71.3883 11.1377 72.824 10.6667 73.3025 10.6667C74.6584 10.6667 77.8488 10.7609 79.763 11.1377C80.3372 11.1377 82.714 13.1787 83.8307 14.1992C84.7878 18.6737 84.7878 22.6771 84.7878 24.7966C84.7878 25.3232 82.395 32.0971 81.1986 33.51C80.0022 34.923 78.3273 35.394 77.3702 35.394C76.6045 35.394 70.4312 33.039 67.7992 29.9776L67.0814 25.9741L66.3635 19.8512C67.4004 18.0457 69.6655 14.105 70.4312 12.7862Z" fill="#925F4E"/>
<path d="M52.5031 196.121V185.697H58.2074C58.968 185.697 58.1814 193.115 57.1515 196.824L59.3333 204.849L57.6363 208H53.5151L51.3643 200.727L52.5031 196.121Z" fill="#593A30"/>
<path d="M81.238 191.612V184.242H86.1731L87.2121 191.612L86.1731 203.83L81.238 205.576L79.9393 203.83L81.238 191.612Z" fill="#593A30"/>
<path d="M77.558 8.35325C78.3109 8.91124 78.8129 10.4457 78.9697 11.1432L74.0286 12.0732C72.0678 14.7856 68.0991 20.3035 67.9109 20.6755C67.7227 21.0475 66.107 21.9155 65.3227 22.303H62.9697V19.2806L66.4991 16.4906L70.9697 9.05074C71.6756 8.66324 73.4168 7.79526 74.7344 7.42326C76.3815 6.95827 76.6168 7.65576 77.558 8.35325Z" fill="#D1C7C8"/>
<path d="M60.303 142.546L47.9394 131.636L49.8788 93.091H46L47.9394 79.0304H50.6061L52.7879 46.7879L55.4545 39.7576L60.303 37.3334L64.1818 38.3031V33.9395H70L78.7273 35.6364L85.7576 37.3334V41.9395L95.2121 50.6667C96.0202 51.8788 98.0242 54.691 99.5758 56.2425C101.127 57.794 100.222 75.3132 99.5758 83.8788L102 85.3334L99.5758 97.2122V134.788L93.0303 137.212L84.0606 133.333L73.3939 134.788L60.303 142.546Z" fill="#7B9EA2"/>
<path d="M59.5758 85.0911L62 63.0305L66.1213 79.2729L61.5152 98.4245L60.5618 93.613L60.7879 94.5457L59.5758 85.0911Z" fill="#925F4E"/>
<path d="M86.7273 75.394L88.9091 57.4546C89.798 63.2728 91.8182 73.2122 91.8182 73.2122L92.7879 89.697L86.7273 75.394Z" fill="#925F4E"/>
<path d="M61.2433 98.9927L63.697 88.4849L77.5151 106.355C77.5151 106.355 60.2101 181.494 60.2101 182.889C60.2101 184.284 61.0711 184.374 61.5016 184.245L60.2101 187.152H53.2365H49.8788V184.245L51.6868 182.889L61.2433 98.9927Z" fill="#323C3E"/>
<path d="M77.0304 106.164L92.788 89.4546C90.8167 119.356 88.0864 179.787 88.0864 179.787L89.1149 180.175L88.6006 184.05L84.7439 185.212H78.8302L79.0873 180.175L79.8587 179.981L77.0304 106.164Z" fill="#323C3E"/>
<path d="M66.3635 40H70.2423L71.4544 32.4849L78.2423 34.4243V40L82.3635 41.697C82.3635 41.697 80.4241 65.2121 80.1817 65.697H71.4544L66.3635 40Z" fill="#925F4E"/>
<path d="M62 63.5154L66.3636 40.0002L75.8182 47.7578L82.1212 41.6972L88.9091 57.9396C88.9091 57.9396 87.2606 74.4245 87.4545 75.3942C87.6485 76.3639 92.7879 89.4548 92.7879 89.4548L77.0303 107.879L63.4545 89.4548L65.3939 78.5457L62 63.5154Z" fill="#323C3E"/>
<path d="M85.0829 23.457C85.2628 23.8361 84.8452 24.1634 84.5454 24.2424L84.4083 22.5093V19.1921L83.7338 15.8749L83.284 15.1641L81.0355 13.0317L79.2366 12.5578H77.4378L74.0649 11.847L71.8163 13.5056L68.6683 20.1399L67.0943 21.5615L67.7689 26.0633L68.1266 29.9558L71.8879 33.258L71.6528 34.6732L70.9169 37.9103V46.914V49.9942L69.3429 51.1789L67.0943 52.3636V48.3357L67.7689 43.5969L67.0943 34.4373L64.1817 34.1818L64.4241 38.683L60.5454 37.9103L57.6363 38.683L58.1 36.7256L56.526 37.1995H54.7272V30.8021L56.526 24.6417L59.4492 19.1921H57.2006L56.0763 17.2966L57.2006 16.3488L61.4729 7.34513L60.7983 6.63431L58.3249 4.73879L57.4255 2.84327L58.3249 1.42164H59.4492L61.4729 2.84327L63.2717 4.02797L67.7689 0.710819L69.3429 0L76.988 2.13246L79.6863 5.21267V8.05594L82.1598 9.71452L84.4083 13.0317C84.6332 14.1374 85.0829 16.4436 85.0829 16.8227C85.0829 17.2018 85.5326 19.1921 85.7575 20.1399C85.4577 21.0876 84.903 23.0779 85.0829 23.457Z" fill="#D0C6C7"/>
<path d="M73.9595 13.9825L77.5151 12.5749L73.9595 11.6365L70.1669 16.5632L68.5076 20.0822L66.8484 21.4898L67.8181 25.9395L68.0336 21.9591L70.1669 20.0822L73.9595 13.9825Z" fill="#5C3D31"/>
<path d="M78.2425 34.9092L75.0909 34.1819L76.0606 35.8789L78.2425 37.3334V34.9092Z" fill="#5C3D31"/>
<path d="M70.4847 44.8484H67.0908L66.606 47.0302H70.4847V44.8484Z" fill="#C6A508"/>
<path d="M59.9164 5.89685L62.2752 3.30226L61.0958 2.35876L58.7371 5.18923L59.9164 5.89685Z" fill="#C6A508"/>
</g>
<defs>
<filter id="filter0_d" x="42" y="0" width="64" height="216" filterUnits="userSpaceOnUse" color-interpolation-filters="sRGB">
<feFlood flood-opacity="0" result="BackgroundImageFix"/>
<feColorMatrix in="SourceAlpha" type="matrix" values="0 0 0 0 0 0 0 0 0 0 0 0 0 0 0 0 0 0 127 0"/>
<feOffset dy="4"/>
<feGaussianBlur stdDeviation="2"/>
<feColorMatrix type="matrix" values="0 0 0 0 0 0 0 0 0 0 0 0 0 0 0 0 0 0 0.25 0"/>
<feBlend mode="normal" in2="BackgroundImageFix" result="effect1_dropShadow"/>
<feBlend mode="normal" in="SourceGraphic" in2="effect1_dropShadow" result="shape"/>
</filter>
</defs>
</svg>
