<svg width="56" height="208" viewBox="0 0 56 208" fill="none" xmlns="http://www.w3.org/2000/svg">
<path d="M24.4312 12.7862C25.3883 11.1377 26.824 10.6667 27.3025 10.6667C28.6584 10.6667 31.8488 10.7609 33.763 11.1377C34.3372 11.1377 36.714 13.1787 37.8307 14.1992C38.7878 18.6737 38.7878 22.6771 38.7878 24.7966C38.7878 25.3232 36.395 32.0971 35.1986 33.51C34.0022 34.923 32.3273 35.394 31.3702 35.394C30.6045 35.394 24.4312 33.039 21.7992 29.9776L21.0814 25.9741L20.3635 19.8512C21.4004 18.0457 23.6655 14.105 24.4312 12.7862Z" fill="#925F4E"/>
<path d="M6.50314 196.121V185.697H12.2074C12.968 185.697 12.1814 193.115 11.1515 196.824L13.3333 204.849L11.6363 208H7.51513L5.36426 200.727L6.50314 196.121Z" fill="#593A30"/>
<path d="M35.238 191.612V184.242H40.1731L41.2121 191.612L40.1731 203.83L35.238 205.576L33.9393 203.83L35.238 191.612Z" fill="#593A30"/>
<path d="M31.558 8.35325C32.3109 8.91124 32.8129 10.4457 32.9697 11.1432L28.0286 12.0732C26.0678 14.7856 22.0991 20.3035 21.9109 20.6755C21.7227 21.0475 20.107 21.9155 19.3227 22.303H16.9697V19.2806L20.4991 16.4906L24.9697 9.05074C25.6756 8.66324 27.4168 7.79526 28.7344 7.42326C30.3815 6.95827 30.6168 7.65576 31.558 8.35325Z" fill="#D1C7C8"/>
<path d="M14.303 142.546L1.93939 131.636L3.87879 93.091H0L1.93939 79.0304H4.60606L6.78788 46.7879L9.45455 39.7576L14.303 37.3334L18.1818 38.3031V33.9395H24L32.7273 35.6364L39.7576 37.3334V41.9395L49.2121 50.6667C50.0202 51.8788 52.0242 54.691 53.5758 56.2425C55.1273 57.794 54.2222 75.3132 53.5758 83.8788L56 85.3334L53.5758 97.2122V134.788L47.0303 137.212L38.0606 133.333L27.3939 134.788L14.303 142.546Z" fill="#7B9EA2"/>
<path d="M13.5758 85.0911L16 63.0305L20.1213 79.2729L15.5152 98.4245L14.5618 93.613L14.7879 94.5457L13.5758 85.0911Z" fill="#925F4E"/>
<path d="M40.7273 75.394L42.9091 57.4546C43.798 63.2728 45.8182 73.2122 45.8182 73.2122L46.7879 89.697L40.7273 75.394Z" fill="#925F4E"/>
<path d="M15.2433 98.9927L17.697 88.4849L31.5151 106.355C31.5151 106.355 14.2101 181.494 14.2101 182.889C14.2101 184.284 15.0711 184.374 15.5016 184.245L14.2101 187.152H7.23647H3.87878V184.245L5.68677 182.889L15.2433 98.9927Z" fill="#323C3E"/>
<path d="M31.0304 106.164L46.788 89.4546C44.8167 119.356 42.0864 179.787 42.0864 179.787L43.1149 180.175L42.6006 184.05L38.7439 185.212H32.8302L33.0873 180.175L33.8587 179.981L31.0304 106.164Z" fill="#323C3E"/>
<path d="M20.3635 40H24.2423L25.4544 32.4849L32.2423 34.4243V40L36.3635 41.697C36.3635 41.697 34.4241 65.2121 34.1817 65.697H25.4544L20.3635 40Z" fill="#925F4E"/>
<path d="M16 63.5154L20.3636 40.0002L29.8182 47.7578L36.1212 41.6972L42.9091 57.9396C42.9091 57.9396 41.2606 74.4245 41.4545 75.3942C41.6485 76.3639 46.7879 89.4548 46.7879 89.4548L31.0303 107.879L17.4545 89.4548L19.3939 78.5457L16 63.5154Z" fill="#323C3E"/>
<path d="M39.0829 23.457C39.2628 23.8361 38.8452 24.1634 38.5454 24.2424L38.4083 22.5093V19.1921L37.7338 15.8749L37.284 15.1641L35.0355 13.0317L33.2366 12.5578H31.4378L28.0649 11.847L25.8163 13.5056L22.6683 20.1399L21.0943 21.5615L21.7689 26.0633L22.1266 29.9558L25.8879 33.258L25.6528 34.6732L24.9169 37.9103V46.914V49.9942L23.3429 51.1789L21.0943 52.3636V48.3357L21.7689 43.5969L21.0943 34.4373L18.1817 34.1818L18.4241 38.683L14.5454 37.9103L11.6363 38.683L12.1 36.7256L10.526 37.1995H8.72717V30.8021L10.526 24.6417L13.4492 19.1921H11.2006L10.0763 17.2966L11.2006 16.3488L15.4729 7.34513L14.7983 6.63431L12.3249 4.73879L11.4255 2.84327L12.3249 1.42164H13.4492L15.4729 2.84327L17.2717 4.02797L21.7689 0.710819L23.3429 0L30.988 2.13246L33.6863 5.21267V8.05594L36.1598 9.71452L38.4083 13.0317C38.6332 14.1374 39.0829 16.4436 39.0829 16.8227C39.0829 17.2018 39.5326 19.1921 39.7575 20.1399C39.4577 21.0876 38.903 23.0779 39.0829 23.457Z" fill="#D0C6C7"/>
<path d="M27.9595 13.9825L31.5151 12.5749L27.9595 11.6365L24.1669 16.5632L22.5076 20.0822L20.8484 21.4898L21.8181 25.9395L22.0336 21.9591L24.1669 20.0822L27.9595 13.9825Z" fill="#5C3D31"/>
<path d="M32.2425 34.9092L29.0909 34.1819L30.0606 35.8789L32.2425 37.3334V34.9092Z" fill="#5C3D31"/>
<path d="M24.4847 44.8484H21.0908L20.606 47.0302H24.4847V44.8484Z" fill="#C6A508"/>
<path d="M13.9164 5.89685L16.2752 3.30226L15.0958 2.35876L12.7371 5.18923L13.9164 5.89685Z" fill="#C6A508"/>
</svg>
