<?xml version="1.0" encoding="utf-8"?>
<!-- Generator: Adobe Illustrator 25.3.0, SVG Export Plug-In . SVG Version: 6.00 Build 0)  -->
<svg version="1.1" id="Livello_1" xmlns="http://www.w3.org/2000/svg" xmlns:xlink="http://www.w3.org/1999/xlink" x="0px" y="0px"
	 viewBox="0 0 1920 1920" style="enable-background:new 0 0 1920 1920;" xml:space="preserve">
<style type="text/css">
	.st0{fill:#8FD6DA;}
	.st1{fill:none;stroke:#FFFFFF;stroke-width:2;stroke-linecap:round;stroke-miterlimit:10;}
	.st2{fill:#FFFFFF;}
	.st3{font-family:'Montserrat-Light';}
	.st4{font-size:48px;}
</style>
<circle class="st0" cx="737.6" cy="960" r="117.5"/>
<line class="st1" x1="1629.9" y1="960" x2="742.1" y2="960"/>
<path class="st2" d="M742.5,952.5c-4.2,0-7.5,3.4-7.5,7.5c0,4.2,3.4,7.5,7.5,7.5c4.2,0,7.5-3.4,7.5-7.5l0,0
	C750,955.8,746.6,952.5,742.5,952.5z"/>
<text transform="matrix(1 0 0 1 1300.8025 918.2102)" class="st2 st3 st4">Si</text>
<text transform="matrix(1 0 0 1 1343.2341 918.2102)" class="st2 st3 st4">n</text>
<text transform="matrix(1 0 0 1 1375.825 918.2102)" class="st2 st3 st4">gle pe</text>
<text transform="matrix(1 0 0 1 1524.7664 918.2102)" class="st2 st3 st4">r</text>
<text transform="matrix(1 0 0 1 1543.822 918.2102)" class="st2 st3 st4">son</text>
<text transform="matrix(1 0 0 1 1345.0103 1024.9552)" class="st2 st3 st4">doi</text>
<text transform="matrix(1 0 0 1 1420.562 1024.9552)" class="st2 st3 st4">n</text>
<text transform="matrix(1 0 0 1 1453.1528 1024.9552)" class="st2 st3 st4">g huge </text>
<text transform="matrix(1 0 0 1 1471.2485 1082.5553)" class="st2 st3 st4">ef</text>
<text transform="matrix(1 0 0 1 1516.5112 1082.5553)" class="st2 st3 st4">f</text>
<text transform="matrix(1 0 0 1 1532.3511 1082.5553)" class="st2 st3 st4">o</text>
<text transform="matrix(1 0 0 1 1562.4468 1082.5553)" class="st2 st3 st4">r</text>
<text transform="matrix(1 0 0 1 1582.4141 1082.5553)" class="st2 st3 st4">ts</text>
</svg>
