<?xml version="1.0" encoding="utf-8"?>
<!-- Generator: Adobe Illustrator 25.3.0, SVG Export Plug-In . SVG Version: 6.00 Build 0)  -->
<svg version="1.1" id="Livello_1" xmlns="http://www.w3.org/2000/svg" xmlns:xlink="http://www.w3.org/1999/xlink" x="0px" y="0px"
	 viewBox="0 0 1920 1920" style="enable-background:new 0 0 1920 1920;" xml:space="preserve">
<style type="text/css">
	.st0{fill:#8FD6DA;}
	.st1{fill:none;stroke:#FFFFFF;stroke-width:2;stroke-linecap:round;stroke-miterlimit:10;}
	.st2{fill:#FFFFFF;}
	.st3{enable-background:new    ;}
</style>
<circle class="st0" cx="737.6" cy="960" r="117.5"/>
<line class="st1" x1="1629.9" y1="960" x2="742.1" y2="960"/>
<path class="st2" d="M742.5,952.5c-4.2,0-7.5,3.4-7.5,7.5c0,4.2,3.4,7.5,7.5,7.5c4.2,0,7.5-3.4,7.5-7.5l0,0
	C750,955.8,746.6,952.5,742.5,952.5z"/>
<g class="st3">
	<path class="st2" d="M1308.5,917.2c-2.2-0.8-4-1.9-5.2-3.3l1.1-1.8c1.2,1.2,2.8,2.3,4.8,3c2,0.8,4.1,1.2,6.3,1.2
		c3.2,0,5.6-0.6,7.2-1.8c1.6-1.2,2.4-2.8,2.4-4.8c0-1.5-0.4-2.7-1.3-3.6c-0.9-0.9-1.9-1.6-3.2-2.1c-1.3-0.5-3-1-5.2-1.5
		c-2.5-0.6-4.4-1.2-5.9-1.8s-2.8-1.5-3.8-2.7c-1-1.2-1.6-2.8-1.6-4.8c0-1.6,0.4-3.1,1.3-4.5c0.9-1.4,2.2-2.4,4-3.2
		c1.8-0.8,4-1.2,6.6-1.2c1.9,0,3.7,0.3,5.5,0.8c1.8,0.5,3.3,1.3,4.7,2.2l-0.9,2c-1.3-0.9-2.8-1.6-4.4-2.1c-1.6-0.5-3.2-0.7-4.8-0.7
		c-3.1,0-5.5,0.6-7.1,1.9c-1.6,1.2-2.4,2.9-2.4,4.8c0,1.5,0.4,2.7,1.3,3.6c0.9,0.9,1.9,1.6,3.2,2.1c1.3,0.5,3,1,5.2,1.5
		c2.5,0.6,4.4,1.2,5.9,1.8c1.5,0.6,2.7,1.4,3.8,2.6c1,1.2,1.6,2.7,1.6,4.7c0,1.6-0.4,3.1-1.3,4.5c-0.9,1.3-2.2,2.4-4.1,3.2
		c-1.8,0.8-4.1,1.2-6.7,1.2C1313,918.5,1310.7,918,1308.5,917.2z"/>
	<path class="st2" d="M1334.9,886.5c-0.4-0.4-0.6-0.8-0.6-1.4c0-0.5,0.2-1,0.6-1.4s0.8-0.6,1.4-0.6c0.5,0,1,0.2,1.4,0.6
		c0.4,0.4,0.6,0.8,0.6,1.4c0,0.5-0.2,1-0.6,1.4c-0.4,0.4-0.8,0.6-1.4,0.6C1335.8,887.1,1335.3,886.9,1334.9,886.5z M1335.1,893.2
		h2.4v25.1h-2.4V893.2z"/>
</g>
<g class="st3">
	<path class="st2" d="M1368,895.7c1.8,1.8,2.7,4.4,2.7,7.9v14.6h-2.4v-14.4c0-2.8-0.7-5-2.1-6.4s-3.4-2.2-6-2.2
		c-2.9,0-5.3,0.9-7,2.6c-1.7,1.8-2.5,4.1-2.5,7.1v13.3h-2.4v-25.1h2.3v5.4c0.9-1.8,2.2-3.1,3.9-4.1c1.7-1,3.7-1.5,6.1-1.5
		C1363.7,893,1366.2,893.9,1368,895.7z"/>
</g>
<g class="st3">
	<path class="st2" d="M1403.5,893.2v22.4c0,4.2-1,7.2-3,9.2c-2,2-5.1,3-9.1,3c-2.3,0-4.5-0.4-6.5-1.1c-2-0.7-3.7-1.7-4.9-2.9
		l1.3-1.8c1.2,1.2,2.8,2,4.5,2.7c1.8,0.6,3.6,1,5.6,1c3.3,0,5.8-0.8,7.4-2.4c1.6-1.6,2.4-4,2.4-7.4v-4.2c-1,1.8-2.4,3.2-4.3,4.2
		c-1.8,1-3.9,1.5-6.1,1.5c-2.3,0-4.5-0.5-6.4-1.6c-1.9-1-3.4-2.5-4.5-4.3c-1.1-1.9-1.6-4-1.6-6.3s0.5-4.4,1.6-6.3s2.6-3.3,4.5-4.3
		c1.9-1,4-1.5,6.4-1.5c2.3,0,4.4,0.5,6.2,1.5c1.9,1,3.3,2.5,4.3,4.3v-5.7H1403.5z M1396.1,913.9c1.6-0.8,2.8-2,3.7-3.6
		c0.9-1.5,1.3-3.3,1.3-5.2s-0.4-3.7-1.3-5.2c-0.9-1.5-2.1-2.7-3.7-3.5c-1.6-0.8-3.3-1.3-5.3-1.3s-3.7,0.4-5.3,1.3
		c-1.6,0.8-2.8,2-3.6,3.5c-0.9,1.5-1.3,3.2-1.3,5.2s0.4,3.7,1.3,5.2c0.9,1.5,2.1,2.7,3.6,3.6c1.6,0.8,3.3,1.3,5.3,1.3
		S1394.6,914.7,1396.1,913.9z"/>
	<path class="st2" d="M1413.6,882.6h2.4v35.6h-2.4V882.6z"/>
	<path class="st2" d="M1447.3,906.3h-21.6c0.1,2,0.6,3.7,1.5,5.2c0.9,1.5,2.2,2.7,3.8,3.5s3.4,1.2,5.4,1.2c1.6,0,3.1-0.3,4.5-0.9
		c1.4-0.6,2.6-1.5,3.5-2.6l1.4,1.6c-1.1,1.3-2.5,2.3-4.1,3c-1.6,0.7-3.4,1.1-5.4,1.1c-2.5,0-4.7-0.5-6.7-1.6c-2-1.1-3.5-2.6-4.6-4.5
		c-1.1-1.9-1.7-4.1-1.7-6.6c0-2.4,0.5-4.6,1.6-6.6c1-1.9,2.5-3.4,4.3-4.5c1.8-1.1,3.9-1.6,6.1-1.6c2.3,0,4.3,0.5,6.1,1.6
		c1.8,1.1,3.2,2.6,4.3,4.5c1,1.9,1.6,4.1,1.6,6.5L1447.3,906.3z M1430.7,896.2c-1.4,0.8-2.5,1.9-3.4,3.3c-0.8,1.4-1.3,3-1.5,4.8
		h19.2c-0.1-1.8-0.6-3.4-1.4-4.8s-2-2.5-3.4-3.3s-3-1.2-4.8-1.2S1432.1,895.5,1430.7,896.2z"/>
	<path class="st2" d="M1486.1,894.6c1.9,1.1,3.4,2.6,4.4,4.5c1.1,1.9,1.6,4.1,1.6,6.6c0,2.5-0.5,4.7-1.6,6.6
		c-1.1,1.9-2.6,3.4-4.4,4.5c-1.9,1.1-4,1.6-6.3,1.6c-2.2,0-4.2-0.5-6-1.6c-1.8-1-3.2-2.5-4.2-4.3v15h-2.4v-34.4h2.3v5.9
		c1-1.9,2.4-3.4,4.2-4.5c1.8-1.1,3.8-1.6,6.1-1.6C1482.1,893,1484.2,893.5,1486.1,894.6z M1484.8,914.9c1.5-0.9,2.7-2.1,3.6-3.7
		c0.9-1.6,1.3-3.4,1.3-5.5c0-2-0.4-3.9-1.3-5.5c-0.9-1.6-2.1-2.8-3.6-3.7c-1.5-0.9-3.3-1.3-5.2-1.3s-3.6,0.4-5.2,1.3
		c-1.5,0.9-2.7,2.1-3.6,3.7c-0.9,1.6-1.3,3.4-1.3,5.5c0,2,0.4,3.9,1.3,5.5c0.9,1.6,2.1,2.8,3.6,3.7s3.2,1.3,5.2,1.3
		S1483.2,915.8,1484.8,914.9z"/>
	<path class="st2" d="M1520.7,906.3h-21.6c0.1,2,0.6,3.7,1.5,5.2c0.9,1.5,2.2,2.7,3.8,3.5s3.4,1.2,5.4,1.2c1.6,0,3.1-0.3,4.5-0.9
		c1.4-0.6,2.6-1.5,3.5-2.6l1.4,1.6c-1.1,1.3-2.5,2.3-4.1,3c-1.6,0.7-3.4,1.1-5.4,1.1c-2.5,0-4.7-0.5-6.7-1.6c-2-1.1-3.5-2.6-4.6-4.5
		c-1.1-1.9-1.7-4.1-1.7-6.6c0-2.4,0.5-4.6,1.6-6.6c1-1.9,2.5-3.4,4.3-4.5c1.8-1.1,3.9-1.6,6.1-1.6c2.3,0,4.3,0.5,6.1,1.6
		c1.8,1.1,3.2,2.6,4.3,4.5c1,1.9,1.6,4.1,1.6,6.5L1520.7,906.3z M1504.1,896.2c-1.4,0.8-2.5,1.9-3.4,3.3c-0.8,1.4-1.3,3-1.5,4.8
		h19.2c-0.1-1.8-0.6-3.4-1.4-4.8s-2-2.5-3.4-3.3s-3-1.2-4.8-1.2S1505.5,895.5,1504.1,896.2z"/>
</g>
<g class="st3">
	<path class="st2" d="M1535.8,894.4c1.6-1,3.6-1.5,6-1.5v2.4l-0.6,0c-2.8,0-5,0.9-6.5,2.6c-1.6,1.7-2.4,4.2-2.4,7.3v13.1h-2.4v-25.1
		h2.3v5.5C1532.9,896.8,1534.1,895.4,1535.8,894.4z"/>
</g>
<g class="st3">
	<path class="st2" d="M1549.5,917.5c-1.8-0.6-3.2-1.4-4.3-2.3l1.1-1.9c1,0.9,2.3,1.6,4,2.2c1.6,0.6,3.3,0.9,5.1,0.9
		c2.5,0,4.4-0.4,5.6-1.2c1.2-0.8,1.8-2,1.8-3.5c0-1.1-0.3-1.9-1-2.5c-0.7-0.6-1.5-1.1-2.4-1.3s-2.3-0.6-4-0.9
		c-2-0.4-3.6-0.7-4.8-1.2c-1.2-0.4-2.3-1.1-3.1-2c-0.9-0.9-1.3-2.2-1.3-3.8c0-2,0.8-3.6,2.5-4.9s4-1.9,7-1.9c1.6,0,3.2,0.2,4.8,0.7
		c1.6,0.4,2.8,1,3.8,1.8l-1.1,1.9c-1-0.7-2.2-1.3-3.5-1.7c-1.3-0.4-2.7-0.6-4-0.6c-2.3,0-4.1,0.4-5.3,1.3s-1.8,2-1.8,3.4
		c0,1.1,0.3,2,1,2.6s1.5,1.1,2.5,1.4c1,0.3,2.3,0.6,4.1,1c2,0.4,3.5,0.7,4.7,1.1s2.2,1,3,1.9c0.8,0.9,1.2,2.1,1.2,3.7
		c0,2.1-0.9,3.7-2.6,5c-1.7,1.2-4.2,1.9-7.3,1.9C1553.2,918.4,1551.3,918.1,1549.5,917.5z"/>
	<path class="st2" d="M1575.2,916.8c-1.9-1.1-3.4-2.6-4.5-4.5c-1.1-1.9-1.6-4.1-1.6-6.6c0-2.4,0.5-4.6,1.6-6.6
		c1.1-1.9,2.6-3.4,4.5-4.5c1.9-1.1,4-1.6,6.4-1.6s4.5,0.5,6.4,1.6c1.9,1.1,3.4,2.6,4.5,4.5c1.1,1.9,1.6,4.1,1.6,6.6
		c0,2.4-0.5,4.6-1.6,6.6c-1.1,1.9-2.6,3.4-4.5,4.5c-1.9,1.1-4,1.6-6.4,1.6S1577.1,917.9,1575.2,916.8z M1586.8,914.9
		c1.5-0.9,2.7-2.1,3.6-3.7c0.9-1.6,1.3-3.4,1.3-5.5c0-2-0.4-3.9-1.3-5.5c-0.9-1.6-2.1-2.8-3.6-3.7c-1.5-0.9-3.2-1.3-5.2-1.3
		s-3.6,0.4-5.2,1.3c-1.5,0.9-2.7,2.1-3.6,3.7c-0.9,1.6-1.3,3.4-1.3,5.5c0,2,0.4,3.9,1.3,5.5c0.9,1.6,2.1,2.8,3.6,3.7
		c1.5,0.9,3.2,1.3,5.2,1.3S1585.3,915.8,1586.8,914.9z"/>
	<path class="st2" d="M1621.3,895.7c1.8,1.8,2.7,4.4,2.7,7.9v14.6h-2.4v-14.4c0-2.8-0.7-5-2.1-6.4s-3.4-2.2-6-2.2
		c-2.9,0-5.3,0.9-7,2.6c-1.7,1.8-2.5,4.1-2.5,7.1v13.3h-2.4v-25.1h2.3v5.4c0.9-1.8,2.2-3.1,3.9-4.1s3.7-1.5,6.1-1.5
		C1617,893,1619.5,893.9,1621.3,895.7z"/>
</g>
<g class="st3">
	<path class="st2" d="M1372.4,989.3v35.6h-2.4v-5.9c-1,2-2.4,3.5-4.2,4.5c-1.8,1.1-3.8,1.6-6.1,1.6c-2.3,0-4.4-0.5-6.3-1.6
		c-1.9-1.1-3.4-2.6-4.4-4.5c-1.1-1.9-1.6-4.1-1.6-6.6c0-2.5,0.5-4.7,1.6-6.6c1.1-1.9,2.6-3.4,4.4-4.5c1.9-1.1,4-1.6,6.3-1.6
		c2.2,0,4.2,0.5,6,1.6c1.8,1.1,3.2,2.5,4.2,4.4v-16.4H1372.4z M1365.1,1021.6c1.5-0.9,2.7-2.1,3.6-3.7c0.9-1.6,1.3-3.4,1.3-5.5
		c0-2-0.4-3.9-1.3-5.5c-0.9-1.6-2.1-2.8-3.6-3.7c-1.5-0.9-3.2-1.3-5.2-1.3s-3.6,0.4-5.2,1.3c-1.5,0.9-2.7,2.1-3.6,3.7
		c-0.9,1.6-1.3,3.4-1.3,5.5c0,2,0.4,3.9,1.3,5.5c0.9,1.6,2.1,2.8,3.6,3.7c1.5,0.9,3.2,1.3,5.2,1.3S1363.5,1022.5,1365.1,1021.6z"/>
	<path class="st2" d="M1385.9,1023.5c-1.9-1.1-3.4-2.6-4.5-4.5c-1.1-1.9-1.6-4.1-1.6-6.6c0-2.4,0.5-4.6,1.6-6.6
		c1.1-1.9,2.6-3.4,4.5-4.5c1.9-1.1,4-1.6,6.4-1.6c2.4,0,4.5,0.5,6.4,1.6c1.9,1.1,3.4,2.6,4.5,4.5c1.1,1.9,1.6,4.1,1.6,6.6
		c0,2.4-0.5,4.6-1.6,6.6s-2.6,3.4-4.5,4.5c-1.9,1.1-4,1.6-6.4,1.6C1389.9,1025.1,1387.8,1024.6,1385.9,1023.5z M1397.4,1021.6
		c1.5-0.9,2.7-2.1,3.6-3.7c0.9-1.6,1.3-3.4,1.3-5.5c0-2-0.4-3.9-1.3-5.5c-0.9-1.6-2.1-2.8-3.6-3.7c-1.5-0.9-3.2-1.3-5.2-1.3
		s-3.6,0.4-5.2,1.3c-1.5,0.9-2.7,2.1-3.6,3.7c-0.9,1.6-1.3,3.4-1.3,5.5c0,2,0.4,3.9,1.3,5.5c0.9,1.6,2.1,2.8,3.6,3.7
		c1.5,0.9,3.2,1.3,5.2,1.3S1395.9,1022.5,1397.4,1021.6z"/>
	<path class="st2" d="M1412.1,993.3c-0.4-0.4-0.6-0.8-0.6-1.4c0-0.5,0.2-1,0.6-1.4s0.8-0.6,1.4-0.6s1,0.2,1.4,0.6
		c0.4,0.4,0.6,0.8,0.6,1.4c0,0.5-0.2,1-0.6,1.4c-0.4,0.4-0.8,0.6-1.4,0.6S1412.4,993.6,1412.1,993.3z M1412.3,999.9h2.4v25.1h-2.4
		V999.9z"/>
</g>
<g class="st3">
	<path class="st2" d="M1445.3,1002.4c1.8,1.8,2.7,4.4,2.7,7.9v14.6h-2.4v-14.4c0-2.8-0.7-5-2.1-6.4s-3.4-2.2-6-2.2
		c-2.9,0-5.3,0.9-7,2.6c-1.7,1.8-2.5,4.1-2.5,7.1v13.3h-2.4v-25.1h2.3v5.4c0.9-1.8,2.2-3.1,3.9-4.1c1.7-1,3.7-1.5,6.1-1.5
		C1441,999.7,1443.5,1000.6,1445.3,1002.4z"/>
</g>
<g class="st3">
	<path class="st2" d="M1480.8,999.9v22.4c0,4.2-1,7.2-3,9.2c-2,2-5.1,3-9.1,3c-2.3,0-4.5-0.4-6.5-1.1c-2-0.7-3.7-1.7-4.9-2.9
		l1.3-1.8c1.2,1.2,2.8,2,4.5,2.7c1.8,0.6,3.6,1,5.6,1c3.3,0,5.8-0.8,7.4-2.4c1.6-1.6,2.4-4,2.4-7.4v-4.2c-1,1.8-2.4,3.2-4.3,4.2
		c-1.8,1-3.9,1.5-6.1,1.5c-2.3,0-4.5-0.5-6.4-1.6c-1.9-1-3.4-2.5-4.5-4.3c-1.1-1.9-1.6-4-1.6-6.3s0.5-4.4,1.6-6.3s2.6-3.3,4.5-4.3
		c1.9-1,4-1.5,6.4-1.5c2.3,0,4.4,0.5,6.2,1.5c1.9,1,3.3,2.5,4.3,4.3v-5.7H1480.8z M1473.5,1020.6c1.6-0.8,2.8-2,3.7-3.6
		c0.9-1.5,1.3-3.3,1.3-5.2s-0.4-3.7-1.3-5.2c-0.9-1.5-2.1-2.7-3.7-3.5c-1.6-0.8-3.3-1.3-5.3-1.3s-3.7,0.4-5.3,1.3
		c-1.6,0.8-2.8,2-3.6,3.5c-0.9,1.5-1.3,3.2-1.3,5.2s0.4,3.7,1.3,5.2c0.9,1.5,2.1,2.7,3.6,3.6c1.6,0.8,3.3,1.3,5.3,1.3
		S1471.9,1021.5,1473.5,1020.6z"/>
	<path class="st2" d="M1523,1002.4c1.8,1.8,2.7,4.4,2.7,7.9v14.6h-2.4v-14.4c0-2.8-0.7-5-2.1-6.4s-3.4-2.2-6-2.2
		c-2.9,0-5.3,0.9-7,2.6c-1.7,1.8-2.5,4.1-2.5,7.1v13.3h-2.4v-35.6h2.4v15.8c0.9-1.7,2.1-3.1,3.8-4c1.7-0.9,3.7-1.4,6-1.4
		C1518.7,999.7,1521.2,1000.6,1523,1002.4z"/>
	<path class="st2" d="M1557.6,999.9v25.1h-2.3v-5.4c-0.8,1.8-2.1,3.1-3.7,4.1c-1.6,1-3.6,1.5-5.8,1.5c-3.3,0-5.8-0.9-7.7-2.7
		c-1.9-1.8-2.8-4.4-2.8-7.9v-14.6h2.4v14.4c0,2.8,0.7,5,2.2,6.4c1.4,1.5,3.5,2.2,6.1,2.2c2.8,0,5-0.9,6.7-2.6
		c1.6-1.8,2.5-4.1,2.5-7.1v-13.3H1557.6z"/>
	<path class="st2" d="M1590.3,999.9v22.4c0,4.2-1,7.2-3,9.2c-2,2-5.1,3-9.1,3c-2.3,0-4.5-0.4-6.5-1.1c-2-0.7-3.7-1.7-4.9-2.9
		l1.3-1.8c1.2,1.2,2.8,2,4.5,2.7c1.8,0.6,3.6,1,5.6,1c3.3,0,5.8-0.8,7.4-2.4c1.6-1.6,2.4-4,2.4-7.4v-4.2c-1,1.8-2.4,3.2-4.3,4.2
		c-1.8,1-3.9,1.5-6.1,1.5c-2.3,0-4.5-0.5-6.4-1.6c-1.9-1-3.4-2.5-4.5-4.3c-1.1-1.9-1.6-4-1.6-6.3s0.5-4.4,1.6-6.3s2.6-3.3,4.5-4.3
		c1.9-1,4-1.5,6.4-1.5c2.3,0,4.4,0.5,6.2,1.5c1.9,1,3.3,2.5,4.3,4.3v-5.7H1590.3z M1582.9,1020.6c1.6-0.8,2.8-2,3.7-3.6
		c0.9-1.5,1.3-3.3,1.3-5.2s-0.4-3.7-1.3-5.2c-0.9-1.5-2.1-2.7-3.7-3.5c-1.6-0.8-3.3-1.3-5.3-1.3s-3.7,0.4-5.3,1.3
		c-1.6,0.8-2.8,2-3.6,3.5c-0.9,1.5-1.3,3.2-1.3,5.2s0.4,3.7,1.3,5.2c0.9,1.5,2.1,2.7,3.6,3.6c1.6,0.8,3.3,1.3,5.3,1.3
		S1581.4,1021.5,1582.9,1020.6z"/>
	<path class="st2" d="M1621.6,1013h-21.6c0.1,2,0.6,3.7,1.5,5.2c0.9,1.5,2.2,2.7,3.8,3.5s3.4,1.2,5.4,1.2c1.6,0,3.1-0.3,4.5-0.9
		c1.4-0.6,2.6-1.5,3.5-2.6l1.4,1.6c-1.1,1.3-2.5,2.3-4.1,3c-1.6,0.7-3.4,1.1-5.4,1.1c-2.5,0-4.7-0.5-6.7-1.6c-2-1.1-3.5-2.6-4.6-4.5
		c-1.1-1.9-1.7-4.1-1.7-6.6c0-2.4,0.5-4.6,1.6-6.6c1-1.9,2.5-3.4,4.3-4.5c1.8-1.1,3.9-1.6,6.1-1.6c2.3,0,4.3,0.5,6.1,1.6
		c1.8,1.1,3.2,2.6,4.3,4.5c1,1.9,1.6,4.1,1.6,6.5L1621.6,1013z M1605,1003c-1.4,0.8-2.5,1.9-3.4,3.3c-0.8,1.4-1.3,3-1.5,4.8h19.2
		c-0.1-1.8-0.6-3.4-1.4-4.8c-0.9-1.4-2-2.5-3.4-3.3s-3-1.2-4.8-1.2S1606.4,1002.2,1605,1003z"/>
</g>
<g class="st3">
	<path class="st2" d="M1497.5,1070.6H1476c0.1,2,0.6,3.7,1.5,5.2c0.9,1.5,2.2,2.7,3.8,3.5s3.4,1.2,5.4,1.2c1.6,0,3.1-0.3,4.5-0.9
		c1.4-0.6,2.6-1.5,3.5-2.6l1.4,1.6c-1.1,1.3-2.5,2.3-4.1,3c-1.6,0.7-3.4,1.1-5.4,1.1c-2.5,0-4.7-0.5-6.7-1.6c-2-1.1-3.5-2.6-4.6-4.5
		c-1.1-1.9-1.7-4.1-1.7-6.6c0-2.4,0.5-4.6,1.6-6.6c1-1.9,2.5-3.4,4.3-4.5c1.8-1.1,3.9-1.6,6.1-1.6c2.3,0,4.3,0.5,6.1,1.6
		c1.8,1.1,3.2,2.6,4.3,4.5s1.6,4.1,1.6,6.5L1497.5,1070.6z M1480.8,1060.6c-1.4,0.8-2.5,1.9-3.4,3.3c-0.8,1.4-1.3,3-1.5,4.8h19.2
		c-0.1-1.8-0.6-3.4-1.4-4.8s-2-2.5-3.4-3.3c-1.4-0.8-3-1.2-4.8-1.2C1483.8,1059.4,1482.3,1059.8,1480.8,1060.6z"/>
	<path class="st2" d="M1507.8,1053.9v3.6h8v2.1h-8v23h-2.4v-23h-4.6v-2.1h4.6v-3.8c0-2.1,0.6-3.8,1.8-5c1.2-1.2,2.9-1.9,5.1-1.9
		c1,0,1.9,0.1,2.8,0.4c0.9,0.3,1.6,0.7,2.2,1.2l-1,1.8c-1-0.9-2.3-1.4-3.9-1.4C1509.4,1048.8,1507.8,1050.5,1507.8,1053.9z"/>
</g>
<g class="st3">
	<path class="st2" d="M1524.4,1053.9v3.6h8v2.1h-8v23h-2.4v-23h-4.6v-2.1h4.6v-3.8c0-2.1,0.6-3.8,1.8-5c1.2-1.2,2.9-1.9,5.1-1.9
		c1,0,1.9,0.1,2.8,0.4c0.9,0.3,1.6,0.7,2.2,1.2l-1,1.8c-1-0.9-2.3-1.4-3.9-1.4C1526,1048.8,1524.4,1050.5,1524.4,1053.9z"/>
</g>
<g class="st3">
	<path class="st2" d="M1540.8,1081.1c-1.9-1.1-3.4-2.6-4.5-4.5c-1.1-1.9-1.6-4.1-1.6-6.6c0-2.4,0.5-4.6,1.6-6.6
		c1.1-1.9,2.6-3.4,4.5-4.5c1.9-1.1,4-1.6,6.4-1.6c2.4,0,4.5,0.5,6.4,1.6c1.9,1.1,3.4,2.6,4.5,4.5c1.1,1.9,1.6,4.1,1.6,6.6
		c0,2.4-0.5,4.6-1.6,6.6s-2.6,3.4-4.5,4.5c-1.9,1.1-4,1.6-6.4,1.6C1544.9,1082.7,1542.7,1082.2,1540.8,1081.1z M1552.4,1079.2
		c1.5-0.9,2.7-2.1,3.6-3.7c0.9-1.6,1.3-3.4,1.3-5.5c0-2-0.4-3.9-1.3-5.5c-0.9-1.6-2.1-2.8-3.6-3.7c-1.5-0.9-3.2-1.3-5.2-1.3
		s-3.6,0.4-5.2,1.3c-1.5,0.9-2.7,2.1-3.6,3.7c-0.9,1.6-1.3,3.4-1.3,5.5c0,2,0.4,3.9,1.3,5.5c0.9,1.6,2.1,2.8,3.6,3.7
		c1.5,0.9,3.2,1.3,5.2,1.3S1550.9,1080.1,1552.4,1079.2z"/>
</g>
<g class="st3">
	<path class="st2" d="M1573.4,1058.8c1.6-1,3.6-1.5,6-1.5v2.4l-0.6,0c-2.8,0-5,0.9-6.5,2.6c-1.6,1.7-2.4,4.2-2.4,7.3v13.1h-2.4
		v-25.1h2.3v5.5C1570.6,1061.1,1571.8,1059.7,1573.4,1058.8z"/>
</g>
<g class="st3">
	<path class="st2" d="M1599.9,1081c-0.6,0.6-1.4,1-2.3,1.3s-1.9,0.5-2.9,0.5c-2.2,0-3.9-0.6-5-1.8c-1.2-1.2-1.8-2.9-1.8-5v-16.4
		h-4.6v-2.1h4.6v-5.5h2.4v5.5h8v2.1h-8v16.1c0,1.6,0.4,2.9,1.2,3.7c0.8,0.8,1.9,1.3,3.5,1.3c1.6,0,2.9-0.5,3.9-1.4L1599.9,1081z"/>
	<path class="st2" d="M1607.2,1081.8c-1.8-0.6-3.2-1.4-4.3-2.3l1.1-1.9c1,0.9,2.3,1.6,4,2.2c1.6,0.6,3.3,0.9,5.1,0.9
		c2.5,0,4.4-0.4,5.6-1.2c1.2-0.8,1.8-2,1.8-3.5c0-1.1-0.3-1.9-1-2.5c-0.7-0.6-1.5-1.1-2.4-1.3s-2.3-0.6-4-0.9
		c-2-0.4-3.6-0.7-4.8-1.2c-1.2-0.4-2.3-1.1-3.1-2c-0.9-0.9-1.3-2.2-1.3-3.8c0-2,0.8-3.6,2.5-4.9s4-1.9,7-1.9c1.6,0,3.2,0.2,4.8,0.7
		c1.6,0.4,2.8,1,3.8,1.8l-1.1,1.9c-1-0.7-2.2-1.3-3.5-1.7c-1.3-0.4-2.7-0.6-4-0.6c-2.3,0-4.1,0.4-5.3,1.3c-1.2,0.9-1.8,2-1.8,3.4
		c0,1.1,0.3,2,1,2.6s1.5,1.1,2.5,1.4c1,0.3,2.3,0.6,4.1,1c2,0.4,3.5,0.7,4.7,1.1c1.2,0.4,2.2,1,3,1.9c0.8,0.9,1.2,2.1,1.2,3.7
		c0,2.1-0.9,3.7-2.6,5c-1.7,1.2-4.2,1.9-7.3,1.9C1610.9,1082.7,1609,1082.4,1607.2,1081.8z"/>
</g>
</svg>
