<svg width="1098" height="135" viewBox="0 0 1098 135" fill="none" xmlns="http://www.w3.org/2000/svg">
<path d="M24 122H1080" stroke="white" stroke-width="2"/>
<circle cx="24" cy="122" r="13" fill="white"/>
<circle cx="288" cy="122" r="13" fill="white"/>
<circle cx="552" cy="122" r="13" fill="white"/>
<circle cx="816" cy="122" r="13" fill="white"/>
<circle cx="1080" cy="122" r="13" fill="white"/>
<g clip-path="url(#clip0)">
<path d="M49 38.9319C49 37.2072 47.6 35.7381 45.8182 35.7381C44.1 35.7381 42.6364 37.1434 42.6364 38.9319C42.6364 40.4649 43.7182 41.6785 45.1182 41.9979V43.6586H42.0636V0.670688C42.0636 0.415188 41.9364 0.223563 41.7455 0.0958126C41.5545 -0.0319375 41.3 -0.0319375 41.1091 0.0958126L30.6727 6.48332C30.4818 6.61107 30.3545 6.8027 30.3545 7.0582V15.6813H25.2636V9.54933C25.2636 9.29383 25.0727 9.03833 24.8182 8.97445L14.3818 5.14194C14.1909 5.07807 14 5.07807 13.8091 5.20582C13.6182 5.33357 13.5545 5.5252 13.5545 5.71682V20.0248H8.01818C7.63636 20.0248 7.38182 20.2803 7.38182 20.6636V43.7225H3.81818V41.9979C5.34545 41.7424 6.49091 40.401 6.49091 38.8041C6.49091 37.6544 5.91818 36.6324 5.02727 36.0575C5.6 35.5465 6.04545 34.78 6.04545 33.9496C6.04545 32.4166 4.77273 31.1391 3.24545 31.1391C1.71818 31.1391 0.445455 32.4166 0.445455 33.9496C0.445455 34.78 0.827273 35.5465 1.46364 36.0575C0.572727 36.6324 0 37.6544 0 38.8041C0 40.401 1.08182 41.6785 2.54545 41.9979V43.7225H1.46364C1.08182 43.7225 0.827273 43.978 0.827273 44.3612C0.827273 44.7445 1.08182 45 1.46364 45H47.2182C47.6 45 47.8545 44.7445 47.8545 44.3612C47.8545 43.978 47.6 43.7225 47.2182 43.7225H46.3909V42.1256C47.8545 41.8062 49 40.4649 49 38.9319ZM3.30909 32.4166C4.13636 32.4166 4.83636 33.1192 4.83636 33.9496C4.83636 34.78 4.13636 35.4187 3.30909 35.4187C2.48182 35.4187 1.78182 34.7161 1.78182 33.8857C1.78182 33.0554 2.48182 32.4166 3.30909 32.4166ZM1.27273 38.7402C1.27273 37.6544 2.16364 36.7601 3.24545 36.7601C4.32727 36.7601 5.21818 37.6544 5.21818 38.7402C5.21818 39.8261 4.32727 40.7204 3.24545 40.7204C2.16364 40.7204 1.27273 39.89 1.27273 38.7402ZM31.6273 7.44145L40.7909 1.82044V43.7225H36.8455V16.3201C36.8455 15.9368 36.5909 15.6813 36.2091 15.6813H31.6273V7.44145ZM35.5727 16.9588V43.7225H32.8364V40.7842C32.8364 39.4429 31.7545 38.357 30.4182 38.357C29.0818 38.357 28 39.4429 28 40.7842V43.7225H25.2636V16.9588H35.5727V16.9588ZM31.5636 43.6586H29.3364V40.7204C29.3364 40.0816 29.8455 39.5706 30.4818 39.5706C31.1182 39.5706 31.6273 40.0816 31.6273 40.7204V43.6586H31.5636ZM14.8909 6.61107L24.0545 9.99645V43.6586H20.2364V20.6636C20.2364 20.2803 19.9818 20.0248 19.6 20.0248H14.8909V6.61107ZM8.71818 21.3023H18.9636V43.7225H15.9727V40.7842C15.9727 39.4429 14.8909 38.357 13.5545 38.357C12.2182 38.357 11.1364 39.4429 11.1364 40.7842V43.7225H8.65455V21.3023H8.71818ZM14.7 43.6586H12.4727V40.7204C12.4727 40.0816 12.9818 39.5706 13.6182 39.5706C14.2545 39.5706 14.7636 40.0816 14.7636 40.7204V43.6586H14.7ZM43.9091 38.9319C43.9091 37.9099 44.7364 37.0156 45.8182 37.0156C46.8364 37.0156 47.7273 37.846 47.7273 38.9319C47.7273 40.0177 46.9 40.8481 45.8182 40.8481C44.8 40.8481 43.9091 39.9539 43.9091 38.9319Z" fill="white"/>
<path d="M11.2636 25.3265C11.6454 25.3265 11.8999 25.071 11.8999 24.6878V23.7935C11.8999 23.4103 11.6454 23.1548 11.2636 23.1548C10.8817 23.1548 10.6272 23.4103 10.6272 23.7935V24.6878C10.6272 25.071 10.8817 25.3265 11.2636 25.3265Z" fill="white"/>
<path d="M13.809 25.3265C14.1908 25.3265 14.4453 25.071 14.4453 24.6878V23.7935C14.4453 23.4103 14.1908 23.1548 13.809 23.1548C13.4272 23.1548 13.1726 23.4103 13.1726 23.7935V24.6878C13.1726 25.071 13.4908 25.3265 13.809 25.3265Z" fill="white"/>
<path d="M16.4183 25.3265C16.8002 25.3265 17.0547 25.071 17.0547 24.6878V23.7935C17.0547 23.4103 16.8002 23.1548 16.4183 23.1548C16.0365 23.1548 15.782 23.4103 15.782 23.7935V24.6878C15.782 25.071 16.0365 25.3265 16.4183 25.3265Z" fill="white"/>
<path d="M11.2636 28.9672C11.6454 28.9672 11.8999 28.7117 11.8999 28.3284V27.4342C11.8999 27.0509 11.6454 26.7954 11.2636 26.7954C10.8817 26.7954 10.6272 27.0509 10.6272 27.4342V28.3284C10.6272 28.6478 10.8817 28.9672 11.2636 28.9672Z" fill="white"/>
<path d="M13.809 28.9672C14.1908 28.9672 14.4453 28.7117 14.4453 28.3284V27.4342C14.4453 27.0509 14.1908 26.7954 13.809 26.7954C13.4272 26.7954 13.1726 27.0509 13.1726 27.4342V28.3284C13.1726 28.6478 13.4908 28.9672 13.809 28.9672Z" fill="white"/>
<path d="M16.4183 28.9672C16.8002 28.9672 17.0547 28.7117 17.0547 28.3284V27.4342C17.0547 27.0509 16.8002 26.7954 16.4183 26.7954C16.0365 26.7954 15.782 27.0509 15.782 27.4342V28.3284C15.782 28.6478 16.0365 28.9672 16.4183 28.9672Z" fill="white"/>
<path d="M11.2636 32.5443C11.6454 32.5443 11.8999 32.2888 11.8999 31.9056V31.0113C11.8999 30.6281 11.6454 30.3726 11.2636 30.3726C10.8817 30.3726 10.6272 30.6281 10.6272 31.0113V31.9056C10.6272 32.2888 10.8817 32.5443 11.2636 32.5443Z" fill="white"/>
<path d="M13.809 32.5443C14.1908 32.5443 14.4453 32.2888 14.4453 31.9056V31.0113C14.4453 30.6281 14.1908 30.3726 13.809 30.3726C13.4272 30.3726 13.1726 30.6281 13.1726 31.0113V31.9056C13.1726 32.2888 13.4908 32.5443 13.809 32.5443Z" fill="white"/>
<path d="M16.4183 32.5443C16.8002 32.5443 17.0547 32.2888 17.0547 31.9056V31.0113C17.0547 30.6281 16.8002 30.3726 16.4183 30.3726C16.0365 30.3726 15.782 30.6281 15.782 31.0113V31.9056C15.782 32.2888 16.0365 32.5443 16.4183 32.5443Z" fill="white"/>
<path d="M11.2636 36.1854C11.6454 36.1854 11.8999 35.9299 11.8999 35.5467V34.6524C11.8999 34.2692 11.6454 34.0137 11.2636 34.0137C10.8817 34.0137 10.6272 34.2692 10.6272 34.6524V35.5467C10.6272 35.866 10.8817 36.1854 11.2636 36.1854Z" fill="white"/>
<path d="M13.809 36.1854C14.1908 36.1854 14.4453 35.9299 14.4453 35.5467V34.6524C14.4453 34.2692 14.1908 34.0137 13.809 34.0137C13.4272 34.0137 13.1726 34.2692 13.1726 34.6524V35.5467C13.1726 35.866 13.4908 36.1854 13.809 36.1854Z" fill="white"/>
<path d="M16.4183 36.1854C16.8002 36.1854 17.0547 35.9299 17.0547 35.5467V34.6524C17.0547 34.2692 16.8002 34.0137 16.4183 34.0137C16.0365 34.0137 15.782 34.2692 15.782 34.6524V35.5467C15.782 35.866 16.0365 36.1854 16.4183 36.1854Z" fill="white"/>
<path d="M33.6637 8.78271C33.2819 8.78271 33.0273 9.03822 33.0273 9.42147V10.3157C33.0273 10.699 33.2819 10.9545 33.6637 10.9545C34.0455 10.9545 34.3001 10.699 34.3001 10.3157V9.42147C34.3001 9.10209 33.9819 8.78271 33.6637 8.78271Z" fill="white"/>
<path d="M36.2091 10.9545C36.5909 10.9545 36.8455 10.699 36.8455 10.3157V9.42147C36.8455 9.03822 36.5909 8.78271 36.2091 8.78271C35.8273 8.78271 35.5728 9.03822 35.5728 9.42147V10.3157C35.5728 10.6351 35.8909 10.9545 36.2091 10.9545Z" fill="white"/>
<path d="M38.8182 10.9545C39.2001 10.9545 39.4546 10.699 39.4546 10.3157V9.42147C39.4546 9.03822 39.2001 8.78271 38.8182 8.78271C38.4364 8.78271 38.1819 9.03822 38.1819 9.42147V10.3157C38.1819 10.6351 38.4364 10.9545 38.8182 10.9545Z" fill="white"/>
<path d="M33.6637 12.3599C33.2819 12.3599 33.0273 12.6154 33.0273 12.9986V13.8929C33.0273 14.2761 33.2819 14.5316 33.6637 14.5316C34.0455 14.5316 34.3001 14.2761 34.3001 13.8929V12.9986C34.3001 12.6154 33.9819 12.3599 33.6637 12.3599Z" fill="white"/>
<path d="M36.8455 13.8929V12.9986C36.8455 12.6154 36.5909 12.3599 36.2091 12.3599C35.8273 12.3599 35.5728 12.6154 35.5728 12.9986V13.8929C35.5728 14.2761 35.8273 14.5316 36.2091 14.5316C36.5909 14.5316 36.8455 14.2122 36.8455 13.8929Z" fill="white"/>
<path d="M38.8182 14.5316C39.2001 14.5316 39.4546 14.2761 39.4546 13.8929V12.9986C39.4546 12.6154 39.2001 12.3599 38.8182 12.3599C38.4364 12.3599 38.1819 12.6154 38.1819 12.9986V13.8929C38.1819 14.2122 38.4364 14.5316 38.8182 14.5316Z" fill="white"/>
<path d="M38.8182 18.1088C39.2001 18.1088 39.4546 17.8533 39.4546 17.47V16.5758C39.4546 16.1925 39.2001 15.937 38.8182 15.937C38.4364 15.937 38.1819 16.1925 38.1819 16.5758V17.47C38.1819 17.7894 38.4364 18.1088 38.8182 18.1088Z" fill="white"/>
<path d="M38.8182 21.6219C39.2001 21.6219 39.4546 21.3664 39.4546 20.9832V20.0889C39.4546 19.7057 39.2001 19.4502 38.8182 19.4502C38.4364 19.4502 38.1819 19.7057 38.1819 20.0889V20.9832C38.1819 21.3664 38.4364 21.6219 38.8182 21.6219Z" fill="white"/>
<path d="M38.8182 25.1986C39.2001 25.1986 39.4546 24.9431 39.4546 24.5599V23.6656C39.4546 23.2824 39.2001 23.0269 38.8182 23.0269C38.4364 23.0269 38.1819 23.2824 38.1819 23.6656V24.5599C38.1819 24.9431 38.4364 25.1986 38.8182 25.1986Z" fill="white"/>
<path d="M38.8182 28.7758C39.2001 28.7758 39.4546 28.5203 39.4546 28.137V27.2428C39.4546 26.8595 39.2001 26.604 38.8182 26.604C38.4364 26.604 38.1819 26.8595 38.1819 27.2428V28.137C38.1819 28.5203 38.4364 28.7758 38.8182 28.7758Z" fill="white"/>
<path d="M38.8182 32.2889C39.2001 32.2889 39.4546 32.0334 39.4546 31.6502V30.7559C39.4546 30.3727 39.2001 30.1172 38.8182 30.1172C38.4364 30.1172 38.1819 30.3727 38.1819 30.7559V31.6502C38.1819 32.0334 38.4364 32.2889 38.8182 32.2889Z" fill="white"/>
<path d="M38.8182 35.8661C39.2001 35.8661 39.4546 35.6106 39.4546 35.2273V34.3331C39.4546 33.9498 39.2001 33.6943 38.8182 33.6943C38.4364 33.6943 38.1819 33.9498 38.1819 34.3331V35.2273C38.1819 35.5467 38.4364 35.8661 38.8182 35.8661Z" fill="white"/>
<path d="M38.8182 39.4427C39.2001 39.4427 39.4546 39.1872 39.4546 38.804V37.9097C39.4546 37.5265 39.2001 37.271 38.8182 37.271C38.4364 37.271 38.1819 37.5265 38.1819 37.9097V38.804C38.1819 39.1234 38.4364 39.4427 38.8182 39.4427Z" fill="white"/>
<path d="M16.9909 11.5293C16.609 11.5293 16.3545 11.7848 16.3545 12.168V12.8707C16.3545 13.2539 16.609 13.5094 16.9909 13.5094C17.3727 13.5094 17.6272 13.2539 17.6272 12.8707V12.168C17.6272 11.7848 17.3727 11.5293 16.9909 11.5293Z" fill="white"/>
<path d="M19.6 13.4455C19.9818 13.4455 20.2364 13.19 20.2364 12.8067V12.1041C20.2364 11.7208 19.9818 11.4653 19.6 11.4653C19.2182 11.4653 18.9636 11.7208 18.9636 12.1041V12.8067C18.9636 13.19 19.2182 13.4455 19.6 13.4455Z" fill="white"/>
<path d="M22.1456 13.4455C22.5275 13.4455 22.782 13.19 22.782 12.8067V12.1041C22.782 11.7208 22.5275 11.4653 22.1456 11.4653C21.7638 11.4653 21.5093 11.7208 21.5093 12.1041V12.8067C21.5093 13.19 21.8275 13.4455 22.1456 13.4455Z" fill="white"/>
<path d="M16.9909 14.2759C16.609 14.2759 16.3545 14.5314 16.3545 14.9146V15.6173C16.3545 16.0005 16.609 16.256 16.9909 16.256C17.3727 16.256 17.6272 16.0005 17.6272 15.6173V14.9146C17.6272 14.5953 17.3727 14.2759 16.9909 14.2759Z" fill="white"/>
<path d="M19.6 16.256C19.9818 16.256 20.2364 16.0005 20.2364 15.6173V14.9146C20.2364 14.5314 19.9818 14.2759 19.6 14.2759C19.2182 14.2759 18.9636 14.5314 18.9636 14.9146V15.6173C18.9636 15.9366 19.2182 16.256 19.6 16.256Z" fill="white"/>
<path d="M22.1456 16.256C22.5275 16.256 22.782 16.0005 22.782 15.6173V14.9146C22.782 14.5314 22.5275 14.2759 22.1456 14.2759C21.7638 14.2759 21.5093 14.5314 21.5093 14.9146V15.6173C21.5093 15.9366 21.8275 16.256 22.1456 16.256Z" fill="white"/>
<path d="M16.9909 17.0864C16.609 17.0864 16.3545 17.3419 16.3545 17.7252V18.4278C16.3545 18.8111 16.609 19.0666 16.9909 19.0666C17.3727 19.0666 17.6272 18.8111 17.6272 18.4278V17.7252C17.6272 17.3419 17.3727 17.0864 16.9909 17.0864Z" fill="white"/>
<path d="M20.2364 18.3643V17.6617C20.2364 17.2784 19.9818 17.0229 19.6 17.0229C19.2182 17.0229 18.9636 17.2784 18.9636 17.6617V18.3643C18.9636 18.7476 19.2182 19.0031 19.6 19.0031C19.9818 19.0031 20.2364 18.7476 20.2364 18.3643Z" fill="white"/>
<path d="M22.1456 19.0031C22.5275 19.0031 22.782 18.7476 22.782 18.3643V17.6617C22.782 17.2784 22.5275 17.0229 22.1456 17.0229C21.7638 17.0229 21.5093 17.2784 21.5093 17.6617V18.3643C21.5093 18.7476 21.8275 19.0031 22.1456 19.0031Z" fill="white"/>
<path d="M22.1456 22.133C22.5275 22.133 22.782 21.8775 22.782 21.4942V20.7916C22.782 20.4083 22.5275 20.1528 22.1456 20.1528C21.7638 20.1528 21.5093 20.4083 21.5093 20.7916V21.4942C21.5093 21.8136 21.8275 22.133 22.1456 22.133Z" fill="white"/>
<path d="M22.1456 24.8791C22.5275 24.8791 22.782 24.6236 22.782 24.2403V23.5377C22.782 23.1544 22.5275 22.8989 22.1456 22.8989C21.7638 22.8989 21.5093 23.1544 21.5093 23.5377V24.2403C21.5093 24.6236 21.8275 24.8791 22.1456 24.8791Z" fill="white"/>
<path d="M22.1456 27.6896C22.5275 27.6896 22.782 27.4341 22.782 27.0508V26.3482C22.782 25.965 22.5275 25.7095 22.1456 25.7095C21.7638 25.7095 21.5093 25.965 21.5093 26.3482V27.0508C21.5093 27.3702 21.8275 27.6896 22.1456 27.6896Z" fill="white"/>
<path d="M22.1456 30.4362C22.5275 30.4362 22.782 30.1807 22.782 29.7974V29.0948C22.782 28.7116 22.5275 28.4561 22.1456 28.4561C21.7638 28.4561 21.5093 28.7116 21.5093 29.0948V29.7974C21.5093 30.1807 21.8275 30.4362 22.1456 30.4362Z" fill="white"/>
<path d="M22.1456 33.2472C22.5275 33.2472 22.782 32.9917 22.782 32.6085V31.9058C22.782 31.5226 22.5275 31.2671 22.1456 31.2671C21.7638 31.2671 21.5093 31.5226 21.5093 31.9058V32.6085C21.5093 32.9278 21.8275 33.2472 22.1456 33.2472Z" fill="white"/>
<path d="M22.1456 35.9938C22.5275 35.9938 22.782 35.7383 22.782 35.355V34.6524C22.782 34.2692 22.5275 34.0137 22.1456 34.0137C21.7638 34.0137 21.5093 34.2692 21.5093 34.6524V35.355C21.5093 35.7383 21.8275 35.9938 22.1456 35.9938Z" fill="white"/>
<path d="M22.1456 38.8043C22.5275 38.8043 22.782 38.5488 22.782 38.1656V37.463C22.782 37.0797 22.5275 36.8242 22.1456 36.8242C21.7638 36.8242 21.5093 37.0797 21.5093 37.463V38.1656C21.5093 38.485 21.8275 38.8043 22.1456 38.8043Z" fill="white"/>
<path d="M27.7455 34.6525H33.2182C33.6 34.6525 33.8546 34.397 33.8546 34.0138C33.8546 33.6305 33.6 33.375 33.2182 33.375H27.7455C27.3637 33.375 27.1091 33.6305 27.1091 34.0138C27.1091 34.397 27.3637 34.6525 27.7455 34.6525Z" fill="white"/>
<path d="M27.7455 31.778H33.2182C33.6 31.778 33.8546 31.5225 33.8546 31.1392C33.8546 30.756 33.6 30.5005 33.2182 30.5005H27.7455C27.3637 30.5005 27.1091 30.756 27.1091 31.1392C27.1091 31.5225 27.3637 31.778 27.7455 31.778Z" fill="white"/>
<path d="M27.7455 28.9035H33.2182C33.6 28.9035 33.8546 28.648 33.8546 28.2647C33.8546 27.8815 33.6 27.626 33.2182 27.626H27.7455C27.3637 27.626 27.1091 27.8815 27.1091 28.2647C27.1091 28.648 27.3637 28.9035 27.7455 28.9035Z" fill="white"/>
<path d="M27.7455 26.0929H33.2182C33.6 26.0929 33.8546 25.8374 33.8546 25.4542C33.8546 25.0709 33.6 24.8154 33.2182 24.8154H27.7455C27.3637 24.8154 27.1091 25.0709 27.1091 25.4542C27.1091 25.8374 27.3637 26.0929 27.7455 26.0929Z" fill="white"/>
<path d="M27.7455 23.2184H33.2182C33.6 23.2184 33.8546 22.9629 33.8546 22.5797C33.8546 22.1964 33.6 21.9409 33.2182 21.9409H27.7455C27.3637 21.9409 27.1091 22.1964 27.1091 22.5797C27.1091 22.9629 27.3637 23.2184 27.7455 23.2184Z" fill="white"/>
<path d="M27.7455 20.3444H33.2182C33.6 20.3444 33.8546 20.0889 33.8546 19.7056C33.8546 19.3224 33.6 19.0669 33.2182 19.0669H27.7455C27.3637 19.0669 27.1091 19.3224 27.1091 19.7056C27.1091 20.0889 27.3637 20.3444 27.7455 20.3444Z" fill="white"/>
</g>
<path d="M7.76229 68.0492H39.4835V79.504H41.2458V62.7623C41.2458 61.793 40.4527 61 39.4835 61H7.76229C6.79303 61 6 61.793 6 62.7623V87.4343C6 88.4036 6.79303 89.1966 7.76229 89.1966H27.1475V87.4343H7.76229V68.0492ZM39.4835 62.7623V66.2869H7.76229V62.7623H39.4835ZM9.52458 64.5246C9.52458 64.0399 9.92109 63.6434 10.4057 63.6434C10.8903 63.6434 11.2869 64.0399 11.2869 64.5246C11.2869 65.0092 10.8903 65.4057 10.4057 65.4057C9.92109 65.4057 9.52458 65.0092 9.52458 64.5246ZM38.5671 86.1478L41.2458 85.4782V83.3018L28.6895 78.4731L26.9977 80.1649L31.8263 92.7212H34.0028L34.6724 90.0425L37.7212 93.0825L41.607 89.1966L38.5671 86.1478ZM33.7208 86.5884L32.7868 90.3068L29.0595 80.5966L29.13 80.5261L38.8402 84.2534L35.1218 85.1874L39.1222 89.1966L37.7212 90.5976L33.7208 86.5884Z" fill="white"/>
<path d="M1063.76 68.0492H1095.48V79.504H1097.25V62.7623C1097.25 61.793 1096.45 61 1095.48 61H1063.76C1062.79 61 1062 61.793 1062 62.7623V87.4343C1062 88.4036 1062.79 89.1966 1063.76 89.1966H1083.15V87.4343H1063.76V68.0492ZM1095.48 62.7623V66.2869H1063.76V62.7623H1095.48ZM1065.52 64.5246C1065.52 64.0399 1065.92 63.6434 1066.41 63.6434C1066.89 63.6434 1067.29 64.0399 1067.29 64.5246C1067.29 65.0092 1066.89 65.4057 1066.41 65.4057C1065.92 65.4057 1065.52 65.0092 1065.52 64.5246ZM1094.57 86.1478L1097.25 85.4782V83.3018L1084.69 78.4731L1083 80.1649L1087.83 92.7212H1090L1090.67 90.0425L1093.72 93.0825L1097.61 89.1966L1094.57 86.1478ZM1089.72 86.5884L1088.79 90.3068L1085.06 80.5966L1085.13 80.5261L1094.84 84.2534L1091.12 85.1874L1095.12 89.1966L1093.72 90.5976L1089.72 86.5884Z" fill="white"/>
<g clip-path="url(#clip1)">
<path d="M305.305 68.3282C306.26 67.2053 306.148 65.521 304.969 64.5666L303.846 63.6121C303.79 63.556 303.79 63.556 303.733 63.4998L305.305 61.7032C305.755 61.1418 305.979 60.4681 305.923 59.7382C305.867 59.0083 305.53 58.3908 304.969 57.8855L303.846 56.931C303.509 56.6503 303.06 56.4257 302.611 56.3696V39.5826C302.611 38.1229 301.432 37 300.028 37H280.602C279.142 37 278.02 38.179 278.02 39.5826V51.4851C277.57 51.0359 276.953 50.5868 276.223 50.3061C274.876 49.7446 273.079 50.1376 271.956 51.2044C271.002 52.1027 270.777 53.394 271.226 54.6291C271.507 55.359 271.788 56.145 271.956 56.9872C272.854 60.6365 273.023 64.6227 272.461 67.7106L272.293 68.6089C271.507 72.8758 270.777 76.862 272.068 79.95C273.191 82.5887 274.651 83.9362 275.942 85.1152L276.055 85.2275C276.335 85.452 276.391 85.845 276.279 86.1819L275.1 89.2698L291.55 93.1437L292.449 90.898C292.561 90.6173 292.785 90.4488 293.066 90.3927C293.908 90.2804 295.2 89.8312 296.603 88.4277C298.344 86.6311 299.916 83.4309 300.533 82.0834C300.758 82.1396 300.982 82.1957 301.263 82.1957C302.049 82.1957 302.779 81.8588 303.284 81.2413L304.519 79.8377C304.969 79.2762 305.193 78.6025 305.137 77.8726C305.081 77.1428 304.744 76.5252 304.183 76.0199L304.07 75.9076L305.362 74.3917C306.316 73.2688 306.204 71.5845 305.025 70.6301L304.07 69.8441L305.305 68.3282ZM298.231 70.2371L299.186 71.0231L297.894 72.539C297.501 73.0443 297.277 73.6057 297.277 74.2233H279.648V43.0635H301.039V56.538C300.982 56.538 300.982 56.5942 300.982 56.5942C300.87 56.6503 300.758 56.7064 300.646 56.7626C300.589 56.8187 300.533 56.8187 300.477 56.8749C300.309 56.9872 300.196 57.0995 300.084 57.2679L297.894 59.7944C296.94 60.9172 297.052 62.6015 298.231 63.556L299.354 64.5104C299.41 64.5666 299.41 64.5666 299.466 64.6227L297.951 66.4193C296.94 67.5422 297.108 69.2826 298.231 70.2371ZM299.186 77.1428L298.849 77.5358C298.4 78.0972 298.175 78.7709 298.231 79.5008C298.231 79.6692 298.287 79.8377 298.344 80.0061C298.344 80.0622 298.4 80.1184 298.4 80.1745C298.4 80.2307 298.456 80.343 298.456 80.3991H280.602C280.041 80.3991 279.648 79.95 279.648 79.4447V75.9638H297.782C297.894 76.1322 298.063 76.3006 298.231 76.469L299.186 77.1428ZM303.902 59.1206C304.126 59.2891 304.239 59.5698 304.295 59.8505C304.295 60.1312 304.239 60.4119 304.07 60.6365L301.881 63.163L301.825 63.2191C301.712 63.3314 301.6 63.3876 301.488 63.4437C301.319 63.4998 301.095 63.556 300.87 63.4998C300.702 63.4437 300.533 63.3876 300.365 63.2753L299.242 62.3208C298.793 61.9278 298.737 61.2541 299.13 60.8611L301.319 58.3346C301.488 58.1662 301.712 57.9978 301.937 57.9978C301.993 57.9978 302.049 57.9978 302.105 57.9978C302.33 57.9978 302.611 58.11 302.779 58.2223L303.902 59.1206ZM280.602 38.6282H300.028C300.589 38.6282 300.982 39.0773 300.982 39.5826V41.3792H279.648V39.5826C279.648 39.0773 280.097 38.6282 280.602 38.6282ZM295.424 87.3048C294.357 88.3715 293.459 88.7084 292.842 88.8207C291.999 88.933 291.27 89.4944 290.933 90.3365L290.596 91.291L277.29 88.0908L277.795 86.7433C278.132 85.7889 277.907 84.7222 277.177 84.0484L277.065 83.9362C275.83 82.8133 274.595 81.6343 273.584 79.3324C272.461 76.7498 273.191 72.932 273.921 68.9458L274.09 68.0475C274.707 64.735 274.483 60.5242 273.584 56.6503C273.36 55.752 273.079 54.9099 272.742 54.1238C272.518 53.4501 272.63 52.8887 273.079 52.4395C273.697 51.8219 274.819 51.5412 275.549 51.8781C277.739 52.8325 277.963 54.9098 277.963 55.1344V79.3885C277.963 80.8483 279.142 81.9711 280.546 81.9711H298.68C298.063 83.3747 296.772 85.9012 295.424 87.3048ZM303.228 78.7148L301.993 80.1184C301.656 80.5114 301.095 80.6237 300.646 80.343C300.589 80.2868 300.533 80.2868 300.477 80.2307L300.253 80.0061C300.028 79.8377 299.916 79.5569 299.86 79.2762C299.86 78.9955 299.916 78.7148 300.084 78.4902L300.646 77.8165C300.702 77.8165 300.758 77.8165 300.758 77.8165C300.814 77.8165 300.926 77.8165 300.982 77.8165C301.039 77.8165 301.095 77.8165 301.151 77.8165H301.263C301.432 77.8165 301.544 77.7603 301.712 77.7603C301.768 77.7603 301.825 77.7042 301.825 77.7042C301.937 77.7042 301.993 77.6481 302.049 77.6481C302.105 77.6481 302.161 77.5919 302.218 77.5919C302.274 77.5919 302.33 77.5358 302.33 77.5358C302.442 77.4796 302.554 77.3673 302.667 77.3112C302.723 77.3112 302.723 77.2551 302.779 77.2551C302.835 77.1989 302.835 77.1989 302.891 77.1428L303.004 77.2551C303.228 77.4235 303.34 77.7042 303.397 77.9849C303.509 78.2656 303.397 78.4902 303.228 78.7148ZM301.151 76.2445C301.039 76.2445 300.926 76.2445 300.87 76.1883C300.814 76.1883 300.758 76.1883 300.702 76.1322C300.589 76.076 300.477 76.0199 300.421 75.9638L299.298 75.0093C298.849 74.6163 298.793 73.9426 299.186 73.5496L300.702 71.753C300.814 71.753 300.926 71.753 301.039 71.753C301.039 71.753 301.039 71.753 301.095 71.753C301.151 71.753 301.207 71.753 301.263 71.753C301.319 71.753 301.375 71.753 301.375 71.753C301.544 71.753 301.656 71.6968 301.768 71.6968C301.825 71.6968 301.825 71.6968 301.881 71.6968C301.937 71.6968 301.993 71.6407 302.049 71.6407C302.105 71.6407 302.161 71.5845 302.161 71.5845C302.218 71.5845 302.274 71.5284 302.274 71.5284C302.442 71.4723 302.554 71.36 302.667 71.2477C302.723 71.1915 302.723 71.1915 302.779 71.1354C302.835 71.0792 302.891 71.0792 302.947 71.0231L303.902 71.8653C304.351 72.2583 304.407 72.932 304.014 73.325L302.554 75.0655L301.881 75.8515C301.825 75.9637 301.712 76.0199 301.544 76.076L301.488 76.1322C301.488 76.1322 301.432 76.1322 301.432 76.1883H301.375C301.319 76.1883 301.263 76.2445 301.151 76.2445ZM304.07 67.2615L302.554 69.0019L301.881 69.7879C301.768 69.9002 301.656 69.9564 301.544 70.0687L301.319 70.1248C301.263 70.1248 301.207 70.1248 301.151 70.1809C301.039 70.1809 300.982 70.1809 300.87 70.1809C300.814 70.1809 300.758 70.1809 300.702 70.1248C300.589 70.0687 300.477 70.0125 300.421 69.9564L299.298 69.0019C298.849 68.6089 298.793 67.9352 299.186 67.5422L301.151 65.2403C301.263 65.2403 301.375 65.2403 301.488 65.1842C301.544 65.1842 301.6 65.1842 301.656 65.1842C301.825 65.128 301.993 65.0719 302.161 65.0157C302.33 64.9596 302.498 64.8473 302.611 64.7911C302.667 64.8473 302.723 64.8473 302.835 64.9034L303.958 65.8579C304.351 66.1386 304.407 66.8123 304.07 67.2615Z" fill="white"/>
<path d="M293.008 39.4702H287.619V40.5369H293.008V39.4702Z" fill="white"/>
<path d="M290.257 79.0518C291.002 79.0518 291.605 78.4486 291.605 77.7044C291.605 76.9602 291.002 76.3569 290.257 76.3569C289.513 76.3569 288.91 76.9602 288.91 77.7044C288.91 78.4486 289.513 79.0518 290.257 79.0518Z" fill="white"/>
<path d="M285.766 44.6919H281.892C281.611 44.6919 281.33 44.9165 281.33 45.2533V49.1273C281.33 49.408 281.555 49.6887 281.892 49.6887H285.766C286.046 49.6887 286.327 49.4641 286.327 49.1273V45.2533C286.327 44.9726 286.103 44.6919 285.766 44.6919ZM285.26 48.5658H282.453V45.7586H285.26V48.5658Z" fill="white"/>
<path d="M292.279 44.6919H288.405C288.124 44.6919 287.843 44.9165 287.843 45.2533V49.1273C287.843 49.408 288.068 49.6887 288.405 49.6887H292.279C292.559 49.6887 292.84 49.4641 292.84 49.1273V45.2533C292.784 44.9726 292.559 44.6919 292.279 44.6919Z" fill="white"/>
<path d="M294.861 49.6887H298.735C299.016 49.6887 299.297 49.4641 299.297 49.1273V45.2533C299.297 44.9726 299.072 44.6919 298.735 44.6919H294.861C294.581 44.6919 294.3 44.9165 294.3 45.2533V49.1273C294.356 49.408 294.581 49.6887 294.861 49.6887Z" fill="white"/>
<path d="M285.766 51.2046H281.892C281.611 51.2046 281.33 51.4292 281.33 51.766V55.6399C281.33 55.9207 281.555 56.2014 281.892 56.2014H285.766C286.046 56.2014 286.327 55.9768 286.327 55.6399V51.766C286.327 51.4292 286.103 51.2046 285.766 51.2046Z" fill="white"/>
<path d="M292.279 51.2046H288.405C288.124 51.2046 287.843 51.4292 287.843 51.766V55.6399C287.843 55.9207 288.068 56.2014 288.405 56.2014H292.279C292.559 56.2014 292.84 55.9768 292.84 55.6399V51.766C292.784 51.4292 292.559 51.2046 292.279 51.2046Z" fill="white"/>
<path d="M299.297 55.6399V51.766C299.297 51.4853 299.072 51.2046 298.735 51.2046H294.861C294.581 51.2046 294.3 51.4292 294.3 51.766V55.6399C294.3 55.9207 294.524 56.2014 294.861 56.2014H298.735C299.072 56.1452 299.297 55.9207 299.297 55.6399Z" fill="white"/>
<path d="M285.766 57.7173H281.892C281.611 57.7173 281.33 57.9419 281.33 58.2787V62.1526C281.33 62.4334 281.555 62.7141 281.892 62.7141H285.766C286.046 62.7141 286.327 62.4895 286.327 62.1526V58.2787C286.327 57.9419 286.103 57.7173 285.766 57.7173Z" fill="white"/>
<path d="M292.279 57.7173H288.405C288.124 57.7173 287.843 57.9419 287.843 58.2787V62.1526C287.843 62.4334 288.068 62.7141 288.405 62.7141H292.279C292.559 62.7141 292.84 62.4895 292.84 62.1526V58.2787C292.784 57.9419 292.559 57.7173 292.279 57.7173Z" fill="white"/>
</g>
<path d="M565.118 61H538.624C536.962 61 535.613 62.3593 535.613 64.0341V70.7575C533.541 71.0609 532 72.845 532 74.9567V81.9532C532 82.2384 532.066 82.5115 532.193 82.7663L533.144 84.6778C533.186 84.7627 533.204 84.8598 533.204 84.9508V91.9474C533.204 92.2811 533.475 92.5542 533.806 92.5542H539.828C540.159 92.5542 540.43 92.2811 540.43 91.9474V88.2398C540.43 87.5783 540.581 86.9291 540.876 86.3404L541.791 84.4957C541.863 84.3562 541.923 84.2105 541.977 84.0649H565.118C566.78 84.0649 568.128 82.7056 568.128 81.0308V64.0341C568.128 62.3593 566.78 61 565.118 61ZM536.817 64.0341C536.817 63.0268 537.624 62.2136 538.624 62.2136H541.634V74.8171C540.845 74.8474 540.171 75.3875 539.972 76.1581L539.28 78.7674C539.214 79.0344 538.973 79.2225 538.696 79.2104C538.491 79.2104 538.298 79.1012 538.19 78.9191L536.817 76.6072V64.0341ZM541.032 82.111V82.5904C541.032 83.0637 540.924 83.5248 540.713 83.9496L539.798 85.7943C539.424 86.5528 539.226 87.3902 539.226 88.2398V91.3406H534.409V84.9508C534.409 84.6656 534.342 84.3926 534.216 84.1377L533.264 82.2263C533.228 82.1413 533.204 82.0442 533.204 81.9532V74.9567C533.204 73.5125 534.21 72.2746 535.613 71.9833V76.7771C535.613 76.8863 535.643 76.9955 535.697 77.0866L537.16 79.5442C537.479 80.0842 538.058 80.418 538.684 80.424C539.503 80.424 540.225 79.8779 540.442 79.083L541.134 76.4737C541.213 76.146 541.538 75.9458 541.863 76.0247C542.188 76.1035 542.387 76.4312 542.309 76.7589C542.309 76.771 542.303 76.7771 542.303 76.7892L541.183 81.0126C541.08 81.3707 541.032 81.7408 541.032 82.111ZM566.924 81.0248C566.924 82.0321 566.117 82.8452 565.118 82.8452H542.839V79.4471L543.465 77.0987C543.651 76.3948 543.411 75.6484 542.839 75.1994V62.2136H565.118C566.117 62.2136 566.924 63.0268 566.924 64.0341V81.0248Z" fill="white"/>
<path d="M539.226 74.3499C540.225 74.3499 541.032 73.5367 541.032 72.5294C541.032 71.5221 540.225 70.709 539.226 70.709C538.226 70.709 537.419 71.5221 537.419 72.5294C537.419 73.5367 538.226 74.3499 539.226 74.3499ZM539.226 71.9226C539.557 71.9226 539.828 72.1957 539.828 72.5294C539.828 72.8632 539.557 73.1362 539.226 73.1362C538.894 73.1362 538.623 72.8632 538.623 72.5294C538.623 72.1957 538.894 71.9226 539.226 71.9226Z" fill="white"/>
<path d="M563.675 78.8255L563.697 78.8891L563.734 78.9447L564.373 79.8852L564.522 80.1045H564.786H565.593H565.754L565.884 80.0111L566.902 79.2829L566.995 79.2167L567.049 79.1168L568.151 77.1083L568.213 76.9959V76.8678V73.7336L568.389 72.1267L569.071 72.4198L570.393 73.3895L571.024 74.916V77.2076V81.3946V82.2293L570.383 83.2154L570.369 83.2361L570.358 83.258L569.936 84.0711L569.906 84.129L569.892 84.1926L569.513 85.8978L569.498 85.9636L569.502 86.0309L569.627 88.5759L569.52 91.3621H564.72L564.648 88.6026L564.648 88.6002L564.606 87.2349L564.603 87.1409L564.566 87.0544L563.765 85.1733L563.76 85.16L563.753 85.147L562.856 83.3391L562.65 81.8423L562.647 81.8199L562.642 81.7979L562.257 80.1291L562.257 80.1291L562.254 80.1157L561.969 79.0218L561.668 77.4218V76.4503L562.354 76.1115L562.845 76.3941L563.675 78.8255Z" fill="#020358" stroke="white"/>
<path d="M570.856 84.6773L571.807 82.7658C571.934 82.511 572 82.2318 572 81.9527V74.9562C572.006 72.8445 570.465 71.0605 568.393 70.757C568.393 70.757 568.039 70.7545 567.689 70.7527L570.856 84.6773ZM570.856 84.6773C570.814 84.7623 570.796 84.8593 570.796 84.9504V91.9469C570.796 92.2806 570.525 92.5537 570.194 92.5537H564.172C563.841 92.5537 563.57 92.2806 563.57 91.9469V88.2393C563.57 87.5779 563.413 86.9286 563.124 86.34L562.209 84.4953C562.137 84.3557 562.077 84.2101 562.023 84.0644H562.004M570.856 84.6773L561.161 79.4527C561.161 79.4527 561.523 80.3022 561.517 80.7209M562.004 84.0644L562.023 84.0604L562.05 84.0542L562.492 83.9548C562.488 83.9347 562.483 83.9147 562.479 83.8946C562.472 83.8629 562.464 83.8311 562.457 83.7994M562.004 84.0644V83.5644H562.023H562.37L562.457 83.7994M562.004 84.0644L562.003 84.0574C561.756 82.9613 561.505 81.8411 561.517 80.7209M562.457 83.7994L562.491 83.89C562.541 84.0252 562.594 84.1504 562.653 84.2654L562.657 84.273L562.657 84.273L563.572 86.1177L563.573 86.1196C563.895 86.7744 564.07 87.4989 564.07 88.2393V91.9469C564.07 92.0082 564.121 92.0537 564.172 92.0537H570.194C570.245 92.0537 570.296 92.0082 570.296 91.9469V84.9504C570.296 84.7979 570.325 84.6219 570.408 84.4551L570.408 84.4545L571.359 82.5436M562.457 83.7994C562.221 82.7463 562.006 81.7318 562.017 80.727M571.359 82.5436L571.807 82.7658L571.36 82.543M571.359 82.5436L571.36 82.543M571.359 82.5436L571.36 82.543M571.36 82.543C571.452 82.3559 571.5 82.1529 571.5 81.9527V74.9562V74.9548C571.505 73.1024 570.162 71.5381 568.354 71.2568L568.353 71.2568L568.254 71.2561L567.928 71.254C567.851 71.2535 567.77 71.2531 567.689 71.2527V76.6067V76.7445L567.618 76.8628L566.24 79.1744C566.045 79.5014 565.7 79.708 565.31 79.7099C564.815 79.7184 564.361 79.3879 564.236 78.8919L563.544 76.2859L563.544 76.2834L563.544 76.2834C563.407 75.7574 562.959 75.3762 562.428 75.322L561.408 75.6507C561.045 75.9792 560.89 76.4904 561.018 76.9758C561.018 76.9759 561.018 76.976 561.019 76.9761L561.636 79.2915L561.64 79.3002C561.65 79.3264 561.665 79.3637 561.683 79.4095C561.719 79.5008 561.767 79.6277 561.815 79.7695C561.902 80.0265 562.021 80.4201 562.017 80.727M562.017 80.727C562.017 80.7274 562.017 80.7277 562.017 80.7281L561.517 80.7209M562.017 80.727C562.017 80.7268 562.017 80.7265 562.017 80.7263L561.517 80.7209M571.196 82.4352L571.189 82.4486L570.238 84.3595L571.196 82.4352ZM571.196 82.4352L571.202 82.4215M571.196 82.4352L571.202 82.4215M571.202 82.4215C571.257 82.2923 571.302 82.1339 571.302 81.9527V74.9562C571.302 73.2766 570.131 71.833 568.495 71.4932L567.893 71.3683V71.9828V76.7766C567.893 76.7973 567.889 76.8163 567.875 76.8439L566.416 79.294L566.415 79.2954C566.185 79.6847 565.769 79.925 565.318 79.9296C564.73 79.9338 564.205 79.5364 564.047 78.9586C564.047 78.9581 564.047 78.9575 564.046 78.957L563.356 76.3562C563.211 75.7661 562.62 75.4001 562.025 75.5443C561.444 75.6853 561.088 76.2581 561.201 76.835C561.202 76.8432 561.203 76.852 561.205 76.8613C561.21 76.8939 561.218 76.9234 561.227 76.9495L562.346 81.147L562.347 81.1482C562.431 81.4632 562.474 81.7896 562.474 82.1166V82.5959C562.474 83.1466 562.6 83.6838 562.845 84.1774L563.76 86.0207C563.76 86.0209 563.76 86.0212 563.76 86.0214C564.1 86.7127 564.28 87.4684 564.28 88.2393V91.3401V91.8401H564.78H569.597H570.097M571.202 82.4215L570.097 91.8401M570.097 91.8401V91.3401M570.097 91.8401V91.3401M570.097 91.3401V84.9504C570.097 84.7502 570.145 84.5472 570.238 84.36L570.097 91.3401Z" fill="#020358" stroke="white"/>
<mask id="path-72-inside-1" fill="white">
<path d="M561.168 75.2048C561.312 75.1198 561.499 75.0288 561.728 74.9499C561.974 74.871 562.197 74.8346 562.372 74.8164"/>
</mask>
<path d="M561.168 75.2048C561.312 75.1198 561.499 75.0288 561.728 74.9499C561.974 74.871 562.197 74.8346 562.372 74.8164" fill="#020358"/>
<path d="M561.728 74.9499L561.423 73.9974L561.412 74.0008L561.402 74.0045L561.728 74.9499ZM561.674 76.0668C561.764 76.0142 561.89 75.9516 562.054 75.8953L561.402 74.0045C561.107 74.106 560.86 74.2254 560.661 74.3427L561.674 76.0668ZM562.032 75.9025C562.198 75.8494 562.351 75.824 562.476 75.811L562.268 73.8218C562.044 73.8452 561.751 73.8926 561.423 73.9974L562.032 75.9025Z" fill="white" mask="url(#path-72-inside-1)"/>
<path d="M825.937 63C820.379 63 815.874 66.3347 815.874 70.4291C815.874 72.5397 817.053 74.4814 819.116 75.9165C818.863 76.3808 818.526 76.8874 818.105 77.3939C817.642 77.9426 817.6 78.7024 818.021 79.2934C818.316 79.7155 818.779 79.9688 819.284 79.9688C819.453 79.9688 819.663 79.9265 819.832 79.8843C821.137 79.42 822.737 78.7024 824.589 77.816C825.053 77.8582 825.474 77.9004 825.937 77.9004C831.495 77.9004 836 74.5658 836 70.4713C836 66.3769 831.495 63 825.937 63ZM825.937 76.212C825.474 76.212 824.968 76.1698 824.505 76.1276C824.337 76.1276 824.211 76.1276 824.042 76.212C822.147 77.1406 820.547 77.8582 819.284 78.407C820.042 77.5205 820.547 76.6341 820.842 75.8321C820.968 75.4522 820.8 75.0723 820.463 74.8612C818.526 73.7638 817.432 72.1175 817.432 70.3869C817.432 67.1789 821.221 64.5618 825.895 64.5618C830.568 64.5618 834.358 67.1789 834.358 70.3869C834.358 73.5949 830.611 76.212 825.937 76.212Z" fill="white"/>
<path d="M818.063 82.037H816.968V81.1928C816.968 79.1245 815.284 77.4783 813.263 77.4783H808.842V75.03C808.842 74.6079 808.505 74.228 808.042 74.228C807.579 74.228 807.242 74.6079 807.242 75.03V77.4783H802.821C800.758 77.4783 799.116 79.1667 799.116 81.1928V82.037H798.021C796.926 82.037 796 82.9657 796 84.0632V86.8913C796 87.9888 796.926 88.9174 798.021 88.9174H799.116V89.7616C799.116 91.83 800.758 93.4762 802.821 93.4762H813.263C815.326 93.4762 816.968 91.7877 816.968 89.7616V88.9174H818.063C819.158 88.9174 820.084 87.9888 820.084 86.8913V84.0632C820.084 82.9235 819.158 82.037 818.063 82.037ZM799.116 87.3134H798.021C797.768 87.3134 797.6 87.1023 797.6 86.8913V84.0632C797.6 83.8099 797.768 83.641 798.021 83.641H799.116V87.3134ZM815.368 89.7616C815.368 90.9435 814.442 91.8722 813.263 91.8722H802.821C801.642 91.8722 800.716 90.9435 800.716 89.7616V81.1506C800.716 79.9687 801.642 79.0401 802.821 79.0401H813.263C814.442 79.0401 815.368 79.9687 815.368 81.1506V89.7616ZM818.484 86.8913C818.484 87.1445 818.274 87.3134 818.063 87.3134H816.968V83.641H818.063C818.316 83.641 818.484 83.8521 818.484 84.0632V86.8913Z" fill="white"/>
<path d="M804.842 84.9076C805.772 84.9076 806.526 84.1517 806.526 83.2192C806.526 82.2867 805.772 81.5308 804.842 81.5308C803.912 81.5308 803.158 82.2867 803.158 83.2192C803.158 84.1517 803.912 84.9076 804.842 84.9076Z" fill="white"/>
<path d="M811.2 84.9076C812.13 84.9076 812.884 84.1517 812.884 83.2192C812.884 82.2867 812.13 81.5308 811.2 81.5308C810.27 81.5308 809.516 82.2867 809.516 83.2192C809.516 84.1517 810.27 84.9076 811.2 84.9076Z" fill="white"/>
<path d="M811.495 86.5538C811.074 86.3849 810.611 86.5538 810.442 86.9337C810.105 87.6512 809.137 88.1578 808.042 88.1578C806.947 88.1578 805.979 87.6512 805.642 86.9337C805.474 86.5115 804.968 86.3427 804.589 86.5538C804.168 86.7226 804 87.2291 804.211 87.609C804.8 88.9176 806.358 89.7618 808.042 89.7618C809.768 89.7618 811.284 88.8754 811.874 87.609C812.084 87.1869 811.874 86.7226 811.495 86.5538Z" fill="white"/>
<path d="M821.348 72.0332C822.254 72.0332 822.99 71.2961 822.99 70.3869C822.99 69.4778 822.254 68.7407 821.348 68.7407C820.441 68.7407 819.705 69.4778 819.705 70.3869C819.705 71.2961 820.441 72.0332 821.348 72.0332Z" fill="white"/>
<path d="M825.937 72.0332C826.844 72.0332 827.579 71.2961 827.579 70.3869C827.579 69.4778 826.844 68.7407 825.937 68.7407C825.03 68.7407 824.295 69.4778 824.295 70.3869C824.295 71.2961 825.03 72.0332 825.937 72.0332Z" fill="white"/>
<path d="M830.568 72.0332C831.475 72.0332 832.21 71.2961 832.21 70.3869C832.21 69.4778 831.475 68.7407 830.568 68.7407C829.661 68.7407 828.926 69.4778 828.926 70.3869C828.926 71.2961 829.661 72.0332 830.568 72.0332Z" fill="white"/>
<defs>
<clipPath id="clip0">
<rect width="49" height="45" fill="white"/>
</clipPath>
<clipPath id="clip1">
<rect width="35" height="56.1437" fill="white" transform="translate(271 37)"/>
</clipPath>
</defs>
</svg>
