<svg width="50" height="88" viewBox="0 0 50 88" fill="none" xmlns="http://www.w3.org/2000/svg">
<path d="M30.5 2.5L19 0.5L10.5 4.5L4.5 13L0.5 49.5L9.5 81L30 86.5L36.5 84.5L42 76L47.5 55.5V44.5L49.5 35L44 13L30.5 2.5Z" fill="#FCFAD4"/>
<path d="M42 67C42.1667 65.6667 42.4 59.8 42 59L46.5 56L41.5 44.5V40L45.5 40.5L46.5 35.5L45.5 22.5L41.5 12L30 4.5V2.5L45.5 13L47.5 21.5L50 35.5L45.5 44.5L46.5 56L44.5 59L45.5 63.5L40.5 81L37 86L30 87.5L9.5 81.5V78.5L33 85L37 82.5L39.5 73.5L40.5 70.5L39.5 68L42 67Z" fill="#65FADE"/>
<path d="M26.5 41L22.5 42.5L24.5 44.5H28.5L29.5 42.5L28.5 41H26.5Z" fill="#F1A8D9"/>
<path d="M43 41L42 42.5L43 43.5H45.5V41H43Z" fill="#F1A8D9"/>
<path d="M26.5 41L22.5 42.5L24.5 44.5H28.5L29.5 42.5L28.5 41H26.5Z" stroke="black"/>
<path d="M43 41L42 42.5L43 43.5H45.5V41H43Z" stroke="black"/>
<path d="M27.5 39L21.5 42.5L26 41H29L31 39.5L27.5 39Z" fill="#A33A59"/>
<path d="M43 40L42 42L43.5 41H45.5V40H43Z" fill="#A33A59"/>
<path d="M9.5 4L19.5 0V1L14.5 9.5L10 36L7 51.5L11.5 78.5L9.5 81.5L8 81L7 77.5L0 50L4.5 12.5L9.5 4Z" fill="#65FADE"/>
<path d="M14.5 7.5L19.5 1L20.5 2L16 7.5L13 36L9 50L12 76.5L12.5 81.5L11 81L10.5 76.5L6.5 50L9 36L14.5 7.5Z" fill="#F1A8D9"/>
<path d="M40.5 70.5L41.5 67H37L30.5 68L36 70L40.5 70.5Z" fill="#A33A59"/>
</svg>
