<svg width="60" height="217" viewBox="0 0 60 217" fill="none" xmlns="http://www.w3.org/2000/svg">
<path d="M34.5869 196.614L35.3851 184.109H40.7062V196.614H34.5869Z" fill="#D5AB81"/>
<path d="M6.91724 206.724L7.98145 192.889L13.0365 192.091V204.595L10.908 207.788L6.91724 206.724Z" fill="#D5AB81"/>
<path d="M32.9907 199.806L34.587 195.815H40.7063L44.431 198.742L52.6787 200.87L53.7429 203.797L52.6787 205.925L46.0274 205.127H39.9081L32.9907 203.797V199.806Z" fill="#212123"/>
<path d="M11.1743 205.925L6.9174 205.127L5.58713 207.256L0 212.577C0.177369 213.286 0.532108 216.035 0.532108 216.035C-0.81403 216.035 4.78897 217.1 6.9174 216.568L10.11 214.705L13.5687 210.448L13.0366 204.329L11.1743 205.925Z" fill="#212123"/>
<path d="M36.7153 111.743L37.5134 94.9813L50.8161 91.2566V105.357L48.6877 138.082V147.128L42.5685 184.375C41.5043 185.351 39.3758 187.355 39.3758 187.568C39.3758 187.781 36.0058 185.528 34.3208 184.375L35.119 158.036L39.3758 146.33L36.7153 111.743Z" fill="#293A53"/>
<path d="M21.0182 113.871L24.4769 91.2566L43.1007 92.0548V95.5135L37.7796 106.422L27.9356 135.954C26.3393 143.048 23.0402 157.344 22.6145 157.77C22.0824 158.302 15.4311 190.761 14.6329 191.825C13.9944 192.676 11.8837 193.776 10.9082 194.219L6.38525 190.761L9.31185 158.568L13.0366 150.054L21.0182 113.871Z" fill="#293A53"/>
<path d="M55.3391 95.5133L54.541 82.4766L52.1465 57.7336V87.2656V94.7151L51.0823 97.9078V109.348L54.541 108.018L55.3391 95.5133Z" fill="#D5AB81"/>
<path d="M6.65112 78.2198L11.174 61.1924H18.6235L14.3667 79.018L15.963 98.4399L19.4217 102.963V108.018C18.7122 109.259 17.1869 111.849 16.7612 112.275C16.3355 112.7 14.9875 111.388 14.3667 110.678H11.174C10.5355 110.678 9.31166 109.792 8.77955 109.348V101.899L6.65112 78.2198Z" fill="#D5AB81"/>
<path d="M54.009 42.5686L47.0916 35.9172C47.801 41.6817 49.2732 53.4236 49.486 54.275C49.6989 55.1263 51.5258 57.4676 52.4126 58.5318L54.009 51.0823V42.5686Z" fill="#004225"/>
<path d="M19.1561 36.7155L26.6056 31.9265L26.0735 52.9448L19.1561 64.6511L9.57812 61.4585L14.3671 43.3668L19.1561 36.7155Z" fill="#004225"/>
<path d="M23.9446 71.3025V56.4035L25.541 52.4127L26.3391 31.9265L45.495 33.7889L51.6142 41.2384L52.6785 56.4035V80.6144L51.6142 91.5226L38.0455 94.4492L23.1465 91.5226L23.9446 80.6144V71.3025Z" fill="#04512C"/>
<path d="M22.6145 25.2752L25.275 19.156L27.1374 13.8349L29.798 15.1652V19.422L31.6603 15.6973L29.798 12.7707L34.5869 5.58723L38.3117 3.72485L48.9538 5.58723L52.9446 11.7065L51.8804 16.4954L53.7428 19.422L52.9446 25.8073C53.7428 26.8715 55.4455 29.1596 55.8712 29.7981C56.2969 30.4367 54.4523 29.5321 53.4767 29L51.8804 25.2752L51.0823 31.6605L48.9538 32.7247L49.4859 30.8623V29L46.2933 32.7247L45.4951 32.1926L44.4309 32.9908L43.1006 32.1926H40.9722L39.908 34.055C38.7551 33.9663 36.3961 33.7889 36.1832 33.7889C35.9704 33.7889 35.0303 31.8379 34.5869 30.8623L32.1924 31.6605L30.8622 30.5963L29.2658 31.6605L29.798 28.4679L28.2016 30.5963L29.798 23.9449L25.275 29.7981L26.3393 27.4036L22.8806 30.5963L22.6145 25.2752Z" fill="#2E2526"/>
<path d="M32.9907 32.7246L34.321 26.0732L42.0366 27.6696L41.5044 33.5227L40.1742 34.587L32.9907 32.7246Z" fill="#D5AB81"/>
<path d="M35.6511 5.85322L43.8988 4.52295L49.2199 7.44954L51.3483 14.1009L49.2199 18.6238L46.5594 27.9357L40.1741 30.5962H37.5135L31.6603 25.0091L31.3943 13.3027L35.6511 5.85322Z" fill="#D5AB81"/>
<path d="M32.7246 21.0183L31.3943 19.9541L31.6603 25.0091L33.7888 27.1376L38.5777 30.5963L42.0364 30.3302L46.5594 27.9357L47.3575 25.2752L42.8346 26.3394L42.0364 27.9357L39.3759 27.1376L36.1833 26.8715V25.5412C35.6511 25.2752 34.5337 24.6899 34.3209 24.477C34.108 24.2642 33.434 22.0825 32.7246 21.0183Z" fill="#B69270"/>
<path d="M30.0641 13.8347L32.1925 15.431V19.954H30.3302L28.4678 17.2934V13.8347H30.0641Z" fill="#D5AB81"/>
<path d="M42.3025 5.05502L43.6328 4.78897L44.4309 7.71556L42.8346 11.1743L45.4951 7.98161L45.7612 5.05502L46.5594 6.65134L48.9538 7.71556L48.6878 14.633L49.752 11.1743L51.0823 14.1009L49.752 18.0917L48.9538 22.3485L51.6144 17.0274V21.5504L53.2107 19.4219L54.0089 25.0091L56.1373 14.633V13.0366L57.7336 15.9632V20.4861L59.0639 17.5596L58.2657 12.2385L53.2107 6.38529L57.7336 9.31188L54.807 6.38529L50.5502 3.99081L48.6878 1.59632L52.6786 3.4587L48.9538 0.798161L47.0915 1.59632L45.7612 1.33027C45.4951 1.33027 44.8566 1.17064 44.4309 0.532108C44.0052 -0.106422 43.012 0.798161 42.5686 1.33027L41.5043 0L39.1099 0.532108H35.119L30.8622 2.92659L25.8072 4.78897L29.2659 3.99081L26.8714 6.38529L25.009 8.77978L19.4219 13.0366L25.009 9.57794L23.9448 12.2385L21.5503 19.4219L25.8072 13.5687L22.0824 19.4219C21.905 20.9296 21.5503 24.0513 21.5503 24.4769C21.5503 24.9026 27.6695 14.633 30.3301 14.1009L31.3943 15.9632L32.9906 17.8256L33.5227 12.2385L37.2475 7.71556L36.4493 11.1743L40.9722 5.58713L41.5043 10.3761L42.3025 5.05502Z" fill="#2E2526"/>
<path d="M41.5047 33.789L38.5781 30.5964L41.7708 30.3303L41.5047 33.789Z" fill="#715841"/>
</svg>
