<svg width="153" height="251" viewBox="0 0 153 251" fill="none" xmlns="http://www.w3.org/2000/svg">
<g filter="url(#filter0_d)">
<path d="M84.5869 196.614L85.3851 184.109H90.7062V196.614H84.5869Z" fill="#D5AB81"/>
<path d="M56.9172 206.724L57.9815 192.889L63.0365 192.091V204.595L60.908 207.788L56.9172 206.724Z" fill="#D5AB81"/>
<path d="M82.9907 199.806L84.587 195.815H90.7063L94.431 198.742L102.679 200.87L103.743 203.797L102.679 205.925L96.0274 205.127H89.9081L82.9907 203.797V199.806Z" fill="#212123"/>
<path d="M61.1743 205.925L56.9174 205.127L55.5871 207.256L50 212.577C50.1774 213.286 50.5321 216.035 50.5321 216.035C49.186 216.035 54.789 217.1 56.9174 216.568L60.11 214.705L63.5687 210.448L63.0366 204.329L61.1743 205.925Z" fill="#212123"/>
<path d="M86.7153 111.743L87.5134 94.9813L100.816 91.2566V105.357L98.6877 138.082V147.128L92.5685 184.375C91.5043 185.351 89.3758 187.355 89.3758 187.568C89.3758 187.781 86.0058 185.528 84.3208 184.375L85.119 158.036L89.3758 146.33L86.7153 111.743Z" fill="#293A53"/>
<path d="M71.0182 113.871L74.4769 91.2566L93.1007 92.0548V95.5135L87.7796 106.422L77.9356 135.954C76.3393 143.048 73.0402 157.344 72.6145 157.77C72.0824 158.302 65.4311 190.761 64.6329 191.825C63.9944 192.676 61.8837 193.776 60.9082 194.219L56.3853 190.761L59.3118 158.568L63.0366 150.054L71.0182 113.871Z" fill="#293A53"/>
<path d="M105.339 95.5133L104.541 82.4766L102.146 57.7336V87.2656V94.7151L101.082 97.9078V109.348L104.541 108.018L105.339 95.5133Z" fill="#D5AB81"/>
<path d="M56.6511 78.2198L61.174 61.1924H68.6235L64.3667 79.018L65.963 98.4399L69.4217 102.963V108.018C68.7122 109.259 67.1869 111.849 66.7612 112.275C66.3355 112.7 64.9875 111.388 64.3667 110.678H61.174C60.5355 110.678 59.3117 109.792 58.7796 109.348V101.899L56.6511 78.2198Z" fill="#D5AB81"/>
<path d="M104.009 42.5686L97.0916 35.9172C97.801 41.6817 99.2732 53.4236 99.486 54.275C99.6989 55.1263 101.526 57.4676 102.413 58.5318L104.009 51.0823V42.5686Z" fill="#004225"/>
<path d="M69.1561 36.7155L76.6056 31.9265L76.0735 52.9448L69.1561 64.6511L59.5781 61.4585L64.3671 43.3668L69.1561 36.7155Z" fill="#004225"/>
<path d="M73.9446 71.3025V56.4035L75.541 52.4127L76.3391 31.9265L95.495 33.7889L101.614 41.2384L102.678 56.4035V80.6144L101.614 91.5226L88.0455 94.4492L73.1465 91.5226L73.9446 80.6144V71.3025Z" fill="#04512C"/>
<path d="M72.6145 25.2752L75.275 19.156L77.1374 13.8349L79.798 15.1652V19.422L81.6603 15.6973L79.798 12.7707L84.5869 5.58723L88.3117 3.72485L98.9538 5.58723L102.945 11.7065L101.88 16.4954L103.743 19.422L102.945 25.8073C103.743 26.8715 105.446 29.1596 105.871 29.7981C106.297 30.4367 104.452 29.5321 103.477 29L101.88 25.2752L101.082 31.6605L98.9538 32.7247L99.4859 30.8623V29L96.2933 32.7247L95.4951 32.1926L94.4309 32.9908L93.1006 32.1926H90.9722L89.908 34.055C88.7551 33.9663 86.3961 33.7889 86.1832 33.7889C85.9704 33.7889 85.0303 31.8379 84.5869 30.8623L82.1924 31.6605L80.8622 30.5963L79.2658 31.6605L79.798 28.4679L78.2016 30.5963L79.798 23.9449L75.275 29.7981L76.3393 27.4036L72.8806 30.5963L72.6145 25.2752Z" fill="#2E2526"/>
<path d="M82.9907 32.7246L84.321 26.0732L92.0366 27.6696L91.5044 33.5227L90.1742 34.587L82.9907 32.7246Z" fill="#D5AB81"/>
<path d="M85.6511 5.85322L93.8988 4.52295L99.2199 7.44954L101.348 14.1009L99.2199 18.6238L96.5594 27.9357L90.1741 30.5962H87.5135L81.6603 25.0091L81.3943 13.3027L85.6511 5.85322Z" fill="#D5AB81"/>
<path d="M82.7246 21.0183L81.3943 19.9541L81.6603 25.0091L83.7888 27.1376L88.5777 30.5963L92.0364 30.3302L96.5594 27.9357L97.3575 25.2752L92.8346 26.3394L92.0364 27.9357L89.3759 27.1376L86.1833 26.8715V25.5412C85.6511 25.2752 84.5337 24.6899 84.3209 24.477C84.108 24.2642 83.434 22.0825 82.7246 21.0183Z" fill="#B69270"/>
<path d="M80.0641 13.8347L82.1925 15.431V19.954H80.3302L78.4678 17.2934V13.8347H80.0641Z" fill="#D5AB81"/>
<path d="M92.3025 5.05502L93.6328 4.78897L94.4309 7.71556L92.8346 11.1743L95.4951 7.98161L95.7612 5.05502L96.5594 6.65134L98.9538 7.71556L98.6878 14.633L99.752 11.1743L101.082 14.1009L99.752 18.0917L98.9538 22.3485L101.614 17.0274V21.5504L103.211 19.4219L104.009 25.0091L106.137 14.633V13.0366L107.734 15.9632V20.4861L109.064 17.5596L108.266 12.2385L103.211 6.38529L107.734 9.31188L104.807 6.38529L100.55 3.99081L98.6878 1.59632L102.679 3.4587L98.9538 0.798161L97.0915 1.59632L95.7612 1.33027C95.4951 1.33027 94.8566 1.17064 94.4309 0.532108C94.0052 -0.106422 93.012 0.798161 92.5686 1.33027L91.5043 0L89.1099 0.532108H85.119L80.8622 2.92659L75.8072 4.78897L79.2659 3.99081L76.8714 6.38529L75.009 8.77978L69.4219 13.0366L75.009 9.57794L73.9448 12.2385L71.5503 19.4219L75.8072 13.5687L72.0824 19.4219C71.905 20.9296 71.5503 24.0513 71.5503 24.4769C71.5503 24.9026 77.6695 14.633 80.3301 14.1009L81.3943 15.9632L82.9906 17.8256L83.5227 12.2385L87.2475 7.71556L86.4493 11.1743L90.9722 5.58713L91.5043 10.3761L92.3025 5.05502Z" fill="#2E2526"/>
<path d="M91.5047 33.789L88.5781 30.5964L91.7708 30.3303L91.5047 33.789Z" fill="#715841"/>
</g>
<defs>
<filter id="filter0_d" x="46" y="0" width="67.0639" height="224.717" filterUnits="userSpaceOnUse" color-interpolation-filters="sRGB">
<feFlood flood-opacity="0" result="BackgroundImageFix"/>
<feColorMatrix in="SourceAlpha" type="matrix" values="0 0 0 0 0 0 0 0 0 0 0 0 0 0 0 0 0 0 127 0"/>
<feOffset dy="4"/>
<feGaussianBlur stdDeviation="2"/>
<feColorMatrix type="matrix" values="0 0 0 0 0 0 0 0 0 0 0 0 0 0 0 0 0 0 0.25 0"/>
<feBlend mode="normal" in2="BackgroundImageFix" result="effect1_dropShadow"/>
<feBlend mode="normal" in="SourceGraphic" in2="effect1_dropShadow" result="shape"/>
</filter>
</defs>
</svg>
