<svg width="478" height="75" viewBox="0 0 478 75" fill="none" xmlns="http://www.w3.org/2000/svg">
<circle cx="169.5" cy="11.5" r="11.5" fill="#D8E5FF"/>
<circle cx="169.5" cy="63.5" r="11.5" fill="#477BD0"/>
<circle cx="169.5" cy="63.5" r="8.5" fill="white"/>
<circle cx="169.5" cy="37.5" r="11.5" fill="white" fill-opacity="0.4"/>
<path d="M201.636 12.756H196.956L195.948 15H195.024L198.864 6.6H199.74L203.58 15H202.644L201.636 12.756ZM201.312 12.036L199.296 7.524L197.28 12.036H201.312ZM204.79 6.096H205.642V15H204.79V6.096ZM208.012 8.688H208.864V15H208.012V8.688ZM208.444 7.308C208.268 7.308 208.12 7.248 208 7.128C207.88 7.008 207.82 6.864 207.82 6.696C207.82 6.536 207.88 6.396 208 6.276C208.12 6.156 208.268 6.096 208.444 6.096C208.62 6.096 208.768 6.156 208.888 6.276C209.008 6.388 209.068 6.524 209.068 6.684C209.068 6.86 209.008 7.008 208.888 7.128C208.768 7.248 208.62 7.308 208.444 7.308ZM216.539 8.688L213.731 15H212.855L210.059 8.688H210.947L213.311 14.064L215.699 8.688H216.539ZM223.059 12.108H217.779C217.827 12.764 218.079 13.296 218.535 13.704C218.991 14.104 219.567 14.304 220.263 14.304C220.655 14.304 221.015 14.236 221.343 14.1C221.671 13.956 221.955 13.748 222.195 13.476L222.675 14.028C222.395 14.364 222.043 14.62 221.619 14.796C221.203 14.972 220.743 15.06 220.239 15.06C219.591 15.06 219.015 14.924 218.511 14.652C218.015 14.372 217.627 13.988 217.347 13.5C217.067 13.012 216.927 12.46 216.927 11.844C216.927 11.228 217.059 10.676 217.323 10.188C217.595 9.7 217.963 9.32 218.427 9.048C218.899 8.776 219.427 8.64 220.011 8.64C220.595 8.64 221.119 8.776 221.583 9.048C222.047 9.32 222.411 9.7 222.675 10.188C222.939 10.668 223.071 11.22 223.071 11.844L223.059 12.108ZM220.011 9.372C219.403 9.372 218.891 9.568 218.475 9.96C218.067 10.344 217.835 10.848 217.779 11.472H222.255C222.199 10.848 221.963 10.344 221.547 9.96C221.139 9.568 220.627 9.372 220.011 9.372Z" fill="white"/>
<path d="M196.368 32.6H199.788C200.676 32.6 201.46 32.78 202.14 33.14C202.82 33.492 203.348 33.988 203.724 34.628C204.1 35.26 204.288 35.984 204.288 36.8C204.288 37.616 204.1 38.344 203.724 38.984C203.348 39.616 202.82 40.112 202.14 40.472C201.46 40.824 200.676 41 199.788 41H196.368V32.6ZM199.74 40.232C200.476 40.232 201.12 40.088 201.672 39.8C202.224 39.504 202.652 39.1 202.956 38.588C203.26 38.068 203.412 37.472 203.412 36.8C203.412 36.128 203.26 35.536 202.956 35.024C202.652 34.504 202.224 34.1 201.672 33.812C201.12 33.516 200.476 33.368 199.74 33.368H197.256V40.232H199.74ZM211.598 38.108H206.318C206.366 38.764 206.618 39.296 207.074 39.704C207.53 40.104 208.106 40.304 208.802 40.304C209.194 40.304 209.554 40.236 209.882 40.1C210.21 39.956 210.494 39.748 210.734 39.476L211.214 40.028C210.934 40.364 210.582 40.62 210.158 40.796C209.742 40.972 209.282 41.06 208.778 41.06C208.13 41.06 207.554 40.924 207.05 40.652C206.554 40.372 206.166 39.988 205.886 39.5C205.606 39.012 205.466 38.46 205.466 37.844C205.466 37.228 205.598 36.676 205.862 36.188C206.134 35.7 206.502 35.32 206.966 35.048C207.438 34.776 207.966 34.64 208.55 34.64C209.134 34.64 209.658 34.776 210.122 35.048C210.586 35.32 210.95 35.7 211.214 36.188C211.478 36.668 211.61 37.22 211.61 37.844L211.598 38.108ZM208.55 35.372C207.942 35.372 207.43 35.568 207.014 35.96C206.606 36.344 206.374 36.848 206.318 37.472H210.794C210.738 36.848 210.502 36.344 210.086 35.96C209.678 35.568 209.166 35.372 208.55 35.372ZM215.376 34.64C216.2 34.64 216.832 34.848 217.272 35.264C217.712 35.672 217.932 36.28 217.932 37.088V41H217.116V40.016C216.924 40.344 216.64 40.6 216.264 40.784C215.896 40.968 215.456 41.06 214.944 41.06C214.24 41.06 213.68 40.892 213.264 40.556C212.848 40.22 212.64 39.776 212.64 39.224C212.64 38.688 212.832 38.256 213.216 37.928C213.608 37.6 214.228 37.436 215.076 37.436H217.08V37.052C217.08 36.508 216.928 36.096 216.624 35.816C216.32 35.528 215.876 35.384 215.292 35.384C214.892 35.384 214.508 35.452 214.14 35.588C213.772 35.716 213.456 35.896 213.192 36.128L212.808 35.492C213.128 35.22 213.512 35.012 213.96 34.868C214.408 34.716 214.88 34.64 215.376 34.64ZM215.076 40.388C215.556 40.388 215.968 40.28 216.312 40.064C216.656 39.84 216.912 39.52 217.08 39.104V38.072H215.1C214.02 38.072 213.48 38.448 213.48 39.2C213.48 39.568 213.62 39.86 213.9 40.076C214.18 40.284 214.572 40.388 215.076 40.388ZM226.03 32.096V41H225.214V39.752C224.958 40.176 224.618 40.5 224.194 40.724C223.778 40.948 223.306 41.06 222.778 41.06C222.186 41.06 221.65 40.924 221.17 40.652C220.69 40.38 220.314 40 220.042 39.512C219.77 39.024 219.634 38.468 219.634 37.844C219.634 37.22 219.77 36.664 220.042 36.176C220.314 35.688 220.69 35.312 221.17 35.048C221.65 34.776 222.186 34.64 222.778 34.64C223.29 34.64 223.75 34.748 224.158 34.964C224.574 35.172 224.914 35.48 225.178 35.888V32.096H226.03ZM222.85 40.304C223.29 40.304 223.686 40.204 224.038 40.004C224.398 39.796 224.678 39.504 224.878 39.128C225.086 38.752 225.19 38.324 225.19 37.844C225.19 37.364 225.086 36.936 224.878 36.56C224.678 36.184 224.398 35.896 224.038 35.696C223.686 35.488 223.29 35.384 222.85 35.384C222.402 35.384 221.998 35.488 221.638 35.696C221.286 35.896 221.006 36.184 220.798 36.56C220.598 36.936 220.498 37.364 220.498 37.844C220.498 38.324 220.598 38.752 220.798 39.128C221.006 39.504 221.286 39.796 221.638 40.004C221.998 40.204 222.402 40.304 222.85 40.304Z" fill="white"/>
<path d="M199.512 59.6C200.584 59.6 201.424 59.856 202.032 60.368C202.64 60.88 202.944 61.584 202.944 62.48C202.944 63.376 202.64 64.08 202.032 64.592C201.424 65.096 200.584 65.348 199.512 65.348H197.256V68H196.368V59.6H199.512ZM199.488 64.568C200.32 64.568 200.956 64.388 201.396 64.028C201.836 63.66 202.056 63.144 202.056 62.48C202.056 61.8 201.836 61.28 201.396 60.92C200.956 60.552 200.32 60.368 199.488 60.368H197.256V64.568H199.488ZM205.336 62.924C205.536 62.5 205.832 62.18 206.224 61.964C206.624 61.748 207.116 61.64 207.7 61.64V62.468L207.496 62.456C206.832 62.456 206.312 62.66 205.936 63.068C205.56 63.476 205.372 64.048 205.372 64.784V68H204.52V61.688H205.336V62.924ZM209.243 61.688H210.095V68H209.243V61.688ZM209.675 60.308C209.499 60.308 209.351 60.248 209.231 60.128C209.111 60.008 209.051 59.864 209.051 59.696C209.051 59.536 209.111 59.396 209.231 59.276C209.351 59.156 209.499 59.096 209.675 59.096C209.851 59.096 209.999 59.156 210.119 59.276C210.239 59.388 210.299 59.524 210.299 59.684C210.299 59.86 210.239 60.008 210.119 60.128C209.999 60.248 209.851 60.308 209.675 60.308ZM220.337 61.64C221.129 61.64 221.749 61.868 222.197 62.324C222.653 62.78 222.881 63.452 222.881 64.34V68H222.029V64.424C222.029 63.768 221.869 63.268 221.549 62.924C221.237 62.58 220.793 62.408 220.217 62.408C219.561 62.408 219.045 62.612 218.669 63.02C218.293 63.42 218.105 63.976 218.105 64.688V68H217.253V64.424C217.253 63.768 217.093 63.268 216.773 62.924C216.461 62.58 216.013 62.408 215.429 62.408C214.781 62.408 214.265 62.612 213.881 63.02C213.505 63.42 213.317 63.976 213.317 64.688V68H212.465V61.688H213.281V62.84C213.505 62.456 213.817 62.16 214.217 61.952C214.617 61.744 215.077 61.64 215.597 61.64C216.125 61.64 216.581 61.752 216.965 61.976C217.357 62.2 217.649 62.532 217.841 62.972C218.073 62.556 218.405 62.232 218.837 62C219.277 61.76 219.777 61.64 220.337 61.64ZM227.4 61.64C228.224 61.64 228.856 61.848 229.296 62.264C229.736 62.672 229.956 63.28 229.956 64.088V68H229.14V67.016C228.948 67.344 228.664 67.6 228.288 67.784C227.92 67.968 227.48 68.06 226.968 68.06C226.264 68.06 225.704 67.892 225.288 67.556C224.872 67.22 224.664 66.776 224.664 66.224C224.664 65.688 224.856 65.256 225.24 64.928C225.632 64.6 226.252 64.436 227.1 64.436H229.104V64.052C229.104 63.508 228.952 63.096 228.648 62.816C228.344 62.528 227.9 62.384 227.316 62.384C226.916 62.384 226.532 62.452 226.164 62.588C225.796 62.716 225.48 62.896 225.216 63.128L224.832 62.492C225.152 62.22 225.536 62.012 225.984 61.868C226.432 61.716 226.904 61.64 227.4 61.64ZM227.1 67.388C227.58 67.388 227.992 67.28 228.336 67.064C228.68 66.84 228.936 66.52 229.104 66.104V65.072H227.124C226.044 65.072 225.504 65.448 225.504 66.2C225.504 66.568 225.644 66.86 225.924 67.076C226.204 67.284 226.596 67.388 227.1 67.388ZM233.086 62.924C233.286 62.5 233.582 62.18 233.974 61.964C234.374 61.748 234.866 61.64 235.45 61.64V62.468L235.246 62.456C234.582 62.456 234.062 62.66 233.686 63.068C233.31 63.476 233.122 64.048 233.122 64.784V68H232.27V61.688H233.086V62.924ZM242.566 61.688L239.41 68.756C239.154 69.348 238.858 69.768 238.522 70.016C238.186 70.264 237.782 70.388 237.31 70.388C237.006 70.388 236.722 70.34 236.458 70.244C236.194 70.148 235.966 70.004 235.774 69.812L236.17 69.176C236.49 69.496 236.874 69.656 237.322 69.656C237.61 69.656 237.854 69.576 238.054 69.416C238.262 69.256 238.454 68.984 238.63 68.6L238.906 67.988L236.086 61.688H236.974L239.35 67.052L241.726 61.688H242.566ZM249.523 68.06C248.899 68.06 248.339 67.924 247.843 67.652C247.355 67.38 246.971 67 246.691 66.512C246.411 66.016 246.271 65.46 246.271 64.844C246.271 64.228 246.411 63.676 246.691 63.188C246.971 62.7 247.355 62.32 247.843 62.048C248.339 61.776 248.899 61.64 249.523 61.64C250.067 61.64 250.551 61.748 250.975 61.964C251.407 62.172 251.747 62.48 251.995 62.888L251.359 63.32C251.151 63.008 250.887 62.776 250.567 62.624C250.247 62.464 249.899 62.384 249.523 62.384C249.067 62.384 248.655 62.488 248.287 62.696C247.927 62.896 247.643 63.184 247.435 63.56C247.235 63.936 247.135 64.364 247.135 64.844C247.135 65.332 247.235 65.764 247.435 66.14C247.643 66.508 247.927 66.796 248.287 67.004C248.655 67.204 249.067 67.304 249.523 67.304C249.899 67.304 250.247 67.228 250.567 67.076C250.887 66.924 251.151 66.692 251.359 66.38L251.995 66.812C251.747 67.22 251.407 67.532 250.975 67.748C250.543 67.956 250.059 68.06 249.523 68.06ZM256.791 61.64C257.583 61.64 258.211 61.872 258.675 62.336C259.147 62.792 259.383 63.46 259.383 64.34V68H258.531V64.424C258.531 63.768 258.367 63.268 258.039 62.924C257.711 62.58 257.243 62.408 256.635 62.408C255.955 62.408 255.415 62.612 255.015 63.02C254.623 63.42 254.427 63.976 254.427 64.688V68H253.575V59.096H254.427V62.792C254.659 62.424 254.979 62.14 255.387 61.94C255.795 61.74 256.263 61.64 256.791 61.64ZM263.904 61.64C264.728 61.64 265.36 61.848 265.8 62.264C266.24 62.672 266.46 63.28 266.46 64.088V68H265.644V67.016C265.452 67.344 265.168 67.6 264.792 67.784C264.424 67.968 263.984 68.06 263.472 68.06C262.768 68.06 262.208 67.892 261.792 67.556C261.376 67.22 261.168 66.776 261.168 66.224C261.168 65.688 261.36 65.256 261.744 64.928C262.136 64.6 262.756 64.436 263.604 64.436H265.608V64.052C265.608 63.508 265.456 63.096 265.152 62.816C264.848 62.528 264.404 62.384 263.82 62.384C263.42 62.384 263.036 62.452 262.668 62.588C262.3 62.716 261.984 62.896 261.72 63.128L261.336 62.492C261.656 62.22 262.04 62.012 262.488 61.868C262.936 61.716 263.408 61.64 263.904 61.64ZM263.604 67.388C264.084 67.388 264.496 67.28 264.84 67.064C265.184 66.84 265.44 66.52 265.608 66.104V65.072H263.628C262.548 65.072 262.008 65.448 262.008 66.2C262.008 66.568 262.148 66.86 262.428 67.076C262.708 67.284 263.1 67.388 263.604 67.388ZM269.59 62.924C269.79 62.5 270.086 62.18 270.478 61.964C270.878 61.748 271.37 61.64 271.954 61.64V62.468L271.75 62.456C271.086 62.456 270.566 62.66 270.19 63.068C269.814 63.476 269.626 64.048 269.626 64.784V68H268.774V61.688H269.59V62.924ZM275.693 61.64C276.517 61.64 277.149 61.848 277.589 62.264C278.029 62.672 278.249 63.28 278.249 64.088V68H277.433V67.016C277.241 67.344 276.957 67.6 276.581 67.784C276.213 67.968 275.773 68.06 275.261 68.06C274.557 68.06 273.997 67.892 273.581 67.556C273.165 67.22 272.957 66.776 272.957 66.224C272.957 65.688 273.149 65.256 273.533 64.928C273.925 64.6 274.545 64.436 275.393 64.436H277.397V64.052C277.397 63.508 277.245 63.096 276.941 62.816C276.637 62.528 276.193 62.384 275.609 62.384C275.209 62.384 274.825 62.452 274.457 62.588C274.089 62.716 273.773 62.896 273.509 63.128L273.125 62.492C273.445 62.22 273.829 62.012 274.277 61.868C274.725 61.716 275.197 61.64 275.693 61.64ZM275.393 67.388C275.873 67.388 276.285 67.28 276.629 67.064C276.973 66.84 277.229 66.52 277.397 66.104V65.072H275.417C274.337 65.072 273.797 65.448 273.797 66.2C273.797 66.568 273.937 66.86 274.217 67.076C274.497 67.284 274.889 67.388 275.393 67.388ZM283.202 68.06C282.578 68.06 282.018 67.924 281.522 67.652C281.034 67.38 280.65 67 280.37 66.512C280.09 66.016 279.95 65.46 279.95 64.844C279.95 64.228 280.09 63.676 280.37 63.188C280.65 62.7 281.034 62.32 281.522 62.048C282.018 61.776 282.578 61.64 283.202 61.64C283.746 61.64 284.23 61.748 284.654 61.964C285.086 62.172 285.426 62.48 285.674 62.888L285.038 63.32C284.83 63.008 284.566 62.776 284.246 62.624C283.926 62.464 283.578 62.384 283.202 62.384C282.746 62.384 282.334 62.488 281.966 62.696C281.606 62.896 281.322 63.184 281.114 63.56C280.914 63.936 280.814 64.364 280.814 64.844C280.814 65.332 280.914 65.764 281.114 66.14C281.322 66.508 281.606 66.796 281.966 67.004C282.334 67.204 282.746 67.304 283.202 67.304C283.578 67.304 283.926 67.228 284.246 67.076C284.566 66.924 284.83 66.692 285.038 66.38L285.674 66.812C285.426 67.22 285.086 67.532 284.654 67.748C284.222 67.956 283.738 68.06 283.202 68.06ZM290.742 67.616C290.582 67.76 290.382 67.872 290.142 67.952C289.91 68.024 289.666 68.06 289.41 68.06C288.818 68.06 288.362 67.9 288.042 67.58C287.722 67.26 287.562 66.808 287.562 66.224V62.408H286.434V61.688H287.562V60.308H288.414V61.688H290.334V62.408H288.414V66.176C288.414 66.552 288.506 66.84 288.69 67.04C288.882 67.232 289.154 67.328 289.506 67.328C289.682 67.328 289.85 67.3 290.01 67.244C290.178 67.188 290.322 67.108 290.442 67.004L290.742 67.616ZM297.567 65.108H292.287C292.335 65.764 292.587 66.296 293.043 66.704C293.499 67.104 294.075 67.304 294.771 67.304C295.163 67.304 295.523 67.236 295.851 67.1C296.179 66.956 296.463 66.748 296.703 66.476L297.183 67.028C296.903 67.364 296.551 67.62 296.127 67.796C295.711 67.972 295.251 68.06 294.747 68.06C294.099 68.06 293.523 67.924 293.019 67.652C292.523 67.372 292.135 66.988 291.855 66.5C291.575 66.012 291.435 65.46 291.435 64.844C291.435 64.228 291.567 63.676 291.831 63.188C292.103 62.7 292.471 62.32 292.935 62.048C293.407 61.776 293.935 61.64 294.519 61.64C295.103 61.64 295.627 61.776 296.091 62.048C296.555 62.32 296.919 62.7 297.183 63.188C297.447 63.668 297.579 64.22 297.579 64.844L297.567 65.108ZM294.519 62.372C293.911 62.372 293.399 62.568 292.983 62.96C292.575 63.344 292.343 63.848 292.287 64.472H296.763C296.707 63.848 296.471 63.344 296.055 62.96C295.647 62.568 295.135 62.372 294.519 62.372ZM300.129 62.924C300.329 62.5 300.625 62.18 301.017 61.964C301.417 61.748 301.909 61.64 302.493 61.64V62.468L302.289 62.456C301.625 62.456 301.105 62.66 300.729 63.068C300.353 63.476 300.165 64.048 300.165 64.784V68H299.313V61.688H300.129V62.924ZM305.775 68.06C305.263 68.06 304.771 67.988 304.299 67.844C303.835 67.692 303.471 67.504 303.207 67.28L303.591 66.608C303.855 66.816 304.187 66.988 304.587 67.124C304.987 67.252 305.403 67.316 305.835 67.316C306.411 67.316 306.835 67.228 307.107 67.052C307.387 66.868 307.527 66.612 307.527 66.284C307.527 66.052 307.451 65.872 307.299 65.744C307.147 65.608 306.955 65.508 306.723 65.444C306.491 65.372 306.183 65.304 305.799 65.24C305.287 65.144 304.875 65.048 304.563 64.952C304.251 64.848 303.983 64.676 303.759 64.436C303.543 64.196 303.435 63.864 303.435 63.44C303.435 62.912 303.655 62.48 304.095 62.144C304.535 61.808 305.147 61.64 305.931 61.64C306.339 61.64 306.747 61.696 307.155 61.808C307.563 61.912 307.899 62.052 308.163 62.228L307.791 62.912C307.271 62.552 306.651 62.372 305.931 62.372C305.387 62.372 304.975 62.468 304.695 62.66C304.423 62.852 304.287 63.104 304.287 63.416C304.287 63.656 304.363 63.848 304.515 63.992C304.675 64.136 304.871 64.244 305.103 64.316C305.335 64.38 305.655 64.448 306.063 64.52C306.567 64.616 306.971 64.712 307.275 64.808C307.579 64.904 307.839 65.068 308.055 65.3C308.271 65.532 308.379 65.852 308.379 66.26C308.379 66.812 308.147 67.252 307.683 67.58C307.227 67.9 306.591 68.06 305.775 68.06Z" fill="white"/>
<path d="M401.019 23.668C401.571 23.788 401.995 24.028 402.291 24.388C402.595 24.74 402.747 25.196 402.747 25.756C402.747 26.476 402.479 27.032 401.943 27.424C401.415 27.808 400.631 28 399.591 28H395.727V19.6H399.351C400.287 19.6 401.011 19.788 401.523 20.164C402.043 20.54 402.303 21.072 402.303 21.76C402.303 22.224 402.187 22.62 401.955 22.948C401.731 23.268 401.419 23.508 401.019 23.668ZM396.615 20.332V23.38H399.291C399.971 23.38 400.495 23.252 400.863 22.996C401.231 22.732 401.415 22.352 401.415 21.856C401.415 21.36 401.231 20.984 400.863 20.728C400.495 20.464 399.971 20.332 399.291 20.332H396.615ZM399.579 27.268C400.331 27.268 400.899 27.14 401.283 26.884C401.667 26.628 401.859 26.228 401.859 25.684C401.859 24.636 401.099 24.112 399.579 24.112H396.615V27.268H399.579ZM404.594 19.096H405.446V28H404.594V19.096ZM410.397 28.06C409.789 28.06 409.241 27.924 408.753 27.652C408.265 27.372 407.881 26.988 407.601 26.5C407.321 26.012 407.181 25.46 407.181 24.844C407.181 24.228 407.321 23.676 407.601 23.188C407.881 22.7 408.265 22.32 408.753 22.048C409.241 21.776 409.789 21.64 410.397 21.64C411.005 21.64 411.553 21.776 412.041 22.048C412.529 22.32 412.909 22.7 413.181 23.188C413.461 23.676 413.601 24.228 413.601 24.844C413.601 25.46 413.461 26.012 413.181 26.5C412.909 26.988 412.529 27.372 412.041 27.652C411.553 27.924 411.005 28.06 410.397 28.06ZM410.397 27.304C410.845 27.304 411.245 27.204 411.597 27.004C411.957 26.796 412.237 26.504 412.437 26.128C412.637 25.752 412.737 25.324 412.737 24.844C412.737 24.364 412.637 23.936 412.437 23.56C412.237 23.184 411.957 22.896 411.597 22.696C411.245 22.488 410.845 22.384 410.397 22.384C409.949 22.384 409.545 22.488 409.185 22.696C408.833 22.896 408.553 23.184 408.345 23.56C408.145 23.936 408.045 24.364 408.045 24.844C408.045 25.324 408.145 25.752 408.345 26.128C408.553 26.504 408.833 26.796 409.185 27.004C409.545 27.204 409.949 27.304 410.397 27.304ZM417.92 28.06C417.312 28.06 416.764 27.924 416.276 27.652C415.788 27.372 415.404 26.988 415.124 26.5C414.844 26.012 414.704 25.46 414.704 24.844C414.704 24.228 414.844 23.676 415.124 23.188C415.404 22.7 415.788 22.32 416.276 22.048C416.764 21.776 417.312 21.64 417.92 21.64C418.528 21.64 419.076 21.776 419.564 22.048C420.052 22.32 420.432 22.7 420.704 23.188C420.984 23.676 421.124 24.228 421.124 24.844C421.124 25.46 420.984 26.012 420.704 26.5C420.432 26.988 420.052 27.372 419.564 27.652C419.076 27.924 418.528 28.06 417.92 28.06ZM417.92 27.304C418.368 27.304 418.768 27.204 419.12 27.004C419.48 26.796 419.76 26.504 419.96 26.128C420.16 25.752 420.26 25.324 420.26 24.844C420.26 24.364 420.16 23.936 419.96 23.56C419.76 23.184 419.48 22.896 419.12 22.696C418.768 22.488 418.368 22.384 417.92 22.384C417.472 22.384 417.068 22.488 416.708 22.696C416.356 22.896 416.076 23.184 415.868 23.56C415.668 23.936 415.568 24.364 415.568 24.844C415.568 25.324 415.668 25.752 415.868 26.128C416.076 26.504 416.356 26.796 416.708 27.004C417.068 27.204 417.472 27.304 417.92 27.304ZM428.624 19.096V28H427.808V26.752C427.552 27.176 427.212 27.5 426.788 27.724C426.372 27.948 425.9 28.06 425.372 28.06C424.78 28.06 424.244 27.924 423.764 27.652C423.284 27.38 422.908 27 422.636 26.512C422.364 26.024 422.228 25.468 422.228 24.844C422.228 24.22 422.364 23.664 422.636 23.176C422.908 22.688 423.284 22.312 423.764 22.048C424.244 21.776 424.78 21.64 425.372 21.64C425.884 21.64 426.344 21.748 426.752 21.964C427.168 22.172 427.508 22.48 427.772 22.888V19.096H428.624ZM425.444 27.304C425.884 27.304 426.28 27.204 426.632 27.004C426.992 26.796 427.272 26.504 427.472 26.128C427.68 25.752 427.784 25.324 427.784 24.844C427.784 24.364 427.68 23.936 427.472 23.56C427.272 23.184 426.992 22.896 426.632 22.696C426.28 22.488 425.884 22.384 425.444 22.384C424.996 22.384 424.592 22.488 424.232 22.696C423.88 22.896 423.6 23.184 423.392 23.56C423.192 23.936 423.092 24.364 423.092 24.844C423.092 25.324 423.192 25.752 423.392 26.128C423.6 26.504 423.88 26.796 424.232 27.004C424.592 27.204 424.996 27.304 425.444 27.304ZM430.997 19.096H431.849V28H430.997V19.096ZM434.219 21.688H435.071V28H434.219V21.688ZM434.651 20.308C434.475 20.308 434.327 20.248 434.207 20.128C434.087 20.008 434.027 19.864 434.027 19.696C434.027 19.536 434.087 19.396 434.207 19.276C434.327 19.156 434.475 19.096 434.651 19.096C434.827 19.096 434.975 19.156 435.095 19.276C435.215 19.388 435.275 19.524 435.275 19.684C435.275 19.86 435.215 20.008 435.095 20.128C434.975 20.248 434.827 20.308 434.651 20.308ZM440.658 21.64C441.45 21.64 442.078 21.872 442.542 22.336C443.014 22.792 443.25 23.46 443.25 24.34V28H442.398V24.424C442.398 23.768 442.234 23.268 441.906 22.924C441.578 22.58 441.11 22.408 440.502 22.408C439.822 22.408 439.282 22.612 438.882 23.02C438.49 23.42 438.294 23.976 438.294 24.688V28H437.442V21.688H438.258V22.852C438.49 22.468 438.81 22.172 439.218 21.964C439.634 21.748 440.114 21.64 440.658 21.64ZM451.082 25.108H445.802C445.85 25.764 446.102 26.296 446.558 26.704C447.014 27.104 447.59 27.304 448.286 27.304C448.678 27.304 449.038 27.236 449.366 27.1C449.694 26.956 449.978 26.748 450.218 26.476L450.698 27.028C450.418 27.364 450.066 27.62 449.642 27.796C449.226 27.972 448.766 28.06 448.262 28.06C447.614 28.06 447.038 27.924 446.534 27.652C446.038 27.372 445.65 26.988 445.37 26.5C445.09 26.012 444.95 25.46 444.95 24.844C444.95 24.228 445.082 23.676 445.346 23.188C445.618 22.7 445.986 22.32 446.45 22.048C446.922 21.776 447.45 21.64 448.034 21.64C448.618 21.64 449.142 21.776 449.606 22.048C450.07 22.32 450.434 22.7 450.698 23.188C450.962 23.668 451.094 24.22 451.094 24.844L451.082 25.108ZM448.034 22.372C447.426 22.372 446.914 22.568 446.498 22.96C446.09 23.344 445.858 23.848 445.802 24.472H450.278C450.222 23.848 449.986 23.344 449.57 22.96C449.162 22.568 448.65 22.372 448.034 22.372Z" fill="white"/>
<path d="M402.57 45.6V54H401.694V50.124H396.438V54H395.55V45.6H396.438V49.344H401.694V45.6H402.57ZM407.339 47.64C408.163 47.64 408.795 47.848 409.235 48.264C409.675 48.672 409.895 49.28 409.895 50.088V54H409.079V53.016C408.887 53.344 408.603 53.6 408.227 53.784C407.859 53.968 407.419 54.06 406.907 54.06C406.203 54.06 405.643 53.892 405.227 53.556C404.811 53.22 404.603 52.776 404.603 52.224C404.603 51.688 404.795 51.256 405.179 50.928C405.571 50.6 406.191 50.436 407.039 50.436H409.043V50.052C409.043 49.508 408.891 49.096 408.587 48.816C408.283 48.528 407.839 48.384 407.255 48.384C406.855 48.384 406.471 48.452 406.103 48.588C405.735 48.716 405.419 48.896 405.155 49.128L404.771 48.492C405.091 48.22 405.475 48.012 405.923 47.868C406.371 47.716 406.843 47.64 407.339 47.64ZM407.039 53.388C407.519 53.388 407.931 53.28 408.275 53.064C408.619 52.84 408.875 52.52 409.043 52.104V51.072H407.063C405.983 51.072 405.443 51.448 405.443 52.2C405.443 52.568 405.583 52.86 405.863 53.076C406.143 53.284 406.535 53.388 407.039 53.388ZM412.209 45.096H413.061V54H412.209V45.096ZM417.52 45.756C417.152 45.756 416.872 45.856 416.68 46.056C416.496 46.256 416.404 46.552 416.404 46.944V47.688H418.348V48.408H416.428V54H415.576V48.408H414.448V47.688H415.576V46.908C415.576 46.332 415.74 45.876 416.068 45.54C416.404 45.204 416.876 45.036 417.484 45.036C417.724 45.036 417.956 45.072 418.18 45.144C418.404 45.208 418.592 45.304 418.744 45.432L418.456 46.068C418.208 45.86 417.896 45.756 417.52 45.756ZM425.891 47.64C426.483 47.64 427.019 47.776 427.499 48.048C427.979 48.312 428.355 48.688 428.627 49.176C428.899 49.664 429.035 50.22 429.035 50.844C429.035 51.468 428.899 52.024 428.627 52.512C428.355 53 427.979 53.38 427.499 53.652C427.019 53.924 426.483 54.06 425.891 54.06C425.363 54.06 424.887 53.948 424.463 53.724C424.047 53.5 423.711 53.176 423.455 52.752V54H422.639V45.096H423.491V48.888C423.755 48.48 424.091 48.172 424.499 47.964C424.915 47.748 425.379 47.64 425.891 47.64ZM425.831 53.304C426.271 53.304 426.671 53.204 427.031 53.004C427.391 52.796 427.671 52.504 427.871 52.128C428.079 51.752 428.183 51.324 428.183 50.844C428.183 50.364 428.079 49.936 427.871 49.56C427.671 49.184 427.391 48.896 427.031 48.696C426.671 48.488 426.271 48.384 425.831 48.384C425.383 48.384 424.979 48.488 424.619 48.696C424.267 48.896 423.987 49.184 423.779 49.56C423.579 49.936 423.479 50.364 423.479 50.844C423.479 51.324 423.579 51.752 423.779 52.128C423.987 52.504 424.267 52.796 424.619 53.004C424.979 53.204 425.383 53.304 425.831 53.304ZM430.772 45.096H431.624V54H430.772V45.096ZM436.575 54.06C435.967 54.06 435.419 53.924 434.931 53.652C434.443 53.372 434.059 52.988 433.779 52.5C433.499 52.012 433.359 51.46 433.359 50.844C433.359 50.228 433.499 49.676 433.779 49.188C434.059 48.7 434.443 48.32 434.931 48.048C435.419 47.776 435.967 47.64 436.575 47.64C437.183 47.64 437.731 47.776 438.219 48.048C438.707 48.32 439.087 48.7 439.359 49.188C439.639 49.676 439.779 50.228 439.779 50.844C439.779 51.46 439.639 52.012 439.359 52.5C439.087 52.988 438.707 53.372 438.219 53.652C437.731 53.924 437.183 54.06 436.575 54.06ZM436.575 53.304C437.023 53.304 437.423 53.204 437.775 53.004C438.135 52.796 438.415 52.504 438.615 52.128C438.815 51.752 438.915 51.324 438.915 50.844C438.915 50.364 438.815 49.936 438.615 49.56C438.415 49.184 438.135 48.896 437.775 48.696C437.423 48.488 437.023 48.384 436.575 48.384C436.127 48.384 435.723 48.488 435.363 48.696C435.011 48.896 434.731 49.184 434.523 49.56C434.323 49.936 434.223 50.364 434.223 50.844C434.223 51.324 434.323 51.752 434.523 52.128C434.731 52.504 435.011 52.796 435.363 53.004C435.723 53.204 436.127 53.304 436.575 53.304ZM444.098 54.06C443.49 54.06 442.942 53.924 442.454 53.652C441.966 53.372 441.582 52.988 441.302 52.5C441.022 52.012 440.882 51.46 440.882 50.844C440.882 50.228 441.022 49.676 441.302 49.188C441.582 48.7 441.966 48.32 442.454 48.048C442.942 47.776 443.49 47.64 444.098 47.64C444.706 47.64 445.254 47.776 445.742 48.048C446.23 48.32 446.61 48.7 446.882 49.188C447.162 49.676 447.302 50.228 447.302 50.844C447.302 51.46 447.162 52.012 446.882 52.5C446.61 52.988 446.23 53.372 445.742 53.652C445.254 53.924 444.706 54.06 444.098 54.06ZM444.098 53.304C444.546 53.304 444.946 53.204 445.298 53.004C445.658 52.796 445.938 52.504 446.138 52.128C446.338 51.752 446.438 51.324 446.438 50.844C446.438 50.364 446.338 49.936 446.138 49.56C445.938 49.184 445.658 48.896 445.298 48.696C444.946 48.488 444.546 48.384 444.098 48.384C443.65 48.384 443.246 48.488 442.886 48.696C442.534 48.896 442.254 49.184 442.046 49.56C441.846 49.936 441.746 50.364 441.746 50.844C441.746 51.324 441.846 51.752 442.046 52.128C442.254 52.504 442.534 52.796 442.886 53.004C443.246 53.204 443.65 53.304 444.098 53.304ZM454.802 45.096V54H453.986V52.752C453.73 53.176 453.39 53.5 452.966 53.724C452.55 53.948 452.078 54.06 451.55 54.06C450.958 54.06 450.422 53.924 449.942 53.652C449.462 53.38 449.086 53 448.814 52.512C448.542 52.024 448.406 51.468 448.406 50.844C448.406 50.22 448.542 49.664 448.814 49.176C449.086 48.688 449.462 48.312 449.942 48.048C450.422 47.776 450.958 47.64 451.55 47.64C452.062 47.64 452.522 47.748 452.93 47.964C453.346 48.172 453.686 48.48 453.95 48.888V45.096H454.802ZM451.622 53.304C452.062 53.304 452.458 53.204 452.81 53.004C453.17 52.796 453.45 52.504 453.65 52.128C453.858 51.752 453.962 51.324 453.962 50.844C453.962 50.364 453.858 49.936 453.65 49.56C453.45 49.184 453.17 48.896 452.81 48.696C452.458 48.488 452.062 48.384 451.622 48.384C451.174 48.384 450.77 48.488 450.41 48.696C450.058 48.896 449.778 49.184 449.57 49.56C449.37 49.936 449.27 50.364 449.27 50.844C449.27 51.324 449.37 51.752 449.57 52.128C449.778 52.504 450.058 52.796 450.41 53.004C450.77 53.204 451.174 53.304 451.622 53.304ZM457.174 45.096H458.026V54H457.174V45.096ZM460.397 47.688H461.249V54H460.397V47.688ZM460.829 46.308C460.653 46.308 460.505 46.248 460.385 46.128C460.265 46.008 460.205 45.864 460.205 45.696C460.205 45.536 460.265 45.396 460.385 45.276C460.505 45.156 460.653 45.096 460.829 45.096C461.005 45.096 461.153 45.156 461.273 45.276C461.393 45.388 461.453 45.524 461.453 45.684C461.453 45.86 461.393 46.008 461.273 46.128C461.153 46.248 461.005 46.308 460.829 46.308ZM466.836 47.64C467.628 47.64 468.256 47.872 468.72 48.336C469.192 48.792 469.428 49.46 469.428 50.34V54H468.576V50.424C468.576 49.768 468.412 49.268 468.084 48.924C467.756 48.58 467.288 48.408 466.68 48.408C466 48.408 465.46 48.612 465.06 49.02C464.668 49.42 464.472 49.976 464.472 50.688V54H463.62V47.688H464.436V48.852C464.668 48.468 464.988 48.172 465.396 47.964C465.812 47.748 466.292 47.64 466.836 47.64ZM477.26 51.108H471.98C472.028 51.764 472.28 52.296 472.736 52.704C473.192 53.104 473.768 53.304 474.464 53.304C474.856 53.304 475.216 53.236 475.544 53.1C475.872 52.956 476.156 52.748 476.396 52.476L476.876 53.028C476.596 53.364 476.244 53.62 475.82 53.796C475.404 53.972 474.944 54.06 474.44 54.06C473.792 54.06 473.216 53.924 472.712 53.652C472.216 53.372 471.828 52.988 471.548 52.5C471.268 52.012 471.128 51.46 471.128 50.844C471.128 50.228 471.26 49.676 471.524 49.188C471.796 48.7 472.164 48.32 472.628 48.048C473.1 47.776 473.628 47.64 474.212 47.64C474.796 47.64 475.32 47.776 475.784 48.048C476.248 48.32 476.612 48.7 476.876 49.188C477.14 49.668 477.272 50.22 477.272 50.844L477.26 51.108ZM474.212 48.372C473.604 48.372 473.092 48.568 472.676 48.96C472.268 49.344 472.036 49.848 471.98 50.472H476.456C476.4 49.848 476.164 49.344 475.748 48.96C475.34 48.568 474.828 48.372 474.212 48.372Z" fill="white"/>
<rect x="357" y="13" width="23" height="23" fill="#477BD0"/>
<rect x="357" y="39" width="23" height="23" fill="#477BD0"/>
<path d="M380 39L357 62H380V39Z" fill="#D8E5FF"/>
<path d="M41.7972 19.6C42.8692 19.6 43.7092 19.856 44.3172 20.368C44.9252 20.88 45.2292 21.584 45.2292 22.48C45.2292 23.376 44.9252 24.08 44.3172 24.592C43.7092 25.096 42.8692 25.348 41.7972 25.348H39.5412V28H38.6532V19.6H41.7972ZM41.7732 24.568C42.6052 24.568 43.2412 24.388 43.6812 24.028C44.1212 23.66 44.3412 23.144 44.3412 22.48C44.3412 21.8 44.1212 21.28 43.6812 20.92C43.2412 20.552 42.6052 20.368 41.7732 20.368H39.5412V24.568H41.7732ZM47.6212 22.924C47.8212 22.5 48.1172 22.18 48.5092 21.964C48.9092 21.748 49.4012 21.64 49.9852 21.64V22.468L49.7812 22.456C49.1172 22.456 48.5972 22.66 48.2212 23.068C47.8452 23.476 47.6572 24.048 47.6572 24.784V28H46.8052V21.688H47.6212V22.924ZM56.9653 25.108H51.6853C51.7333 25.764 51.9853 26.296 52.4413 26.704C52.8973 27.104 53.4733 27.304 54.1693 27.304C54.5613 27.304 54.9213 27.236 55.2493 27.1C55.5773 26.956 55.8613 26.748 56.1013 26.476L56.5813 27.028C56.3013 27.364 55.9493 27.62 55.5253 27.796C55.1093 27.972 54.6493 28.06 54.1453 28.06C53.4973 28.06 52.9213 27.924 52.4173 27.652C51.9213 27.372 51.5333 26.988 51.2533 26.5C50.9733 26.012 50.8333 25.46 50.8333 24.844C50.8333 24.228 50.9653 23.676 51.2293 23.188C51.5013 22.7 51.8693 22.32 52.3333 22.048C52.8053 21.776 53.3333 21.64 53.9173 21.64C54.5013 21.64 55.0253 21.776 55.4893 22.048C55.9533 22.32 56.3173 22.7 56.5813 23.188C56.8453 23.668 56.9773 24.22 56.9773 24.844L56.9653 25.108ZM53.9173 22.372C53.3093 22.372 52.7973 22.568 52.3813 22.96C51.9733 23.344 51.7413 23.848 51.6853 24.472H56.1613C56.1053 23.848 55.8693 23.344 55.4533 22.96C55.0453 22.568 54.5333 22.372 53.9173 22.372ZM60.4034 28.06C59.8914 28.06 59.3994 27.988 58.9274 27.844C58.4634 27.692 58.0994 27.504 57.8354 27.28L58.2194 26.608C58.4834 26.816 58.8154 26.988 59.2154 27.124C59.6154 27.252 60.0314 27.316 60.4634 27.316C61.0394 27.316 61.4634 27.228 61.7354 27.052C62.0154 26.868 62.1554 26.612 62.1554 26.284C62.1554 26.052 62.0794 25.872 61.9274 25.744C61.7754 25.608 61.5834 25.508 61.3514 25.444C61.1194 25.372 60.8114 25.304 60.4274 25.24C59.9154 25.144 59.5034 25.048 59.1914 24.952C58.8794 24.848 58.6114 24.676 58.3874 24.436C58.1714 24.196 58.0634 23.864 58.0634 23.44C58.0634 22.912 58.2834 22.48 58.7234 22.144C59.1634 21.808 59.7754 21.64 60.5594 21.64C60.9674 21.64 61.3754 21.696 61.7834 21.808C62.1914 21.912 62.5274 22.052 62.7914 22.228L62.4194 22.912C61.8994 22.552 61.2794 22.372 60.5594 22.372C60.0154 22.372 59.6034 22.468 59.3234 22.66C59.0514 22.852 58.9154 23.104 58.9154 23.416C58.9154 23.656 58.9914 23.848 59.1434 23.992C59.3034 24.136 59.4994 24.244 59.7314 24.316C59.9634 24.38 60.2834 24.448 60.6914 24.52C61.1954 24.616 61.5994 24.712 61.9034 24.808C62.2074 24.904 62.4674 25.068 62.6834 25.3C62.8994 25.532 63.0074 25.852 63.0074 26.26C63.0074 26.812 62.7754 27.252 62.3114 27.58C61.8554 27.9 61.2194 28.06 60.4034 28.06ZM70.0785 25.108H64.7985C64.8465 25.764 65.0985 26.296 65.5545 26.704C66.0105 27.104 66.5865 27.304 67.2825 27.304C67.6745 27.304 68.0345 27.236 68.3625 27.1C68.6905 26.956 68.9745 26.748 69.2145 26.476L69.6945 27.028C69.4145 27.364 69.0625 27.62 68.6385 27.796C68.2225 27.972 67.7625 28.06 67.2585 28.06C66.6105 28.06 66.0345 27.924 65.5305 27.652C65.0345 27.372 64.6465 26.988 64.3665 26.5C64.0865 26.012 63.9465 25.46 63.9465 24.844C63.9465 24.228 64.0785 23.676 64.3425 23.188C64.6145 22.7 64.9825 22.32 65.4465 22.048C65.9185 21.776 66.4465 21.64 67.0305 21.64C67.6145 21.64 68.1385 21.776 68.6025 22.048C69.0665 22.32 69.4305 22.7 69.6945 23.188C69.9585 23.668 70.0905 24.22 70.0905 24.844L70.0785 25.108ZM67.0305 22.372C66.4225 22.372 65.9105 22.568 65.4945 22.96C65.0865 23.344 64.8545 23.848 64.7985 24.472H69.2745C69.2185 23.848 68.9825 23.344 68.5665 22.96C68.1585 22.568 67.6465 22.372 67.0305 22.372ZM75.0407 21.64C75.8327 21.64 76.4607 21.872 76.9247 22.336C77.3967 22.792 77.6327 23.46 77.6327 24.34V28H76.7807V24.424C76.7807 23.768 76.6167 23.268 76.2887 22.924C75.9607 22.58 75.4927 22.408 74.8847 22.408C74.2047 22.408 73.6647 22.612 73.2647 23.02C72.8727 23.42 72.6767 23.976 72.6767 24.688V28H71.8247V21.688H72.6407V22.852C72.8727 22.468 73.1927 22.172 73.6007 21.964C74.0167 21.748 74.4967 21.64 75.0407 21.64ZM83.2698 27.616C83.1098 27.76 82.9098 27.872 82.6698 27.952C82.4378 28.024 82.1938 28.06 81.9378 28.06C81.3458 28.06 80.8898 27.9 80.5698 27.58C80.2498 27.26 80.0898 26.808 80.0898 26.224V22.408H78.9618V21.688H80.0898V20.308H80.9418V21.688H82.8618V22.408H80.9418V26.176C80.9418 26.552 81.0338 26.84 81.2178 27.04C81.4098 27.232 81.6818 27.328 82.0338 27.328C82.2098 27.328 82.3778 27.3 82.5378 27.244C82.7058 27.188 82.8498 27.108 82.9698 27.004L83.2698 27.616ZM89.7734 20.368H86.8214V19.6H93.6134V20.368H90.6614V28H89.7734V20.368ZM94.688 21.688H95.54V28H94.688V21.688ZM95.12 20.308C94.944 20.308 94.796 20.248 94.676 20.128C94.556 20.008 94.496 19.864 94.496 19.696C94.496 19.536 94.556 19.396 94.676 19.276C94.796 19.156 94.944 19.096 95.12 19.096C95.296 19.096 95.444 19.156 95.564 19.276C95.684 19.388 95.744 19.524 95.744 19.684C95.744 19.86 95.684 20.008 95.564 20.128C95.444 20.248 95.296 20.308 95.12 20.308ZM105.783 21.64C106.575 21.64 107.195 21.868 107.643 22.324C108.099 22.78 108.327 23.452 108.327 24.34V28H107.475V24.424C107.475 23.768 107.315 23.268 106.995 22.924C106.683 22.58 106.239 22.408 105.663 22.408C105.007 22.408 104.491 22.612 104.115 23.02C103.739 23.42 103.551 23.976 103.551 24.688V28H102.699V24.424C102.699 23.768 102.539 23.268 102.219 22.924C101.907 22.58 101.459 22.408 100.875 22.408C100.227 22.408 99.7107 22.612 99.3267 23.02C98.9507 23.42 98.7627 23.976 98.7627 24.688V28H97.9107V21.688H98.7267V22.84C98.9507 22.456 99.2627 22.16 99.6627 21.952C100.063 21.744 100.523 21.64 101.043 21.64C101.571 21.64 102.027 21.752 102.411 21.976C102.803 22.2 103.095 22.532 103.287 22.972C103.519 22.556 103.851 22.232 104.283 22C104.723 21.76 105.223 21.64 105.783 21.64ZM116.157 25.108H110.877C110.925 25.764 111.177 26.296 111.633 26.704C112.089 27.104 112.665 27.304 113.361 27.304C113.753 27.304 114.113 27.236 114.441 27.1C114.769 26.956 115.053 26.748 115.293 26.476L115.773 27.028C115.493 27.364 115.141 27.62 114.717 27.796C114.301 27.972 113.841 28.06 113.337 28.06C112.689 28.06 112.113 27.924 111.609 27.652C111.113 27.372 110.725 26.988 110.445 26.5C110.165 26.012 110.025 25.46 110.025 24.844C110.025 24.228 110.157 23.676 110.421 23.188C110.693 22.7 111.061 22.32 111.525 22.048C111.997 21.776 112.525 21.64 113.109 21.64C113.693 21.64 114.217 21.776 114.681 22.048C115.145 22.32 115.509 22.7 115.773 23.188C116.037 23.668 116.169 24.22 116.169 24.844L116.157 25.108ZM113.109 22.372C112.501 22.372 111.989 22.568 111.573 22.96C111.165 23.344 110.933 23.848 110.877 24.472H115.353C115.297 23.848 115.061 23.344 114.645 22.96C114.237 22.568 113.725 22.372 113.109 22.372Z" fill="white"/>
<path d="M39.5998 46.368V49.668H43.9438V50.436H39.5998V54H38.7118V45.6H44.4718V46.368H39.5998ZM51.6026 47.688V54H50.7866V52.848C50.5626 53.232 50.2546 53.532 49.8626 53.748C49.4706 53.956 49.0226 54.06 48.5186 54.06C47.6946 54.06 47.0426 53.832 46.5626 53.376C46.0906 52.912 45.8546 52.236 45.8546 51.348V47.688H46.7066V51.264C46.7066 51.928 46.8706 52.432 47.1986 52.776C47.5266 53.12 47.9946 53.292 48.6026 53.292C49.2666 53.292 49.7906 53.092 50.1746 52.692C50.5586 52.284 50.7506 51.72 50.7506 51V47.688H51.6026ZM57.3128 53.616C57.1528 53.76 56.9528 53.872 56.7128 53.952C56.4808 54.024 56.2368 54.06 55.9808 54.06C55.3888 54.06 54.9328 53.9 54.6128 53.58C54.2928 53.26 54.1328 52.808 54.1328 52.224V48.408H53.0048V47.688H54.1328V46.308H54.9848V47.688H56.9048V48.408H54.9848V52.176C54.9848 52.552 55.0768 52.84 55.2608 53.04C55.4528 53.232 55.7248 53.328 56.0768 53.328C56.2528 53.328 56.4208 53.3 56.5808 53.244C56.7488 53.188 56.8928 53.108 57.0128 53.004L57.3128 53.616ZM64.5518 47.688V54H63.7358V52.848C63.5118 53.232 63.2038 53.532 62.8118 53.748C62.4198 53.956 61.9718 54.06 61.4678 54.06C60.6438 54.06 59.9918 53.832 59.5118 53.376C59.0398 52.912 58.8038 52.236 58.8038 51.348V47.688H59.6558V51.264C59.6558 51.928 59.8198 52.432 60.1478 52.776C60.4758 53.12 60.9438 53.292 61.5518 53.292C62.2158 53.292 62.7398 53.092 63.1238 52.692C63.5078 52.284 63.6998 51.72 63.6998 51V47.688H64.5518ZM67.754 48.924C67.954 48.5 68.25 48.18 68.642 47.964C69.042 47.748 69.534 47.64 70.118 47.64V48.468L69.914 48.456C69.25 48.456 68.73 48.66 68.354 49.068C67.978 49.476 67.79 50.048 67.79 50.784V54H66.938V47.688H67.754V48.924ZM77.0981 51.108H71.8181C71.8661 51.764 72.1181 52.296 72.5741 52.704C73.0301 53.104 73.6061 53.304 74.3021 53.304C74.6941 53.304 75.0541 53.236 75.3821 53.1C75.7101 52.956 75.9941 52.748 76.2341 52.476L76.7141 53.028C76.4341 53.364 76.0821 53.62 75.6581 53.796C75.2421 53.972 74.7821 54.06 74.2781 54.06C73.6301 54.06 73.0541 53.924 72.5501 53.652C72.0541 53.372 71.6661 52.988 71.3861 52.5C71.1061 52.012 70.9661 51.46 70.9661 50.844C70.9661 50.228 71.0981 49.676 71.3621 49.188C71.6341 48.7 72.0021 48.32 72.4661 48.048C72.9381 47.776 73.4661 47.64 74.0501 47.64C74.6341 47.64 75.1581 47.776 75.6221 48.048C76.0861 48.32 76.4501 48.7 76.7141 49.188C76.9781 49.668 77.1101 50.22 77.1101 50.844L77.0981 51.108ZM74.0501 48.372C73.4421 48.372 72.9301 48.568 72.5141 48.96C72.1061 49.344 71.8741 49.848 71.8181 50.472H76.2941C76.2381 49.848 76.0021 49.344 75.5861 48.96C75.1781 48.568 74.6661 48.372 74.0501 48.372Z" fill="white"/>
<rect y="13" width="23" height="23" fill="#D8E5FF" fill-opacity="0.7"/>
<rect y="39" width="23" height="23" fill="#C3E5B8"/>
</svg>
