<svg xmlns="http://www.w3.org/2000/svg" width="70.1361mm" height="20.6065mm" viewBox="0 0 198.8111 58.4121"><defs><style>.a{fill:#fff;}</style></defs><path class="a" d="M170.4786,66.1338a3.6137,3.6137,0,0,0,2.9355,1.2754c1.9766,0,3.2363-1.1758,3.2363-2.7354a2.8039,2.8039,0,0,0-1.7324-2.3769v-.044a2.6284,2.6284,0,0,0,1.4746-2.247,2.721,2.721,0,0,0-2.9922-2.62,3.8908,3.8908,0,0,0-2.65,1.26.2568.2568,0,0,0,0,.3721l.5313.4717a.2426.2426,0,0,0,.3711-.0274,2.1853,2.1853,0,0,1,1.6621-.8027,1.5716,1.5716,0,0,1,1.6328,1.5615c0,.8438-.6738,1.5322-2.02,1.5322h-.8028c-.1992,0-.2851.086-.2851.3v.6162a.2633.2633,0,0,0,.2715.3007h.8008c1.5332,0,2.2636.8164,2.2636,1.6748a1.6469,1.6469,0,0,1-1.789,1.5459,2.8613,2.8613,0,0,1-1.9473-.8867.2514.2514,0,0,0-.3867-.0293l-.5586.5157a.2451.2451,0,0,0-.0156.3437m-4.295-.0137c-1.5605,0-2.09-1.6328-1.9765-2.8359a2.2936,2.2936,0,0,1,1.9629-1.0879,1.963,1.963,0,0,1,.0136,3.9238m-3.3652-2.7216c0,2.205,1.0879,4.0107,3.3789,4.0107a3.2611,3.2611,0,0,0,3.1934-3.2793,2.9721,2.9721,0,0,0-2.9922-3.1074,4.0843,4.0843,0,0,0-1.9043.5293c.4726-1.7617,2.75-2.9492,3.4082-3.1641.2715-.0859.33-.2432.2578-.415l-.2441-.5869a.2609.2609,0,0,0-.3575-.1719c-1.3183.501-4.74,2.1914-4.74,6.1846m-6.6,1.289a1.8213,1.8213,0,0,1,3.6367,0,1.6492,1.6492,0,0,1-1.832,1.5615,1.6728,1.6728,0,0,1-1.8047-1.5615m1.8184-3.0928c-1.1172-.1718-1.6036-.76-1.6036-1.5322a1.507,1.507,0,0,1,1.5606-1.5029,1.5313,1.5313,0,0,1,1.6465,1.5029c0,.7588-.502,1.375-1.6035,1.5322m-3.3086,3.0645c0,1.5605,1.2753,2.75,3.2793,2.75,2.0761,0,3.3378-1.1895,3.3378-2.75a2.8746,2.8746,0,0,0-1.7343-2.3916V62.21a2.6293,2.6293,0,0,0,1.4765-2.2041c0-1.5752-1.3047-2.62-3.0644-2.62a2.7462,2.7462,0,0,0-3.0371,2.62,2.6344,2.6344,0,0,0,1.4765,2.2187v.043a3.0079,3.0079,0,0,0-1.7343,2.3916m-6.8711,2.6055H152.84a.26.26,0,0,0,.2715-.2569v-.6162a.2627.2627,0,0,0-.2715-.2715h-1.5742V57.8008a.27.27,0,0,0-.2578-.2725h-.7032l-2.1328,1.9336a.2771.2771,0,0,0-.043.2852l.1719.5019a.2162.2162,0,0,0,.3145.1006l1.2461-.63v6.4h-2.0039a.2616.2616,0,0,0-.2715.2715v.6162a.259.259,0,0,0,.2715.2569m-13.0469-4.9971a3.7158,3.7158,0,1,1,3.709,3.709,3.7531,3.7531,0,0,1-3.709-3.709m-1.4317,0a5.1475,5.1475,0,1,0,5.1407-5.169,5.11,5.11,0,0,0-5.1407,5.169m-10.3662,4.7256a.281.281,0,0,0,.2725.2715h.9023a.2715.2715,0,0,0,.2715-.2715V60.02h.0137l6.2148,7.39h.3731a.27.27,0,0,0,.2715-.2588V57.5147a.2819.2819,0,0,0-.2715-.2735h-.918a.2726.2726,0,0,0-.2715.2735v6.7714h-.0136l-6.2149-7.1875h-.3574a.27.27,0,0,0-.2725.2579Zm-7.9179-3.1358,1.747-3.9238h.0713l1.7608,3.9238Zm-2.6626,3.4073h.9018a.36.36,0,0,0,.3291-.2139c.2857-.6592.5869-1.3037.8731-1.9619h4.6826l.8872,1.9619a.3359.3359,0,0,0,.33.2139h.9018a.2528.2528,0,0,0,.2432-.3721l-4.3672-9.6357a.3361.3361,0,0,0-.2427-.1583h-.144a.3361.3361,0,0,0-.2432.1583l-4.396,9.6357a.2528.2528,0,0,0,.2442.3721m-6.7583-.2715a.2709.2709,0,0,0,.2719.2715h5.0972a.2716.2716,0,0,0,.272-.2715v-.7871a.2724.2724,0,0,0-.272-.2725h-3.88V57.5147a.2823.2823,0,0,0-.2719-.2735h-.9454a.2719.2719,0,0,0-.2719.2735Zm-4.2671,0a.2814.2814,0,0,0,.2724.2715h.9449a.2809.2809,0,0,0,.2719-.2715V57.5147a.2819.2819,0,0,0-.2719-.2735h-.9449a.2824.2824,0,0,0-.2724.2735Zm-13.13-.0576a.2567.2567,0,0,0,.272.3291H89.48a.2771.2771,0,0,0,.2569-.2l1.0312-6.3994h.0581L93.417,67.251a.2584.2584,0,0,0,.2442.1582h.2568a.2456.2456,0,0,0,.2442-.1582l2.5766-6.5859h.043l1.06,6.3994a.2963.2963,0,0,0,.272.2h.93a.2435.2435,0,0,0,.2578-.3291l-1.7607-9.6221a.2891.2891,0,0,0-.2583-.2149h-.2286a.2722.2722,0,0,0-.2431.1583l-2.978,7.3164h-.0582l-2.9921-7.3164a.2922.2922,0,0,0-.2437-.1583H90.31a.29.29,0,0,0-.2583.2149Z" transform="translate(-22.0874 -22.0889)"/><path class="a" d="M208.8516,43.3057a4.6944,4.6944,0,1,1,4.6856,4.6846,4.7328,4.7328,0,0,1-4.6856-4.6846m-2.66,0a7.3536,7.3536,0,1,0,7.3458-7.3828,7.3,7.3,0,0,0-7.3458,7.3828m-14.2558,0a7.333,7.333,0,0,0,7.3848,7.3437,7.0258,7.0258,0,0,0,4.9707-1.9843.389.389,0,0,0,.0195-.5518l-1.2676-1.31a.3766.3766,0,0,0-.5117,0,4.91,4.91,0,0,1-3.1289,1.166,4.7484,4.7484,0,0,1-.0215-9.49,4.8376,4.8376,0,0,1,3.15,1.2061.3275.3275,0,0,0,.5117,0l1.2481-1.2881a.38.38,0,0,0-.0215-.5733,6.9177,6.9177,0,0,0-4.9492-1.9013,7.3674,7.3674,0,0,0-7.3848,7.3828m-5.3574,6.75a.4021.4021,0,0,0,.3867.39h1.9043a.4021.4021,0,0,0,.3867-.39V36.5147a.402.402,0,0,0-.3867-.3887h-1.9043a.402.402,0,0,0-.3867.3887Zm-15.6075,0a.4021.4021,0,0,0,.3868.39h1.8632a.3874.3874,0,0,0,.3868-.39V41.2608h.0214l8.5508,9.3886h.49a.3838.3838,0,0,0,.3886-.3681V36.5147a.4023.4023,0,0,0-.3886-.3887h-1.8809a.3894.3894,0,0,0-.3906.3887v8.4492h-.02l-8.5078-9.041h-.5136a.3826.3826,0,0,0-.3868.3672Zm-15.0761-6.75a7.3329,7.3329,0,0,0,7.3847,7.3437,7.0255,7.0255,0,0,0,4.9707-1.9843.389.389,0,0,0,.02-.5518l-1.2676-1.31a.3766.3766,0,0,0-.5117,0,4.91,4.91,0,0,1-3.1289,1.166,4.7484,4.7484,0,0,1-.0215-9.49,4.8376,4.8376,0,0,1,3.15,1.2061.3275.3275,0,0,0,.5117,0l1.248-1.2881a.38.38,0,0,0-.0214-.5733,6.918,6.918,0,0,0-4.9493-1.9013,7.3673,7.3673,0,0,0-7.3847,7.3828m-11.1875,6.75a.3891.3891,0,0,0,.3886.39H153.42a.3891.3891,0,0,0,.3886-.39V48.38a.3891.3891,0,0,0-.3886-.39h-6.0547V44.41h5.0527a.3875.3875,0,0,0,.3887-.3877V42.3242a.4016.4016,0,0,0-.3887-.3886h-5.0527V38.5811H153.42a.3883.3883,0,0,0,.3886-.3887V36.5147a.3889.3889,0,0,0-.3886-.3887h-8.3243a.3889.3889,0,0,0-.3886.3887Zm-8.5313,0a.4039.4039,0,0,0,.3887.39h1.9023a.4025.4025,0,0,0,.3887-.39V38.5811h3.1309a.3883.3883,0,0,0,.3886-.3887V36.5147a.3889.3889,0,0,0-.3886-.3887h-8.94a.389.389,0,0,0-.3887.3887v1.6777a.3884.3884,0,0,0,.3887.3887h3.1289Zm-8.7734,0a.4025.4025,0,0,0,.3887.39h1.9a.4042.4042,0,0,0,.3907-.39V36.5147a.4042.4042,0,0,0-.3907-.3887h-1.9a.4024.4024,0,0,0-.3887.3887Zm-10.9443,0a.3892.3892,0,0,0,.3891.39h7.4868a.3883.3883,0,0,0,.3877-.39V48.38a.3883.3883,0,0,0-.3877-.39h-5.2158V36.5147a.4035.4035,0,0,0-.3892-.3887h-1.8818a.389.389,0,0,0-.3891.3887Zm-14.1949-6.75a4.6946,4.6946,0,1,1,4.6841,4.6846,4.7322,4.7322,0,0,1-4.6841-4.6846m-2.6592,0a7.3536,7.3536,0,1,0,7.3433-7.3828,7.2981,7.2981,0,0,0-7.3433,7.3828m-8.6728-.5508V38.6426h2.373a2.04,2.04,0,0,1,2.107,1.9834,2.11,2.11,0,0,1-2.107,2.1289ZM88.272,50.0557a.3893.3893,0,0,0,.3892.39H90.542a.4029.4029,0,0,0,.3892-.39V45.249h2.5571a4.5615,4.5615,0,1,0-.02-9.123H88.6612a.3891.3891,0,0,0-.3892.3887Z" transform="translate(-22.0874 -22.0889)"/><polygon class="a" points="29.253 55.823 29.736 55.82 29.761 58.405 29.278 58.412 29.253 55.823 29.253 55.823"/><polygon class="a" points="27.911 58.38 28.018 55.797 28.501 55.815 28.394 58.401 27.911 58.38 27.911 58.38"/><polygon class="a" points="30.487 55.797 30.971 55.768 31.127 58.349 30.644 58.38 30.487 55.797 30.487 55.797"/><polygon class="a" points="26.564 58.289 26.769 55.714 27.25 55.752 27.045 58.329 26.564 58.289 26.564 58.289"/><polygon class="a" points="31.736 55.707 32.219 55.661 32.472 58.232 31.991 58.28 31.736 55.707 31.736 55.707"/><polygon class="a" points="25.206 58.135 25.541 55.57 26.019 55.632 25.687 58.197 25.206 58.135 25.206 58.135"/><polygon class="a" points="32.964 55.562 33.444 55.491 33.824 58.049 33.348 58.12 32.964 55.562 32.964 55.562"/><polygon class="a" points="23.858 57.918 24.32 55.373 24.797 55.457 24.332 58.006 23.858 57.918 23.858 57.918"/><polygon class="a" points="34.185 55.362 34.66 55.267 35.169 57.802 34.693 57.897 34.185 55.362 34.185 55.362"/><polygon class="a" points="22.535 57.643 23.093 55.118 23.565 55.224 23.007 57.747 22.535 57.643 22.535 57.643"/><polygon class="a" points="35.394 55.104 35.864 54.984 36.501 57.492 36.028 57.609 35.394 55.104 35.394 55.104"/><polygon class="a" points="21.213 57.301 21.899 54.806 22.364 54.934 21.679 57.427 21.213 57.301 21.213 57.301"/><polygon class="a" points="36.606 54.782 37.071 54.647 37.797 57.129 37.333 57.266 36.606 54.782 36.606 54.782"/><polygon class="a" points="19.906 56.897 20.717 54.439 21.176 54.591 20.367 57.048 19.906 56.897 19.906 56.897"/><polygon class="a" points="37.789 54.41 38.243 54.251 39.091 56.697 38.636 56.854 37.789 54.41 37.789 54.41"/><polygon class="a" points="18.622 56.431 19.553 54.018 20.005 54.193 19.076 56.605 18.622 56.431 18.622 56.431"/><polygon class="a" points="38.948 53.985 39.398 53.805 40.365 56.203 39.916 56.384 38.948 53.985 38.948 53.985"/><polygon class="a" points="17.377 55.915 18.396 53.539 18.84 53.727 17.821 56.108 17.377 55.915 17.377 55.915"/><polygon class="a" points="40.091 53.506 40.53 53.302 41.613 55.651 41.174 55.855 40.091 53.506 40.091 53.506"/><polygon class="a" points="16.144 55.331 17.276 53.009 17.713 53.22 16.578 55.546 16.144 55.331 16.144 55.331"/><polygon class="a" points="41.207 52.972 41.64 52.747 42.833 55.043 42.403 55.267 41.207 52.972 41.207 52.972"/><polygon class="a" points="14.939 54.693 16.185 52.427 16.608 52.659 15.361 54.926 14.939 54.693 14.939 54.693"/><polygon class="a" points="42.302 52.389 42.719 52.143 44.024 54.378 43.604 54.621 42.302 52.389 42.302 52.389"/><polygon class="a" points="13.765 53.998 15.118 51.795 15.531 52.048 14.175 54.251 13.765 53.998 13.765 53.998"/><polygon class="a" points="43.366 51.753 43.771 51.489 45.181 53.659 44.775 53.922 43.366 51.753 43.366 51.753"/><polygon class="a" points="12.626 53.249 14.083 51.113 14.483 51.388 13.024 53.522 12.626 53.249 12.626 53.249"/><polygon class="a" points="44.409 51.058 44.808 50.78 46.292 52.897 45.896 53.175 44.409 51.058 44.409 51.058"/><polygon class="a" points="11.522 52.449 13.083 50.387 13.469 50.678 11.907 52.739 11.522 52.449 11.522 52.449"/><polygon class="a" points="45.411 50.327 45.794 50.031 47.379 52.072 46.999 52.368 45.411 50.327 45.411 50.327"/><polygon class="a" points="10.468 51.609 12.101 49.602 12.476 49.909 10.843 51.914 10.468 51.609 10.468 51.609"/><polygon class="a" points="46.378 49.55 46.746 49.234 48.427 51.2 48.058 51.517 46.378 49.55 46.378 49.55"/><polygon class="a" points="9.442 50.708 11.172 48.785 11.533 49.106 9.803 51.03 9.442 50.708 9.442 50.708"/><polygon class="a" points="47.308 48.727 47.659 48.397 49.432 50.28 49.079 50.613 47.308 48.727 47.308 48.727"/><polygon class="a" points="8.462 49.76 10.278 47.922 10.623 48.264 8.805 50.101 8.462 49.76 8.462 49.76"/><polygon class="a" points="48.194 47.865 48.532 47.518 50.393 49.313 50.057 49.663 48.194 47.865 48.194 47.865"/><polygon class="a" points="7.524 48.769 9.43 47.019 9.757 47.377 7.853 49.128 7.524 48.769 7.524 48.769"/><polygon class="a" points="49.044 46.962 49.363 46.598 51.309 48.304 50.989 48.667 49.044 46.962 49.044 46.962"/><polygon class="a" points="6.635 47.737 8.621 46.08 8.932 46.451 6.947 48.109 6.635 47.737 6.635 47.737"/><polygon class="a" points="49.852 46.022 50.152 45.642 52.175 47.251 51.874 47.631 49.852 46.022 49.852 46.022"/><polygon class="a" points="5.794 46.666 7.858 45.104 8.15 45.489 6.088 47.052 5.794 46.666 5.794 46.666"/><polygon class="a" points="50.612 45.043 50.896 44.651 52.995 46.164 52.711 46.556 50.612 45.043 50.612 45.043"/><polygon class="a" points="5.006 45.554 7.141 44.093 7.413 44.493 5.279 45.955 5.006 45.554 5.006 45.554"/><polygon class="a" points="51.334 44.017 51.602 43.614 53.756 45.05 53.487 45.451 51.334 44.017 51.334 44.017"/><polygon class="a" points="4.267 44.409 6.47 43.052 6.723 43.463 4.523 44.819 4.267 44.409 4.267 44.409"/><polygon class="a" points="52 42.973 52.249 42.558 54.468 43.886 54.22 44.302 52 42.973 52 42.973"/><polygon class="a" points="3.591 43.243 5.839 41.966 6.08 42.388 3.829 43.663 3.591 43.243 3.591 43.243"/><polygon class="a" points="52.618 41.899 52.846 41.474 55.128 42.691 54.9 43.12 52.618 41.899 52.618 41.899"/><polygon class="a" points="2.962 42.034 5.27 40.864 5.488 41.297 3.181 42.467 2.962 42.034 2.962 42.034"/><polygon class="a" points="53.182 40.798 53.388 40.362 55.728 41.468 55.521 41.904 53.182 40.798 53.182 40.798"/><polygon class="a" points="2.391 40.793 4.753 39.739 4.951 40.184 2.589 41.234 2.391 40.793 2.391 40.793"/><polygon class="a" points="53.696 39.675 53.88 39.226 56.274 40.214 56.088 40.662 53.696 39.675 53.696 39.675"/><polygon class="a" points="1.88 39.529 4.292 38.592 4.466 39.043 2.055 39.98 1.88 39.529 1.88 39.529"/><polygon class="a" points="54.158 38.523 54.319 38.068 56.756 38.938 56.595 39.394 54.158 38.523 54.158 38.523"/><polygon class="a" points="1.427 38.243 3.88 37.422 4.033 37.882 1.581 38.701 1.427 38.243 1.427 38.243"/><polygon class="a" points="54.565 37.339 54.709 36.878 57.178 37.655 57.033 38.117 54.565 37.339 54.565 37.339"/><polygon class="a" points="1.037 36.935 3.526 36.236 3.656 36.703 1.167 37.401 1.037 36.935 1.037 36.935"/><polygon class="a" points="54.915 36.153 55.039 35.685 57.54 36.341 57.419 36.807 54.915 36.153 54.915 36.153"/><polygon class="a" points="0.704 35.608 3.228 35.037 3.335 35.511 0.813 36.081 0.704 35.608 0.704 35.608"/><polygon class="a" points="55.211 34.955 55.308 34.478 57.841 35.006 57.743 35.48 55.211 34.955 55.211 34.955"/><polygon class="a" points="0.439 34.286 2.98 33.808 3.071 34.283 0.528 34.763 0.439 34.286 0.439 34.286"/><polygon class="a" points="55.448 33.739 55.523 33.264 58.077 33.661 58.005 34.139 55.448 33.739 55.448 33.739"/><polygon class="a" points="0.236 32.935 2.796 32.586 2.862 33.065 0.3 33.414 0.236 32.935 0.236 32.935"/><polygon class="a" points="55.627 32.55 55.686 32.071 58.254 32.37 58.196 32.851 55.627 32.55 55.627 32.55"/><polygon class="a" points="0.096 31.576 2.671 31.356 2.713 31.839 0.136 32.06 0.096 31.576 0.096 31.576"/><polygon class="a" points="55.752 31.41 55.785 30.926 58.366 31.097 58.334 31.58 55.752 31.41 55.752 31.41"/><polygon class="a" points="0.015 30.23 2.598 30.106 2.622 30.591 0.038 30.714 0.015 30.23 0.015 30.23"/><polygon class="a" points="55.81 30.239 55.829 29.756 58.412 29.846 58.398 30.329 55.81 30.239 55.81 30.239"/><polygon class="a" points="0 29.346 0.002 28.861 2.587 28.869 2.587 29.353 0 29.346 0 29.346"/><polygon class="a" points="55.825 28.563 58.412 28.522 58.419 29.005 55.835 29.046 55.825 28.563 55.825 28.563"/><polygon class="a" points="0.024 27.979 0.051 27.496 2.634 27.636 2.609 28.117 0.024 27.979 0.024 27.979"/><polygon class="a" points="55.768 27.327 58.35 27.159 58.381 27.643 55.8 27.811 55.768 27.327 55.768 27.327"/><polygon class="a" points="0.114 26.633 0.159 26.149 2.733 26.386 2.689 26.869 0.114 26.633 0.114 26.633"/><polygon class="a" points="55.655 26.079 58.227 25.813 58.275 26.295 55.704 26.56 55.655 26.079 55.655 26.079"/><polygon class="a" points="0.263 25.274 0.334 24.795 2.894 25.162 2.826 25.641 0.263 25.274 0.263 25.274"/><polygon class="a" points="55.484 24.855 58.039 24.463 58.111 24.94 55.556 25.334 55.484 24.855 55.484 24.855"/><polygon class="a" points="0.477 23.924 0.571 23.449 3.109 23.943 3.018 24.418 0.477 23.924 0.477 23.924"/><polygon class="a" points="55.253 23.639 57.784 23.121 57.883 23.594 55.348 24.114 55.253 23.639 55.253 23.639"/><polygon class="a" points="0.753 22.603 0.863 22.131 3.382 22.723 3.271 23.193 0.753 22.603 0.753 22.603"/><polygon class="a" points="54.965 22.435 57.472 21.792 57.592 22.26 55.087 22.904 54.965 22.435 54.965 22.435"/><polygon class="a" points="1.093 21.279 1.227 20.814 3.709 21.53 3.575 21.994 1.093 21.279 1.093 21.279"/><polygon class="a" points="54.622 21.245 57.094 20.482 57.235 20.945 54.764 21.707 54.622 21.245 54.622 21.245"/><polygon class="a" points="1.49 19.973 1.648 19.515 4.096 20.354 3.938 20.812 1.49 19.973 1.49 19.973"/><polygon class="a" points="54.222 20.056 56.662 19.205 56.822 19.661 54.381 20.514 54.222 20.056 54.222 20.056"/><polygon class="a" points="1.951 18.687 2.129 18.237 4.533 19.198 4.353 19.647 1.951 18.687 1.951 18.687"/><polygon class="a" points="53.768 18.904 56.166 17.933 56.347 18.382 53.949 19.353 53.768 18.904 53.768 18.904"/><polygon class="a" points="2.47 17.426 2.672 16.985 5.024 18.061 4.825 18.502 2.47 17.426 2.47 17.426"/><polygon class="a" points="53.262 17.773 55.608 16.689 55.812 17.13 53.464 18.214 53.262 17.773 53.262 17.773"/><polygon class="a" points="3.045 16.206 3.265 15.773 5.576 16.934 5.356 17.367 3.045 16.206 3.045 16.206"/><polygon class="a" points="52.7 16.668 54.995 15.473 55.219 15.901 52.926 17.096 52.7 16.668 52.7 16.668"/><polygon class="a" points="3.682 14.998 3.92 14.576 6.172 15.85 5.933 16.272 3.682 14.998 3.682 14.998"/><polygon class="a" points="52.091 15.588 54.324 14.285 54.567 14.704 52.335 16.005 52.091 15.588 52.091 15.588"/><polygon class="a" points="4.374 13.822 4.632 13.414 6.819 14.795 6.562 15.205 4.374 13.822 4.374 13.822"/><polygon class="a" points="51.429 14.54 53.601 13.132 53.864 13.537 51.694 14.945 51.429 14.54 51.429 14.54"/><polygon class="a" points="5.121 12.681 5.399 12.285 7.515 13.769 7.236 14.165 5.121 12.681 5.121 12.681"/><polygon class="a" points="50.722 13.52 52.825 12.012 53.105 12.406 51.006 13.914 50.722 13.52 50.722 13.52"/><polygon class="a" points="5.919 11.576 6.215 11.192 8.258 12.779 7.961 13.16 5.919 11.576 5.919 11.576"/><polygon class="a" points="49.969 12.536 51.996 10.931 52.297 11.309 50.269 12.915 49.969 12.536 49.969 12.536"/><polygon class="a" points="6.766 10.508 7.082 10.14 9.044 11.822 8.732 12.189 6.766 10.508 6.766 10.508"/><polygon class="a" points="49.168 11.588 51.118 9.889 51.437 10.253 49.487 11.953 49.168 11.588 49.168 11.588"/><polygon class="a" points="7.663 9.48 7.995 9.128 9.877 10.905 9.545 11.256 7.663 9.48 7.663 9.48"/><polygon class="a" points="48.326 10.677 50.195 8.888 50.528 9.239 48.661 11.026 48.326 10.677 48.326 10.677"/><polygon class="a" points="8.598 8.511 8.942 8.17 10.761 10.012 10.416 10.351 8.598 8.511 8.598 8.511"/><polygon class="a" points="47.444 9.806 49.226 7.931 49.574 8.264 47.794 10.14 47.444 9.806 47.444 9.806"/><polygon class="a" points="9.586 7.571 9.946 7.249 11.675 9.173 11.315 9.497 9.586 7.571 9.586 7.571"/><polygon class="a" points="46.52 8.979 48.212 7.022 48.579 7.337 46.887 9.294 46.52 8.979 46.52 8.979"/><polygon class="a" points="10.617 6.679 10.992 6.374 12.627 8.379 12.25 8.685 10.617 6.679 10.617 6.679"/><polygon class="a" points="45.552 8.183 47.17 6.165 47.548 6.468 45.929 8.485 45.552 8.183 45.552 8.183"/><polygon class="a" points="11.689 5.836 12.079 5.55 13.613 7.629 13.224 7.916 11.689 5.836 11.689 5.836"/><polygon class="a" points="44.553 7.444 46.076 5.352 46.468 5.638 44.944 7.729 44.553 7.444 44.553 7.444"/><polygon class="a" points="12.795 5.043 13.198 4.775 14.634 6.926 14.229 7.197 12.795 5.043 12.795 5.043"/><polygon class="a" points="43.524 6.753 44.944 4.592 45.348 4.858 43.928 7.02 43.524 6.753 43.524 6.753"/><polygon class="a" points="13.941 4.302 14.356 4.053 15.688 6.272 15.273 6.521 13.941 4.302 13.941 4.302"/><polygon class="a" points="42.467 6.111 43.779 3.883 44.197 4.13 42.881 6.358 42.467 6.111 42.467 6.111"/><polygon class="a" points="15.118 3.617 15.545 3.389 16.768 5.667 16.341 5.895 15.118 3.617 15.118 3.617"/><polygon class="a" points="41.376 5.518 42.582 3.231 43.013 3.457 41.806 5.744 41.376 5.518 41.376 5.518"/><polygon class="a" points="16.329 2.986 16.766 2.777 17.875 5.114 17.439 5.32 16.329 2.986 16.329 2.986"/><polygon class="a" points="40.261 4.977 41.355 2.635 41.794 2.839 40.7 5.182 40.261 4.977 40.261 4.977"/><polygon class="a" points="17.554 2.419 17.997 2.228 19.021 4.603 18.578 4.794 17.554 2.419 17.554 2.419"/><polygon class="a" points="39.123 4.492 40.104 2.098 40.551 2.281 39.57 4.675 39.123 4.492 39.123 4.492"/><polygon class="a" points="18.815 1.904 19.268 1.734 20.176 4.155 19.723 4.326 18.815 1.904 18.815 1.904"/><polygon class="a" points="37.963 4.059 38.825 1.619 39.281 1.781 38.422 4.219 37.963 4.059 37.963 4.059"/><polygon class="a" points="20.1 1.449 20.564 1.3 21.352 3.763 20.888 3.913 20.1 1.449 20.1 1.449"/><polygon class="a" points="36.785 3.681 37.524 1.202 37.988 1.34 37.25 3.819 36.785 3.681 36.785 3.681"/><polygon class="a" points="21.409 1.052 21.874 0.926 22.542 3.427 22.072 3.55 21.409 1.052 21.409 1.052"/><polygon class="a" points="35.575 3.35 36.223 0.848 36.691 0.967 36.044 3.472 35.575 3.35 35.575 3.35"/><polygon class="a" points="22.731 0.718 23.203 0.615 23.746 3.145 23.273 3.246 22.731 0.718 22.731 0.718"/><polygon class="a" points="34.368 3.086 34.89 0.552 35.365 0.649 34.841 3.182 34.368 3.086 34.368 3.086"/><polygon class="a" points="24.056 0.452 24.532 0.368 24.978 2.916 24.5 2.998 24.056 0.452 24.056 0.452"/><polygon class="a" points="33.148 2.875 33.544 0.322 34.024 0.394 33.627 2.95 33.148 2.875 33.148 2.875"/><polygon class="a" points="25.404 0.243 25.885 0.183 26.202 2.749 25.723 2.809 25.404 0.243 25.404 0.243"/><polygon class="a" points="31.907 2.72 32.206 0.149 32.686 0.206 32.386 2.775 31.907 2.72 31.907 2.72"/><polygon class="a" points="26.763 0.098 27.246 0.061 27.434 2.641 26.952 2.677 26.763 0.098 26.763 0.098"/><polygon class="a" points="30.673 2.624 30.842 0.043 31.327 0.077 31.156 2.656 30.673 2.624 30.673 2.624"/><polygon class="a" points="28.128 0.015 28.611 0.004 28.668 2.59 28.185 2.601 28.128 0.015 28.128 0.015"/><polygon class="a" points="29.439 2.585 29.478 0 29.961 0.007 29.921 2.594 29.439 2.585 29.439 2.585"/><path class="a" d="M73.5914,64.1221c-.4307-.0615-1.0293-1.5322-1.0069-2.9238a4.4683,4.4683,0,0,1,.1211-1.0772A33.7642,33.7642,0,0,0,73.98,51.604a22.3774,22.3774,0,0,0-.1474-2.583,24.0574,24.0574,0,0,0-1.1963-5.8569l-.0039-.01a2.4074,2.4074,0,0,0,.5283-1.2666,2.211,2.211,0,0,0-2.1592-2.1621,2.5663,2.5663,0,0,0-.4.0342l-.8926.2749a3.0613,3.0613,0,0,0-1.9365-.6025c-.1133,0-.2129.0039-.2988.0039a.8625.8625,0,0,1-.2891-.0318,2.03,2.03,0,0,0-.7051-.13,1.69,1.69,0,0,0-.3027.0264l-.0176-.0049a6.7874,6.7874,0,0,0-1.2216-.1069,8.91,8.91,0,0,0-1.1934.0854,3.3525,3.3525,0,0,0-.8623-.8945c-.002-.0141-.002-.0664-.002-.1826a3.565,3.565,0,0,0-.457-1.2085,6.6312,6.6312,0,0,0-3.085-2.666,4.8855,4.8855,0,0,0,.1055-.8667.4306.4306,0,0,0-.0068-.0913l-.0586-.0044h.0586c-.0117-.0493.0986-.2681.1445-.4878.001-.023.0039-.04.0039-.0615a5.7257,5.7257,0,0,0-.5508-1.3765,1.1588,1.1588,0,0,0-.95-.5347,2.3315,2.3315,0,0,0-1.5771-.5258,1.6258,1.6258,0,0,0-.23.0112,5.8943,5.8943,0,0,0-1.1582.37,6.8042,6.8042,0,0,0-.5654.5664,1.6323,1.6323,0,0,0-.8086-.2109,2.2059,2.2059,0,0,0-1.166.3711c0-.0142-.4844.05-.7627.0844-.3438.0425-.6231.2-1.33,1.0406a1.7169,1.7169,0,0,0-.4414,1.1259,1.4406,1.4406,0,0,0,.13.6114,2.1657,2.1657,0,0,0-.7188.4375,1.7351,1.7351,0,0,0-.2725,1.0395c-.0361.0034-.0732.0069-.1093.01a2.8677,2.8677,0,0,0-1.0782.36c.004.0381-.3916.066-.49.3873a.1674.1674,0,0,0,.02.0805.6729.6729,0,0,0,.6309.3555h.0146c.292.0234.4239-.0723.4639-.1465l.0137-.0156c.1269.1548.9043.8818.9131.8921a1.3452,1.3452,0,0,0,.708.2129,1.0064,1.0064,0,0,0,.5771-.1719c.3145-.2373.7158-.17.8662-.5239a2.8994,2.8994,0,0,0,.6719-.2022.8075.8075,0,0,0,.2725-.2207l.0136-.0112v-.0025c.0147-.0273.3907-.4189.4541-.3828v.0127a4.8731,4.8731,0,0,1,.376,1.82,2.9777,2.9777,0,0,1-.3613,1.5279c-.0459.0732-.27.5879-.418.9287a.7574.7574,0,0,0-.2881-.3052.6324.6324,0,0,0-.2343-.3291V40.085c-.0245-.479-.5254-.5152-.4375-.5405-.1084-.3067-.5108-.4512-.5206-.4688-.1728-.2915-.6611-.3335-.6709-.3447a.32.32,0,0,0-.0576-.0059,3.443,3.443,0,0,0-.8271.2417A1.0558,1.0558,0,0,0,49.5,38.95a1.1074,1.1074,0,0,0-.4073.0772,1.0113,1.0113,0,0,0-.1523-.0108,1.0457,1.0457,0,0,0-.97.6284,1.4788,1.4788,0,0,0-.51.542,18.61,18.61,0,0,0-.6,2.1c-.0811.5874-.0371.4322-.086.5689-.0244.1382-.7783.8017-.7959,1.3618a.4978.4978,0,0,0,.0791.2671,4.86,4.86,0,0,0-1.8212,4.0762,7.5868,7.5868,0,0,0,.0429.7944,12.811,12.811,0,0,0-1.35-.4414.8153.8153,0,0,0-.3193-.2085,2.89,2.89,0,0,1-.6406-.34,1.2288,1.2288,0,0,0-.71-.2955l.0059-.0048a4.6253,4.6253,0,0,1-.6817-1.4253,7.9545,7.9545,0,0,1-.3564-2.2984c0-.0259.0009-.0532.0009-.0835l-.0009-.0273a7.208,7.208,0,0,0-.7891-2.5239c-.0117-.0284-.0225-.0542-.03-.0782l.8477-.4262a1.8149,1.8149,0,0,0-.02.2636.7788.7788,0,0,0,.1.419,2.1738,2.1738,0,0,0,1.83,1.3642c.1318.0113,1.3164.0552,1.32.0552a.114.114,0,0,0,.0478-.0063,2.13,2.13,0,0,0,1.0323.3515,1.2106,1.2106,0,0,0,.6816-.2148.7658.7658,0,0,0,.3613-.7046,1.147,1.147,0,0,0-.0136-.1768.6494.6494,0,0,0,.2861-.4868.4763.4763,0,0,0-.0723-.249l-.1-.1621.461-.0767c.0244-.03.3759-.0659.4287-.396a.2658.2658,0,0,0-.0127-.0786l-.1065-.0932c-.0039,0-.6064-.1128-.72-.1216-.0635-.002-.7539-.1065-.7559-.1065l-.2812.0308-.3067-.082-.0019-.0059c-.1143-.3408-.7148-.7734-.9063-.9141a.4577.4577,0,0,0,.2266-.2055,3.4279,3.4279,0,0,0,.0488-.6685v-.083a.1629.1629,0,0,0-.01-.0537,1.9366,1.9366,0,0,0,.2841-1.0425l.6084.33a2.3131,2.3131,0,0,0,.7559.2725h.0381a.3556.3556,0,0,0,.335-.3506c0-.0088.1-.105.0976-.1133a.5984.5984,0,0,0,.2412-.2017.8023.8023,0,0,0,.3457-.0815,1.05,1.05,0,0,0,.1621-.1421.43.43,0,0,0,.2168.0762c.1592.0024.2832-.1446.3125-.3428a14.3857,14.3857,0,0,1,.5772-1.6128.8728.8728,0,0,1,.1064-.2119.9783.9783,0,0,0,.3057.061.6171.6171,0,0,0,.0859-.0068.5136.5136,0,0,0,.5293-.4487,2.8271,2.8271,0,0,0,.0918-.6387.8966.8966,0,0,0-.5371-.9165,1.42,1.42,0,0,0-1.1465-.8477,1.0332,1.0332,0,0,0-.1338.0093,3.4357,3.4357,0,0,0-1.7754-.6177A1.97,1.97,0,0,0,44.96,32a4.8482,4.8482,0,0,0-.9228-.0835c-.542.0044-1.2305.0806-1.3575.6265-.3105.0571-1.2558.2007-1.3847.7348a1.1543,1.1543,0,0,0-.1651.0479.8981.8981,0,0,0-.4541.6631,3.6356,3.6356,0,0,0-1.2509-.2652h-.0625c-.0586,0-.09.002-.0938.002a14.37,14.37,0,0,0-1.4824-.0806,5.631,5.631,0,0,0-1.1524.0962,11.63,11.63,0,0,0-2.5351.7105c-.4873.3144-.9234,1.1787-1.2573,1.3594-.3726.22-1.0025.4619-1.1861,1.2006-.0234.0948-.0468.2027-.0678.3194-.1539.041-1.149.3828-2.0928,2.0918.0137-.0191-.6265.7446-.8325.9257a.616.616,0,0,0-.1543.47,1.4688,1.4688,0,0,0,.2939.9257c.0542.0474.19.2159.3716.4a.9486.9486,0,0,0-.1714.5679,2.1773,2.1773,0,0,0,.3784,1.1094c-.2934.2036-.9409.8618-1.1675,2.7466a19.2212,19.2212,0,0,1-.4155,3.2539,11.1157,11.1157,0,0,1-1.8008,2.4565.6474.6474,0,0,0,.0806.9531l.9238.6387a.1382.1382,0,0,0,.083.0254.3492.3492,0,0,0,.0264.1c.124.23.4268.252.7847.3828a6.69,6.69,0,0,0,.7446.1778.3545.3545,0,0,0,.2266.08c.5488.0293.7973,0,.997.2344a1.4641,1.4641,0,0,0,.3941.3359,2.453,2.453,0,0,0,.4194.0665,1.654,1.654,0,0,0-.8286,1.0234,8.3724,8.3724,0,0,0-.12,1.0527,1.0968,1.0968,0,0,0,1.1592,1.2364H30.91l.0806-.0166a5.8524,5.8524,0,0,0,.8022-.5293,2.7519,2.7519,0,0,0,.42,1.2021c.0132.0166.0274.0332.042.0488a3.4725,3.4725,0,0,0-.061.6534,2.643,2.643,0,0,0,.6631,1.8466.9266.9266,0,0,0-.2471.5323,3.4278,3.4278,0,0,1-.2324,1.2607,8.0523,8.0523,0,0,0-.6651,1.8936.2581.2581,0,0,0,.0083.0761,4.1034,4.1034,0,0,0,.3516.7842c.0806.15.16.2979.2173.4063.03.0546.0532.1015.0693.1337.0093.0157.0152.0293.0186.0362l.0039-.002a.64.64,0,0,0,.293.334,2.1576,2.1576,0,0,0,.3667.0469h.0224l.0152-.0645.0029.0625c.03-.0019.1421.0127.229.0157a.3527.3527,0,0,0,.0757-.0079c.0771-.04.2905-.01.3613-.2714.0015-.0538,0-.1.0039-.127h0l-.0054-.001a.9084.9084,0,0,0,.35-.5195.1761.1761,0,0,0-.1235-.17c-.1069-.0342-.3047-.1026-.4053-.1367-.1528-.0459-.2085-.05-.2143-.0889a.6435.6435,0,0,1-.0747-.1914.1065.1065,0,0,1,.01-.043.702.702,0,0,1,.2569-.2695,10.8364,10.8364,0,0,1,1.37-.8535.0631.0631,0,0,0,.0151,0v-.0039a1.9979,1.9979,0,0,1,.7559.2841,21.3812,21.3812,0,0,0,2.2021,1.7286,10.6918,10.6918,0,0,0,2.5137,1.0966,20.5172,20.5172,0,0,1,2.4463.4825,4.5222,4.5222,0,0,0,1.1465.1718,1.5189,1.5189,0,0,0,1.17-.4218c.4707-.5489.7363-.5967.7871-1.0459a10.0071,10.0071,0,0,0,.083-1.0371,1.9084,1.9084,0,0,0-.1885-.93,8.5036,8.5036,0,0,0-.5927-.8731.141.141,0,0,0-.0362-.0322.122.122,0,0,1,.003-.0186,1.8164,1.8164,0,0,0,.0312-.3271,2.1535,2.1535,0,0,0-.3252-1.03c-.0254-.0723-.1767-.5264-.35-1.0664-.0977-.3027-.2031-.6377-.3008-.9531.0987-.09.4072-.3613.7354-.6953.1982.1943,2.21,2.3535,3.084,2.5508a.14.14,0,0,0,.0722.0185,7.4912,7.4912,0,0,0,1.8262-.3232c.6807-.2354,1.1533-.6534,1.62-.6426a.9181.9181,0,0,1,.4512.12.5082.5082,0,0,0,.0264.0527.96.96,0,0,0,.2119.2579l.1045,1.746-.001.03c0,.0781.0058.4063.2744.502l-.2461,1.747-4.31,1.0108a.1251.1251,0,0,0-.0821.0351.1362.1362,0,0,0-.0469.1026v1.1015l.0928.1319L52.34,69.83l.083.0019,7.7783-2.2861a.1417.1417,0,0,0,.1-.1308v-1.1h0V66.31a.1394.1394,0,0,0-.1094-.13l-4.4677-.9189-.6953.1591-.4834-3.2226a.1835.1835,0,0,0,.0166-.02,1.9468,1.9468,0,0,0,.3994-1.166,2.0058,2.0058,0,0,0-.0547-.458,5.6117,5.6117,0,0,1-.1992-1.2129,1.2081,1.2081,0,0,1,.0771-.4375c.0215-.126,1.48-1.8877,2.4522-3.6612l.0019-.0039c-.0088.62-.02,1.62-.02,2.083,0,.1241,0,.2032.0039.2491.0049.0722.0137.23.0137.42a1.85,1.85,0,0,1-.167.915,2.8768,2.8768,0,0,0-.5108,1.2637.2591.2591,0,0,0,.0049.0723,3.6359,3.6359,0,0,1,.0186.3789,1.89,1.89,0,0,1-.0293.375c-.0528.1357-.3106.9423-.3106.9443a.6127.6127,0,0,0-.0166.1533.7268.7268,0,0,0,.6426.7793,7.6255,7.6255,0,0,0,.8877.0557,2.5575,2.5575,0,0,0,1.001-.1475.9932.9932,0,0,0,.5927-.7451.3681.3681,0,0,0-.03-.1465c-.127-.28-.3828-.4228-.5166-.61a1.3311,1.3311,0,0,1-.2823-.668.3918.3918,0,0,1,.0049-.0693,2.4571,2.4571,0,0,0,.1045-.501c.002-.0078.002-.0117,0-.0147l.001-.0049h-.0049l.0049-.0156c-.0029-.0488-.0088-.1465-.0088-.2607a1.3474,1.3474,0,0,1,.0918-.5928c.1514-.2129,1.207-1.8271,1.207-1.83a6.82,6.82,0,0,0,.708-3.0156V54.291c.5713-.0468.9844-.0586,1.1866-.0625l-.0313.128-.52,1.11c0-.0019-.875,1.69-1.0332,2.1026a4.8092,4.8092,0,0,0-.4658,1.99,4.6814,4.6814,0,0,0,.3349,1.71l.2862,1.0567c.4746,1.5391.7324,1.7891,1.3447,1.88a.2683.2683,0,0,0,.0381,0,3.1543,3.1543,0,0,1-.1524.4736,3.6775,3.6775,0,0,0-.2578.63,1.39,1.39,0,0,0-.0547.37.8643.8643,0,0,0,.0078.1152c.041.3721.0381.8155.4717.8985a1.6909,1.6909,0,0,0,.1738.0078,3.2723,3.2723,0,0,0,.5782-.0645,2.7759,2.7759,0,0,0,.623.1582c.0986.0069.2119.02.3262.02a.717.717,0,0,0,.3691-.083c.1328-.0879.4326-.1905.5987-.3125.1347-.1162.5146-.4.5576-.7579a.0414.0414,0,0,0,.0019-.0283l.001-.0049h-.0029l.0029-.0068a4.37,4.37,0,0,0-.6533-1.2119c.0117.0234.0049-.001-.0078-.0547.57.1143,2.2675.1729,4.0254.2617.57.0274.6318.02,1.1406.0381.0849.002.1816.0039.2832.0039,1.3291,0,3.7685-.2676,3.7725-.2676a.14.14,0,0,0,.123-.1259A.135.135,0,0,0,73.5914,64.1221ZM67.189,39.7207a.1565.1565,0,0,0,.0215-.0259,1.8472,1.8472,0,0,0,.2627.0157c.0937,0,.1914-.0044.2988-.0044a2.8054,2.8054,0,0,1,1.8291.59l.124.023.9366-.294a2.57,2.57,0,0,1,.34-.0254,1.9393,1.9393,0,0,1,1.8818,1.8877c.02.7471-1.1269,1.8452-1.1269,1.85l-1.1895.97a6.4923,6.4923,0,0,1-1.8671,1.43c-2.6944-.7363-3.4444-1.8589-3.4483-2.9458C65.2417,41.666,66.8042,40.07,67.189,39.7207Zm-.71-.1723a1.7493,1.7493,0,0,1,.4327.0581c-.5039.4917-1.9239,1.9892-1.9336,3.5849-.002,1.2071.8535,2.4029,3.3994,3.1426a2.01,2.01,0,0,1-.9209.22,2.7444,2.7444,0,0,1-.5029-.0532c-1.7774-.36-3.4932-2.5874-3.5176-2.6108a2.1886,2.1886,0,0,0-.1426-.6666.1327.1327,0,0,0,.0508-.0981c-.0078-.0273.8906-2.7808,2.4941-3.4111A1.2476,1.2476,0,0,1,66.479,39.5484Zm-3.3007,4.727c0,.0811-.003.1274-.003.1294-.0048.0088-.3574,1.2046-1.1845,1.4941-.1182.0445-.3858.2149-.4434.24-.01.0161-.0176.0322-.0273.0483.0117-.0649.02-.11.02-.1113a.1374.1374,0,1,0-.2715-.042v-.0024a10.82,10.82,0,0,1-.2969,1.2783c-.0673.1562-.1064.2563-.1064.2573-.08.1426-.167.2808-.252.4043-.51.7212-.9326.84-1.1855.8423a.65.65,0,0,1-.2481-.0449l.1573-.0953a.1383.1383,0,1,0-.1436-.2363l-.2773.1685a.14.14,0,0,0-.0381.0361c-.1406-.0576-.2822-.1133-.2842-.1133l-.1445.0283-.293.2745c.0049-.0074.002-.0088-.0078-.0088h-.0107c-.1993.0444-.4415-.5552-.5176-.77a.6378.6378,0,0,0-.4776-.3555c-.041-.002-.3047-.0508-.3359-.0562-.002-.017-.6777-.5468-.7354-.6245a2.08,2.08,0,0,1-.3828-.8935,4.4454,4.4454,0,0,1-.0547-.6963c0-.0659.002-.13.004-.1934a2.6365,2.6365,0,0,1,.6035-1.7031l.4824-.4126c.0029-.0039.3574-.33.4258-.3789.0459-.0381.5019-.2129.6972-.3276a.9439.9439,0,0,1,.4131-.06c.0947,0,.1807.0044.251.0044h.04l.0127-.0039v.0019a5.48,5.48,0,0,1,.8614.166c.0586.021.6406.3619.6386.3682a.3888.3888,0,0,1,.04.1958.4052.4052,0,0,1-.03.1636,5.8963,5.8963,0,0,1-.6973,1.1982.4082.4082,0,0,0-.125.2832.6348.6348,0,0,0,.2129.4043.1286.1286,0,0,1,.0069.07.2766.2766,0,0,1-.0147.0981c0,.04-.1748.16-.2471.353a.9679.9679,0,0,0-.0371.3091,1.2809,1.2809,0,0,0,.084.4951.2606.2606,0,0,0,.2529.1519,1.94,1.94,0,0,0,.586-.1978.1453.1453,0,0,0,.0615-.0058.8482.8482,0,0,0,.65-.3433l.0029.0059c.0615-.0386.2471-.0166.4063-.1211a4.0233,4.0233,0,0,0,.41-.5215c.09-.1065.1963-.2935.2325-.3213a.454.454,0,0,0,.1289-.31.3.3,0,0,0-.0342-.146c.0176-.0176.0449-.0415.0752-.0669a.38.38,0,0,0,.1064-.2857.7758.7758,0,0,0-.0449-.2549c-.0615-.1577-.3174-.5278-.32-.5771a3.0993,3.0993,0,0,1,.1221-.3l-.042-.0445h.0468v-.0063h0a.5022.5022,0,0,0-.3349-.334c.0146-.041.0439-.1123.0713-.19a.494.494,0,0,0,.0107-.064l-.0068-.0151q.0526-.003.1142-.003c.502.0166,1.3506.14,1.419,1.4742l.001.0024C63.1753,44.1,63.1783,44.2012,63.1783,44.2754Zm-3.1514,4.646a10.6293,10.6293,0,0,1-.667.9614,1.93,1.93,0,0,1-.6982.4107,4.1084,4.1084,0,0,1-.3946.1255l-2.6679.3188-.1739.02c-.081-.2822-.2988-1.0376-.4033-1.51a.7.7,0,0,1-.0127-.1319,2.4936,2.4936,0,0,1,.6748-1.3432,1.1386,1.1386,0,0,0,.291-.4707c.2393.2133.712.5742.7178.5815a2.7023,2.7023,0,0,0,.4326.0874.4036.4036,0,0,1,.2451.2c.09.14.2227.8809.7667.9258a.6456.6456,0,0,0,.13-.0171l.3037-.2652c.1338.0533.3975.1592.4522.1841a.8885.8885,0,0,0,.4043.0913A1.2082,1.2082,0,0,0,60.0269,48.9214ZM55.313,44.357l-.0019-.0137a.6465.6465,0,0,1-.02-.1509c.003-.043.003-.0405,0-.043.251-.185.2071-.5088.3565-.7275a.39.39,0,0,1,.2676-.2022c.6377-.1723.4638-.7236.707-.7153a5.8535,5.8535,0,0,0,.8057-.39l.0107,0,.0186.0019a6.1269,6.1269,0,0,0,.789-.2324c.0576-.01.2217-.0381.3916-.0552.1065-.01.2129-.019.2959-.019a.4021.4021,0,0,1,.0723.0019c.0185.0029.0293.0069.0342.0029a4.21,4.21,0,0,0,.5849.2676,1.8356,1.8356,0,0,0,.4522.1382c.124.002.7666.2642.9463.2808a1.9735,1.9735,0,0,1,.2558.03.7.7,0,0,1,.0791.023.7455.7455,0,0,0-.082.26.1973.1973,0,0,0,.1123.1811,1.21,1.21,0,0,1,.167.0933.4856.4856,0,0,1,.0654.0551v.0015a.5773.5773,0,0,0-.1289.32.2052.2052,0,0,0,.0147.0811c.0449.1513.2959.4956.3222.5849a.5166.5166,0,0,1,.0313.1636.14.14,0,0,1-.0176.0835c-.0566.064-.16.0913-.1836.2656a.2059.2059,0,0,0,.06.1426l-.0069.0069a.2035.2035,0,0,1-.0419.1108,3.3069,3.3069,0,0,0-.2491.3384c-.0869.1-.3086.4482-.3711.4848-.0029.06-.3466-.0424-.5068.2491.0029.0019.0029.0019-.0312.0234a1.0983,1.0983,0,0,1-.3926.1362l-.002.0005-.0039-.0005h-.001a.0524.0524,0,0,0-.04.0049c-.1826.0376-.4375.1987-.5645.19v.0147a1.0458,1.0458,0,0,1-.0615-.3843.759.759,0,0,1,.02-.2192c.0157-.0747.1631-.1748.2432-.3428a.5381.5381,0,0,0,.0371-.1982.4018.4018,0,0,0-.0771-.251c-.0518-.0513-.1495-.16-.1436-.2232,0-.0258.0049-.0468.0439-.0893a6.0643,6.0643,0,0,0,.7627-1.2964.7518.7518,0,0,0,.045-.2593.6306.6306,0,0,0-.1084-.3765,5.2361,5.2361,0,0,0-.7276-.4365,4.8393,4.8393,0,0,0-.9795-.1914h-.0039l-.0088-.0014-.01.0014h-.03c-.0566,0-.1494-.0049-.251-.0049a1.1026,1.1026,0,0,0-.5605.105c-.1543.0952-.5791.2466-.71.336-.11.0805-.4443.3935-.4482.3979l-.4864.4131a2.7646,2.7646,0,0,0-.6757,1.685.1716.1716,0,0,1-.0323-.1108.1872.1872,0,0,1,.003-.0425.46.46,0,0,0,.0185-.1382A1.8682,1.8682,0,0,0,55.313,44.357Zm9.6241-4.8912a6.8454,6.8454,0,0,1,.707.0347c-1.4854.6934-2.3008,2.7378-2.5147,3.4043a1.6172,1.6172,0,0,0-1.3789-.6743,1.77,1.77,0,0,0-.3545.0317c-.0048.001-.0058.0059-.0107.0073-.1367-.0375-.2832-.0156-.3477-.0415-.0576.004-.7216-.2617-.9414-.2812a2.0426,2.0426,0,0,1-.3711-.1191,4.3375,4.3375,0,0,1-.5351-.2427.464.464,0,0,0-.2559-.0493c-.0381,0-.0761.0014-.1172.0039a3.1043,3.1043,0,0,1,.9883-.729A12.66,12.66,0,0,1,64.9371,39.4658Zm-2.752-2.3374a3.6494,3.6494,0,0,1,.42,1.0567,5.7536,5.7536,0,0,0-1.0088-.5391.14.14,0,0,0-.1806.0767.1371.1371,0,0,0,.0771.1787,5.6859,5.6859,0,0,1,1.14.6362,3.3916,3.3916,0,0,1,.8086.7818,14.0615,14.0615,0,0,0-3.65,1.1909,2.7371,2.7371,0,0,1-1.39-2.1558.9672.9672,0,0,1,.0176-.1963,1.4005,1.4005,0,0,0,.1592-.1782.9032.9032,0,0,0,.1367-.5366,4.2088,4.2088,0,0,0-.04-.481.5106.5106,0,0,1,.1709-.2763c.2343-.2276.1845-.6812.2041-.7789-.0157-.0127.1074-.1108.2246-.2275a.3519.3519,0,0,0,.0595-.2173,5.02,5.02,0,0,0-.1074-.6684.2658.2658,0,0,1-.0029-.0489.66.66,0,0,1,.0254-.1616A6.3107,6.3107,0,0,1,62.1851,37.1284Zm-7.53-5.5053a.1314.1314,0,0,0,.0528-.0552.0349.0349,0,0,0,.01-.0156,7.1034,7.1034,0,0,1,.5713-.5826,8.5691,8.5691,0,0,1,1.0332-.3159c.002.002.0713-.0053.1846-.0053a2.0474,2.0474,0,0,1,1.418.4785l.0947.041c.0029,0,.6357.0532.7637.3808a6.751,6.751,0,0,1,.5273,1.2618v.0171a4.1231,4.1231,0,0,0-.15.5322.3869.3869,0,0,0,.0088.0659c-.002-.0044-.002.0093-.002.03a4.2958,4.2958,0,0,1-.1074.8389c-.0068.0185-.0176.0419-.0254.0659a1.1208,1.1208,0,0,0-.0839.3847.4941.4941,0,0,0,.0058.0869,5.9936,5.9936,0,0,1,.1035.63c.002.0445-.0068.0386,0,.0445-.0566.0922-.2422.1577-.2832.3833.0088.0957-.0449.5747-.1045.581a.7345.7345,0,0,0-.27.481v.01c.003.0913.0391.2749.0391.481a.6807.6807,0,0,1-.0811.3706,1.0066,1.0066,0,0,1-.1318.147.4041.4041,0,0,0-.2676.0844l-.1465.107-.0566.083s-.0332.1513-.0791.3022a1.2391,1.2391,0,0,1-.0459.1416c-.0684-.0928-.1563-.2314-.2031-.3037l.2754-.9575.1337-1.2813.0049-.0615.9639-1.5425a.3356.3356,0,0,0,.0205-.1049,1.6717,1.6717,0,0,0-.2676-.87,2.3485,2.3485,0,0,1-.4365-.5468c-.0215-.1617-.1328-.6236-.1367-.628a.1357.1357,0,0,0-.2178-.0742c0,.0025-.7363.5938-.8672.666a.4331.4331,0,0,1-.1533.0171c-.2031,0-.4814-.0513-.6016-.0556.0059,0-.0019-.002-.0234-.002a.7988.7988,0,0,0-.6562.3276c-.0723.149-.3643.6661-.4278.7559a2.6117,2.6117,0,0,0-.1914.97.4952.4952,0,0,1-.1035.2622,1.3737,1.3737,0,0,0-.1768.293.5211.5211,0,0,0-.0332.1875,3.9154,3.9154,0,0,0,.086.5132,1.8716,1.8716,0,0,1,.0117.21,3.2665,3.2665,0,0,1-.0645.6362c.002,0,.002.0025-.038.0152a.4775.4775,0,0,1-.129.0166.0958.0958,0,0,0-.0244-.0005l-.0068-.0015a.6806.6806,0,0,0-.18.0581c.0166-.0874.0313-.1689.0391-.2026a.2533.2533,0,0,0,.0049-.0425,5.9618,5.9618,0,0,0-.3086-.875,16.3717,16.3717,0,0,1-.2373-1.7944.0275.0275,0,0,0,0-.0127v-.0059h-.002l.002-.0044a12.517,12.517,0,0,1,.3476-1.2812,5.1754,5.1754,0,0,1,.3838-1.0254A2.22,2.22,0,0,1,54.6548,31.6231Zm2.542,3.5092V35.13c.0049.0019.0752.0444.1885.0957l-.02.0854a.1373.1373,0,0,0,.2675.0621l.0108-.0489a1.7769,1.7769,0,0,0,.3183.0684l-.373.6-.001.0005-.0234.0137a2.937,2.937,0,0,1-1.6592.541c-.0176,0-.0293.0019-.0322.0019-.4531-.0932-.8184-1.251-.82-1.251a.0741.0741,0,0,0-.0078-.021.6275.6275,0,0,0,.0761-.288,2.928,2.928,0,0,1,.1407-.813c.0888-.1275.3671-.6211.4541-.7959.0039-.0635.3046-.1851.4062-.1724l.0059.0025c.081,0,.3828.0551.6191.0551a.6354.6354,0,0,0,.2881-.0508c.1328-.0766.5107-.3764.7344-.5561.0332.144.0722.32.08.3877a2.0224,2.0224,0,0,0,.5274.72,1.9408,1.9408,0,0,1,.1748.6612v.0175l-.4258.6851-.0234-.002a1.863,1.863,0,0,1-.7627-.2343.14.14,0,0,0-.1905.0488A.1388.1388,0,0,0,57.1968,35.1323Zm-5.7246,1.9986c.02.1577-.2978.1357-.7764.4253a.761.761,0,0,1-.4257.1255,1.0139,1.0139,0,0,1-.3789-.0782c-.0948-.0395-.1563-.0771-.1622-.0771.0176.0171-.8447-.8062-.8613-.8423a.2569.2569,0,0,0-.2109-.1152.3017.3017,0,0,0-.23.1191c-.02.0215-.0351.043-.0381.0449V36.729c-.0273.0039-.0976.0083-.2207.01l-.0107-.002a.4214.4214,0,0,1-.3477-.146c.0948-.0595.3076-.1548.3076-.1562a2.69,2.69,0,0,1,.9786-.33c.0869-.0064.166-.0166.2353-.021a3.0354,3.0354,0,0,1,.333-.0259.9274.9274,0,0,1,.5274.1558l.4775.2827.0137.0083.1631.2749a.1379.1379,0,1,0,.2373-.1406c-.002,0-.1143-.1914-.2061-.3487-.0508-.09-.1-.1792-.1-.1792a.2178.2178,0,0,1-.0215-.0747.1168.1168,0,0,1,.0254-.0639l.02-.0059a.0938.0938,0,0,1,.0537.0108c.0215.0083.0381.017.0449.0107a2.6344,2.6344,0,0,0,.3155.3042c.1885.1724.0556-.1069.2334.5552a.9439.9439,0,0,1,.0283.2109C51.4771,37.0757,51.4751,37.0991,51.4722,37.1309Zm.9844-.481a.57.57,0,0,1-.1963.1655,2.5626,2.5626,0,0,1-.5127.1573,1.5878,1.5878,0,0,0-.03-.1866c-.1084-.5854-.1914-.6127-.331-.7084a2.9181,2.9181,0,0,1-.3115-.3023.4858.4858,0,0,0-.2735-.083h-.0058a.2868.2868,0,0,0-.2354.1187.3677.3677,0,0,0-.08.2255c0,.0113.001.022.002.0323l-.15-.0894a1.1919,1.1919,0,0,0-.668-.1958c-.0683,0-.1367.0044-.207.0108.0146-.2261.0683-.74.1787-.8067a1.7308,1.7308,0,0,1,.7178-.4067.7794.7794,0,0,1,.11-.01.425.425,0,0,1,.1641.03c.4043.1577,1.5556.7129,1.8027,1.3086a1.1276,1.1276,0,0,1,.1094.4473A.5229.5229,0,0,1,52.4566,36.65Zm.9131,3.3047a3.1966,3.1966,0,0,0,.4082-1.6807,5.0663,5.0663,0,0,0-.3-1.666c0-.0122-.003-.0244-.0039-.0366l-.4121-1.5854a.1378.1378,0,0,0-.2666.07l.29,1.1152a.6822.6822,0,0,0-.2725.1255,1.5272,1.5272,0,0,0-.1318-.498,3.9378,3.9378,0,0,0-1.9492-1.4512.6747.6747,0,0,0-.2686-.0527h-.0156a.1326.1326,0,0,0-.0166-.0494v-.0019a1.0847,1.0847,0,0,1-.1123-.5108,1.436,1.436,0,0,1,.3769-.9477c.7178-.8423.9024-.91,1.1534-.9463.2968-.0366.8242-.1064.8242-.1064a2.1617,2.1617,0,0,1,1.0713-.3448,1.355,1.355,0,0,1,.6259.147,1.9274,1.9274,0,0,0-.1914.2637,5.2953,5.2953,0,0,0-.4169,1.1191,9.9255,9.9255,0,0,0-.35,1.3193h.0039c0,.0064.001.0088-.0039.0088a14.8286,14.8286,0,0,0,.25,1.8941c.0577.1767.2872.7036.2959.7851h-.0009c-.02.0982-.084.4854-.084.4873a.132.132,0,0,0,.0576.1363.1342.1342,0,0,0,.1455.0044s.0723-.0425.1543-.0855c.0381-.02.08-.0425.1113-.0552.0264-.0146.0264-.0063.0264-.0166v-.0088l.0283.0088.0029.002a.4181.4181,0,0,0,.4346-.2383,3.5966,3.5966,0,0,0,.0694-.7046,1.8035,1.8035,0,0,0-.0137-.2466,4.75,4.75,0,0,1-.0811-.477.2511.2511,0,0,1,.0147-.0913.5132.5132,0,0,1,.0332-.0669c.124.3555.4287,1.0762.9912,1.248.043.0039.0576.0039.0576.0039a3.2968,3.2968,0,0,0,1.6328-.4677l-.1025,1.0083-.2871.9936.0136.1089c.0274.0147.2217.4365.4414.5513a.1314.1314,0,0,0,.0518.0088c.2656-.0918.2012-.2471.2871-.4112.0322-.1069.0567-.2119.0713-.2719l.1094-.0791.0068-.0035c-.0019.0279-.0039.0591-.0039.0928a2.9423,2.9423,0,0,0,1.3838,2.293,3.45,3.45,0,0,0-1.0039.833.1326.1326,0,0,0-.0283.0913c-.127.0156-.2334.0332-.2823.041-.166.0386-.66.2358-.7382.228h-.0049c.0019,0,.0019-.0024-.0049,0h-.0049c-.2607.0274-.5351.3-.8984.4-.5235.2383-.2783.6744-.6836.7085a.6712.6712,0,0,0-.45.334c-.1533.292-.2158.6411-.2461.6236a.2933.2933,0,0,0-.1475.2421l-1.56-.748a.77.77,0,0,1-.0127-.124.1884.1884,0,0,1,.0117-.0786.5733.5733,0,0,0,.0264-.1705.7717.7717,0,0,0-.1309-.4.2427.2427,0,0,0,.0449-.1235v-.0122a.7186.7186,0,0,0-.34-.4307c.0019-.02.0039-.0454.0039-.0742a.4671.4671,0,0,0-.0518-.2231,2.8123,2.8123,0,0,1-.1357-.48,1.386,1.386,0,0,0-.0293-.147C52.8833,41.0435,53.3492,39.979,53.37,39.9546Zm-2.8565-.9526v-.003c.0225.003.4571.0894.5528.273.0654.0488.4365.2676.4287.3447.1836.3428.459.2276.4306.4683a.38.38,0,0,1-.0039.0595l.0635.1338c.0039,0,.2022.1529.19.2466l.0957.126a.431.431,0,0,1,.2549.3384c.0088.0293.0762.3213.0742.3335a2.73,2.73,0,0,0,.167.5688.2249.2249,0,0,1,.0186.0957c0,.0342-.0059.0635-.0059.11a.175.175,0,0,0,.084.1577,1.3075,1.3075,0,0,1,.1514.1255.9651.9651,0,0,1,.081.0849l-.0107.0044a.131.131,0,0,0-.0723.1.1412.1412,0,0,0,.0362.1192.55.55,0,0,1,.1543.3383.2555.2555,0,0,1-.0108.0835.5349.5349,0,0,0-.0224.1656c.0009.16.0478.2851.0459.3745-.0049.081-.0147.1343-.1387.2344a1.7124,1.7124,0,0,1-.4453.3188.8806.8806,0,0,1-.3106.0552l-.0234,0c-.0166-.0313-.04-.0718-.0615-.11l-.001-.0039c-.0137-.0224-.0254-.0434-.0361-.0639a.9869.9869,0,0,1-.3555-.813c0-.0176.0019-.0381.0019-.0611a2.5072,2.5072,0,0,0,.5606-.3256.3627.3627,0,0,0,.1064-.2876,2.8743,2.8743,0,0,0-.1357-.6377.0791.0791,0,0,1-.0078.0312.2142.2142,0,0,0,.0078-.0356v-.0108c-.0029-.12-.1367-.9262-.1387-1.0005,0-.0126-.0117-.02-.0156-.0317a.2918.2918,0,0,0,.0293-.08l-.0527-.145c-.002-.0015-.1768-.1255-.3956-.2651.0059-.0176.0176-.0323.0157-.0513a.8988.8988,0,0,0-.2862-.4917c-.1826-.1553-.4375-.3189-.49-.3569-.0459-.0386-.3691-.3218-.3691-.3218a2.2426,2.2426,0,0,0-.5391-.1016A1.4946,1.4946,0,0,1,50.5132,39.002ZM51.4488,49.28c.0088-.002.59.3657.6318.5576a1.185,1.185,0,0,1,.0635.3643.449.449,0,0,1-.3184.4809c-.0058-.0005-.1426.0137-.292.0293-.1035.01-.2138.021-.2939.0274a.4178.4178,0,0,0-.249-.2847.8937.8937,0,0,0-.2041-.0273.5478.5478,0,0,0-.34.11,6.3293,6.3293,0,0,1-.749.4409c-.1318.0635-.373.0254-.5156.253-.02.0468-.0869.2065-.5908.477l-1.8125.4063c-.3711-.6514-1.4151-2.0992-1.4209-2.1153a.1106.1106,0,0,0-.0147-.0176,1.0223,1.0223,0,0,0-.1553-.1479l-.0009-.0176a2.4918,2.4918,0,0,1-.0606-.5044c-.0039-.2275.0576-.4092.14-.4326a.47.47,0,0,0,.09-.0718,3.6289,3.6289,0,0,0,.2852-.2793c.1084-.1357.4248-.4487.4746-.4277a1.0143,1.0143,0,0,0,.5576-.353,1.1549,1.1549,0,0,1,.8037-.4956.6676.6676,0,0,1,.1133.0083c.5566.081,1.8574.166,1.8955.2319a5.56,5.56,0,0,0,1.1084.6811,2.0891,2.0891,0,0,1,.2588.0215.5731.5731,0,0,1,.4892.3594l.0469.0664a.2733.2733,0,0,1,.1035.2188.439.439,0,0,1-.0888.2451.1279.1279,0,0,0-.0186.1079A.1383.1383,0,0,0,51.4488,49.28ZM49.858,52.4492a.1407.1407,0,0,0-.16.0254c-.05.0684-.0439.0918-.04.1016v.0068H49.66a.4149.4149,0,0,0,.2754.2842.8821.8821,0,0,1-.1084.14.575.575,0,0,0-.1318.0419.132.132,0,0,0-.045-.0585l-.1845-.1514a.1362.1362,0,0,0-.1934.0215.1346.1346,0,0,0,.02.1914l.168.1357c-.0224.0137-.039.0215-.0469.02-.2236.0723-.2343.2012-.3769.2344a.8085.8085,0,0,1-.2217.0274,1.6787,1.6787,0,0,1-1.0371-.3994,3.5983,3.5983,0,0,1-.3818-.6172.1371.1371,0,1,0-.2461.1211V52.57c0,.003.0234.0518.06.1231a.1209.1209,0,0,0-.0547.0176l-.1386.1171c-.0342-.1464-.0733-.3046-.1133-.457l1.7842-.4072c.55-.2857.6962-.5044.747-.6226l.001.0039a3.3053,3.3053,0,0,1,.3467-.1049,5.8645,5.8645,0,0,0,.8271-.4791.2742.2742,0,0,1,.1778-.0595.559.559,0,0,1,.1347.02,1.1967,1.1967,0,0,1,.0723.1724,1.03,1.03,0,0,1-.3984.6323l-.0655.1147s-.0146.7-.0322.9727c0,.04-.0293.0566-.1533.0645a1.1006,1.1006,0,0,1-.166-.0176l-.0039-.001a1.44,1.44,0,0,1-.1475-.0586.5548.5548,0,0,1-.0938-.0508l-.0039-.0049A.14.14,0,0,0,49.858,52.4492Zm.0332.2207a.13.13,0,0,1-.0782.0381A.1262.1262,0,0,0,49.89,52.67Zm.2568-7.4189a3.8937,3.8937,0,0,1-.669-.0581,5.215,5.215,0,0,0,.2559-.9048c.01-.1157.0186-.2173.0186-.3257a2.1931,2.1931,0,0,0-.0752-.5556,2.3973,2.3973,0,0,0-.1143-.3575,7.8855,7.8855,0,0,0,2.0059.2427,1.1525,1.1525,0,0,0,.3916.9258l.0009.0015A1.7412,1.7412,0,0,1,50.148,45.251Zm1.0576-5.2842c.0527.0386.1045.0781.1494.1162a.5225.5225,0,0,1,.1074.1319,2.6129,2.6129,0,0,0-.2392-.12c-.0752-.0366-.0664-.0473-.0713-.0473C51.1451,40.0381,51.1753,40.0005,51.2056,39.9668Zm-1.17-.5991a2.0989,2.0989,0,0,1,.5078.0644,4.3307,4.3307,0,0,0,.333.3057c.0215.0151.0566.04.0986.0679a.4363.4363,0,0,0-.0976.2422.3368.3368,0,0,0,.2392.3022,5.9118,5.9118,0,0,1,.8311.4956.8716.8716,0,0,1-.3613.2935.1376.1376,0,0,0,.0615.2612.136.136,0,0,0,.0615-.0146,1.3386,1.3386,0,0,0,.2861-.1885c.0127.0888.0274.1894.043.29a.1375.1375,0,0,0-.06.0235,2.4039,2.4039,0,0,1-.6386.2431.14.14,0,0,0-.1065.1636.1415.1415,0,0,0,.1641.106,2.7153,2.7153,0,0,0,.6816-.2525c.0108.0777.0176.1367.02.16l.0009.0141a4.7906,4.7906,0,0,1,.1387.649.5034.5034,0,0,1-.01.0791,3.3542,3.3542,0,0,1-.6054.3442,6.8245,6.8245,0,0,1-2.1846-.2959,2.4267,2.4267,0,0,1-.1182-.6636c0-.02.002-.0341.002-.0361.002-.0254.002-.0386.002-.0493a1.5621,1.5621,0,0,0-.3-.8081.9275.9275,0,0,1-.2939-.586.5587.5587,0,0,1,.0068-.0932,1.7639,1.7639,0,0,1,.459-.9A1.8779,1.8779,0,0,1,50.0357,39.3677Zm-3.001,3.58c.0586-.1641.0234-.0747.0967-.624a19.8014,19.8014,0,0,1,.583-2.03,1.75,1.75,0,0,1,.4531-.47.8433.8433,0,0,1,.7725-.5318.5445.5445,0,0,1,.1338.0132l.0879-.0088a.6435.6435,0,0,1,.0732-.0278c-.0615.0273-.1064.05-.1328.06a1.7284,1.7284,0,0,0-.6348,1.1128.8279.8279,0,0,0-.0107.1381,1.1652,1.1652,0,0,0,.35.7535,1.2977,1.2977,0,0,1,.2422.6406v.0259a.568.568,0,0,0-.002.0595,2.8906,2.8906,0,0,0,.2461,1.0577,2.4436,2.4436,0,0,1,.12.3574,1.8385,1.8385,0,0,1,.0635.49c0,.0952-.0049.1895-.0127.2915.0069,0-.24,1.1021-.4463,1.1426a1.224,1.224,0,0,1-.3711.04,5.1231,5.1231,0,0,1-.95-.1,2.3476,2.3476,0,0,1-.3779-.1064.4267.4267,0,0,1-.1142-.06h-.001l-.001.0005c-.1269-.3115-.3164-.3906-.8369-.7617a.1819.1819,0,0,0-.0225-.0176.1942.1942,0,0,1-.0859-.1738C46.24,43.8682,46.9117,43.2236,47.0347,42.9473Zm-.7637,1.73c.4932.35.6026.4018.6729.5942.2207.355,1.0762.4063,1.7021.44a1.3471,1.3471,0,0,0,.4815-.0634.7.7,0,0,0,.208-.2027l.0019.0015a4.0109,4.0109,0,0,0,.8106.0786h.0225a3.2982,3.2982,0,0,0,.52-.042l.0537,2.4224c-.0674-.0044-.1162-.0039-.1309-.0064-.0058.0064-.0507-.019-.1279-.0683-.2578-.1509-.7187-.4707-.831-.5552a11.7285,11.7285,0,0,0-2.0166-.2852.8388.8388,0,0,0-.16-.0146,1.4014,1.4014,0,0,0-1.0088.5869.769.769,0,0,1-.3809.2637c-.288.0517-.5166.39-.6494.52-.0761.083-.1982.1983-.2666.26-.0322.0273-.0488.0425-.0488.0425-.2383.1167-.2666.4169-.2715.664a2.5876,2.5876,0,0,0,.0225.3189c-.0928-.0523-.1953-.1021-.3018-.15a7.1744,7.1744,0,0,1-.0595-.92A4.5176,4.5176,0,0,1,46.271,44.6768Zm-3.3222,4.5254a8.2946,8.2946,0,0,1,1.999.7954l.0273.019a.9567.9567,0,0,1,.1543.14l.0039.0053c.0059-.0024,1.34,1.8951,1.49,2.2369a7.7544,7.7544,0,0,0-2.291-1.4024.1365.1365,0,0,0-.1787.0767.14.14,0,0,0,.0781.1792c.0107,0,2.2441.914,2.5752,1.8886.041.1807.0674.3057.0674.3067.0048.0088.1328.4892.1269.5224v.0049c-.0283.5137-.291,2.0537-1.418,2.3448a2.9133,2.9133,0,0,0,.3038-1.2569,3.69,3.69,0,0,0-.9473-2.2939.1375.1375,0,1,0-.2139.1728,3.4162,3.4162,0,0,1,.8848,2.1211,2.8087,2.8087,0,0,1-.3731,1.3389,3.13,3.13,0,0,1-2.0947,1.23c-.0351.0009-.0674.0019-.0957.0019a1.5277,1.5277,0,0,1-.8252-.2217,1.4829,1.4829,0,0,1-.2685-.2187h-.001a.1288.1288,0,0,0-.0674-.0469,5.7127,5.7127,0,0,0,.4268-1.0859c.2656-.0469.955-.1836,1.0371-.7188.0058-.0937.0283-.2148.0283-.3574,0-.5274-.3447-1.1621-2.3936-1.9356a2.5029,2.5029,0,0,1,1.6348-.5078c.0059,0,.5654-.0254,1.0117-.0254a.1383.1383,0,0,0,.1377-.1386A.1367.1367,0,0,0,43.63,52.24c-.4551-.002-1.0185.0253-1.0185.0253a2.612,2.612,0,0,0-1.9746.73,4.2665,4.2665,0,0,0-1.3,1.4883,9.0932,9.0932,0,0,0-.5517,1.4394,21.8469,21.8469,0,0,1-2.5527-2.4c-.1885-.2012-.31-.3321-.31-.3321a.1393.1393,0,0,0-.1944-.0078.1369.1369,0,0,0-.0078.1953v-.001l.1924.2081c-.1738.0878-.4863.2529-.789.4453a3.4459,3.4459,0,0,1-.459-.3086c-.11-.0948-.1221-.1533-.126-.3887,0-.11.0059-.251.0059-.43,0-.0976,0-.206-.0059-.3271l-.002-.0274c-.0512-.562,1.167-.9,1.4883-.9155.3692-.043,1.7266-.3814,1.7334-.3814l.5977-.2558c.01.0019.0176.0083.0263.0083a.1328.1328,0,0,0,.1153-.0684l.5351-.229c.0127.0122.0254.024.0381.0347.125.0976.2832.2974.4405.4277a.67.67,0,0,0,.4228.1167c.0859,0,.1621-.0058.2178-.01a1.3142,1.3142,0,0,0,.4844-.2344c.207-.1357.1435-.3682.165-.5a5.0273,5.0273,0,0,1,.0947-.5767c.0186-.07.1084-.3144.1387-.3916a1.9739,1.9739,0,0,1,.3574-.1811c.0781-.0518.1621-.1157.1758-.1226l.0059,0c.0185.0064.0654.0293.11.0508.0557.0278.1064.0552.1084.0552a1.2323,1.2323,0,0,0,.4014.0571,1.6481,1.6481,0,0,0,.5127-.08A.4912.4912,0,0,0,42.9488,49.2022ZM41.0874,60.5235a3.6486,3.6486,0,0,1,.6915.3916c.0537.038.3847.3769.3828.3808a.7181.7181,0,0,0,.2021.2432,3.3567,3.3567,0,0,1,.3994.2558c-.0019.0039.5723.7149.6416.7911a.2424.2424,0,0,1,.042.0712l-.0176.0039-.7558-.4843-.6133-.2383a.1383.1383,0,0,0-.1338.2383,3.0266,3.0266,0,0,1,.5078.7158c0,.0019.1905.4473.2832.67a.1639.1639,0,0,1,.0166.0811c0,.0263,0,.0273-.083.0654-.0263-.0127-.124-.1064-.1269-.1064l-.32-.544-.64-.8525a.13.13,0,0,0-.0225-.0293l-.0009-.002a.1357.1357,0,0,0-.1944.002l-.0009.0019-.001.001v.001a.13.13,0,0,0-.0225.1562l.12.37.1407.3536.164.5576c0,.001.1114.3935.15.5039.0049.0029,0,.0068-.0283.0312a.5128.5128,0,0,1-.0693-.0224l-.0186-.0069-.624-1.2978v-.0029a.14.14,0,0,0-.0654-.0625l-.004-.001-.0048-.002a.1268.1268,0,0,0-.087-.0039l-.0048.001-.0039.001a.1363.1363,0,0,0-.0821.082.1218.1218,0,0,0-.0078.05c-.0039.0391-.0107.1533-.02.294a.3177.3177,0,0,1-.1445.124,1.4665,1.4665,0,0,1-.2237.1035.5814.5814,0,0,0-.3427.1894.1576.1576,0,0,1-.0039-.038.3888.3888,0,0,1,.02-.1045l.0127-.002a2.7678,2.7678,0,0,0,.2793-.1982.24.24,0,0,0,.0517-.1553,1.3524,1.3524,0,0,0-.1181-.4316c-.1016-.1836-.4747-.3819-.5059-.4239-.0557-.0488-.4854-.41-.4854-.4131a3.0852,3.0852,0,0,1-.5361-1.873.161.161,0,0,0-.0049-.0684c-.0468-.5683-.0644-1.1865-.082-1.7675-.0049-.0791-.0049-.1534-.0049-.2286a6.9513,6.9513,0,0,1,.2237-1.7529,8.8528,8.8528,0,0,1,.5722-1.539A3.9814,3.9814,0,0,1,40.75,53.2559c2.165.8056,2.3525,1.3633,2.3525,1.7285,0,.1123-.0186.2226-.0264.34.0371.2911-.9033.4854-.9033.4854a.1385.1385,0,0,0-.12.1279,5.6127,5.6127,0,0,1-.49,1.249c-.0957.1934-.1631.3233-.1651.3233l-.4082.8359a15.4736,15.4736,0,0,0-.6162,1.65c-.0039.0166-.002.0381-.0039.0488C40.4253,60.4805,40.9458,60.4658,41.0874,60.5235ZM32.23,50.7744h.0933c-.0025-.5444-.3931-2.5942-.3931-3.9775a3.4276,3.4276,0,0,1,.8189-2.2022c.3364.0162.6718.0249.9961.0249a23.9689,23.9689,0,0,0,3.146-.2124,5.255,5.255,0,0,0,.4609,1.1382c-.0029.0093-.0127.0142-.0137.0249l-.0019-.0019a5.3409,5.3409,0,0,0-.0264.5737,9.7258,9.7258,0,0,0,.2109,1.9614c.2481,1.1919.5723,2.2881.6866,2.6612l-.5362.229c.02-.0064-1.36.334-1.6748.3681-.3447.0528-1.6816.2744-1.7348,1.188a.2112.2112,0,0,0,.0039.0576c.0024.1.0044.2032.0044.2969,0,.17-.0059.3086-.0059.43a.6722.6722,0,0,0,.23.6025,3.2765,3.2765,0,0,0,.376.2637,2.4465,2.4465,0,0,0-.4444.3818,3.4867,3.4867,0,0,0-.6968,1.1319,4.9812,4.9812,0,0,0-1.0292-.586c-.0464-.0009-.2984-.0439-.563-.0791a.1859.1859,0,0,0-.0108-.0459,3.3805,3.3805,0,0,1-.2387-1.2724,5.325,5.325,0,0,1,.1513-1.1621,12.6741,12.6741,0,0,0,.2866-1.7793Zm6.6406-.2929-.4091.1743c-.12-.3941-.4317-1.458-.67-2.61a9.3492,9.3492,0,0,1-.2041-1.9038c0-.0767.001-.1435.004-.2051.0566.086.1.147.1191.1856.1455.291.915,1.33.9228,1.34.0059.0171.4913,1.333.4776,1.36v.0024a3.1467,3.1467,0,0,0-.35.9082,1.2115,1.2115,0,0,0-.0176.209A1.1736,1.1736,0,0,0,38.8706,50.4815Zm5.3584-9.5157.4024.1075a1.3051,1.3051,0,0,1,.084.18,1.0145,1.0145,0,0,1-.3721.1123.0836.0836,0,0,1-.0469-.0063l-.1513-.0767a.1365.1365,0,0,0-.1856.06.14.14,0,0,0,.0606.1855l.15.0762a.4142.4142,0,0,0,.1728.0386,1.2314,1.2314,0,0,0,.5674-.1875.2082.2082,0,0,0,.084-.1724.6154.6154,0,0,0-.0576-.2192l.0644-.0083c-.0049.0039.6387.1025.7422.1089.0371.0005.3086.0488.498.083l-.0068.0039a1.1955,1.1955,0,0,1-.13.062l-.6406.104a.1359.1359,0,0,0-.0938.2061l.2051.3364a.1952.1952,0,0,1,.0313.1069c.0176.1314-.2334.3042-.2315.3062l-.0644.1469a1.1654,1.1654,0,0,1,.0215.21.4849.4849,0,0,1-.2217.4663.9436.9436,0,0,1-.5449.1763,2.123,2.123,0,0,1-.9912-.3657,2.2311,2.2311,0,0,0-.3125-.1617c-.2276-.1-.2432-.2153-.251-.4643,0-.1065.0058-.2251.0058-.3506a.2927.2927,0,0,1,.002-.043c-.002-.03-.002-.0425-.002-.0464a1.4279,1.4279,0,0,1,.2471-.7964,2.2185,2.2185,0,0,1,.5527-.2866Zm-.1875-.3335-.1982-.0517-.082.0019a2.1422,2.1422,0,0,0-.7168.396,1.6858,1.6858,0,0,0-.3018.9624c0,.0186.002.0332.002.044a.2312.2312,0,0,0-.002.0454c0,.1123-.0088.2314-.0088.3506a.7252.7252,0,0,0,.26.63c-.3418-.0141-.7451-.03-.8066-.0366a1.9324,1.9324,0,0,1-1.6065-1.2085.5464.5464,0,0,1-.0674-.3,1.979,1.979,0,0,1,.0528-.42l.7168-.3589c-.0137.0064,1.2392-.43,1.9384-.7407l.0235-.0117a.1352.1352,0,0,0,.0468.0542H43.29A6.0966,6.0966,0,0,1,44.0415,40.6323Zm-.5595-1.8989a.9686.9686,0,0,1-.22.1958l-.7022.4683a.1336.1336,0,0,0-.0381.1894.1357.1357,0,0,0,.1885.04l.7031-.4683c.0313-.021.0635-.0439.0928-.0669a2.8255,2.8255,0,0,1-.0313.416,2.1369,2.1369,0,0,1-.3671.1875c-.6778.3023-1.9317.7383-1.9317.7383l-.8613.4321-.9229.462a5.1292,5.1292,0,0,0,.8721-1.9239c.1377-.396.3555-.4277.6865-.5937a2.428,2.428,0,0,0,.73-.7051.1366.1366,0,0,0,.1221.0259h-.002l1.9776-.5127c.0029.0288.0048.0718.0048.1279A1.5974,1.5974,0,0,1,43.482,38.7334Zm4.0088-3.2368a14.2,14.2,0,0,0-.5879,1.6553c-.0342.1235-.044.1176-.044.1216-.0068.0039-.041-.02-.0713-.0425s-.0546-.0449-.0546-.043h-.001a.0718.0718,0,0,0-.0137-.0146.137.137,0,0,0-.125-.0264v.0005l-.0107.0029-.01.0039a.18.18,0,0,0-.0361.023.2494.2494,0,0,0-.0235.0273,1.1791,1.1791,0,0,1-.1826.1777.8006.8006,0,0,1-.2109.0357l-.2246-.2446a.1406.1406,0,0,0-.1963-.0083.1376.1376,0,0,0-.0059.1938l.19.2085a.5912.5912,0,0,1-.0527.0532l-.0039.01a.4681.4681,0,0,0-.3047.3618c-.0273.0913.0361.0527-.09.0937h-.01a2.6138,2.6138,0,0,1-.626-.24l-.8017-.4365-.1172-.0615-.1-.0132-1.9112.4956a3.5193,3.5193,0,0,0,.3506-.7612,2.546,2.546,0,0,0,.1133-.7432,2.3433,2.3433,0,0,0-.0391-.4273.47.47,0,0,1,.0743.1319.3113.3113,0,0,0,.3193.1743c.1494-.002.3125-.0342.4414-.0317a.2629.2629,0,0,1,.1328.021.7534.7534,0,0,0,.3516.0639,4.8964,4.8964,0,0,0,.8017-.0981,1.8121,1.8121,0,0,0,.9375-.4385c.168-.1147.4541-.3418.5039-.3555l.0059.0005v-.0019a.6284.6284,0,0,0,.07.0039.5822.5822,0,0,0,.4219-.2129.7675.7675,0,0,0,.1885-.4683l.3564.2681a2.2962,2.2962,0,0,0,.6992.32A1.2722,1.2722,0,0,0,47.4908,35.4966Zm-6.23-1.93c-.0039-.0049.2021-.0429.2021-.0449a.14.14,0,0,0,.1074-.1528c-.0039-.022-.0048-.0342-.0078-.05l-.0009.0005v-.0015l.0009,0h0l-.0009-.001c-.02-.0771.25-.2729.5908-.3687a5.8306,5.8306,0,0,1,.6679-.1611.1344.1344,0,0,0,.1153-.1284c0-.3315.5166-.4717,1.1006-.4658a5.6507,5.6507,0,0,1,.9209.0791,2.8842,2.8842,0,0,1,.3173-.0235,2.6709,2.6709,0,0,1,1.1446.2974,3.75,3.75,0,0,1,.5136.3l.1094.0254a.702.702,0,0,1,.1416-.0147c.5645-.0185.9219.7408.9239.7408l.0869.0766c.3174.0957.3925.3618.3984.6724a2.5191,2.5191,0,0,1-.0869.5874c-.043.1128.0508.1465-.3008.228a.2685.2685,0,0,1-.0449.0039.8179.8179,0,0,1-.3057-.083,3.2248,3.2248,0,0,1-.8008-.3555l-.5634-.4238a.1383.1383,0,0,0-.1485-.01.1343.1343,0,0,0-.0713.1313s.001.0342.001.0942a.6768.6768,0,0,1-.1113.4375c-.1553.1411-.1719.1324-.23.1368-.0088,0-.0254-.002-.05-.002l-.02-.0024c-.2588.03-.4824.309-.65.396a1.66,1.66,0,0,1-.832.4023,4.7889,4.7889,0,0,1-.7666.0957.5674.5674,0,0,1-.2168-.03.5848.5848,0,0,0-.2676-.0576c-.1641.002-.335.0342-.4414.0342a.288.288,0,0,1-.0654-.0069,1.198,1.198,0,0,0-.4756-.5288c-.0176-.0405-.0342-.0815-.0547-.122a2.5628,2.5628,0,0,0-.7363-.896,3.2,3.2,0,0,0-.376-.2442.1829.1829,0,0,0-.0088-.0322.2521.2521,0,0,1-.0176-.0937C40.938,33.8384,41.1636,33.6157,41.2613,33.5664Zm-1.83.4531a.14.14,0,0,0,.0566-.0175,3.2911,3.2911,0,0,1,1.2627.3242,2.6453,2.6453,0,0,1,.4326.2681,2.2991,2.2991,0,0,1,.6592.7978,2.1416,2.1416,0,0,1,.2119.9341,2.2442,2.2442,0,0,1-.1.6621,3.31,3.31,0,0,1-.4345.8706,2.3669,2.3669,0,0,1-.6924.7046,1.2358,1.2358,0,0,0-.8262.7529,4.7786,4.7786,0,0,1-.8359,1.8731c.0068-.0274-.1.0722-.09.21a.6076.6076,0,0,0,.0215.1577,1.707,1.707,0,0,0,.0889.2549,7.0969,7.0969,0,0,1,.7666,2.418.1641.1641,0,0,0,.0039.0469.21.21,0,0,0-.0039.0639,8.1544,8.1544,0,0,0,.3711,2.3814c.2588.7173.5371,1.5088.916,1.6216a1.0488,1.0488,0,0,1,.5244.2021,2.7256,2.7256,0,0,0,.7451.415.752.752,0,0,1,.1826.1021c-.0185.0083-.041.02-.0693.0293a1.4106,1.4106,0,0,1-.4277.064,1.3145,1.3145,0,0,1-.295-.0318.88.88,0,0,0-.3339-.1294h-.002a.0944.0944,0,0,0-.0469.0073.8906.8906,0,0,0-.2636.1539,1.4355,1.4355,0,0,0-.418.2309.1354.1354,0,0,0-.04.0479l-.0176.0258a.1353.1353,0,0,0-.0225.0787c-.04.1054-.1015.2724-.124.3549a4.9855,4.9855,0,0,0-.1045.63,1.0659,1.0659,0,0,1-.0322.2832,1.3491,1.3491,0,0,1-.3633.1934c-.0576.0044-.127.0107-.1963.0107a.421.421,0,0,1-.249-.0552c-.1221-.1-.28-.2978-.44-.4277a.36.36,0,0,1-.0664-.0728.84.84,0,0,1-.1621-.5146,1.1626,1.1626,0,0,1,.0127-.1641,6.4915,6.4915,0,0,1,.3535-.9443v-.0112c-.0146-.2105-.5088-1.47-.5127-1.4917-.02-.0342-.8047-1.1-.916-1.3321a5.3609,5.3609,0,0,1-.831-1.7837,8.0873,8.0873,0,0,1-.23-1.375,2.4426,2.4426,0,0,1-.0869-.7207c0-.0581,0-.1132.0029-.1709.0059-.1254.0176-.2617.0381-.413a20.67,20.67,0,0,0,.0889-2.2c.0019-.0425.0136-.147.0283-.2808a7.9953,7.9953,0,0,1,.3525-1.6172A24.2742,24.2742,0,0,1,38.52,35.19a.1367.1367,0,0,0-.0469-.1871.1348.1348,0,0,0-.0713-.02.1385.1385,0,0,0-.1182.0669,23.0161,23.0161,0,0,0-1.2226,2.29,7.8462,7.8462,0,0,0-.3516,1.5537.1149.1149,0,0,0-.0234.0063.696.696,0,0,1-.2422.0425c-.5.0127-1.1133-.5835-1.6777-1.3042a1.0883,1.0883,0,0,1-.2735-.69c-.0063-.481.4063-1.0367,1.0567-1.7451C36.3091,34.3452,38.8775,34.0532,39.4312,34.02ZM31.6187,39.312c.0112-.1635.0962-1.1211.2178-1.8174.0273-.1577.0547-.3022.0844-.4169.1451-.5918.6421-.79,1.0591-1.03.4527-.2808.8775-1.1358,1.2632-1.3618a11.8715,11.8715,0,0,1,2.4487-.6768,5.3969,5.3969,0,0,1,1.0938-.0889c.0879,0,.1738.0005.2588.0025a5.2351,5.2351,0,0,0-2.6988,1.0952,3.283,3.283,0,0,0-1.1289,1.93,1.38,1.38,0,0,0,.3345.8623c.5811.7212,1.19,1.3935,1.8926,1.4067a.9739.9739,0,0,0,.2314-.0273c-.0068.0556-.0107.0991-.0127.1289A20.58,20.58,0,0,1,36.5748,41.5c-.0147.11-.0245.2139-.0323.312a.1745.1745,0,0,0-.0224.0132s-.0264.02-.0762.0552l-.0156-.0059-1.2427-.4131a17.2559,17.2559,0,0,0-1.69-.5683A3.4472,3.4472,0,0,1,32.41,40.47a3.5042,3.5042,0,0,1-.7915-1.1372c.0019-.0093.0015-.0146-.001-.0176Zm-2.6348,2.2285a1.3151,1.3151,0,0,1-.2016-.7216.4224.4224,0,0,1,.0586-.2642c.2456-.2187.8764-.9722.88-.9766a4.1037,4.1037,0,0,1,1.812-1.9321c-.1074.6826-.1767,1.4868-.187,1.6514h.001c.001.0107.0034.0146-.0029.0146A3.057,3.057,0,0,0,32.2588,40.7a3.5987,3.5987,0,0,0,1.2232.4683c.186.0039,1.4067.4936,1.625.5576l1.0615.3535c-.3135.2237-.8013.5654-1.3169.9063a1.009,1.009,0,0,1-.5635.1806c-.5229.0069-1.0136-.4677-1.3574-.7256a1.0684,1.0684,0,0,0-.6333-.164,14.7739,14.7739,0,0,0-1.7129.26.71.71,0,0,1-.1216.0088,1.4974,1.4974,0,0,1-.9663-.4663.1266.1266,0,0,0-.02-.0337.151.151,0,0,0-.0532-.0371C29.2232,41.812,29.0821,41.6309,28.9839,41.5405Zm.292,1.1724a.6859.6859,0,0,1,.0991-.376,1.6939,1.6939,0,0,0,1.0879.4825,1.1459,1.1459,0,0,0,.16-.01,15.2409,15.2409,0,0,1,1.6743-.2578.8291.8291,0,0,1,.4727.1128,2.7307,2.7307,0,0,0,1.518.7768,1.2716,1.2716,0,0,0,.7149-.226c.6333-.419,1.2221-.8384,1.5044-1.0425l.0234-.0166a2.4928,2.4928,0,0,0,.0957.7407,8.0576,8.0576,0,0,0,.1953,1.2437,23.9754,23.9754,0,0,1-3.0766.205c-.3511,0-.7129-.0107-1.0791-.03a13.24,13.24,0,0,1-1.7-.2021,8.2218,8.2218,0,0,1-.898-.2192c-.1387-.0425-.2734-.0865-.4038-.1353A2.0047,2.0047,0,0,1,29.2759,42.7129ZM27.1753,53.66a.1207.1207,0,0,0-.0161-.0157l-.9087-.6289a.3759.3759,0,0,1-.1494-.2939.4754.4754,0,0,1,.0952-.2549,11.2074,11.2074,0,0,0,1.856-2.5439,19.0587,19.0587,0,0,0,.4336-3.3306,4.75,4.75,0,0,1,.6963-2.1748,1.2619,1.2619,0,0,1,.4028-.3955c.0718.0268.144.0527.2183.0766a4.5041,4.5041,0,0,0-1.0445,2.8135l-.3139,3.9986.0371.042h-.0371a2.6236,2.6236,0,0,1-.2261.7817c.0019-.0068-.3242.7178-.5181,1.1406-.1377.2979-.1489.3154-.1787.3682A2.5967,2.5967,0,0,1,27.1753,53.66Zm1.3575.5967c-.1407-.0293-.3614-.0811-.5611-.1416a4.2325,4.2325,0,0,1-.4536-.1524,1.0484,1.0484,0,0,1-.1387-.0684l-.01.0108a.1759.1759,0,0,1-.01-.0381H27.357a2.7964,2.7964,0,0,0,.4043-.4883,3.4938,3.4938,0,0,0,.1889-.3906c.1929-.4238.5215-1.148.5215-1.148a2.9622,2.9622,0,0,0,.251-.8876.3314.3314,0,0,0-.0083-.0718l.3188-3.9541a4.1881,4.1881,0,0,1,1.06-2.7368c.1875.0542.38.102.5757.1445a3.8722,3.8722,0,0,0-1.1294,2.8984.6011.6011,0,0,0,.0024.06c.0059.8384.0645,1.81.0645,2.7578a7.2277,7.2277,0,0,1-.5537,3.2988c-.0576.1016-.1211.2022-.189.2989A1.5354,1.5354,0,0,0,28.5328,54.2569Zm1.8183.6953H30.35a1.5715,1.5715,0,0,1-.2793-.2647c-.3135-.3457-.6861-.293-1.1885-.3252-.0825-.0234-.065-.0058-.0825-.0381-.0157-.1259.2807-.5039.2807-.5058a3.7649,3.7649,0,0,0,.2124-.335,7.432,7.432,0,0,0,.5879-3.4326c0-.958-.0552-1.9321-.0635-2.7666a.29.29,0,0,1-.0029-.0513,3.43,3.43,0,0,1,1.1943-2.8237l.0083-.0068a13.2948,13.2948,0,0,0,1.3912.1713,3.73,3.73,0,0,0-.753,2.2232c.0015,1.415.396,3.5024.3941,3.9775a.0955.0955,0,0,0,.0078.0576,14.8234,14.8234,0,0,1-.2871,1.6788,5.5555,5.5555,0,0,0-.1568,1.22,3.6422,3.6422,0,0,0,.2237,1.28,3.6019,3.6019,0,0,0-.3726-.0245h-.0073a.1247.1247,0,0,0-.0376,0h-.0034a.6693.6693,0,0,0-.0874.0079l-.0225.0048c-.1074.01-.21.0157-.3086.0157A3.438,3.438,0,0,1,30.3511,54.9522Zm1.375,2.7685a.5585.5585,0,0,1-.0737.0791,5.489,5.489,0,0,1-.7637.5127h-.0019c-.7554-.0156-.8614-.42-.8833-.9629a8.4074,8.4074,0,0,1,.1176-1.0224c.0127-.4356.9107-.9952,1.2061-1.0557.0293-.002.06-.0059.0908-.01.0132-.0009.0283-.0009.0459-.0009a5.4005,5.4005,0,0,1,.6318.0595c.2686.0362.5.0762.5879.083a3.8889,3.8889,0,0,1,.5142.3c.2168.1368.4268.2715.47.2969l-.0063.0567c0,.0087-.0044.0253-.0044.0488a1.1721,1.1721,0,0,0,.3144.73c-.3125-.0127-.5962-.0088-.6675-.0127.0064-.003.0025-.003-.0024,0-.0059.0009-.0137.0039-.0137,0A4.0594,4.0594,0,0,0,31.7261,57.7207Zm.3247.1856a.1389.1389,0,0,0-.0444-.0879,5.471,5.471,0,0,1,1.2651-.7217l.0166.001V57.09c.2022.0136.6309.0058,1.0025.0429a1.1633,1.1633,0,0,1,.5141.1241c.1612.1845.2432.9326.4322,1.14.1113.0947.9658.792.9658.792a.137.137,0,1,0,.1738-.2119c-.0019-.002-.8594-.7-.9634-.7871a6.8649,6.8649,0,0,0-.3921-1.1035.9635.9635,0,0,0-.6162-.2149l-.0127-.0117a1.1227,1.1227,0,0,1-.457-.7539.2078.2078,0,0,1,.0024-.03.9477.9477,0,0,1,.0176-.1465,2.9423,2.9423,0,0,1,.6792-1.167,2.741,2.741,0,0,1,.5532-.4443,10.0965,10.0965,0,0,1,.9224-.5225,19.3389,19.3389,0,0,0,2.5986,2.4024l.0059.0039a7.2082,7.2082,0,0,0-.2,1.6933c0,.0772,0,.1563.0049.2383.0176.5684.0322,1.18.0791,1.75a2.7394,2.7394,0,0,1-1.8272.4825c-.5224,0-1.0908-.05-1.65-.084a4.3563,4.3563,0,0,1-2.602-1.1094c-.0381-.041-.07-.0742-.0938-.1016A3.0382,3.0382,0,0,1,32.0508,57.9063Zm13.0728,6.455c.1035.1407.292.4043.4853.7315a1.63,1.63,0,0,1,.1494.7891c0,.4-.0615.8017-.0791,1.0126-.0107.27-.1943.295-.7216.89a1.25,1.25,0,0,1-.9629.3262,4.1054,4.1054,0,0,1-1.0733-.16,20.3167,20.3167,0,0,0-2.4922-.4912,10.7705,10.7705,0,0,1-2.4257-1.0742,22.3207,22.3207,0,0,1-2.1289-1.6778,2.1207,2.1207,0,0,0-.9063-.35c-.0024-.0039-.0122-.0039-.0225-.0039-.0092.0019-.0156.0019-.0156,0a6.817,6.817,0,0,0-1.5425.9023.9334.9334,0,0,0-.3554.3936.3616.3616,0,0,0-.0284.1445.73.73,0,0,0,.0962.2988c.1021.22.3213.21.3746.2393.08.0293.2094.0732.3173.1093a.57.57,0,0,1-.0683.0928,1.3694,1.3694,0,0,1-.0889.1045c-.0225.0254-.0288.02-.0264.0293a.2881.2881,0,0,0-.1318.3145.482.482,0,0,1-.1377.0478h-.0283c-.06.002-.1592-.0137-.229-.0137a.2912.2912,0,0,0-.0366.003h-.0039a2.7086,2.7086,0,0,1-.28-.0342l-.0044.0019.0093-.0058a1.1282,1.1282,0,0,1-.09-.0938.2574.2574,0,0,1-.0317-.041l-.002.002c-.0635-.1856-.6264-1.1485-.6533-1.3545l-.01-.0156h.0083a8.78,8.78,0,0,1,.6377-1.7793,3.6753,3.6753,0,0,0,.2608-1.3575.6261.6261,0,0,1,.1753-.36A15.7143,15.7143,0,0,0,36.3882,64.59c1.2949.6211,4.1182,1.7412,4.4356,1.85.0576.0186.1758.0655.3242.125a10.9048,10.9048,0,0,1,1.7031.8116.1424.1424,0,0,0,.1963-.003.1406.1406,0,0,0-.0029-.1962,5.4,5.4,0,0,0-1.0567-.5557c.0381.001.0772.001.1143.001,2.2754.0234,2.5088-1.1514,2.9375-2.0664C45.0708,64.49,45.0982,64.4258,45.1236,64.3613Zm-.4551-1.5966a1.9961,1.9961,0,0,1,.3086.9365,1.4773,1.4773,0,0,1-.0273.2764.8629.8629,0,0,1-.03.124,1.8357,1.8357,0,0,1-.127.334c-.4961.9834-.5234,1.8886-2.69,1.91-.0908,0-.1856,0-.2852-.0039l-.6-.0557h-.0244c-.123-.05-.2217-.0849-.2832-.1064-.2881-.1-3.1308-1.2246-4.4023-1.8359A15.9266,15.9266,0,0,1,33.2041,61.74a.4292.4292,0,0,1-.059-.0528,2.3285,2.3285,0,0,1-.6768-1.7431,3.2072,3.2072,0,0,1,.0273-.4249,4.6771,4.6771,0,0,0,2.6094,1.0362c.5528.0342,1.1231.0869,1.666.0869a3.25,3.25,0,0,0,1.8575-.4365,2.89,2.89,0,0,0,.61,1.8388c0-.0009.4356.3662.48.4043.0469.043.1445.1045.2529.1836.0508.0381.1016.0762.1406.1075.0362.0283.0332.0419.044.039a1.3471,1.3471,0,0,1,.0937.31,1.2642,1.2642,0,0,0-.3066.23.5445.5445,0,0,0-.06.2412.3369.3369,0,0,0,.169.3007.1785.1785,0,0,0,.1123.0293.2768.2768,0,0,0,.209-.1113.3211.3211,0,0,1,.1914-.1015,1.0136,1.0136,0,0,0,.5312-.3428l.458.957.0645.0645a.718.718,0,0,0,.2617.0722.2216.2216,0,0,0,.125-.0361.3756.3756,0,0,0,.1689-.27.2979.2979,0,0,0-.0175-.0938c-.0323-.0869-.1465-.4873-.1465-.4873l-.1377-.4677.1015.1357.3262.5557a.5521.5521,0,0,0,.3555.2187.2712.2712,0,0,0,.08-.0127.3589.3589,0,0,0,.2744-.3271.5578.5578,0,0,0-.0381-.1836c-.0957-.2324-.29-.6846-.29-.6846a4.3771,4.3771,0,0,0-.2275-.39l.0928.0361.78.5.0888.0215a.4293.4293,0,0,0,.2686-.128.2436.2436,0,0,0,.0429-.1406.4367.4367,0,0,0-.121-.2724c-.0508-.0547-.6553-.8018-.6553-.8018a2.63,2.63,0,0,0-.4444-.2949c-.0029-.0069-.09-.0957-.0859-.1006a2.8293,2.8293,0,0,0-.4531-.49,3.5479,3.5479,0,0,0-.8194-.46c-.1992-.0225-.5224-.1426-.5058-.21h-.002c.0381-.2509.5977-1.5839.5957-1.5859l.4063-.8252c-.002.001.0478-.0908.12-.2383A1.7343,1.7343,0,0,0,43.04,57.91a9.61,9.61,0,0,1,.6328,1.5879c.043.289.3711,1.3418.6426,2.1894C44.49,62.2324,44.6373,62.68,44.6685,62.7647Zm-.48-2.4063c-.1289-.4287-.2275-.7822-.2431-.8994a8.4056,8.4056,0,0,0-.6172-1.582,3.4137,3.4137,0,0,0,2.084-1.2471l.0048-.001a1.7966,1.7966,0,0,0,1.127-.6152,7.9979,7.9979,0,0,1-.42,1.5469c0,.0029-.2129.5722-.4551,1.07A6.6032,6.6032,0,0,1,44.188,60.3584Zm1.0127-.6015a3.3114,3.3114,0,0,0,.7227-1.0284c.082-.166.1592-.3418.2275-.5009.02.8242.0967,2.05.1319,2.5947C45.7183,60.29,45.2525,59.8086,45.2007,59.7569Zm6.7588.8291c-.0019.1337-.0166.2968-.0166.4668a2.0215,2.0215,0,0,0,.0186.2851,1.1688,1.1688,0,0,0-.3477-.0557c-.6211.0118-1.0879.4581-1.7051.6582a7.0048,7.0048,0,0,1-1.54.2959,17.8562,17.8562,0,0,0,1.0068-3.7812c0-.002.0918-.8857.1748-2.1065a.1375.1375,0,0,0-.2744-.0175v-.002c-.083,1.2178-.1719,2.0938-.1719,2.0967A18.03,18.03,0,0,1,48.08,62.2236a6.1192,6.1192,0,0,1-1.5039-1.1289l-.0009-.0136c0-.0039-.1553-2.19-.1534-3.1748a2.5054,2.5054,0,0,1,.0186-.4l-.002-.01a14.5848,14.5848,0,0,0,.5039-2.0879c.002-.01-.0048-.0176-.0039-.0273a4.3344,4.3344,0,0,0,.3369-1.3975.0246.0246,0,0,0,0-.0137,4.5278,4.5278,0,0,0-.1308-.5888c0,.0029-.0225-.0987-.0567-.251l.2461-.21.002-.0039a2.7231,2.7231,0,0,0,.2334.3321,1.91,1.91,0,0,0,1.2451.498,1.0735,1.0735,0,0,0,.2988-.041c.251-.09.3428-.2559.3506-.2275.1905-.0538.3281-.2.4024-.1983a.6181.6181,0,0,0,.3554-.3349,1.1064,1.1064,0,0,0,.1231.0078.38.38,0,0,0,.4287-.3194c.0137-.2324.0264-.7334.03-.9179a1.2855,1.2855,0,0,0,.4443-.6988c.2246-.0156.6328-.0654.6367-.0654a.736.736,0,0,0,.5362-.7485,1.51,1.51,0,0,0-.0772-.4512,1.5992,1.5992,0,0,0-.64-.6367.6636.6636,0,0,0,.0654-.2744.58.58,0,0,0-.18-.4107.8158.8158,0,0,0-.57-.4785l-.0547-2.5264a1.7326,1.7326,0,0,0,1.1777-.9326l.0528.0366a1.26,1.26,0,0,0,.1269.0064,1.1376,1.1376,0,0,0,.4112-.0747,1.829,1.829,0,0,0,.5234-.3657.55.55,0,0,0,.23-.375l1.5683.7514a1.2418,1.2418,0,0,1,.0381.249.2089.2089,0,0,1-.0078.0621A.465.465,0,0,0,55.07,44.9a.5842.5842,0,0,0,.2324.43.1673.1673,0,0,0,.0566.0244v.0713a4.7721,4.7721,0,0,0,.0576.7344,2.2613,2.2613,0,0,0,.3536.9121l-.0118.0268c.002.0059-.1582.4146-.2343.45a2.6456,2.6456,0,0,0-.791,1.5669.9537.9537,0,0,0,.0205.1939c.1357.6064.4414,1.6362.4414,1.6381a.1329.1329,0,0,0,.1465.0958l.11-.0127a2.7149,2.7149,0,0,1-.2891.6362,2.93,2.93,0,0,0-.9394,1.4668.8287.8287,0,0,0-.3516-.0811,1.0653,1.0653,0,0,0-.7246.3242c-.3222.2969-.4414.4034-.4736.4327a.1172.1172,0,0,0-.04.0351l-.0019.0029a2.2067,2.2067,0,0,1-.1807-.8457c-.0156-1.3261,1.5039-1.95,1.5039-1.956a.1365.1365,0,1,0-.1015-.2534v-.002a3.4112,3.4112,0,0,0-.9131.5918c-.0225-.3222-.0567-.88-.0645-1.3139.02-.0635.2549-.7837.5655-1.5386a4.27,4.27,0,0,1,.9609-1.6714.1377.1377,0,0,0-.1016-.2559c-.4443.2134-.9345,1.3233-1.2724,2.2168.1269-.6367.3135-1.5107.4892-2.3042a.1371.1371,0,1,0-.2675-.06c-.2969,1.3369-.6231,2.8623-.6446,3.2031-.0078.0771-.0078.1665-.0078.2661,0,.6255.0791,1.6221.0889,1.7251a2.1064,2.1064,0,0,0-.5108,1.3525,2.55,2.55,0,0,0,.2373,1.0411.1584.1584,0,0,0,.0381.0488,1.4136,1.4136,0,0,0-.2656.4228,7.9523,7.9523,0,0,0-.2383,1.0772l.001.0146h-.001a1.2924,1.2924,0,0,1-.0185.1954.6361.6361,0,0,1-.0215.083l.0068.0029c-.0166.01-.0976.0683-.1816.1172a1.0148,1.0148,0,0,1-.1045.0586c-.0957-.1367-.2744-.4053-.4854-.4766a.9151.9151,0,0,0-.1738-.0215c-.0723,0-.2588.0332-.2666.2168a.2441.2441,0,0,0,.0117.0762.2874.2874,0,0,0-.2431.2461c.0078.13.083.2021.1982.3066l.4141.3594a2.1136,2.1136,0,0,0,.6748.4043.9051.9051,0,0,0,.2275.0254.9645.9645,0,0,0,.47-.1172.5172.5172,0,0,1-.042.1309,2.0555,2.0555,0,0,0-.2314.7568.2366.2366,0,0,0,.043.1494.4286.4286,0,0,0,.3466.3272.385.385,0,0,0,.2969-.1875l.0567-.0791c-.1221.3828-.2334.7011-.3028.8515A4.9664,4.9664,0,0,0,51.96,60.586Zm1.4317-5.4278a.1342.1342,0,0,0-.168.0918,1.6323,1.6323,0,0,0-.2178.6358c-.0019.18-.167.1777-.2.1845-.0693-.0175-.0937-.0908-.0976-.2539a2.9432,2.9432,0,0,1,.038-.3672.1355.1355,0,0,0-.1191-.15.1373.1373,0,0,0-.1533.1211V55.418a2.9691,2.9691,0,0,0-.041.3984.5536.5536,0,0,0,.16.4424c-.0068.0537-.0283.207-.0527.3779a.15.15,0,0,0-.0547.05.5664.5664,0,0,1-.5.24.769.769,0,0,1-.167-.0186,2.0846,2.0846,0,0,1-.5556-.3457l-.4131-.3594a.6784.6784,0,0,1-.0791-.0752.28.28,0,0,0,.2343-.2353.2919.2919,0,0,0-.0058-.0488c.0263.0019.0595.0078.0879.0127a2.4462,2.4462,0,0,1,.3681.4384.1545.1545,0,0,0,.1309.0664,1.4274,1.4274,0,0,0,.4951-.2558.7544.7544,0,0,0,.1416-.4981v-.0127l-.1328-.0019h.1328v-.0039a9.6424,9.6424,0,0,1,.2178-.9756c.0517-.125.0058-.0469.4-.5859.0254-.02.1064-.0938.4941-.4473a.7953.7953,0,0,1,.5371-.252.51.51,0,0,1,.2608.0713,12.2817,12.2817,0,0,0-.4629,2.2744c-.002,0-.22.7745-.4639,1.5918a.1079.1079,0,0,0-.0254.0293l-.2783.4493-.2578.3554c-.0586.08-.0733.07-.0733.0742-.0039.002-.0263-.0107-.0576-.0683a.638.638,0,0,1-.0478-.1074l-.0449-.0264h.0361a1.9518,1.9518,0,0,1,.1875-.6084,1.9791,1.9791,0,0,0,.1494-.5772c.03-.1787.0537-.35.0645-.4443a.4582.4582,0,0,0,.4209-.4385,1.7453,1.7453,0,0,1,.205-.5752A.1379.1379,0,0,0,53.3912,55.1582Zm-1.2041,14.33-3.918-1.32.0029-.8145,3.917,1.2871Zm7.8378-2.1777-7.5615,2.2226v-.8877l7.5615-2.1474Zm-4.8818-.2989a.1374.1374,0,0,0,.1025-.1523L55.07,65.6856l.6591-.1543,3.8584.8047-7.2568,2.0615-3.6885-1.21,3.7452-.876L52.16,67.5039a.14.14,0,0,0,.0986.16.1383.1383,0,0,0,.1651-.086l.5234-1.3974,1.6192-.3779.415,1.125A.1345.1345,0,0,0,55.1431,67.0117Zm-2.0752-1.1406.7871-1.998.6162,1.6748Zm1.6924-.3887-.0166.003L53.9908,63.44a.1394.1394,0,0,0-.1289-.09.1343.1343,0,0,0-.1289.0869l-.9913,2.5088-.0175.0039.249-1.7734V64.16a2.1365,2.1365,0,0,0,.2168-.5528,6.2127,6.2127,0,0,1,.5361-1.5156.8161.8161,0,0,1,.4942-.332l.0332.3535ZM56.9956,55.11c-.9707,1.7783-2.3642,3.4131-2.4736,3.709a1.585,1.585,0,0,0-.0889.52,6.0608,6.0608,0,0,0,.2061,1.2754,1.6891,1.6891,0,0,1,.0469.3955,1.613,1.613,0,0,1-.19.7558l-.0176-.1875a.1372.1372,0,0,0-.1484-.123,1.1764,1.1764,0,0,0-.8369.4892,6.3416,6.3416,0,0,0-.5713,1.6016,1.96,1.96,0,0,1-.17.4473.3415.3415,0,0,1-.0713-.2276l-.1064-1.8545-.0547-.1015a.7119.7119,0,0,1-.19-.2129c-.0068-.01-.0107-.02-.0176-.03a.128.128,0,0,0-.0293-.07,1.254,1.254,0,0,1-.0664-.4443c0-.1543.0147-.3145.02-.4629a5.04,5.04,0,0,1,.6347-1.4414c.1338-.293.3614-1.0176.5742-1.7364.2579-.8535.4922-1.6855.4922-1.6855a11.9105,11.9105,0,0,1,.4912-2.3487,2.7681,2.7681,0,0,1,.919-1.5053,3.1941,3.1941,0,0,0,.4053-.8745v-.0005l.0019-.002,2.5606-.3066a3.2278,3.2278,0,0,0,.3486-.1055l-.792,1.6939-.0117.07c.0039.0566.0068.1211.0068.1816a5.0172,5.0172,0,0,1-.5849,2.0225C57.1939,54.7383,57.0972,54.9238,56.9956,55.11Zm2.6983,2.06c-.002.002-1.0625,1.6231-1.2022,1.8194a1.4473,1.4473,0,0,0-.1425.7539c0,.1221.0048.2265.0078.2763a2.9936,2.9936,0,0,1-.0918.4415.4724.4724,0,0,0-.02.1484,1.588,1.588,0,0,0,.34.835c.1846.2353.4219.3837.4834.5478a.1278.1278,0,0,1,.0059.042c.0136.1133-.1846.3769-.4405.501a2.408,2.408,0,0,1-.8769.1142,6.5631,6.5631,0,0,1-.8506-.0537c-.3691-.0469-.3945-.3222-.4053-.5039a.5325.5325,0,0,1,.0059-.0889c-.0029.0186.2578-.7959.3057-.9179a1.8161,1.8161,0,0,0,.0449-.4658,4.0075,4.0075,0,0,0-.02-.4239.1322.1322,0,0,1-.003-.0273,2.7586,2.7586,0,0,1,.462-1.1055,2.0446,2.0446,0,0,0,.2168-1.0732c0-.1992-.01-.3643-.0147-.4385-.002-.0215-.002-.1113-.002-.23,0-.622.0186-2.2246.0215-2.5527a23.6625,23.6625,0,0,1,2.835-.4492A6.7676,6.7676,0,0,1,59.6939,57.17Zm.958,5.0772-.29-1.0635A4.4,4.4,0,0,1,60.04,59.56a4.5517,4.5517,0,0,1,.4492-1.8916c.1406-.3731,1.0225-2.08,1.0225-2.082l.5342-1.1426.0849-.3516c.0166-.0742.0391-.168.0625-.28a17.0293,17.0293,0,0,0,.36-2.09.7257.7257,0,0,0,.0029-.0791,6.1356,6.1356,0,0,0-.332-1.668,1.2411,1.2411,0,0,1-.0967-.4941,3.129,3.129,0,0,1,.0342-.39c.0341-.2578.3711-1.521.4433-1.89l1.6817-.0845a2.7093,2.7093,0,0,0,.9589-.3061.1361.1361,0,1,0-.1416-.2325,2.6238,2.6238,0,0,1-.8408.2662l-2.4931.123a.1376.1376,0,0,0,.0068.2749h.0078l.5371-.0269c-.0888.4087-.3945,1.5567-.4326,1.8394a3.3231,3.3231,0,0,0-.0361.4258,1.5388,1.5388,0,0,0,.1152.5962,5.9317,5.9317,0,0,1,.3135,1.5659c0,.019-.0029.043-.0029.0723a17.4409,17.4409,0,0,1-.3506,2.0351c-.02.0772-.0342.1445-.0489.2041-.1855.001-.6865.0108-1.4121.0772a23.723,23.723,0,0,0-2.8388.4316,4.9925,4.9925,0,0,0,.5166-1.9336c0-.0566-.0039-.1133-.0069-.168l.8467-1.8129.0088-.0142a.1486.1486,0,0,0,.01-.0864,1.7067,1.7067,0,0,0,.5625-.3838c.35-.3985,1.2783-1.9346,1.2832-1.939a.2271.2271,0,0,0,.0127-.0312c.083-.1231.167-.2583.2509-.4092l.0235-.0581a.1207.1207,0,0,0,.0322-.04c.0254-.0678.0508-.1411.0732-.2153.1172-.2754.2959-.6851.4854-1.043a2.8832,2.8832,0,0,0,.3555-.1723,2.7042,2.7042,0,0,0,1.3632-1.711.8507.8507,0,0,0,.0049-.104,7.6449,7.6449,0,0,0,3.2549,2.38A21.9159,21.9159,0,0,0,63.72,51.5488c-.0459-.5229-.0577-.955-.0577-1.2417,0-.2573.01-.3974.01-.3974a.1366.1366,0,0,0-.1289-.145.1345.1345,0,0,0-.1455.1274c0,.0024-.0107.1514-.0107.415a14.8122,14.8122,0,0,0,.1035,1.7144.0777.0777,0,0,0,.0117.0195,25.9781,25.9781,0,0,0-2.0283,7.8106c-.001.0058.0039.0117.0048.0176a.7786.7786,0,0,0-.02.1523c.003.376.3086.7422,1.1455.9893a.1855.1855,0,0,0,.0342.0048c.0108,0,.0186-.0078.0283-.01a4.3905,4.3905,0,0,1-.1992.7334,5.9563,5.9563,0,0,0-.5537,1.7041.0634.0634,0,0,0,0,.0156,2.6208,2.6208,0,0,1-.0791.4971.1424.1424,0,0,0-.0556-.0215C61.2652,63.835,61.1724,63.8135,60.6519,62.2471Zm1.0732-2.3106a7.4226,7.4226,0,0,1,.4727-.6416c.1768-.1377.4678-.3671.8193-.65-.0468.418-.164,1.379-.3095,2.1543-.0127-.0087-.02-.0224-.0342-.0273-.8047-.2461-.9658-.5352-.9658-.75a.3458.3458,0,0,1,.0088-.0781Zm3.0137,5.6875h.0039l-.0058.0039c.0234.1348-.3282.4971-.4493.5713-.0966.0782-.4023.1895-.5791.2989a.4375.4375,0,0,1-.2226.042c-.0967,0-.2041-.0127-.3076-.0176a3.2661,3.2661,0,0,1-.5869-.1572l-.0752-.004a3.1988,3.1988,0,0,1-.5577.0655,1.0307,1.0307,0,0,1-.1386-.0078c-.1494.0058-.1983-.2286-.2344-.6582a.4351.4351,0,0,1-.0049-.0811,1.1549,1.1549,0,0,1,.0449-.2978,3.3731,3.3731,0,0,1,.2432-.586,5.0581,5.0581,0,0,0,.3184-1.3379l.0019-.0088-.12-.0058h.1182a6.01,6.01,0,0,1,.5361-1.5987,20.2672,20.2672,0,0,0,.5879-3.3818.1326.1326,0,0,0-.0039-.0518,30.6229,30.6229,0,0,0,3.7334-3.35,1.4873,1.4873,0,0,1,.2256-.2539c0,.0293.0019.0586.0019.0878.0039,3.0176-2.9277,7.1319-3.2226,7.711a1.4439,1.4439,0,0,0-.125.6631,4.6633,4.6633,0,0,0,.125.9795c.038.1679.0712.2754.0712.2783A5.9553,5.9553,0,0,1,64.7388,65.624Zm5.0635-1.2412c-.0977,0-.1914-.0009-.2744-.0039-.5156-.0156-.57-.01-1.1358-.0371-.2783-.0127-.5576-.0254-.831-.0371a.1038.1038,0,0,0-.0274-.01,5.8527,5.8527,0,0,1-2.0732-1.52.1338.1338,0,0,0-.1934-.0107.1353.1353,0,0,0-.0117.1933h-.001A7.7885,7.7885,0,0,0,66.79,64.2656c-.415-.0205-.8057-.0429-1.1475-.0644-.3838-.0234-.709-.0488-.9433-.0733-.1172-.0126-.2129-.0253-.2783-.0361-.0332-.0058-.06-.01-.0752-.0137v.001a.1233.1233,0,0,0-.0606-.0224,4.1577,4.1577,0,0,1-.0908-.7881,1.2028,1.2028,0,0,1,.0957-.5381,34.9647,34.9647,0,0,0,2.3994-4.3682c.4883.5518.9893,1.1006,1.4424,1.5908a.128.128,0,0,0-.0264.0684c.0645,2.8311,1.3467,3.9424,2.1182,4.3555C70.0738,64.3809,69.9331,64.3828,69.8023,64.3828Zm1.085-.0381c-.0118-.0048-.0225-.0087-.0352-.0127,0-.01-2.2647-.4052-2.458-4.0957.7842.8409,1.3672,1.4434,1.3672,1.4454A.1378.1378,0,0,0,69.96,61.49c-.0039-.004-1.6328-1.6944-3.1152-3.3653-.0127-.0146-.03-.0146-.0469-.0224a8.9891,8.9891,0,0,0,.7451-3.2081c0-.0976-.0039-.1943-.0088-.2871a2.7522,2.7522,0,0,1,1.3868-.3388,2.499,2.499,0,0,1,.2959.0146.1376.1376,0,0,0,.039-.2724h-.0029a3.0272,3.0272,0,0,0-.332-.0166,2.9071,2.9071,0,0,0-1.627.4433,1.9355,1.9355,0,0,0-.48.4629,31.996,31.996,0,0,1-3.7725,3.374c-.4394.3535-.8056.6407-1.0136.8057a1.1217,1.1217,0,0,0-.1211.1309c-.0225.02-.0606.0546-.1055.1a25.0132,25.0132,0,0,1,5.2061-12.5215,2.7438,2.7438,0,0,0,.4492.04c.0654,0,.1318-.0024.1982-.0078L66.65,50.7593a.1376.1376,0,0,0,.2666.0679l1.0323-4.0494v-.0009a2.309,2.309,0,0,0,.832-.3653,6.8531,6.8531,0,0,0,1.9912-1.53l1.1641-.939a6.6568,6.6568,0,0,0,.498-.5352,24.5284,24.5284,0,0,1,1.126,5.6451,21.8185,21.8185,0,0,1,.1436,2.5512,30.7007,30.7007,0,0,1-.99,7.355c-.0674-1.6162-.3271-4.377-.3271-6.2969a9.2762,9.2762,0,0,1,.0908-1.4887,11.0687,11.0687,0,0,0,.1533-1.855,11.3875,11.3875,0,0,0-.1533-1.9175.1376.1376,0,0,0-.1611-.1089.1392.1392,0,0,0-.1094.1621,10.9037,10.9037,0,0,1,.1494,1.8643,10.6678,10.6678,0,0,1-.1494,1.8081,9.552,9.552,0,0,0-.0947,1.5356c0,2.2227.3427,5.5371.3427,6.9278a4.3167,4.3167,0,0,1-.0185.4482c-.001.0049.0029.0088.0029.0137l-.001.0058a5.42,5.42,0,0,0,.7315,4.1C72.6656,64.207,71.7378,64.2949,70.8873,64.3447Z" transform="translate(-22.0874 -22.0889)"/><path class="a" d="M59.0542,47.2417l-1.1406.2383a.1356.1356,0,0,0-.1055.1616.1343.1343,0,0,0,.1612.1065l.3916-.0806.1074.1206a.1372.1372,0,1,0,.2031-.1846v0l.4405-.0913a.1373.1373,0,0,0,.1074-.1611A.1416.1416,0,0,0,59.0542,47.2417Z" transform="translate(-22.0874 -22.0889)"/><polygon class="a" points="29.313 19.935 29.311 19.934 29.311 19.935 29.313 19.935"/><path class="a" d="M49.6431,40.8657a.1429.1429,0,0,0,.1123-.0551v-.0025a2.6959,2.6959,0,0,1,.25-.2729.1426.1426,0,0,0,.01.0156l.0508.0786a.1373.1373,0,1,0,.2295-.1509l-.0528-.0791a.36.36,0,0,0-.0234-.0278.0622.0622,0,0,1,.041-.0039l.0117.0024a.137.137,0,1,0,.1748-.2109.2841.2841,0,0,0-.1865-.0659c-.3945.0361-.7031.5508-.7266.5532a.1364.1364,0,0,0,.03.1914A.1249.1249,0,0,0,49.6431,40.8657Z" transform="translate(-22.0874 -22.0889)"/><path class="a" d="M55.7769,34.6665a.14.14,0,0,0,.1182.1558l.0185.0005a.1347.1347,0,0,0,.1358-.1182l.01-.063a1.6374,1.6374,0,0,0,.3321.044.1355.1355,0,0,0,.1386-.1343.1378.1378,0,0,0-.1347-.14,1.89,1.89,0,0,1-.7637-.2324.1383.1383,0,0,0-.19.0474.1368.1368,0,0,0,.0488.187,2.035,2.035,0,0,0,.3037.145Z" transform="translate(-22.0874 -22.0889)"/><path class="a" d="M46.0474,35.6626a.1361.1361,0,0,0,.04.1914l.22.1475-.0674.1a.1374.1374,0,1,0,.2266.1553l.0693-.1011.2461.1645a.1355.1355,0,0,0,.0771.0235.137.137,0,0,0,.1143-.0615.1338.1338,0,0,0-.0381-.1895l-.6973-.4658A.1379.1379,0,0,0,46.0474,35.6626Z" transform="translate(-22.0874 -22.0889)"/><path class="a" d="M56.3355,36.0752a.7125.7125,0,0,1-.3555-.1338.1375.1375,0,0,0-.1933.0166.14.14,0,0,0,.0166.1944.9211.9211,0,0,0,.5136.1972l.0088,0a.1377.1377,0,0,0,.01-.2749Z" transform="translate(-22.0874 -22.0889)"/><path class="a" d="M50.2251,52.0108a.14.14,0,0,0,.169-.0977.1355.1355,0,0,0-.0967-.168c-.0088.002-.4658-.1518-.5-.2558a.1378.1378,0,1,0-.2373.14.6627.6627,0,0,0,.1943.1851l-.0214.0175a.1379.1379,0,0,0,.1777.211l.1142-.0982C50.1363,51.9854,50.2212,52.0049,50.2251,52.0108Z" transform="translate(-22.0874 -22.0889)"/><path class="a" d="M56.4371,35.6265a.7429.7429,0,0,1-.1485-.0215.0925.0925,0,0,0-.0224-.03.1359.1359,0,0,0-.1924,0h-.003a.1491.1491,0,0,0-.039.1c.0146.1484.1416.2129.3887.2256h.0068a.1374.1374,0,0,0,.01-.2744Z" transform="translate(-22.0874 -22.0889)"/><path class="a" d="M68.2193,42.4922a.1349.1349,0,0,0,.0976-.0415l1.1006-1.1a.1376.1376,0,1,0-.1933-.1958l-1.1016,1.1016a.1367.1367,0,0,0,0,.1938A.1346.1346,0,0,0,68.2193,42.4922Z" transform="translate(-22.0874 -22.0889)"/></svg>