<?xml version="1.0" encoding="utf-8"?>
<!-- Generator: Adobe Illustrator 25.3.0, SVG Export Plug-In . SVG Version: 6.00 Build 0)  -->
<svg version="1.1" id="Livello_1" xmlns="http://www.w3.org/2000/svg" xmlns:xlink="http://www.w3.org/1999/xlink" x="0px" y="0px"
	 viewBox="0 0 1920 1920" style="enable-background:new 0 0 1920 1920;" xml:space="preserve">
<style type="text/css">
	.st0{opacity:0.5;fill:#FFFFFF;enable-background:new    ;}
	.st1{opacity:0.7;fill:#FFFFFF;enable-background:new    ;}
	.st2{fill:#FFFFFF;}
	.st3{enable-background:new    ;}
	.st4{fill:#03045E;}
</style>
<circle class="st0" cx="960" cy="960" r="701.6"/>
<circle class="st1" cx="960" cy="960" r="581.2"/>
<circle class="st2" cx="960" cy="960" r="456.7"/>
<g class="st3">
	<path class="st4" d="M811,988.3c-4.8-2.7-8.5-6.3-11.3-11c-2.7-4.7-4.1-9.9-4.1-15.6c0-5.8,1.4-11,4.1-15.6
		c2.7-4.7,6.5-8.3,11.3-11c4.8-2.7,10.1-4,16.1-4c5.9,0,11.3,1.3,16.1,4c4.8,2.7,8.5,6.3,11.3,11c2.7,4.7,4.1,9.9,4.1,15.7
		c0,5.8-1.4,11.1-4.1,15.7c-2.7,4.7-6.5,8.3-11.3,11c-4.8,2.6-10.1,4-16.1,4C821.1,992.3,815.7,990.9,811,988.3z M840.8,984.8
		c4.1-2.3,7.3-5.5,9.7-9.5c2.4-4.1,3.5-8.6,3.5-13.6c0-5-1.2-9.5-3.5-13.6c-2.4-4.1-5.6-7.2-9.7-9.5c-4.1-2.3-8.7-3.5-13.7-3.5
		c-5.1,0-9.7,1.2-13.8,3.5c-4.1,2.3-7.4,5.5-9.7,9.5c-2.4,4.1-3.5,8.6-3.5,13.6c0,5,1.2,9.5,3.5,13.6c2.4,4.1,5.6,7.2,9.7,9.5
		c4.1,2.3,8.7,3.5,13.8,3.5C832.1,988.2,836.7,987.1,840.8,984.8z"/>
	<path class="st4" d="M911.9,946.7v45.1h-4.1v-9.7c-1.5,3.2-3.7,5.6-6.7,7.4c-2.9,1.8-6.4,2.6-10.4,2.6c-5.9,0-10.5-1.6-13.8-4.9
		c-3.3-3.3-5-8-5-14.2v-26.4h4.3v26c0,5.1,1.3,8.9,3.9,11.6c2.6,2.6,6.2,4,11,4c5.1,0,9.1-1.6,12.1-4.8c3-3.2,4.4-7.4,4.4-12.8v-24
		H911.9z"/>
	<path class="st4" d="M952.6,989c-1.1,1-2.5,1.8-4.1,2.4c-1.6,0.5-3.4,0.8-5.1,0.8c-3.9,0-6.9-1.1-9.1-3.2c-2.1-2.2-3.2-5.2-3.2-9
		v-29.5h-8.3v-3.7h8.3v-9.8h4.3v9.8h14.3v3.7h-14.3v29c0,2.9,0.7,5.2,2.1,6.7c1.4,1.5,3.5,2.3,6.3,2.3c2.8,0,5.2-0.8,7-2.5
		L952.6,989z"/>
	<path class="st4" d="M965.6,990.5c-3.3-1.1-5.8-2.5-7.7-4.1l2-3.5c1.8,1.6,4.2,2.9,7.1,3.9c2.9,1,5.9,1.6,9.1,1.6
		c4.5,0,7.9-0.7,10.1-2.2c2.2-1.5,3.2-3.6,3.2-6.2c0-1.9-0.6-3.4-1.8-4.5c-1.2-1.1-2.6-1.9-4.4-2.4c-1.7-0.5-4.1-1.1-7.2-1.6
		c-3.6-0.6-6.5-1.3-8.6-2.1c-2.2-0.7-4.1-2-5.6-3.6c-1.6-1.7-2.3-4-2.3-6.9c0-3.6,1.5-6.5,4.4-8.9s7.2-3.5,12.7-3.5
		c2.9,0,5.7,0.4,8.6,1.2c2.8,0.8,5.1,1.9,6.9,3.2l-2,3.5c-1.8-1.3-3.9-2.3-6.3-3c-2.4-0.7-4.8-1-7.3-1c-4.2,0-7.4,0.8-9.5,2.3
		c-2.1,1.6-3.2,3.6-3.2,6.1c0,2,0.6,3.6,1.8,4.7c1.2,1.1,2.7,2,4.4,2.5c1.8,0.5,4.2,1.1,7.4,1.8c3.5,0.6,6.4,1.3,8.5,2
		c2.2,0.7,4,1.9,5.5,3.5c1.5,1.6,2.2,3.8,2.2,6.7c0,3.7-1.6,6.7-4.7,9c-3.1,2.2-7.5,3.4-13.1,3.4
		C972.4,992.2,968.9,991.6,965.6,990.5z"/>
	<path class="st4" d="M1005.5,934.8c-0.7-0.7-1-1.5-1-2.5s0.3-1.8,1-2.5c0.7-0.7,1.5-1,2.5-1s1.8,0.3,2.5,1s1,1.5,1,2.5
		c0,1-0.3,1.8-1,2.5s-1.5,1-2.5,1S1006.2,935.4,1005.5,934.8z M1005.9,946.7h4.3v45.1h-4.3V946.7z"/>
	<path class="st4" d="M1068.5,927.7v64.1h-4.2v-10.6c-1.8,3.5-4.3,6.2-7.5,8.1c-3.2,1.9-6.9,2.9-11,2.9c-4.2,0-8-1-11.4-2.9
		c-3.4-2-6.1-4.7-8-8.1c-1.9-3.5-2.9-7.4-2.9-11.8c0-4.4,1-8.4,2.9-11.9c1.9-3.5,4.6-6.2,8-8.1c3.4-1.9,7.2-2.9,11.4-2.9
		c4,0,7.6,1,10.8,2.9c3.2,1.9,5.7,4.6,7.6,7.9v-29.5H1068.5z M1055.3,985.9c2.7-1.6,4.9-3.9,6.5-6.7c1.6-2.9,2.4-6.2,2.4-9.8
		c0-3.7-0.8-7-2.4-9.8c-1.6-2.9-3.7-5.1-6.5-6.7c-2.7-1.6-5.8-2.4-9.3-2.4s-6.6,0.8-9.3,2.4c-2.7,1.6-4.9,3.9-6.5,6.7
		c-1.6,2.9-2.4,6.2-2.4,9.8c0,3.7,0.8,7,2.4,9.8c1.6,2.9,3.7,5.1,6.5,6.7c2.7,1.6,5.8,2.4,9.3,2.4S1052.6,987.5,1055.3,985.9z"/>
	<path class="st4" d="M1124.8,970.3h-38.8c0.1,3.5,1,6.6,2.7,9.4c1.7,2.7,3.9,4.9,6.8,6.4c2.9,1.5,6.1,2.2,9.6,2.2
		c2.9,0,5.7-0.5,8.2-1.6c2.5-1.1,4.6-2.6,6.3-4.7l2.5,2.9c-2,2.4-4.4,4.2-7.4,5.4c-3,1.3-6.2,1.9-9.6,1.9c-4.5,0-8.5-1-12-2.9
		c-3.5-2-6.3-4.7-8.3-8.1s-3-7.4-3-11.8c0-4.4,0.9-8.3,2.8-11.8c1.9-3.5,4.4-6.2,7.7-8.2c3.3-2,7-2.9,11.1-2.9c4.1,0,7.8,1,11,2.9
		c3.3,1.9,5.8,4.6,7.7,8.1c1.9,3.5,2.8,7.4,2.8,11.8L1124.8,970.3z M1094.9,952.3c-2.5,1.4-4.6,3.4-6.1,6c-1.5,2.6-2.4,5.5-2.6,8.7
		h34.6c-0.2-3.2-1-6.1-2.6-8.6c-1.6-2.5-3.6-4.5-6.1-6c-2.5-1.4-5.4-2.2-8.6-2.2C1100.3,950.2,1097.4,950.9,1094.9,952.3z"/>
</g>
</svg>
