<?xml version="1.0" standalone="no"?>
<!DOCTYPE svg PUBLIC "-//W3C//DTD SVG 20010904//EN"
 "http://www.w3.org/TR/2001/REC-SVG-20010904/DTD/svg10.dtd">
<svg version="1.0" xmlns="http://www.w3.org/2000/svg"
 width="260.000000pt" height="260.000000pt" viewBox="0 0 260.000000 260.000000"
 preserveAspectRatio="xMidYMid meet">
<metadata>
Created by potrace 1.14, written by Peter Selinger 2001-2017
</metadata>
<g transform="translate(0.000000,260.000000) scale(0.100000,-0.100000)"
fill="#000000" stroke="none">
<path d="M0 1300 l0 -1300 1300 0 1300 0 0 1300 0 1300 -1300 0 -1300 0 0
-1300z m573 602 c189 -106 140 -392 -74 -432 -28 -6 -67 -10 -85 -10 l-34 0 0
241 0 242 71 -6 c52 -4 84 -14 122 -35z m477 -197 l0 -235 -40 0 -40 0 0 235
0 235 40 0 40 0 0 -235z m399 63 c31 -93 58 -168 61 -168 3 0 32 77 64 170
l59 170 37 0 38 0 -80 -240 -80 -240 -38 0 -38 0 -81 241 -80 240 41 -3 42 -3
55 -167z m761 132 l0 -40 -75 0 -75 0 0 -60 0 -60 55 0 55 0 0 -40 0 -40 -55
0 -55 0 0 -60 0 -60 75 0 75 0 0 -40 0 -40 -115 0 -115 0 0 240 0 240 115 0
115 0 0 -40z m-1719 -783 c85 -35 149 -129 149 -217 0 -52 -30 -123 -68 -163
-42 -45 -95 -67 -177 -74 l-75 -6 0 243 0 243 69 -6 c37 -3 84 -12 102 -20z
m659 -17 l0 -39 -77 -3 -78 -3 -3 -57 -3 -58 61 0 60 0 0 -40 0 -39 -57 -3
-58 -3 0 -55 0 -55 78 -3 77 -3 0 -39 0 -40 -115 0 -115 0 0 240 0 240 115 0
115 0 0 -40z m520 0 l0 -40 -75 0 -75 0 0 -60 0 -60 55 0 55 0 0 -40 0 -40
-55 0 -55 0 0 -60 0 -60 75 0 75 0 0 -40 0 -40 -115 0 -115 0 0 240 0 240 115
0 115 0 0 -40z m530 8 c53 -36 72 -70 73 -126 2 -98 -69 -162 -177 -162 l-56
0 0 -80 0 -80 -40 0 -40 0 0 235 0 235 104 0 c90 0 107 -3 136 -22z"/>
<path d="M460 1700 l0 -160 28 6 c39 9 85 39 101 66 58 95 7 217 -101 242
l-28 6 0 -160z"/>
<path d="M406 1052 c-3 -3 -6 -75 -6 -160 l0 -154 28 7 c15 3 40 14 56 23 92
54 100 191 15 254 -27 20 -85 39 -93 30z"/>
<path d="M2040 980 l0 -82 60 4 c67 5 86 18 96 64 4 24 0 37 -18 59 -20 23
-35 29 -81 33 l-57 4 0 -82z"/>
</g>
</svg>
