<?xml version="1.0" encoding="utf-8"?>
<!-- Generator: Adobe Illustrator 25.3.0, SVG Export Plug-In . SVG Version: 6.00 Build 0)  -->
<svg version="1.1" id="Livello_1" xmlns="http://www.w3.org/2000/svg" xmlns:xlink="http://www.w3.org/1999/xlink" x="0px" y="0px"
	 viewBox="0 0 554 69" style="enable-background:new 0 0 554 69;" xml:space="preserve">
<style type="text/css">
	.st0{fill:none;stroke:#FFFFFF;stroke-width:2;stroke-opacity:0.3;}
	.st1{fill:#FFFFFF;fill-opacity:0.3;}
	.st2{fill:#FFFFFF;}
	.st3{clip-path:url(#SVGID_2_);}
	.st4{clip-path:url(#SVGID_4_);}
	.st5{fill:none;}
</style>
<path class="st0" d="M12,62h533"/>
<ellipse class="st1" cx="12" cy="62" rx="6" ry="7"/>
<circle class="st1" cx="145" cy="62" r="7"/>
<ellipse class="st2" cx="278.5" cy="62" rx="6.5" ry="7"/>
<circle class="st1" cx="412" cy="62" r="7"/>
<circle class="st1" cx="545" cy="62" r="7"/>
<g>
	<defs>
		<rect id="SVGID_1_" width="25" height="23"/>
	</defs>
	<clipPath id="SVGID_2_">
		<use xlink:href="#SVGID_1_"  style="overflow:visible;"/>
	</clipPath>
	<g class="st3">
		<path class="st1" d="M25,19.9c0-0.9-0.7-1.6-1.6-1.6c-0.9,0-1.6,0.7-1.6,1.6c0,0.8,0.6,1.4,1.3,1.6v0.8h-1.6v-22
			c0-0.1-0.1-0.2-0.2-0.3C21.2,0,21.1,0,21,0l-5.3,3.3c-0.1,0.1-0.2,0.2-0.2,0.3V8h-2.6V4.9c0-0.1-0.1-0.3-0.2-0.3l-5.3-2
			c-0.1,0-0.2,0-0.3,0C6.9,2.7,6.9,2.8,6.9,2.9v7.3H4.1c-0.2,0-0.3,0.1-0.3,0.3v11.8H1.9v-0.9c0.8-0.1,1.4-0.8,1.4-1.6
			c0-0.6-0.3-1.1-0.7-1.4c0.3-0.3,0.5-0.7,0.5-1.1c0-0.8-0.6-1.4-1.4-1.4c-0.8,0-1.4,0.7-1.4,1.4c0,0.4,0.2,0.8,0.5,1.1
			C0.3,18.7,0,19.2,0,19.8c0,0.8,0.6,1.5,1.3,1.6v0.9H0.7c-0.2,0-0.3,0.1-0.3,0.3S0.6,23,0.7,23h23.3c0.2,0,0.3-0.1,0.3-0.3
			s-0.1-0.3-0.3-0.3h-0.4v-0.8C24.4,21.4,25,20.7,25,19.9z M1.7,16.6c0.4,0,0.8,0.4,0.8,0.8c0,0.4-0.4,0.8-0.8,0.8s-0.8-0.4-0.8-0.8
			C0.9,16.9,1.3,16.6,1.7,16.6z M0.6,19.8c0-0.6,0.5-1,1-1c0.6,0,1,0.5,1,1s-0.5,1-1,1C1.1,20.8,0.6,20.4,0.6,19.8z M16.1,3.8
			l4.7-2.9v21.4h-2v-14c0-0.2-0.1-0.3-0.3-0.3h-2.3V3.8z M18.1,8.7v13.7h-1.4v-1.5c0-0.7-0.6-1.2-1.2-1.2s-1.2,0.6-1.2,1.2v1.5h-1.4
			V8.7H18.1z M16.1,22.3H15v-1.5c0-0.3,0.3-0.6,0.6-0.6c0.3,0,0.6,0.3,0.6,0.6L16.1,22.3L16.1,22.3z M7.6,3.4l4.7,1.7v17.2h-1.9
			V10.6c0-0.2-0.1-0.3-0.3-0.3H7.6V3.4z M4.4,10.9h5.2v11.5H8.1v-1.5c0-0.7-0.6-1.2-1.2-1.2c-0.7,0-1.2,0.6-1.2,1.2v1.5H4.4
			L4.4,10.9L4.4,10.9z M7.5,22.3H6.4v-1.5c0-0.3,0.3-0.6,0.6-0.6c0.3,0,0.6,0.3,0.6,0.6L7.5,22.3L7.5,22.3z M22.4,19.9
			c0-0.5,0.4-1,1-1c0.5,0,1,0.4,1,1s-0.4,1-1,1C22.9,20.9,22.4,20.4,22.4,19.9z"/>
		<path class="st1" d="M5.7,12.9c0.2,0,0.3-0.1,0.3-0.3v-0.5c0-0.2-0.1-0.3-0.3-0.3c-0.2,0-0.3,0.1-0.3,0.3v0.5
			C5.4,12.8,5.6,12.9,5.7,12.9z"/>
		<path class="st1" d="M7,12.9c0.2,0,0.3-0.1,0.3-0.3v-0.5c0-0.2-0.1-0.3-0.3-0.3c-0.2,0-0.3,0.1-0.3,0.3v0.5
			C6.7,12.8,6.9,12.9,7,12.9z"/>
		<path class="st1" d="M8.4,12.9c0.2,0,0.3-0.1,0.3-0.3v-0.5c0-0.2-0.1-0.3-0.3-0.3c-0.2,0-0.3,0.1-0.3,0.3v0.5
			C8.1,12.8,8.2,12.9,8.4,12.9z"/>
		<path class="st1" d="M5.7,14.8c0.2,0,0.3-0.1,0.3-0.3V14c0-0.2-0.1-0.3-0.3-0.3c-0.2,0-0.3,0.1-0.3,0.3v0.5
			C5.4,14.6,5.6,14.8,5.7,14.8z"/>
		<path class="st1" d="M7,14.8c0.2,0,0.3-0.1,0.3-0.3V14c0-0.2-0.1-0.3-0.3-0.3c-0.2,0-0.3,0.1-0.3,0.3v0.5
			C6.7,14.6,6.9,14.8,7,14.8z"/>
		<path class="st1" d="M8.4,14.8c0.2,0,0.3-0.1,0.3-0.3V14c0-0.2-0.1-0.3-0.3-0.3c-0.2,0-0.3,0.1-0.3,0.3v0.5
			C8.1,14.6,8.2,14.8,8.4,14.8z"/>
		<path class="st1" d="M5.7,16.6c0.2,0,0.3-0.1,0.3-0.3v-0.5c0-0.2-0.1-0.3-0.3-0.3c-0.2,0-0.3,0.1-0.3,0.3v0.5
			C5.4,16.5,5.6,16.6,5.7,16.6z"/>
		<path class="st1" d="M7,16.6c0.2,0,0.3-0.1,0.3-0.3v-0.5c0-0.2-0.1-0.3-0.3-0.3c-0.2,0-0.3,0.1-0.3,0.3v0.5
			C6.7,16.5,6.9,16.6,7,16.6z"/>
		<path class="st1" d="M8.4,16.6c0.2,0,0.3-0.1,0.3-0.3v-0.5c0-0.2-0.1-0.3-0.3-0.3c-0.2,0-0.3,0.1-0.3,0.3v0.5
			C8.1,16.5,8.2,16.6,8.4,16.6z"/>
		<path class="st1" d="M5.7,18.5c0.2,0,0.3-0.1,0.3-0.3v-0.5c0-0.2-0.1-0.3-0.3-0.3c-0.2,0-0.3,0.1-0.3,0.3v0.5
			C5.4,18.3,5.6,18.5,5.7,18.5z"/>
		<path class="st1" d="M7,18.5c0.2,0,0.3-0.1,0.3-0.3v-0.5c0-0.2-0.1-0.3-0.3-0.3c-0.2,0-0.3,0.1-0.3,0.3v0.5
			C6.7,18.3,6.9,18.5,7,18.5z"/>
		<path class="st1" d="M8.4,18.5c0.2,0,0.3-0.1,0.3-0.3v-0.5c0-0.2-0.1-0.3-0.3-0.3c-0.2,0-0.3,0.1-0.3,0.3v0.5
			C8.1,18.3,8.2,18.5,8.4,18.5z"/>
		<path class="st1" d="M17.2,4.5c-0.2,0-0.3,0.1-0.3,0.3v0.5c0,0.2,0.1,0.3,0.3,0.3c0.2,0,0.3-0.1,0.3-0.3V4.8
			C17.5,4.7,17.3,4.5,17.2,4.5z"/>
		<path class="st1" d="M18.5,5.6c0.2,0,0.3-0.1,0.3-0.3V4.8c0-0.2-0.1-0.3-0.3-0.3c-0.2,0-0.3,0.1-0.3,0.3v0.5
			C18.1,5.4,18.3,5.6,18.5,5.6z"/>
		<path class="st1" d="M19.8,5.6c0.2,0,0.3-0.1,0.3-0.3V4.8c0-0.2-0.1-0.3-0.3-0.3c-0.2,0-0.3,0.1-0.3,0.3v0.5
			C19.5,5.4,19.6,5.6,19.8,5.6z"/>
		<path class="st1" d="M17.2,6.3c-0.2,0-0.3,0.1-0.3,0.3v0.5c0,0.2,0.1,0.3,0.3,0.3c0.2,0,0.3-0.1,0.3-0.3V6.6
			C17.5,6.4,17.3,6.3,17.2,6.3z"/>
		<path class="st1" d="M18.8,7.1V6.6c0-0.2-0.1-0.3-0.3-0.3c-0.2,0-0.3,0.1-0.3,0.3v0.5c0,0.2,0.1,0.3,0.3,0.3
			C18.7,7.4,18.8,7.3,18.8,7.1z"/>
		<path class="st1" d="M19.8,7.4c0.2,0,0.3-0.1,0.3-0.3V6.6c0-0.2-0.1-0.3-0.3-0.3c-0.2,0-0.3,0.1-0.3,0.3v0.5
			C19.5,7.3,19.6,7.4,19.8,7.4z"/>
		<path class="st1" d="M19.8,9.3c0.2,0,0.3-0.1,0.3-0.3V8.5c0-0.2-0.1-0.3-0.3-0.3c-0.2,0-0.3,0.1-0.3,0.3v0.5
			C19.5,9.1,19.6,9.3,19.8,9.3z"/>
		<path class="st1" d="M19.8,11.1c0.2,0,0.3-0.1,0.3-0.3v-0.5c0-0.2-0.1-0.3-0.3-0.3c-0.2,0-0.3,0.1-0.3,0.3v0.5
			C19.5,10.9,19.6,11.1,19.8,11.1z"/>
		<path class="st1" d="M19.8,12.9c0.2,0,0.3-0.1,0.3-0.3v-0.5c0-0.2-0.1-0.3-0.3-0.3c-0.2,0-0.3,0.1-0.3,0.3v0.5
			C19.5,12.7,19.6,12.9,19.8,12.9z"/>
		<path class="st1" d="M19.8,14.7c0.2,0,0.3-0.1,0.3-0.3v-0.5c0-0.2-0.1-0.3-0.3-0.3c-0.2,0-0.3,0.1-0.3,0.3v0.5
			C19.5,14.6,19.6,14.7,19.8,14.7z"/>
		<path class="st1" d="M19.8,16.5c0.2,0,0.3-0.1,0.3-0.3v-0.5c0-0.2-0.1-0.3-0.3-0.3c-0.2,0-0.3,0.1-0.3,0.3v0.5
			C19.5,16.4,19.6,16.5,19.8,16.5z"/>
		<path class="st1" d="M19.8,18.3c0.2,0,0.3-0.1,0.3-0.3v-0.5c0-0.2-0.1-0.3-0.3-0.3c-0.2,0-0.3,0.1-0.3,0.3V18
			C19.5,18.2,19.6,18.3,19.8,18.3z"/>
		<path class="st1" d="M19.8,20.2c0.2,0,0.3-0.1,0.3-0.3v-0.5c0-0.2-0.1-0.3-0.3-0.3c-0.2,0-0.3,0.1-0.3,0.3v0.5
			C19.5,20,19.6,20.2,19.8,20.2z"/>
		<path class="st1" d="M8.7,5.9C8.5,5.9,8.3,6,8.3,6.2v0.4c0,0.2,0.1,0.3,0.3,0.3C8.9,6.9,9,6.8,9,6.6V6.2C9,6,8.9,5.9,8.7,5.9z"/>
		<path class="st1" d="M10,6.9c0.2,0,0.3-0.1,0.3-0.3V6.2c0-0.2-0.1-0.3-0.3-0.3C9.8,5.9,9.7,6,9.7,6.2v0.4C9.7,6.7,9.8,6.9,10,6.9z
			"/>
		<path class="st1" d="M11.3,6.9c0.2,0,0.3-0.1,0.3-0.3V6.2c0-0.2-0.1-0.3-0.3-0.3C11.1,5.9,11,6,11,6.2v0.4
			C11,6.7,11.1,6.9,11.3,6.9z"/>
		<path class="st1" d="M8.7,7.3c-0.2,0-0.3,0.1-0.3,0.3V8c0,0.2,0.1,0.3,0.3,0.3C8.9,8.3,9,8.2,9,8V7.6C9,7.5,8.9,7.3,8.7,7.3z"/>
		<path class="st1" d="M10,8.3c0.2,0,0.3-0.1,0.3-0.3V7.6c0-0.2-0.1-0.3-0.3-0.3c-0.2,0-0.3,0.1-0.3,0.3V8C9.7,8.1,9.8,8.3,10,8.3z"
			/>
		<path class="st1" d="M11.3,8.3c0.2,0,0.3-0.1,0.3-0.3V7.6c0-0.2-0.1-0.3-0.3-0.3c-0.2,0-0.3,0.1-0.3,0.3V8
			C11,8.1,11.1,8.3,11.3,8.3z"/>
		<path class="st1" d="M8.7,8.7c-0.2,0-0.3,0.1-0.3,0.3v0.4c0,0.2,0.1,0.3,0.3,0.3C8.9,9.7,9,9.6,9,9.4V9.1C9,8.9,8.9,8.7,8.7,8.7z"
			/>
		<path class="st1" d="M10.3,9.4V9c0-0.2-0.1-0.3-0.3-0.3C9.8,8.7,9.7,8.8,9.7,9v0.4c0,0.2,0.1,0.3,0.3,0.3
			C10.2,9.7,10.3,9.6,10.3,9.4z"/>
		<path class="st1" d="M11.3,9.7c0.2,0,0.3-0.1,0.3-0.3V9c0-0.2-0.1-0.3-0.3-0.3C11.1,8.7,11,8.8,11,9v0.4C11,9.6,11.1,9.7,11.3,9.7
			z"/>
		<path class="st1" d="M11.3,11.3c0.2,0,0.3-0.1,0.3-0.3v-0.4c0-0.2-0.1-0.3-0.3-0.3c-0.2,0-0.3,0.1-0.3,0.3V11
			C11,11.1,11.1,11.3,11.3,11.3z"/>
		<path class="st1" d="M11.3,12.7c0.2,0,0.3-0.1,0.3-0.3V12c0-0.2-0.1-0.3-0.3-0.3c-0.2,0-0.3,0.1-0.3,0.3v0.4
			C11,12.6,11.1,12.7,11.3,12.7z"/>
		<path class="st1" d="M11.3,14.2c0.2,0,0.3-0.1,0.3-0.3v-0.4c0-0.2-0.1-0.3-0.3-0.3c-0.2,0-0.3,0.1-0.3,0.3v0.4
			C11,14,11.1,14.2,11.3,14.2z"/>
		<path class="st1" d="M11.3,15.6c0.2,0,0.3-0.1,0.3-0.3v-0.4c0-0.2-0.1-0.3-0.3-0.3c-0.2,0-0.3,0.1-0.3,0.3v0.4
			C11,15.4,11.1,15.6,11.3,15.6z"/>
		<path class="st1" d="M11.3,17c0.2,0,0.3-0.1,0.3-0.3v-0.4c0-0.2-0.1-0.3-0.3-0.3c-0.2,0-0.3,0.1-0.3,0.3v0.4
			C11,16.8,11.1,17,11.3,17z"/>
		<path class="st1" d="M11.3,18.4c0.2,0,0.3-0.1,0.3-0.3v-0.4c0-0.2-0.1-0.3-0.3-0.3c-0.2,0-0.3,0.1-0.3,0.3v0.4
			C11,18.3,11.1,18.4,11.3,18.4z"/>
		<path class="st1" d="M11.3,19.8c0.2,0,0.3-0.1,0.3-0.3v-0.4c0-0.2-0.1-0.3-0.3-0.3c-0.2,0-0.3,0.1-0.3,0.3v0.4
			C11,19.7,11.1,19.8,11.3,19.8z"/>
		<path class="st1" d="M14.2,17.7h2.8c0.2,0,0.3-0.1,0.3-0.3s-0.1-0.3-0.3-0.3h-2.8c-0.2,0-0.3,0.1-0.3,0.3S14,17.7,14.2,17.7z"/>
		<path class="st1" d="M14.2,16.2h2.8c0.2,0,0.3-0.1,0.3-0.3s-0.1-0.3-0.3-0.3h-2.8c-0.2,0-0.3,0.1-0.3,0.3S14,16.2,14.2,16.2z"/>
		<path class="st1" d="M14.2,14.8h2.8c0.2,0,0.3-0.1,0.3-0.3s-0.1-0.3-0.3-0.3h-2.8c-0.2,0-0.3,0.1-0.3,0.3S14,14.8,14.2,14.8z"/>
		<path class="st1" d="M14.2,13.3h2.8c0.2,0,0.3-0.1,0.3-0.3s-0.1-0.3-0.3-0.3h-2.8c-0.2,0-0.3,0.1-0.3,0.3S14,13.3,14.2,13.3z"/>
		<path class="st1" d="M14.2,11.9h2.8c0.2,0,0.3-0.1,0.3-0.3s-0.1-0.3-0.3-0.3h-2.8c-0.2,0-0.3,0.1-0.3,0.3S14,11.9,14.2,11.9z"/>
		<path class="st1" d="M14.2,10.4h2.8c0.2,0,0.3-0.1,0.3-0.3c0-0.2-0.1-0.3-0.3-0.3h-2.8c-0.2,0-0.3,0.1-0.3,0.3
			C13.8,10.3,14,10.4,14.2,10.4z"/>
	</g>
</g>
<path class="st1" d="M3.6,34.8h16v5.8h0.9v-8.5c0-0.5-0.4-0.9-0.9-0.9h-16c-0.5,0-0.9,0.4-0.9,0.9v12.5c0,0.5,0.4,0.9,0.9,0.9h9.8
	v-0.9H3.6V34.8z M19.6,32.1v1.8h-16v-1.8H19.6z M4.5,33c0-0.2,0.2-0.4,0.4-0.4c0.2,0,0.4,0.2,0.4,0.4c0,0.2-0.2,0.4-0.4,0.4
	C4.7,33.4,4.5,33.2,4.5,33z M19.2,43.9l1.4-0.3v-1.1L14.2,40l-0.9,0.9l2.4,6.3h1.1l0.3-1.4l1.5,1.5l2-2L19.2,43.9z M16.7,44.1
	L16.2,46l-1.9-4.9l0,0l4.9,1.9l-1.9,0.5l2,2l-0.7,0.7L16.7,44.1z"/>
<path class="st1" d="M536.9,34.8h16v5.8h0.9v-8.5c0-0.5-0.4-0.9-0.9-0.9h-16c-0.5,0-0.9,0.4-0.9,0.9v12.5c0,0.5,0.4,0.9,0.9,0.9h9.8
	v-0.9h-9.8V34.8z M552.9,32.1v1.8h-16v-1.8H552.9z M537.8,33c0-0.2,0.2-0.4,0.4-0.4s0.4,0.2,0.4,0.4c0,0.2-0.2,0.4-0.4,0.4
	S537.8,33.2,537.8,33z M552.5,43.9l1.4-0.3v-1.1l-6.3-2.4l-0.9,0.9l2.4,6.3h1.1l0.3-1.4l1.5,1.5l2-2L552.5,43.9z M550,44.1l-0.5,1.9
	l-1.9-4.9l0,0l4.9,1.9l-1.9,0.5l2,2l-0.7,0.7L550,44.1z"/>
<g>
	<defs>
		<rect id="SVGID_3_" x="137" y="19" width="17" height="29"/>
	</defs>
	<clipPath id="SVGID_4_">
		<use xlink:href="#SVGID_3_"  style="overflow:visible;"/>
	</clipPath>
	<g class="st4">
		<path class="st1" d="M153.7,35.2c0.5-0.6,0.4-1.5-0.2-1.9l-0.5-0.5c0,0,0,0-0.1-0.1l0.8-0.9c0.2-0.3,0.3-0.6,0.3-1
			c0-0.4-0.2-0.7-0.5-1l-0.5-0.5c-0.2-0.1-0.4-0.3-0.6-0.3v-8.7c0-0.8-0.6-1.3-1.3-1.3h-9.4c-0.7,0-1.3,0.6-1.3,1.3v6.1
			c-0.2-0.2-0.5-0.5-0.9-0.6c-0.7-0.3-1.5-0.1-2.1,0.5c-0.5,0.5-0.6,1.1-0.4,1.8c0.1,0.4,0.3,0.8,0.4,1.2c0.4,1.9,0.5,3.9,0.2,5.5
			l-0.1,0.5c-0.4,2.2-0.7,4.3-0.1,5.9c0.5,1.4,1.3,2.1,1.9,2.7l0.1,0.1c0.1,0.1,0.2,0.3,0.1,0.5L139,46l8,2l0.4-1.2
			c0.1-0.1,0.2-0.2,0.3-0.3c0.4-0.1,1-0.3,1.7-1c0.8-0.9,1.6-2.6,1.9-3.3c0.1,0,0.2,0.1,0.4,0.1c0.4,0,0.7-0.2,1-0.5l0.6-0.7
			c0.2-0.3,0.3-0.6,0.3-1c0-0.4-0.2-0.7-0.5-1l-0.1-0.1l0.6-0.8c0.5-0.6,0.4-1.5-0.2-1.9l-0.5-0.4L153.7,35.2z M150.2,36.2l0.5,0.4
			l-0.6,0.8c-0.2,0.3-0.3,0.6-0.3,0.9h-8.6V22.1h10.4v7c0,0,0,0,0,0c-0.1,0-0.1,0.1-0.2,0.1c0,0-0.1,0-0.1,0.1
			c-0.1,0.1-0.1,0.1-0.2,0.2l-1.1,1.3c-0.5,0.6-0.4,1.4,0.2,1.9l0.5,0.5c0,0,0,0,0.1,0.1l-0.7,0.9C149.6,34.8,149.7,35.7,150.2,36.2
			z M150.7,39.7l-0.2,0.2c-0.2,0.3-0.3,0.6-0.3,1c0,0.1,0,0.2,0.1,0.3c0,0,0,0.1,0,0.1c0,0,0,0.1,0,0.1h-8.7c-0.3,0-0.5-0.2-0.5-0.5
			v-1.8h8.8c0.1,0.1,0.1,0.2,0.2,0.3L150.7,39.7z M153,30.4c0.1,0.1,0.2,0.2,0.2,0.4c0,0.1,0,0.3-0.1,0.4l-1.1,1.3l0,0
			c-0.1,0.1-0.1,0.1-0.2,0.1c-0.1,0-0.2,0.1-0.3,0c-0.1,0-0.2-0.1-0.2-0.1l-0.5-0.5c-0.2-0.2-0.2-0.6-0.1-0.8l1.1-1.3
			c0.1-0.1,0.2-0.2,0.3-0.2c0,0,0.1,0,0.1,0c0.1,0,0.2,0.1,0.3,0.1L153,30.4z M141.7,19.8h9.4c0.3,0,0.5,0.2,0.5,0.5v0.9h-10.4v-0.9
			C141.2,20.1,141.4,19.8,141.7,19.8z M148.9,45c-0.5,0.6-1,0.7-1.3,0.8c-0.4,0.1-0.8,0.3-0.9,0.8l-0.2,0.5l-6.5-1.7l0.2-0.7
			c0.2-0.5,0.1-1-0.3-1.4l-0.1-0.1c-0.6-0.6-1.2-1.2-1.7-2.4c-0.5-1.3-0.2-3.3,0.2-5.4l0.1-0.5c0.3-1.7,0.2-3.9-0.2-5.9
			c-0.1-0.5-0.2-0.9-0.4-1.3c-0.1-0.3-0.1-0.6,0.2-0.9c0.3-0.3,0.8-0.5,1.2-0.3c1.1,0.5,1.2,1.6,1.2,1.7v12.5c0,0.8,0.6,1.3,1.3,1.3
			h8.8C150.1,43,149.5,44.3,148.9,45z M152.7,40.5l-0.6,0.7c-0.2,0.2-0.4,0.3-0.7,0.1c0,0-0.1,0-0.1-0.1l-0.1-0.1
			c-0.1-0.1-0.2-0.2-0.2-0.4c0-0.1,0-0.3,0.1-0.4l0.3-0.3c0,0,0.1,0,0.1,0c0,0,0.1,0,0.1,0c0,0,0.1,0,0.1,0h0.1c0.1,0,0.1,0,0.2,0
			c0,0,0.1,0,0.1,0c0.1,0,0.1,0,0.1,0c0,0,0.1,0,0.1,0c0,0,0.1,0,0.1,0c0.1,0,0.1-0.1,0.2-0.1c0,0,0,0,0.1,0c0,0,0,0,0.1-0.1
			l0.1,0.1c0.1,0.1,0.2,0.2,0.2,0.4C152.8,40.3,152.7,40.4,152.7,40.5z M151.6,39.3c-0.1,0-0.1,0-0.1,0c0,0-0.1,0-0.1,0
			c-0.1,0-0.1-0.1-0.1-0.1l-0.5-0.5c-0.2-0.2-0.2-0.6-0.1-0.8l0.7-0.9c0.1,0,0.1,0,0.2,0c0,0,0,0,0,0c0,0,0.1,0,0.1,0
			c0,0,0.1,0,0.1,0c0.1,0,0.1,0,0.2,0c0,0,0,0,0.1,0s0.1,0,0.1,0c0,0,0.1,0,0.1,0c0,0,0.1,0,0.1,0c0.1,0,0.1-0.1,0.2-0.1
			c0,0,0,0,0.1-0.1c0,0,0.1,0,0.1-0.1L153,37c0.2,0.2,0.2,0.6,0.1,0.8l-0.7,0.9l-0.3,0.4c0,0.1-0.1,0.1-0.2,0.1l0,0c0,0,0,0,0,0h0
			C151.7,39.2,151.7,39.3,151.6,39.3z M153.1,34.6l-0.7,0.9l-0.3,0.4c-0.1,0.1-0.1,0.1-0.2,0.1l-0.1,0c0,0-0.1,0-0.1,0
			c-0.1,0-0.1,0-0.1,0c0,0-0.1,0-0.1,0c-0.1,0-0.1-0.1-0.1-0.1l-0.5-0.5c-0.2-0.2-0.2-0.6-0.1-0.8l1-1.2c0.1,0,0.1,0,0.2,0
			c0,0,0.1,0,0.1,0c0.1,0,0.2-0.1,0.2-0.1c0.1,0,0.2-0.1,0.2-0.1c0,0,0.1,0,0.1,0.1l0.5,0.5C153.2,34.1,153.2,34.4,153.1,34.6z"/>
		<path class="st1" d="M147.7,20.3h-2.6v0.6h2.6V20.3z"/>
		<path class="st1" d="M146.4,40.7c0.4,0,0.7-0.3,0.7-0.7c0-0.4-0.3-0.7-0.7-0.7c-0.4,0-0.7,0.3-0.7,0.7
			C145.7,40.4,146,40.7,146.4,40.7z"/>
		<path class="st1" d="M144.2,23h-1.9c-0.1,0-0.3,0.1-0.3,0.3v2c0,0.1,0.1,0.3,0.3,0.3h1.9c0.1,0,0.3-0.1,0.3-0.3v-2
			C144.4,23.1,144.3,23,144.2,23z M143.9,25h-1.4v-1.5h1.4V25z"/>
		<path class="st1" d="M147.3,23h-1.9c-0.1,0-0.3,0.1-0.3,0.3v2c0,0.1,0.1,0.3,0.3,0.3h1.9c0.1,0,0.3-0.1,0.3-0.3v-2
			C147.6,23.1,147.5,23,147.3,23z"/>
		<path class="st1" d="M148.6,25.6h1.9c0.1,0,0.3-0.1,0.3-0.3v-2c0-0.1-0.1-0.3-0.3-0.3h-1.9c-0.1,0-0.3,0.1-0.3,0.3v2
			C148.3,25.4,148.5,25.6,148.6,25.6z"/>
		<path class="st1" d="M144.2,26.3h-1.9c-0.1,0-0.3,0.1-0.3,0.3v2c0,0.1,0.1,0.3,0.3,0.3h1.9c0.1,0,0.3-0.1,0.3-0.3v-2
			C144.4,26.5,144.3,26.3,144.2,26.3z"/>
		<path class="st1" d="M147.3,26.3h-1.9c-0.1,0-0.3,0.1-0.3,0.3v2c0,0.1,0.1,0.3,0.3,0.3h1.9c0.1,0,0.3-0.1,0.3-0.3v-2
			C147.6,26.5,147.5,26.3,147.3,26.3z"/>
		<path class="st1" d="M150.7,28.6v-2c0-0.1-0.1-0.3-0.3-0.3h-1.9c-0.1,0-0.3,0.1-0.3,0.3v2c0,0.1,0.1,0.3,0.3,0.3h1.9
			C150.6,28.9,150.7,28.8,150.7,28.6z"/>
		<path class="st1" d="M144.2,29.7h-1.9c-0.1,0-0.3,0.1-0.3,0.3v2c0,0.1,0.1,0.3,0.3,0.3h1.9c0.1,0,0.3-0.1,0.3-0.3v-2
			C144.4,29.8,144.3,29.7,144.2,29.7z"/>
		<path class="st1" d="M147.3,29.7h-1.9c-0.1,0-0.3,0.1-0.3,0.3v2c0,0.1,0.1,0.3,0.3,0.3h1.9c0.1,0,0.3-0.1,0.3-0.3v-2
			C147.6,29.8,147.5,29.7,147.3,29.7z"/>
	</g>
</g>
<path class="st5" d="M271.7,40.4c0.1,0,0.3-0.1,0.3-0.2l0.3-1.3c0.1-0.4,0.4-0.7,0.8-0.7v-6.4h-1.5c-0.5,0-0.9,0.4-0.9,0.9v6.3
	l0.7,1.2C271.5,40.4,271.6,40.4,271.7,40.4z"/>
<polygon class="st5" points="286,39.8 286.6,38.9 286.6,38.8 286,39.7 "/>
<path class="st5" d="M273.3,38.8c-0.2,0-0.3,0.1-0.4,0.2l-0.3,1.3c-0.1,0.4-0.5,0.7-0.9,0.7c-0.3,0-0.6-0.2-0.8-0.4l-0.7-1.2
	c0,0,0-0.1,0-0.2v-2.4c-0.7,0.1-1.2,0.8-1.2,1.5v3.5c0,0,0,0.1,0,0.1l0.5,1c0.1,0.1,0.1,0.3,0.1,0.4v3.2h2.4V45
	c0-0.4,0.1-0.9,0.3-1.2l0.5-0.9c0.1-0.2,0.2-0.4,0.2-0.7v-0.2c0-0.2,0-0.4,0.1-0.6l0.6-2.1c0,0,0,0,0,0
	C273.6,39,273.5,38.8,273.3,38.8z"/>
<path class="st2" d="M283.7,42.2h-9.9v-1.7l0.3-1.2c0.1-0.4,0-0.7-0.3-1v-6.6h11.3c0.5,0,0.9,0.4,0.9,0.9v6.9l0.6-0.8v-6.1
	c0-0.8-0.7-1.5-1.5-1.5h-13.4c-0.8,0-1.5,0.7-1.5,1.5v3.4c-1,0.2-1.8,1.1-1.8,2.1v3.5c0,0.1,0,0.3,0.1,0.4l0.5,1c0,0,0,0.1,0,0.1
	v3.5c0,0.2,0.1,0.3,0.3,0.3h3c0.2,0,0.3-0.1,0.3-0.3V45c0-0.3,0.1-0.7,0.2-1l0.5-0.9c0-0.1,0.1-0.1,0.1-0.2h10.4l0.1-0.2L283.7,42.2
	L283.7,42.2z M270.8,32.7c0-0.5,0.4-0.9,0.9-0.9h1.5v6.4c-0.4,0-0.7,0.3-0.8,0.7l-0.3,1.3c0,0.1-0.2,0.2-0.3,0.2
	c-0.1,0-0.2-0.1-0.3-0.1l-0.7-1.2V32.7z M273.6,39.2l-0.6,2.1c-0.1,0.2-0.1,0.4-0.1,0.6v0.2c0,0.2-0.1,0.5-0.2,0.7l-0.5,0.9
	c-0.2,0.4-0.3,0.8-0.3,1.2v1.6h-2.4v-3.2c0-0.1,0-0.3-0.1-0.4l-0.5-1c0,0,0-0.1,0-0.1v-3.5c0-0.7,0.5-1.4,1.2-1.5v2.4
	c0,0.1,0,0.1,0,0.2l0.7,1.2c0.2,0.3,0.5,0.4,0.8,0.4c0.4,0,0.8-0.3,0.9-0.7L273,39c0-0.2,0.2-0.3,0.4-0.2
	C273.5,38.8,273.6,39,273.6,39.2C273.6,39.2,273.6,39.2,273.6,39.2z"/>
<path class="st2" d="M272,38c0.5,0,0.9-0.4,0.9-0.9c0-0.5-0.4-0.9-0.9-0.9c-0.5,0-0.9,0.4-0.9,0.9C271.1,37.5,271.5,38,272,38z
	 M272,36.7c0.2,0,0.3,0.1,0.3,0.3c0,0.2-0.1,0.3-0.3,0.3c-0.2,0-0.3-0.1-0.3-0.3C271.7,36.9,271.8,36.7,272,36.7z"/>
<path class="st2" d="M286.7,36.1c0,0-0.4,0-0.6,0v3l-0.7,1.2c-0.1,0.1-0.1,0.1-0.3,0.1c-0.1,0-0.3-0.1-0.3-0.2l-0.4-1.3
	c-0.1-0.4-0.4-0.7-0.8-0.7l-0.6,0.2c-0.3,0.2-0.4,0.6-0.3,1l0.3,1.2c0,0,0.2,0.4,0.2,0.6c0,0.6,0.1,1.1,0.2,1.7h0
	c0,0.1,0.1,0.1,0.1,0.2l0.5,0.9c0.1,0.3,0.2,0.6,0.2,1v1.9c0,0.2,0.1,0.3,0.3,0.3h3c0.2,0,0.3-0.1,0.3-0.3v-3.5c0,0,0-0.1,0-0.1
	l0.5-1c0.1-0.1,0.1-0.3,0.1-0.4v-3.5C288.6,37.2,287.8,36.3,286.7,36.1z M288,41.8c0,0,0,0.1,0,0.1l-0.5,1c-0.1,0.1-0.1,0.3-0.1,0.4
	v3.2h-2.4V45c0-0.4-0.1-0.8-0.3-1.2l-0.5-0.9c-0.1-0.2-0.2-0.4-0.2-0.7v-0.2c0-0.2,0-0.4-0.1-0.6l-0.6-2.1c0,0,0,0,0,0
	c0-0.2,0.1-0.3,0.2-0.4c0.2,0,0.3,0.1,0.4,0.2l0.4,1.3c0.1,0.4,0.5,0.7,0.9,0.7c0.3,0,0.6-0.2,0.8-0.4l0.7-1.2c0,0,0-0.1,0-0.2v-2.4
	c0.7,0.1,1.2,0.8,1.2,1.5V41.8z"/>
<path class="st2" d="M283.1,38.4c0.1,0,0.2-0.1,0.3-0.1c0.1,0,0.2-0.1,0.3-0.1"/>
<path class="st1" d="M416.8,32.2c-2.8,0-5.1,1.7-5.1,3.8c0,1.1,0.6,2,1.6,2.8c-0.1,0.2-0.3,0.5-0.5,0.7c-0.2,0.3-0.3,0.7,0,1
	c0.1,0.2,0.4,0.3,0.6,0.3c0.1,0,0.2,0,0.3,0c0.7-0.2,1.5-0.6,2.4-1c0.2,0,0.4,0,0.7,0c2.8,0,5.1-1.7,5.1-3.8
	C421.9,33.9,419.6,32.2,416.8,32.2z M416.8,38.9c-0.2,0-0.5,0-0.7,0c-0.1,0-0.1,0-0.2,0c-1,0.5-1.8,0.8-2.4,1.1
	c0.4-0.4,0.6-0.9,0.8-1.3c0.1-0.2,0-0.4-0.2-0.5c-1-0.6-1.5-1.4-1.5-2.3c0-1.6,1.9-2.9,4.3-2.9c2.4,0,4.3,1.3,4.3,2.9
	C421.1,37.6,419.2,38.9,416.8,38.9z"/>
<path class="st1" d="M412.8,41.8h-0.6v-0.4c0-1-0.9-1.9-1.9-1.9h-2.2v-1.2c0-0.2-0.2-0.4-0.4-0.4c-0.2,0-0.4,0.2-0.4,0.4v1.2h-2.2
	c-1,0-1.9,0.9-1.9,1.9v0.4h-0.6c-0.6,0-1,0.5-1,1v1.4c0,0.6,0.5,1,1,1h0.6v0.4c0,1,0.8,1.9,1.9,1.9h5.3c1,0,1.9-0.9,1.9-1.9v-0.4
	h0.6c0.6,0,1-0.5,1-1v-1.4C413.8,42.3,413.4,41.8,412.8,41.8z M403.3,44.5h-0.6c-0.1,0-0.2-0.1-0.2-0.2v-1.4c0-0.1,0.1-0.2,0.2-0.2
	h0.6V44.5z M411.5,45.7c0,0.6-0.5,1.1-1.1,1.1h-5.3c-0.6,0-1.1-0.5-1.1-1.1v-4.3c0-0.6,0.5-1.1,1.1-1.1h5.3c0.6,0,1.1,0.5,1.1,1.1
	V45.7z M413,44.3c0,0.1-0.1,0.2-0.2,0.2h-0.6v-1.9h0.6c0.1,0,0.2,0.1,0.2,0.2V44.3z"/>
<path class="st1" d="M406.1,43.3c0.5,0,0.9-0.4,0.9-0.9c0-0.5-0.4-0.9-0.9-0.9c-0.5,0-0.9,0.4-0.9,0.9
	C405.3,42.9,405.7,43.3,406.1,43.3z"/>
<path class="st1" d="M409.4,43.3c0.5,0,0.9-0.4,0.9-0.9c0-0.5-0.4-0.9-0.9-0.9c-0.5,0-0.9,0.4-0.9,0.9
	C408.5,42.9,408.9,43.3,409.4,43.3z"/>
<path class="st1" d="M409.5,44.1c-0.2-0.1-0.4,0-0.5,0.2c-0.2,0.4-0.7,0.6-1.2,0.6c-0.6,0-1-0.3-1.2-0.6c-0.1-0.2-0.3-0.3-0.5-0.2
	c-0.2,0.1-0.3,0.3-0.2,0.5c0.3,0.7,1.1,1.1,1.9,1.1c0.9,0,1.6-0.4,1.9-1.1C409.8,44.4,409.7,44.2,409.5,44.1z"/>
<path class="st1" d="M414.5,36.8c0.5,0,0.8-0.4,0.8-0.8c0-0.5-0.4-0.8-0.8-0.8c-0.5,0-0.8,0.4-0.8,0.8
	C413.7,36.4,414,36.8,414.5,36.8z"/>
<path class="st1" d="M416.8,36.8c0.5,0,0.8-0.4,0.8-0.8c0-0.5-0.4-0.8-0.8-0.8S416,35.5,416,36C416,36.4,416.3,36.8,416.8,36.8z"/>
<path class="st1" d="M419.1,36.8c0.5,0,0.8-0.4,0.8-0.8c0-0.5-0.4-0.8-0.8-0.8c-0.5,0-0.8,0.4-0.8,0.8
	C418.3,36.4,418.7,36.8,419.1,36.8z"/>
</svg>
