<svg width="554" height="69" viewBox="0 0 554 69" fill="none" xmlns="http://www.w3.org/2000/svg">
<path d="M12 62H545" stroke="white" stroke-opacity="0.3" stroke-width="2"/>
<ellipse cx="12" cy="62" rx="6" ry="7" fill="white" fill-opacity="0.3"/>
<circle cx="145" cy="62" r="7" fill="white" fill-opacity="0.3"/>
<ellipse cx="278.5" cy="62" rx="6.5" ry="7" fill="white"/>
<circle cx="412" cy="62" r="7" fill="white" fill-opacity="0.3"/>
<circle cx="545" cy="62" r="7" fill="white" fill-opacity="0.3"/>
<g clip-path="url(#clip0)">
<path d="M25 19.8985C25 19.017 24.2857 18.2661 23.3766 18.2661C22.5 18.2661 21.7532 18.9844 21.7532 19.8985C21.7532 20.682 22.3052 21.3023 23.0195 21.4656V22.3144H21.461V0.342796C21.461 0.212207 21.3961 0.114265 21.2987 0.0489709C21.2013 -0.0163236 21.0714 -0.0163236 20.974 0.0489709L15.6494 3.3137C15.5519 3.37899 15.487 3.47693 15.487 3.60752V8.0149H12.8896V4.88077C12.8896 4.75018 12.7922 4.61959 12.6623 4.58694L7.33766 2.62811C7.24026 2.59546 7.14286 2.59546 7.04545 2.66075C6.94805 2.72605 6.91558 2.82399 6.91558 2.92193V10.2349H4.09091C3.8961 10.2349 3.76623 10.3655 3.76623 10.5614V22.3471H1.94805V21.4656C2.72727 21.335 3.31169 20.6494 3.31169 19.8332C3.31169 19.2456 3.01948 18.7232 2.56493 18.4294C2.85714 18.1682 3.08442 17.7764 3.08442 17.352C3.08442 16.5685 2.43506 15.9155 1.65584 15.9155C0.876623 15.9155 0.227273 16.5685 0.227273 17.352C0.227273 17.7764 0.422078 18.1682 0.746753 18.4294C0.292208 18.7232 0 19.2456 0 19.8332C0 20.6494 0.551948 21.3023 1.2987 21.4656V22.3471H0.746753C0.551948 22.3471 0.422078 22.4776 0.422078 22.6735C0.422078 22.8694 0.551948 23 0.746753 23H24.0909C24.2857 23 24.4156 22.8694 24.4156 22.6735C24.4156 22.4776 24.2857 22.3471 24.0909 22.3471H23.6688V21.5309C24.4156 21.3676 25 20.682 25 19.8985ZM1.68831 16.5685C2.11039 16.5685 2.46753 16.9276 2.46753 17.352C2.46753 17.7764 2.11039 18.1029 1.68831 18.1029C1.26623 18.1029 0.909091 17.7438 0.909091 17.3194C0.909091 16.895 1.26623 16.5685 1.68831 16.5685ZM0.649351 19.8006C0.649351 19.2456 1.1039 18.7885 1.65584 18.7885C2.20779 18.7885 2.66234 19.2456 2.66234 19.8006C2.66234 20.3556 2.20779 20.8126 1.65584 20.8126C1.1039 20.8126 0.649351 20.3882 0.649351 19.8006ZM16.1364 3.80341L20.8117 0.930447V22.3471H18.7987V8.34138C18.7987 8.14549 18.6688 8.0149 18.474 8.0149H16.1364V3.80341ZM18.1494 8.66785V22.3471H16.7532V20.8453C16.7532 20.1597 16.2013 19.6047 15.5195 19.6047C14.8377 19.6047 14.2857 20.1597 14.2857 20.8453V22.3471H12.8896V8.66785H18.1494ZM16.1039 22.3144H14.9675V20.8126C14.9675 20.4862 15.2273 20.225 15.5519 20.225C15.8766 20.225 16.1364 20.4862 16.1364 20.8126V22.3144H16.1039ZM7.5974 3.37899L12.2727 5.1093V22.3144H10.3247V10.5614C10.3247 10.3655 10.1948 10.2349 10 10.2349H7.5974V3.37899ZM4.44805 10.8879H9.67532V22.3471H8.14935V20.8453C8.14935 20.1597 7.5974 19.6047 6.91558 19.6047C6.23377 19.6047 5.68182 20.1597 5.68182 20.8453V22.3471H4.41558V10.8879H4.44805ZM7.5 22.3144H6.36364V20.8126C6.36364 20.4862 6.62338 20.225 6.94805 20.225C7.27273 20.225 7.53247 20.4862 7.53247 20.8126V22.3144H7.5ZM22.4026 19.8985C22.4026 19.3762 22.8247 18.9191 23.3766 18.9191C23.8961 18.9191 24.3506 19.3435 24.3506 19.8985C24.3506 20.4535 23.9286 20.8779 23.3766 20.8779C22.8571 20.8779 22.4026 20.4209 22.4026 19.8985Z" fill="white" fill-opacity="0.3"/>
<path d="M5.74673 12.9446C5.94154 12.9446 6.07141 12.814 6.07141 12.6181V12.1611C6.07141 11.9652 5.94154 11.8346 5.74673 11.8346C5.55193 11.8346 5.42206 11.9652 5.42206 12.1611V12.6181C5.42206 12.814 5.55193 12.9446 5.74673 12.9446Z" fill="white" fill-opacity="0.3"/>
<path d="M7.04541 12.9446C7.24021 12.9446 7.37008 12.814 7.37008 12.6181V12.1611C7.37008 11.9652 7.24021 11.8346 7.04541 11.8346C6.8506 11.8346 6.72073 11.9652 6.72073 12.1611V12.6181C6.72073 12.814 6.88307 12.9446 7.04541 12.9446Z" fill="white" fill-opacity="0.3"/>
<path d="M8.37671 12.9446C8.57151 12.9446 8.70138 12.814 8.70138 12.6181V12.1611C8.70138 11.9652 8.57151 11.8346 8.37671 11.8346C8.1819 11.8346 8.05203 11.9652 8.05203 12.1611V12.6181C8.05203 12.814 8.1819 12.9446 8.37671 12.9446Z" fill="white" fill-opacity="0.3"/>
<path d="M5.74673 14.8056C5.94154 14.8056 6.07141 14.675 6.07141 14.4791V14.022C6.07141 13.8261 5.94154 13.6956 5.74673 13.6956C5.55193 13.6956 5.42206 13.8261 5.42206 14.022V14.4791C5.42206 14.6423 5.55193 14.8056 5.74673 14.8056Z" fill="white" fill-opacity="0.3"/>
<path d="M7.04541 14.8056C7.24021 14.8056 7.37008 14.675 7.37008 14.4791V14.022C7.37008 13.8261 7.24021 13.6956 7.04541 13.6956C6.8506 13.6956 6.72073 13.8261 6.72073 14.022V14.4791C6.72073 14.6423 6.88307 14.8056 7.04541 14.8056Z" fill="white" fill-opacity="0.3"/>
<path d="M8.37671 14.8056C8.57151 14.8056 8.70138 14.675 8.70138 14.4791V14.022C8.70138 13.8261 8.57151 13.6956 8.37671 13.6956C8.1819 13.6956 8.05203 13.8261 8.05203 14.022V14.4791C8.05203 14.6423 8.1819 14.8056 8.37671 14.8056Z" fill="white" fill-opacity="0.3"/>
<path d="M5.74673 16.6337C5.94154 16.6337 6.07141 16.5032 6.07141 16.3073V15.8502C6.07141 15.6543 5.94154 15.5237 5.74673 15.5237C5.55193 15.5237 5.42206 15.6543 5.42206 15.8502V16.3073C5.42206 16.5032 5.55193 16.6337 5.74673 16.6337Z" fill="white" fill-opacity="0.3"/>
<path d="M7.04541 16.6337C7.24021 16.6337 7.37008 16.5032 7.37008 16.3073V15.8502C7.37008 15.6543 7.24021 15.5237 7.04541 15.5237C6.8506 15.5237 6.72073 15.6543 6.72073 15.8502V16.3073C6.72073 16.5032 6.88307 16.6337 7.04541 16.6337Z" fill="white" fill-opacity="0.3"/>
<path d="M8.37671 16.6337C8.57151 16.6337 8.70138 16.5032 8.70138 16.3073V15.8502C8.70138 15.6543 8.57151 15.5237 8.37671 15.5237C8.1819 15.5237 8.05203 15.6543 8.05203 15.8502V16.3073C8.05203 16.5032 8.1819 16.6337 8.37671 16.6337Z" fill="white" fill-opacity="0.3"/>
<path d="M5.74673 18.4947C5.94154 18.4947 6.07141 18.3641 6.07141 18.1682V17.7112C6.07141 17.5153 5.94154 17.3847 5.74673 17.3847C5.55193 17.3847 5.42206 17.5153 5.42206 17.7112V18.1682C5.42206 18.3315 5.55193 18.4947 5.74673 18.4947Z" fill="white" fill-opacity="0.3"/>
<path d="M7.04541 18.4947C7.24021 18.4947 7.37008 18.3641 7.37008 18.1682V17.7112C7.37008 17.5153 7.24021 17.3847 7.04541 17.3847C6.8506 17.3847 6.72073 17.5153 6.72073 17.7112V18.1682C6.72073 18.3315 6.88307 18.4947 7.04541 18.4947Z" fill="white" fill-opacity="0.3"/>
<path d="M8.37671 18.4947C8.57151 18.4947 8.70138 18.3641 8.70138 18.1682V17.7112C8.70138 17.5153 8.57151 17.3847 8.37671 17.3847C8.1819 17.3847 8.05203 17.5153 8.05203 17.7112V18.1682C8.05203 18.3315 8.1819 18.4947 8.37671 18.4947Z" fill="white" fill-opacity="0.3"/>
<path d="M17.1753 4.48895C16.9805 4.48895 16.8506 4.61954 16.8506 4.81543V5.27249C16.8506 5.46837 16.9805 5.59896 17.1753 5.59896C17.3701 5.59896 17.5 5.46837 17.5 5.27249V4.81543C17.5 4.65219 17.3377 4.48895 17.1753 4.48895Z" fill="white" fill-opacity="0.3"/>
<path d="M18.474 5.59896C18.6688 5.59896 18.7987 5.46837 18.7987 5.27249V4.81543C18.7987 4.61954 18.6688 4.48895 18.474 4.48895C18.2792 4.48895 18.1494 4.61954 18.1494 4.81543V5.27249C18.1494 5.43572 18.3117 5.59896 18.474 5.59896Z" fill="white" fill-opacity="0.3"/>
<path d="M19.8052 5.59896C20 5.59896 20.1299 5.46837 20.1299 5.27249V4.81543C20.1299 4.61954 20 4.48895 19.8052 4.48895C19.6104 4.48895 19.4805 4.61954 19.4805 4.81543V5.27249C19.4805 5.43572 19.6104 5.59896 19.8052 5.59896Z" fill="white" fill-opacity="0.3"/>
<path d="M17.1753 6.31726C16.9805 6.31726 16.8506 6.44785 16.8506 6.64373V7.1008C16.8506 7.29668 16.9805 7.42727 17.1753 7.42727C17.3701 7.42727 17.5 7.29668 17.5 7.1008V6.64373C17.5 6.44785 17.3377 6.31726 17.1753 6.31726Z" fill="white" fill-opacity="0.3"/>
<path d="M18.7987 7.1008V6.64373C18.7987 6.44785 18.6688 6.31726 18.474 6.31726C18.2792 6.31726 18.1494 6.44785 18.1494 6.64373V7.1008C18.1494 7.29668 18.2792 7.42727 18.474 7.42727C18.6688 7.42727 18.7987 7.26403 18.7987 7.1008Z" fill="white" fill-opacity="0.3"/>
<path d="M19.8052 7.42727C20 7.42727 20.1299 7.29668 20.1299 7.1008V6.64373C20.1299 6.44785 20 6.31726 19.8052 6.31726C19.6104 6.31726 19.4805 6.44785 19.4805 6.64373V7.1008C19.4805 7.26403 19.6104 7.42727 19.8052 7.42727Z" fill="white" fill-opacity="0.3"/>
<path d="M19.8052 9.25551C20 9.25551 20.1299 9.12492 20.1299 8.92904V8.47198C20.1299 8.2761 20 8.14551 19.8052 8.14551C19.6104 8.14551 19.4805 8.2761 19.4805 8.47198V8.92904C19.4805 9.09228 19.6104 9.25551 19.8052 9.25551Z" fill="white" fill-opacity="0.3"/>
<path d="M19.8052 11.0512C20 11.0512 20.1299 10.9206 20.1299 10.7247V10.2676C20.1299 10.0718 20 9.94116 19.8052 9.94116C19.6104 9.94116 19.4805 10.0718 19.4805 10.2676V10.7247C19.4805 10.9206 19.6104 11.0512 19.8052 11.0512Z" fill="white" fill-opacity="0.3"/>
<path d="M19.8052 12.8794C20 12.8794 20.1299 12.7488 20.1299 12.5529V12.0959C20.1299 11.9 20 11.7694 19.8052 11.7694C19.6104 11.7694 19.4805 11.9 19.4805 12.0959V12.5529C19.4805 12.7488 19.6104 12.8794 19.8052 12.8794Z" fill="white" fill-opacity="0.3"/>
<path d="M19.8052 14.7075C20 14.7075 20.1299 14.577 20.1299 14.3811V13.924C20.1299 13.7281 20 13.5975 19.8052 13.5975C19.6104 13.5975 19.4805 13.7281 19.4805 13.924V14.3811C19.4805 14.577 19.6104 14.7075 19.8052 14.7075Z" fill="white" fill-opacity="0.3"/>
<path d="M19.8052 16.5032C20 16.5032 20.1299 16.3726 20.1299 16.1767V15.7197C20.1299 15.5238 20 15.3932 19.8052 15.3932C19.6104 15.3932 19.4805 15.5238 19.4805 15.7197V16.1767C19.4805 16.3726 19.6104 16.5032 19.8052 16.5032Z" fill="white" fill-opacity="0.3"/>
<path d="M19.8052 18.3314C20 18.3314 20.1299 18.2009 20.1299 18.005V17.5479C20.1299 17.352 20 17.2214 19.8052 17.2214C19.6104 17.2214 19.4805 17.352 19.4805 17.5479V18.005C19.4805 18.1682 19.6104 18.3314 19.8052 18.3314Z" fill="white" fill-opacity="0.3"/>
<path d="M19.8052 20.1596C20 20.1596 20.1299 20.029 20.1299 19.8332V19.3761C20.1299 19.1802 20 19.0496 19.8052 19.0496C19.6104 19.0496 19.4805 19.1802 19.4805 19.3761V19.8332C19.4805 19.9964 19.6104 20.1596 19.8052 20.1596Z" fill="white" fill-opacity="0.3"/>
<path d="M8.66879 5.89276C8.47399 5.89276 8.34412 6.02335 8.34412 6.21923V6.57835C8.34412 6.77424 8.47399 6.90483 8.66879 6.90483C8.8636 6.90483 8.99347 6.77424 8.99347 6.57835V6.21923C8.99347 6.02335 8.8636 5.89276 8.66879 5.89276Z" fill="white" fill-opacity="0.3"/>
<path d="M10 6.87223C10.1948 6.87223 10.3247 6.74164 10.3247 6.54576V6.18664C10.3247 5.99076 10.1948 5.86017 10 5.86017C9.80522 5.86017 9.67535 5.99076 9.67535 6.18664V6.54576C9.67535 6.74164 9.80522 6.87223 10 6.87223Z" fill="white" fill-opacity="0.3"/>
<path d="M11.2988 6.87223C11.4936 6.87223 11.6234 6.74164 11.6234 6.54576V6.18664C11.6234 5.99076 11.4936 5.86017 11.2988 5.86017C11.104 5.86017 10.9741 5.99076 10.9741 6.18664V6.54576C10.9741 6.74164 11.1364 6.87223 11.2988 6.87223Z" fill="white" fill-opacity="0.3"/>
<path d="M8.66879 7.29669C8.47399 7.29669 8.34412 7.42728 8.34412 7.62316V7.98228C8.34412 8.17817 8.47399 8.30876 8.66879 8.30876C8.8636 8.30876 8.99347 8.17817 8.99347 7.98228V7.62316C8.99347 7.45993 8.8636 7.29669 8.66879 7.29669Z" fill="white" fill-opacity="0.3"/>
<path d="M10 8.30876C10.1948 8.30876 10.3247 8.17817 10.3247 7.98228V7.62316C10.3247 7.42728 10.1948 7.29669 10 7.29669C9.80522 7.29669 9.67535 7.42728 9.67535 7.62316V7.98228C9.67535 8.14552 9.80522 8.30876 10 8.30876Z" fill="white" fill-opacity="0.3"/>
<path d="M11.2988 8.30876C11.4936 8.30876 11.6234 8.17817 11.6234 7.98228V7.62316C11.6234 7.42728 11.4936 7.29669 11.2988 7.29669C11.104 7.29669 10.9741 7.42728 10.9741 7.62316V7.98228C10.9741 8.14552 11.1364 8.30876 11.2988 8.30876Z" fill="white" fill-opacity="0.3"/>
<path d="M8.66879 8.73315C8.47399 8.73315 8.34412 8.86374 8.34412 9.05963V9.41875C8.34412 9.61463 8.47399 9.74522 8.66879 9.74522C8.8636 9.74522 8.99347 9.61463 8.99347 9.41875V9.05963C8.99347 8.86374 8.8636 8.73315 8.66879 8.73315Z" fill="white" fill-opacity="0.3"/>
<path d="M10.3247 9.38609V9.02697C10.3247 8.83109 10.1948 8.7005 10 8.7005C9.80522 8.7005 9.67535 8.83109 9.67535 9.02697V9.38609C9.67535 9.58198 9.80522 9.71257 10 9.71257C10.1948 9.71257 10.3247 9.58198 10.3247 9.38609Z" fill="white" fill-opacity="0.3"/>
<path d="M11.2988 9.71257C11.4936 9.71257 11.6234 9.58198 11.6234 9.38609V9.02697C11.6234 8.83109 11.4936 8.7005 11.2988 8.7005C11.104 8.7005 10.9741 8.83109 10.9741 9.02697V9.38609C10.9741 9.58198 11.1364 9.71257 11.2988 9.71257Z" fill="white" fill-opacity="0.3"/>
<path d="M11.2988 11.3123C11.4936 11.3123 11.6234 11.1817 11.6234 10.9858V10.6267C11.6234 10.4308 11.4936 10.3002 11.2988 10.3002C11.104 10.3002 10.9741 10.4308 10.9741 10.6267V10.9858C10.9741 11.1491 11.1364 11.3123 11.2988 11.3123Z" fill="white" fill-opacity="0.3"/>
<path d="M11.2988 12.7161C11.4936 12.7161 11.6234 12.5855 11.6234 12.3896V12.0305C11.6234 11.8346 11.4936 11.704 11.2988 11.704C11.104 11.704 10.9741 11.8346 10.9741 12.0305V12.3896C10.9741 12.5855 11.1364 12.7161 11.2988 12.7161Z" fill="white" fill-opacity="0.3"/>
<path d="M11.2988 14.1526C11.4936 14.1526 11.6234 14.022 11.6234 13.8261V13.467C11.6234 13.2711 11.4936 13.1405 11.2988 13.1405C11.104 13.1405 10.9741 13.2711 10.9741 13.467V13.8261C10.9741 13.9893 11.1364 14.1526 11.2988 14.1526Z" fill="white" fill-opacity="0.3"/>
<path d="M11.2988 15.5564C11.4936 15.5564 11.6234 15.4258 11.6234 15.2299V14.8708C11.6234 14.6749 11.4936 14.5443 11.2988 14.5443C11.104 14.5443 10.9741 14.6749 10.9741 14.8708V15.2299C10.9741 15.4258 11.1364 15.5564 11.2988 15.5564Z" fill="white" fill-opacity="0.3"/>
<path d="M11.2988 16.993C11.4936 16.993 11.6234 16.8624 11.6234 16.6665V16.3074C11.6234 16.1115 11.4936 15.9809 11.2988 15.9809C11.104 15.9809 10.9741 16.1115 10.9741 16.3074V16.6665C10.9741 16.8297 11.1364 16.993 11.2988 16.993Z" fill="white" fill-opacity="0.3"/>
<path d="M11.2988 18.3968C11.4936 18.3968 11.6234 18.2662 11.6234 18.0703V17.7112C11.6234 17.5153 11.4936 17.3847 11.2988 17.3847C11.104 17.3847 10.9741 17.5153 10.9741 17.7112V18.0703C10.9741 18.2662 11.1364 18.3968 11.2988 18.3968Z" fill="white" fill-opacity="0.3"/>
<path d="M11.2988 19.8332C11.4936 19.8332 11.6234 19.7026 11.6234 19.5068V19.1476C11.6234 18.9518 11.4936 18.8212 11.2988 18.8212C11.104 18.8212 10.9741 18.9518 10.9741 19.1476V19.5068C10.9741 19.67 11.1364 19.8332 11.2988 19.8332Z" fill="white" fill-opacity="0.3"/>
<path d="M14.1558 17.7112H16.948C17.1428 17.7112 17.2727 17.5806 17.2727 17.3847C17.2727 17.1888 17.1428 17.0582 16.948 17.0582H14.1558C13.961 17.0582 13.8311 17.1888 13.8311 17.3847C13.8311 17.5806 13.961 17.7112 14.1558 17.7112Z" fill="white" fill-opacity="0.3"/>
<path d="M14.1558 16.2421H16.948C17.1428 16.2421 17.2727 16.1115 17.2727 15.9156C17.2727 15.7197 17.1428 15.5891 16.948 15.5891H14.1558C13.961 15.5891 13.8311 15.7197 13.8311 15.9156C13.8311 16.1115 13.961 16.2421 14.1558 16.2421Z" fill="white" fill-opacity="0.3"/>
<path d="M14.1558 14.7729H16.948C17.1428 14.7729 17.2727 14.6423 17.2727 14.4464C17.2727 14.2505 17.1428 14.1199 16.948 14.1199H14.1558C13.961 14.1199 13.8311 14.2505 13.8311 14.4464C13.8311 14.6423 13.961 14.7729 14.1558 14.7729Z" fill="white" fill-opacity="0.3"/>
<path d="M14.1558 13.3364H16.948C17.1428 13.3364 17.2727 13.2058 17.2727 13.0099C17.2727 12.814 17.1428 12.6834 16.948 12.6834H14.1558C13.961 12.6834 13.8311 12.814 13.8311 13.0099C13.8311 13.2058 13.961 13.3364 14.1558 13.3364Z" fill="white" fill-opacity="0.3"/>
<path d="M14.1558 11.8672H16.948C17.1428 11.8672 17.2727 11.7367 17.2727 11.5408C17.2727 11.3449 17.1428 11.2143 16.948 11.2143H14.1558C13.961 11.2143 13.8311 11.3449 13.8311 11.5408C13.8311 11.7367 13.961 11.8672 14.1558 11.8672Z" fill="white" fill-opacity="0.3"/>
<path d="M14.1558 10.3982H16.948C17.1428 10.3982 17.2727 10.2676 17.2727 10.0717C17.2727 9.87583 17.1428 9.74524 16.948 9.74524H14.1558C13.961 9.74524 13.8311 9.87583 13.8311 10.0717C13.8311 10.2676 13.961 10.3982 14.1558 10.3982Z" fill="white" fill-opacity="0.3"/>
</g>
<path d="M3.60904 34.7774H19.6288V40.5623H20.5188V32.1074C20.5188 31.6179 20.1183 31.2174 19.6288 31.2174H3.60904C3.11955 31.2174 2.71906 31.6179 2.71906 32.1074V44.5672C2.71906 45.0567 3.11955 45.4572 3.60904 45.4572H13.3989V44.5672H3.60904V34.7774ZM19.6288 32.1074V33.8874H3.60904V32.1074H19.6288ZM4.49903 32.9974C4.49903 32.7526 4.69928 32.5524 4.94402 32.5524C5.18877 32.5524 5.38902 32.7526 5.38902 32.9974C5.38902 33.2421 5.18877 33.4424 4.94402 33.4424C4.69928 33.4424 4.49903 33.2421 4.49903 32.9974ZM19.166 43.9175L20.5188 43.5793V42.4802L14.1776 40.0416L13.3232 40.896L15.7618 47.2372H16.8609L17.1991 45.8844L18.7388 47.4196L20.7012 45.4572L19.166 43.9175ZM16.7185 44.14L16.2469 46.0179L14.3645 41.1141L14.4001 41.0785L19.304 42.9608L17.4261 43.4325L19.4464 45.4572L18.7388 46.1647L16.7185 44.14Z" fill="white" fill-opacity="0.3"/>
<path d="M536.908 34.7774H552.928V40.5623H553.818V32.1074C553.818 31.6179 553.417 31.2174 552.928 31.2174H536.908C536.418 31.2174 536.018 31.6179 536.018 32.1074V44.5672C536.018 45.0567 536.418 45.4572 536.908 45.4572H546.698V44.5672H536.908V34.7774ZM552.928 32.1074V33.8874H536.908V32.1074H552.928ZM537.798 32.9974C537.798 32.7526 537.998 32.5524 538.243 32.5524C538.488 32.5524 538.688 32.7526 538.688 32.9974C538.688 33.2421 538.488 33.4424 538.243 33.4424C537.998 33.4424 537.798 33.2421 537.798 32.9974ZM552.465 43.9175L553.818 43.5793V42.4802L547.476 40.0416L546.622 40.896L549.061 47.2372H550.16L550.498 45.8844L552.038 47.4196L554 45.4572L552.465 43.9175ZM550.017 44.14L549.546 46.0179L547.663 41.1141L547.699 41.0785L552.603 42.9608L550.725 43.4325L552.745 45.4572L552.038 46.1647L550.017 44.14Z" fill="white" fill-opacity="0.3"/>
<g clip-path="url(#clip1)">
<path d="M153.663 35.182C154.127 34.602 154.073 33.732 153.5 33.239L152.954 32.746C152.927 32.717 152.927 32.717 152.9 32.688L153.663 31.76C153.882 31.47 153.991 31.122 153.963 30.745C153.936 30.368 153.773 30.049 153.5 29.788L152.954 29.295C152.791 29.15 152.573 29.034 152.355 29.005V20.334C152.355 19.58 151.782 19 151.1 19H141.665C140.956 19 140.41 19.609 140.41 20.334V26.482C140.192 26.25 139.892 26.018 139.538 25.873C138.883 25.583 138.011 25.786 137.465 26.337C137.002 26.801 136.893 27.468 137.111 28.106C137.247 28.483 137.383 28.889 137.465 29.324C137.902 31.209 137.983 33.268 137.711 34.863L137.629 35.327C137.247 37.531 136.893 39.59 137.52 41.185C138.065 42.548 138.774 43.244 139.401 43.853L139.456 43.911C139.592 44.027 139.62 44.23 139.565 44.404L138.992 45.999L146.982 48L147.419 46.84C147.473 46.695 147.582 46.608 147.719 46.579C148.128 46.521 148.755 46.289 149.437 45.564C150.282 44.636 151.046 42.983 151.346 42.287C151.455 42.316 151.564 42.345 151.7 42.345C152.082 42.345 152.436 42.171 152.682 41.852L153.282 41.127C153.5 40.837 153.609 40.489 153.582 40.112C153.554 39.735 153.391 39.416 153.118 39.155L153.064 39.097L153.691 38.314C154.154 37.734 154.1 36.864 153.527 36.371L153.064 35.965L153.663 35.182ZM150.227 36.168L150.691 36.574L150.064 37.357C149.873 37.618 149.764 37.908 149.764 38.227H141.201V22.132H151.591V29.092C151.564 29.092 151.564 29.121 151.564 29.121C151.509 29.15 151.455 29.179 151.4 29.208C151.373 29.237 151.346 29.237 151.318 29.266C151.236 29.324 151.182 29.382 151.127 29.469L150.064 30.774C149.6 31.354 149.655 32.224 150.227 32.717L150.773 33.21C150.8 33.239 150.8 33.239 150.827 33.268L150.091 34.196C149.6 34.776 149.682 35.675 150.227 36.168ZM150.691 39.735L150.527 39.938C150.309 40.228 150.2 40.576 150.227 40.953C150.227 41.04 150.255 41.127 150.282 41.214C150.282 41.243 150.309 41.272 150.309 41.301C150.309 41.33 150.337 41.388 150.337 41.417H141.665C141.392 41.417 141.201 41.185 141.201 40.924V39.126H150.009C150.064 39.213 150.146 39.3 150.227 39.387L150.691 39.735ZM152.982 30.426C153.091 30.513 153.145 30.658 153.173 30.803C153.173 30.948 153.145 31.093 153.064 31.209L152 32.514L151.973 32.543C151.918 32.601 151.864 32.63 151.809 32.659C151.727 32.688 151.618 32.717 151.509 32.688C151.427 32.659 151.346 32.63 151.264 32.572L150.718 32.079C150.5 31.876 150.473 31.528 150.664 31.325L151.727 30.02C151.809 29.933 151.918 29.846 152.027 29.846C152.055 29.846 152.082 29.846 152.109 29.846C152.218 29.846 152.355 29.904 152.436 29.962L152.982 30.426ZM141.665 19.841H151.1C151.373 19.841 151.564 20.073 151.564 20.334V21.262H141.201V20.334C141.201 20.073 141.419 19.841 141.665 19.841ZM148.864 44.984C148.346 45.535 147.91 45.709 147.61 45.767C147.201 45.825 146.846 46.115 146.682 46.55L146.519 47.043L140.056 45.39L140.301 44.694C140.465 44.201 140.356 43.65 140.001 43.302L139.947 43.244C139.347 42.664 138.747 42.055 138.256 40.866C137.711 39.532 138.065 37.56 138.42 35.501L138.501 35.037C138.801 33.326 138.692 31.151 138.256 29.15C138.147 28.686 138.011 28.251 137.847 27.845C137.738 27.497 137.792 27.207 138.011 26.975C138.311 26.656 138.856 26.511 139.21 26.685C140.274 27.178 140.383 28.251 140.383 28.367V40.895C140.383 41.649 140.956 42.229 141.637 42.229H150.446C150.146 42.954 149.518 44.259 148.864 44.984ZM152.654 40.547L152.055 41.272C151.891 41.475 151.618 41.533 151.4 41.388C151.373 41.359 151.346 41.359 151.318 41.33L151.209 41.214C151.1 41.127 151.046 40.982 151.018 40.837C151.018 40.692 151.046 40.547 151.127 40.431L151.4 40.083C151.427 40.083 151.455 40.083 151.455 40.083C151.482 40.083 151.536 40.083 151.564 40.083C151.591 40.083 151.618 40.083 151.645 40.083H151.7C151.782 40.083 151.836 40.054 151.918 40.054C151.945 40.054 151.973 40.025 151.973 40.025C152.027 40.025 152.055 39.996 152.082 39.996C152.109 39.996 152.136 39.967 152.164 39.967C152.191 39.967 152.218 39.938 152.218 39.938C152.273 39.909 152.327 39.851 152.382 39.822C152.409 39.822 152.409 39.793 152.436 39.793C152.464 39.764 152.464 39.764 152.491 39.735L152.545 39.793C152.654 39.88 152.709 40.025 152.736 40.17C152.791 40.315 152.736 40.431 152.654 40.547ZM151.645 39.271C151.591 39.271 151.536 39.271 151.509 39.242C151.482 39.242 151.455 39.242 151.427 39.213C151.373 39.184 151.318 39.155 151.291 39.126L150.746 38.633C150.527 38.43 150.5 38.082 150.691 37.879L151.427 36.951C151.482 36.951 151.536 36.951 151.591 36.951C151.591 36.951 151.591 36.951 151.618 36.951C151.645 36.951 151.673 36.951 151.7 36.951C151.727 36.951 151.755 36.951 151.755 36.951C151.836 36.951 151.891 36.922 151.945 36.922C151.973 36.922 151.973 36.922 152 36.922C152.027 36.922 152.055 36.893 152.082 36.893C152.109 36.893 152.136 36.864 152.136 36.864C152.164 36.864 152.191 36.835 152.191 36.835C152.273 36.806 152.327 36.748 152.382 36.69C152.409 36.661 152.409 36.661 152.436 36.632C152.464 36.603 152.491 36.603 152.518 36.574L152.982 37.009C153.2 37.212 153.227 37.56 153.036 37.763L152.327 38.662L152 39.068C151.973 39.126 151.918 39.155 151.836 39.184L151.809 39.213C151.809 39.213 151.782 39.213 151.782 39.242H151.755C151.727 39.242 151.7 39.271 151.645 39.271ZM153.064 34.631L152.327 35.53L152 35.936C151.945 35.994 151.891 36.023 151.836 36.081L151.727 36.11C151.7 36.11 151.673 36.11 151.645 36.139C151.591 36.139 151.564 36.139 151.509 36.139C151.482 36.139 151.455 36.139 151.427 36.11C151.373 36.081 151.318 36.052 151.291 36.023L150.746 35.53C150.527 35.327 150.5 34.979 150.691 34.776L151.645 33.587C151.7 33.587 151.755 33.587 151.809 33.558C151.836 33.558 151.864 33.558 151.891 33.558C151.973 33.529 152.055 33.5 152.136 33.471C152.218 33.442 152.3 33.384 152.355 33.355C152.382 33.384 152.409 33.384 152.464 33.413L153.009 33.906C153.2 34.051 153.227 34.399 153.064 34.631Z" fill="white" fill-opacity="0.3"/>
<path d="M147.69 20.276H145.072V20.827H147.69V20.276Z" fill="white" fill-opacity="0.3"/>
<path d="M146.354 40.721C146.715 40.721 147.008 40.4094 147.008 40.025C147.008 39.6406 146.715 39.329 146.354 39.329C145.992 39.329 145.699 39.6406 145.699 40.025C145.699 40.4094 145.992 40.721 146.354 40.721Z" fill="white" fill-opacity="0.3"/>
<path d="M144.172 22.973H142.29C142.154 22.973 142.018 23.089 142.018 23.263V25.264C142.018 25.409 142.127 25.554 142.29 25.554H144.172C144.308 25.554 144.445 25.438 144.445 25.264V23.263C144.445 23.118 144.336 22.973 144.172 22.973ZM143.927 24.974H142.563V23.524H143.927V24.974Z" fill="white" fill-opacity="0.3"/>
<path d="M147.335 22.973H145.454C145.317 22.973 145.181 23.089 145.181 23.263V25.264C145.181 25.409 145.29 25.554 145.454 25.554H147.335C147.472 25.554 147.608 25.438 147.608 25.264V23.263C147.581 23.118 147.472 22.973 147.335 22.973Z" fill="white" fill-opacity="0.3"/>
<path d="M148.59 25.554H150.471C150.608 25.554 150.744 25.438 150.744 25.264V23.263C150.744 23.118 150.635 22.973 150.471 22.973H148.59C148.453 22.973 148.317 23.089 148.317 23.263V25.264C148.344 25.409 148.453 25.554 148.59 25.554Z" fill="white" fill-opacity="0.3"/>
<path d="M144.172 26.337H142.29C142.154 26.337 142.018 26.453 142.018 26.627V28.628C142.018 28.773 142.127 28.918 142.29 28.918H144.172C144.308 28.918 144.445 28.802 144.445 28.628V26.627C144.445 26.453 144.336 26.337 144.172 26.337Z" fill="white" fill-opacity="0.3"/>
<path d="M147.335 26.337H145.454C145.317 26.337 145.181 26.453 145.181 26.627V28.628C145.181 28.773 145.29 28.918 145.454 28.918H147.335C147.472 28.918 147.608 28.802 147.608 28.628V26.627C147.581 26.453 147.472 26.337 147.335 26.337Z" fill="white" fill-opacity="0.3"/>
<path d="M150.744 28.628V26.627C150.744 26.482 150.635 26.337 150.471 26.337H148.59C148.453 26.337 148.317 26.453 148.317 26.627V28.628C148.317 28.773 148.426 28.918 148.59 28.918H150.471C150.635 28.889 150.744 28.773 150.744 28.628Z" fill="white" fill-opacity="0.3"/>
<path d="M144.172 29.701H142.29C142.154 29.701 142.018 29.817 142.018 29.991V31.992C142.018 32.137 142.127 32.282 142.29 32.282H144.172C144.308 32.282 144.445 32.166 144.445 31.992V29.991C144.445 29.817 144.336 29.701 144.172 29.701Z" fill="white" fill-opacity="0.3"/>
<path d="M147.335 29.701H145.454C145.317 29.701 145.181 29.817 145.181 29.991V31.992C145.181 32.137 145.29 32.282 145.454 32.282H147.335C147.472 32.282 147.608 32.166 147.608 31.992V29.991C147.581 29.817 147.472 29.701 147.335 29.701Z" fill="white" fill-opacity="0.3"/>
</g>
<path d="M285.083 31.2174H271.703C270.864 31.2174 270.183 31.9039 270.183 32.7497V36.1451C269.137 36.2984 268.358 37.1993 268.358 38.2658V41.7991C268.358 41.9432 268.392 42.0811 268.456 42.2098L268.936 43.1751C268.958 43.218 268.967 43.267 268.967 43.313V46.8464C268.967 47.0149 269.103 47.1528 269.271 47.1528H272.312C272.479 47.1528 272.616 47.0149 272.616 46.8464V44.974C272.616 44.6399 272.692 44.312 272.841 44.0148L273.303 43.0832C273.339 43.0127 273.37 42.9391 273.397 42.8656H285.083C285.923 42.8656 286.604 42.1791 286.604 41.3333V32.7497C286.604 31.9039 285.923 31.2174 285.083 31.2174ZM270.791 32.7497C270.791 32.241 271.199 31.8303 271.703 31.8303H273.224V38.1953C272.826 38.2106 272.485 38.4833 272.385 38.8725L272.035 40.1903C272.001 40.3251 271.88 40.4201 271.74 40.414C271.637 40.414 271.539 40.3588 271.485 40.2669L270.791 39.0993V32.7497ZM272.92 41.8788V42.1209C272.92 42.36 272.865 42.5929 272.759 42.8074L272.296 43.739C272.108 44.122 272.008 44.5449 272.008 44.974V46.5399H269.575V43.313C269.575 43.169 269.541 43.0311 269.478 42.9024L268.997 41.937C268.979 41.8941 268.967 41.8451 268.967 41.7991V38.2658C268.967 37.5364 269.474 36.9113 270.183 36.7642V39.1851C270.183 39.2403 270.198 39.2954 270.226 39.3414L270.965 40.5825C271.126 40.8553 271.418 41.0238 271.734 41.0269C272.147 41.0269 272.512 40.7511 272.622 40.3496L272.972 39.0319C273.011 38.8664 273.175 38.7653 273.339 38.8051C273.504 38.845 273.604 39.0104 273.565 39.1759C273.565 39.1821 273.561 39.1851 273.561 39.1913L272.996 41.3241C272.944 41.505 272.92 41.6919 272.92 41.8788ZM285.996 41.3303C285.996 41.839 285.588 42.2496 285.083 42.2496H273.832V40.5335L274.148 39.3475C274.243 38.9921 274.121 38.6151 273.832 38.3884V31.8303H285.083C285.588 31.8303 285.996 32.241 285.996 32.7497V41.3303Z" fill="white"/>
<path d="M272.008 37.9592C272.512 37.9592 272.92 37.5485 272.92 37.0398C272.92 36.5311 272.512 36.1205 272.008 36.1205C271.503 36.1205 271.095 36.5311 271.095 37.0398C271.095 37.5485 271.503 37.9592 272.008 37.9592ZM272.008 36.7334C272.175 36.7334 272.312 36.8713 272.312 37.0398C272.312 37.2084 272.175 37.3463 272.008 37.3463C271.84 37.3463 271.703 37.2084 271.703 37.0398C271.703 36.8713 271.84 36.7334 272.008 36.7334Z" fill="white"/>
<path d="M283.089 39.5343V38.8632L283.697 38.5628L284.144 38.8203L284.594 40.138L284.916 40.613H285.324L285.838 40.2453L286.394 39.2309V37.6343L286.522 36.4698L287.206 36.764L287.954 37.3125L288.319 38.1951V39.4025V41.517V42.0135L287.954 42.5743L287.741 42.9849L287.55 43.8461L287.613 45.1423L287.55 46.8033H284.636L284.594 45.1638L284.573 44.4743L284.168 43.5243L283.697 42.5743L283.587 41.7775L283.393 40.9348L283.247 40.374L283.089 39.5343Z" fill="#66D3E8"/>
<path d="M286.738 36.145C286.738 36.145 286.318 36.1419 286.129 36.1419V39.0992L285.433 40.2667C285.378 40.3587 285.284 40.4138 285.178 40.4138C285.041 40.4169 284.916 40.325 284.883 40.1901L284.533 38.8724C284.433 38.4863 284.092 38.2104 283.694 38.1951L283.086 38.3913C282.8 38.618 282.675 38.995 282.769 39.3504L283.086 40.5364C283.086 40.5364 283.268 40.9654 283.265 41.1769C283.259 41.7438 283.387 42.3108 283.511 42.8654H283.52C283.548 42.939 283.578 43.0125 283.615 43.083L284.077 44.0146C284.223 44.3119 284.302 44.6398 284.302 44.9738V46.8462C284.302 47.0148 284.439 47.1527 284.606 47.1527H287.647C287.814 47.1527 287.951 47.0148 287.951 46.8462V43.3129C287.951 43.2669 287.96 43.2179 287.981 43.1749L288.462 42.2096C288.526 42.0809 288.559 41.94 288.559 41.799V38.2656C288.562 37.1992 287.784 36.2982 286.738 36.145ZM287.954 41.799C287.954 41.848 287.942 41.894 287.924 41.9369L287.443 42.9022C287.379 43.0309 287.346 43.1719 287.346 43.3129V46.5398H284.913V44.9738C284.913 44.5448 284.813 44.1249 284.624 43.7419L284.162 42.8103C284.056 42.5958 284.001 42.3629 284.001 42.1238V41.8817C284.001 41.6948 283.977 41.5079 283.928 41.3271L283.359 39.1942C283.356 39.188 283.356 39.185 283.356 39.1788C283.317 39.0133 283.417 38.8479 283.581 38.808C283.745 38.7682 283.91 38.8693 283.949 39.0348L284.299 40.3525C284.408 40.754 284.773 41.0329 285.187 41.0298C285.503 41.0267 285.795 40.8582 285.956 40.5854L286.695 39.3443C286.722 39.2953 286.738 39.2432 286.738 39.185V36.764C287.446 36.9111 287.954 37.5363 287.954 38.2656V41.799Z" fill="white"/>
<path d="M283.089 38.3912C283.162 38.3483 283.256 38.3023 283.371 38.2625C283.496 38.2226 283.609 38.2043 283.697 38.1951" fill="white"/>
<path d="M416.802 32.2274C413.995 32.2274 411.72 33.9115 411.72 35.9792C411.72 37.0451 412.315 38.0257 413.357 38.7505C413.229 38.985 413.059 39.2408 412.847 39.4966C412.613 39.7737 412.591 40.1574 412.804 40.4559C412.953 40.669 413.187 40.7969 413.442 40.7969C413.527 40.7969 413.633 40.7756 413.718 40.7543C414.378 40.5198 415.186 40.1574 416.121 39.7098C416.355 39.7311 416.568 39.7524 416.802 39.7524C419.609 39.7524 421.884 38.0683 421.884 36.0006C421.884 33.9328 419.609 32.2274 416.802 32.2274ZM416.802 38.8997C416.568 38.8997 416.313 38.8784 416.079 38.8571C415.994 38.8571 415.93 38.8571 415.845 38.8997C414.888 39.3687 414.08 39.7311 413.442 40.0082C413.825 39.5605 414.08 39.1129 414.229 38.7079C414.293 38.516 414.208 38.3241 414.037 38.2176C413.059 37.6633 412.506 36.8319 412.506 35.9579C412.506 34.3378 414.42 33.0162 416.78 33.0162C419.141 33.0162 421.055 34.3378 421.055 35.9579C421.055 37.578 419.162 38.8997 416.802 38.8997Z" fill="white" fill-opacity="0.3"/>
<path d="M412.825 41.8415H412.273V41.4151C412.273 40.3706 411.422 39.5392 410.401 39.5392H408.169V38.3028C408.169 38.0896 407.998 37.8978 407.765 37.8978C407.531 37.8978 407.361 38.0896 407.361 38.3028V39.5392H405.128C404.086 39.5392 403.257 40.3919 403.257 41.4151V41.8415H402.704C402.151 41.8415 401.683 42.3104 401.683 42.8647V44.2929C401.683 44.8472 402.151 45.3162 402.704 45.3162H403.257V45.7425C403.257 46.7871 404.086 47.6184 405.128 47.6184H410.401C411.443 47.6184 412.273 46.7657 412.273 45.7425V45.3162H412.825C413.378 45.3162 413.846 44.8472 413.846 44.2929V42.8647C413.846 42.2891 413.378 41.8415 412.825 41.8415ZM403.257 44.5061H402.704C402.576 44.5061 402.491 44.3995 402.491 44.2929V42.8647C402.491 42.7368 402.576 42.6515 402.704 42.6515H403.257V44.5061ZM411.465 45.7425C411.465 46.3394 410.997 46.8084 410.401 46.8084H405.128C404.532 46.8084 404.065 46.3394 404.065 45.7425V41.3938C404.065 40.7969 404.532 40.3279 405.128 40.3279H410.401C410.997 40.3279 411.465 40.7969 411.465 41.3938V45.7425ZM413.038 44.2929C413.038 44.4208 412.932 44.5061 412.825 44.5061H412.273V42.6515H412.825C412.953 42.6515 413.038 42.7581 413.038 42.8647V44.2929Z" fill="white" fill-opacity="0.3"/>
<path d="M406.149 43.291C406.618 43.291 406.999 42.9092 406.999 42.4383C406.999 41.9674 406.618 41.5856 406.149 41.5856C405.679 41.5856 405.298 41.9674 405.298 42.4383C405.298 42.9092 405.679 43.291 406.149 43.291Z" fill="white" fill-opacity="0.3"/>
<path d="M409.359 43.291C409.829 43.291 410.21 42.9092 410.21 42.4383C410.21 41.9674 409.829 41.5856 409.359 41.5856C408.89 41.5856 408.509 41.9674 408.509 42.4383C408.509 42.9092 408.89 43.291 409.359 43.291Z" fill="white" fill-opacity="0.3"/>
<path d="M409.508 44.1224C409.296 44.0372 409.062 44.1224 408.977 44.3143C408.806 44.6767 408.317 44.9325 407.765 44.9325C407.212 44.9325 406.723 44.6767 406.552 44.3143C406.467 44.1011 406.212 44.0158 406.021 44.1224C405.808 44.2077 405.723 44.4635 405.83 44.6554C406.127 45.3162 406.914 45.7425 407.765 45.7425C408.636 45.7425 409.402 45.2949 409.7 44.6554C409.806 44.4422 409.7 44.2077 409.508 44.1224Z" fill="white" fill-opacity="0.3"/>
<path d="M414.484 36.7893C414.942 36.7893 415.313 36.4171 415.313 35.9579C415.313 35.4987 414.942 35.1265 414.484 35.1265C414.026 35.1265 413.655 35.4987 413.655 35.9579C413.655 36.4171 414.026 36.7893 414.484 36.7893Z" fill="white" fill-opacity="0.3"/>
<path d="M416.802 36.7893C417.26 36.7893 417.631 36.4171 417.631 35.9579C417.631 35.4987 417.26 35.1265 416.802 35.1265C416.344 35.1265 415.972 35.4987 415.972 35.9579C415.972 36.4171 416.344 36.7893 416.802 36.7893Z" fill="white" fill-opacity="0.3"/>
<path d="M419.141 36.7893C419.599 36.7893 419.97 36.4171 419.97 35.9579C419.97 35.4987 419.599 35.1265 419.141 35.1265C418.683 35.1265 418.311 35.4987 418.311 35.9579C418.311 36.4171 418.683 36.7893 419.141 36.7893Z" fill="white" fill-opacity="0.3"/>
<defs>
<clipPath id="clip0">
<rect width="25" height="23" fill="white"/>
</clipPath>
<clipPath id="clip1">
<rect width="17" height="29" fill="white" transform="translate(137 19)"/>
</clipPath>
</defs>
</svg>
