<svg width="35" height="57" viewBox="0 0 35 57" fill="none" xmlns="http://www.w3.org/2000/svg">
<g clip-path="url(#clip0)">
<path d="M34.3054 31.3282C35.2599 30.2053 35.1476 28.521 33.9686 27.5666L32.8457 26.6121C32.7896 26.556 32.7896 26.556 32.7334 26.4998L34.3054 24.7032C34.7546 24.1418 34.9792 23.4681 34.923 22.7382C34.8669 22.0083 34.53 21.3908 33.9686 20.8855L32.8457 19.931C32.5088 19.6503 32.0597 19.4257 31.6105 19.3696V2.58261C31.6105 1.12287 30.4315 0 29.0279 0H9.6022C8.14247 0 7.01959 1.17902 7.01959 2.58261V14.4851C6.57044 14.0359 5.95286 13.5868 5.22299 13.3061C3.87554 12.7446 2.07894 13.1376 0.956068 14.2044C0.00162487 15.1027 -0.22295 16.394 0.2262 17.6291C0.506918 18.359 0.787637 19.145 0.956068 19.9872C1.85437 23.6365 2.0228 27.6227 1.46136 30.7106L1.29293 31.6089C0.506918 35.8758 -0.22295 39.862 1.06836 42.95C2.19123 45.5887 3.65097 46.9362 4.94227 48.1152L5.05456 48.2275C5.33528 48.452 5.39142 48.845 5.27914 49.1819L4.10012 52.2698L20.5502 56.1437L21.4485 53.898C21.5608 53.6173 21.7854 53.4488 22.0661 53.3927C22.9083 53.2804 24.1996 52.8312 25.6032 51.4277C27.3436 49.6311 28.9156 46.4309 29.5332 45.0834C29.7578 45.1396 29.9824 45.1957 30.2631 45.1957C31.0491 45.1957 31.779 44.8588 32.2843 44.2413L33.5194 42.8377C33.9686 42.2762 34.1932 41.6025 34.137 40.8726C34.0809 40.1428 33.744 39.5252 33.1826 39.0199L33.0703 38.9076L34.3616 37.3917C35.316 36.2688 35.2037 34.5845 34.0247 33.6301L33.0703 32.8441L34.3054 31.3282ZM27.2313 33.2371L28.1858 34.0231L26.8945 35.539C26.5015 36.0443 26.2769 36.6057 26.2769 37.2233H8.64776V6.06352H30.0385V19.538C29.9824 19.538 29.9824 19.5942 29.9824 19.5942C29.8701 19.6503 29.7578 19.7064 29.6455 19.7626C29.5894 19.8187 29.5332 19.8187 29.4771 19.8749C29.3087 19.9872 29.1964 20.0995 29.0841 20.2679L26.8945 22.7944C25.94 23.9172 26.0523 25.6015 27.2313 26.556L28.3542 27.5104C28.4104 27.5666 28.4104 27.5666 28.4665 27.6227L26.9506 29.4193C25.94 30.5422 26.1085 32.2826 27.2313 33.2371ZM28.1858 40.1428L27.8489 40.5358C27.3998 41.0972 27.1752 41.7709 27.2313 42.5008C27.2313 42.6692 27.2875 42.8377 27.3436 43.0061C27.3436 43.0622 27.3998 43.1184 27.3998 43.1745C27.3998 43.2307 27.4559 43.343 27.4559 43.3991H9.6022C9.04077 43.3991 8.64776 42.95 8.64776 42.4447V38.9638H26.7822C26.8945 39.1322 27.0629 39.3006 27.2313 39.469L28.1858 40.1428ZM32.9019 22.1206C33.1264 22.2891 33.2387 22.5698 33.2949 22.8505C33.2949 23.1312 33.2387 23.4119 33.0703 23.6365L30.8807 26.163L30.8245 26.2191C30.7122 26.3314 30.6 26.3876 30.4877 26.4437C30.3192 26.4998 30.0947 26.556 29.8701 26.4998C29.7017 26.4437 29.5332 26.3876 29.3648 26.2753L28.2419 25.3208C27.7928 24.9278 27.7366 24.2541 28.1296 23.8611L30.3192 21.3346C30.4877 21.1662 30.7122 20.9978 30.9368 20.9978C30.993 20.9978 31.0491 20.9978 31.1053 20.9978C31.3298 20.9978 31.6105 21.11 31.779 21.2223L32.9019 22.1206ZM9.6022 1.62817H29.0279C29.5894 1.62817 29.9824 2.07732 29.9824 2.58261V4.37921H8.64776V2.58261C8.64776 2.07732 9.09691 1.62817 9.6022 1.62817ZM24.4241 50.3048C23.3574 51.3715 22.4591 51.7084 21.8415 51.8207C20.9994 51.933 20.2695 52.4944 19.9326 53.3365L19.5958 54.291L6.28972 51.0908L6.79502 49.7433C7.13188 48.7889 6.9073 47.7222 6.17744 47.0484L6.06515 46.9362C4.82999 45.8133 3.59482 44.6343 2.58424 42.3324C1.46136 39.7498 2.19123 35.932 2.9211 31.9458L3.08953 31.0475C3.70711 27.735 3.48254 23.5242 2.58424 19.6503C2.35966 18.752 2.07894 17.9099 1.74208 17.1238C1.51751 16.4501 1.62979 15.8887 2.07894 15.4395C2.69652 14.8219 3.8194 14.5412 4.54927 14.8781C6.73887 15.8325 6.96345 17.9098 6.96345 18.1344V42.3885C6.96345 43.8483 8.14247 44.9711 9.54606 44.9711H27.6805C27.0629 46.3747 25.7716 48.9012 24.4241 50.3048ZM32.2281 41.7148L30.993 43.1184C30.6561 43.5114 30.0947 43.6237 29.6455 43.343C29.5894 43.2868 29.5332 43.2868 29.4771 43.2307L29.2525 43.0061C29.0279 42.8377 28.9156 42.5569 28.8595 42.2762C28.8595 41.9955 28.9156 41.7148 29.0841 41.4902L29.6455 40.8165C29.7017 40.8165 29.7578 40.8165 29.7578 40.8165C29.8139 40.8165 29.9262 40.8165 29.9824 40.8165C30.0385 40.8165 30.0947 40.8165 30.1508 40.8165H30.2631C30.4315 40.8165 30.5438 40.7603 30.7122 40.7603C30.7684 40.7603 30.8245 40.7042 30.8245 40.7042C30.9368 40.7042 30.993 40.6481 31.0491 40.6481C31.1053 40.6481 31.1614 40.5919 31.2175 40.5919C31.2737 40.5919 31.3298 40.5358 31.3298 40.5358C31.4421 40.4796 31.5544 40.3673 31.6667 40.3112C31.7228 40.3112 31.7228 40.2551 31.779 40.2551C31.8351 40.1989 31.8351 40.1989 31.8913 40.1428L32.0036 40.2551C32.2281 40.4235 32.3404 40.7042 32.3966 40.9849C32.5088 41.2656 32.3966 41.4902 32.2281 41.7148ZM30.1508 39.2445C30.0385 39.2445 29.9262 39.2445 29.8701 39.1883C29.8139 39.1883 29.7578 39.1883 29.7017 39.1322C29.5894 39.076 29.4771 39.0199 29.4209 38.9638L28.2981 38.0093C27.8489 37.6163 27.7928 36.9426 28.1858 36.5496L29.7017 34.753C29.8139 34.753 29.9262 34.753 30.0385 34.753C30.0385 34.753 30.0385 34.753 30.0947 34.753C30.1508 34.753 30.207 34.753 30.2631 34.753C30.3192 34.753 30.3754 34.753 30.3754 34.753C30.5438 34.753 30.6561 34.6968 30.7684 34.6968C30.8245 34.6968 30.8245 34.6968 30.8807 34.6968C30.9368 34.6968 30.993 34.6407 31.0491 34.6407C31.1053 34.6407 31.1614 34.5845 31.1614 34.5845C31.2175 34.5845 31.2737 34.5284 31.2737 34.5284C31.4421 34.4723 31.5544 34.36 31.6667 34.2477C31.7228 34.1915 31.7228 34.1915 31.779 34.1354C31.8351 34.0792 31.8913 34.0792 31.9474 34.0231L32.9019 34.8653C33.351 35.2583 33.4071 35.932 33.0141 36.325L31.5544 38.0655L30.8807 38.8515C30.8245 38.9637 30.7122 39.0199 30.5438 39.076L30.4877 39.1322C30.4877 39.1322 30.4315 39.1322 30.4315 39.1883H30.3754C30.3192 39.1883 30.2631 39.2445 30.1508 39.2445ZM33.0703 30.2615L31.5544 32.0019L30.8807 32.7879C30.7684 32.9002 30.6561 32.9564 30.5438 33.0687L30.3192 33.1248C30.2631 33.1248 30.207 33.1248 30.1508 33.1809C30.0385 33.1809 29.9824 33.1809 29.8701 33.1809C29.8139 33.1809 29.7578 33.1809 29.7017 33.1248C29.5894 33.0687 29.4771 33.0125 29.4209 32.9564L28.2981 32.0019C27.8489 31.6089 27.7928 30.9352 28.1858 30.5422L30.1508 28.2403C30.2631 28.2403 30.3754 28.2403 30.4877 28.1842C30.5438 28.1842 30.6 28.1842 30.6561 28.1842C30.8245 28.128 30.993 28.0719 31.1614 28.0157C31.3298 27.9596 31.4983 27.8473 31.6105 27.7911C31.6667 27.8473 31.7228 27.8473 31.8351 27.9034L32.958 28.8579C33.351 29.1386 33.4071 29.8123 33.0703 30.2615Z" fill="white"/>
<path d="M22.0084 2.47021H16.6187V3.53695H22.0084V2.47021Z" fill="white"/>
<path d="M19.2574 42.0518C20.0015 42.0518 20.6048 41.4486 20.6048 40.7044C20.6048 39.9602 20.0015 39.3569 19.2574 39.3569C18.5132 39.3569 17.9099 39.9602 17.9099 40.7044C17.9099 41.4486 18.5132 42.0518 19.2574 42.0518Z" fill="white"/>
<path d="M14.7657 7.69189H10.8918C10.611 7.69189 10.3303 7.91647 10.3303 8.25333V12.1273C10.3303 12.408 10.5549 12.6887 10.8918 12.6887H14.7657C15.0464 12.6887 15.3271 12.4641 15.3271 12.1273V8.25333C15.3271 7.97261 15.1025 7.69189 14.7657 7.69189ZM14.2604 11.5658H11.4532V8.75863H14.2604V11.5658Z" fill="white"/>
<path d="M21.2786 7.69189H17.4047C17.124 7.69189 16.8433 7.91647 16.8433 8.25333V12.1273C16.8433 12.408 17.0678 12.6887 17.4047 12.6887H21.2786C21.5593 12.6887 21.8401 12.4641 21.8401 12.1273V8.25333C21.7839 7.97261 21.5593 7.69189 21.2786 7.69189Z" fill="white"/>
<path d="M23.8612 12.6887H27.7352C28.0159 12.6887 28.2966 12.4641 28.2966 12.1273V8.25333C28.2966 7.97261 28.072 7.69189 27.7352 7.69189H23.8612C23.5805 7.69189 23.2998 7.91647 23.2998 8.25333V12.1273C23.3559 12.408 23.5805 12.6887 23.8612 12.6887Z" fill="white"/>
<path d="M14.7657 14.2046H10.8918C10.611 14.2046 10.3303 14.4292 10.3303 14.766V18.6399C10.3303 18.9207 10.5549 19.2014 10.8918 19.2014H14.7657C15.0464 19.2014 15.3271 18.9768 15.3271 18.6399V14.766C15.3271 14.4292 15.1025 14.2046 14.7657 14.2046Z" fill="white"/>
<path d="M21.2786 14.2046H17.4047C17.124 14.2046 16.8433 14.4292 16.8433 14.766V18.6399C16.8433 18.9207 17.0678 19.2014 17.4047 19.2014H21.2786C21.5593 19.2014 21.8401 18.9768 21.8401 18.6399V14.766C21.7839 14.4292 21.5593 14.2046 21.2786 14.2046Z" fill="white"/>
<path d="M28.2966 18.6399V14.766C28.2966 14.4853 28.072 14.2046 27.7352 14.2046H23.8612C23.5805 14.2046 23.2998 14.4292 23.2998 14.766V18.6399C23.2998 18.9207 23.5244 19.2014 23.8612 19.2014H27.7352C28.072 19.1452 28.2966 18.9207 28.2966 18.6399Z" fill="white"/>
<path d="M14.7657 20.7173H10.8918C10.611 20.7173 10.3303 20.9419 10.3303 21.2787V25.1526C10.3303 25.4334 10.5549 25.7141 10.8918 25.7141H14.7657C15.0464 25.7141 15.3271 25.4895 15.3271 25.1526V21.2787C15.3271 20.9419 15.1025 20.7173 14.7657 20.7173Z" fill="white"/>
<path d="M21.2786 20.7173H17.4047C17.124 20.7173 16.8433 20.9419 16.8433 21.2787V25.1526C16.8433 25.4334 17.0678 25.7141 17.4047 25.7141H21.2786C21.5593 25.7141 21.8401 25.4895 21.8401 25.1526V21.2787C21.7839 20.9419 21.5593 20.7173 21.2786 20.7173Z" fill="white"/>
</g>
<defs>
<clipPath id="clip0">
<rect width="35" height="56.1437" fill="white"/>
</clipPath>
</defs>
</svg>
