<svg width="40" height="32" viewBox="0 0 40 32" fill="none" xmlns="http://www.w3.org/2000/svg">
<path d="M7.22561 13.3499C8.22516 13.3499 9.03203 12.5367 9.03203 11.5294C9.03203 10.5221 8.22516 9.70898 7.22561 9.70898C6.22606 9.70898 5.41919 10.5221 5.41919 11.5294C5.41919 12.5367 6.22606 13.3499 7.22561 13.3499ZM7.22561 10.9226C7.55679 10.9226 7.82775 11.1957 7.82775 11.5294C7.82775 11.8632 7.55679 12.1362 7.22561 12.1362C6.89443 12.1362 6.62347 11.8632 6.62347 11.5294C6.62347 11.1957 6.89443 10.9226 7.22561 10.9226Z" fill="white"/>
<path d="M33.1177 0H6.62354C4.96164 0 3.61284 1.35926 3.61284 3.03406V9.75753C1.54148 10.0609 0 11.845 0 13.9567V20.9532C0 21.2384 0.0662354 21.5115 0.192685 21.7663L1.14407 23.6778C1.18622 23.7627 1.20428 23.8598 1.20428 23.9508V30.9474C1.20428 31.2811 1.47524 31.5542 1.80642 31.5542H7.82782C8.159 31.5542 8.42997 31.2811 8.42997 30.9474V27.2398C8.42997 26.5783 8.5805 25.9291 8.87555 25.3404L9.7908 23.4957C9.86306 23.3562 9.92327 23.2105 9.97747 23.0649H33.1177C34.7796 23.0649 36.1284 21.7056 36.1284 20.0308V3.03406C36.1284 1.35926 34.7796 0 33.1177 0ZM4.81712 3.03406C4.81712 2.02675 5.62399 1.21362 6.62354 1.21362H9.63425V13.8171C8.84544 13.8474 8.17104 14.3875 7.97234 15.1581L7.27988 17.7674C7.21364 18.0344 6.97279 18.2225 6.6958 18.2104C6.49107 18.2104 6.29839 18.1012 6.19 17.9191L4.81712 15.6072V3.03406ZM9.03211 21.111V21.5904C9.03211 22.0637 8.92372 22.5248 8.71297 22.9496L7.79772 24.7943C7.42439 25.5528 7.22568 26.3902 7.22568 27.2398V30.3406H2.40856V23.9508C2.40856 23.6656 2.34233 23.3926 2.21588 23.1377L1.26449 21.2263C1.22837 21.1413 1.20428 21.0442 1.20428 20.9532V13.9567C1.20428 12.5125 2.20986 11.2746 3.61284 10.9833V15.7771C3.61284 15.8863 3.64295 15.9955 3.69714 16.0866L5.16034 18.5442C5.47948 19.0842 6.05753 19.418 6.68376 19.424C7.50267 19.424 8.22524 18.8779 8.44201 18.083L9.13447 15.4737C9.21275 15.146 9.5379 14.9458 9.86306 15.0247C10.1882 15.1035 10.3869 15.4312 10.3086 15.7589C10.3086 15.771 10.3026 15.7771 10.3026 15.7892L9.18264 20.0126C9.08028 20.3707 9.03211 20.7408 9.03211 21.111ZM34.9241 20.0248C34.9241 21.0321 34.1173 21.8452 33.1177 21.8452H10.8385V18.4471L11.4648 16.0987C11.6514 15.3948 11.4106 14.6484 10.8385 14.1994V1.21362H33.1177C34.1173 1.21362 34.9241 2.02675 34.9241 3.03406V20.0248Z" fill="white"/>
<path d="M31.675 17.8255L31.6967 17.8891L31.7345 17.9447L32.3727 18.8852L32.5215 19.1045H32.7865H33.5933H33.7538L33.8843 19.0111L34.9019 18.2829L34.9945 18.2167L35.0493 18.1168L36.1512 16.1083L36.2129 15.9959V15.8678V12.7336L36.3891 11.1267L37.0708 11.4198L38.3933 12.3895L39.0244 13.916V16.2076V20.3946V21.2293L38.3828 22.2154L38.3693 22.2361L38.3579 22.258L37.9364 23.0711L37.9064 23.129L37.8923 23.1926L37.5129 24.8978L37.4983 24.9636L37.5016 25.0309L37.627 27.5759L37.5199 30.3621H32.7197L32.648 27.6026L32.648 27.6002L32.6058 26.2349L32.6029 26.1409L32.5661 26.0544L31.7652 24.1733L31.7596 24.16L31.7531 24.147L30.8561 22.3391L30.6505 20.8423L30.6474 20.8199L30.6423 20.7979L30.2569 19.1291L30.2571 19.1291L30.2536 19.1157L29.9689 18.0218L29.6676 16.4218V15.4503L30.3538 15.1115L30.8446 15.3941L31.675 17.8255Z" fill="#020358" stroke="white"/>
<path d="M38.8559 23.6773L39.8073 21.7658C39.9337 21.511 40 21.2318 40 20.9527V13.9562C40.006 11.8445 38.4645 10.0605 36.3932 9.75704C36.3932 9.75704 36.0388 9.75446 35.6889 9.75266L38.8559 23.6773ZM38.8559 23.6773C38.8138 23.7623 38.7957 23.8593 38.7957 23.9504V30.9469C38.7957 31.2806 38.5247 31.5537 38.1936 31.5537H32.1722C31.841 31.5537 31.57 31.2806 31.57 30.9469V27.2393C31.57 26.5779 31.4135 25.9286 31.1244 25.34L30.2092 23.4953C30.1369 23.3557 30.0767 23.2101 30.0225 23.0644H30.0044M38.8559 23.6773L29.1615 18.4527C29.1615 18.4527 29.5227 19.3022 29.5167 19.7209M30.0044 23.0644L30.0225 23.0604L30.0501 23.0542L30.4923 22.9548C30.4878 22.9347 30.4833 22.9147 30.4788 22.8946C30.4716 22.8629 30.4645 22.8311 30.4574 22.7994M30.0044 23.0644V22.5644H30.0225H30.37L30.4574 22.7994M30.0044 23.0644L30.0029 23.0574C29.7565 21.9613 29.5047 20.8411 29.5167 19.7209M30.4574 22.7994L30.4911 22.89C30.5414 23.0252 30.5937 23.1504 30.6532 23.2654L30.6571 23.273L30.6571 23.273L31.5723 25.1177L31.5732 25.1196C31.8948 25.7744 32.07 26.4989 32.07 27.2393V30.9469C32.07 31.0082 32.1208 31.0537 32.1722 31.0537H38.1936C38.245 31.0537 38.2957 31.0082 38.2957 30.9469V23.9504C38.2957 23.7979 38.3252 23.6219 38.408 23.4551L38.4083 23.4545L39.3594 21.5436M30.4574 22.7994C30.2213 21.7463 30.006 20.7318 30.0167 19.727M39.3594 21.5436L39.8071 21.7658L39.3597 21.543M39.3594 21.5436L39.3597 21.543M39.3594 21.5436L39.3597 21.543M39.3597 21.543C39.4524 21.3559 39.5 21.1529 39.5 20.9527V13.9562V13.9548C39.5053 12.1024 38.1618 10.5381 36.3539 10.2568L36.3532 10.2568L36.2541 10.2561L35.928 10.254C35.851 10.2535 35.7698 10.2531 35.6889 10.2527V15.6067V15.7445L35.6183 15.8628L34.2396 18.1744C34.0449 18.5014 33.7002 18.708 33.3098 18.7099C32.8152 18.7184 32.3613 18.3879 32.2359 17.8919L31.5444 15.2859L31.5437 15.2834L31.5437 15.2834C31.407 14.7574 30.9594 14.3762 30.4278 14.322L29.4084 14.6507C29.0446 14.9792 28.8898 15.4904 29.0184 15.9758C29.0185 15.9759 29.0185 15.976 29.0185 15.9761L29.636 18.2915L29.6395 18.3002C29.6503 18.3264 29.6654 18.3637 29.6833 18.4095C29.7191 18.5008 29.767 18.6277 29.815 18.7695C29.9019 19.0265 30.0208 19.4201 30.0167 19.727M30.0167 19.727C30.0167 19.7274 30.0167 19.7277 30.0167 19.7281L29.5167 19.7209M30.0167 19.727C30.0167 19.7268 30.0167 19.7265 30.0167 19.7263L29.5167 19.7209M39.1958 21.4352L39.1891 21.4486L38.238 23.3595L39.1958 21.4352ZM39.1958 21.4352L39.2016 21.4215M39.1958 21.4352L39.2016 21.4215M39.2016 21.4215C39.2566 21.2923 39.3017 21.1339 39.3017 20.9527V13.9562C39.3017 12.2766 38.1313 10.833 36.4948 10.4932L35.8932 10.3683V10.9828V15.7766C35.8932 15.7973 35.8895 15.8163 35.8748 15.8439L34.416 18.294L34.4152 18.2954C34.1851 18.6847 33.7688 18.925 33.3182 18.9296C32.7296 18.9338 32.2051 18.5364 32.0468 17.9586C32.0467 17.9581 32.0465 17.9575 32.0464 17.957L31.3562 15.3562C31.2113 14.7661 30.6197 14.4001 30.0251 14.5443C29.4441 14.6853 29.0882 15.2581 29.2011 15.835C29.2021 15.8432 29.2033 15.852 29.2048 15.8613C29.2102 15.8939 29.2182 15.9234 29.2271 15.9495L30.3463 20.147L30.3466 20.1482C30.4313 20.4632 30.4739 20.7896 30.4739 21.1166V21.5959C30.4739 22.1466 30.6002 22.6838 30.8451 23.1774L31.7597 25.0207C31.7598 25.0209 31.7599 25.0212 31.76 25.0214C32.1001 25.7127 32.2803 26.4684 32.2803 27.2393V30.3401V30.8401H32.7803H37.5974H38.0974M39.2016 21.4215L38.0974 30.8401M38.0974 30.8401V30.3401M38.0974 30.8401V30.3401M38.0974 30.3401V23.9504C38.0974 23.7502 38.145 23.5472 38.2377 23.36L38.0974 30.3401Z" fill="#020358" stroke="white"/>
<mask id="path-5-inside-1" fill="white">
<path d="M29.1676 14.2048C29.3121 14.1198 29.4988 14.0288 29.7276 13.9499C29.9745 13.871 30.1973 13.8346 30.3719 13.8164"/>
</mask>
<path d="M29.1676 14.2048C29.3121 14.1198 29.4988 14.0288 29.7276 13.9499C29.9745 13.871 30.1973 13.8346 30.3719 13.8164" fill="#020358"/>
<path d="M29.7276 13.9499L29.4232 12.9974L29.4124 13.0008L29.4017 13.0045L29.7276 13.9499ZM29.6744 15.0668C29.764 15.0142 29.8902 14.9516 30.0535 14.8953L29.4017 13.0045C29.1073 13.106 28.8603 13.2254 28.6608 13.3427L29.6744 15.0668ZM30.032 14.9025C30.1979 14.8494 30.3506 14.824 30.4756 14.811L30.2682 12.8218C30.044 12.8452 29.751 12.8926 29.4232 12.9974L30.032 14.9025Z" fill="white" mask="url(#path-5-inside-1)"/>
</svg>
