<svg width="40" height="31" viewBox="0 0 40 31" fill="none" xmlns="http://www.w3.org/2000/svg">
<path d="M29.9368 0C24.3789 0 19.8737 3.33466 19.8737 7.42911C19.8737 9.53965 21.0526 11.4814 23.1158 12.9165C22.8631 13.3808 22.5263 13.8874 22.1052 14.3939C21.6421 14.9426 21.6 15.7024 22.021 16.2934C22.3158 16.7155 22.7789 16.9688 23.2842 16.9688C23.4526 16.9688 23.6631 16.9265 23.8316 16.8843C25.1368 16.42 26.7368 15.7024 28.5895 14.816C29.0526 14.8582 29.4737 14.9004 29.9368 14.9004C35.4947 14.9004 40 11.5658 40 7.47132C40 3.37687 35.4947 0 29.9368 0ZM29.9368 13.212C29.4737 13.212 28.9684 13.1698 28.5052 13.1276C28.3368 13.1276 28.2105 13.1276 28.0421 13.212C26.1473 14.1406 24.5473 14.8582 23.2842 15.407C24.0421 14.5205 24.5473 13.6341 24.8421 12.8321C24.9684 12.4522 24.8 12.0723 24.4631 11.8612C22.5263 10.7638 21.4316 9.11754 21.4316 7.3869C21.4316 4.17887 25.221 1.5618 29.8947 1.5618C34.5684 1.5618 38.3579 4.17887 38.3579 7.3869C38.3579 10.5949 34.6105 13.212 29.9368 13.212Z" fill="white"/>
<path d="M22.0632 19.037H20.9684V18.1928C20.9684 16.1245 19.2842 14.4783 17.2632 14.4783H12.8421V12.03C12.8421 11.6079 12.5053 11.228 12.0421 11.228C11.579 11.228 11.2421 11.6079 11.2421 12.03V14.4783H6.82106C4.7579 14.4783 3.11579 16.1667 3.11579 18.1928V19.037H2.02106C0.926317 19.037 0 19.9657 0 21.0632V23.8913C0 24.9888 0.926317 25.9174 2.02106 25.9174H3.11579V26.7616C3.11579 28.83 4.7579 30.4762 6.82106 30.4762H17.2632C19.3263 30.4762 20.9684 28.7877 20.9684 26.7616V25.9174H22.0632C23.1579 25.9174 24.0842 24.9888 24.0842 23.8913V21.0632C24.0842 19.9235 23.1579 19.037 22.0632 19.037ZM3.11579 24.3134H2.02106C1.76842 24.3134 1.6 24.1023 1.6 23.8913V21.0632C1.6 20.8099 1.76842 20.641 2.02106 20.641H3.11579V24.3134ZM19.3684 26.7616C19.3684 27.9435 18.4421 28.8722 17.2632 28.8722H6.82106C5.64211 28.8722 4.7158 27.9435 4.7158 26.7616V18.1506C4.7158 16.9687 5.64211 16.0401 6.82106 16.0401H17.2632C18.4421 16.0401 19.3684 16.9687 19.3684 18.1506V26.7616ZM22.4842 23.8913C22.4842 24.1445 22.2737 24.3134 22.0632 24.3134H20.9684V20.641H22.0632C22.3158 20.641 22.4842 20.8521 22.4842 21.0632V23.8913Z" fill="white"/>
<path d="M8.84217 21.9076C9.77234 21.9076 10.5264 21.1517 10.5264 20.2192C10.5264 19.2867 9.77234 18.5308 8.84217 18.5308C7.91201 18.5308 7.15796 19.2867 7.15796 20.2192C7.15796 21.1517 7.91201 21.9076 8.84217 21.9076Z" fill="white"/>
<path d="M15.2 21.9076C16.1301 21.9076 16.8842 21.1517 16.8842 20.2192C16.8842 19.2867 16.1301 18.5308 15.2 18.5308C14.2698 18.5308 13.5157 19.2867 13.5157 20.2192C13.5157 21.1517 14.2698 21.9076 15.2 21.9076Z" fill="white"/>
<path d="M15.4947 23.5538C15.0737 23.3849 14.6105 23.5538 14.4421 23.9337C14.1053 24.6512 13.1368 25.1578 12.0421 25.1578C10.9474 25.1578 9.97893 24.6512 9.64209 23.9337C9.47367 23.5115 8.9684 23.3427 8.58946 23.5538C8.1684 23.7226 7.99998 24.2291 8.21051 24.609C8.79998 25.9176 10.3579 26.7618 12.0421 26.7618C13.7684 26.7618 15.2842 25.8754 15.8737 24.609C16.0842 24.1869 15.8737 23.7226 15.4947 23.5538Z" fill="white"/>
<path d="M25.3476 9.03317C26.2545 9.03317 26.9897 8.29613 26.9897 7.38695C26.9897 6.47776 26.2545 5.74072 25.3476 5.74072C24.4406 5.74072 23.7054 6.47776 23.7054 7.38695C23.7054 8.29613 24.4406 9.03317 25.3476 9.03317Z" fill="white"/>
<path d="M29.9368 9.03317C30.8437 9.03317 31.5789 8.29613 31.5789 7.38695C31.5789 6.47776 30.8437 5.74072 29.9368 5.74072C29.0299 5.74072 28.2947 6.47776 28.2947 7.38695C28.2947 8.29613 29.0299 9.03317 29.9368 9.03317Z" fill="white"/>
<path d="M34.5684 9.03317C35.4753 9.03317 36.2105 8.29613 36.2105 7.38695C36.2105 6.47776 35.4753 5.74072 34.5684 5.74072C33.6615 5.74072 32.9263 6.47776 32.9263 7.38695C32.9263 8.29613 33.6615 9.03317 34.5684 9.03317Z" fill="white"/>
</svg>
