<svg width="49" height="94" viewBox="0 0 49 94" fill="none" xmlns="http://www.w3.org/2000/svg">
<g clip-path="url(#clip0)">
<path d="M49 38.9319C49 37.2072 47.6 35.7381 45.8182 35.7381C44.1 35.7381 42.6364 37.1434 42.6364 38.9319C42.6364 40.4649 43.7182 41.6785 45.1182 41.9979V43.6586H42.0636V0.670688C42.0636 0.415188 41.9364 0.223563 41.7455 0.0958126C41.5545 -0.0319375 41.3 -0.0319375 41.1091 0.0958126L30.6727 6.48332C30.4818 6.61107 30.3545 6.8027 30.3545 7.0582V15.6813H25.2636V9.54933C25.2636 9.29383 25.0727 9.03833 24.8182 8.97445L14.3818 5.14194C14.1909 5.07807 14 5.07807 13.8091 5.20582C13.6182 5.33357 13.5545 5.5252 13.5545 5.71682V20.0248H8.01818C7.63636 20.0248 7.38182 20.2803 7.38182 20.6636V43.7225H3.81818V41.9979C5.34545 41.7424 6.49091 40.401 6.49091 38.8041C6.49091 37.6544 5.91818 36.6324 5.02727 36.0575C5.6 35.5465 6.04545 34.78 6.04545 33.9496C6.04545 32.4166 4.77273 31.1391 3.24545 31.1391C1.71818 31.1391 0.445455 32.4166 0.445455 33.9496C0.445455 34.78 0.827273 35.5465 1.46364 36.0575C0.572727 36.6324 0 37.6544 0 38.8041C0 40.401 1.08182 41.6785 2.54545 41.9979V43.7225H1.46364C1.08182 43.7225 0.827273 43.978 0.827273 44.3612C0.827273 44.7445 1.08182 45 1.46364 45H47.2182C47.6 45 47.8545 44.7445 47.8545 44.3612C47.8545 43.978 47.6 43.7225 47.2182 43.7225H46.3909V42.1256C47.8545 41.8062 49 40.4649 49 38.9319ZM3.30909 32.4166C4.13636 32.4166 4.83636 33.1192 4.83636 33.9496C4.83636 34.78 4.13636 35.4187 3.30909 35.4187C2.48182 35.4187 1.78182 34.7161 1.78182 33.8857C1.78182 33.0554 2.48182 32.4166 3.30909 32.4166ZM1.27273 38.7402C1.27273 37.6544 2.16364 36.7601 3.24545 36.7601C4.32727 36.7601 5.21818 37.6544 5.21818 38.7402C5.21818 39.8261 4.32727 40.7204 3.24545 40.7204C2.16364 40.7204 1.27273 39.89 1.27273 38.7402ZM31.6273 7.44145L40.7909 1.82044V43.7225H36.8455V16.3201C36.8455 15.9368 36.5909 15.6813 36.2091 15.6813H31.6273V7.44145ZM35.5727 16.9588V43.7225H32.8364V40.7842C32.8364 39.4429 31.7545 38.357 30.4182 38.357C29.0818 38.357 28 39.4429 28 40.7842V43.7225H25.2636V16.9588H35.5727V16.9588ZM31.5636 43.6586H29.3364V40.7204C29.3364 40.0816 29.8455 39.5706 30.4818 39.5706C31.1182 39.5706 31.6273 40.0816 31.6273 40.7204V43.6586H31.5636ZM14.8909 6.61107L24.0545 9.99645V43.6586H20.2364V20.6636C20.2364 20.2803 19.9818 20.0248 19.6 20.0248H14.8909V6.61107ZM8.71818 21.3023H18.9636V43.7225H15.9727V40.7842C15.9727 39.4429 14.8909 38.357 13.5545 38.357C12.2182 38.357 11.1364 39.4429 11.1364 40.7842V43.7225H8.65455V21.3023H8.71818ZM14.7 43.6586H12.4727V40.7204C12.4727 40.0816 12.9818 39.5706 13.6182 39.5706C14.2545 39.5706 14.7636 40.0816 14.7636 40.7204V43.6586H14.7ZM43.9091 38.9319C43.9091 37.9099 44.7364 37.0156 45.8182 37.0156C46.8364 37.0156 47.7273 37.846 47.7273 38.9319C47.7273 40.0177 46.9 40.8481 45.8182 40.8481C44.8 40.8481 43.9091 39.9539 43.9091 38.9319Z" fill="white"/>
<path d="M11.2636 25.3265C11.6454 25.3265 11.8999 25.071 11.8999 24.6878V23.7935C11.8999 23.4103 11.6454 23.1548 11.2636 23.1548C10.8817 23.1548 10.6272 23.4103 10.6272 23.7935V24.6878C10.6272 25.071 10.8817 25.3265 11.2636 25.3265Z" fill="white"/>
<path d="M13.809 25.3265C14.1908 25.3265 14.4453 25.071 14.4453 24.6878V23.7935C14.4453 23.4103 14.1908 23.1548 13.809 23.1548C13.4272 23.1548 13.1726 23.4103 13.1726 23.7935V24.6878C13.1726 25.071 13.4908 25.3265 13.809 25.3265Z" fill="white"/>
<path d="M16.4183 25.3265C16.8002 25.3265 17.0547 25.071 17.0547 24.6878V23.7935C17.0547 23.4103 16.8002 23.1548 16.4183 23.1548C16.0365 23.1548 15.782 23.4103 15.782 23.7935V24.6878C15.782 25.071 16.0365 25.3265 16.4183 25.3265Z" fill="white"/>
<path d="M11.2636 28.9672C11.6454 28.9672 11.8999 28.7117 11.8999 28.3284V27.4342C11.8999 27.0509 11.6454 26.7954 11.2636 26.7954C10.8817 26.7954 10.6272 27.0509 10.6272 27.4342V28.3284C10.6272 28.6478 10.8817 28.9672 11.2636 28.9672Z" fill="white"/>
<path d="M13.809 28.9672C14.1908 28.9672 14.4453 28.7117 14.4453 28.3284V27.4342C14.4453 27.0509 14.1908 26.7954 13.809 26.7954C13.4272 26.7954 13.1726 27.0509 13.1726 27.4342V28.3284C13.1726 28.6478 13.4908 28.9672 13.809 28.9672Z" fill="white"/>
<path d="M16.4183 28.9672C16.8002 28.9672 17.0547 28.7117 17.0547 28.3284V27.4342C17.0547 27.0509 16.8002 26.7954 16.4183 26.7954C16.0365 26.7954 15.782 27.0509 15.782 27.4342V28.3284C15.782 28.6478 16.0365 28.9672 16.4183 28.9672Z" fill="white"/>
<path d="M11.2636 32.5443C11.6454 32.5443 11.8999 32.2888 11.8999 31.9056V31.0113C11.8999 30.6281 11.6454 30.3726 11.2636 30.3726C10.8817 30.3726 10.6272 30.6281 10.6272 31.0113V31.9056C10.6272 32.2888 10.8817 32.5443 11.2636 32.5443Z" fill="white"/>
<path d="M13.809 32.5443C14.1908 32.5443 14.4453 32.2888 14.4453 31.9056V31.0113C14.4453 30.6281 14.1908 30.3726 13.809 30.3726C13.4272 30.3726 13.1726 30.6281 13.1726 31.0113V31.9056C13.1726 32.2888 13.4908 32.5443 13.809 32.5443Z" fill="white"/>
<path d="M16.4183 32.5443C16.8002 32.5443 17.0547 32.2888 17.0547 31.9056V31.0113C17.0547 30.6281 16.8002 30.3726 16.4183 30.3726C16.0365 30.3726 15.782 30.6281 15.782 31.0113V31.9056C15.782 32.2888 16.0365 32.5443 16.4183 32.5443Z" fill="white"/>
<path d="M11.2636 36.1854C11.6454 36.1854 11.8999 35.9299 11.8999 35.5467V34.6524C11.8999 34.2692 11.6454 34.0137 11.2636 34.0137C10.8817 34.0137 10.6272 34.2692 10.6272 34.6524V35.5467C10.6272 35.866 10.8817 36.1854 11.2636 36.1854Z" fill="white"/>
<path d="M13.809 36.1854C14.1908 36.1854 14.4453 35.9299 14.4453 35.5467V34.6524C14.4453 34.2692 14.1908 34.0137 13.809 34.0137C13.4272 34.0137 13.1726 34.2692 13.1726 34.6524V35.5467C13.1726 35.866 13.4908 36.1854 13.809 36.1854Z" fill="white"/>
<path d="M16.4183 36.1854C16.8002 36.1854 17.0547 35.9299 17.0547 35.5467V34.6524C17.0547 34.2692 16.8002 34.0137 16.4183 34.0137C16.0365 34.0137 15.782 34.2692 15.782 34.6524V35.5467C15.782 35.866 16.0365 36.1854 16.4183 36.1854Z" fill="white"/>
<path d="M33.6637 8.78271C33.2819 8.78271 33.0273 9.03822 33.0273 9.42147V10.3157C33.0273 10.699 33.2819 10.9545 33.6637 10.9545C34.0455 10.9545 34.3001 10.699 34.3001 10.3157V9.42147C34.3001 9.10209 33.9819 8.78271 33.6637 8.78271Z" fill="white"/>
<path d="M36.2091 10.9545C36.5909 10.9545 36.8455 10.699 36.8455 10.3157V9.42147C36.8455 9.03822 36.5909 8.78271 36.2091 8.78271C35.8273 8.78271 35.5728 9.03822 35.5728 9.42147V10.3157C35.5728 10.6351 35.8909 10.9545 36.2091 10.9545Z" fill="white"/>
<path d="M38.8182 10.9545C39.2001 10.9545 39.4546 10.699 39.4546 10.3157V9.42147C39.4546 9.03822 39.2001 8.78271 38.8182 8.78271C38.4364 8.78271 38.1819 9.03822 38.1819 9.42147V10.3157C38.1819 10.6351 38.4364 10.9545 38.8182 10.9545Z" fill="white"/>
<path d="M33.6637 12.3599C33.2819 12.3599 33.0273 12.6154 33.0273 12.9986V13.8929C33.0273 14.2761 33.2819 14.5316 33.6637 14.5316C34.0455 14.5316 34.3001 14.2761 34.3001 13.8929V12.9986C34.3001 12.6154 33.9819 12.3599 33.6637 12.3599Z" fill="white"/>
<path d="M36.8455 13.8929V12.9986C36.8455 12.6154 36.5909 12.3599 36.2091 12.3599C35.8273 12.3599 35.5728 12.6154 35.5728 12.9986V13.8929C35.5728 14.2761 35.8273 14.5316 36.2091 14.5316C36.5909 14.5316 36.8455 14.2122 36.8455 13.8929Z" fill="white"/>
<path d="M38.8182 14.5316C39.2001 14.5316 39.4546 14.2761 39.4546 13.8929V12.9986C39.4546 12.6154 39.2001 12.3599 38.8182 12.3599C38.4364 12.3599 38.1819 12.6154 38.1819 12.9986V13.8929C38.1819 14.2122 38.4364 14.5316 38.8182 14.5316Z" fill="white"/>
<path d="M38.8182 18.1088C39.2001 18.1088 39.4546 17.8533 39.4546 17.47V16.5758C39.4546 16.1925 39.2001 15.937 38.8182 15.937C38.4364 15.937 38.1819 16.1925 38.1819 16.5758V17.47C38.1819 17.7894 38.4364 18.1088 38.8182 18.1088Z" fill="white"/>
<path d="M38.8182 21.6219C39.2001 21.6219 39.4546 21.3664 39.4546 20.9832V20.0889C39.4546 19.7057 39.2001 19.4502 38.8182 19.4502C38.4364 19.4502 38.1819 19.7057 38.1819 20.0889V20.9832C38.1819 21.3664 38.4364 21.6219 38.8182 21.6219Z" fill="white"/>
<path d="M38.8182 25.1986C39.2001 25.1986 39.4546 24.9431 39.4546 24.5599V23.6656C39.4546 23.2824 39.2001 23.0269 38.8182 23.0269C38.4364 23.0269 38.1819 23.2824 38.1819 23.6656V24.5599C38.1819 24.9431 38.4364 25.1986 38.8182 25.1986Z" fill="white"/>
<path d="M38.8182 28.7758C39.2001 28.7758 39.4546 28.5203 39.4546 28.137V27.2428C39.4546 26.8595 39.2001 26.604 38.8182 26.604C38.4364 26.604 38.1819 26.8595 38.1819 27.2428V28.137C38.1819 28.5203 38.4364 28.7758 38.8182 28.7758Z" fill="white"/>
<path d="M38.8182 32.2889C39.2001 32.2889 39.4546 32.0334 39.4546 31.6502V30.7559C39.4546 30.3727 39.2001 30.1172 38.8182 30.1172C38.4364 30.1172 38.1819 30.3727 38.1819 30.7559V31.6502C38.1819 32.0334 38.4364 32.2889 38.8182 32.2889Z" fill="white"/>
<path d="M38.8182 35.8661C39.2001 35.8661 39.4546 35.6106 39.4546 35.2273V34.3331C39.4546 33.9498 39.2001 33.6943 38.8182 33.6943C38.4364 33.6943 38.1819 33.9498 38.1819 34.3331V35.2273C38.1819 35.5467 38.4364 35.8661 38.8182 35.8661Z" fill="white"/>
<path d="M38.8182 39.4427C39.2001 39.4427 39.4546 39.1872 39.4546 38.804V37.9097C39.4546 37.5265 39.2001 37.271 38.8182 37.271C38.4364 37.271 38.1819 37.5265 38.1819 37.9097V38.804C38.1819 39.1234 38.4364 39.4427 38.8182 39.4427Z" fill="white"/>
<path d="M16.9909 11.5293C16.609 11.5293 16.3545 11.7848 16.3545 12.168V12.8707C16.3545 13.2539 16.609 13.5094 16.9909 13.5094C17.3727 13.5094 17.6272 13.2539 17.6272 12.8707V12.168C17.6272 11.7848 17.3727 11.5293 16.9909 11.5293Z" fill="white"/>
<path d="M19.6 13.4455C19.9818 13.4455 20.2364 13.19 20.2364 12.8067V12.1041C20.2364 11.7208 19.9818 11.4653 19.6 11.4653C19.2182 11.4653 18.9636 11.7208 18.9636 12.1041V12.8067C18.9636 13.19 19.2182 13.4455 19.6 13.4455Z" fill="white"/>
<path d="M22.1456 13.4455C22.5275 13.4455 22.782 13.19 22.782 12.8067V12.1041C22.782 11.7208 22.5275 11.4653 22.1456 11.4653C21.7638 11.4653 21.5093 11.7208 21.5093 12.1041V12.8067C21.5093 13.19 21.8275 13.4455 22.1456 13.4455Z" fill="white"/>
<path d="M16.9909 14.2759C16.609 14.2759 16.3545 14.5314 16.3545 14.9146V15.6173C16.3545 16.0005 16.609 16.256 16.9909 16.256C17.3727 16.256 17.6272 16.0005 17.6272 15.6173V14.9146C17.6272 14.5953 17.3727 14.2759 16.9909 14.2759Z" fill="white"/>
<path d="M19.6 16.256C19.9818 16.256 20.2364 16.0005 20.2364 15.6173V14.9146C20.2364 14.5314 19.9818 14.2759 19.6 14.2759C19.2182 14.2759 18.9636 14.5314 18.9636 14.9146V15.6173C18.9636 15.9366 19.2182 16.256 19.6 16.256Z" fill="white"/>
<path d="M22.1456 16.256C22.5275 16.256 22.782 16.0005 22.782 15.6173V14.9146C22.782 14.5314 22.5275 14.2759 22.1456 14.2759C21.7638 14.2759 21.5093 14.5314 21.5093 14.9146V15.6173C21.5093 15.9366 21.8275 16.256 22.1456 16.256Z" fill="white"/>
<path d="M16.9909 17.0864C16.609 17.0864 16.3545 17.3419 16.3545 17.7252V18.4278C16.3545 18.8111 16.609 19.0666 16.9909 19.0666C17.3727 19.0666 17.6272 18.8111 17.6272 18.4278V17.7252C17.6272 17.3419 17.3727 17.0864 16.9909 17.0864Z" fill="white"/>
<path d="M20.2364 18.3643V17.6617C20.2364 17.2784 19.9818 17.0229 19.6 17.0229C19.2182 17.0229 18.9636 17.2784 18.9636 17.6617V18.3643C18.9636 18.7476 19.2182 19.0031 19.6 19.0031C19.9818 19.0031 20.2364 18.7476 20.2364 18.3643Z" fill="white"/>
<path d="M22.1456 19.0031C22.5275 19.0031 22.782 18.7476 22.782 18.3643V17.6617C22.782 17.2784 22.5275 17.0229 22.1456 17.0229C21.7638 17.0229 21.5093 17.2784 21.5093 17.6617V18.3643C21.5093 18.7476 21.8275 19.0031 22.1456 19.0031Z" fill="white"/>
<path d="M22.1456 22.133C22.5275 22.133 22.782 21.8775 22.782 21.4942V20.7916C22.782 20.4083 22.5275 20.1528 22.1456 20.1528C21.7638 20.1528 21.5093 20.4083 21.5093 20.7916V21.4942C21.5093 21.8136 21.8275 22.133 22.1456 22.133Z" fill="white"/>
<path d="M22.1456 24.8791C22.5275 24.8791 22.782 24.6236 22.782 24.2403V23.5377C22.782 23.1544 22.5275 22.8989 22.1456 22.8989C21.7638 22.8989 21.5093 23.1544 21.5093 23.5377V24.2403C21.5093 24.6236 21.8275 24.8791 22.1456 24.8791Z" fill="white"/>
<path d="M22.1456 27.6896C22.5275 27.6896 22.782 27.4341 22.782 27.0508V26.3482C22.782 25.965 22.5275 25.7095 22.1456 25.7095C21.7638 25.7095 21.5093 25.965 21.5093 26.3482V27.0508C21.5093 27.3702 21.8275 27.6896 22.1456 27.6896Z" fill="white"/>
<path d="M22.1456 30.4362C22.5275 30.4362 22.782 30.1807 22.782 29.7974V29.0948C22.782 28.7116 22.5275 28.4561 22.1456 28.4561C21.7638 28.4561 21.5093 28.7116 21.5093 29.0948V29.7974C21.5093 30.1807 21.8275 30.4362 22.1456 30.4362Z" fill="white"/>
<path d="M22.1456 33.2472C22.5275 33.2472 22.782 32.9917 22.782 32.6085V31.9058C22.782 31.5226 22.5275 31.2671 22.1456 31.2671C21.7638 31.2671 21.5093 31.5226 21.5093 31.9058V32.6085C21.5093 32.9278 21.8275 33.2472 22.1456 33.2472Z" fill="white"/>
<path d="M22.1456 35.9938C22.5275 35.9938 22.782 35.7383 22.782 35.355V34.6524C22.782 34.2692 22.5275 34.0137 22.1456 34.0137C21.7638 34.0137 21.5093 34.2692 21.5093 34.6524V35.355C21.5093 35.7383 21.8275 35.9938 22.1456 35.9938Z" fill="white"/>
<path d="M22.1456 38.8043C22.5275 38.8043 22.782 38.5488 22.782 38.1656V37.463C22.782 37.0797 22.5275 36.8242 22.1456 36.8242C21.7638 36.8242 21.5093 37.0797 21.5093 37.463V38.1656C21.5093 38.485 21.8275 38.8043 22.1456 38.8043Z" fill="white"/>
<path d="M27.7455 34.6525H33.2182C33.6 34.6525 33.8546 34.397 33.8546 34.0138C33.8546 33.6305 33.6 33.375 33.2182 33.375H27.7455C27.3637 33.375 27.1091 33.6305 27.1091 34.0138C27.1091 34.397 27.3637 34.6525 27.7455 34.6525Z" fill="white"/>
<path d="M27.7455 31.778H33.2182C33.6 31.778 33.8546 31.5225 33.8546 31.1392C33.8546 30.756 33.6 30.5005 33.2182 30.5005H27.7455C27.3637 30.5005 27.1091 30.756 27.1091 31.1392C27.1091 31.5225 27.3637 31.778 27.7455 31.778Z" fill="white"/>
<path d="M27.7455 28.9035H33.2182C33.6 28.9035 33.8546 28.648 33.8546 28.2647C33.8546 27.8815 33.6 27.626 33.2182 27.626H27.7455C27.3637 27.626 27.1091 27.8815 27.1091 28.2647C27.1091 28.648 27.3637 28.9035 27.7455 28.9035Z" fill="white"/>
<path d="M27.7455 26.0929H33.2182C33.6 26.0929 33.8546 25.8374 33.8546 25.4542C33.8546 25.0709 33.6 24.8154 33.2182 24.8154H27.7455C27.3637 24.8154 27.1091 25.0709 27.1091 25.4542C27.1091 25.8374 27.3637 26.0929 27.7455 26.0929Z" fill="white"/>
<path d="M27.7455 23.2184H33.2182C33.6 23.2184 33.8546 22.9629 33.8546 22.5797C33.8546 22.1964 33.6 21.9409 33.2182 21.9409H27.7455C27.3637 21.9409 27.1091 22.1964 27.1091 22.5797C27.1091 22.9629 27.3637 23.2184 27.7455 23.2184Z" fill="white"/>
<path d="M27.7455 20.3444H33.2182C33.6 20.3444 33.8546 20.0889 33.8546 19.7056C33.8546 19.3224 33.6 19.0669 33.2182 19.0669H27.7455C27.3637 19.0669 27.1091 19.3224 27.1091 19.7056C27.1091 20.0889 27.3637 20.3444 27.7455 20.3444Z" fill="white"/>
</g>
<path d="M7.76229 68.0492H39.4835V79.504H41.2458V62.7623C41.2458 61.793 40.4527 61 39.4835 61H7.76229C6.79303 61 6 61.793 6 62.7623V87.4343C6 88.4036 6.79303 89.1966 7.76229 89.1966H27.1475V87.4343H7.76229V68.0492ZM39.4835 62.7623V66.2869H7.76229V62.7623H39.4835ZM9.52458 64.5246C9.52458 64.0399 9.92109 63.6434 10.4057 63.6434C10.8903 63.6434 11.2869 64.0399 11.2869 64.5246C11.2869 65.0092 10.8903 65.4057 10.4057 65.4057C9.92109 65.4057 9.52458 65.0092 9.52458 64.5246ZM38.5671 86.1478L41.2458 85.4782V83.3018L28.6895 78.4731L26.9977 80.1649L31.8263 92.7212H34.0028L34.6724 90.0425L37.7212 93.0825L41.607 89.1966L38.5671 86.1478ZM33.7208 86.5884L32.7868 90.3068L29.0595 80.5966L29.13 80.5261L38.8402 84.2534L35.1218 85.1874L39.1222 89.1966L37.7212 90.5976L33.7208 86.5884Z" fill="white"/>
<defs>
<clipPath id="clip0">
<rect width="49" height="45" fill="white"/>
</clipPath>
</defs>
</svg>
