<svg width="36" height="33" viewBox="0 0 36 33" fill="none" xmlns="http://www.w3.org/2000/svg">
<path d="M1.76229 7.04915H33.4835V18.504H35.2458V1.76229C35.2458 0.79303 34.4527 0 33.4835 0H1.76229C0.79303 0 0 0.79303 0 1.76229V26.4343C0 27.4036 0.79303 28.1966 1.76229 28.1966H21.1475V26.4343H1.76229V7.04915ZM33.4835 1.76229V5.28686H1.76229V1.76229H33.4835ZM3.52458 3.52458C3.52458 3.03995 3.92109 2.64343 4.40572 2.64343C4.89035 2.64343 5.28686 3.03995 5.28686 3.52458C5.28686 4.0092 4.89035 4.40572 4.40572 4.40572C3.92109 4.40572 3.52458 4.0092 3.52458 3.52458ZM32.5671 25.1478L35.2458 24.4782V22.3018L22.6895 17.4731L20.9977 19.1649L25.8263 31.7212H28.0028L28.6724 29.0425L31.7212 32.0825L35.607 28.1966L32.5671 25.1478ZM27.7208 25.5884L26.7868 29.3068L23.0595 19.5966L23.13 19.5261L32.8402 23.2534L29.1218 24.1874L33.1222 28.1966L31.7212 29.5976L27.7208 25.5884Z" fill="white"/>
</svg>
