<svg width="610" height="307" viewBox="0 0 610 307" fill="none" xmlns="http://www.w3.org/2000/svg">
<g clip-path="url(#clip0)">
<path d="M381.352 308.951C379.563 261.411 368.461 163.011 297.765 63.9356C279.089 37.7603 258.572 14.7893 237.147 -5.3645L2 -5.3616V308.951L381.349 308.587" fill="url(#paint0_linear)"/>
<path d="M1616.49 309.195V191.906L1609.33 197.985L1596.93 207.377L1577.44 214.559L1562.09 221.188L1543.19 226.714L1516.03 228.371L1489.46 226.161L1483.55 222.295L1457.57 227.821L1448.71 228.927L1425.68 225.611L1410.32 226.164L1398.52 226.717L1379.07 225.576L1337.87 213.991H1294.25L1276.08 218.801H1247L1205.43 216.388L1173.99 212.259H1147.03L1133.62 214.323L1113.34 216.388H1098.22L1079.35 214.323H1055.69L1042.08 219.075L1014.93 222.947L991.675 217.605L970.801 215.206L944.56 215.98L927.082 217.605H915.338H896.808H887.905H878.959H865.837L847.945 212.262H837.209H817.528L805.205 213.753L793.166 213.412L782.437 212.262L768.304 213.412L742.918 212.262L729.311 213.071L705.232 212.262H681.941L623.842 215.45L597.412 212.262H582.31L535.563 215.211L499.856 217.607L470.696 212.265L415.352 217.607L385.594 215.211L367.705 214.824H367.702C377.6 253.645 380.519 286.628 381.393 308.836L1616.49 309.195Z" fill="url(#paint1_linear)"/>
<path d="M500.907 223.815L512.573 225.617L530.456 224.586L546.14 222.788L554.395 225.617L565.202 221.499H571.177L590.161 215.839L594.838 214.037L607.22 215.324L615.198 217.125L629.5 219.441V216.502L616.543 214.666L600.442 210.26L580.418 205.854L566.677 203.651L552.543 198.509L548.224 193.737L541.942 191.164L543.905 181.252H500.907L496.977 186.165L482.707 190.614L480.329 198.399L469.924 203.433L456.546 218.97L441.681 220.917L423.546 221.196L417.304 223.975H428.603H456.546L474.383 223.699L489.546 221.473L500.907 223.815Z" fill="url(#paint2_linear)"/>
<path d="M500.908 242.856H530.734L546.414 240.539L565.202 241.57L586.12 242.856L596.765 241.57L606.67 240.539H615.75L625.654 238.997L631.43 235.394H638.033L649.039 231.536L662.522 232.563H668.298H677.652L664.172 229.734L647.938 225.617L640.787 222.273L629.5 219.441L615.199 217.125L607.22 215.324L594.839 214.037L590.162 215.839L571.177 221.499H565.202L554.395 225.617L546.14 222.788L530.457 224.586L512.574 225.617L500.908 223.815L490.004 218.848L481.409 214.037L464.908 218.848H448.409H436.719L426.752 226.976L410.938 233.084L395.812 238.549H420.217L444.625 236.299L458.034 235.979L478.316 238.549L494.473 245.623L500.908 242.856Z" fill="url(#paint3_linear)"/>
<path d="M373.482 240.909C378.74 268.255 380.604 291.509 381.273 308.475H381.304L500.907 308.836H503.303L893.656 308.475L899.042 307.32L906.772 303.816H920.358H924.341L931.604 300.749H939.1L944.02 298.779L953.156 296.808H962.758H971.191H979.391L974.471 295.057L964.398 292.647H954.796H947.769H938.166H930.67H921.771L924.347 289.143L933.247 286.734H944.25L949.17 285.858L945.656 283.448H948.466H955.259L958.772 281.915L962.285 282.354H968.845L975.638 283.448H982.901L994.144 282.354L1001.17 278.629L1007.26 276.001L1011.94 275.125L1008.43 274.031L1012.88 272.716L1026.7 272.276H1038.41L1054.81 272.058L1071.2 270.743L1081.74 270.525L1075.65 270.085L1066.75 268.552L1049.18 265.048H1043.33H1031.85L1028.34 262.638L1032.32 259.571L1038.41 258.477L1044.5 257.383L1049.18 255.631L1034.19 254.755L1022.25 254.973H1007.96L995.777 255.631L986.641 255.849L981.018 257.601L987.341 258.916H992.261L989.684 261.544L981.485 263.296L968.132 263.514L952.907 263.296L944.24 263.078L934.871 265.048L926.438 265.487L929.951 267.294L936.041 270.306L927.608 270.746L912.616 270.306L901.373 270.746L887.321 270.528L880.058 271.843L874.671 273.376L879.591 276.004L893.88 277.756L890.834 280.998H871.712H861.393H851.075H843.644L836.213 276.365H823.829H807.318H784.614H758.609L738.383 272.503H708.249H685.135H662.846L645.921 270.187L615.787 262.467H586.104H565.19L545.617 258.605L525.391 253.588H500.892H487.278H445.55H417.292L398.329 245.265L385.151 240.888H373.618" fill="url(#paint4_linear)"/>
<path d="M367.824 214.827H37.8419L37.649 308.951L381.321 308.951H381.352C380.522 286.866 377.687 253.818 367.824 214.827Z" fill="url(#paint5_linear)"/>
<path d="M376.863 241.432L0 241.406V308.925L389.104 308.951H389.153C388.156 292.09 385.315 268.829 377.098 241.406" fill="url(#paint6_linear)"/>
<path d="M347.226 259.207H308.224" stroke="white" stroke-width="3" stroke-miterlimit="10"/>
<path d="M289.942 259.207H250.696" stroke="white" stroke-width="3" stroke-miterlimit="10"/>
<path d="M233.877 259.207H195.119" stroke="white" stroke-width="3" stroke-miterlimit="10"/>
<path d="M178.3 259.207H139.542" stroke="white" stroke-width="3" stroke-miterlimit="10"/>
<path d="M120.041 259.207H80.5511" stroke="white" stroke-width="3" stroke-miterlimit="10"/>
<path d="M208.77 259.207H184.15" stroke="white" stroke-width="3" stroke-miterlimit="10"/>
<path d="M236.866 190.267L208.699 180.682L205.354 240.28L240.983 241.977L236.866 190.267Z" fill="#FBCBC1" stroke="#FBCBC1"/>
<path d="M160.469 147.602V162.08L158.931 242.945L180.713 243.897L178.273 144.373L160.469 147.602Z" fill="#F0B5AE"/>
<path d="M159.877 242.733L161.108 147.283L156.784 153.419L154.263 242.733H159.877Z" fill="#975B5E"/>
<path d="M172.162 116.058V142.423V240.475L225.569 243.28L216.417 110.523L172.162 116.058Z" fill="#975B5E"/>
<path d="M265.175 162.36C251.673 168.317 224.43 180.266 223.481 180.423L236.659 238.781H275.773L265.175 162.36Z" fill="#975B5E"/>
<path d="M257.853 238.781C248.278 191.941 228.889 98.0035 227.943 96.9617H289.157L350.614 238.781H257.853Z" fill="#EE8582"/>
<path d="M172.934 243.897L172.18 115.854L168.272 120.82L166.71 243.897H172.934Z" fill="#975B5E"/>
<path d="M267.543 97.4827L325.253 238.781M248.023 97.4827L289.397 238.781M281.978 97.4827L339.567 238.781M239.933 97.4827L276.06 238.781M256.947 97.4827L304.89 238.781" stroke="white" stroke-width="3"/>
<path d="M172.858 128.911V115.979L217.275 110.523L218.04 124.689L172.858 128.911Z" fill="#F0B5AE"/>
<path d="M172.858 142.603V130.148L218.237 125.78L219.152 140.124L172.858 142.603Z" fill="#F0B5AE"/>
<path d="M172.858 174.422V161.967L220.425 157.599L221.386 171.943L172.858 174.422Z" fill="#F0B5AE"/>
<path d="M172.858 206.765V194.309L222.201 189.941L223.196 204.285L172.858 206.765Z" fill="#F0B5AE"/>
<path d="M172.858 243.801V226.405L224.529 222.022L225.572 241.316L172.858 243.801Z" fill="#F0B5AE"/>
<path d="M172.858 159.295V144.873L219.062 141.82L220.132 155.658L172.858 159.295Z" fill="#F0B5AE"/>
<path d="M172.858 191.245V176.715L221.38 173.639L222.503 187.581L172.858 191.245Z" fill="#F0B5AE"/>
<path d="M172.858 223.588V209.058L223.151 205.982L224.315 219.924L172.858 223.588Z" fill="#F0B5AE"/>
<path d="M282.155 223.279L284.576 231.727L294.836 233.683L285.787 235.95L287.358 241.441L299.348 238.438L287.903 243.344L290.514 246.537L303.343 242.227L292.43 248.998L296.613 250.893L309.626 244.689L299.494 253.337L306.511 254.976C321.161 254.472 324.817 247.837 325.844 246.283L282.155 223.279Z" fill="#C3C05A"/>
<path d="M335.107 206.939L329.251 212.416L332.189 220.643L326.323 215.154L322.518 218.713L330.291 225.983L321.199 219.944L319.736 223.233L328.949 230.528L318.566 225.7L318.862 229.539L329.712 236.127L318.131 232.693L319.895 238.449C326.79 248.734 333.853 248.419 335.583 248.469L335.107 206.939Z" fill="#3A6933"/>
<path d="M282.162 223.279L291.189 220.954L298.856 225.564L295.701 219.793L301.566 218.283L302.929 228.954L303.598 217.762L307.871 218.251L309.778 230.866L311.116 218.55L314.981 220.96L317.231 234.888L318.699 222.045L323.762 226.873C330.71 238.933 326.435 245.239 325.52 246.854L282.162 223.279Z" fill="#A3A43F"/>
<path d="M335.111 206.942L341.014 212.387L340.631 219.93L343.967 215.111L347.804 218.649L339.657 224.35L349.136 219.875L350.626 223.154L341.126 230.106L351.818 225.613L351.554 229.454L341.126 237.236L352.31 232.6L350.592 238.371C343.78 248.696 336.714 248.419 334.983 248.478L335.111 206.942Z" fill="#034326"/>
<path d="M511.018 258.736L510.058 257.534L510.953 254.889L513.023 252.641L512.985 251.378L515.637 249.437L518 249.819L520.297 252.006L523.186 252.264L525.069 251.383L527.194 252.496L531.209 251.404L537.916 248.721L542.13 251.499L546.135 250.821L545.269 254.24L541.61 255.042L536.9 258.605L532.2 259.938L524.96 259.112L519.898 259.828L516.121 258.168L511.018 258.736Z" fill="url(#paint7_linear)"/>
<path d="M450.068 261.032L447.817 262.864L444.974 261.713L446.821 259.716L445.729 256.93L447.923 254.228L450.565 253.353L456.015 250.124L456.57 249.602L460.073 248.625L463.741 246.668L466.862 246.039L467.639 246.752L469.32 247.433L469.567 248.083L471.405 248.776L472.519 251.124L469.398 251.257L466.136 251.93L463.995 251.762L462.852 252.196L460.432 253.808L459.165 253.994L459.318 256.2L458.057 257.438L456.472 260.136L450.068 261.032Z" fill="url(#paint8_linear)"/>
<path d="M496.449 264.947L495.873 261.505L491.866 259.974H489.737L487.938 263.646L487.612 267.627L482.21 267.933L476.973 271.76L473.292 271.3L470.51 272.676L469.119 277.193V281.631L472.146 285.457L474.029 289.36L480.819 289.971L486.467 293.643L493.092 292.878L499.147 291.272L505.121 291.502L510.274 288.44L516.128 286.389L521.987 283.819L527.115 282.963L528.195 281.782L525.634 280.391L522.964 280.857L515.452 282.847L508.868 282.314L501.705 282.847L498.655 279.588L494.635 277.868L491.732 272.345L492.214 268.902L490.957 265.552V261.659L493.378 261.996L496.449 264.947Z" fill="url(#paint9_linear)"/>
<path d="M490.957 265.553L493.68 264.167L494.371 262.951L496.449 264.947L497.103 271.224L505.694 276.657L512.73 276.122L516.128 275.202L520.176 275.738L524.676 277.423H526.723L527.296 279.87L528.195 281.782L525.634 280.391L522.591 279.748L519.395 279.18L516.125 277.615H513.234L511.18 279.18L509.96 282.405L508.868 282.315L501.705 282.847L498.655 279.588L494.635 277.868L491.732 272.345L492.214 268.902L490.957 265.553Z" fill="url(#paint10_linear)"/>
<path d="M589.702 272.291L588.572 272.279L585.327 273.231L584.944 272.259L587.362 271.333L588.457 271.097L589.602 271.199L589.702 272.291Z" fill="url(#paint11_linear)"/>
<path d="M588.576 272.279L589.702 272.291L589.603 271.199L588.462 271.097L588.576 272.279Z" fill="url(#paint12_linear)"/>
<path d="M436.008 258.458L435.338 257.834L434.047 255.457L433.2 255.813L434.024 257.71L434.514 258.458L435.249 259.043L436.008 258.458Z" fill="url(#paint13_linear)"/>
<path d="M435.338 257.834L436.008 258.458L435.25 259.043L434.515 258.458L435.338 257.834Z" fill="url(#paint14_linear)"/>
<path d="M439.339 254.258L439.029 255.094L437.306 257.217L438.015 257.775L439.482 256.254L439.99 255.516L440.23 254.643L439.339 254.258Z" fill="url(#paint15_linear)"/>
<path d="M439.031 255.094L439.341 254.258L440.23 254.643L439.991 255.516L439.031 255.094Z" fill="url(#paint16_linear)"/>
<path d="M428.49 257.554L428.284 258.417L426.83 260.708L427.601 261.188L428.873 259.523L429.29 258.734L429.423 257.841L428.49 257.554Z" fill="url(#paint17_linear)"/>
<path d="M428.287 258.417L428.492 257.554L429.423 257.841L429.291 258.734L428.287 258.417Z" fill="url(#paint18_linear)"/>
<path d="M436.373 260.603L436.164 261.466L434.71 263.758L435.484 264.238L436.756 262.57L437.17 261.783L437.306 260.888L436.373 260.603Z" fill="url(#paint19_linear)"/>
<path d="M436.168 261.466L436.376 260.603L437.306 260.888L437.171 261.783L436.168 261.466Z" fill="url(#paint20_linear)"/>
<path d="M381.657 251.708L382.08 250.087L381.825 249.705L381.116 249.38L372.163 246.51L372.017 246.781L380.817 249.601L381.315 249.848L381.439 250.095L381.004 251.574L381.657 251.708Z" fill="url(#paint21_linear)"/>
<path d="M381.4 250.005L382.05 250.037" stroke="#077E99" stroke-width="0.25" stroke-miterlimit="10"/>
<path d="M381.361 249.93L381.949 249.886" stroke="#077E99" stroke-width="0.25" stroke-miterlimit="10"/>
<path d="M381.299 249.834L381.83 249.706" stroke="#077E99" stroke-width="0.25" stroke-miterlimit="10"/>
<path d="M381.13 249.752L381.495 249.551" stroke="#077E99" stroke-width="0.25" stroke-miterlimit="10"/>
<path d="M380.952 249.665L381.19 249.415" stroke="#077E99" stroke-width="0.25" stroke-miterlimit="10"/>
<path d="M395.48 258.488L391.923 257.257L391.369 256.902L391.298 256.518L392.81 252.621L393.461 252.813L391.976 256.64L392.063 256.928L392.459 257.149L395.741 258.264L395.48 258.488Z" fill="url(#paint22_linear)"/>
<path d="M392.315 257.071L391.856 257.21" stroke="#077E99" stroke-width="0.25" stroke-miterlimit="10"/>
<path d="M392.197 257.004L391.638 257.071" stroke="#077E99" stroke-width="0.25" stroke-miterlimit="10"/>
<path d="M392.06 256.914L391.373 256.902" stroke="#077E99" stroke-width="0.25" stroke-miterlimit="10"/>
<path d="M392.029 256.818L391.338 256.722" stroke="#077E99" stroke-width="0.25" stroke-miterlimit="10"/>
<path d="M391.997 256.716L391.308 256.556" stroke="#077E99" stroke-width="0.25" stroke-miterlimit="10"/>
<path opacity="0.6" d="M381.246 308.834C379.456 261.312 368.355 162.948 297.662 63.9098C278.986 37.7443 258.47 14.7818 237.046 -5.3645L1498.02 -5.36159V309.195L381.246 308.834Z" fill="url(#paint23_linear)"/>
<g opacity="0.9">
<g opacity="0.9">
<path opacity="0.9" d="M285.578 44.2134C285.936 44.3993 286.891 45.439 288.167 46.9086C288.802 47.6463 289.52 48.4885 290.267 49.3975C291.005 50.3153 291.786 51.2853 292.57 52.2612C294.145 54.2128 295.663 56.2371 296.92 57.8606C297.552 58.6709 298.09 59.3969 298.523 59.9778C298.955 60.5557 299.282 60.9856 299.469 61.2121C300.284 62.2489 301.323 63.6517 302.518 65.3158C303.113 66.1493 303.75 67.0468 304.423 67.9907C305.076 68.9462 305.742 69.9656 306.439 71.0169C307.827 73.1225 309.296 75.3791 310.786 77.6793C312.211 80.0143 313.661 82.39 315.068 84.6931C315.42 85.271 315.765 85.8432 316.11 86.4095C316.456 86.9758 316.795 87.5364 317.109 88.0998C317.75 89.2208 318.376 90.3099 318.976 91.3526C320.174 93.4378 321.267 95.3459 322.191 96.9607C323.081 98.5929 323.815 99.9289 324.335 100.855C324.854 101.782 325.163 102.296 325.2 102.29C325.284 102.032 326.837 103.574 328.623 105.598C330.356 107.645 332.301 110.187 333.25 111.836C333.829 112.847 334.414 113.852 334.961 114.871C335.5 115.894 336.032 116.913 336.548 117.932C337.585 119.968 338.587 121.99 339.526 123.979C340.429 125.986 341.281 127.958 342.081 129.875C342.483 130.833 342.868 131.777 343.239 132.704C343.615 133.63 343.936 134.556 344.266 135.451C345.582 138.994 345.625 139.563 346.391 141.082C346.534 141.396 346.649 142.049 346.904 143.214C347.156 144.382 347.57 146.052 348.364 148.381C348.644 149.179 348.967 150.033 349.313 150.907C349.487 151.346 349.664 151.787 349.842 152.235C350.013 152.682 350.184 153.135 350.355 153.582C351.04 155.374 351.703 157.134 352.145 158.607C352.375 159.318 352.689 160.216 353.053 161.264C353.405 162.312 353.806 163.509 354.242 164.804C354.687 166.097 355.163 167.488 355.658 168.931C355.782 169.291 355.91 169.654 356.034 170.02C356.152 170.389 356.274 170.761 356.395 171.133C356.638 171.879 356.884 172.631 357.126 173.384C357.618 174.891 358.113 176.401 358.592 177.871C358.838 178.603 359.059 179.331 359.274 180.043C359.491 180.755 359.703 181.449 359.908 182.12C360.316 183.464 360.699 184.716 361.038 185.831C361.206 186.389 361.365 186.912 361.511 187.394C361.645 187.879 361.769 188.323 361.878 188.724C362.298 190.24 362.69 191.663 363.064 193.008C363.431 194.355 363.814 195.616 364.122 196.836C364.763 199.266 365.36 201.462 365.951 203.57C366.527 205.682 367.062 207.715 367.66 209.803C367.949 210.849 368.273 211.903 368.565 213.001C368.867 214.096 369.181 215.228 369.508 216.41C371.584 223.502 372.701 229.488 374.325 236.842C374.717 238.779 375.081 240.577 375.43 242.305C375.766 244.036 376.049 245.703 376.351 247.367C376.5 248.2 376.65 249.031 376.799 249.873C376.939 250.715 377.079 251.566 377.222 252.435C377.512 254.172 377.81 255.981 378.134 257.927C378.448 259.762 378.753 261.56 379.058 263.346C379.348 265.135 379.6 266.918 379.867 268.719C380.141 270.517 380.353 272.338 380.589 274.202C380.701 275.135 380.823 276.076 380.928 277.034C381.028 277.992 381.131 278.965 381.233 279.956C381.317 281.016 381.401 282.076 381.404 282.84C381.401 283.609 381.616 285.642 381.685 286.702C382.375 293.115 383.184 298.918 383.405 305.223C383.464 306.968 383.402 309.553 383.206 309.033C382.226 306.425 381.383 301.54 380.409 295.932C379.516 290.62 378.931 283.772 378.006 276.735C377.67 274.301 377.319 272.053 376.914 269.979C376.497 267.906 376.065 266.006 375.626 264.264C374.683 260.787 373.774 257.933 372.853 255.6C372.184 253.989 371.45 252.586 370.697 250.57C370.311 249.565 369.925 248.407 369.546 246.989C369.166 245.575 368.808 243.902 368.41 241.875C367.554 237.115 366.767 232.567 365.871 228.007C365.401 225.733 364.921 223.45 364.377 221.141C363.801 218.841 363.179 216.509 362.479 214.128C361.968 212.472 361.452 210.907 360.966 209.373C360.469 207.846 360.017 206.344 359.51 204.857C359.015 203.364 358.517 201.869 358.007 200.326C357.758 199.554 357.503 198.77 357.245 197.968C356.977 197.169 356.703 196.353 356.42 195.514C356.075 194.593 354.752 190.829 354.329 189.546C353.722 187.649 353.059 185.68 352.397 183.708C352.064 182.724 351.731 181.736 351.401 180.757C351.055 179.785 350.716 178.817 350.38 177.871C349.717 175.974 349.101 174.144 348.578 172.448C348.021 170.764 347.561 169.216 347.247 167.865C346.876 166.826 346.531 165.85 346.201 164.926C346.033 164.465 345.868 164.017 345.709 163.579C345.538 163.146 345.37 162.722 345.208 162.31C344.549 160.66 343.948 159.161 343.369 157.715C342.243 154.811 341.113 152.15 339.968 148.822C339.607 147.765 339.246 146.708 338.882 145.645C338.496 144.591 338.107 143.534 337.718 142.468C336.931 140.342 336.147 138.181 335.288 135.994C333.508 131.649 331.641 127.113 329.261 122.385C328.595 121.037 327.941 119.713 327.297 118.406C326.631 117.108 325.94 115.841 325.259 114.578C324.568 113.32 323.88 112.069 323.193 110.814C322.844 110.19 322.493 109.562 322.141 108.935C321.771 108.316 321.4 107.695 321.03 107.073C320.504 106.188 319.172 104.236 317.809 102.284C317.122 101.311 316.45 100.327 315.827 99.4903C315.202 98.6597 314.673 97.954 314.337 97.5067C313.083 95.8455 311.717 93.6586 310.431 91.4281C309.118 89.2121 307.839 86.9758 306.865 85.1549C306.115 83.7143 305.372 82.2564 304.563 80.8014C303.741 79.355 302.892 77.8913 302.011 76.3927C301.13 74.8941 300.212 73.3635 299.254 71.7807C298.268 70.2153 297.216 68.6151 296.124 66.9451C295.318 65.7747 294.493 64.6827 293.643 63.5646C293.217 63.004 292.788 62.4377 292.343 61.8539C291.891 61.2731 291.431 60.6719 290.961 60.0388C286.611 53.9834 283.714 49.4295 279.787 44.1728C279.317 43.5687 278.866 42.9849 278.43 42.4215C277.988 41.8639 277.562 41.3266 277.151 40.8067C276.333 39.7699 275.573 38.8086 274.876 37.9228C273.464 36.1599 272.284 34.6874 271.295 33.4589C269.306 31.0077 268.108 29.5091 267.386 28.5711C265.921 26.7123 266.366 27.1015 266.011 26.7414C264.368 24.8797 263.382 24.3802 261.225 22.141C260.506 21.3743 259.809 20.5988 259.134 19.835C258.453 19.0799 257.799 18.3306 257.183 17.6133C256.567 16.893 255.991 16.2018 255.462 15.557C254.93 14.9152 254.442 14.3227 254.018 13.7883C248.937 7.50642 242.433 -0.00401621 234.585 -6.79419C235.108 -6.43116 235.37 -6.35274 235.892 -5.87935C241.35 -1.08731 246.258 3.24586 251.109 7.79684C255.957 12.3507 260.755 17.1224 265.862 22.8729C266.798 24.0201 267.968 25.4838 269.145 26.8343C271.239 29.2507 273.109 31.4492 274.92 33.6826C276.535 35.582 278.888 38.0448 281.007 40.1097C283.113 42.1979 284.965 43.8853 285.578 44.2134Z" fill="#C7C8CA"/>
<path opacity="0.9" d="M378.003 276.549C378.93 283.589 379.518 290.431 380.414 295.743C381.391 301.357 382.232 306.233 383.215 308.841C383.411 309.37 383.47 306.777 383.411 305.031C383.19 298.732 382.378 292.929 381.684 286.516C381.612 285.456 381.404 283.418 381.404 282.657C381.398 281.896 381.314 280.836 381.23 279.776C380.405 271.841 379.437 265.071 378.124 257.747C377.801 255.798 377.499 253.992 377.209 252.252C377.063 251.383 376.932 250.53 376.783 249.69C376.634 248.848 376.484 248.017 376.335 247.184C376.033 245.52 375.753 243.853 375.411 242.122C375.062 240.394 374.698 238.596 374.306 236.659C372.672 229.311 371.558 223.322 369.477 216.227C369.15 215.045 368.836 213.913 368.534 212.818C368.235 211.72 367.915 210.666 367.625 209.62C367.028 207.532 366.499 205.499 365.914 203.388C365.319 201.279 364.725 199.083 364.084 196.653C363.412 194.228 362.678 191.573 361.837 188.541C361.626 187.742 361.333 186.764 360.994 185.651C360.655 184.536 360.275 183.284 359.864 181.94C359.659 181.269 359.447 180.575 359.23 179.863C359.121 179.509 359.012 179.149 358.9 178.786C358.782 178.425 358.663 178.059 358.542 177.694C358.063 176.224 357.568 174.714 357.076 173.206C356.121 170.183 355.06 167.215 354.186 164.624C353.75 163.329 353.348 162.132 352.994 161.081C352.623 160.036 352.315 159.135 352.082 158.424C351.64 156.951 350.974 155.191 350.293 153.399C350.122 152.952 349.95 152.502 349.779 152.052C349.602 151.607 349.425 151.163 349.25 150.727C348.905 149.853 348.581 149.002 348.301 148.204C348.301 148.204 347.99 147.661 347.333 146.522C346.674 145.386 345.734 143.629 344.337 141.26C345.277 143.566 346.104 145.915 346.979 148.244L348.273 151.741C348.715 152.903 349.095 154.085 349.509 155.255C350.315 157.605 351.145 159.943 351.926 162.295L354.207 169.37C357.154 178.826 359.799 188.346 362.127 197.919C365.929 210.791 369.184 223.805 371.832 236.926C372.47 240.211 373.136 243.49 373.699 246.786L374.138 249.255L374.359 250.489L374.558 251.726L375.358 256.678C376.372 263.285 377.272 269.907 378.003 276.549Z" fill="#7D7E81"/>
<path opacity="0.9" d="M347.491 148.18C347.491 148.18 346.906 146.609 346.041 144.292C345.618 143.13 345.057 141.805 344.482 140.391C343.9 138.98 343.277 137.487 342.652 136.017C342.338 135.282 342.027 134.554 341.712 133.845C341.383 133.142 341.059 132.46 340.751 131.803C340.125 130.496 339.537 129.317 339.027 128.365C338.003 126.462 337.287 125.481 337.197 126.239C337.197 126.239 337.549 127.546 338.177 129.715C338.8 131.884 339.733 134.899 340.729 138.384C341.242 140.121 341.799 141.962 342.4 143.853C342.979 145.752 343.561 147.713 344.192 149.664C345.487 153.556 346.741 157.491 348.138 160.965C348.138 160.965 348.387 161.592 348.795 162.612C349.18 163.64 349.713 165.069 350.307 166.66C350.898 168.252 351.561 170.006 352.171 171.699C352.756 173.401 353.319 175.03 353.773 176.358C353.773 176.358 354.019 176.941 354.458 177.981C354.673 178.504 354.934 179.14 355.233 179.875C355.51 180.618 355.827 181.46 356.172 182.387C356.851 184.246 357.65 186.441 358.447 188.869C359.216 191.306 360.009 193.966 360.762 196.722C360.762 196.722 361.506 199.487 362.639 203.681C363.74 207.88 365.162 213.526 366.488 219.291C366.839 220.729 367.147 222.181 367.462 223.616C367.779 225.05 368.09 226.471 368.395 227.856C368.974 230.63 369.525 233.261 370.007 235.578C370.48 237.899 370.869 239.909 371.202 241.433C371.535 242.955 371.784 243.998 371.921 244.384C371.921 244.384 372.148 245.526 372.503 247.312C372.683 248.203 372.895 249.257 373.128 250.41C373.346 251.566 373.582 252.818 373.825 254.111C374.071 255.4 374.323 256.727 374.569 258.028C374.805 259.332 375.039 260.607 375.253 261.795C375.708 264.171 376.069 266.195 376.333 267.357C376.333 267.357 376.464 267.792 376.679 268.574C376.887 269.358 377.198 270.485 377.494 271.882C377.799 273.276 378.129 274.931 378.44 276.761C378.729 278.593 378.981 280.597 379.168 282.688C379.168 282.688 380.07 288.982 380.743 293.678C381.396 298.377 381.944 301.479 381.62 295.008C381.62 295.008 381.604 294.541 381.576 293.777C381.542 293.013 381.496 291.956 381.443 290.777C381.352 288.419 381.153 285.578 381.023 283.65C381.023 283.65 380.942 282.796 380.767 281.3C380.683 280.551 380.578 279.642 380.459 278.599C380.344 277.554 380.207 276.375 380.033 275.088C379.408 269.936 378.399 263.056 377.226 256.103C376.918 254.366 376.61 252.624 376.305 250.901C375.994 249.179 375.649 247.483 375.331 245.83C375.169 245.006 375.011 244.19 374.855 243.388C374.696 242.589 374.522 241.805 374.36 241.038C374.031 239.508 373.719 238.047 373.424 236.682C372.185 231.237 371.23 227.336 370.944 226.601C370.944 226.601 370.71 225.692 370.293 224.06C370.088 223.244 369.836 222.248 369.543 221.092C369.257 219.936 368.887 218.632 368.507 217.191C368.125 215.751 367.708 214.174 367.259 212.489C366.786 210.811 366.285 209.019 365.756 207.143C365.495 206.205 365.228 205.243 364.954 204.265C364.664 203.289 364.372 202.295 364.073 201.285C363.777 200.274 363.476 199.246 363.174 198.206C362.872 197.167 362.573 196.109 362.237 195.055C359.701 186.56 356.717 177.49 354.032 169.216C353.338 167.154 352.678 165.138 352.056 163.19C351.9 162.702 351.748 162.22 351.598 161.74C351.44 161.264 351.284 160.794 351.128 160.329C350.827 159.397 350.531 158.485 350.242 157.596C349.675 155.816 349.162 154.125 348.714 152.543C348.247 150.971 347.83 149.51 347.491 148.18Z" fill="#939598"/>
<path opacity="0.9" d="M347.554 147.19C347.554 147.19 347.23 146.15 346.667 144.457C346.524 144.033 346.368 143.571 346.2 143.072C346.02 142.578 345.824 142.05 345.618 141.492C345.202 140.377 344.732 139.148 344.221 137.856C343.711 136.563 343.16 135.204 342.578 133.831C341.975 132.466 341.327 131.092 340.671 129.747C339.345 127.064 337.995 124.49 336.567 122.495C336.567 122.495 335.664 120.97 334.376 118.792C333.722 117.709 332.991 116.454 332.182 115.171C331.364 113.89 330.505 112.563 329.674 111.296C326.385 106.208 323.277 102.223 324.92 106.048C324.92 106.048 325.119 106.516 325.489 107.387C325.847 108.264 326.37 109.545 327.035 111.166C327.711 112.777 328.526 114.729 329.459 116.954C330.349 119.196 331.358 121.705 332.465 124.412C332.742 125.089 333.029 125.777 333.315 126.48C333.589 127.186 333.869 127.906 334.152 128.638C334.724 130.096 335.319 131.594 335.922 133.133C336.231 133.9 336.538 134.676 336.853 135.46C337.17 136.241 337.457 137.046 337.768 137.847C338.387 139.45 339.015 141.082 339.653 142.735C339.977 143.56 340.304 144.388 340.63 145.221C340.945 146.057 341.259 146.9 341.576 147.745C342.214 149.432 342.862 151.128 343.524 152.824L344.022 154.096L344.498 155.377C344.819 156.231 345.139 157.082 345.46 157.936C346.107 159.638 346.764 161.331 347.43 163.007C347.43 163.007 348.54 165.914 350.003 171.484C350.003 171.484 350.078 171.714 350.214 172.126C350.348 172.541 350.538 173.14 350.775 173.877C351.251 175.353 351.92 177.383 352.682 179.608C353.074 180.714 353.438 181.887 353.836 183.055C354.232 184.222 354.636 185.396 355.047 186.523C355.881 188.773 356.646 190.876 357.353 192.439C357.353 192.439 357.776 193.568 358.457 195.386C359.158 197.202 360.004 199.737 360.959 202.519C362.857 208.087 364.833 214.738 365.742 218.867C365.742 218.867 365.885 219.28 366.125 219.968C366.364 220.656 366.672 221.629 366.999 222.75C367.326 223.871 367.68 225.138 368.001 226.419C368.321 227.699 368.611 228.995 368.776 230.174C368.776 230.174 368.742 229.994 368.679 229.654C368.614 229.314 368.53 228.815 368.396 228.179C368.135 226.906 367.761 225.085 367.31 222.881C366.389 218.475 365.039 212.559 363.486 206.498C363.119 204.979 362.689 203.46 362.279 201.95C361.862 200.44 361.451 198.938 361.046 197.469C360.203 194.538 359.338 191.744 358.569 189.238C357.779 186.735 357.004 184.542 356.388 182.796C355.763 181.054 355.274 179.764 354.926 179.111C354.926 179.111 354.422 177.88 353.594 175.698C352.785 173.512 351.624 170.384 350.227 166.614C348.898 162.824 347.233 158.424 345.64 153.611C344.788 151.224 343.938 148.738 343.117 146.182C342.911 145.543 342.709 144.902 342.504 144.254C342.292 143.612 342.077 142.967 341.863 142.32C341.439 141.024 341.026 139.715 340.624 138.396C340.624 138.396 340.453 136.697 341.243 136.938C341.639 137.06 342.273 137.664 343.291 139.218C343.801 139.993 344.405 141.007 345.124 142.314C345.491 142.964 345.864 143.696 346.26 144.512C346.664 145.308 347.093 146.206 347.554 147.19Z" fill="#ADAFB2"/>
<path opacity="0.9" d="M343.621 132.956C342.535 130.058 341.487 127.052 340.217 123.886C339.473 122.187 338.151 119.719 337.208 117.761C336.57 116.475 335.879 115.174 335.195 113.983C334.498 112.801 333.835 111.72 333.303 110.855C332.674 109.879 332.011 108.822 331.33 107.71C330.991 107.152 330.642 106.583 330.29 105.999C330.116 105.709 329.939 105.412 329.761 105.116C329.578 104.823 329.391 104.526 329.205 104.23C327.72 101.846 326.158 99.3308 324.615 96.8505C324.422 96.5398 324.229 96.2319 324.039 95.9211C323.84 95.6162 323.641 95.3113 323.442 95.0092C323.043 94.4051 322.648 93.8039 322.259 93.2115C321.475 92.0265 320.706 90.8735 319.959 89.7757C319.213 88.675 318.491 87.6295 317.8 86.6565C317.084 85.6981 316.406 84.8152 315.771 84.0253C314.974 82.9623 314.383 82.1375 313.611 80.97C313.431 80.6215 312.69 79.3494 312.513 79.0038C311.393 77.1828 310.164 75.449 309.009 73.718C307.842 71.9929 306.703 70.2968 305.624 68.6327C301.992 63.1901 297.993 58.1628 294.054 53.5915C292.952 52.3136 291.748 50.8702 290.519 49.3861C289.271 47.9165 287.992 46.4092 286.776 44.9774C284.65 42.5204 283.294 41.3616 281.99 40.2057C280.667 39.0614 279.373 37.9404 277.325 35.585C270.654 28.1414 265.304 21.1276 258.2 13.925C257.152 12.8911 256.131 11.8862 255.132 10.8988C254.631 10.405 254.136 9.91712 253.645 9.43501C253.147 8.9558 252.649 8.48241 252.157 8.00901C251.171 7.06803 250.194 6.13286 249.207 5.21511C248.212 4.30317 247.213 3.39704 246.198 2.49672C244.683 1.17818 243.062 -0.20425 241.437 -1.64186C239.8 -3.07366 238.108 -4.51418 236.43 -5.94017C235.646 -6.59944 233.552 -8.06319 233.558 -7.95283C233.817 -7.54914 235.659 -5.9576 236.682 -4.88883C238.105 -3.43089 239.271 -2.43763 240.336 -1.58668C241.394 -0.729922 242.355 -0.0212812 243.379 0.838381C245.94 3.05143 248.958 6.22289 251.943 9.20847C253.2 10.3905 254.177 11.3025 255.425 12.3915C257.177 13.8727 259.342 16.4372 261.511 18.8913C262.815 20.4422 264.271 21.9466 265.728 23.4858C267.175 25.0338 268.681 26.5702 270.065 28.2053C270.996 29.2828 271.864 30.3341 272.692 31.3593C273.516 32.3874 274.288 33.401 275.054 34.3827C276.594 36.3372 278.032 38.2192 279.631 39.9821C278.946 39.2328 279.292 39.7033 280.154 40.772C281.009 41.8466 282.363 43.5398 283.723 45.2127C286.412 48.5816 289.078 51.9186 287.79 50.1702C288.005 50.4926 288.895 51.3842 289.144 51.4975C289.159 51.3842 289.405 51.5033 289.2 51.1751C287.544 48.5439 288.07 48.4596 287.722 47.3705C287.837 47.4809 289.654 49.7462 291.751 52.421C292.28 53.0861 292.828 53.7773 293.372 54.4657C293.914 55.1569 294.452 55.8423 294.966 56.4986C295.996 57.8114 296.967 58.9731 297.651 59.8037C299.78 62.3043 301.721 64.4796 304.205 67.8776C304.808 68.7779 304.933 69.3413 305.524 70.2591C305.869 70.776 307.083 72.7538 308.738 75.4722C309.152 76.1518 309.594 76.8779 310.055 77.6388C310.518 78.3968 310.966 79.2129 311.449 80.0406C312.404 81.7019 313.412 83.456 314.427 85.2189C318.444 92.285 322.29 99.5457 323.161 101.001C324.257 102.691 325.772 104.773 325.679 104.213C325.906 103.487 327.96 106.513 328.983 107.474C329.204 107.62 328.937 106.806 329.158 106.949C329.979 107.747 331.333 109.411 332.543 111.488C333.072 112.351 333.62 113.263 334.168 114.198C334.715 115.133 335.226 116.112 335.742 117.07C336.763 118.996 337.725 120.898 338.502 122.539L339.168 123.828L339.806 125.129L341.079 127.737L343.621 132.956Z" fill="#DCDDDE"/>
<path opacity="0.9" d="M302.447 63.5211C301.46 62.2403 298.679 58.5315 295.651 54.8518C295.274 54.39 294.901 53.9254 294.524 53.4665C294.145 53.0105 293.765 52.5575 293.395 52.1131C292.648 51.2244 291.926 50.3647 291.257 49.569C289.916 47.9832 288.746 46.6821 288.036 45.9096C283.527 41.013 279.249 36.5404 274.538 31.9052C274.074 31.4057 273.458 30.7029 273.15 30.2817C270.72 26.9651 267.237 23.3434 264.692 20.3143C263.575 19.0103 262.648 17.7469 261.334 16.3935C254.52 9.24324 247.786 3.05134 241.261 -2.4232C239.879 -3.56457 238.581 -4.58397 237.284 -5.59756C235.98 -6.59953 234.682 -7.5986 233.279 -8.67608C232.759 -9.04202 231.885 -9.72162 231.888 -9.5764C231.714 -9.62578 232.933 -8.55701 233.543 -7.94711C234.324 -7.29365 235.022 -6.80283 236.067 -5.93155C237.019 -5.14449 238.052 -4.21803 239.067 -3.31771C239.577 -2.87045 240.078 -2.4261 240.557 -2.00498C241.033 -1.58096 241.494 -1.18598 241.92 -0.834563C242.86 -0.0358899 243.716 0.666942 244.59 1.39301C245.464 2.12198 246.348 2.8858 247.363 3.79774C248.038 4.41925 248.676 5.00592 249.308 5.60419C249.933 6.20828 250.558 6.82108 251.221 7.48035C256.057 12.1824 260.637 16.9076 265.081 21.8797C266.627 24.0376 269.497 26.9273 271.507 29.2507C272.129 29.9536 272.764 30.578 273.539 31.4173C275.375 33.5432 277.204 35.8666 278.586 37.2316C281.39 39.8658 284.159 42.6074 287.305 46.0374C287.937 46.7344 289.073 48.0036 290.432 49.5893C291.105 50.3851 291.842 51.2563 292.611 52.1625C293.379 53.0715 294.179 54.0183 294.957 54.9854C298.131 58.8103 301.162 62.7979 302.422 64.4562C303.259 65.554 304.071 66.6606 304.868 67.77C305.646 68.8911 306.396 70.0208 307.146 71.1448C308.639 73.3985 310.133 75.6289 311.648 77.8304C311.71 77.9291 311.661 77.752 311.421 77.2669C311.175 76.7848 310.746 75.9949 310.068 74.8506C309.389 73.7092 308.465 72.2135 307.23 70.3287C306.607 69.3877 305.932 68.3363 305.129 67.2066C304.33 66.0826 303.433 64.8541 302.447 63.5211Z" fill="#F1F2F2"/>
</g>
</g>
<path opacity="0.1091" d="M386.804 328.924C386.546 326.607 386.406 324.289 386.197 321.966C386.008 319.82 385.84 317.67 385.665 315.521C385.239 310.311 384.757 305.104 384.165 299.908C382.775 287.736 380.951 275.605 378.614 263.558C372.929 234.231 364.711 205.348 353.86 177.313C340.657 143.202 323.614 110.314 302.846 79.6484C291.768 63.2886 279.763 47.4691 266.703 32.4308C261.102 25.9804 255.339 19.6578 249.418 13.4601C242.528 6.25176 235.356 -0.706863 228.052 -7.54641C227.415 -8.26376 227.523 -8.86785 228.37 -9.35577C230.097 -9.88725 231.861 -9.93952 233.669 -9.50679C236.989 -9.13795 240.282 -8.6326 243.555 -7.99076C245.416 -7.86007 247.071 -7.28502 248.525 -6.26272C262.014 7.14627 274.875 21.0896 286.777 35.7562C299.591 51.5467 311.466 68.0081 322.285 85.0532C342.524 116.936 359.135 150.733 371.799 185.857C382.177 214.644 389.991 244.265 395.109 274.263C397.222 286.638 398.834 299.086 399.917 311.58C400.34 316.462 400.676 321.35 401.006 326.238C401.18 328.811 401.308 331.428 401.688 333.981C401.999 336.078 402.406 338.157 402.864 340.231C402.963 341.146 402.518 341.596 401.532 341.581C399.805 341.166 398.324 340.324 397.092 339.06C394.584 337.094 392.178 335.026 389.869 332.857C388.41 331.805 387.392 330.498 386.804 328.924Z" fill="url(#paint24_radial)"/>
<path opacity="0.1091" d="M383.682 320.023C383.853 319.401 384.021 318.783 384.193 318.161C384.158 318.524 384.124 318.89 384.093 319.253C383.122 309.321 382.447 299.374 381.246 289.461C379.821 277.711 377.982 266.009 375.701 254.378C369.928 224.943 361.564 195.9 350.492 167.813C344.191 151.831 337.093 136.136 329.134 120.811C320.498 104.184 310.864 88.0302 300.347 72.3762C289.337 55.9932 277.251 40.1969 264.201 25.1761C258.596 18.7257 252.834 12.406 246.909 6.21121C240.016 -0.994272 232.841 -7.95289 225.531 -14.7895C224.797 -15.414 224.809 -16.0268 225.572 -16.6221C227.19 -17.3801 228.92 -17.6648 230.762 -17.4789C234.085 -17.5544 237.402 -17.4934 240.719 -17.293C242.571 -17.4092 244.286 -17.0607 245.869 -16.2446C252.684 -9.61994 259.362 -2.88495 265.816 4.04753C272.475 11.2007 278.904 18.5282 285.137 26.0096C298.349 41.8727 310.454 58.5606 321.584 75.7568C342.806 108.543 360.136 143.574 373.13 179.91C383.707 209.492 391.689 239.912 396.745 270.743C398.687 282.578 400.115 294.48 401.117 306.414C401.562 311.725 401.874 317.046 402.315 322.358C402.515 324.766 402.798 327.121 403.28 329.494C403.408 330.104 403.535 330.711 403.663 331.321C403.622 332.206 403.482 333.083 403.249 333.943C402.238 334.509 401.217 334.437 400.187 333.722C397.405 332.157 394.738 330.432 392.187 328.55C389.567 326.752 387.08 324.809 384.725 322.718C383.71 321.983 383.365 321.083 383.682 320.023Z" fill="url(#paint25_radial)"/>
<path opacity="0.1091" d="M381.97 326.096C382.129 325.512 382.284 324.925 382.443 324.341C382.368 324.71 382.294 325.076 382.219 325.445C381.292 315.498 380.563 305.536 379.362 295.61C377.937 283.844 376.098 272.129 373.814 260.482C368.036 231.01 359.662 201.935 348.578 173.81C342.27 157.811 335.166 142.099 327.2 126.758C318.559 110.114 308.922 93.946 298.398 78.2775C287.389 61.8859 275.296 46.0779 262.246 31.0484C256.642 24.5951 250.882 18.2696 244.957 12.0719C238.068 4.8606 230.895 -2.09802 223.585 -8.94047C222.733 -9.67815 222.829 -10.2822 223.875 -10.7527C226.087 -11.2523 228.325 -11.261 230.584 -10.7789C234.816 -10.3258 239.026 -9.73914 243.211 -9.01598C245.523 -8.85915 247.658 -8.24054 249.618 -7.15725C263.105 6.53055 275.944 20.7527 287.799 35.7039C300.542 51.7732 312.32 68.525 323.046 85.8344C343.07 118.141 359.407 152.348 371.754 187.85C381.855 216.892 389.379 246.748 394.187 276.953C396.169 289.409 397.616 301.935 398.559 314.499C398.926 319.39 399.206 324.286 399.533 329.18C399.701 331.724 399.838 334.341 400.264 336.862C400.404 337.602 400.544 338.343 400.684 339.083C401.129 340.219 401.188 341.366 400.864 342.528C400.796 342.897 400.728 343.266 400.656 343.634C400.261 343.695 399.866 343.759 399.47 343.82C398.817 343.513 398.167 343.205 397.513 342.894C395.587 341.448 393.757 339.902 392.024 338.256C389.295 335.787 386.613 333.269 384.148 330.571C383.299 329.889 382.667 329.072 382.256 328.12C381.684 327.507 381.587 326.833 381.97 326.096Z" fill="url(#paint26_radial)"/>
<path opacity="0.1091" d="M375.104 332.546C374.316 331.102 373.958 329.601 374.036 328.041C374.049 326.883 373.977 325.73 373.822 324.579C373.66 322.424 373.52 320.27 373.355 318.115C372.956 312.936 372.465 307.761 371.87 302.6C370.48 290.518 368.656 278.48 366.344 266.523C360.706 237.388 352.55 208.693 341.774 180.844C328.657 146.943 311.727 114.258 291.092 83.7781C280.086 67.5171 268.153 51.7963 255.17 36.8539C249.6 30.4442 243.878 24.1564 237.99 17.9965C231.141 10.8288 224.012 3.9108 216.75 -2.88809C215.912 -3.33244 215.561 -3.98009 215.701 -4.83104C216.108 -5.60357 216.793 -5.94628 217.751 -5.86205C219.79 -5.60938 221.781 -5.16793 223.729 -4.54061C225.708 -4.01494 227.613 -3.31211 229.439 -2.42921C242.748 10.6603 255.441 24.2726 267.213 38.5935C279.865 53.9803 291.612 70.0264 302.295 86.6649C322.257 117.761 338.693 150.745 351.268 185.044C361.558 213.117 369.344 242.017 374.494 271.298C376.613 283.345 378.309 295.455 379.497 307.613C379.964 312.379 380.359 317.147 380.683 321.925C380.86 324.536 380.972 327.153 381.19 329.761C381.262 330.545 381.333 331.326 381.405 332.11C381.349 334.184 381.94 336.127 383.169 337.939C383.371 338.694 383.147 339.307 382.503 339.777C381.803 340.178 381.112 340.155 380.425 339.716C379.261 338.726 378.253 337.611 377.4 336.371C376.454 335.183 375.689 333.908 375.104 332.546Z" fill="url(#paint27_radial)"/>
<path opacity="0.1091" d="M375.432 326.508C375.551 325.436 375.544 324.365 375.411 323.296C375.314 322.096 375.212 320.897 375.103 319.698C374.922 317.545 374.757 315.393 374.58 313.241C374.15 308.043 373.656 302.85 373.052 297.666C371.639 285.523 369.797 273.421 367.451 261.403C361.735 232.128 353.489 203.303 342.604 175.332C329.363 141.303 312.283 108.502 291.484 77.929C280.394 61.6274 268.37 45.8718 255.304 30.8945C249.7 24.4702 243.934 18.1738 238.009 12.0051C231.117 4.82869 223.944 -2.09798 216.638 -8.90558C215.969 -9.64036 216.084 -10.2415 216.986 -10.7091C218.831 -11.2 220.705 -11.2058 222.603 -10.7295C226.116 -10.2764 229.604 -9.68683 233.064 -8.96367C235.022 -8.79232 236.771 -8.17371 238.317 -7.10784C251.766 6.43765 264.571 20.5204 276.395 35.3322C289.088 51.233 300.829 67.8106 311.511 84.9545C331.429 116.91 347.691 150.762 359.992 185.907C370.04 214.618 377.533 244.137 382.337 274.008C384.316 286.304 385.788 298.665 386.753 311.069C387.129 315.91 387.422 320.758 387.727 325.605C387.889 328.172 388.007 330.792 388.377 333.345C388.502 334.103 388.623 334.864 388.748 335.622C389.096 336.815 389.236 338.029 389.165 339.264C389.108 340.164 388.601 340.55 387.646 340.425C386.04 339.833 384.743 338.851 383.744 337.483C381.634 335.296 379.636 333.019 377.754 330.655C376.512 329.476 375.737 328.094 375.432 326.508Z" fill="url(#paint28_radial)"/>
<path opacity="0.1091" d="M389.236 319.584C388.153 318.469 387.434 317.212 387.085 315.817C386.812 315.001 386.768 314.159 386.961 313.288C386.865 311.203 386.65 309.12 386.491 307.038C386.105 301.941 385.617 296.85 385.035 291.767C383.666 279.819 381.833 267.909 379.53 256.085C376.82 242.159 373.565 228.321 369.669 214.639C367.721 207.805 365.636 201.009 363.414 194.251C360.598 185.68 357.477 177.203 354.216 168.772C354.325 169.042 354.431 169.315 354.54 169.585C353.855 167.868 353.174 166.149 352.489 164.433C352.598 164.703 352.707 164.973 352.816 165.243C352.113 163.518 351.409 161.796 350.706 160.07C350.815 160.341 350.927 160.608 351.036 160.878C347.915 153.437 344.672 146.052 341.228 138.736C337.276 130.342 333.044 122.065 328.594 113.895C319.57 97.3296 309.578 81.2051 298.603 65.6992C288.238 51.0617 277.12 36.9353 265.195 23.3695C252.976 9.4668 239.835 -3.68081 226.099 -16.2853C225.614 -16.6774 225.362 -17.1769 225.34 -17.7868C225.241 -18.388 225.393 -18.9224 225.791 -19.39C226.479 -19.7704 227.226 -19.9737 228.035 -19.997C228.832 -20.1102 229.606 -20.0376 230.356 -19.7821C237.277 -13.4856 244.067 -7.07881 250.645 -0.468696C257.435 6.35342 264.007 13.3585 270.389 20.5175C283.919 35.701 296.403 51.6977 307.879 68.2869C328.952 98.7439 346.552 131.347 360.188 165.298C371.387 193.182 380.199 221.885 386.308 251.116C388.797 263.027 390.869 275.007 392.456 287.051C393.178 292.528 393.797 298.014 394.311 303.512C394.765 308.409 395.061 313.317 395.515 318.213C395.428 317.911 395.344 317.606 395.257 317.304C396.274 318.527 397.295 319.75 398.313 320.973C398.779 321.58 398.82 322.207 398.44 322.854C398.014 323.479 397.407 323.746 396.611 323.656C395.223 323.27 393.919 322.712 392.696 321.977C391.42 321.33 390.266 320.534 389.236 319.584Z" fill="url(#paint29_radial)"/>
<path opacity="0.1091" d="M391.918 328.309C390.773 326.964 389.914 325.494 389.341 323.9C388.946 323.101 388.893 322.25 389.176 321.35C389.102 320.551 389.024 319.756 388.949 318.957C388.831 317.682 388.722 316.41 388.629 315.132C388.23 310.035 387.773 304.941 387.222 299.856C385.925 287.893 384.129 275.971 381.892 264.13C376.281 234.42 368.023 205.092 357.017 176.723C343.527 141.948 326.164 108.447 304.854 77.2494C294.212 61.6681 282.708 46.6211 270.283 32.2333C264.147 25.1266 257.796 18.1912 251.255 11.4068C244.353 4.24493 237.168 -2.67013 229.852 -9.4632C229.485 -10.1225 229.566 -10.7295 230.098 -11.2813C231.056 -11.9144 232.136 -12.1061 233.334 -11.8592C235.347 -11.7605 237.342 -11.5223 239.318 -11.1506C240.544 -11.1128 241.54 -10.6743 242.299 -9.83785C255.941 3.2023 268.976 16.7797 281.074 31.0949C293.509 45.805 305.06 61.1308 315.717 77.0113C336.728 108.316 354.138 141.765 367.478 176.546C378.239 204.599 386.5 233.426 392.272 262.727C394.728 275.193 396.663 287.751 398.057 300.361C398.608 305.333 399.078 310.311 399.473 315.295C399.862 320.183 400.08 325.076 400.985 329.912C400.836 329.523 400.687 329.136 400.537 328.747C401.433 330.008 402.327 331.268 403.223 332.532C403.811 333.214 403.879 333.923 403.428 334.652C402.784 335.244 402.034 335.357 401.178 334.997C399.433 334.152 397.799 333.147 396.277 331.98C394.684 330.896 393.234 329.674 391.918 328.309Z" fill="url(#paint30_radial)"/>
<path opacity="0.1091" d="M383.64 335.081C382.726 333.533 381.87 331.956 381.067 330.359C380.591 329.659 380.544 328.886 380.933 328.041C380.933 325.985 380.672 323.911 380.529 321.861C380.171 316.787 379.698 311.722 379.15 306.663C377.859 294.785 376.079 282.944 373.873 271.185C368.337 241.66 360.188 212.513 349.312 184.306C335.982 149.731 318.811 116.41 297.729 85.361C287.199 69.8551 275.814 54.8778 263.516 40.551C257.442 33.4733 251.15 26.5612 244.675 19.8001C237.838 12.6585 230.719 5.76375 223.471 -1.0119C222.849 -1.49691 222.641 -2.1039 222.846 -2.82706C223.117 -3.5328 223.655 -3.91907 224.464 -3.98877C225.958 -3.89874 227.411 -3.61993 228.827 -3.15234C230.277 -2.7864 231.643 -2.24331 232.928 -1.52595C246.271 11.3487 259.016 24.7402 270.85 38.8462C282.998 53.3269 294.303 68.3913 304.709 84.0105C325.234 114.813 342.245 147.695 355.277 181.87C365.786 209.428 373.851 237.739 379.474 266.515C381.861 278.733 383.774 291.041 385.184 303.39C385.741 308.257 386.226 313.128 386.631 318.01C386.855 320.696 387.026 323.386 387.207 326.075C387.266 326.923 387.322 327.771 387.381 328.622C387.487 329.848 387.477 331.073 387.353 332.296C387.163 331.921 386.973 331.547 386.783 331.172C387.916 333.095 389.052 335.02 390.184 336.943C390.424 337.364 390.667 337.785 390.906 338.206C390.888 338.517 390.872 338.825 390.853 339.136C390.657 339.391 390.461 339.647 390.265 339.902C389.851 340.289 389.385 340.413 388.865 340.283C388.414 340.321 388.044 340.161 387.754 339.807C387.238 339.493 386.786 339.109 386.404 338.654C385.884 338.195 385.42 337.689 385.013 337.14C384.437 336.522 383.98 335.839 383.64 335.081Z" fill="url(#paint31_radial)"/>
<path opacity="0.1091" d="M376.659 319.323C376.992 318.295 377.061 317.261 376.864 316.215C376.749 315.01 376.644 313.805 376.541 312.6C376.36 310.451 376.195 308.304 376.015 306.155C375.579 300.962 375.078 295.772 374.472 290.594C373.05 278.46 371.198 266.367 368.842 254.358C363.107 225.109 354.843 196.307 343.948 168.359C330.692 134.353 313.602 101.579 292.8 71.0315C281.704 54.7357 269.674 38.983 256.601 24.0144C250.991 17.5931 245.222 11.2966 239.294 5.12796C232.395 -2.04848 225.216 -8.97516 217.9 -15.7799C217.247 -16.3956 217.25 -17.0055 217.91 -17.6124C219.288 -18.3821 220.801 -18.6928 222.447 -18.5418C225.356 -18.6667 228.266 -18.6522 231.175 -18.5011C232.824 -18.6347 234.334 -18.3124 235.703 -17.5282C242.539 -10.9326 249.239 -4.22669 255.711 2.68256C262.386 9.80673 268.83 17.108 275.073 24.5662C288.301 40.3683 300.402 57.0039 311.527 74.1536C332.699 106.8 349.957 141.707 362.855 177.92C373.339 207.352 381.221 237.617 386.178 268.292C388.079 280.049 389.467 291.869 390.435 303.721C390.867 309.004 391.163 314.296 391.586 319.582C391.779 321.998 392.028 324.403 392.526 326.784C392.66 327.397 392.794 328.01 392.927 328.623C392.735 329.421 392.517 330.214 392.274 331.001C391.375 331.533 390.469 331.477 389.557 330.838C387.952 329.854 386.439 328.765 385.014 327.568C383.166 326.157 381.392 324.67 379.693 323.104C378.252 322.111 377.241 320.851 376.659 319.323Z" fill="url(#paint32_radial)"/>
<path opacity="0.1091" d="M389.46 333.342C387.503 331.808 386.473 330.005 386.37 327.934C386.32 327.408 386.283 326.883 386.258 326.357C386.127 324.312 385.959 322.274 385.81 320.229C385.436 315.141 384.976 310.058 384.425 304.985C383.134 293.062 381.348 281.184 379.126 269.381C373.553 239.772 365.356 210.541 354.428 182.256C341.035 147.599 323.793 114.2 302.63 83.0841C292.063 67.5463 280.642 52.5428 268.304 38.1871C262.212 31.0977 255.904 24.1769 249.41 17.4041C242.555 10.2538 235.42 3.35039 228.154 -3.43398C227.488 -3.87543 227.233 -4.4679 227.382 -5.20558C227.603 -5.92874 228.116 -6.34986 228.922 -6.46603C230.435 -6.46894 231.922 -6.28016 233.385 -5.90551C234.872 -5.6296 236.294 -5.17363 237.645 -4.5405C251.109 8.36315 263.976 21.7896 275.925 35.9392C288.805 51.1924 300.797 67.099 311.71 83.6359C332.164 114.63 349.091 147.565 362.148 181.867C372.865 210.024 381.052 239.046 386.578 268.478C388.856 280.612 390.711 292.819 392.036 305.075C392.556 309.884 393.004 314.696 393.371 319.517C393.571 322.128 393.776 324.745 393.96 327.359C394.003 328.062 394.05 328.765 394.093 329.47C394.296 332.267 395.615 334.669 398.048 336.679C398.363 337.37 398.257 337.991 397.728 338.549C397.158 339.069 396.496 339.197 395.743 338.935C394.47 338.256 393.322 337.422 392.295 336.441C391.193 335.526 390.25 334.495 389.46 333.342Z" fill="url(#paint33_radial)"/>
<path opacity="0.1091" d="M379.652 316.509C379.723 315.393 379.695 314.281 379.574 313.172C379.477 311.978 379.378 310.781 379.272 309.588C379.098 307.439 378.936 305.287 378.755 303.137C378.326 297.942 377.822 292.749 377.209 287.568C375.774 275.431 373.904 263.337 371.533 251.328C365.758 222.074 357.446 193.272 346.496 165.33C333.168 131.321 315.988 98.5552 295.084 68.0343C283.931 51.7471 271.839 36.0147 258.695 21.0723C253.057 14.6626 247.256 8.38064 241.3 2.2265C234.371 -4.92961 227.161 -11.836 219.814 -18.6203C219.356 -19.207 219.313 -19.8169 219.689 -20.45C220.414 -21.2254 221.354 -21.5972 222.509 -21.5711C224.351 -21.8179 226.199 -21.9254 228.057 -21.8992C229.199 -22.0619 230.179 -21.8005 231.004 -21.118C245.059 -8.07493 258.49 5.54027 270.949 19.9367C284.376 35.4513 296.854 51.6832 308.203 68.5832C329.416 100.176 346.932 133.833 360.365 168.949C371.365 197.698 379.717 227.362 385.293 257.445C387.593 269.855 389.397 282.343 390.645 294.884C391.134 299.789 391.532 304.697 391.902 309.608C392.095 312.19 392.22 314.818 392.587 317.386C392.702 318.121 392.82 318.858 392.936 319.593C393.256 320.761 393.384 321.948 393.324 323.154C393.412 323.955 393.038 324.458 392.201 324.658C390.795 324.676 389.534 324.243 388.42 323.363C386.283 322.143 384.232 320.807 382.265 319.361C380.996 318.701 380.124 317.746 379.652 316.509Z" fill="url(#paint34_radial)"/>
<path opacity="0.1091" d="M391.62 322.541C389.439 321.362 388.331 319.828 388.3 317.935C388.234 317.162 388.293 316.393 388.48 315.626C388.486 315.896 388.493 316.163 388.499 316.433C388.343 311.667 387.905 306.904 387.438 302.156C386.909 296.737 386.274 291.323 385.533 285.924C383.984 274.629 382.017 263.398 379.705 252.22C373.581 222.608 364.731 193.522 353.289 165.319C339.834 132.155 322.645 100.33 301.995 70.561C291.337 55.1974 279.755 40.377 267.274 26.2593C261.654 19.9019 255.876 13.6723 249.939 7.56749C243.034 0.469464 235.849 -6.37879 228.533 -13.108C227.792 -13.7905 227.665 -15.5301 228.461 -16.2243C229.081 -16.5553 229.749 -16.7064 230.468 -16.6773C231.187 -16.7354 231.862 -16.6105 232.494 -16.3056C246.245 -3.67492 259.401 9.49882 271.646 23.4219C284.84 38.4253 297.175 54.0938 308.368 70.4565C319.069 86.0988 328.884 102.249 337.702 118.885C346.201 134.92 353.772 151.369 360.428 168.144C366.268 182.86 371.465 197.782 375.949 212.908C380.125 226.996 383.638 241.262 386.554 255.624C389.022 267.778 391.085 280.011 392.609 292.302C393.207 297.117 393.736 301.941 394.168 306.774C394.29 308.121 394.399 309.469 394.498 310.816C394.598 312.115 394.694 313.41 394.788 314.708C394.794 314.981 394.8 315.254 394.803 315.524C394.906 316.732 394.778 317.917 394.421 319.076C394.175 318.548 393.929 318.022 393.683 317.493C395.429 319.384 397.178 321.275 398.923 323.165C399.216 323.772 399.16 324.356 398.761 324.914C398.391 325.489 397.85 325.785 397.137 325.799C396.057 325.547 395.058 325.12 394.14 324.519C393.17 324.005 392.326 323.345 391.62 322.541Z" fill="url(#paint35_radial)"/>
<path d="M108.569 253.308L115.765 118.662L97.3592 120.053L90.2006 253.271L108.569 253.308Z" fill="#F8A28B"/>
<path d="M128.479 145.285L115.212 140.409L102.142 141.535L102.064 142.992L115.136 141.81L126.657 145.973L137.516 153.698L144.153 156.08L139.023 157.225L147.247 159.434L147.332 158.048L144.461 157.333L147.088 155.602C144.381 154.687 139.338 153.369 139.045 153.218C138.753 153.068 131.879 147.867 128.479 145.285Z" fill="#FFAC8A"/>
<path d="M127.762 158.936L114.494 154.06L93.0796 156.199L93.001 157.657L114.419 155.461L125.94 159.624L136.798 167.349L143.435 169.731L138.306 170.875L146.529 173.085L146.615 171.699L143.744 170.984L146.371 169.253C143.664 168.338 138.62 167.02 138.328 166.869C138.035 166.719 131.162 161.517 127.762 158.936Z" fill="#FFAC8A"/>
<path d="M127.014 172.555L113.747 167.679L101.163 168.761L101.085 170.218L113.671 169.08L125.192 173.243L136.051 180.968L142.688 183.35L137.558 184.495L145.782 186.704L145.867 185.319L142.996 184.603L145.623 182.872C142.916 181.958 137.873 180.639 137.58 180.489C137.287 180.338 130.414 175.137 127.014 172.555Z" fill="#FFAC8A"/>
<path d="M126.267 186.174L113 181.298L99.5715 182.513L99.4929 183.97L112.924 182.699L124.445 186.863L135.304 194.587L141.941 196.969L136.811 198.114L145.035 200.324L145.12 198.938L142.249 198.223L144.876 196.491C142.169 195.577 137.125 194.259 136.833 194.108C136.54 193.957 129.667 188.756 126.267 186.174Z" fill="#FFAC8A"/>
<path d="M125.52 199.794L112.252 194.918L96.9419 196.247L96.8633 197.704L112.177 196.319L123.697 200.482L134.556 208.207L141.193 210.589L136.064 211.734L144.287 213.943L144.373 212.557L141.501 211.842L144.129 210.111C141.422 209.196 136.378 207.878 136.086 207.727C135.793 207.577 128.92 202.376 125.52 199.794Z" fill="#FFAC8A"/>
<path d="M124.589 213.43L111.321 208.554L95.2115 210.011L95.1329 211.468L111.245 209.955L122.766 214.118L133.625 221.843L140.262 224.225L135.133 225.37L143.356 227.579L143.442 226.193L140.57 225.478L143.198 223.747C140.491 222.833 135.447 221.514 135.155 221.364C134.862 221.213 127.989 216.012 124.589 213.43Z" fill="#FFAC8A"/>
<path d="M115.326 141.764L97.4725 143.599L97.3545 145.784L114.683 143.247L127.041 147.568L137.802 156.774L140.099 157.392L144.524 156.156L137.791 153.825L127.119 146.111L115.326 141.764Z" fill="#F28463"/>
<path d="M114.609 155.415L100.107 156.401L99.9886 158.587L113.965 156.898L126.324 161.219L137.085 170.425L139.382 171.043L143.807 169.807L137.074 167.476L126.402 159.761L114.609 155.415Z" fill="#F28463"/>
<path d="M113.862 169.034L100.46 170.246L100.342 172.432L113.218 170.517L125.576 174.838L136.337 184.044L138.635 184.663L143.06 183.426L136.326 181.095L125.654 173.381L113.862 169.034Z" fill="#F28463"/>
<path d="M113.114 182.654L98.6936 183.958L98.5757 186.143L112.47 184.136L124.828 188.457L135.59 197.664L137.887 198.282L142.312 197.046L135.579 194.715L124.907 187L113.114 182.654Z" fill="#F28463"/>
<path d="M112.367 196.273L95.9729 197.439L95.8549 199.625L111.723 197.756L124.081 202.077L134.842 211.283L137.14 211.901L141.564 210.665L134.831 208.334L124.159 200.62L112.367 196.273Z" fill="#F28463"/>
<path d="M111.435 209.909L93.989 211.487L93.8711 213.672L110.792 211.392L123.15 215.713L133.911 224.919L136.208 225.537L140.633 224.301L133.9 221.97L123.228 214.256L111.435 209.909Z" fill="#F28463"/>
<path d="M127.418 147.532L114.379 143.093L113.771 154.358L127.373 158.827L138.017 167.046L146.773 170.217L147.359 159.345L137.912 156.811L127.418 147.532Z" fill="#FEBFA8"/>
<path d="M126.701 161.183L113.661 156.744L113.053 168.009L126.655 172.478L137.299 180.697L146.055 183.868L146.642 172.995L137.194 170.462L126.701 161.183Z" fill="#FEBFA8"/>
<path d="M125.953 174.802L112.914 170.364L112.306 181.628L125.908 186.097L136.552 194.316L145.308 197.487L145.894 186.615L136.446 184.081L125.953 174.802Z" fill="#FEBFA8"/>
<path d="M125.206 188.421L112.166 183.983L111.559 195.248L125.161 199.716L135.805 207.936L144.56 211.106L145.147 200.234L135.699 197.7L125.206 188.421Z" fill="#FEBFA8"/>
<path d="M124.459 202.041L111.419 197.602L110.811 208.867L124.413 213.336L135.057 221.555L143.813 224.726L144.399 213.853L134.952 211.319L124.459 202.041Z" fill="#FEBFA8"/>
<path d="M123.527 215.677L110.487 211.238L109.879 222.503L108.055 253.469L131.993 251.269L141.807 250.367L143.468 227.49L134.02 224.956L123.527 215.677Z" fill="#FEBFA8"/>
<path d="M114.605 140.443L115.764 118.662L147.819 135.18L147.187 155.569L139.305 153.626L128.456 145.429L114.605 140.443Z" fill="#FEBFA8"/>
<path d="M58.2968 258.392L78.6431 84.1448L33.6669 88.6409L28.1305 258.584L58.2968 258.392Z" fill="#E77E7B"/>
<path d="M88.8035 118.455L76.0143 111.488L40.7396 115.144L40.518 117.04L75.8012 113.311L86.9136 119.268L97.0146 129.839L103.418 133.249L98.1759 134.506L106.183 137.765L106.404 135.962L103.603 134.897L106.4 132.761C103.783 131.444 98.8687 129.494 98.5909 129.284C98.3131 129.074 91.9502 121.977 88.8035 118.455Z" fill="#FFAC8A"/>
<path d="M86.7464 136.221L73.9572 129.255L42.209 132.601L41.9875 134.497L73.7442 131.078L84.8565 137.035L94.9574 147.606L101.361 151.016L96.1187 152.273L104.126 155.531L104.347 153.728L101.546 152.664L104.343 150.527C101.726 149.211 96.8115 147.261 96.5337 147.051C96.256 146.841 89.8931 139.744 86.7464 136.221Z" fill="#FFAC8A"/>
<path d="M84.6625 153.945L71.8733 146.978L44.1623 149.991L43.9408 151.888L71.6603 148.802L82.7726 154.759L92.8736 165.329L99.2767 168.74L94.0349 169.997L102.042 173.255L102.263 171.452L99.462 170.388L102.259 168.251C99.6418 166.935 94.7276 164.984 94.4499 164.774C94.1721 164.564 87.8092 157.467 84.6625 153.945Z" fill="#FFAC8A"/>
<path d="M82.5789 171.669L69.7896 164.702L46.1115 166.097L45.89 167.993L69.5766 166.526L80.6889 172.483L90.79 183.053L97.1932 186.464L91.9513 187.721L99.9583 190.979L100.18 189.176L97.3785 188.112L100.176 185.975C97.5583 184.659 92.6441 182.708 92.3663 182.498C92.0885 182.288 85.7256 175.191 82.5789 171.669Z" fill="#FFAC8A"/>
<path d="M80.4952 189.393L67.7059 182.426L39.8501 183.78L42.2678 185.929L67.4929 184.25L78.6052 190.207L88.7063 200.777L95.1094 204.188L89.8676 205.445L97.8745 208.703L98.0957 206.9L95.2947 205.836L98.0917 203.699C95.4745 202.383 90.5603 200.432 90.2825 200.222C90.0048 200.012 83.6419 192.915 80.4952 189.393Z" fill="#FFAC8A"/>
<path d="M78.2266 207.131L65.4372 200.164L50.1452 201.5L49.9236 203.396L65.2242 201.987L76.3366 207.944L86.4378 218.515L92.841 221.925L87.5991 223.183L95.6061 226.441L95.8273 224.638L93.0263 223.574L95.8233 221.437C93.2061 220.12 88.2918 218.17 88.0141 217.96C87.7363 217.75 81.3734 210.653 78.2266 207.131Z" fill="#FFAC8A"/>
<path d="M75.9959 113.26L40.4107 117.157L40.0784 120.001L74.9535 114.884L87.1406 121.365L96.9986 133.863L99.2356 134.775L103.782 133.366L97.2767 130.018L87.3621 119.469L75.9959 113.26Z" fill="#F28463"/>
<path d="M73.939 131.027L41.6532 134.469L41.3209 137.313L73.1498 132.93L85.0838 139.132L94.9418 151.629L97.1788 152.541L101.725 151.132L95.22 147.784L85.3053 137.235L73.939 131.027Z" fill="#F28463"/>
<path d="M71.8555 148.751L44.1353 151.564L43.8029 154.409L71.0663 150.655L83.0004 156.856L92.8584 169.353L95.0954 170.265L99.6414 168.856L93.1366 165.508L83.2219 154.96L71.8555 148.751Z" fill="#F28463"/>
<path d="M69.7716 166.475L39.9967 168.834L40.1542 170.236L68.9824 168.378L80.9164 174.58L90.7744 187.077L93.0114 187.989L97.5575 186.58L91.0526 183.232L81.138 172.683L69.7716 166.475Z" fill="#F28463"/>
<path d="M67.6877 184.199L41.2096 185.884L40.8773 188.728L66.8985 186.103L78.8325 192.304L88.6904 204.801L90.9274 205.713L95.4735 204.305L88.9686 200.956L79.054 190.408L67.6877 184.199Z" fill="#F28463"/>
<path d="M65.4189 201.936L46.2563 203.571L45.924 206.416L64.6297 203.84L76.5637 210.041L86.4217 222.539L88.6587 223.451L93.2048 222.042L86.6999 218.694L76.7853 208.145L65.4189 201.936Z" fill="#F28463"/>
<path d="M87.5211 121.335L74.9167 114.949L73.204 129.609L86.3676 136.061L96.2057 147.266L104.65 151.803L106.303 137.653L97.1042 133.916L87.5211 121.335Z" fill="#FEBFA8"/>
<path d="M85.4645 139.102L72.86 132.716L71.1473 147.376L84.311 153.827L94.1491 165.033L102.594 169.569L104.247 155.42L95.0476 151.682L85.4645 139.102Z" fill="#FEBFA8"/>
<path d="M83.381 156.826L70.7765 150.44L69.0638 165.1L82.2275 171.551L92.0657 182.757L100.51 187.293L102.163 173.144L92.9641 169.406L83.381 156.826Z" fill="#FEBFA8"/>
<path d="M81.297 174.55L68.6926 168.164L66.9798 182.824L80.1435 189.275L89.9816 200.481L98.4261 205.017L100.079 190.868L90.88 187.13L81.297 174.55Z" fill="#FEBFA8"/>
<path d="M79.2136 192.274L66.6092 185.888L64.8965 200.548L78.0601 206.999L87.8982 218.205L96.3427 222.741L97.9958 208.592L88.7967 204.854L79.2136 192.274Z" fill="#FEBFA8"/>
<path d="M76.9443 210.012L64.3396 203.625L62.6269 218.286L57.765 258.579L81.9191 256.809L91.8214 256.083L95.7267 226.33L86.5275 222.592L76.9443 210.012Z" fill="#FEBFA8"/>
<path d="M75.4036 111.505L78.4517 82.5425L109.134 106.167L106.503 132.723L98.8113 129.827L88.7662 118.641L75.4036 111.505Z" fill="#FEBFA8"/>
<path d="M5.43139 264.965L7.35551 89.5437L-36.8993 98.741L-24.5478 268.325L5.43139 264.965Z" fill="#E77E7B"/>
<path d="M21.0649 122.596L7.61439 117.012L-27.0809 124.354L-27.102 126.263L7.59413 118.847L19.2709 123.604L30.4267 133.054L37.1528 135.773L32.0721 137.574L40.377 139.973L40.4076 138.157L37.5103 137.393L40.0673 134.974C37.3262 133.94 32.2343 132.516 31.936 132.337C31.6377 132.157 24.5643 125.768 21.0649 122.596Z" fill="#FFAC8A"/>
<path d="M20.886 140.48L7.4356 134.896L-23.7852 141.56L-23.8063 143.469L7.41534 136.732L19.0921 141.488L30.2478 150.939L36.9739 153.658L31.8932 155.458L40.1981 157.857L40.2287 156.041L37.3313 155.277L39.8884 152.858C37.1473 151.824 32.0554 150.401 31.7571 150.221C31.4588 150.042 24.3854 143.653 20.886 140.48Z" fill="#FFAC8A"/>
<path d="M20.6761 158.325L7.22564 152.741L-20.0154 158.649L-20.0364 160.558L7.20539 154.576L18.8821 159.333L30.0379 168.783L36.7639 171.502L31.6832 173.303L39.9882 175.702L40.0187 173.886L37.1214 173.122L39.6784 170.703C36.9374 169.669 31.8454 168.246 31.5471 168.066C31.2489 167.886 24.1755 161.497 20.6761 158.325Z" fill="#FFAC8A"/>
<path d="M20.4663 176.17L7.01578 170.586L-16.3847 174.461L-16.4057 176.37L6.99552 172.421L18.6724 177.178L29.8282 186.628L36.5543 189.347L31.4736 191.148L39.7786 193.547L39.8091 191.731L36.9118 190.967L39.4688 188.548C36.7277 187.514 31.6358 186.09 31.3375 185.911C31.0392 185.731 23.9658 179.342 20.4663 176.17Z" fill="#FFAC8A"/>
<path d="M20.2566 194.015L6.80607 188.431L-20.7532 192.704L-18.1232 194.587L6.78581 190.266L18.4626 195.023L29.6184 204.473L36.3445 207.192L31.2638 208.993L39.5687 211.392L39.5993 209.576L36.702 208.811L39.259 206.393C36.5179 205.359 31.426 203.935 31.1277 203.756C30.8294 203.576 23.756 197.187 20.2566 194.015Z" fill="#FFAC8A"/>
<path d="M19.8643 211.892L6.41371 206.308L-8.65332 209.243L-8.67438 211.152L6.39346 208.144L18.0704 212.9L29.2263 222.351L35.9524 225.07L30.8716 226.871L39.1767 229.27L39.2072 227.453L36.3099 226.689L38.8669 224.271C36.1258 223.236 31.0338 221.813 30.7355 221.634C30.4373 221.454 23.3638 215.065 19.8643 211.892Z" fill="#FFAC8A"/>
<path d="M7.78228 118.776L-27.1964 126.39L-27.228 129.254L6.91633 120.501L19.717 125.665L30.8336 137.058L33.154 137.73L37.5268 135.851L30.7062 133.205L19.738 123.756L7.78228 118.776Z" fill="#F28463"/>
<path d="M7.60369 136.661L-24.1417 143.476L-24.1733 146.34L7.01888 138.637L19.5384 143.549L30.655 154.942L32.9755 155.614L37.3483 153.735L30.5276 151.089L19.5595 141.64L7.60369 136.661Z" fill="#F28463"/>
<path d="M7.39413 154.505L-19.877 160.216L-19.9086 163.079L6.80932 156.481L19.3289 161.394L30.4456 172.787L32.766 173.459L37.1389 171.58L30.3182 168.933L19.35 159.485L7.39413 154.505Z" fill="#F28463"/>
<path d="M7.18419 172.35L-22.178 177.825L-21.8741 179.202L6.59937 174.326L19.1189 179.239L30.2355 190.632L32.556 191.303L36.9288 189.425L30.1081 186.778L19.14 177.33L7.18419 172.35Z" fill="#F28463"/>
<path d="M6.97419 190.195L-19.1803 194.653L-19.2119 197.516L6.38938 192.171L18.9089 197.084L30.0255 208.477L32.346 209.149L36.7188 207.27L29.8981 204.623L18.93 195.175L6.97419 190.195Z" fill="#F28463"/>
<path d="M6.58176 208.073L-12.3029 211.712L-12.3345 214.576L5.99695 210.049L18.5165 214.962L29.6332 226.355L31.9537 227.026L36.3265 225.148L29.5058 222.501L18.5376 213.053L6.58176 208.073Z" fill="#F28463"/>
<path d="M20.0923 125.596L6.8866 120.57L6.72379 135.328L20.4924 140.361L31.4535 150.47L40.328 154.095L40.4851 139.85L30.9442 137.1L20.0923 125.596Z" fill="#FEBFA8"/>
<path d="M19.914 143.48L6.70825 138.454L6.54544 153.212L20.3141 158.245L31.2753 168.354L40.1497 171.979L40.3069 157.734L30.7659 154.984L19.914 143.48Z" fill="#FEBFA8"/>
<path d="M19.7043 161.325L6.49854 156.299L6.33572 171.057L20.1044 176.09L31.0656 186.199L39.9401 189.824L40.0973 175.579L30.5563 172.829L19.7043 161.325Z" fill="#FEBFA8"/>
<path d="M19.4943 179.17L6.28864 174.144L6.12582 188.902L19.8945 193.935L30.8556 204.044L39.73 207.668L39.8872 193.424L30.3462 190.674L19.4943 179.17Z" fill="#FEBFA8"/>
<path d="M19.2849 197.015L6.07916 191.988L5.91635 206.747L19.685 211.78L30.6461 221.889L39.5205 225.513L39.6777 211.269L30.1368 208.518L19.2849 197.015Z" fill="#FEBFA8"/>
<path d="M18.8919 214.892L5.68597 209.866L5.52316 224.625L4.92208 265.206L28.7565 260.908L38.5277 259.146L39.285 229.146L29.744 226.396L18.8919 214.892Z" fill="#FEBFA8"/>
<path d="M7.00882 117.092L6.99683 87.9702L39.9916 108.24L40.1655 134.925L32.2122 132.854L21.0474 122.785L7.00882 117.092Z" fill="#FEBFA8"/>
<path d="M54.4387 132.284C53.0466 135.09 51.6903 142.37 45.707 146.44C39.7257 150.513 35.17 154.073 32.9348 155.213" stroke="#41613A"/>
<path d="M72.1006 136.157C68.6016 137.715 60.1026 139.231 54.0108 145.934C47.9189 152.637 42.7659 157.74 40.9153 160.242" stroke="#41613A" stroke-width="3"/>
<path d="M57.233 119.238C56.508 120.606 54.9054 123.596 53.7883 125.552C52.6711 127.508 53.715 131.119 54.3756 132.681C54.8026 132.417 55.932 131.48 57.9459 128.261L57.233 119.238Z" fill="#3A6933"/>
<path d="M87.43 133.038C85.7105 133.851 81.9507 135.645 79.477 136.893C77.0012 138.143 73.2239 136.971 71.6428 136.23C72.0494 135.75 73.3863 134.482 77.5075 132.232L87.43 133.038Z" fill="#A3A43F"/>
<path d="M65.0235 131.696C63.4674 131.878 60.0547 132.266 57.7776 132.462C55.5025 132.66 53.3343 135.483 52.5346 136.869C53.0255 137.061 54.507 137.437 58.3677 137.251L65.0235 131.696Z" fill="#034326"/>
<path d="M75.4698 124.298C74.8656 126.042 73.5578 129.865 72.7561 132.416C71.9501 134.966 68.2352 137.392 66.4776 138.289C66.3885 137.739 66.3447 136.08 67.5453 131.752L75.4698 124.298Z" fill="#A3A43F"/>
<path d="M59.7406 141.597C58.1735 141.711 54.7373 141.945 52.45 142.042C50.1607 142.137 47.8673 144.854 47.0067 146.202C47.4885 146.414 48.9576 146.855 52.8351 146.837L59.7406 141.597Z" fill="#034326"/>
<path d="M63.0278 130.21C62.4977 131.967 61.3575 135.817 60.6619 138.381C59.9662 140.945 56.3372 143.516 54.6078 144.479C54.495 143.937 54.3763 142.292 55.3878 137.948L63.0278 130.21Z" fill="#A3A43F"/>
<path d="M41.5107 137.079C40.9032 138.509 39.5591 141.631 38.6141 143.68C37.6691 145.728 38.9638 149.257 39.7318 150.77C40.13 150.469 41.1701 149.441 42.8946 146.054L41.5107 137.079Z" fill="#3A6933"/>
<path d="M63.4192 150.645C61.6624 151.324 57.8223 152.828 55.285 153.886C52.7498 154.943 49.1276 153.49 47.63 152.628C48.0698 152.182 49.4851 151.019 53.7222 149.086L63.4192 150.645Z" fill="#3A6933"/>
<path d="M50.0751 150.609C48.8013 150.265 46.0157 149.493 44.1712 148.924C42.3267 148.355 39.9665 150.202 39.0165 151.196C39.3615 151.53 40.4453 152.361 43.5443 153.458L50.0751 150.609Z" fill="#034326"/>
<path d="M50.4606 141.034C50.5209 142.462 50.6712 145.586 50.8355 147.654C50.9998 149.723 48.3276 152.365 46.9699 153.427C46.6813 153.042 46.0316 151.823 45.5939 148.351L50.4606 141.034Z" fill="#A3A43F"/>
<path d="M45.0877 132.093C44.9042 133.662 44.4837 137.095 44.1479 139.363C43.8121 141.631 45.9947 144.735 47.1299 146.004C47.4242 145.599 48.1261 144.305 48.8336 140.508L45.0877 132.093Z" fill="#3A6933"/>
<path d="M69.9216 146.637C68.1164 146.842 64.1666 147.308 61.5391 147.684C58.9115 148.06 55.9952 145.611 54.8644 144.339C55.3929 144.009 57.0203 143.224 61.4559 142.432L69.9216 146.637Z" fill="#3A6933"/>
<path d="M49.1619 124.88C49.0822 126.465 48.8882 129.933 48.7005 132.228C48.5127 134.522 50.8855 137.489 52.0945 138.683C52.3617 138.257 52.9734 136.915 53.4294 133.063L49.1619 124.88Z" fill="#3A6933"/>
<path d="M79.041 142.079C77.2449 142.167 73.3117 142.381 70.6945 142.589C68.0772 142.797 65.3612 140.136 64.3302 138.779C64.8749 138.48 66.5362 137.795 70.9673 137.286L79.041 142.079Z" fill="#3A6933"/>
<path d="M58.3911 94.8728C55.2814 95.2436 48.4491 98.0929 41.7684 95.3122C35.087 92.5344 29.6149 90.6694 27.4382 89.4218" stroke="#41613A"/>
<path d="M64.8193 111.778C61.6004 109.702 55.6799 103.417 46.7374 101.986C37.795 100.556 30.7057 99.0348 27.5996 98.8551" stroke="#41613A" stroke-width="3"/>
<path d="M70.8348 90.0706C69.2931 90.2127 65.9146 90.5076 63.6667 90.6431C61.4188 90.7787 58.9699 93.6288 58.0241 95.0372C58.479 95.2501 59.8809 95.6828 63.6765 95.6066L70.8348 90.0706Z" fill="#3A6933"/>
<path d="M75.8199 122.904C74.1987 121.909 70.6392 119.744 68.2412 118.357C65.8404 116.968 64.7529 113.165 64.5077 111.435C65.1314 111.513 66.9241 111.938 71.0629 114.156L75.8199 122.904Z" fill="#A3A43F"/>
<path d="M64.6775 103.411C63.6727 102.209 61.4808 99.5639 60.0702 97.7649C58.6589 95.969 55.1101 95.6993 53.5135 95.7881C53.6216 96.3041 54.1178 97.7503 56.387 100.88L64.6775 103.411Z" fill="#034326"/>
<path d="M76.5849 108.107C74.7949 108.556 70.8805 109.554 68.3082 110.279C65.7338 111 61.6704 109.218 59.9581 108.238C60.3696 107.862 61.7327 106.918 66.0108 105.554L76.5849 108.107Z" fill="#A3A43F"/>
<path d="M53.5027 104.409C52.5498 103.159 50.4731 100.411 49.1397 98.5491C47.8071 96.6845 44.278 96.2523 42.6795 96.2696C42.7655 96.7892 43.2008 98.2604 45.3391 101.496L53.5027 104.409Z" fill="#034326"/>
<path d="M64.8282 100.927C63.0677 101.446 59.2232 102.598 56.6972 103.42C54.1711 104.241 50.0339 102.61 48.2814 101.69C48.6729 101.299 49.9848 100.298 54.1721 98.7676L64.8282 100.927Z" fill="#A3A43F"/>
<path d="M47.3033 86.6743C45.7742 86.9488 42.4263 87.5326 40.1952 87.8629C37.9641 88.1932 35.7208 91.2086 34.8756 92.6797C35.3454 92.8482 36.775 93.1561 40.552 92.7461L47.3033 86.6743Z" fill="#3A6933"/>
<path d="M47.9465 112.442C46.4167 111.343 43.0569 108.951 40.7826 107.406C38.511 105.862 37.7433 102.035 37.6447 100.309C38.2591 100.433 40.0065 100.981 43.9426 103.471L47.9465 112.442Z" fill="#3A6933"/>
<path d="M40.6717 101.251C40.2625 99.9961 39.3836 97.2414 38.85 95.3857C38.3164 93.53 35.4791 92.5654 34.1278 92.314C34.0368 92.7859 33.9351 94.1479 34.7134 97.343L40.6717 101.251Z" fill="#034326"/>
<path d="M48.8932 96.3321C47.7322 97.1638 45.201 98.9997 43.5605 100.27C41.9199 101.539 38.2462 100.749 36.6152 100.193C36.7792 99.7411 37.4428 98.5303 40.1083 96.2631L48.8932 96.3321Z" fill="#A3A43F"/>
<path d="M53.4324 86.9395C52.0192 87.645 48.9175 89.1719 46.836 90.1324C44.7545 91.093 43.3529 94.6192 42.9129 96.2639C43.4123 96.2889 44.8788 96.1683 48.4426 94.6821L53.4324 86.9395Z" fill="#3A6933"/>
<path d="M54.8593 115.691C53.6996 114.292 51.147 111.241 49.3943 109.247C47.6417 107.253 48.0939 103.471 48.5395 101.828C49.1047 102.09 50.6521 103.022 53.7426 106.302L54.8593 115.691Z" fill="#3A6933"/>
<path d="M61.697 86.4022C60.3274 87.2031 57.32 88.939 55.2977 90.0379C53.2754 91.1368 52.092 94.7473 51.7547 96.4132C52.2574 96.4036 53.7154 96.1809 57.1873 94.4541L61.697 86.4022Z" fill="#3A6933"/>
<path d="M63.6646 120.83C62.6074 119.375 60.2751 116.2 58.6685 114.122C57.0618 112.045 57.8014 108.315 58.3727 106.708C58.9205 107.001 60.4034 108.017 63.2542 111.448L63.6646 120.83Z" fill="#3A6933"/>
<path d="M25.391 91.8728C22.2813 92.2436 15.449 95.0929 8.76841 92.3122C2.08696 89.5344 -3.38513 87.6694 -5.56179 86.4218" stroke="#41613A"/>
<path d="M31.8193 108.778C28.6004 106.702 22.6798 100.417 13.7374 98.9861C4.79495 97.5556 -2.29437 96.0348 -5.40041 95.8551" stroke="#41613A" stroke-width="3"/>
<path d="M37.8348 87.0706C36.2931 87.2127 32.9146 87.5076 30.6667 87.6431C28.4188 87.7787 25.9699 90.6288 25.0241 92.0372C25.479 92.2501 26.8809 92.6828 30.6765 92.6066L37.8348 87.0706Z" fill="#3A6933"/>
<path d="M42.8199 119.904C41.1987 118.909 37.6392 116.744 35.2412 115.357C32.8404 113.968 31.7529 110.165 31.5077 108.435C32.1314 108.513 33.9241 108.938 38.0629 111.156L42.8199 119.904Z" fill="#A3A43F"/>
<path d="M31.6775 100.411C30.6727 99.2088 28.4808 96.5639 27.0702 94.7649C25.6589 92.969 22.1101 92.6993 20.5135 92.7881C20.6216 93.3041 21.1178 94.7503 23.387 97.8803L31.6775 100.411Z" fill="#034326"/>
<path d="M43.5849 105.107C41.7949 105.556 37.8805 106.554 35.3082 107.279C32.7338 108 28.6704 106.218 26.9581 105.238C27.3696 104.862 28.7327 103.918 33.0108 102.554L43.5849 105.107Z" fill="#A3A43F"/>
<path d="M20.5027 101.409C19.5498 100.159 17.4731 97.4108 16.1397 95.5491C14.8071 93.6845 11.278 93.2523 9.67955 93.2696C9.76555 93.7892 10.2008 95.2604 12.3391 98.4963L20.5027 101.409Z" fill="#034326"/>
<path d="M31.8282 97.9274C30.0677 98.4458 26.2232 99.5984 23.6972 100.42C21.1711 101.241 17.0339 99.6101 15.2814 98.6897C15.6729 98.2988 16.9848 97.2984 21.1721 95.7676L31.8282 97.9274Z" fill="#A3A43F"/>
<path d="M14.3033 83.6743C12.7742 83.9488 9.42629 84.5326 7.19518 84.8629C4.96408 85.1932 2.72076 88.2086 1.8756 89.6797C2.3454 89.8482 3.77493 90.1561 7.55202 89.7461L14.3033 83.6743Z" fill="#3A6933"/>
<path d="M14.9465 109.442C13.4168 108.343 10.057 105.951 7.78262 104.406C5.51107 102.862 4.74334 99.035 4.64473 97.3094C5.25916 97.4331 7.00652 97.9815 10.9426 100.471L14.9465 109.442Z" fill="#3A6933"/>
<path d="M7.67172 98.2508C7.26251 96.9961 6.38359 94.2414 5.85002 92.3857C5.31645 90.53 2.47911 89.5654 1.12779 89.314C1.03682 89.7859 0.935095 91.1479 1.71347 94.343L7.67172 98.2508Z" fill="#034326"/>
<path d="M15.8932 93.3321C14.7322 94.1638 12.201 95.9997 10.5605 97.2695C8.91986 98.5394 5.24615 97.7491 3.61522 97.1934C3.77924 96.7411 4.44279 95.5303 7.10825 93.2631L15.8932 93.3321Z" fill="#A3A43F"/>
<path d="M20.4324 83.9395C19.0192 84.645 15.9175 86.1719 13.836 87.1324C11.7545 88.093 10.3529 91.6192 9.91286 93.2639C10.4123 93.2889 11.8788 93.1683 15.4426 91.6821L20.4324 83.9395Z" fill="#3A6933"/>
<path d="M21.8593 112.691C20.6996 111.292 18.147 108.241 16.3943 106.247C14.6417 104.253 15.0939 100.471 15.5395 98.8277C16.1047 99.0896 17.6521 100.022 20.7426 103.302L21.8593 112.691Z" fill="#3A6933"/>
<path d="M28.697 83.4022C27.3274 84.2031 24.32 85.939 22.2977 87.0379C20.2754 88.1368 19.092 91.7473 18.7547 93.4132C19.2574 93.4036 20.7154 93.1809 24.1873 91.4541L28.697 83.4022Z" fill="#3A6933"/>
<path d="M30.6646 117.83C29.6074 116.375 27.2751 113.2 25.6685 111.122C24.0618 109.045 24.8014 105.315 25.3727 103.708C25.9205 104.001 27.4034 105.017 30.2542 108.448L30.6646 117.83Z" fill="#3A6933"/>
</g>
<defs>
<linearGradient id="paint0_linear" x1="124.999" y1="294.494" x2="380.647" y2="6.92392" gradientUnits="userSpaceOnUse">
<stop offset="0.1245" stop-color="#D5EFF8"/>
<stop offset="0.491" stop-color="#99D9E5"/>
<stop offset="0.8077" stop-color="#42507F"/>
<stop offset="0.9569" stop-color="#262262"/>
</linearGradient>
<linearGradient id="paint1_linear" x1="1616.49" y1="250.549" x2="367.697" y2="250.549" gradientUnits="userSpaceOnUse">
<stop stop-color="#4A897A"/>
<stop offset="1" stop-color="#172A25"/>
</linearGradient>
<linearGradient id="paint2_linear" x1="523.402" y1="181.251" x2="523.402" y2="225.617" gradientUnits="userSpaceOnUse">
<stop offset="0.2847" stop-color="#635554"/>
<stop offset="1" stop-color="#272931"/>
</linearGradient>
<linearGradient id="paint3_linear" x1="536.732" y1="214.038" x2="536.732" y2="251.399" gradientUnits="userSpaceOnUse">
<stop offset="0.2847" stop-color="#635554"/>
<stop offset="1" stop-color="#272931"/>
</linearGradient>
<linearGradient id="paint4_linear" x1="727.614" y1="259.445" x2="727.614" y2="325.324" gradientUnits="userSpaceOnUse">
<stop offset="0.0718" stop-color="#635554"/>
<stop offset="0.9384" stop-color="#272931"/>
</linearGradient>
<linearGradient id="paint5_linear" x1="298.26" y1="245.288" x2="353.178" y2="208.305" gradientUnits="userSpaceOnUse">
<stop offset="0.2545" stop-color="#8DC63F"/>
<stop offset="0.6156" stop-color="#2BB673"/>
<stop offset="0.9885" stop-color="#006838"/>
</linearGradient>
<linearGradient id="paint6_linear" x1="94.2532" y1="350.356" x2="219.105" y2="129.594" gradientUnits="userSpaceOnUse">
<stop offset="8.07343e-08" stop-color="#A7A9AC"/>
<stop offset="0.5013" stop-color="#6D6E71"/>
<stop offset="1" stop-color="#414042"/>
</linearGradient>
<linearGradient id="paint7_linear" x1="513.681" y1="248.84" x2="541.765" y2="261.749" gradientUnits="userSpaceOnUse">
<stop stop-color="#9ED3F2"/>
<stop offset="1" stop-color="#06BAE6" stop-opacity="0.5"/>
</linearGradient>
<linearGradient id="paint8_linear" x1="450.543" y1="265.295" x2="464.384" y2="244.126" gradientUnits="userSpaceOnUse">
<stop stop-color="#9ED3F2"/>
<stop offset="1" stop-color="#06BAE6" stop-opacity="0.5"/>
</linearGradient>
<linearGradient id="paint9_linear" x1="528.195" y1="276.809" x2="469.119" y2="276.809" gradientUnits="userSpaceOnUse">
<stop stop-color="#CFE0CB"/>
<stop offset="1" stop-color="#8DA088"/>
</linearGradient>
<linearGradient id="paint10_linear" x1="528.195" y1="272.899" x2="490.956" y2="272.899" gradientUnits="userSpaceOnUse">
<stop stop-color="#CFE0CB"/>
<stop offset="1" stop-color="#A7BAA0" stop-opacity="0.55"/>
</linearGradient>
<linearGradient id="paint11_linear" x1="585.959" y1="273.531" x2="588.805" y2="270.558" gradientUnits="userSpaceOnUse">
<stop stop-color="#DBB25C"/>
<stop offset="1" stop-color="#8E7749"/>
</linearGradient>
<linearGradient id="paint12_linear" x1="588.567" y1="272.178" x2="589.527" y2="271.178" gradientUnits="userSpaceOnUse">
<stop offset="0.00130765" stop-color="#F8F8F9"/>
<stop offset="1" stop-color="#D0EBE5"/>
</linearGradient>
<linearGradient id="paint13_linear" x1="434.603" y1="255.646" x2="434.603" y2="258.981" gradientUnits="userSpaceOnUse">
<stop stop-color="#DBB25C"/>
<stop offset="1" stop-color="#8E7749"/>
</linearGradient>
<linearGradient id="paint14_linear" x1="435.261" y1="257.897" x2="435.261" y2="259.022" gradientUnits="userSpaceOnUse">
<stop offset="0.00130765" stop-color="#F8F8F9"/>
<stop offset="1" stop-color="#D0EBE5"/>
</linearGradient>
<linearGradient id="paint15_linear" x1="437.235" y1="256.704" x2="440.36" y2="255.086" gradientUnits="userSpaceOnUse">
<stop stop-color="#DBB25C"/>
<stop offset="1" stop-color="#8E7749"/>
</linearGradient>
<linearGradient id="paint16_linear" x1="439.118" y1="255.169" x2="440.17" y2="254.626" gradientUnits="userSpaceOnUse">
<stop offset="0.00130765" stop-color="#F8F8F9"/>
<stop offset="1" stop-color="#D0EBE5"/>
</linearGradient>
<linearGradient id="paint17_linear" x1="426.681" y1="260.162" x2="429.576" y2="258.203" gradientUnits="userSpaceOnUse">
<stop stop-color="#DBB25C"/>
<stop offset="1" stop-color="#8E7749"/>
</linearGradient>
<linearGradient id="paint18_linear" x1="428.366" y1="258.438" x2="429.341" y2="257.78" gradientUnits="userSpaceOnUse">
<stop offset="0.00130765" stop-color="#F8F8F9"/>
<stop offset="1" stop-color="#D0EBE5"/>
</linearGradient>
<linearGradient id="paint19_linear" x1="434.562" y1="263.211" x2="437.457" y2="261.252" gradientUnits="userSpaceOnUse">
<stop stop-color="#DBB25C"/>
<stop offset="1" stop-color="#8E7749"/>
</linearGradient>
<linearGradient id="paint20_linear" x1="436.249" y1="261.487" x2="437.223" y2="260.83" gradientUnits="userSpaceOnUse">
<stop offset="0.00130765" stop-color="#F8F8F9"/>
<stop offset="1" stop-color="#D0EBE5"/>
</linearGradient>
<linearGradient id="paint21_linear" x1="381.793" y1="251.578" x2="373.4" y2="244.98" gradientUnits="userSpaceOnUse">
<stop stop-color="#4AB0C9"/>
<stop offset="1" stop-color="#015F73"/>
</linearGradient>
<linearGradient id="paint22_linear" x1="393.453" y1="258.308" x2="394.054" y2="252.799" gradientUnits="userSpaceOnUse">
<stop stop-color="#4AB0C9"/>
<stop offset="1" stop-color="#015F73"/>
</linearGradient>
<linearGradient id="paint23_linear" x1="1616.5" y1="151.917" x2="237.048" y2="151.917" gradientUnits="userSpaceOnUse">
<stop offset="0.0665" stop-color="#CFE0CB"/>
<stop offset="0.9633" stop-color="#172A25"/>
</linearGradient>
<radialGradient id="paint24_radial" cx="0" cy="0" r="1" gradientUnits="userSpaceOnUse" gradientTransform="translate(315.256 165.888) rotate(180) scale(146.815 137.026)">
<stop stop-color="white"/>
<stop offset="1" stop-color="#A7A9AC"/>
</radialGradient>
<radialGradient id="paint25_radial" cx="0" cy="0" r="1" gradientUnits="userSpaceOnUse" gradientTransform="translate(314.322 158.395) rotate(180) scale(147.497 137.662)">
<stop stop-color="white"/>
<stop offset="1" stop-color="#A7A9AC"/>
</radialGradient>
<radialGradient id="paint26_radial" cx="0" cy="0" r="1" gradientUnits="userSpaceOnUse" gradientTransform="translate(312.037 166.342) rotate(180) scale(148.466 138.567)">
<stop stop-color="white"/>
<stop offset="1" stop-color="#A7A9AC"/>
</radialGradient>
<radialGradient id="paint27_radial" cx="0" cy="0" r="1" gradientUnits="userSpaceOnUse" gradientTransform="translate(299.456 167.088) rotate(180) scale(143.815 134.225)">
<stop stop-color="white"/>
<stop offset="1" stop-color="#A7A9AC"/>
</radialGradient>
<radialGradient id="paint28_radial" cx="0" cy="0" r="1" gradientUnits="userSpaceOnUse" gradientTransform="translate(302.697 164.684) rotate(180) scale(146.535 136.765)">
<stop stop-color="white"/>
<stop offset="1" stop-color="#A7A9AC"/>
</radialGradient>
<radialGradient id="paint29_radial" cx="0" cy="0" r="1" gradientUnits="userSpaceOnUse" gradientTransform="translate(312.003 151.81) rotate(180) scale(143.915 134.319)">
<stop stop-color="white"/>
<stop offset="1" stop-color="#A7A9AC"/>
</radialGradient>
<radialGradient id="paint30_radial" cx="0" cy="0" r="1" gradientUnits="userSpaceOnUse" gradientTransform="translate(316.676 161.619) rotate(180) scale(145.2 135.519)">
<stop stop-color="white"/>
<stop offset="1" stop-color="#A7A9AC"/>
</radialGradient>
<radialGradient id="paint31_radial" cx="0" cy="0" r="1" gradientUnits="userSpaceOnUse" gradientTransform="translate(306.837 168.166) rotate(180) scale(143.341 133.785)">
<stop stop-color="white"/>
<stop offset="1" stop-color="#A7A9AC"/>
</radialGradient>
<radialGradient id="paint32_radial" cx="0" cy="0" r="1" gradientUnits="userSpaceOnUse" gradientTransform="translate(305.17 156.366) rotate(180) scale(146.383 136.622)">
<stop stop-color="white"/>
<stop offset="1" stop-color="#A7A9AC"/>
</radialGradient>
<radialGradient id="paint33_radial" cx="0" cy="0" r="1" gradientUnits="userSpaceOnUse" gradientTransform="translate(312.783 166.295) rotate(180) scale(144.163 134.551)">
<stop stop-color="white"/>
<stop offset="1" stop-color="#A7A9AC"/>
</radialGradient>
<radialGradient id="paint34_radial" cx="0" cy="0" r="1" gradientUnits="userSpaceOnUse" gradientTransform="translate(306.39 151.365) rotate(180) scale(144.98 135.314)">
<stop stop-color="white"/>
<stop offset="1" stop-color="#A7A9AC"/>
</radialGradient>
<radialGradient id="paint35_radial" cx="0" cy="0" r="1" gradientUnits="userSpaceOnUse" gradientTransform="translate(313.511 154.553) rotate(180) scale(143.165 133.619)">
<stop stop-color="white"/>
<stop offset="1" stop-color="#A7A9AC"/>
</radialGradient>
<clipPath id="clip0">
<rect width="610" height="307" fill="white" transform="matrix(-1 0 0 1 610 0)"/>
</clipPath>
</defs>
</svg>
