<svg width="610" height="307" viewBox="0 0 610 307" fill="none" xmlns="http://www.w3.org/2000/svg">
<g clip-path="url(#clip0)">
<path d="M111.703 309.897C109.914 262.357 98.8123 163.957 28.1164 64.8816C9.43949 38.7064 -11.0768 15.7354 -32.5019 -4.41846H-230.05V309.894L111.7 309.533" fill="url(#paint0_linear)"/>
<path d="M1346.84 310.141V192.852L1339.68 198.931L1327.28 208.323L1307.8 215.505L1292.44 222.135L1273.55 227.66L1246.38 229.317L1219.81 227.107L1213.9 223.241L1187.92 228.767L1179.06 229.873L1156.03 226.557L1140.68 227.11L1128.87 227.663L1109.42 226.522L1068.22 214.938H1024.61L1006.43 219.747H977.351L935.785 217.334L904.341 213.205H877.384L863.973 215.269L843.694 217.334H828.574L809.698 215.269H786.043L772.426 220.021L745.286 223.893L722.026 218.551L701.152 216.152L674.911 216.926L657.433 218.551H645.689H627.159H618.256H609.31H596.188L578.296 213.208H567.56H547.879L535.556 214.699L523.517 214.358L512.788 213.208L498.655 214.358L473.269 213.208L459.662 214.018L435.583 213.208H412.292L354.193 216.396L327.763 213.208H312.661L265.914 216.157L230.207 218.554L201.048 213.211L145.703 218.554L115.945 216.157L98.0561 215.77H98.053C107.951 254.591 110.87 287.574 111.745 309.783L1346.84 310.141Z" fill="url(#paint1_linear)"/>
<path d="M507.123 116.992V139.128L495.597 164.782L481.467 173.193L465.854 184.969L461.02 199.679L469.572 216.512L475.892 219.455L484.815 221.559L485.557 229.129L498.943 232.914L479.05 230.657L470.201 229.373L466.797 234.25L455.904 230.4H447.281L444.104 235.02L436.163 234.25L427.93 239.642L431.276 232.914L437.224 230.81L443.918 226.604L442.058 215.67L439.828 201.791L429.418 182.446L427.186 169.408L410.085 153.007L400.789 139.128L395.957 124.83L391.275 114.196L393.742 100.807L388.153 89.8331L391.604 79.6049H394.071L392.098 86.4861L394.071 95.0418L397.195 97.6451V104.711L395.551 110.477L401.533 116.992L403.763 123.988L411.943 133.241L413.803 147.539L423.097 151.744L418.672 141.231V129.035L414.547 116.992L415.443 110.848L414.622 96.7143L411.663 79.6049H414.622L419.586 93.5542L428.463 72.6991L432.706 71.608L425.636 90.392L429.911 106.758L431.883 107.686L433.692 103.107L432.706 93.9261L435.83 87.7888L439.776 84.0698L440.762 86.4861L438.132 88.1606L436.159 93.3672L436.98 100.061L434.515 107.686V111.407L439.939 111.964L448.981 109.733L447.638 99.1327L448.324 92.9953L450.133 93.5542V100.061L450.298 106.386L451.613 110.664L450.627 112.523L447.638 112.708L439.61 115.498L434.679 114.754L433.878 116.992L436.482 130.296L434.994 148.38L436.854 159.314L436.11 171.092L444.66 183.288L455.072 168.146V155.108L459.532 135.343V116.992L455.63 108.87L452.209 100.467L454.818 90.4749L449.197 82.0722L451.613 78.2299L454.076 80.4131L458.005 83.8891L462.448 71.3892V83.8891L463.451 96.8333L471.08 103.107L471.078 111.422L475.52 116.992L472.918 143.754L475.52 152.586L469.944 166.465L479.981 156.371L486.301 141.652L486.673 116.992L483.938 107.831L485.013 95.6687L483.292 85.2088H486.948L487.378 96.3976L486.733 104.669L491.034 108.804L491.879 116.992L492.251 129.035L489.647 148.801L484.071 160.997L488.161 159.735L495.969 152.165L500.429 134.501L501.917 116.992L499.779 109.087L494.489 102.125L495.473 93.3566L503.225 85.4214L508.887 79.5751L509.871 75.1209L512.579 72.8916L514.177 74.1454L511.594 75.8158L511.348 79.7133L507.903 84.0294V88.9023L502.61 90.9892L498.426 93.7731V98.9244L500.517 105.049L505.44 106.998L507.123 116.992Z" fill="#162B26"/>
<path d="M335.235 155.04V167.68L328.659 182.329L320.596 187.132L311.687 193.856L308.929 202.255L313.809 211.867L317.415 213.548L322.507 214.749L322.93 219.072L330.568 221.233L319.217 219.944L314.168 219.211L312.225 221.996L306.01 219.797H301.09L299.277 222.435L294.746 221.996L290.048 225.075L291.957 221.233L295.351 220.031L299.171 217.63L298.109 211.387L296.837 203.461L290.897 192.415L289.624 184.97L279.865 175.605L274.561 167.68L271.804 159.515L269.133 153.443L270.54 145.798L267.351 139.532L269.32 133.691H270.728L269.602 137.621L270.728 142.506L272.511 143.993V148.027L271.573 151.319L274.986 155.04L276.258 159.035L280.926 164.318L281.987 172.483L287.29 174.884L284.765 168.881V161.917L282.411 155.04L282.923 151.532L282.454 143.461L280.766 133.691H282.454L285.287 141.657L290.352 129.748L292.773 129.125L288.739 139.851L291.178 149.196L292.304 149.726L293.336 147.111L292.773 141.869L294.556 138.364L296.807 136.241L297.37 137.621L295.869 138.577L294.743 141.55L295.212 145.372L293.805 149.726V151.851L296.9 152.169L302.06 150.895L301.293 144.842L301.684 141.337L302.717 141.657V145.372L302.811 148.984L303.562 151.426L302.999 152.488L301.293 152.594L296.713 154.187L293.899 153.762L293.442 155.04L294.928 162.636L294.079 172.963L295.14 179.206L294.716 185.932L299.594 192.896L305.535 184.25V176.805L308.08 165.518V155.04L305.853 150.402L303.901 145.604L305.39 139.898L302.183 135.1L303.562 132.906L304.967 134.153L307.209 136.138L309.744 129V136.138L310.316 143.529L314.669 147.111L314.668 151.859L317.202 155.04L315.718 170.321L317.202 175.365L314.021 183.29L319.748 177.526L323.355 169.121L323.567 155.04L322.006 149.809L322.619 142.864L321.637 136.891H323.723L323.969 143.28L323.601 148.003L326.055 150.364L326.537 155.04L326.75 161.917L325.264 173.203L322.082 180.168L324.416 179.447L328.871 175.124L331.416 165.038L332.265 155.04L331.045 150.526L328.026 146.551L328.588 141.544L333.011 137.013L336.242 133.674L336.804 131.131L338.348 129.858L339.261 130.574L337.787 131.528L337.646 133.753L335.68 136.218V139L332.66 140.192L330.273 141.782V144.723L331.466 148.22L334.275 149.333L335.235 155.04Z" fill="#162B26"/>
<path d="M528.795 121.267L524.34 136.685V149.31L528.053 164.459L526.939 175.821L524.34 187.185L526.567 204.008L535.109 228.427L531.059 238.106V248.626L539.194 255.361L542.053 261.256L547.638 266.648L545.363 271.805L554.258 280.011L563.567 286.748L575.298 293.991L580.16 299.805L603.394 306.699H461.769L467.918 302.197L474.039 296.385L482.1 291.939L489.714 286.748L492.197 282.355L498.198 277.666L500.489 270.164L504.196 263.365L508.692 259.693L511.137 254.153L517.42 250.593L523.37 250.395L524.402 246.636L523.37 235.757L526.847 228.239L521.61 210.043L521.959 197.975L519.69 191.449L516.373 180.767L513.2 178.985V171.47L510.788 162.371L500.489 145.556V128.544L499.787 116.993L502.442 113.863L503.981 137.05L506.773 147.534L511.312 158.018L514.628 166.128L518.469 177.799L521.261 178.787L513.93 160.591L513.2 153.865L511.312 131.513L511.773 121.267L514.825 129.029L514.453 149.512L516.547 152.085L517.945 139.226L518.469 121.267L517.046 118.171L517.247 109.608L511.404 100.589L510.698 95.6791L507.071 87.1157L509.691 83.4623L510.498 84.9466L509.086 86.8881L510.297 90.9987L513.016 94.5372L513.52 99.2177L516.845 104.927L520.773 108.581L518.859 113.148V116.459L520.563 121.267L520.039 139.028L518.469 147.534L516.547 157.424L519.341 165.337L523.878 180.174L526.321 164.546L520.563 151.689L521.959 144.172V134.677L524.34 121.267L527.408 115.779L527.175 108.659L531.059 97.4548L534.037 92.4468L536.364 93.7653L532.581 97.8503L530.549 104.706L529.386 110.769L533.921 113.142L537.527 110.505V99.828L542.646 93.8971L541.599 82.0333L542.181 79.9238H544.041L543.924 83.3518L544.506 93.3697L543.575 98.114L539.273 101.146L539.738 111.033L536.597 115.647L532.581 115.911L531.059 118.941L528.795 121.267Z" fill="#162B26"/>
<path d="M602.018 222.812L603.66 230.527L608.211 237.672L556.587 237.691L556.717 235.684L560.2 228.657L565.175 222.812L570.356 210.586L568.245 199.723L567.669 177.127L568.054 149.318L566.918 148.254L552.739 146.852L546.959 138.28L523.21 131.686L519.434 128.837L516.695 126.992L512.772 125.65L506.181 125.902L501.746 126.249L506.59 124.93H512.958L517.174 126.249L523.092 130.312L532.062 132.545L547.578 135.795L554.037 144.123L568.836 145.265L565.249 139.858L558.343 135.592L550.27 131.53L537.533 114.774L534.036 108.58L530.358 99.5594H531.41L539.058 112.438L550.719 128.178L553.051 128.383L565.158 137.217L555.741 122.413L556.548 119.445L554.126 118.125L553.768 116.298L550.449 114.063L547.22 112.641L545.785 109.392L546.771 109.493L548.467 111.931L550.359 112.743L550.18 111.017L548.467 107.97L549.373 107.767L551.166 110.914L551.256 113.453L554.216 115.078L554.575 116.093L555.741 115.179L554.485 107.666L551.794 99.5594L553.451 94.7397L556.33 89.2105L552.449 82.2019L554.005 81.0742H555.776L557.929 89.2105L556.109 94.99L557.983 99.5594L558.611 109.797L561.122 121.273L561.571 118.227L563.724 112.743L563.365 105.735L565.158 102.282L566.146 102.486L564.261 106.243L565.249 113.149L563.454 118.531L563.633 125.844L570.181 139.146L572.064 137.827L570.809 116.093V99.5594L570.118 89.2105L571.986 86.0538L571.411 79.3874L570.118 72.7209L571.411 68.766L574.858 68.766L574.427 72.7209L574.858 85.4029L577.299 96.4598L580.586 99.5594L580.227 123.406L579.419 132.444L581.213 143.614L582.918 148.388L582.379 153.365L585.429 143.614L588.747 122.898L590.631 110V99.5594L591.068 93.1606L586.948 86.7397L582.412 79.5172V74.7007H584.397V77.5897L585.956 81.7632L588.224 84.0107L589.784 86.9012L593.044 91.2346V95.7296L593.338 99.5816L595.474 99.5594L592.514 122.796L594.667 126.461L596.192 123.609L595.474 113.048L598.345 99.5594L599.616 96.2096L599.318 91.1982L598.798 73.3735L599.945 67L602.551 67.5892L600.57 74.4362L601.196 89.2105L603.188 99.5594V106.446L601.933 112.235V116.703L600.587 124.725L604.444 121.477L607.044 119.445L609.466 112.438V105.838H610.991L610.273 112.235L608.748 120.766L604.354 123.71L600.138 128.585L600.228 132.139L595.743 144.123H598.434L603.816 134.374L606.058 124.117L609.557 121.68L610.991 123.507L607.672 126.046L605.79 136.101L598.973 147.981L594.488 149.809L591.259 156.41L592.246 157.223L599.959 150.317L610.991 132.067L620.499 113.108L625.547 99.5594H631.581L626.532 113.247L624.069 119.8L626.04 118.125L628.502 117.568L635.643 109.064L636.249 109.9L628.416 118.578L626.417 119.05L624.085 121.881L619.503 126.314L614.755 134.236L614.005 137.727L622.502 129.803H624.669L629.25 125.086L632.749 118.485L633.357 118.781L629.755 126.004L624.869 130.489L630.99 126.761L635.054 119.83L635.651 120.432L631.604 127.497L624.52 131.826L621.598 132.526L616.674 139.113L610.23 143.47L602.8 154.518L611.573 152.896L624.014 149.044L627.148 146.511L628.311 146.815L628.132 149.348L623.835 151.781L614.975 155.43L605.486 160.091H603.427L601.429 163.118L594.713 170.602L592.367 175.068L592.688 180.138L597.591 183.156L608.145 176.638L613.156 168.308L619.872 162.274L628.081 143.443L632.132 135.477L632.772 127.028L638.102 110.732L639.807 111.095L634.371 127.873L633.518 134.149L638.102 129.2L644.391 109.405L646.631 111.215L645.138 117.612L640.021 128.476L645.565 122.803L648.763 114.234L650.043 114.958L646.844 123.286L641.087 129.805L638.315 131.976L636.503 135.839L631.492 142.116L626.802 153.341L631.386 151.531L634.798 147.547L638.955 147.186L642.899 143.806L652.494 140.426V141.357L643.362 144.726L639.504 147.859L635.062 148.6L632.37 152.063L639.722 149.755L649.84 149.506L655.955 143.903L656.391 144.726L650.858 149.755L652.315 150.167L657.265 149.837L656.391 150.826L653.989 151.073L651.296 151.402L649.84 150.496L647.511 150.661L638.702 151.567L632.951 154.122L643.58 153.71L647.219 155.359L655.955 154.618V155.606L648.529 156.182H646.564L643.435 155.112L628.511 155.688L628.002 158.656L624.362 163.848L621.815 165.415L616.62 170.656L613.861 176.009L606.572 182.143L601.943 186.382L596.13 187.05L592.684 189.839L590.91 193.52V199.431L593.668 202.33L598.373 209.5L602.018 222.812Z" fill="#162B26"/>
<path d="M381.85 207.605L383.204 213.975L386.956 219.875L344.394 219.891L344.502 218.234L347.373 212.431L351.474 207.605L355.746 197.51L354.006 188.54L353.531 169.882L353.848 146.92L352.911 146.041L341.222 144.883L336.456 137.805L316.876 132.361L313.764 130.008L311.506 128.485L308.271 127.377L302.837 127.585L299.18 127.871L303.174 126.782H308.424L311.9 127.871L316.78 131.226L324.175 133.07L336.967 135.753L342.292 142.63L354.493 143.573L351.536 139.108L345.842 135.586L339.186 132.232L328.685 118.396L325.802 113.281L322.77 105.833H323.637L329.942 116.467L339.556 129.464L341.479 129.633L351.461 136.928L343.696 124.704L344.362 122.253L342.366 121.163L342.07 119.654L339.334 117.809L336.672 116.635L335.488 113.952L336.302 114.036L337.699 116.049L339.26 116.72L339.112 115.294L337.699 112.778L338.447 112.61L339.925 115.209L339.999 117.305L342.439 118.647L342.736 119.486L343.696 118.731L342.661 112.527L340.443 105.833L341.809 101.854L344.182 97.288L340.983 91.5009L342.265 90.5697H343.725L345.5 97.288L344 102.06L345.545 105.833L346.063 114.287L348.133 123.762L348.503 121.247L350.278 116.72L349.982 110.932L351.461 108.081L352.275 108.25L350.721 111.352L351.536 117.054L350.056 121.498L350.203 127.536L355.602 138.521L357.154 137.431L356.12 119.486V105.833L355.55 97.288L357.09 94.6815L356.616 89.1769L355.55 83.6723L356.616 80.4067L359.458 80.4067L359.102 83.6723L359.458 94.144L361.47 103.274L364.18 105.833L363.884 125.524L363.218 132.986L364.697 142.21L366.103 146.152L365.659 150.261L368.173 142.21L370.909 125.104L372.462 114.454V105.833L372.822 100.55L369.426 95.2478L365.685 89.2842V85.3071H367.322V87.6925L368.608 91.1386L370.477 92.9944L371.763 95.3812L374.452 98.9594V102.671L374.694 105.852L376.455 105.833L374.015 125.02L375.789 128.047L377.047 125.691L376.455 116.971L378.821 105.833L379.87 103.067L379.624 98.9293L379.195 84.2111L380.141 78.9485L382.289 79.435L380.656 85.0887L381.172 97.288L382.814 105.833V111.52L381.78 116.3V119.989L380.67 126.613L383.85 123.931L385.994 122.253L387.99 116.467V111.017H389.247L388.656 116.3L387.399 123.344L383.776 125.775L380.3 129.8L380.374 132.735L376.676 142.63H378.895L383.332 134.58L385.181 126.111L388.065 124.098L389.247 125.607L386.512 127.704L384.959 136.006L379.339 145.816L375.642 147.325L372.98 152.776L373.793 153.447L380.152 147.745L389.247 132.675L397.086 117.02L401.249 105.833H406.223L402.061 117.135L400.03 122.546L401.655 121.163L403.684 120.703L409.572 113.681L410.071 114.372L403.614 121.538L401.966 121.927L400.043 124.264L396.265 127.925L392.351 134.467L391.733 137.349L398.738 130.806H400.524L404.301 126.911L407.186 121.46L407.688 121.705L404.718 127.669L400.689 131.372L405.736 128.294L409.086 122.571L409.579 123.068L406.242 128.902L400.402 132.476L397.993 133.054L393.933 138.493L388.62 142.091L382.495 151.213L389.727 149.874L399.985 146.693L402.568 144.602L403.528 144.853L403.38 146.944L399.837 148.953L392.532 151.966L384.709 155.815H383.011L381.365 158.315L375.828 164.494L373.893 168.182L374.158 172.368L378.2 174.86L386.902 169.478L391.033 162.6L396.57 157.618L403.337 142.069L406.677 135.491L407.205 128.515L411.599 115.059L413.005 115.358L408.524 129.212L407.82 134.395L411.599 130.308L416.785 113.963L418.631 115.457L417.401 120.74L413.182 129.71L417.752 125.025L420.389 117.95L421.444 118.548L418.806 125.424L414.061 130.807L411.775 132.6L410.281 135.79L406.15 140.973L402.283 150.241L406.062 148.747L408.875 145.457L412.303 145.159L415.554 142.368L423.465 139.578V140.347L415.936 143.128L412.755 145.715L409.093 146.327L406.873 149.186L412.935 147.281L421.277 147.075L426.318 142.448L426.678 143.128L422.116 147.281L423.317 147.621L427.399 147.349L426.678 148.165L424.698 148.369L422.477 148.641L421.277 147.893L419.357 148.029L412.094 148.777L407.353 150.886L416.116 150.546L419.116 151.908L426.318 151.296V152.112L420.196 152.588H418.576L415.996 151.704L403.692 152.18L403.273 154.631L400.272 158.918L398.172 160.211L393.888 164.539L391.614 168.959L385.604 174.024L381.788 177.524L376.996 178.076L374.154 180.379L372.692 183.418V188.299L374.966 190.692L378.845 196.613L381.85 207.605Z" fill="#162B26"/>
<path d="M231.258 224.761L242.924 226.563L260.807 225.532L276.491 223.734L284.746 226.563L295.553 222.445H301.528L320.512 216.785L325.189 214.983L337.571 216.27L345.55 218.071L359.851 220.387V217.448L346.894 215.612L330.794 211.206L310.77 206.8L297.028 204.597L282.895 199.455L278.575 194.683L272.293 192.11L274.256 182.198H231.258L227.328 187.111L213.058 191.56L210.68 199.345L200.275 204.379L186.897 219.916L172.032 221.863L153.897 222.142L147.655 224.921H158.954H186.897L204.734 224.645L219.897 222.419L231.258 224.761Z" fill="url(#paint2_linear)"/>
<path d="M231.259 243.802H261.085L276.765 241.485L295.554 242.516L316.471 243.802L327.116 242.516L337.021 241.485H346.101L356.005 239.943L361.781 236.34H368.384L379.39 232.482L392.873 233.509H398.649H408.003L394.523 230.68L378.289 226.563L371.138 223.219L359.852 220.387L345.55 218.071L337.571 216.27L325.19 214.983L320.513 216.785L301.528 222.445H295.554L284.746 226.563L276.491 223.734L260.808 225.532L242.925 226.563L231.259 224.761L220.355 219.794L211.761 214.983L195.259 219.794H178.76H167.07L157.103 227.922L141.289 234.03L126.163 239.495H150.568L174.977 237.245L188.385 236.925L208.667 239.495L224.824 246.569L231.259 243.802Z" fill="url(#paint3_linear)"/>
<path d="M403.877 228.07L411.351 229.959L417.876 231.178H427.607L436.503 232.065L448.49 232.732L464.506 231.844H474.709L487.641 230.401H509.71H516.472H544.512H559.376L563.789 231.114L555.431 228.859L538.954 228.07H513.469H499.416L486.836 227.296L475.4 224.697L464.618 222.253L462.004 220.876L460.769 221.877L458.628 220.876L456.754 219.794L455.416 220.21L453.543 221.377L451.673 220.21L449.532 220.128L447.568 219.794L446.053 220.876L443.999 220.629L441.594 221.295L439.273 221.127L437.399 222.462L434.904 224.715L430.177 225.381L425.836 225.585L421.187 226.263L419.666 226.612L415.776 226.772L411.973 227.482L408.591 228.195L403.877 228.07Z" fill="url(#paint4_linear)"/>
<path d="M576.016 228.867L579.156 230.825H585.133H597.842H606.813H616.531L627.446 228.867L631.184 226.769L642.097 225.931L649.422 226.911L657.646 225.931L667.662 224.674L672.747 223.835L668.559 222.156L662.88 221.458L658.99 222.436L654.805 222.855L648.376 217.262L653.009 212.789L654.058 206.777H644.639H619.073L620.567 210.272L616.531 212.509L611.598 217.122L604.121 218.801L600.683 222.715L593.656 225.34L589.471 228.867L581.097 229.987L576.016 228.867Z" fill="url(#paint5_linear)"/>
<path d="M103.833 241.855C109.092 269.201 110.956 292.455 111.625 309.421H111.656L231.259 309.782H233.655L624.007 309.421L629.394 308.266L637.123 304.762H650.709H654.692L661.955 301.695H669.451L674.371 299.725L683.507 297.754H693.11H701.543H709.742L704.822 296.003L694.75 293.593H685.147H678.121H668.518H661.022H652.122L654.698 290.089L663.598 287.68H674.601L679.521 286.804L676.008 284.394H678.818H685.61L689.124 282.861L692.637 283.3H699.196L705.989 284.394H713.252L724.495 283.3L731.521 279.575L737.611 276.947L742.294 276.071L738.781 274.977L743.231 273.662L757.05 273.223H768.762L785.158 273.004L801.554 271.689L812.094 271.471L806.004 271.031L797.104 269.498L779.535 265.994H773.679H762.203L758.69 263.584L762.673 260.517L768.762 259.423L774.852 258.329L779.535 256.577L764.543 255.701L752.597 255.919H738.308L726.128 256.577L716.992 256.795L711.37 258.547L717.693 259.862H722.612L720.036 262.49L711.836 264.242L698.484 264.46L683.258 264.242L674.592 264.024L665.222 265.994L656.79 266.433L660.303 268.24L666.392 271.252L657.96 271.692L642.967 271.252L631.724 271.692L617.672 271.474L610.409 272.789L605.023 274.323L609.942 276.95L624.231 278.702L621.185 281.944H602.063H591.745H581.426H573.995L566.565 277.311H554.18H537.669H514.966H488.961L468.734 273.45H438.6H415.486H393.197L376.272 271.133L346.138 263.413H316.455H295.541L275.968 259.551L255.742 254.534H231.243H217.629H175.901H147.643L128.68 246.211L115.502 241.834H103.97" fill="url(#paint6_linear)"/>
<path d="M98.1745 215.773H-231.807L-232 309.897L111.672 309.897H111.703C110.873 287.812 108.038 254.764 98.1745 215.773Z" fill="url(#paint7_linear)"/>
<path d="M107.214 242.378H-230.05V309.897H119.455H119.504C118.507 293.036 115.667 269.775 107.449 242.352" fill="url(#paint8_linear)"/>
<path d="M77.5769 260.153H38.5753" stroke="white" stroke-width="3" stroke-miterlimit="10"/>
<path d="M20.293 260.153H-18.9526" stroke="white" stroke-width="3" stroke-miterlimit="10"/>
<path d="M-4.47438 163.306C-17.976 169.263 -45.2187 181.212 -46.1677 181.369L-32.9897 239.727H6.12402L-4.47438 163.306Z" fill="#975B5E"/>
<path d="M-11.7958 239.727C-21.3706 192.887 -40.7597 98.9495 -41.7057 97.9077H19.5083L80.9647 239.727H-11.7958Z" fill="#EE8582"/>
<path d="M-2.10581 98.4287L55.6044 239.727M-21.6258 98.4287L19.748 239.727M12.3295 98.4287L69.9185 239.727M-29.7163 98.4287L6.41107 239.727M-12.7014 98.4287L35.2414 239.727" stroke="white" stroke-width="3"/>
<path d="M12.5066 224.225L14.9275 232.673L25.1869 234.629L16.138 236.896L17.7094 242.387L29.6989 239.384L18.254 244.29L20.8647 247.483L33.6943 243.173L22.7815 249.945L26.9637 251.839L39.9769 245.635L29.8452 254.283L36.8621 255.922C51.5122 255.418 55.1684 248.783 56.1953 247.229L12.5066 224.225Z" fill="#C3C05A"/>
<path d="M65.4583 207.885L59.6024 213.362L62.5397 221.589L56.6745 216.1L52.8691 219.659L60.6416 226.929L51.5497 220.89L50.0874 224.179L59.3006 231.474L48.9174 226.646L49.213 230.485L60.0629 237.073L48.4818 233.639L50.246 239.396C57.1411 249.68 64.2043 249.365 65.9343 249.415L65.4583 207.885Z" fill="#3A6933"/>
<path d="M12.5129 224.225L21.54 221.9L29.2071 226.51L26.0519 220.739L31.9174 219.229L33.2803 229.9L33.9494 218.708L38.2218 219.197L40.1292 231.812L41.4672 219.496L45.3319 221.906L47.5816 235.834L49.0504 222.991L54.1131 227.819C61.0615 239.879 56.786 246.185 55.8712 247.8L12.5129 224.225Z" fill="#A3A43F"/>
<path d="M65.462 207.888L71.365 213.333L70.9823 220.876L74.3182 216.057L78.1548 219.595L70.0083 225.296L79.4867 220.821L80.9773 224.1L71.477 231.052L82.1691 226.559L81.9046 230.401L71.477 238.182L82.6606 233.546L80.9429 239.317C74.1313 249.642 67.0646 249.365 65.3345 249.424L65.462 207.888Z" fill="#034326"/>
<path d="M501.894 285.514L501.524 284.516L499.467 281.981L500.313 281.315L502.065 283.131L502.672 284.012L502.958 285.054L501.894 285.514Z" fill="url(#paint9_linear)"/>
<path d="M501.528 284.516L501.898 285.514L502.959 285.054L502.673 284.012L501.528 284.516Z" fill="url(#paint10_linear)"/>
<path d="M553.636 289.547L553.39 288.517L551.654 285.782L552.575 285.208L554.094 287.196L554.592 288.139L554.75 289.204L553.636 289.547Z" fill="url(#paint11_linear)"/>
<path d="M553.394 288.517L553.64 289.547L554.751 289.204L554.592 288.139L553.394 288.517Z" fill="url(#paint12_linear)"/>
<path d="M602.338 268.257L602.406 271.965L602.074 272.692L601.308 273.106L591.926 275.649L591.839 275L601.062 272.503L601.604 272.168L601.778 271.68L601.666 268.281L602.338 268.257Z" fill="url(#paint13_linear)"/>
<path d="M601.72 271.854L602.364 272.058" stroke="#077E99" stroke-width="0.25" stroke-miterlimit="10"/>
<path d="M601.669 272.006L602.236 272.346" stroke="#077E99" stroke-width="0.25" stroke-miterlimit="10"/>
<path d="M601.585 272.186L602.078 272.692" stroke="#077E99" stroke-width="0.25" stroke-miterlimit="10"/>
<path d="M601.403 272.297L601.719 272.884" stroke="#077E99" stroke-width="0.25" stroke-miterlimit="10"/>
<path d="M601.209 272.416L601.389 273.062" stroke="#077E99" stroke-width="0.25" stroke-miterlimit="10"/>
<path d="M530.824 249.735L527.13 248.385L526.287 248.422L525.605 248.949L519.789 256.291L520.409 256.591L526.125 249.374L526.648 249.016L527.199 249.033L530.569 250.317L530.824 249.735Z" fill="url(#paint14_linear)"/>
<path d="M527 249.028L527.024 248.387" stroke="#077E99" stroke-width="0.25" stroke-miterlimit="10"/>
<path d="M526.831 249.022L526.691 248.405" stroke="#077E99" stroke-width="0.25" stroke-miterlimit="10"/>
<path d="M526.62 249.034L526.292 248.422" stroke="#077E99" stroke-width="0.25" stroke-miterlimit="10"/>
<path d="M526.445 249.153L525.975 248.67" stroke="#077E99" stroke-width="0.25" stroke-miterlimit="10"/>
<path d="M526.259 249.284L525.68 248.897" stroke="#077E99" stroke-width="0.25" stroke-miterlimit="10"/>
<path d="M477.604 299.081L476.48 294.305L478.419 291.806L486.264 282.162L500.5 277.526L516.395 275.244L524.516 277.535L527.999 292.341L520.527 301.56L495.309 305.18L483.32 301.223L482.9 299.433L480.354 298.688L477.604 299.081ZM485.003 300.059L495.742 302.829L496.859 300.288L492.817 297.672L484.614 298.403L485.003 300.059Z" fill="url(#paint15_linear)"/>
<path d="M480.355 298.685L478.668 291.503L476.481 294.302L477.604 299.081L480.355 298.685Z" fill="url(#paint16_linear)"/>
<path d="M498.278 296.444L524.09 292.74" stroke="url(#paint17_linear)" stroke-miterlimit="10"/>
<path d="M241.369 259.682L240.409 258.48L241.304 255.835L243.373 253.587L243.336 252.324L245.988 250.383L248.351 250.765L250.648 252.952L253.537 253.21L255.42 252.33L257.545 253.442L261.56 252.35L268.267 249.667L272.481 252.445L276.486 251.768L275.62 255.186L271.961 255.988L267.251 259.552L262.551 260.884L255.311 260.058L250.249 260.774L246.472 259.114L241.369 259.682Z" fill="url(#paint18_linear)"/>
<path d="M180.419 261.978L178.168 263.81L175.325 262.66L177.172 260.662L176.08 257.876L178.274 255.175L180.916 254.299L186.367 251.07L186.921 250.548L190.424 249.571L194.092 247.614L197.214 246.985L197.99 247.698L199.671 248.379L199.918 249.029L201.756 249.722L202.87 252.07L199.749 252.203L196.487 252.876L194.346 252.708L193.203 253.142L190.784 254.754L189.516 254.94L189.669 257.146L188.408 258.384L186.824 261.083L180.419 261.978Z" fill="url(#paint19_linear)"/>
<path d="M482.015 294.862L485.833 294.728L485.553 287.796L481.738 287.93L479.943 285.91L460.619 284.4L444.761 288.809L445.054 296.157L461.639 298.735L479.149 296.663L482.015 294.862Z" fill="url(#paint20_linear)"/>
<path d="M602.035 278.72L598.479 277.416L595.771 283.871L599.325 285.177L600.106 287.7L617.174 296.311L633.594 298.2L636.466 291.358L622.37 282.791L605.433 278.141L602.035 278.72Z" fill="url(#paint21_linear)"/>
<path d="M226.8 265.893L226.224 262.451L222.216 260.92H220.088L218.289 264.592L217.963 268.573L212.561 268.879L207.324 272.706L203.643 272.246L200.861 273.622L199.47 278.139V282.577L202.497 286.403L204.38 290.306L211.17 290.917L216.818 294.589L223.442 293.824L229.498 292.218L235.472 292.448L240.625 289.386L246.479 287.335L252.338 284.765L257.466 283.91L258.546 282.728L255.985 281.337L253.315 281.803L245.803 283.793L239.219 283.261L232.056 283.793L229.006 280.534L224.986 278.814L222.083 273.291L222.565 269.848L221.308 266.499V262.605L223.729 262.942L226.8 265.893Z" fill="url(#paint22_linear)"/>
<path d="M221.308 266.499L224.031 265.113L224.722 263.897L226.8 265.893L227.454 272.17L236.045 277.603L243.081 277.068L246.479 276.148L250.527 276.684L255.027 278.369H257.074L257.647 280.816L258.546 282.728L255.985 281.337L252.942 280.694L249.746 280.126L246.476 278.561H243.585L241.531 280.126L240.311 283.351L239.219 283.261L232.056 283.793L229.006 280.534L224.986 278.814L222.083 273.291L222.565 269.848L221.308 266.499Z" fill="url(#paint23_linear)"/>
<path d="M320.053 273.237L318.923 273.225L315.678 274.177L315.295 273.205L317.713 272.279L318.808 272.043L319.953 272.145L320.053 273.237Z" fill="url(#paint24_linear)"/>
<path d="M318.927 273.225L320.053 273.237L319.954 272.145L318.813 272.043L318.927 273.225Z" fill="url(#paint25_linear)"/>
<path d="M420.375 236.101L420.004 235.484L417.947 233.91L418.794 233.497L420.546 234.623L421.153 235.17L421.439 235.819L420.375 236.101Z" fill="url(#paint26_linear)"/>
<path d="M420.009 235.484L420.378 236.101L421.439 235.819L421.154 235.17L420.009 235.484Z" fill="url(#paint27_linear)"/>
<path d="M415.567 233.602L414.437 233.622L411.235 234.292L410.809 233.698L413.186 233.066L414.266 232.895L415.418 232.927L415.567 233.602Z" fill="url(#paint28_linear)"/>
<path d="M414.44 233.622L415.567 233.602L415.418 232.927L414.269 232.895L414.44 233.622Z" fill="url(#paint29_linear)"/>
<path d="M403.351 251.935L404.148 251.19L405.691 248.353L406.703 248.775L405.719 251.039L405.131 251.935L404.254 252.63L403.351 251.935Z" fill="url(#paint30_linear)"/>
<path d="M404.149 251.19L403.353 251.935L404.255 252.63L405.132 251.935L404.149 251.19Z" fill="url(#paint31_linear)"/>
<path d="M166.358 259.404L165.688 258.78L164.398 256.403L163.551 256.759L164.375 258.656L164.865 259.404L165.6 259.989L166.358 259.404Z" fill="url(#paint32_linear)"/>
<path d="M165.689 258.78L166.358 259.404L165.6 259.989L164.866 259.404L165.689 258.78Z" fill="url(#paint33_linear)"/>
<path d="M417.947 235.636L416.818 235.645L413.569 235.054L413.186 235.656L415.607 236.23L416.703 236.375L417.848 236.314L417.947 235.636Z" fill="url(#paint34_linear)"/>
<path d="M416.822 235.645L417.947 235.636L417.848 236.314L416.707 236.375L416.822 235.645Z" fill="url(#paint35_linear)"/>
<path d="M169.69 255.204L169.379 256.04L167.656 258.163L168.365 258.721L169.833 257.2L170.341 256.462L170.581 255.589L169.69 255.204Z" fill="url(#paint36_linear)"/>
<path d="M169.382 256.04L169.692 255.204L170.581 255.589L170.342 256.462L169.382 256.04Z" fill="url(#paint37_linear)"/>
<path d="M158.841 258.5L158.635 259.363L157.181 261.654L157.952 262.134L159.224 260.469L159.641 259.68L159.774 258.787L158.841 258.5Z" fill="url(#paint38_linear)"/>
<path d="M158.638 259.363L158.843 258.5L159.774 258.787L159.642 259.68L158.638 259.363Z" fill="url(#paint39_linear)"/>
<path d="M166.724 261.549L166.515 262.412L165.061 264.704L165.835 265.184L167.107 263.517L167.521 262.729L167.657 261.835L166.724 261.549Z" fill="url(#paint40_linear)"/>
<path d="M166.519 262.412L166.727 261.549L167.657 261.835L167.522 262.729L166.519 262.412Z" fill="url(#paint41_linear)"/>
<path d="M112.008 252.654L112.431 251.033L112.176 250.652L111.466 250.326L102.514 247.456L102.368 247.727L111.168 250.547L111.666 250.794L111.79 251.041L111.355 252.52L112.008 252.654Z" fill="url(#paint42_linear)"/>
<path d="M111.751 250.951L112.401 250.983" stroke="#077E99" stroke-width="0.25" stroke-miterlimit="10"/>
<path d="M111.712 250.876L112.3 250.832" stroke="#077E99" stroke-width="0.25" stroke-miterlimit="10"/>
<path d="M111.65 250.78L112.181 250.652" stroke="#077E99" stroke-width="0.25" stroke-miterlimit="10"/>
<path d="M111.481 250.698L111.846 250.497" stroke="#077E99" stroke-width="0.25" stroke-miterlimit="10"/>
<path d="M111.303 250.611L111.541 250.361" stroke="#077E99" stroke-width="0.25" stroke-miterlimit="10"/>
<path d="M125.831 259.434L122.274 258.203L121.72 257.848L121.649 257.464L123.161 253.567L123.811 253.759L122.327 257.586L122.414 257.874L122.809 258.095L126.092 259.21L125.831 259.434Z" fill="url(#paint43_linear)"/>
<path d="M122.666 258.017L122.207 258.157" stroke="#077E99" stroke-width="0.25" stroke-miterlimit="10"/>
<path d="M122.548 257.95L121.988 258.017" stroke="#077E99" stroke-width="0.25" stroke-miterlimit="10"/>
<path d="M122.411 257.86L121.723 257.848" stroke="#077E99" stroke-width="0.25" stroke-miterlimit="10"/>
<path d="M122.38 257.764L121.689 257.668" stroke="#077E99" stroke-width="0.25" stroke-miterlimit="10"/>
<path d="M122.348 257.662L121.659 257.502" stroke="#077E99" stroke-width="0.25" stroke-miterlimit="10"/>
<path opacity="0.6" d="M111.246 301.78C109.456 254.258 98.3549 155.894 27.6619 56.8558C8.9857 30.6903 -11.5296 7.72788 -32.9539 -12.4185L1228.02 -12.4155V302.141L111.246 301.78Z" fill="url(#paint44_linear)"/>
<g opacity="0.9">
<g opacity="0.9">
<path opacity="0.9" d="M15.9289 45.1595C16.2868 45.3454 17.242 46.3851 18.5178 47.8546C19.1526 48.5923 19.8715 49.4346 20.6183 50.3436C21.3558 51.2613 22.1369 52.2314 22.9211 53.2072C24.4957 55.1589 26.0142 57.1831 27.2713 58.8066C27.903 59.6169 28.4413 60.343 28.8739 60.9238C29.3064 61.5018 29.6331 61.9316 29.8199 62.1581C30.6351 63.195 31.6744 64.5977 32.8693 66.2619C33.4637 67.0954 34.1016 67.9928 34.7738 68.9367C35.4272 69.8922 36.0931 70.9116 36.7902 71.9629C38.178 74.0685 39.6467 76.3251 41.1372 78.6253C42.5624 80.9604 44.0126 83.3361 45.4191 85.6391C45.7707 86.2171 46.1161 86.7892 46.4615 87.3555C46.8069 87.9219 47.1461 88.4824 47.4604 89.0458C48.1014 90.1669 48.7269 91.256 49.3275 92.2986C50.5255 94.3839 51.6177 96.292 52.5419 97.9068C53.4319 99.5389 54.1662 100.875 54.6858 101.801C55.2055 102.728 55.5136 103.242 55.551 103.236C55.635 102.978 57.1878 104.52 58.9739 106.544C60.7072 108.592 62.6521 111.133 63.6011 112.782C64.1799 113.793 64.7649 114.798 65.3126 115.817C65.8509 116.84 66.3829 117.859 66.8995 118.878C67.9357 120.914 68.9378 122.936 69.8775 124.925C70.78 126.932 71.6326 128.904 72.4323 130.821C72.8337 131.779 73.2195 132.723 73.5898 133.65C73.9664 134.576 74.2869 135.502 74.6167 136.397C75.933 139.94 75.9765 140.509 76.742 142.028C76.8852 142.342 77.0003 142.995 77.2555 144.16C77.5076 145.328 77.9214 146.998 78.7149 149.327C78.995 150.125 79.3186 150.979 79.664 151.853C79.8383 152.292 80.0156 152.733 80.193 153.181C80.3641 153.628 80.5353 154.081 80.7064 154.528C81.391 156.32 82.0538 158.08 82.4957 159.553C82.7259 160.264 83.0403 161.162 83.4044 162.21C83.756 163.259 84.1573 164.455 84.593 165.75C85.038 167.043 85.5141 168.434 86.0089 169.877C86.1333 170.237 86.2609 170.601 86.3854 170.966C86.5036 171.335 86.625 171.707 86.7464 172.079C86.9891 172.825 87.2349 173.577 87.4776 174.33C87.9693 175.837 88.464 177.347 88.9432 178.817C89.1891 179.549 89.41 180.278 89.6248 180.989C89.8426 181.701 90.0541 182.395 90.2595 183.066C90.6671 184.41 91.0499 185.662 91.3891 186.777C91.5571 187.335 91.7158 187.858 91.8621 188.34C91.9959 188.825 92.1204 189.269 92.2293 189.67C92.6494 191.186 93.0415 192.609 93.4149 193.954C93.7821 195.301 94.1648 196.562 94.4728 197.782C95.1139 200.212 95.7114 202.408 96.3026 204.517C96.8783 206.628 97.4135 208.661 98.0109 210.749C98.3003 211.795 98.6239 212.849 98.9164 213.947C99.2183 215.042 99.5326 216.174 99.8593 217.356C101.935 224.449 103.052 230.434 104.676 237.788C105.068 239.725 105.432 241.523 105.781 243.251C106.117 244.982 106.4 246.649 106.702 248.313C106.851 249.146 107.001 249.977 107.15 250.819C107.29 251.661 107.43 252.512 107.573 253.381C107.863 255.118 108.161 256.927 108.485 258.873C108.799 260.708 109.104 262.506 109.409 264.292C109.699 266.081 109.951 267.864 110.218 269.665C110.492 271.463 110.704 273.284 110.94 275.148C111.052 276.081 111.174 277.022 111.279 277.98C111.379 278.938 111.482 279.911 111.584 280.902C111.668 281.962 111.752 283.022 111.756 283.786C111.752 284.555 111.967 286.588 112.036 287.648C112.726 294.061 113.535 299.864 113.756 306.169C113.816 307.914 113.753 310.499 113.557 309.979C112.577 307.371 111.734 302.486 110.76 296.878C109.867 291.566 109.282 284.718 108.358 277.681C108.021 275.247 107.67 272.999 107.265 270.925C106.848 268.852 106.416 266.952 105.977 265.21C105.034 261.733 104.126 258.879 103.204 256.546C102.535 254.935 101.801 253.532 101.048 251.516C100.662 250.511 100.276 249.353 99.8967 247.935C99.517 246.521 99.1592 244.848 98.7608 242.821C97.9051 238.061 97.1179 233.513 96.2217 228.953C95.7518 226.679 95.2726 224.396 94.728 222.087C94.1523 219.787 93.53 217.455 92.8298 215.074C92.3195 213.418 91.803 211.853 91.3175 210.319C90.8197 208.792 90.3685 207.29 89.8613 205.803C89.3665 204.31 88.8686 202.815 88.3583 201.272C88.1093 200.5 87.8542 199.716 87.5959 198.914C87.3283 198.116 87.0544 197.299 86.7712 196.46C86.4258 195.539 85.1033 191.776 84.6801 190.492C84.0733 188.595 83.4105 186.626 82.7477 184.654C82.4148 183.67 82.0818 182.682 81.752 181.704C81.4066 180.731 81.0674 179.763 80.7313 178.817C80.0685 176.92 79.4524 175.091 78.9296 173.394C78.3726 171.71 77.912 170.162 77.5978 168.812C77.2275 167.772 76.8821 166.796 76.5523 165.872C76.3842 165.411 76.2193 164.963 76.0606 164.525C75.8894 164.092 75.7214 163.668 75.5595 163.256C74.8999 161.606 74.2993 160.107 73.7205 158.661C72.5941 155.757 71.4645 153.097 70.3194 149.768C69.9584 148.711 69.5974 147.654 69.2333 146.591C68.8474 145.537 68.4586 144.48 68.0696 143.414C67.2823 141.288 66.4981 139.127 65.6393 136.94C63.8594 132.595 61.9923 128.059 59.6118 123.331C58.9459 121.983 58.2924 120.659 57.6482 119.352C56.9823 118.054 56.2916 116.787 55.6101 115.524C54.9193 114.266 54.2315 113.015 53.5438 111.76C53.1953 111.136 52.8437 110.508 52.4921 109.881C52.1218 109.262 51.7516 108.641 51.3813 108.019C50.8554 107.134 49.5235 105.182 48.1606 103.23C47.4729 102.257 46.8007 101.273 46.1783 100.436C45.5529 99.6058 45.0238 98.9 44.6878 98.4528C43.4337 96.7915 42.0677 94.6046 40.7826 92.3741C39.4694 90.1582 38.1905 87.9219 37.2165 86.1009C36.4666 84.6604 35.7227 83.2024 34.9137 81.7474C34.0922 80.3011 33.2428 78.8373 32.3621 77.3387C31.4815 75.8401 30.5636 74.3096 29.6052 72.7268C28.6187 71.1614 27.5669 69.5611 26.4747 67.8912C25.6688 66.7207 24.8441 65.6287 23.9946 64.5106C23.5683 63.9501 23.1388 63.3837 22.6938 62.8C22.2426 62.2191 21.7821 61.618 21.3122 60.9848C16.962 54.9294 14.065 50.3755 10.138 45.1188C9.6681 44.5147 9.21678 43.931 8.78113 43.3675C8.33926 42.8099 7.913 42.2726 7.50224 41.7528C6.68385 40.7159 5.92456 39.7546 5.22753 38.8688C3.81479 37.1059 2.6355 35.6335 1.64596 34.405C-0.34245 31.9538 -1.5405 30.4552 -2.26242 29.5171C-3.72806 27.6584 -3.28306 28.0475 -3.6378 27.6874C-5.28081 25.8258 -6.26735 25.3262 -8.4238 23.0871C-9.14262 22.3203 -9.83957 21.5449 -10.5148 20.7811C-11.1963 20.026 -11.8498 19.2767 -12.4659 18.5593C-13.082 17.839 -13.6576 17.1478 -14.1866 16.5031C-14.7187 15.8612 -15.2073 15.2688 -15.6305 14.7344C-20.712 8.45246 -27.2157 0.942029 -35.0635 -5.84814C-34.5408 -5.48511 -34.2793 -5.4067 -33.7565 -4.9333C-28.2985 -0.141262 -23.3913 4.1919 -18.5401 8.74289C-13.6919 13.2968 -8.89356 18.0685 -3.78716 23.8189C-2.85052 24.9661 -1.68056 26.4299 -0.50431 27.7803C1.5899 30.1967 3.46009 32.3952 5.27114 34.6286C6.88614 36.528 9.23865 38.9908 11.3578 41.0557C13.4644 43.1439 15.3159 44.8313 15.9289 45.1595Z" fill="#C7C8CA"/>
<path opacity="0.9" d="M108.354 277.495C109.281 284.535 109.869 291.377 110.765 296.689C111.743 302.303 112.583 307.179 113.566 309.788C113.762 310.316 113.821 307.723 113.762 305.977C113.541 299.678 112.729 293.875 112.035 287.462C111.964 286.402 111.755 284.364 111.755 283.603C111.749 282.842 111.665 281.782 111.581 280.722C110.756 272.787 109.788 266.017 108.475 258.693C108.152 256.744 107.85 254.938 107.56 253.198C107.414 252.33 107.283 251.476 107.134 250.636C106.985 249.794 106.835 248.963 106.686 248.13C106.384 246.466 106.104 244.799 105.762 243.068C105.413 241.34 105.049 239.542 104.657 237.605C103.023 230.257 101.909 224.269 99.8277 217.173C99.5009 215.991 99.1867 214.859 98.8849 213.764C98.5861 212.666 98.2656 211.612 97.9762 210.566C97.3787 208.478 96.8497 206.445 96.2647 204.334C95.6704 202.225 95.0761 200.03 94.4351 197.599C93.7629 195.174 93.0286 192.519 92.1884 189.487C91.9768 188.688 91.6842 187.71 91.3451 186.597C91.0059 185.482 90.6263 184.23 90.2155 182.886C90.0102 182.215 89.7986 181.521 89.5807 180.809C89.4718 180.455 89.3629 180.095 89.2509 179.732C89.1326 179.371 89.0144 179.006 88.893 178.64C88.4138 177.17 87.9191 175.66 87.4274 174.152C86.4721 171.129 85.411 168.161 84.5366 165.57C84.101 164.275 83.6995 163.079 83.3448 162.027C82.9745 160.982 82.6665 160.081 82.4331 159.37C81.9912 157.897 81.3253 156.137 80.6438 154.345C80.4727 153.898 80.3016 153.448 80.1304 152.998C79.953 152.553 79.7756 152.109 79.6014 151.673C79.256 150.799 78.9324 149.948 78.6523 149.15C78.6523 149.15 78.3411 148.607 77.6846 147.468C77.0249 146.333 76.0852 144.575 74.688 142.206C75.6277 144.512 76.4555 146.861 77.3299 149.19L78.6243 152.687C79.0662 153.849 79.4458 155.031 79.8597 156.201C80.6656 158.551 81.4964 160.889 82.2775 163.241L84.5584 170.316C87.5052 179.772 90.1502 189.292 92.4778 198.865C96.2803 211.737 99.5352 224.751 102.183 237.872C102.821 241.157 103.487 244.436 104.05 247.732L104.489 250.201L104.71 251.435L104.909 252.672L105.709 257.624C106.723 264.231 107.623 270.853 108.354 277.495Z" fill="#7D7E81"/>
<path opacity="0.9" d="M77.8419 149.126C77.8419 149.126 77.2569 147.555 76.3919 145.238C75.9687 144.076 75.4086 142.752 74.8329 141.337C74.251 139.926 73.6286 138.433 73.0032 136.963C72.6889 136.229 72.3778 135.5 72.0635 134.791C71.7337 134.088 71.4099 133.406 71.1019 132.749C70.4764 131.442 69.8883 130.263 69.378 129.311C68.3542 127.408 67.6386 126.427 67.5483 127.185C67.5483 127.185 67.8999 128.492 68.5285 130.661C69.1508 132.831 70.0844 135.845 71.0802 139.33C71.5936 141.067 72.1506 142.908 72.7512 144.799C73.33 146.698 73.9118 148.659 74.5435 150.61C75.8379 154.502 77.092 158.437 78.4892 161.911C78.4892 161.911 78.7381 162.538 79.1457 163.558C79.5315 164.586 80.0637 166.015 80.658 167.606C81.2492 169.198 81.912 170.952 82.5219 172.645C83.1069 174.347 83.6701 175.976 84.1244 177.304C84.1244 177.304 84.3703 177.887 84.8091 178.927C85.0238 179.45 85.2852 180.086 85.5839 180.821C85.8608 181.564 86.1781 182.406 86.5235 183.333C87.2019 185.192 88.0016 187.387 88.7982 189.815C89.5668 192.252 90.3603 194.912 91.1133 197.668C91.1133 197.668 91.857 200.433 92.9897 204.627C94.0912 208.826 95.5133 214.472 96.8389 220.237C97.1905 221.675 97.4986 223.127 97.8128 224.562C98.1302 225.996 98.4414 227.417 98.7463 228.802C99.3251 231.576 99.876 234.207 100.358 236.524C100.831 238.845 101.22 240.855 101.553 242.379C101.886 243.901 102.135 244.944 102.272 245.33C102.272 245.33 102.499 246.472 102.854 248.258C103.034 249.149 103.246 250.204 103.479 251.357C103.697 252.512 103.934 253.764 104.176 255.057C104.422 256.346 104.674 257.673 104.92 258.974C105.156 260.278 105.39 261.553 105.605 262.741C106.059 265.117 106.42 267.141 106.684 268.303C106.684 268.303 106.815 268.739 107.03 269.52C107.238 270.304 107.549 271.431 107.845 272.828C108.15 274.222 108.48 275.877 108.791 277.707C109.08 279.539 109.332 281.543 109.519 283.635C109.519 283.635 110.422 289.928 111.094 294.624C111.747 299.323 112.295 302.425 111.971 295.954C111.971 295.954 111.956 295.487 111.928 294.723C111.893 293.959 111.847 292.902 111.794 291.723C111.704 289.365 111.504 286.524 111.374 284.596C111.374 284.596 111.293 283.742 111.119 282.246C111.034 281.497 110.929 280.588 110.81 279.545C110.695 278.5 110.558 277.321 110.384 276.034C109.759 270.882 108.751 264.002 107.577 257.049C107.269 255.312 106.961 253.57 106.656 251.847C106.345 250.125 106 248.429 105.682 246.776C105.521 245.952 105.362 245.136 105.206 244.334C105.048 243.535 104.873 242.751 104.712 241.984C104.382 240.454 104.071 238.993 103.775 237.628C102.536 232.183 101.581 228.282 101.295 227.547C101.295 227.547 101.061 226.638 100.645 225.006C100.439 224.19 100.187 223.194 99.8946 222.038C99.6083 220.882 99.238 219.578 98.8584 218.138C98.4757 216.697 98.0587 215.12 97.6106 213.436C97.1376 211.757 96.6366 209.965 96.1076 208.089C95.8462 207.151 95.5787 206.189 95.3049 205.211C95.0155 204.235 94.7229 203.242 94.4242 202.231C94.1286 201.22 93.8267 200.192 93.5249 199.152C93.2231 198.113 92.9244 197.055 92.5883 196.001C90.0523 187.506 87.0681 178.436 84.3827 170.162C83.6888 168.1 83.0291 166.084 82.4068 164.136C82.2512 163.648 82.0987 163.166 81.9493 162.686C81.7906 162.21 81.6351 161.74 81.4795 161.275C81.1776 160.343 80.8821 159.431 80.5927 158.542C80.0264 156.762 79.5129 155.071 79.0648 153.489C78.598 151.917 78.1811 150.457 77.8419 149.126Z" fill="#939598"/>
<path opacity="0.9" d="M77.905 148.136C77.905 148.136 77.5815 147.096 77.0182 145.403C76.8751 144.979 76.7195 144.517 76.5515 144.018C76.371 143.524 76.1749 142.996 75.9696 142.438C75.5526 141.323 75.0827 140.094 74.5724 138.802C74.0621 137.509 73.5113 136.15 72.9294 134.777C72.3258 133.412 71.6785 132.038 71.0219 130.693C69.6963 128.01 68.3459 125.436 66.9176 123.441C66.9176 123.441 66.0152 121.916 64.7269 119.738C64.0735 118.655 63.3423 117.4 62.5332 116.117C61.7149 114.836 60.856 113.509 60.0252 112.242C56.7361 107.154 53.6276 103.169 55.2706 106.994C55.2706 106.994 55.4696 107.462 55.8399 108.333C56.1977 109.21 56.7206 110.491 57.3865 112.112C58.0617 113.724 58.877 115.675 59.8105 117.9C60.7005 120.142 61.7087 122.651 62.8165 125.358C63.0934 126.035 63.3797 126.723 63.666 127.426C63.9398 128.132 64.2198 128.852 64.503 129.584C65.0755 131.042 65.6699 132.54 66.2735 134.08C66.5816 134.846 66.8896 135.622 67.2038 136.406C67.5212 137.187 67.8076 137.992 68.1188 138.793C68.738 140.396 69.3665 142.029 70.0044 143.681C70.328 144.506 70.6548 145.334 70.9815 146.167C71.2958 147.004 71.6101 147.846 71.9275 148.691C72.5654 150.378 73.2126 152.074 73.8754 153.77L74.3733 155.043L74.8494 156.323C75.1699 157.177 75.4904 158.028 75.8109 158.882C76.4581 160.584 77.1147 162.277 77.7806 163.953C77.7806 163.953 78.8915 166.86 80.354 172.43C80.354 172.43 80.4286 172.66 80.5656 173.072C80.6994 173.488 80.8892 174.086 81.1257 174.823C81.6018 176.299 82.2707 178.329 83.0331 180.554C83.4252 181.66 83.7892 182.833 84.1875 184.001C84.5827 185.168 84.9873 186.342 85.398 187.469C86.232 189.719 86.9974 191.822 87.7038 193.385C87.7038 193.385 88.127 194.514 88.8085 196.332C89.5086 198.148 90.355 200.683 91.3103 203.465C93.2084 209.033 95.1843 215.684 96.0929 219.813C96.0929 219.813 96.2361 220.226 96.4757 220.914C96.7153 221.603 97.0233 222.575 97.3501 223.696C97.6768 224.818 98.0315 226.084 98.352 227.365C98.6725 228.645 98.9619 229.941 99.1268 231.12C99.1268 231.12 99.0927 230.94 99.0304 230.6C98.9651 230.26 98.881 229.761 98.7472 229.125C98.4858 227.852 98.1124 226.032 97.6612 223.827C96.7402 219.421 95.3897 213.505 93.8369 207.444C93.4698 205.925 93.0404 204.406 92.6296 202.896C92.2127 201.386 91.8019 199.884 91.3974 198.415C90.5541 195.484 89.6891 192.691 88.9205 190.184C88.1301 187.681 87.3553 185.488 86.7392 183.742C86.1137 182 85.6251 180.71 85.2766 180.057C85.2766 180.057 84.7726 178.826 83.9449 176.644C83.1359 174.458 81.9752 171.33 80.578 167.56C79.2493 163.77 77.5846 159.37 75.9914 154.558C75.1388 152.17 74.2892 149.684 73.4677 147.128C73.2624 146.489 73.0601 145.848 72.8547 145.2C72.6431 144.558 72.4284 143.913 72.2137 143.266C71.7905 141.97 71.3767 140.661 70.9753 139.342C70.9753 139.342 70.8042 137.643 71.5946 137.884C71.9898 138.006 72.6245 138.61 73.642 140.164C74.1523 140.939 74.756 141.953 75.4748 143.26C75.842 143.91 76.2154 144.642 76.6106 145.458C77.0151 146.254 77.4445 147.152 77.905 148.136Z" fill="#ADAFB2"/>
<path opacity="0.9" d="M73.9724 133.902C72.8864 131.004 71.8377 127.998 70.5681 124.832C69.8244 123.133 68.5019 120.665 67.559 118.707C66.9211 117.421 66.2304 116.12 65.5458 114.929C64.8488 113.747 64.1859 112.666 63.6538 111.801C63.0253 110.825 62.3623 109.768 61.6809 108.656C61.3417 108.098 60.9932 107.529 60.6416 106.945C60.4673 106.655 60.2899 106.358 60.1125 106.062C59.9289 105.769 59.7424 105.473 59.5557 105.176C58.0714 102.792 56.5092 100.277 54.9658 97.7966C54.7729 97.4858 54.5799 97.1779 54.3901 96.8672C54.191 96.5622 53.9918 96.2573 53.7927 95.9553C53.3944 95.3512 52.9991 94.75 52.6101 94.1575C51.8259 92.9726 51.0573 91.8196 50.3105 90.7218C49.5637 89.621 48.8417 88.5755 48.1509 87.6026C47.4352 86.6442 46.7569 85.7613 46.1221 84.9713C45.3254 83.9084 44.7342 83.0835 43.9625 81.916C43.782 81.5675 43.0415 80.2954 42.8641 79.9498C41.7439 78.1289 40.5147 76.395 39.3602 74.6641C38.1933 72.9389 37.0544 71.2429 35.9746 69.5787C32.3432 64.1361 28.3445 59.1088 24.4051 54.5375C23.3035 53.2596 22.0993 51.8162 20.8701 50.3321C19.6223 48.8626 18.3434 47.3553 17.1267 45.9235C15.0014 43.4664 13.6447 42.3076 12.3409 41.1517C11.0184 40.0075 9.72383 38.8864 7.67629 36.5311C1.00467 29.0874 -4.34444 22.0736 -11.4486 14.871C-12.4973 13.8371 -13.5179 12.8323 -14.5168 11.8448C-15.0177 11.3511 -15.5126 10.8632 -16.0043 10.3811C-16.5021 9.90185 -17 9.42845 -17.4916 8.95506C-18.478 8.01408 -19.4551 7.0789 -20.4416 6.16115C-21.4373 5.24921 -22.4362 4.34308 -23.4506 3.44276C-24.966 2.12422 -26.5874 0.741795 -28.2117 -0.695817C-29.8485 -2.12762 -31.5412 -3.56813 -33.2185 -4.99413C-34.0026 -5.6534 -36.0969 -7.11715 -36.0906 -7.00679C-35.8324 -6.60309 -33.9902 -5.01155 -32.9664 -3.94279C-31.5443 -2.48484 -30.3775 -1.49159 -29.3133 -0.640635C-28.2553 0.216123 -27.2937 0.924764 -26.2699 1.78443C-23.7089 3.99748 -20.6905 7.16893 -17.7063 10.1545C-16.4492 11.3366 -15.4721 12.2485 -14.2243 13.3376C-12.4723 14.8188 -10.3065 17.3832 -8.13764 19.8373C-6.83381 21.3882 -5.37757 22.8926 -3.92126 24.4319C-2.47429 25.9799 -0.968216 27.5162 0.416519 29.1513C1.34694 30.2288 2.2151 31.2801 3.04283 32.3054C3.86745 33.3335 4.63927 34.3471 5.40476 35.3287C6.94508 37.2833 8.38271 39.1652 9.98215 40.9281C9.29756 40.1788 9.64287 40.6493 10.5048 41.7181C11.3606 42.7927 12.7142 44.4858 14.0741 46.1587C16.7627 49.5277 19.4294 52.8647 18.1411 51.1163C18.3558 51.4387 19.2458 52.3303 19.4948 52.4435C19.5103 52.3303 19.7562 52.4493 19.5508 52.1212C17.8954 49.4899 18.4213 49.4057 18.0727 48.3166C18.1879 48.4269 20.005 50.6923 22.1024 53.3671C22.6314 54.0322 23.179 54.7234 23.7236 55.4117C24.265 56.1029 24.8034 56.7883 25.3169 57.4447C26.3468 58.7574 27.3177 59.9191 28.0023 60.7497C30.1307 63.2503 32.0725 65.4256 34.5557 68.8236C35.1593 69.7239 35.2839 70.2874 35.8751 71.2051C36.2205 71.7221 37.4341 73.6999 39.0896 76.4183C39.5035 77.0979 39.9453 77.8239 40.4059 78.5848C40.8695 79.3428 41.3176 80.1589 41.7999 80.9867C42.7552 82.6479 43.7634 84.4021 44.7778 86.165C48.7951 93.231 52.6412 100.492 53.5125 101.947C54.6078 103.637 56.1234 105.719 56.03 105.159C56.2572 104.433 58.3108 107.459 59.3346 108.42C59.5555 108.566 59.2879 107.752 59.5089 107.895C60.3304 108.693 61.6841 110.358 62.8946 112.434C63.4236 113.297 63.9712 114.209 64.5188 115.144C65.0665 116.079 65.5769 117.058 66.0934 118.016C67.1141 119.942 68.0756 121.844 68.8536 123.485L69.5195 124.774L70.1574 126.075L71.4301 128.683L73.9724 133.902Z" fill="#DCDDDE"/>
<path opacity="0.9" d="M32.7979 64.4671C31.8115 63.1863 29.0297 59.4776 26.0019 55.7979C25.6254 55.3361 25.252 54.8714 24.8754 54.4125C24.4958 53.9566 24.1162 53.5035 23.7459 53.0592C22.9991 52.1704 22.2771 51.3108 21.6081 50.515C20.2669 48.9293 19.0969 47.6282 18.3874 46.8556C13.8785 41.959 9.59987 37.4865 4.88868 32.8513C4.42503 32.3517 3.80892 31.6489 3.50086 31.2278C1.07058 27.9111 -2.41152 24.2895 -4.95693 21.2603C-6.07405 19.9563 -7.00137 18.693 -8.31452 17.3396C-15.1293 10.1893 -21.863 3.99739 -28.3883 -1.47715C-29.77 -2.61853 -31.0676 -3.63793 -32.3652 -4.65152C-33.6691 -5.65349 -34.9666 -6.65255 -36.37 -7.73004C-36.8896 -8.09597 -37.7641 -8.77557 -37.761 -8.63036C-37.9352 -8.67973 -36.7155 -7.61096 -36.1056 -7.00107C-35.3245 -6.34761 -34.6274 -5.85679 -33.5818 -4.98551C-32.6296 -4.19845 -31.5967 -3.27199 -30.5822 -2.37167C-30.0719 -1.92441 -29.5709 -1.48006 -29.0917 -1.05894C-28.6156 -0.634916 -28.1549 -0.239934 -27.7286 0.111482C-26.7889 0.910155 -25.9333 1.61299 -25.0589 2.33905C-24.1845 3.06802 -23.3007 3.83185 -22.2862 4.74379C-21.611 5.3653 -20.9731 5.95196 -20.3414 6.55024C-19.7159 7.15433 -19.0905 7.76713 -18.4277 8.42639C-13.5921 13.1284 -9.01154 17.8536 -4.56797 22.8257C-3.02143 24.9836 -0.152423 27.8734 1.85777 30.1968C2.48012 30.8996 3.115 31.524 3.88982 32.3634C5.72576 34.4893 7.55538 36.8127 8.937 38.1777C11.7407 40.8119 14.5101 43.5535 17.6561 46.9834C18.2878 47.6805 19.4237 48.9496 20.7835 50.5353C21.4557 51.3311 22.1931 52.2024 22.9617 53.1085C23.7304 54.0176 24.5301 54.9643 25.308 55.9315C28.482 59.7564 31.5128 63.7439 32.773 65.4023C33.6101 66.5001 34.4222 67.6066 35.2188 68.716C35.9968 69.8371 36.7468 70.9669 37.4967 72.0908C38.9904 74.3445 40.4839 76.575 41.9993 78.7764C42.0616 78.8752 42.0118 78.698 41.7722 78.213C41.5264 77.7309 41.0971 76.9409 40.4187 75.7967C39.7403 74.6553 38.8161 73.1596 37.5807 71.2747C36.9584 70.3337 36.2831 69.2824 35.4803 68.1526C34.6806 67.0287 33.7844 65.8002 32.7979 64.4671Z" fill="#F1F2F2"/>
</g>
</g>
<path opacity="0.1091" d="M117.155 329.87C116.897 327.553 116.757 325.235 116.549 322.912C116.359 320.766 116.191 318.616 116.016 316.467C115.59 311.257 115.108 306.05 114.517 300.854C113.126 288.682 111.302 276.551 108.965 264.504C103.28 235.177 95.0619 206.294 84.2112 178.259C71.0081 144.148 53.9651 111.261 33.1974 80.5944C22.1195 64.2347 10.1145 48.4151 -2.94552 33.3769C-8.54665 26.9265 -14.3097 20.6039 -20.2313 14.4062C-27.1207 7.1978 -34.2932 0.239182 -41.5965 -6.60036C-42.2344 -7.31772 -42.1255 -7.9218 -41.2791 -8.40972C-39.552 -8.9412 -37.7878 -8.99348 -35.9798 -8.56074C-32.6596 -8.1919 -29.3674 -7.68656 -26.0938 -7.04472C-24.233 -6.91402 -22.5775 -6.33898 -21.1243 -5.31668C-7.63489 8.09232 5.22585 22.0357 17.1283 36.7022C29.9424 52.4927 41.8169 68.9541 52.6365 85.9992C72.8753 117.882 89.4857 151.679 102.15 186.803C112.528 215.59 120.342 245.211 125.461 275.209C127.573 287.584 129.185 300.032 130.268 312.526C130.691 317.408 131.027 322.296 131.357 327.184C131.532 329.757 131.659 332.374 132.039 334.927C132.35 337.024 132.758 339.103 133.215 341.177C133.315 342.092 132.87 342.542 131.883 342.527C130.156 342.112 128.675 341.27 127.443 340.006C124.935 338.04 122.529 335.972 120.22 333.803C118.761 332.751 117.743 331.445 117.155 329.87Z" fill="url(#paint45_radial)"/>
<path opacity="0.1091" d="M114.033 320.969C114.205 320.347 114.373 319.729 114.544 319.107C114.509 319.47 114.475 319.836 114.444 320.199C113.473 310.267 112.798 300.32 111.597 290.407C110.172 278.657 108.333 266.955 106.052 255.324C100.279 225.889 91.9151 196.846 80.8435 168.759C74.5423 152.777 67.4445 137.082 59.4847 121.757C50.8496 105.13 41.2155 88.9762 30.6978 73.3222C19.6885 56.9393 7.60245 41.143 -5.4482 26.1221C-11.0524 19.6717 -16.8153 13.3521 -22.7401 7.15726C-29.6326 -0.0482267 -36.8083 -7.00685 -44.1178 -13.8435C-44.8522 -14.4679 -44.8396 -15.0807 -44.0773 -15.6761C-42.4591 -16.4341 -40.7291 -16.7187 -38.887 -16.5328C-35.5636 -16.6084 -32.2465 -16.5474 -28.9294 -16.347C-27.0779 -16.4631 -25.3632 -16.1146 -23.7794 -15.2985C-16.9647 -8.6739 -10.287 -1.9389 -3.83322 4.99358C2.82591 12.1468 9.25487 19.4742 15.4877 26.9556C28.7001 42.8187 40.8048 59.5066 51.9355 76.7028C73.1576 109.489 90.4868 144.52 103.481 180.856C114.058 210.438 122.04 240.858 127.097 271.689C129.038 283.524 130.467 295.426 131.469 307.36C131.914 312.672 132.225 317.992 132.667 323.304C132.866 325.712 133.149 328.067 133.631 330.44C133.759 331.05 133.886 331.657 134.014 332.267C133.973 333.152 133.833 334.029 133.6 334.889C132.589 335.455 131.568 335.383 130.538 334.668C127.756 333.103 125.089 331.378 122.538 329.496C119.918 327.698 117.431 325.755 115.076 323.664C114.061 322.929 113.716 322.029 114.033 320.969Z" fill="url(#paint46_radial)"/>
<path opacity="0.1091" d="M112.321 327.042C112.48 326.458 112.635 325.871 112.794 325.288C112.719 325.656 112.645 326.022 112.57 326.391C111.643 316.444 110.914 306.482 109.713 296.556C108.288 284.79 106.449 273.075 104.165 261.429C98.3866 231.956 90.0129 202.881 78.9289 174.757C72.6214 158.757 65.5172 143.045 57.5511 127.704C48.9098 111.06 39.2729 94.8921 28.749 79.2236C17.7397 62.8319 5.64741 47.024 -7.40323 31.9944C-13.0075 25.5411 -18.7673 19.2156 -24.6921 13.0179C-31.5815 5.80665 -38.7541 -1.15197 -46.0636 -7.99442C-46.9162 -8.73211 -46.8197 -9.3362 -45.7741 -9.80669C-43.5617 -10.3062 -41.3243 -10.3149 -39.0652 -9.83283C-34.8332 -9.37976 -30.623 -8.7931 -26.4377 -8.06994C-24.1257 -7.91311 -21.9911 -7.2945 -20.0307 -6.21121C-6.54441 7.4766 6.29469 21.6988 18.1504 36.6499C30.893 52.7193 42.6709 69.471 53.3971 86.7805C73.4211 119.088 89.7577 153.294 102.105 188.796C112.206 217.838 119.73 247.694 124.538 277.899C126.52 290.355 127.967 302.881 128.91 315.445C129.277 320.336 129.557 325.232 129.884 330.126C130.052 332.67 130.189 335.287 130.615 337.808C130.755 338.548 130.895 339.289 131.035 340.03C131.48 341.165 131.539 342.312 131.215 343.474C131.147 343.843 131.079 344.212 131.007 344.581C130.612 344.642 130.217 344.705 129.821 344.766C129.168 344.459 128.518 344.151 127.864 343.84C125.938 342.394 124.108 340.849 122.375 339.202C119.646 336.733 116.964 334.215 114.499 331.517C113.65 330.835 113.018 330.019 112.607 329.066C112.035 328.453 111.938 327.779 112.321 327.042Z" fill="url(#paint47_radial)"/>
<path opacity="0.1091" d="M105.455 333.492C104.667 332.049 104.309 330.547 104.387 328.987C104.4 327.829 104.328 326.676 104.173 325.526C104.011 323.371 103.871 321.216 103.706 319.061C103.308 313.882 102.816 308.707 102.222 303.546C100.831 291.464 99.0071 279.426 96.695 267.469C91.0565 238.334 82.9005 209.639 72.1245 181.79C59.0085 147.889 42.0776 115.204 21.4435 84.7241C10.4372 68.4632 -1.49648 52.7424 -14.4787 37.7999C-20.0488 31.3902 -25.7713 25.1025 -31.6587 18.9425C-38.5077 11.7748 -45.6366 4.85684 -52.8995 -1.94204C-53.7365 -2.38639 -54.0882 -3.03404 -53.9482 -3.88499C-53.5405 -4.65753 -52.856 -5.00023 -51.8976 -4.91601C-49.8594 -4.66334 -47.8679 -4.22189 -45.9199 -3.59457C-43.9408 -3.06889 -42.0364 -2.36606 -40.2098 -1.48317C-26.9008 11.6064 -14.2079 25.2187 -2.43617 39.5396C10.2162 54.9264 21.9632 70.9725 32.6458 87.611C52.6077 118.707 69.044 151.691 81.6186 185.99C91.9092 214.063 99.6947 242.963 104.845 272.244C106.964 284.291 108.66 296.402 109.848 308.559C110.315 313.325 110.71 318.093 111.034 322.871C111.211 325.482 111.323 328.099 111.541 330.707C111.613 331.491 111.684 332.272 111.756 333.056C111.7 335.13 112.291 337.073 113.52 338.885C113.722 339.64 113.498 340.253 112.854 340.724C112.154 341.124 111.463 341.101 110.776 340.663C109.612 339.672 108.604 338.557 107.751 337.317C106.805 336.129 106.04 334.854 105.455 333.492Z" fill="url(#paint48_radial)"/>
<path opacity="0.1091" d="M105.783 327.454C105.902 326.382 105.895 325.311 105.762 324.242C105.665 323.042 105.563 321.843 105.454 320.644C105.273 318.491 105.108 316.339 104.931 314.187C104.501 308.989 104.007 303.796 103.403 298.612C101.99 286.469 100.148 274.367 97.8018 262.349C92.0856 233.074 83.8395 204.249 72.9547 176.278C59.7143 142.249 42.634 109.448 21.8352 78.8751C10.745 62.5734 -1.27878 46.8178 -14.3449 31.8405C-19.9492 25.4163 -25.7152 19.1198 -31.64 12.9512C-38.5325 5.77473 -45.7049 -1.15194 -53.0112 -7.95954C-53.6803 -8.69432 -53.5652 -9.2955 -52.6628 -9.76309C-50.8176 -10.2539 -48.9442 -10.2597 -47.0461 -9.78341C-43.5329 -9.33035 -40.0448 -8.74078 -36.5846 -8.01762C-34.6273 -7.84627 -32.8784 -7.22766 -31.3318 -6.1618C-17.8829 7.3837 -5.07827 21.4665 6.74631 36.2782C19.4391 52.1791 31.1797 68.7566 41.8622 85.9005C61.7804 117.856 78.0424 151.708 90.343 186.853C100.391 215.564 107.884 245.083 112.688 274.954C114.667 287.25 116.139 299.611 117.104 312.015C117.48 316.856 117.773 321.704 118.078 326.551C118.24 329.118 118.358 331.738 118.728 334.291C118.853 335.049 118.974 335.81 119.099 336.568C119.447 337.761 119.587 338.975 119.516 340.21C119.46 341.11 118.952 341.496 117.997 341.371C116.391 340.779 115.094 339.797 114.095 338.429C111.985 336.242 109.987 333.965 108.105 331.601C106.863 330.422 106.088 329.04 105.783 327.454Z" fill="url(#paint49_radial)"/>
<path opacity="0.1091" d="M119.587 320.53C118.504 319.415 117.785 318.158 117.437 316.764C117.163 315.947 117.119 315.105 117.312 314.234C117.216 312.149 117.001 310.066 116.842 307.984C116.456 302.887 115.968 297.796 115.386 292.713C114.017 280.765 112.184 268.855 109.881 257.031C107.171 243.106 103.916 229.267 100.02 215.585C98.0722 208.751 95.9873 201.955 93.7656 195.197C90.9494 186.626 87.8284 178.149 84.5673 169.718C84.6762 169.988 84.782 170.261 84.8909 170.531C84.2063 168.814 83.5249 167.095 82.8403 165.379C82.9492 165.649 83.0581 165.919 83.167 166.189C82.4638 164.464 81.7605 162.742 81.0573 161.016C81.1662 161.287 81.2781 161.554 81.387 161.824C78.266 154.383 75.0235 146.998 71.5788 139.682C67.6269 131.288 63.3949 123.011 58.9451 114.842C49.9211 98.2756 39.9293 82.1511 28.9542 66.6452C18.589 52.0077 7.47076 37.8814 -4.45344 24.3156C-16.6733 10.4128 -29.8142 -2.73477 -43.5494 -15.3393C-44.0348 -15.7314 -44.2869 -16.2309 -44.3086 -16.8408C-44.4082 -17.442 -44.2557 -17.9764 -43.8574 -18.4439C-43.1697 -18.8244 -42.4229 -19.0277 -41.6138 -19.0509C-40.8172 -19.1642 -40.0424 -19.0916 -39.2925 -18.836C-32.372 -12.5396 -25.5822 -6.13276 -19.004 0.477349C-12.2142 7.29947 -5.64214 14.3046 0.740041 21.4636C14.2699 36.6471 26.7542 52.6438 38.2303 69.2329C59.303 99.69 76.9031 132.293 90.5387 166.244C101.738 194.128 110.55 222.831 116.659 252.062C119.148 263.973 121.22 275.953 122.807 287.997C123.529 293.474 124.149 298.96 124.662 304.458C125.116 309.355 125.412 314.263 125.866 319.16C125.779 318.857 125.695 318.553 125.608 318.25C126.626 319.473 127.646 320.696 128.664 321.919C129.131 322.526 129.171 323.153 128.791 323.801C128.365 324.425 127.758 324.692 126.962 324.602C125.574 324.216 124.27 323.658 123.047 322.923C121.771 322.276 120.617 321.48 119.587 320.53Z" fill="url(#paint50_radial)"/>
<path opacity="0.1091" d="M122.269 329.255C121.124 327.91 120.265 326.441 119.692 324.846C119.297 324.047 119.244 323.196 119.527 322.296C119.453 321.497 119.375 320.702 119.3 319.903C119.182 318.628 119.073 317.356 118.98 316.078C118.581 310.981 118.124 305.887 117.573 300.802C116.276 288.839 114.48 276.917 112.243 265.076C106.632 235.366 98.3738 206.038 87.3676 177.67C73.8782 142.894 56.5147 109.393 35.2056 78.1955C24.5634 62.6141 13.0593 47.5671 0.634106 33.1794C-5.50224 26.0726 -11.8533 19.1373 -18.3941 12.3529C-25.296 5.19098 -32.4811 -1.72408 -39.7968 -8.51716C-40.164 -9.17643 -40.083 -9.78342 -39.5509 -10.3352C-38.5925 -10.9684 -37.5128 -11.16 -36.3148 -10.9132C-34.3015 -10.8144 -32.3068 -10.5763 -30.3309 -10.2045C-29.1049 -10.1668 -28.1091 -9.72824 -27.3498 -8.89181C-13.708 4.14834 -0.672922 17.7258 11.4255 32.0409C23.86 46.751 35.4108 62.0768 46.0685 77.9574C67.079 109.262 84.4892 142.711 97.8292 177.492C108.59 205.545 116.851 234.372 122.624 263.674C125.079 276.139 127.014 288.697 128.408 301.307C128.959 306.279 129.429 311.257 129.824 316.241C130.213 321.129 130.431 326.022 131.336 330.858C131.187 330.469 131.038 330.082 130.888 329.693C131.785 330.954 132.678 332.214 133.574 333.478C134.162 334.16 134.23 334.869 133.779 335.598C133.135 336.19 132.385 336.303 131.529 335.943C129.784 335.098 128.15 334.093 126.628 332.926C125.035 331.842 123.585 330.62 122.269 329.255Z" fill="url(#paint51_radial)"/>
<path opacity="0.1091" d="M113.992 336.027C113.077 334.479 112.221 332.902 111.418 331.305C110.942 330.605 110.895 329.833 111.284 328.987C111.284 326.931 111.023 324.858 110.88 322.807C110.522 317.733 110.049 312.668 109.501 307.609C108.21 295.731 106.43 283.89 104.224 272.131C98.6882 242.606 90.5387 213.459 79.6632 185.252C66.3327 150.677 49.1622 117.357 28.0803 86.307C17.5503 70.8011 6.16463 55.8238 -6.13285 41.4971C-12.2069 34.4194 -18.4989 27.5072 -24.9744 20.7461C-31.8108 13.6045 -38.9303 6.7098 -46.1774 -0.0658516C-46.7998 -0.550864 -47.0083 -1.15786 -46.803 -1.88102C-46.5323 -2.58675 -45.9939 -2.97302 -45.1848 -3.04272C-43.6912 -2.95269 -42.238 -2.67388 -40.8222 -2.2063C-39.3721 -1.84036 -38.0062 -1.29726 -36.7211 -0.579908C-23.378 12.2947 -10.6324 25.6863 1.2014 39.7923C13.3495 54.2729 24.6544 69.3374 35.0599 84.9565C55.5848 115.759 72.5965 148.641 85.6284 182.816C96.1366 210.374 104.202 238.685 109.825 267.461C112.212 279.679 114.125 291.987 115.535 304.336C116.092 309.204 116.577 314.074 116.982 318.956C117.206 321.642 117.377 324.332 117.558 327.021C117.617 327.869 117.673 328.717 117.732 329.568C117.838 330.794 117.828 332.019 117.704 333.242C117.514 332.867 117.324 332.493 117.134 332.118C118.267 334.041 119.403 335.966 120.536 337.889C120.775 338.31 121.018 338.731 121.257 339.152C121.239 339.463 121.223 339.771 121.205 340.082C121.009 340.337 120.812 340.593 120.616 340.848C120.203 341.235 119.736 341.36 119.216 341.229C118.765 341.267 118.395 341.107 118.105 340.753C117.589 340.439 117.138 340.056 116.755 339.6C116.235 339.141 115.772 338.635 115.364 338.086C114.788 337.468 114.331 336.785 113.992 336.027Z" fill="url(#paint52_radial)"/>
<path opacity="0.1091" d="M107.01 320.269C107.343 319.241 107.412 318.207 107.216 317.161C107.101 315.956 106.995 314.751 106.892 313.546C106.712 311.397 106.547 309.25 106.366 307.101C105.93 301.908 105.43 296.718 104.823 291.54C103.401 279.406 101.549 267.313 99.1936 255.304C93.4586 226.055 85.1938 197.253 74.2995 169.305C61.0434 135.299 43.9536 102.525 23.1515 71.9776C12.055 55.6818 0.0249253 39.929 -13.0476 24.9604C-18.6581 18.5391 -24.4273 12.2427 -30.3552 6.074C-37.254 -1.10244 -44.4328 -8.02911 -51.7485 -14.8338C-52.402 -15.4495 -52.3988 -16.0594 -51.7391 -16.6664C-50.3606 -17.436 -48.8483 -17.7468 -47.2021 -17.5958C-44.2927 -17.7206 -41.3832 -17.7061 -38.4737 -17.5551C-36.8245 -17.6887 -35.3152 -17.3663 -33.946 -16.5822C-27.1095 -9.98659 -20.4099 -3.28064 -13.9375 3.62861C-7.26277 10.7528 -0.818403 18.0541 5.42378 25.5122C18.6519 41.3144 30.7536 57.95 41.8781 75.0997C63.0505 107.747 80.3083 142.653 93.2066 178.866C103.69 208.298 111.572 238.563 116.529 269.238C118.43 280.995 119.818 292.815 120.786 304.667C121.219 309.95 121.514 315.242 121.937 320.528C122.13 322.944 122.379 325.349 122.877 327.73C123.011 328.343 123.145 328.956 123.279 329.569C123.086 330.367 122.868 331.16 122.625 331.947C121.726 332.479 120.82 332.423 119.909 331.785C118.303 330.8 116.791 329.711 115.365 328.514C113.517 327.103 111.743 325.616 110.044 324.05C108.604 323.057 107.592 321.797 107.01 320.269Z" fill="url(#paint53_radial)"/>
<path opacity="0.1091" d="M119.811 334.288C117.854 332.754 116.824 330.951 116.721 328.88C116.671 328.354 116.634 327.829 116.609 327.303C116.478 325.258 116.31 323.22 116.161 321.175C115.787 316.087 115.327 311.004 114.776 305.931C113.485 294.009 111.699 282.13 109.477 270.327C103.904 240.718 95.7075 211.487 84.7791 183.202C71.3862 148.545 54.144 115.146 32.981 84.0301C22.4136 68.4923 10.9935 53.4889 -1.34454 39.1331C-7.43732 32.0438 -13.7447 25.1229 -20.2389 18.3502C-27.0941 11.1999 -34.2293 4.29643 -41.4952 -2.48793C-42.1611 -2.92938 -42.4163 -3.52185 -42.2669 -4.25954C-42.046 -4.9827 -41.5325 -5.40382 -40.7265 -5.51999C-39.2142 -5.52289 -37.7269 -5.33411 -36.2643 -4.95946C-34.7769 -4.68356 -33.3549 -4.22759 -32.0044 -3.59446C-18.5399 9.30919 -5.67289 22.7356 6.27618 36.8852C19.1557 52.1384 31.1483 68.0451 42.0611 84.5819C62.5146 115.576 79.4425 148.511 92.4993 182.813C103.216 210.97 111.403 239.992 116.93 269.424C119.207 281.558 121.062 293.765 122.387 306.021C122.907 310.83 123.355 315.642 123.722 320.463C123.922 323.074 124.127 325.691 124.311 328.305C124.354 329.008 124.401 329.711 124.444 330.416C124.647 333.213 125.966 335.615 128.399 337.625C128.714 338.316 128.608 338.938 128.079 339.495C127.509 340.015 126.847 340.143 126.094 339.881C124.821 339.202 123.673 338.368 122.646 337.387C121.544 336.472 120.601 335.441 119.811 334.288Z" fill="url(#paint54_radial)"/>
<path opacity="0.1091" d="M110.003 317.455C110.074 316.34 110.046 315.227 109.925 314.118C109.828 312.924 109.729 311.728 109.623 310.534C109.449 308.385 109.287 306.233 109.106 304.084C108.677 298.888 108.173 293.695 107.56 288.514C106.125 276.377 104.255 264.283 101.884 252.274C96.1086 223.02 87.7972 194.218 76.847 166.276C63.5194 132.267 46.3394 99.5012 25.4347 68.9803C14.2823 52.6932 2.19006 36.9608 -10.9539 22.0183C-16.5924 15.6086 -22.3927 9.32668 -28.3485 3.17254C-35.2784 -3.98357 -42.4882 -10.8899 -49.835 -17.6743C-50.2925 -18.2609 -50.3361 -18.8708 -49.9596 -19.504C-49.2346 -20.2794 -48.2948 -20.6511 -47.1404 -20.625C-45.2982 -20.8719 -43.4498 -20.9793 -41.5921 -20.9532C-40.4501 -21.1158 -39.4698 -20.8544 -38.6452 -20.1719C-24.5895 -7.12889 -11.1593 6.48631 1.30006 20.8828C14.7272 36.3973 27.2054 52.6293 38.5539 69.5292C59.7666 101.122 77.2826 134.779 90.716 169.895C101.716 198.644 110.068 228.308 115.644 258.391C117.944 270.801 119.749 283.289 120.996 295.83C121.485 300.735 121.883 305.643 122.253 310.554C122.446 313.136 122.571 315.764 122.938 318.332C123.053 319.067 123.171 319.804 123.287 320.539C123.607 321.707 123.735 322.894 123.676 324.1C123.763 324.901 123.389 325.404 122.552 325.604C121.146 325.622 119.885 325.189 118.771 324.309C116.634 323.089 114.583 321.753 112.616 320.307C111.347 319.647 110.476 318.692 110.003 317.455Z" fill="url(#paint55_radial)"/>
<path opacity="0.1091" d="M121.971 323.487C119.79 322.308 118.682 320.774 118.651 318.881C118.585 318.108 118.645 317.339 118.831 316.572C118.837 316.842 118.844 317.109 118.85 317.379C118.694 312.613 118.256 307.85 117.789 303.102C117.26 297.683 116.625 292.269 115.884 286.87C114.335 275.575 112.368 264.345 110.056 253.166C103.932 223.554 95.0823 194.468 83.6404 166.265C70.1852 133.101 52.9957 101.276 32.3461 71.5071C21.6884 56.1435 10.1065 41.323 -2.37471 27.2054C-7.99454 20.8479 -13.7731 14.6183 -19.7103 8.51353C-26.6153 1.41551 -33.8003 -5.43275 -41.1161 -12.1619C-41.8567 -12.8444 -41.9842 -14.5841 -41.1876 -15.2782C-40.5684 -15.6093 -39.8995 -15.7603 -39.1806 -15.7313C-38.4618 -15.7894 -37.7865 -15.6645 -37.1548 -15.3595C-23.404 -2.72888 -10.2475 10.4449 1.99725 24.3679C15.1911 39.3714 27.526 55.0399 38.719 71.4025C49.4203 87.0449 59.2348 103.196 68.0535 119.831C76.5517 135.866 84.1227 152.315 90.7788 169.09C96.6195 183.806 101.816 198.728 106.3 213.854C110.476 227.942 113.989 242.208 116.905 256.57C119.373 268.724 121.436 280.957 122.961 293.248C123.558 298.063 124.087 302.887 124.52 307.72C124.641 309.067 124.75 310.415 124.849 311.762C124.949 313.061 125.045 314.356 125.139 315.654C125.145 315.927 125.151 316.2 125.154 316.47C125.257 317.678 125.129 318.863 124.772 320.022C124.526 319.494 124.28 318.968 124.034 318.439C125.78 320.33 127.529 322.221 129.274 324.111C129.567 324.718 129.511 325.302 129.112 325.86C128.742 326.435 128.201 326.731 127.488 326.746C126.408 326.493 125.409 326.066 124.491 325.465C123.521 324.951 122.677 324.291 121.971 323.487Z" fill="url(#paint56_radial)"/>
</g>
<defs>
<linearGradient id="paint0_linear" x1="-144.65" y1="295.44" x2="110.998" y2="7.86998" gradientUnits="userSpaceOnUse">
<stop offset="0.1245" stop-color="#D5EFF8"/>
<stop offset="0.491" stop-color="#99D9E5"/>
<stop offset="0.8077" stop-color="#42507F"/>
<stop offset="0.9569" stop-color="#262262"/>
</linearGradient>
<linearGradient id="paint1_linear" x1="1346.84" y1="251.495" x2="98.0485" y2="251.495" gradientUnits="userSpaceOnUse">
<stop stop-color="#4A897A"/>
<stop offset="1" stop-color="#172A25"/>
</linearGradient>
<linearGradient id="paint2_linear" x1="253.753" y1="182.197" x2="253.753" y2="226.563" gradientUnits="userSpaceOnUse">
<stop offset="0.2847" stop-color="#635554"/>
<stop offset="1" stop-color="#272931"/>
</linearGradient>
<linearGradient id="paint3_linear" x1="267.083" y1="214.984" x2="267.083" y2="252.345" gradientUnits="userSpaceOnUse">
<stop offset="0.2847" stop-color="#635554"/>
<stop offset="1" stop-color="#272931"/>
</linearGradient>
<linearGradient id="paint4_linear" x1="483.833" y1="219.793" x2="483.833" y2="232.731" gradientUnits="userSpaceOnUse">
<stop offset="0.2847" stop-color="#635554"/>
<stop offset="1" stop-color="#272931"/>
</linearGradient>
<linearGradient id="paint5_linear" x1="624.38" y1="206.776" x2="624.38" y2="230.825" gradientUnits="userSpaceOnUse">
<stop offset="0.2847" stop-color="#635554"/>
<stop offset="1" stop-color="#272931"/>
</linearGradient>
<linearGradient id="paint6_linear" x1="457.965" y1="260.391" x2="457.965" y2="326.27" gradientUnits="userSpaceOnUse">
<stop offset="0.0718" stop-color="#635554"/>
<stop offset="0.9384" stop-color="#272931"/>
</linearGradient>
<linearGradient id="paint7_linear" x1="28.6114" y1="246.234" x2="83.529" y2="209.251" gradientUnits="userSpaceOnUse">
<stop offset="0.2545" stop-color="#8DC63F"/>
<stop offset="0.6156" stop-color="#2BB673"/>
<stop offset="0.9885" stop-color="#006838"/>
</linearGradient>
<linearGradient id="paint8_linear" x1="-175.396" y1="351.302" x2="-50.5438" y2="130.54" gradientUnits="userSpaceOnUse">
<stop offset="8.07343e-08" stop-color="#A7A9AC"/>
<stop offset="0.5013" stop-color="#6D6E71"/>
<stop offset="1" stop-color="#414042"/>
</linearGradient>
<linearGradient id="paint9_linear" x1="499.387" y1="282.586" x2="503.118" y2="284.517" gradientUnits="userSpaceOnUse">
<stop stop-color="#DBB25C"/>
<stop offset="1" stop-color="#8E7749"/>
</linearGradient>
<linearGradient id="paint10_linear" x1="501.636" y1="284.418" x2="502.892" y2="285.066" gradientUnits="userSpaceOnUse">
<stop offset="0.00130765" stop-color="#F8F8F9"/>
<stop offset="1" stop-color="#D0EBE5"/>
</linearGradient>
<linearGradient id="paint11_linear" x1="551.47" y1="286.432" x2="554.926" y2="288.771" gradientUnits="userSpaceOnUse">
<stop stop-color="#DBB25C"/>
<stop offset="1" stop-color="#8E7749"/>
</linearGradient>
<linearGradient id="paint12_linear" x1="553.483" y1="288.49" x2="554.647" y2="289.276" gradientUnits="userSpaceOnUse">
<stop offset="0.00130765" stop-color="#F8F8F9"/>
<stop offset="1" stop-color="#D0EBE5"/>
</linearGradient>
<linearGradient id="paint13_linear" x1="603.169" y1="269.937" x2="591.867" y2="275.529" gradientUnits="userSpaceOnUse">
<stop stop-color="#4AB0C9"/>
<stop offset="1" stop-color="#015F73"/>
</linearGradient>
<linearGradient id="paint14_linear" x1="529.422" y1="248.377" x2="520.965" y2="257.357" gradientUnits="userSpaceOnUse">
<stop stop-color="#4AB0C9"/>
<stop offset="1" stop-color="#015F73"/>
</linearGradient>
<linearGradient id="paint15_linear" x1="504.427" y1="304.341" x2="499.841" y2="277.654" gradientUnits="userSpaceOnUse">
<stop stop-color="#BDD2A7"/>
<stop offset="1" stop-color="#33574D"/>
</linearGradient>
<linearGradient id="paint16_linear" x1="478.922" y1="298.947" x2="477.674" y2="291.688" gradientUnits="userSpaceOnUse">
<stop stop-color="#A68A6F"/>
<stop offset="0.9974" stop-color="#6E6755"/>
</linearGradient>
<linearGradient id="paint17_linear" x1="524.048" y1="292.396" x2="498.486" y2="297.418" gradientUnits="userSpaceOnUse">
<stop stop-color="#A68A6F"/>
<stop offset="0.9974" stop-color="#6E6755"/>
</linearGradient>
<linearGradient id="paint18_linear" x1="244.032" y1="249.786" x2="272.116" y2="262.695" gradientUnits="userSpaceOnUse">
<stop stop-color="#9ED3F2"/>
<stop offset="1" stop-color="#06BAE6" stop-opacity="0.5"/>
</linearGradient>
<linearGradient id="paint19_linear" x1="180.894" y1="266.241" x2="194.735" y2="245.072" gradientUnits="userSpaceOnUse">
<stop stop-color="#9ED3F2"/>
<stop offset="1" stop-color="#06BAE6" stop-opacity="0.5"/>
</linearGradient>
<linearGradient id="paint20_linear" x1="465.561" y1="298.623" x2="465.057" y2="284.27" gradientUnits="userSpaceOnUse">
<stop stop-color="#9E9E9E"/>
<stop offset="1" stop-color="#514B4C"/>
</linearGradient>
<linearGradient id="paint21_linear" x1="618.753" y1="281.378" x2="613.763" y2="294.974" gradientUnits="userSpaceOnUse">
<stop stop-color="#9E9E9E"/>
<stop offset="1" stop-color="#514B4C"/>
</linearGradient>
<linearGradient id="paint22_linear" x1="258.546" y1="277.755" x2="199.469" y2="277.755" gradientUnits="userSpaceOnUse">
<stop stop-color="#CFE0CB"/>
<stop offset="1" stop-color="#8DA088"/>
</linearGradient>
<linearGradient id="paint23_linear" x1="258.546" y1="273.845" x2="221.307" y2="273.845" gradientUnits="userSpaceOnUse">
<stop stop-color="#CFE0CB"/>
<stop offset="1" stop-color="#A7BAA0" stop-opacity="0.55"/>
</linearGradient>
<linearGradient id="paint24_linear" x1="316.31" y1="274.478" x2="319.156" y2="271.504" gradientUnits="userSpaceOnUse">
<stop stop-color="#DBB25C"/>
<stop offset="1" stop-color="#8E7749"/>
</linearGradient>
<linearGradient id="paint25_linear" x1="318.918" y1="273.124" x2="319.878" y2="272.125" gradientUnits="userSpaceOnUse">
<stop offset="0.00130765" stop-color="#F8F8F9"/>
<stop offset="1" stop-color="#D0EBE5"/>
</linearGradient>
<linearGradient id="paint26_linear" x1="418.062" y1="234.087" x2="421.349" y2="235.788" gradientUnits="userSpaceOnUse">
<stop stop-color="#DBB25C"/>
<stop offset="1" stop-color="#8E7749"/>
</linearGradient>
<linearGradient id="paint27_linear" x1="420.143" y1="235.331" x2="421.321" y2="235.939" gradientUnits="userSpaceOnUse">
<stop offset="0.00130765" stop-color="#F8F8F9"/>
<stop offset="1" stop-color="#D0EBE5"/>
</linearGradient>
<linearGradient id="paint28_linear" x1="412.081" y1="234.801" x2="414.408" y2="232.157" gradientUnits="userSpaceOnUse">
<stop stop-color="#DBB25C"/>
<stop offset="1" stop-color="#8E7749"/>
</linearGradient>
<linearGradient id="paint29_linear" x1="414.549" y1="233.667" x2="415.268" y2="232.853" gradientUnits="userSpaceOnUse">
<stop offset="0.00130765" stop-color="#F8F8F9"/>
<stop offset="1" stop-color="#D0EBE5"/>
</linearGradient>
<linearGradient id="paint30_linear" x1="405.026" y1="248.576" x2="405.026" y2="252.558" gradientUnits="userSpaceOnUse">
<stop stop-color="#DBB25C"/>
<stop offset="1" stop-color="#8E7749"/>
</linearGradient>
<linearGradient id="paint31_linear" x1="404.243" y1="251.264" x2="404.243" y2="252.607" gradientUnits="userSpaceOnUse">
<stop offset="0.00130765" stop-color="#F8F8F9"/>
<stop offset="1" stop-color="#D0EBE5"/>
</linearGradient>
<linearGradient id="paint32_linear" x1="164.954" y1="256.592" x2="164.954" y2="259.927" gradientUnits="userSpaceOnUse">
<stop stop-color="#DBB25C"/>
<stop offset="1" stop-color="#8E7749"/>
</linearGradient>
<linearGradient id="paint33_linear" x1="165.612" y1="258.843" x2="165.612" y2="259.968" gradientUnits="userSpaceOnUse">
<stop offset="0.00130765" stop-color="#F8F8F9"/>
<stop offset="1" stop-color="#D0EBE5"/>
</linearGradient>
<linearGradient id="paint34_linear" x1="414.367" y1="234.55" x2="416.855" y2="237.15" gradientUnits="userSpaceOnUse">
<stop stop-color="#DBB25C"/>
<stop offset="1" stop-color="#8E7749"/>
</linearGradient>
<linearGradient id="paint35_linear" x1="416.909" y1="235.625" x2="417.679" y2="236.426" gradientUnits="userSpaceOnUse">
<stop offset="0.00130765" stop-color="#F8F8F9"/>
<stop offset="1" stop-color="#D0EBE5"/>
</linearGradient>
<linearGradient id="paint36_linear" x1="167.585" y1="257.65" x2="170.711" y2="256.032" gradientUnits="userSpaceOnUse">
<stop stop-color="#DBB25C"/>
<stop offset="1" stop-color="#8E7749"/>
</linearGradient>
<linearGradient id="paint37_linear" x1="169.469" y1="256.115" x2="170.521" y2="255.572" gradientUnits="userSpaceOnUse">
<stop offset="0.00130765" stop-color="#F8F8F9"/>
<stop offset="1" stop-color="#D0EBE5"/>
</linearGradient>
<linearGradient id="paint38_linear" x1="157.032" y1="261.108" x2="159.926" y2="259.149" gradientUnits="userSpaceOnUse">
<stop stop-color="#DBB25C"/>
<stop offset="1" stop-color="#8E7749"/>
</linearGradient>
<linearGradient id="paint39_linear" x1="158.717" y1="259.384" x2="159.692" y2="258.726" gradientUnits="userSpaceOnUse">
<stop offset="0.00130765" stop-color="#F8F8F9"/>
<stop offset="1" stop-color="#D0EBE5"/>
</linearGradient>
<linearGradient id="paint40_linear" x1="164.913" y1="264.157" x2="167.808" y2="262.198" gradientUnits="userSpaceOnUse">
<stop stop-color="#DBB25C"/>
<stop offset="1" stop-color="#8E7749"/>
</linearGradient>
<linearGradient id="paint41_linear" x1="166.6" y1="262.434" x2="167.574" y2="261.776" gradientUnits="userSpaceOnUse">
<stop offset="0.00130765" stop-color="#F8F8F9"/>
<stop offset="1" stop-color="#D0EBE5"/>
</linearGradient>
<linearGradient id="paint42_linear" x1="112.144" y1="252.524" x2="103.751" y2="245.926" gradientUnits="userSpaceOnUse">
<stop stop-color="#4AB0C9"/>
<stop offset="1" stop-color="#015F73"/>
</linearGradient>
<linearGradient id="paint43_linear" x1="123.804" y1="259.254" x2="124.405" y2="253.745" gradientUnits="userSpaceOnUse">
<stop stop-color="#4AB0C9"/>
<stop offset="1" stop-color="#015F73"/>
</linearGradient>
<linearGradient id="paint44_linear" x1="1346.5" y1="144.863" x2="-32.9516" y2="144.863" gradientUnits="userSpaceOnUse">
<stop offset="0.0665" stop-color="#CFE0CB"/>
<stop offset="0.9633" stop-color="#172A25"/>
</linearGradient>
<radialGradient id="paint45_radial" cx="0" cy="0" r="1" gradientUnits="userSpaceOnUse" gradientTransform="translate(45.607 166.834) rotate(180) scale(146.815 137.026)">
<stop stop-color="white"/>
<stop offset="1" stop-color="#A7A9AC"/>
</radialGradient>
<radialGradient id="paint46_radial" cx="0" cy="0" r="1" gradientUnits="userSpaceOnUse" gradientTransform="translate(44.6735 159.341) rotate(180) scale(147.497 137.662)">
<stop stop-color="white"/>
<stop offset="1" stop-color="#A7A9AC"/>
</radialGradient>
<radialGradient id="paint47_radial" cx="0" cy="0" r="1" gradientUnits="userSpaceOnUse" gradientTransform="translate(42.3876 167.288) rotate(180) scale(148.466 138.567)">
<stop stop-color="white"/>
<stop offset="1" stop-color="#A7A9AC"/>
</radialGradient>
<radialGradient id="paint48_radial" cx="0" cy="0" r="1" gradientUnits="userSpaceOnUse" gradientTransform="translate(29.8073 168.034) rotate(180) scale(143.815 134.225)">
<stop stop-color="white"/>
<stop offset="1" stop-color="#A7A9AC"/>
</radialGradient>
<radialGradient id="paint49_radial" cx="0" cy="0" r="1" gradientUnits="userSpaceOnUse" gradientTransform="translate(33.0479 165.63) rotate(180) scale(146.535 136.765)">
<stop stop-color="white"/>
<stop offset="1" stop-color="#A7A9AC"/>
</radialGradient>
<radialGradient id="paint50_radial" cx="0" cy="0" r="1" gradientUnits="userSpaceOnUse" gradientTransform="translate(42.3543 152.756) rotate(180) scale(143.915 134.319)">
<stop stop-color="white"/>
<stop offset="1" stop-color="#A7A9AC"/>
</radialGradient>
<radialGradient id="paint51_radial" cx="0" cy="0" r="1" gradientUnits="userSpaceOnUse" gradientTransform="translate(47.0267 162.565) rotate(180) scale(145.2 135.519)">
<stop stop-color="white"/>
<stop offset="1" stop-color="#A7A9AC"/>
</radialGradient>
<radialGradient id="paint52_radial" cx="0" cy="0" r="1" gradientUnits="userSpaceOnUse" gradientTransform="translate(37.1877 169.112) rotate(180) scale(143.341 133.785)">
<stop stop-color="white"/>
<stop offset="1" stop-color="#A7A9AC"/>
</radialGradient>
<radialGradient id="paint53_radial" cx="0" cy="0" r="1" gradientUnits="userSpaceOnUse" gradientTransform="translate(35.5214 157.312) rotate(180) scale(146.383 136.622)">
<stop stop-color="white"/>
<stop offset="1" stop-color="#A7A9AC"/>
</radialGradient>
<radialGradient id="paint54_radial" cx="0" cy="0" r="1" gradientUnits="userSpaceOnUse" gradientTransform="translate(43.134 167.241) rotate(180) scale(144.163 134.551)">
<stop stop-color="white"/>
<stop offset="1" stop-color="#A7A9AC"/>
</radialGradient>
<radialGradient id="paint55_radial" cx="0" cy="0" r="1" gradientUnits="userSpaceOnUse" gradientTransform="translate(36.7409 152.311) rotate(180) scale(144.98 135.314)">
<stop stop-color="white"/>
<stop offset="1" stop-color="#A7A9AC"/>
</radialGradient>
<radialGradient id="paint56_radial" cx="0" cy="0" r="1" gradientUnits="userSpaceOnUse" gradientTransform="translate(43.8619 155.499) rotate(180) scale(143.165 133.619)">
<stop stop-color="white"/>
<stop offset="1" stop-color="#A7A9AC"/>
</radialGradient>
<clipPath id="clip0">
<rect width="610" height="307" fill="white" transform="matrix(-1 0 0 1 610 0)"/>
</clipPath>
</defs>
</svg>
